# https://github.com/mikedh/trimesh
v -0.00000686 0.45644700 -0.62346800
v 0.00007324 0.45639600 -0.62346800
v -0.00000686 0.45644700 -0.77505900
v -0.11411200 0.43741400 -0.62346800
v 0.00007324 0.45639600 -0.76078200
v 0.00007324 0.39938200 -0.62346800
v 0.00007324 0.44251600 -0.77505900
v -0.11411200 0.43741400 -0.77505900
v -0.17116500 0.41839800 -0.62346800
v -0.00000686 0.38974500 -0.77505900
v 0.00007324 0.39304300 -0.77341200
v -0.27258900 0.29162400 -0.62346800
v -0.27267000 0.29148700 -0.62351300
v -0.27267000 0.28095700 -0.77505900
v 0.00007324 0.39539700 -0.77505900
v -0.17116500 0.41839800 -0.77505900
v -0.18107000 0.41345100 -0.62346800
v -0.27267000 0.29165900 -0.62346800
v -0.27267000 0.35815500 -0.77505900
v -0.18384700 0.41205900 -0.77505900
v -0.23142200 0.38826800 -0.77505900
v -0.23176900 0.38809600 -0.62346800
v -0.27267000 0.35815500 -0.62346800
v -0.23454500 0.38670500 -0.77505900
v -0.23454500 0.38670500 -0.62346800
f 6 14 10
f 6 13 14
f 6 12 13
f 3 16 8
f 4 16 9
f 4 8 16
f 3 20 16
f 9 16 17
f 6 10 11
f 10 15 11
f 19 25 24
f 13 18 23
f 13 23 19
f 16 20 17
f 17 20 21
f 17 21 22
f 19 23 25
f 3 21 20
f 21 24 22
f 22 24 25
f 12 18 13
f 3 24 21
f 13 19 14
f 3 14 19
f 3 19 24
f 1 2 5
f 1 5 3
f 1 3 8
f 1 8 4
f 1 4 9
f 1 17 22
f 1 22 25
f 1 25 23
f 1 23 18
f 1 9 17
f 1 12 6
f 1 6 2
f 2 6 11
f 2 11 15
f 3 10 14
f 2 15 7
f 2 7 5
f 3 5 7
f 3 7 15
f 3 15 10
f 1 18 12