# https://github.com/mikedh/trimesh
v -0.45639300 0.00010828 -0.77505900
v -0.38973800 0.00010828 -0.77505900
v -0.45639300 0.00010828 -0.62346800
v -0.43741800 0.11412800 -0.77505900
v -0.39937800 0.00010828 -0.62346800
v -0.27267000 0.28093300 -0.77505900
v -0.27267000 0.29144900 -0.62351300
v -0.43741800 0.11412800 -0.62346800
v -0.41840700 0.17119000 -0.77505900
v -0.27267000 0.29162400 -0.62346800
v -0.27267000 0.35815000 -0.77505900
v -0.41840700 0.17119000 -0.62346800
v -0.41702200 0.17395900 -0.62346800
v -0.39304700 0.22187300 -0.77505900
v -0.27267000 0.35815000 -0.62346800
v -0.28849700 0.35022800 -0.77505900
v -0.28885700 0.35005300 -0.62346800
v -0.27617700 0.35639700 -0.62346800
v -0.39166200 0.22464200 -0.62346800
v -0.38669800 0.23456200 -0.77505900
v -0.29162600 0.34865100 -0.77505900
v -0.29162600 0.34865100 -0.62346800
v -0.38669800 0.23456200 -0.62346800
v -0.34867700 0.29158900 -0.77505900
v -0.31065500 0.32965400 -0.77505900
v -0.31065500 0.32965400 -0.62346800
v -0.34867700 0.29158900 -0.62346800
f 6 10 7
f 6 15 10
f 6 11 15
f 3 13 12
f 4 12 9
f 4 8 12
f 3 12 8
f 9 12 13
f 5 7 10
f 9 13 19
f 21 25 26
f 11 16 17
f 11 17 18
f 11 18 15
f 14 19 20
f 16 21 17
f 17 21 22
f 19 23 20
f 20 23 27
f 20 27 24
f 3 19 13
f 21 26 22
f 9 19 14
f 3 23 19
f 1 6 2
f 3 26 27
f 24 27 26
f 1 2 5
f 1 5 3
f 1 3 8
f 1 8 4
f 1 4 9
f 1 9 14
f 1 14 20
f 1 20 24
f 1 24 25
f 3 27 23
f 1 25 21
f 1 16 11
f 1 11 6
f 2 6 7
f 2 7 5
f 3 5 10
f 3 10 15
f 3 15 18
f 3 18 17
f 3 17 22
f 3 22 26
f 1 21 16
f 24 26 25