# https://github.com/mikedh/trimesh
v -0.45644700 -0.00001392 -0.85583600
v -0.45644700 -0.00001392 -0.77280900
v -0.45640500 0.00002967 -0.85583600
v -0.45636200 0.00002967 -0.85597600
v -0.43108800 -0.10780200 -0.86851400
v -0.43741700 -0.11412200 -0.85583600
v -0.43571800 0.00002967 -0.77280900
v -0.45640500 0.00002967 -0.77966200
v -0.43741700 -0.11412200 -0.77280900
v -0.44884400 0.00002967 -0.86725500
v -0.41838700 -0.11412200 -0.87485700
v -0.41205800 -0.16485700 -0.86851400
v -0.40572800 -0.19654400 -0.86217000
v -0.43754400 0.00002967 -0.87477700
v -0.43741700 -0.00001392 -0.87485700
v -0.41838700 -0.17117700 -0.85583600
v -0.39332500 0.00002967 -0.77280900
v -0.41838700 -0.17117700 -0.77280900
v -0.39935700 -0.17117700 -0.87485700
v -0.38036900 -0.20922700 -0.87485700
v -0.38669800 -0.23455100 -0.86217000
v -0.39302700 -0.22191100 -0.84949300
v -0.40572800 -0.19654400 -0.77280900
v -0.43741700 0.00002967 -0.87483700
v -0.41838700 0.00002967 -0.87485700
v -0.15217600 0.00002967 -0.77977200
v -0.02248940 -0.39333500 -0.77280900
v -0.34230800 -0.26623800 -0.87485700
v -0.33916500 -0.28210300 -0.87168000
v -0.37718300 -0.22504900 -0.87168000
v -0.38669800 -0.23455100 -0.77280900
v -0.34863700 -0.29160500 -0.86217000
v -0.39302700 -0.22191100 -0.77280900
v -0.03807900 0.00002967 -0.87485700
v -0.13773300 0.00002967 -0.78566600
v -0.03807900 -0.13317000 -0.77977200
v -0.02248940 -0.13626400 -0.78287900
v -0.02248940 -0.44520300 -0.77280900
v -0.02248940 -0.15217300 -0.77977200
v -0.30429000 -0.30428900 -0.87485700
v -0.28207400 -0.33915800 -0.87168000
v -0.31061900 -0.32965600 -0.86217000
v -0.34863700 -0.29160500 -0.77280900
v -0.02248940 0.00002967 -0.85930300
v -0.02248940 -0.00001392 -0.87485700
v -0.02248940 -0.00001392 -0.85583600
v -0.11411500 -0.43740100 -0.77280900
v -0.02248940 -0.44520300 -0.85930300
v -0.26623000 -0.34229600 -0.87485700
v -0.20922400 -0.38034600 -0.87485700
v -0.22506800 -0.37716500 -0.87168000
v -0.23458300 -0.38671000 -0.86217000
v -0.29158900 -0.34865900 -0.86217000
v -0.31061900 -0.32965600 -0.77280900
v -0.02248940 -0.41839700 -0.87485700
v -0.11411500 -0.43740100 -0.85583600
v -0.17120600 -0.41839700 -0.77280900
v -0.02248940 -0.44433100 -0.86274900
v -0.17120600 -0.39935000 -0.87485700
v -0.18705000 -0.39621200 -0.87168000
v -0.23458300 -0.38671000 -0.77280900
v -0.18067800 -0.40889500 -0.86534700
v -0.19656500 -0.40571400 -0.86217000
v -0.17120600 -0.41839700 -0.85583600
v -0.29158900 -0.34865900 -0.77280900
v -0.02248940 -0.43291100 -0.87035200
v -0.11411500 -0.41839700 -0.87485700
v -0.10778600 -0.43108100 -0.86851400
v -0.16483400 -0.41203400 -0.86851400
f 27 44 46
f 27 46 37
f 27 37 39
f 27 39 36
f 28 40 29
f 29 40 41
f 32 42 54
f 29 42 32
f 32 54 43
f 34 44 45
f 35 46 44
f 35 37 46
f 36 39 37
f 29 41 42
f 27 45 44
f 26 27 36
f 27 66 55
f 27 58 66
f 27 48 58
f 27 38 48
f 26 37 35
f 26 36 37
f 21 43 31
f 21 32 43
f 21 29 32
f 21 30 29
f 21 33 22
f 21 31 33
f 38 47 56
f 20 30 21
f 27 55 45
f 38 56 48
f 52 64 57
f 41 49 50
f 20 29 30
f 66 68 67
f 62 64 63
f 62 68 64
f 62 69 68
f 59 62 60
f 59 69 62
f 59 68 69
f 59 67 68
f 58 68 66
f 56 68 58
f 56 64 68
f 55 66 67
f 52 57 61
f 52 63 64
f 52 62 63
f 52 60 62
f 41 50 51
f 41 51 52
f 41 52 53
f 41 53 42
f 42 53 65
f 42 65 54
f 40 49 41
f 47 57 64
f 48 56 58
f 50 59 60
f 50 60 52
f 50 52 51
f 52 61 65
f 52 65 53
f 47 64 56
f 20 28 29
f 2 23 33
f 15 24 25
f 3 24 14
f 3 25 24
f 3 34 25
f 3 44 34
f 3 35 44
f 3 26 35
f 3 17 26
f 3 7 17
f 3 8 7
f 2 17 7
f 2 27 17
f 2 38 27
f 2 47 38
f 2 57 47
f 3 14 10
f 2 61 57
f 2 54 65
f 2 43 54
f 2 31 43
f 2 33 31
f 2 18 23
f 2 9 18
f 17 27 26
f 1 9 2
f 1 6 9
f 1 5 6
f 1 4 5
f 1 3 4
f 1 8 3
f 1 2 8
f 2 65 61
f 3 10 4
f 2 7 8
f 5 11 19
f 4 10 5
f 14 24 15
f 13 18 16
f 13 23 18
f 13 33 23
f 13 21 22
f 13 20 21
f 12 20 13
f 12 19 20
f 11 20 19
f 11 28 20
f 11 40 28
f 11 49 40
f 11 50 49
f 11 59 50
f 13 22 33
f 11 55 67
f 11 67 59
f 5 12 13
f 5 13 6
f 5 19 12
f 5 14 15
f 5 15 11
f 6 13 16
f 5 10 14
f 6 18 9
f 11 15 25
f 11 25 34
f 11 34 45
f 6 16 18
f 11 45 55