# https://github.com/mikedh/trimesh
v 0.25534400 0.26648300 -0.77965700
v 0.25534400 0.30712200 -0.62345300
v 0.25534400 0.36682200 -0.77965700
v 0.38055100 0.00010914 -0.77965700
v 0.39938800 0.00010914 -0.62345300
v 0.25534400 0.36682200 -0.62345300
v 0.27894500 0.35501100 -0.77965700
v 0.45641100 0.00010914 -0.77965700
v 0.45641100 0.00010914 -0.62345300
v 0.27894500 0.35501100 -0.62345300
v 0.29162100 0.34865700 -0.77965700
v 0.43741600 0.11412600 -0.77965700
v 0.43741600 0.11412600 -0.62345300
v 0.29162100 0.34865700 -0.62345300
v 0.31065500 0.32963000 -0.77965700
v 0.41840200 0.17117000 -0.77965700
v 0.41840200 0.17117000 -0.62345300
v 0.31065500 0.32963000 -0.62345300
v 0.34868300 0.29161300 -0.77965700
v 0.41836300 0.17127800 -0.77965700
v 0.38779400 0.23237900 -0.62345300
v 0.34868300 0.29161300 -0.62345300
v 0.38671200 0.23453300 -0.77965700
v 0.38671200 0.23453300 -0.62345300
f 3 6 10
f 11 14 18
f 3 10 7
f 4 8 9
f 4 9 5
f 7 10 14
f 7 14 11
f 8 12 13
f 8 13 9
f 11 18 15
f 17 20 21
f 12 17 13
f 15 18 22
f 15 22 19
f 16 20 17
f 19 22 24
f 19 24 23
f 20 23 21
f 21 23 24
f 2 10 6
f 12 16 17
f 2 14 10
f 1 6 3
f 2 22 18
f 1 2 6
f 2 18 14
f 1 3 7
f 1 7 11
f 1 11 15
f 1 15 19
f 1 23 20
f 1 20 16
f 1 16 12
f 1 19 23
f 1 8 4
f 2 24 22
f 1 12 8
f 2 17 21
f 2 13 17
f 2 21 24
f 2 5 9
f 1 5 2
f 1 4 5
f 2 9 13