# https://github.com/mikedh/trimesh
v 0.39939100 0.00010922 -0.62330700
v 0.25344400 0.31068000 -0.62330700
v 0.45641100 0.00010922 -0.62330700
v 0.39939100 0.00010922 0.85579100
v 0.25344400 0.36776300 -0.62330700
v 0.25344400 0.31068000 0.86195100
v 0.43741700 0.11413000 -0.62330700
v 0.45641100 0.00010922 0.83672500
v 0.40572900 0.00010922 0.86840400
v 0.25344400 0.31708700 0.86913700
v 0.25344400 0.31089600 0.86224400
v 0.27043000 0.35926900 -0.62330700
v 0.25344400 0.36776300 0.86195100
v 0.41840400 0.17117700 -0.62330700
v 0.43741700 0.11413000 0.85579100
v 0.45637100 0.00010922 0.83687200
v 0.41840400 0.00010922 0.87471100
v 0.25676200 0.31377500 0.87001700
v 0.25344400 0.34109300 0.87353700
v 0.29162900 0.34865100 -0.62330700
v 0.29162900 0.34865100 0.84303100
v 0.25344400 0.36769100 0.86209800
v 0.25358300 0.36769100 0.86209800
v 0.41206600 0.18388200 -0.62330700
v 0.41840400 0.17117700 0.83672500
v 0.39939100 0.20918400 0.85579100
v 0.40888700 0.18067900 0.86532400
v 0.42790100 0.12363200 0.86532400
v 0.43108000 0.10779600 0.86840400
v 0.44375500 0.00637174 0.86209800
v 0.44689400 0.00010922 0.85579100
v 0.41840400 0.11413000 0.87471100
v 0.26627800 0.32331300 0.87471100
v 0.43108000 0.00010922 0.86840400
v 0.25344400 0.36754700 0.86224400
v 0.28529100 0.32331300 0.87471100
v 0.27577500 0.35181800 0.86532400
v 0.31064200 0.32964800 -0.62330700
v 0.31064200 0.32964800 0.86209800
v 0.38669500 0.23455800 -0.62330700
v 0.41206600 0.18388200 0.83041800
v 0.38669500 0.23455800 0.86209800
v 0.38987400 0.21868600 0.86532400
v 0.37719900 0.22502000 0.87163100
v 0.38035800 0.20918400 0.87471100
v 0.43749700 0.00010922 0.86517800
v 0.44331800 0.00010922 0.86033800
v 0.32331800 0.28527000 0.87471100
v 0.30114600 0.32014600 0.87163100
v 0.34868900 0.29160500 -0.62330700
v 0.32967500 0.31060800 0.86209800
v 0.34868900 0.29160500 0.84303100
v 0.35184800 0.27576800 0.86532400
v 0.32015900 0.30110600 0.87163100
f 20 39 38
f 21 23 39
f 22 35 23
f 23 35 37
f 24 42 41
f 25 41 26
f 26 42 27
f 27 42 43
f 26 41 42
f 23 37 39
f 20 21 39
f 17 34 30
f 19 36 37
f 19 33 36
f 17 29 32
f 17 30 29
f 17 19 18
f 17 33 19
f 17 36 33
f 17 48 36
f 27 43 44
f 17 45 48
f 19 37 35
f 27 44 45
f 42 52 51
f 27 32 29
f 17 32 45
f 51 54 53
f 49 54 51
f 48 54 49
f 44 53 54
f 44 48 45
f 44 54 48
f 42 44 43
f 42 53 44
f 42 51 53
f 40 52 42
f 40 50 52
f 39 51 52
f 39 49 51
f 38 52 50
f 38 39 52
f 37 49 39
f 36 49 37
f 36 48 49
f 30 34 46
f 30 47 31
f 30 46 47
f 27 29 28
f 27 45 32
f 16 30 31
f 24 40 42
f 15 29 30
f 2 10 19
f 2 11 10
f 2 6 11
f 1 6 2
f 1 4 6
f 1 9 4
f 1 17 9
f 1 34 17
f 1 46 34
f 1 47 46
f 1 31 47
f 1 16 31
f 1 8 16
f 1 3 8
f 1 7 3
f 1 14 7
f 1 24 14
f 1 40 24
f 1 50 40
f 1 20 38
f 1 12 20
f 1 5 12
f 1 2 5
f 2 19 35
f 2 35 22
f 1 38 50
f 2 13 5
f 2 22 13
f 15 28 29
f 15 27 28
f 15 25 26
f 14 41 25
f 14 24 41
f 13 23 21
f 13 22 23
f 12 21 20
f 12 13 21
f 10 18 19
f 15 26 27
f 9 17 18
f 9 18 10
f 3 15 8
f 4 10 11
f 15 30 16
f 4 9 10
f 5 13 12
f 7 14 25
f 7 25 15
f 8 15 16
f 4 11 6
f 3 7 15