# https://github.com/mikedh/trimesh
v 0.27354600 -0.31603800 0.87485700
v 0.27354600 -0.32331800 0.87485700
v 0.27354600 -0.29464200 0.87001600
v -0.02248940 -0.41839600 0.87485700
v 0.20918700 -0.38036100 0.87485700
v 0.27354600 -0.33652300 0.87179100
v 0.27354600 -0.29277100 0.86630500
v -0.02248940 -0.40285600 0.86275500
v -0.02248940 -0.40572300 0.86840300
v 0.11414000 -0.41839600 0.87485700
v -0.02248940 -0.43108500 0.86840300
v 0.00002618 -0.44375800 0.86210900
v 0.22819600 -0.38274800 0.87001600
v 0.27354600 -0.34138300 0.86937100
v 0.27354600 -0.28973100 0.85581600
v -0.02248940 -0.39938700 0.85581600
v 0.11414000 -0.43108500 0.86840300
v 0.13312000 -0.42078300 0.87001600
v -0.02248940 -0.44130200 0.85387900
v 0.00953084 -0.45169100 0.84629500
v 0.12364500 -0.43266500 0.86533600
v -0.00950747 -0.44693400 0.85097500
v 0.00002618 -0.45643000 0.83677400
v 0.21869100 -0.39463100 0.86533600
v 0.27354600 -0.34655100 0.86630500
v 0.27354600 -0.28102500 -0.77370200
v -0.02248940 -0.39248400 -0.77370200
v -0.01266600 -0.45009400 0.84306700
v -0.02248940 -0.44520000 0.83322400
v 0.11414000 -0.43742200 0.85581600
v 0.18067300 -0.41363900 0.84629500
v -0.01295580 -0.44995700 -0.77370200
v 0.00002618 -0.45643000 -0.77370200
v 0.22187900 -0.39305100 0.85581600
v 0.23454200 -0.38669800 0.85581600
v 0.27354600 -0.34876600 0.86307700
v 0.27354600 -0.35771200 -0.77370200
v -0.02248940 -0.44520000 -0.77370200
v 0.17113900 -0.41839600 0.83677400
v 0.11414000 -0.43742200 -0.77370200
v 0.19652300 -0.40572300 0.83677400
v 0.17519600 -0.41638700 -0.77370200
v 0.22187900 -0.39305100 -0.77370200
v 0.27354600 -0.35771200 0.84403600
v 0.27354600 -0.35604700 0.84839300
v 0.27354600 -0.35240600 0.85581600
v 0.23454200 -0.38669800 -0.77370200
v 0.17113900 -0.41839600 -0.77370200
f 26 37 47
f 24 36 25
f 24 35 36
f 24 34 35
f 24 31 34
f 23 40 30
f 23 33 40
f 23 32 33
f 23 29 32
f 20 30 21
f 22 28 23
f 21 31 24
f 21 30 31
f 20 23 30
f 19 29 28
f 19 28 22
f 17 21 18
f 16 26 27
f 26 47 43
f 23 28 29
f 39 48 42
f 34 42 43
f 26 48 40
f 15 26 16
f 35 37 44
f 35 47 37
f 35 46 36
f 35 45 46
f 35 44 45
f 34 47 35
f 34 43 47
f 34 41 42
f 26 42 48
f 31 42 41
f 31 41 34
f 30 48 39
f 30 40 48
f 30 39 31
f 29 38 32
f 26 38 27
f 26 32 38
f 26 33 32
f 26 40 33
f 31 39 42
f 13 25 14
f 26 43 42
f 13 21 24
f 3 9 4
f 3 8 9
f 3 7 8
f 2 5 6
f 1 5 2
f 1 10 5
f 1 4 10
f 1 3 4
f 1 7 3
f 4 9 8
f 1 15 7
f 1 37 26
f 1 44 37
f 1 45 44
f 1 46 45
f 1 36 46
f 1 25 36
f 1 14 25
f 1 6 14
f 13 24 25
f 1 26 15
f 4 8 16
f 1 2 6
f 4 27 38
f 13 18 21
f 12 23 20
f 12 22 23
f 12 19 22
f 12 21 17
f 12 20 21
f 4 16 27
f 10 18 13
f 10 17 18
f 10 12 17
f 11 19 12
f 7 15 16
f 6 13 14
f 5 13 6
f 5 10 13
f 4 12 10
f 4 11 12
f 4 19 11
f 4 29 19
f 7 16 8
f 4 38 29