# https://github.com/mikedh/trimesh
v -0.37053600 -0.24791000 -0.77279900
v -0.38669800 -0.23456000 -0.77279900
v -0.30483800 -0.24791000 -0.77279900
v -0.37053600 -0.24791000 0.85502000
v -0.39242600 -0.22312700 -0.77279900
v -0.38669800 -0.23456000 0.84937500
v -0.39336100 0.00007324 -0.77279900
v -0.39938600 0.00007324 0.85582600
v -0.31347500 -0.24791000 0.85502000
v -0.36120200 -0.24791000 0.86727700
v -0.37403900 -0.24089500 0.86211600
v -0.39336100 -0.22125800 -0.77279900
v -0.39304900 -0.22186400 0.86211600
v -0.43573000 0.00007324 -0.77279900
v -0.40572300 0.00007324 0.86840600
v -0.31697800 -0.24089500 0.86211600
v -0.31558300 -0.24791000 0.86356800
v -0.36069700 -0.24791000 0.86776100
v -0.37087800 -0.23771500 0.87001900
v -0.38987300 -0.21870900 0.87001900
v -0.40287400 -0.20222700 -0.77279900
v -0.39938600 -0.20919300 0.85582600
v -0.40572300 -0.19652200 0.83034300
v -0.43108500 -0.12678300 0.86211600
v -0.45644700 -0.00002386 -0.77279900
v -0.45640300 0.00007324 -0.76070300
v -0.41839700 0.00007324 0.87485700
v -0.32399700 -0.24791000 0.86905100
v -0.34300800 -0.24791000 0.87437300
v -0.34234000 -0.24723100 0.87485700
v -0.38037600 -0.20919300 0.87485700
v -0.42790900 -0.12362700 0.87001900
v -0.41237100 -0.18322000 -0.77279900
v -0.43742200 -0.11411200 0.85582600
v -0.41839700 -0.17115600 0.83679500
v -0.43742200 -0.11411200 -0.77279900
v -0.45644700 -0.00002386 0.83679500
v -0.45640300 0.00007324 0.83679500
v -0.44375900 0.00007324 0.86211600
v -0.41839700 -0.11411200 0.87485700
v -0.33900100 -0.24791000 0.87405100
v -0.32775200 -0.24791000 0.87034100
v -0.34234000 -0.24791000 0.87453500
v -0.44375900 -0.00002386 0.86211600
v -0.43108500 -0.11411200 0.86840600
v -0.41839700 -0.17115600 -0.77279900
f 20 31 32
f 21 23 33
f 22 34 35
f 25 36 34
f 23 35 33
f 24 32 34
f 22 35 23
f 19 31 20
f 13 20 32
f 19 29 30
f 18 29 19
f 15 17 16
f 15 28 17
f 15 27 28
f 13 34 22
f 13 24 34
f 13 32 24
f 25 34 37
f 19 30 31
f 25 37 38
f 31 40 32
f 27 39 44
f 12 23 21
f 37 39 38
f 37 44 39
f 34 46 35
f 34 36 46
f 34 44 37
f 34 45 44
f 33 35 46
f 32 45 34
f 32 44 45
f 32 40 44
f 30 43 41
f 29 43 30
f 27 42 28
f 27 41 42
f 27 30 41
f 27 31 30
f 27 40 31
f 27 44 40
f 25 38 26
f 12 22 23
f 14 25 26
f 11 20 13
f 1 18 10
f 1 29 18
f 1 43 29
f 1 41 43
f 1 42 41
f 1 28 42
f 1 17 28
f 1 9 17
f 1 3 9
f 1 7 3
f 1 25 14
f 1 36 25
f 1 46 36
f 1 33 46
f 1 21 33
f 1 12 21
f 1 5 12
f 1 2 5
f 12 13 22
f 1 10 4
f 1 4 6
f 1 14 7
f 2 6 5
f 10 18 19
f 9 16 17
f 8 16 9
f 8 15 16
f 7 15 8
f 7 27 15
f 1 6 2
f 7 39 27
f 10 19 11
f 7 38 39
f 7 14 26
f 6 11 13
f 5 13 12
f 5 6 13
f 4 11 6
f 4 10 11
f 3 8 9
f 3 7 8
f 7 26 38
f 11 19 20