# https://github.com/mikedh/trimesh
v -0.02248760 0.41840400 0.87471100
v -0.02248760 0.41609700 0.87368400
v -0.02248760 0.42534300 0.87133700
v -0.11412400 0.41840400 0.87471100
v -0.33595100 0.25362900 0.87471100
v -0.31456300 0.25362900 0.87001700
v -0.02248760 0.40572600 0.86840400
v -0.02248760 0.43108100 0.86840400
v -0.12047700 0.43108100 0.86840400
v -0.20917400 0.38037000 0.87471100
v -0.32331400 0.28528600 0.87471100
v -0.34311500 0.25362900 0.87324400
v -0.31250100 0.25362900 0.86591100
v -0.02248760 0.39938700 0.85579100
v -0.02248760 0.40456300 0.86620400
v -0.02248760 0.43473900 0.86429800
v -0.21552600 0.39304800 0.86840400
v -0.02248760 0.44087100 0.85579100
v -0.11412400 0.43742000 0.85579100
v -0.17356000 0.41364000 0.85579100
v -0.23059600 0.38037000 0.87001700
v -0.28526700 0.32332000 0.87471100
v -0.32567900 0.30430300 0.87001700
v -0.35734000 0.25362900 0.87001700
v -0.31057500 0.25362900 0.85579100
v -0.29793800 0.25993000 0.85579100
v -0.02248760 0.39938700 -0.62330700
v -0.20917400 0.39938700 0.85579100
v -0.22346700 0.38987800 0.86532400
v -0.02248760 0.44520300 0.83672500
v -0.17119400 0.41840400 0.83672500
v -0.11412400 0.43742000 -0.62330700
v -0.30665600 0.32332000 0.87001700
v -0.32963300 0.31064200 0.85579100
v -0.33757300 0.29479500 0.86532400
v -0.36764600 0.25362900 0.85579100
v -0.31057500 0.25362900 -0.62330700
v -0.30783900 0.25497900 -0.62330700
v -0.29793800 0.25993000 -0.62330700
v -0.02248760 0.44520300 -0.62330700
v -0.22187800 0.39304800 0.85579100
v -0.23454900 0.38670900 0.85579100
v -0.29952600 0.33282800 0.86532400
v -0.17119400 0.41840400 -0.62330700
v -0.18109500 0.41345300 -0.62330700
v -0.31060900 0.32965900 0.85579100
v -0.34946700 0.28528600 0.85579100
v -0.34865600 0.29162500 0.83672500
v -0.35659700 0.27577800 0.84625800
v -0.36767900 0.25362900 0.83672500
v -0.36767900 0.25362900 -0.62330700
v -0.29158600 0.34867500 0.83672500
v -0.23177900 0.38809700 -0.62330700
v -0.23454900 0.38670900 -0.62330700
v -0.34865600 0.29162500 -0.62330700
v -0.35362300 0.28172300 -0.62330700
v -0.29158600 0.34867500 -0.62330700
f 27 45 44
f 27 39 38
f 27 38 37
f 27 37 51
f 27 51 56
f 27 53 45
f 27 55 57
f 27 57 54
f 27 54 53
f 26 38 39
f 27 56 55
f 25 38 26
f 21 29 43
f 24 35 36
f 23 35 24
f 23 34 35
f 23 46 34
f 23 33 46
f 21 33 22
f 50 56 51
f 21 43 33
f 20 31 28
f 19 44 31
f 27 44 32
f 25 37 38
f 27 32 40
f 42 57 52
f 28 31 41
f 19 32 44
f 49 56 50
f 48 56 49
f 48 55 56
f 47 48 49
f 42 54 57
f 42 53 54
f 42 52 46
f 41 53 42
f 41 45 53
f 36 49 50
f 36 47 49
f 35 47 36
f 34 48 47
f 34 55 48
f 34 57 55
f 34 52 57
f 34 46 52
f 34 47 35
f 33 43 46
f 31 45 41
f 31 44 45
f 29 46 43
f 29 42 46
f 29 41 42
f 28 41 29
f 19 40 32
f 18 30 19
f 19 31 20
f 5 12 24
f 5 11 12
f 4 17 10
f 4 9 17
f 3 9 4
f 3 8 9
f 2 6 7
f 1 6 2
f 1 5 6
f 1 11 5
f 1 22 11
f 5 24 36
f 1 10 22
f 1 3 4
f 1 8 3
f 1 18 16
f 1 30 18
f 1 40 30
f 1 27 40
f 1 14 27
f 1 15 14
f 1 7 15
f 1 2 7
f 19 30 40
f 1 4 10
f 5 36 50
f 1 16 8
f 5 51 37
f 5 50 51
f 17 29 21
f 17 28 29
f 17 20 28
f 14 39 27
f 14 26 39
f 13 25 26
f 11 24 12
f 11 23 24
f 11 33 23
f 11 22 33
f 10 21 22
f 13 26 14
f 9 20 17
f 5 37 25
f 10 17 21
f 5 13 6
f 6 13 14
f 6 14 15
f 6 15 7
f 5 25 13
f 8 16 9
f 9 16 18
f 9 18 19
f 9 19 20