# https://github.com/mikedh/trimesh
v 0.45640000 0.00002858 -0.77969300
v 0.45644700 -0.00001611 -0.77370200
v 0.45640000 0.00002858 -0.85586600
v 0.43835100 0.00002858 -0.77370200
v 0.45644700 -0.00001611 -0.85583600
v 0.43741400 -0.11414600 -0.77370200
v 0.45007100 0.00002858 -0.86848100
v 0.39343900 0.00002858 -0.77370200
v 0.45166500 -0.00953441 -0.86534200
v 0.45007100 -0.00001611 -0.86851000
v 0.43741400 -0.11414600 -0.85583600
v 0.41838000 -0.17121100 -0.77370200
v 0.43741400 0.00002858 -0.87482800
v 0.39245500 -0.00001611 -0.77370200
v 0.15218900 0.00002858 -0.77977200
v 0.43263200 -0.12366500 -0.86534200
v 0.43108500 -0.11414600 -0.86851000
v 0.43741400 -0.00001611 -0.87484700
v 0.41838000 -0.17121100 -0.85583600
v 0.41364500 -0.18068500 -0.86534200
v 0.40773800 -0.19252700 -0.77370200
v 0.41838000 0.00002858 -0.87484700
v -0.02248940 -0.15217500 -0.77977200
v -0.02248940 -0.39245600 -0.77370200
v -0.01897330 0.00002858 -0.85583600
v -0.02248940 -0.00001611 -0.85583600
v -0.02248940 -0.13626600 -0.78288100
v 0.41205100 -0.17121100 -0.86851000
v 0.41838000 -0.11414600 -0.87484700
v 0.40572200 -0.19654900 -0.85583600
v 0.39461100 -0.21875800 -0.86534200
v 0.40173700 -0.19020300 -0.87009500
v 0.40140900 -0.20517300 -0.77370200
v -0.01897330 0.00002858 -0.87484700
v -0.02248940 -0.44518600 -0.77370200
v -0.02248940 0.00002858 -0.85930200
v 0.39934600 -0.17121100 -0.87484700
v 0.38668800 -0.23453300 -0.77370200
v 0.38668800 -0.23453300 -0.85583600
v 0.34866800 -0.29159800 -0.85583600
v 0.35659100 -0.27573400 -0.86534200
v 0.34468300 -0.28525200 -0.87009500
v 0.38270300 -0.22818700 -0.87009500
v 0.38035900 -0.20924000 -0.87484700
v -0.02248940 -0.00001611 -0.87484700
v -0.02248940 -0.44518600 -0.85930200
v 0.00001347 -0.45644700 -0.77370200
v 0.34866800 -0.29159800 -0.77370200
v 0.30666200 -0.32328100 -0.87009500
v 0.29161400 -0.34866300 -0.85583600
v 0.32330500 -0.28525200 -0.87484700
v 0.34229200 -0.26626000 -0.87484700
v -0.02248940 -0.41837400 -0.87484700
v -0.02248940 -0.44433700 -0.86274800
v 0.00001347 -0.45644700 -0.85583600
v 0.11412200 -0.43741100 -0.77370200
v 0.29161400 -0.34866300 -0.77370200
v 0.28762900 -0.34231700 -0.87009500
v 0.26625100 -0.34231700 -0.87484700
v 0.23455900 -0.38669100 -0.85583600
v 0.28050300 -0.35183500 -0.86534200
v -0.02248940 -0.43289700 -0.87035200
v 0.00001347 -0.43741100 -0.87484700
v -0.02248940 -0.44089600 -0.86504500
v 0.00634241 -0.45010200 -0.86851000
v 0.12049800 -0.43106500 -0.86851000
v 0.11412200 -0.43741100 -0.85583600
v 0.17117600 -0.41837400 -0.77370200
v 0.23455900 -0.38669100 -0.77370200
v 0.27258000 -0.35500800 -0.86851000
v 0.21557200 -0.39303700 -0.86851000
v 0.23057400 -0.38034600 -0.87009500
v 0.20924400 -0.38034600 -0.87484700
v 0.20924400 -0.39938200 -0.85583600
v 0.22344900 -0.38986400 -0.86534200
v -0.01583230 -0.43423800 -0.87167900
v 0.11412200 -0.41837400 -0.87484700
v 0.17117600 -0.39938200 -0.87484700
v 0.17755200 -0.41202900 -0.86851000
v 0.17117600 -0.41837400 -0.85583600
v 0.17525500 -0.41636300 -0.77370200
v 0.20924400 -0.39938200 -0.77370200
v 0.18547500 -0.40890000 -0.86534200
v 0.19653900 -0.40572800 -0.85583600
f 1 2 5
f 40 42 41
f 40 48 57
f 40 57 50
f 40 50 49
f 42 44 43
f 42 49 51
f 42 51 52
f 40 49 42
f 42 52 44
f 47 55 67
f 49 50 58
f 49 58 59
f 49 59 51
f 50 57 69
f 50 69 60
f 50 60 75
f 46 54 55
f 38 40 39
f 38 48 40
f 35 55 47
f 23 64 54
f 23 54 46
f 23 46 35
f 23 35 24
f 25 36 26
f 28 32 37
f 31 33 38
f 31 38 39
f 31 39 40
f 31 40 41
f 31 41 42
f 31 42 43
f 31 43 32
f 32 43 44
f 32 44 37
f 34 45 36
f 35 46 55
f 50 75 61
f 50 61 58
f 53 63 62
f 54 64 65
f 63 66 65
f 66 77 78
f 66 78 79
f 66 79 80
f 66 80 67
f 68 80 81
f 71 74 83
f 71 83 79
f 71 79 78
f 71 78 73
f 71 73 72
f 74 82 81
f 74 81 84
f 74 84 83
f 79 83 80
f 80 83 84
f 80 84 81
f 63 77 66
f 23 62 64
f 63 64 76
f 62 76 64
f 54 65 55
f 55 65 66
f 55 66 67
f 56 67 80
f 56 80 68
f 58 61 70
f 58 70 71
f 58 71 72
f 58 72 73
f 58 73 59
f 60 74 71
f 60 71 75
f 60 69 82
f 60 82 74
f 61 75 71
f 61 71 70
f 62 63 76
f 63 65 64
f 23 53 62
f 47 67 56
f 23 36 45
f 2 69 57
f 2 57 48
f 2 48 38
f 2 38 33
f 2 33 21
f 2 21 12
f 2 12 6
f 2 6 11
f 2 11 5
f 3 5 7
f 5 9 10
f 5 10 7
f 5 11 16
f 5 16 9
f 6 12 19
f 6 19 11
f 7 10 13
f 2 82 69
f 8 15 14
f 2 81 82
f 2 56 68
f 1 5 3
f 1 3 7
f 1 7 13
f 1 13 22
f 1 22 34
f 1 34 36
f 1 36 25
f 23 45 53
f 1 15 8
f 1 8 4
f 1 4 2
f 2 4 8
f 2 8 14
f 2 14 24
f 2 24 35
f 2 35 47
f 2 47 56
f 2 68 81
f 9 16 17
f 1 25 15
f 10 18 13
f 18 59 73
f 18 73 78
f 18 78 77
f 18 77 63
f 18 63 53
f 18 53 45
f 18 45 34
f 18 34 22
f 19 21 30
f 19 30 20
f 20 30 31
f 20 31 32
f 20 32 28
f 21 31 30
f 23 27 26
f 23 26 36
f 9 17 10
f 18 51 59
f 18 52 51
f 21 33 31
f 18 37 44
f 18 44 52
f 11 19 20
f 10 17 18
f 12 21 19
f 13 18 22
f 14 15 23
f 14 23 24
f 15 25 26
f 11 20 16
f 15 27 23
f 16 20 17
f 17 20 28
f 17 28 37
f 17 37 29
f 17 29 18
f 15 26 27
f 18 29 37