# https://github.com/mikedh/trimesh
v 0.00007324 0.45641100 -0.62345300
v 0.00007324 0.45641100 -0.76077200
v 0.00007324 0.39938000 -0.62345300
v 0.11413200 0.43741300 -0.62345300
v 0.00009823 0.45639200 -0.77965700
v 0.00007324 0.45602000 -0.77965700
v 0.11413200 0.43741300 -0.77965700
v 0.00007324 0.38054900 -0.77965700
v 0.24747900 0.26652400 -0.77965700
v 0.25532400 0.30716000 -0.62345300
v 0.17114800 0.41839600 -0.62345300
v 0.17114800 0.41839600 -0.77965700
v 0.25532400 0.26652400 -0.77965700
v 0.25532400 0.36681200 -0.62345300
v 0.17532100 0.41631400 -0.62345300
v 0.17124800 0.41835900 -0.77965700
v 0.25532400 0.36681200 -0.77965700
v 0.23456100 0.38670200 -0.62345300
v 0.19433500 0.40681500 -0.62345300
v 0.20088100 0.40354400 -0.62345300
v 0.23456100 0.38670200 -0.77965700
f 5 8 6
f 5 16 21
f 5 21 17
f 18 21 20
f 5 17 13
f 5 13 9
f 5 9 8
f 9 13 10
f 5 12 16
f 10 17 14
f 11 15 16
f 11 16 12
f 14 17 21
f 14 21 18
f 15 19 16
f 16 19 20
f 16 20 21
f 10 13 17
f 5 7 12
f 2 7 5
f 4 11 12
f 4 12 7
f 1 2 6
f 1 6 8
f 1 8 3
f 1 10 14
f 1 14 18
f 1 18 20
f 1 20 19
f 1 3 10
f 1 15 11
f 1 11 4
f 1 4 7
f 1 7 2
f 2 5 6
f 3 8 9
f 3 9 10
f 1 19 15