# https://github.com/mikedh/trimesh
v 0.27354600 -0.35771200 -0.77370200
v 0.27354600 -0.28101300 -0.77370200
v 0.28299900 -0.35298400 -0.77370200
v 0.27354600 -0.35771200 0.84403600
v 0.39249600 -0.00003182 -0.77370200
v 0.27354600 -0.28969900 0.85581600
v 0.29162800 -0.34864100 -0.77370200
v 0.29162800 -0.34864100 0.83677400
v 0.27578400 -0.35659100 0.84629500
v 0.27354600 -0.35603000 0.84839300
v 0.39305100 0.00007324 -0.77337900
v 0.39344500 0.00007324 -0.77370200
v 0.39938900 0.00007324 0.85581600
v 0.27354600 -0.29274600 0.86630500
v 0.32967300 -0.31060700 -0.77370200
v 0.32967300 -0.31060700 0.85581600
v 0.31064200 -0.32962400 0.85581600
v 0.28529100 -0.34944600 0.85581600
v 0.27578400 -0.34706500 0.86533600
v 0.27354600 -0.35238800 0.85581600
v 0.43838300 0.00007324 -0.77370200
v 0.27354600 -0.29460200 0.87001600
v 0.40572700 0.00007324 0.86840300
v 0.34868700 -0.29159000 -0.77370200
v 0.34868700 -0.29159000 0.83677400
v 0.38669600 -0.23453900 0.85581600
v 0.33284200 -0.29954000 0.86533600
v 0.32331800 -0.30664900 0.87001600
v 0.30430400 -0.32566600 0.87001600
v 0.29479700 -0.33757400 0.86533600
v 0.27354600 -0.34874600 0.86307700
v 0.27354600 -0.34650500 0.86630500
v 0.45644700 -0.00003182 -0.77370200
v 0.45639400 0.00007324 -0.76063100
v 0.27354600 -0.31600000 0.87485700
v 0.41840300 0.00007324 0.87485700
v 0.38669600 -0.23453900 -0.77370200
v 0.39305100 -0.22186100 0.85581600
v 0.38986400 -0.22343700 0.86533600
v 0.38871900 -0.23051200 -0.77370200
v 0.38035800 -0.23058200 0.87001600
v 0.32331800 -0.28525100 0.87485700
v 0.28529100 -0.32328500 0.87485700
v 0.27354600 -0.33648800 0.87179100
v 0.27354600 -0.34135600 0.86937100
v 0.43741600 -0.11413400 -0.77370200
v 0.45644700 -0.00003182 0.83677400
v 0.45639400 0.00007324 0.83677400
v 0.27354600 -0.32328500 0.87485700
v 0.41840300 -0.11413400 0.87485700
v 0.43748800 0.00007324 0.86517500
v 0.41840300 -0.17118400 0.83677400
v 0.39938900 -0.20918300 0.85581600
v 0.39305100 -0.21552200 0.86840300
v 0.39305100 -0.22186100 -0.77370200
v 0.38035800 -0.20918300 0.87485700
v 0.41840300 -0.17118400 -0.77370200
v 0.43741600 -0.11413400 0.85581600
v 0.44688700 0.00007324 0.85581600
v 0.45009200 -0.00637081 0.84936100
v 0.43107800 -0.12047200 0.86840300
v 0.44332400 0.00007324 0.86033400
v 0.41364000 -0.17356600 0.85581600
f 27 39 41
f 27 41 28
f 28 41 56
f 28 56 42
f 28 42 43
f 33 47 58
f 29 43 44
f 29 45 32
f 33 34 48
f 33 48 47
f 33 58 46
f 28 43 29
f 29 44 45
f 22 36 23
f 26 37 40
f 26 39 27
f 26 38 39
f 24 26 25
f 24 37 26
f 22 35 36
f 21 34 33
f 19 32 31
f 19 29 32
f 19 30 29
f 35 49 43
f 19 31 20
f 18 30 19
f 26 40 38
f 35 43 42
f 47 60 61
f 35 56 50
f 59 61 60
f 17 30 18
f 59 62 61
f 58 61 63
f 54 63 61
f 53 63 54
f 52 63 53
f 52 58 63
f 51 61 62
f 50 61 51
f 50 54 61
f 50 56 54
f 47 61 58
f 35 42 56
f 47 59 60
f 46 52 57
f 46 58 52
f 43 49 44
f 41 54 56
f 39 54 41
f 38 57 52
f 38 55 57
f 38 40 55
f 38 54 39
f 38 53 54
f 38 52 53
f 36 50 51
f 35 50 36
f 47 48 59
f 17 29 30
f 11 36 51
f 16 28 29
f 2 6 5
f 1 6 2
f 1 14 6
f 1 22 14
f 1 35 22
f 1 49 35
f 1 44 49
f 1 45 44
f 1 32 45
f 1 31 32
f 1 20 31
f 1 10 20
f 1 4 10
f 1 3 4
f 1 7 3
f 1 15 7
f 1 24 15
f 1 37 24
f 1 40 37
f 1 55 40
f 16 29 17
f 1 46 57
f 1 33 46
f 1 21 33
f 1 12 21
f 1 5 12
f 1 2 5
f 3 7 8
f 3 8 9
f 1 57 55
f 4 9 10
f 3 9 4
f 16 27 28
f 16 26 27
f 16 25 26
f 15 24 25
f 13 22 23
f 13 14 22
f 11 21 12
f 11 34 21
f 11 48 34
f 11 59 48
f 11 62 59
f 11 51 62
f 15 25 16
f 11 13 23
f 11 23 36
f 5 6 13
f 5 11 12
f 6 14 13
f 7 15 16
f 7 16 8
f 5 13 11
f 8 17 18
f 8 18 9
f 9 18 19
f 9 19 20
f 9 20 10
f 8 16 17