# https://github.com/mikedh/trimesh
v 0.00007326 0.45641100 -0.77969100
v 0.00007326 0.45641100 -0.85586900
v 0.00007326 0.45600900 -0.77967200
v 0.00011793 0.45636600 -0.77967200
v 0.11411300 0.43742600 -0.77967200
v 0.00007326 0.45006800 -0.86852200
v 0.11411300 0.43742600 -0.85583100
v 0.11411300 0.43108300 -0.86851200
v 0.00007326 0.38051800 -0.77967200
v 0.17120000 0.41839700 -0.77967200
v 0.00954307 0.44689600 -0.87009600
v 0.00007326 0.43742600 -0.87482900
v 0.12362700 0.42791200 -0.87009600
v 0.17120000 0.41839700 -0.85583100
v 0.12679900 0.43108300 -0.86217700
v 0.00007326 0.15217100 -0.77976600
v 0.38051800 0.00007326 -0.77967200
v 0.19031800 0.40883800 -0.77967200
v 0.11411300 0.41839700 -0.87485700
v 0.00007326 0.41839700 -0.87485700
v 0.18071400 0.40888300 -0.87009600
v 0.18388600 0.41205400 -0.86217700
v 0.00007326 0.13953000 -0.78608300
v 0.15217100 0.00007326 -0.77976600
v 0.45641100 0.00007326 -0.77967200
v 0.22189900 0.39302600 -0.77967200
v 0.22189900 0.39302600 -0.86217700
v 0.17120000 0.39936800 -0.87485700
v 0.00007326 0.00007326 -0.87485700
v 0.21872700 0.38985400 -0.87009600
v 0.00007326 0.00016259 -0.85583100
v 0.13948500 0.00007326 -0.78611100
v 0.45641100 0.00007326 -0.85586900
v 0.43742600 0.11411300 -0.77967200
v 0.23454000 0.38668300 -0.77967200
v 0.23454000 0.38668300 -0.84949600
v 0.29158200 0.34866900 -0.84949600
v 0.27889700 0.35501200 -0.86217700
v 0.27577000 0.35184100 -0.87009600
v 0.20921300 0.38034000 -0.87485700
v 0.01905750 0.00007326 -0.85583100
v 0.41839700 0.00007326 -0.87485700
v 0.45006800 0.00007326 -0.86847500
v 0.43108300 0.11411300 -0.86851200
v 0.43742600 0.11411300 -0.85583100
v 0.41839700 0.17120000 -0.77967200
v 0.29158200 0.34866900 -0.77967200
v 0.34866900 0.29158200 -0.84949600
v 0.35501200 0.27889700 -0.86217700
v 0.26625500 0.34232600 -0.87485700
v 0.35184100 0.27577000 -0.87009600
v 0.41839700 0.11411300 -0.87485700
v 0.43742600 0.00007326 -0.87482900
v 0.44689600 0.00954307 -0.87009600
v 0.42791200 0.12362700 -0.87009600
v 0.43108300 0.12679900 -0.86217700
v 0.41839700 0.17120000 -0.85583100
v 0.40883800 0.19031800 -0.77967200
v 0.34866900 0.29158200 -0.77967200
v 0.38668300 0.23454000 -0.84949600
v 0.39302600 0.22189900 -0.86217700
v 0.34232600 0.26625500 -0.87485700
v 0.38985400 0.21872700 -0.87009600
v 0.39936800 0.17120000 -0.87485700
v 0.40888300 0.18071400 -0.87009600
v 0.41205400 0.18388600 -0.86217700
v 0.39302600 0.22189900 -0.77967200
v 0.38668300 0.23454000 -0.77967200
v 0.38034000 0.20921300 -0.87485700
f 38 49 51
f 30 39 50
f 30 50 40
f 31 41 32
f 33 43 44
f 33 44 45
f 34 57 46
f 35 47 37
f 37 47 59
f 37 59 48
f 37 48 49
f 37 49 38
f 29 41 31
f 34 45 57
f 35 37 36
f 25 45 34
f 27 38 39
f 27 37 38
f 27 36 37
f 26 36 27
f 26 35 36
f 25 33 45
f 23 32 24
f 23 31 32
f 21 40 28
f 21 30 40
f 21 27 30
f 21 22 27
f 19 29 20
f 38 51 39
f 27 39 30
f 39 51 62
f 51 69 62
f 42 52 53
f 19 42 29
f 63 64 69
f 63 65 64
f 61 65 63
f 61 66 65
f 60 67 61
f 60 68 67
f 58 61 67
f 58 66 61
f 55 66 56
f 55 65 66
f 52 54 53
f 52 55 54
f 52 65 55
f 39 62 50
f 52 64 65
f 51 61 63
f 49 61 51
f 48 61 49
f 48 60 61
f 48 68 60
f 48 59 68
f 46 66 58
f 46 57 66
f 45 66 57
f 45 56 66
f 44 54 55
f 44 56 45
f 43 53 54
f 43 54 44
f 51 63 69
f 19 52 42
f 44 55 56
f 19 69 64
f 3 5 4
f 3 10 5
f 19 64 52
f 3 18 10
f 3 26 18
f 3 35 26
f 3 47 35
f 3 59 47
f 3 68 59
f 3 67 68
f 3 58 67
f 3 46 58
f 3 34 46
f 3 25 34
f 5 10 14
f 3 17 25
f 2 7 8
f 1 7 2
f 1 5 7
f 1 4 5
f 1 3 4
f 1 9 3
f 1 16 9
f 1 23 16
f 1 31 23
f 1 29 31
f 1 20 29
f 1 12 20
f 1 6 12
f 1 2 6
f 2 8 6
f 5 14 7
f 3 9 17
f 6 8 13
f 6 11 12
f 19 62 69
f 19 50 62
f 19 40 50
f 19 28 40
f 18 27 22
f 18 26 27
f 17 33 25
f 17 43 33
f 17 42 53
f 17 29 42
f 17 41 29
f 17 32 41
f 17 24 32
f 16 23 24
f 17 53 43
f 9 16 24
f 13 28 19
f 7 14 22
f 7 22 15
f 7 15 8
f 8 15 13
f 9 24 17
f 6 13 11
f 10 18 22
f 11 13 19
f 11 19 12
f 12 19 20
f 13 15 22
f 13 22 21
f 13 21 28
f 10 22 14