# https://github.com/mikedh/trimesh
v -0.00001609 0.45644700 -0.77507400
v 0.00002858 0.44251000 -0.77507400
v 0.00002858 0.45640300 -0.77969400
v -0.00001609 0.45644700 -0.85583100
v -0.11413700 0.43741700 -0.77507400
v 0.00002858 0.39538000 -0.77507400
v 0.00002858 0.45640300 -0.85587000
v -0.00001609 0.45010400 -0.86850900
v -0.00953363 0.45166700 -0.86534400
v -0.11413700 0.43741700 -0.85583100
v -0.17119800 0.41838600 -0.77507400
v -0.00001609 0.38975100 -0.77507400
v 0.00002858 0.15218300 -0.77977200
v 0.00002858 0.45005900 -0.86852800
v -0.00001609 0.43741700 -0.87484800
v -0.11413700 0.43107300 -0.86850900
v -0.12365500 0.43263700 -0.86534400
v -0.18071500 0.41365100 -0.86534400
v -0.17119800 0.41838600 -0.85583100
v -0.18388800 0.41204300 -0.77507400
v -0.38974300 0.00007326 -0.77507400
v 0.00002858 0.13954100 -0.78608200
v -0.15216300 0.00007326 -0.77977200
v -0.13773000 0.00007326 -0.78566200
v 0.00002858 0.43741700 -0.87482800
v 0.00002858 0.41838600 -0.87484800
v -0.11413700 0.41838600 -0.87484800
v -0.17119800 0.41204300 -0.86850900
v -0.19018800 0.40176800 -0.87010100
v -0.21874100 0.39462100 -0.86534400
v -0.22191300 0.39301200 -0.77507400
v -0.45641100 0.00007326 -0.77507400
v -0.00001609 0.00007326 -0.85583100
v 0.00002858 0.00016262 -0.85583100
v 0.00002858 0.00007326 -0.87484800
v -0.17119800 0.39935600 -0.87484800
v -0.20922300 0.38037000 -0.87484800
v -0.22821300 0.38273800 -0.87010100
v -0.28527400 0.34467700 -0.87010100
v -0.27575600 0.35656000 -0.86534400
v -0.29161900 0.34865300 -0.85583100
v -0.23455800 0.38666900 -0.85583100
v -0.23455800 0.38666900 -0.77507400
v -0.43742000 0.11412200 -0.77507400
v -0.45641100 0.00007326 -0.85583100
v -0.41838500 0.00007326 -0.87484800
v -0.26623900 0.34230900 -0.87484800
v -0.34233400 0.28763000 -0.87010100
v -0.29161900 0.34865300 -0.77507400
v -0.32964400 0.31063600 -0.85583100
v -0.43742000 0.11412200 -0.85583100
v -0.41838500 0.17116900 -0.77507400
v -0.45636600 0.00007326 -0.85597700
v -0.43742000 0.00007326 -0.87483800
v -0.41838500 0.11412200 -0.87484800
v -0.34233400 0.26623200 -0.87484800
v -0.38036000 0.20923000 -0.87484800
v -0.38036000 0.23058300 -0.87010100
v -0.39305000 0.21557300 -0.86850900
v -0.35498000 0.27257500 -0.86850900
v -0.35180700 0.28048200 -0.86534400
v -0.34863500 0.29160600 -0.85583100
v -0.32964400 0.31063600 -0.77507400
v -0.43107500 0.12046600 -0.86850900
v -0.41838500 0.17116900 -0.85583100
v -0.39305000 0.22191700 -0.77507400
v -0.45006600 0.00637208 -0.86850900
v -0.44881500 0.00007326 -0.86725800
v -0.43755400 0.00007326 -0.87477900
v -0.39935000 0.17116900 -0.87484800
v -0.41204000 0.17751200 -0.86850900
v -0.40886800 0.18546400 -0.86534400
v -0.39305000 0.22191700 -0.85583100
v -0.38987700 0.22348000 -0.86534400
v -0.34863500 0.29160600 -0.77507400
v -0.38670500 0.23455900 -0.85583100
v -0.39148600 0.22504400 -0.77507400
v -0.38670500 0.23455900 -0.77507400
f 39 56 48
f 39 47 56
f 39 41 40
f 46 54 55
f 39 48 50
f 37 47 39
f 37 39 38
f 39 50 41
f 45 51 53
f 41 43 42
f 41 50 63
f 41 63 49
f 44 52 65
f 44 65 51
f 33 35 34
f 41 49 43
f 32 51 45
f 21 46 35
f 30 43 31
f 48 56 57
f 21 54 46
f 21 35 33
f 21 33 24
f 21 24 23
f 22 33 34
f 22 24 33
f 28 36 29
f 29 36 37
f 29 37 38
f 30 38 39
f 30 39 40
f 30 40 41
f 30 41 42
f 30 42 43
f 32 44 51
f 48 57 58
f 67 69 68
f 48 59 60
f 59 65 73
f 59 73 74
f 59 74 61
f 59 61 60
f 61 74 62
f 62 74 76
f 62 76 78
f 62 78 75
f 64 69 67
f 65 72 71
f 66 77 73
f 21 69 54
f 73 77 76
f 73 76 74
f 76 77 78
f 59 72 65
f 59 71 72
f 57 59 58
f 57 71 59
f 48 60 61
f 48 61 62
f 48 62 50
f 50 62 75
f 50 75 63
f 51 64 53
f 51 65 71
f 48 58 59
f 51 71 64
f 53 67 68
f 53 64 67
f 54 69 55
f 55 69 64
f 55 64 71
f 55 71 70
f 57 70 71
f 52 66 73
f 21 68 69
f 52 73 65
f 21 45 53
f 1 12 6
f 1 6 2
f 2 6 13
f 2 13 22
f 2 22 34
f 2 34 35
f 2 35 26
f 2 26 25
f 2 25 14
f 2 14 7
f 2 7 3
f 4 7 8
f 4 8 9
f 4 9 17
f 4 17 10
f 1 21 12
f 1 32 21
f 1 44 32
f 1 52 44
f 21 53 68
f 1 2 3
f 1 3 7
f 1 7 4
f 1 4 10
f 1 10 5
f 1 5 11
f 5 10 19
f 1 11 20
f 1 43 49
f 1 49 63
f 1 63 75
f 1 75 78
f 1 78 77
f 1 77 66
f 1 66 52
f 1 31 43
f 5 19 11
f 1 20 31
f 7 14 8
f 15 70 57
f 15 57 56
f 15 56 47
f 15 47 37
f 15 37 36
f 15 36 27
f 16 27 36
f 15 55 70
f 16 36 28
f 16 18 17
f 18 29 38
f 18 38 30
f 18 30 31
f 18 31 20
f 6 12 13
f 21 32 45
f 16 28 18
f 15 46 55
f 18 28 29
f 15 26 35
f 15 35 46
f 8 27 16
f 8 16 17
f 8 15 27
f 10 17 18
f 10 18 19
f 11 19 18
f 8 17 9
f 8 14 15
f 12 21 13
f 13 21 23
f 13 23 24
f 13 24 22
f 14 25 15
f 11 18 20
f 15 25 26