# https://github.com/mikedh/trimesh
v 0.25341700 0.34110700 0.87353700
v 0.24407100 0.35819800 0.87163100
v 0.22502900 0.37721400 0.87163100
v 0.20920200 0.38038100 0.87471100
v 0.24723100 0.34234900 0.87471100
v 0.25341700 0.31712600 0.86913700
v 0.25341700 0.36755600 0.86224400
v 0.23453700 0.38670100 0.86209800
v 0.21870900 0.38986800 0.86532400
v 0.18065200 0.40889900 0.86532400
v 0.11412800 0.41840000 0.87471100
v -0.02246060 0.41840000 0.87471100
v -0.02246060 0.41608900 0.87368400
v -0.02246060 0.40571800 0.86840400
v 0.25341700 0.31092100 0.86224400
v 0.25341700 0.36772800 0.86209800
v 0.22186900 0.39305000 0.84948500
v 0.20920200 0.39938400 0.85579100
v 0.25341700 0.36777000 0.86195100
v 0.23453700 0.38670100 -0.62330700
v 0.23237600 0.38780000 -0.62330700
v 0.11412800 0.43741700 0.85579100
v 0.12360800 0.42791500 0.86532400
v 0.10778000 0.43108200 0.86840400
v -0.02246060 0.42534800 0.87133700
v -0.02246060 0.40456200 0.86620400
v 0.25341700 0.31072100 0.86195100
v 0.18384000 0.41206600 0.83041800
v 0.19434600 0.40681600 -0.62330700
v 0.17114500 0.41840000 0.83672500
v 0.25341700 0.36777000 -0.62330700
v 0.00001145 0.45644700 0.83672500
v 0.00635873 0.44376500 0.86209800
v 0.11412800 0.43741700 -0.62330700
v -0.02246060 0.43108200 0.86840400
v -0.02246060 0.39938400 0.85579100
v 0.25341700 0.31072100 -0.62330700
v 0.18384000 0.41206600 -0.62330700
v 0.17114500 0.41840000 -0.62330700
v -0.02246060 0.44519100 0.83672500
v -0.02246060 0.44088300 0.85579100
v -0.00633584 0.45009900 0.84948500
v 0.00001145 0.45644700 -0.62330700
v -0.00990112 0.45148300 -0.62330700
v -0.02246060 0.43473500 0.86429800
v -0.02246060 0.39938400 -0.62330700
v -0.02246060 0.44519100 -0.62330700
f 22 32 33
f 20 29 21
f 20 46 47
f 20 38 29
f 20 39 38
f 20 34 39
f 20 43 34
f 20 44 43
f 20 47 44
f 17 29 28
f 20 31 37
f 18 30 22
f 18 28 30
f 17 21 29
f 17 28 18
f 14 27 15
f 14 26 27
f 22 33 24
f 12 14 13
f 20 37 46
f 22 24 23
f 28 39 30
f 22 39 34
f 12 26 14
f 41 45 42
f 40 44 47
f 33 45 35
f 33 42 45
f 32 44 40
f 32 43 44
f 32 42 33
f 32 41 42
f 32 40 41
f 28 38 39
f 28 29 38
f 27 46 37
f 27 36 46
f 26 36 27
f 25 33 35
f 24 33 25
f 22 43 32
f 22 34 43
f 22 30 39
f 12 46 36
f 12 36 26
f 12 40 47
f 4 10 11
f 4 12 5
f 4 11 12
f 3 10 4
f 3 9 10
f 3 8 9
f 3 7 8
f 2 7 3
f 1 7 2
f 5 12 6
f 1 16 7
f 1 37 31
f 1 27 37
f 1 15 27
f 1 6 15
f 1 5 6
f 1 4 5
f 1 3 4
f 1 2 3
f 12 47 46
f 1 31 19
f 6 12 13
f 1 19 16
f 6 14 15
f 6 13 14
f 12 41 40
f 12 45 41
f 12 35 45
f 12 25 35
f 11 25 12
f 10 24 11
f 10 23 24
f 10 22 23
f 11 24 25
f 8 21 17
f 8 20 21
f 8 31 20
f 8 19 31
f 8 16 19
f 8 10 9
f 8 18 10
f 8 17 18
f 10 18 22
f 7 16 8