# https://github.com/mikedh/trimesh
v -0.45641100 0.00009806 -0.62330700
v -0.43742500 0.11413500 -0.62330700
v -0.39938300 0.00009806 -0.62330700
v -0.45641100 0.00009806 0.83672500
v -0.41839700 0.17116600 -0.62330700
v -0.43742500 0.11413500 0.85579100
v -0.31058100 0.25358500 -0.62330700
v -0.39938300 0.00009806 0.85579100
v -0.44376300 0.00009806 0.86209800
v -0.45168600 0.00952875 0.84625800
v -0.39166100 0.22464800 -0.62330700
v -0.41839700 0.17116600 0.83672500
v -0.43267200 0.12364000 0.86532400
v -0.36767900 0.25358500 -0.62330700
v -0.31058100 0.25358500 0.85579100
v -0.31252200 0.25358500 0.86591100
v -0.31457800 0.25358500 0.87001700
v -0.40572100 0.00009806 0.86840400
v -0.43108700 0.00009806 0.86840400
v -0.43108700 0.11413500 0.86840400
v -0.38670800 0.23455000 -0.62330700
v -0.38670800 0.23455000 0.85579100
v -0.41364400 0.18067100 0.84625800
v -0.39463000 0.21869200 0.86532400
v -0.42078100 0.13312100 0.87001700
v -0.38275300 0.22822200 0.87001700
v -0.36767900 0.25358500 0.83672500
v -0.33597500 0.25358500 0.87471100
v -0.41839700 0.00009806 0.87471100
v -0.41839700 0.11413500 0.87471100
v -0.36769400 0.25356100 0.85579100
v -0.38038400 0.20918700 0.87471100
v -0.34314100 0.25358500 0.87324400
v -0.36374000 0.24723200 0.87001700
v -0.36766500 0.25358500 0.85579100
v -0.34234200 0.24723200 0.87471100
v -0.35737300 0.25358500 0.87001700
v -0.36135600 0.22822200 0.87471100
f 22 23 24
f 20 30 25
f 19 30 20
f 19 29 30
f 17 29 18
f 17 28 29
f 14 22 27
f 13 26 24
f 22 24 26
f 13 25 26
f 13 20 25
f 11 12 22
f 12 23 22
f 11 22 21
f 14 21 22
f 22 26 34
f 28 30 29
f 22 31 27
f 9 13 10
f 33 38 36
f 33 37 34
f 32 38 33
f 31 37 35
f 31 34 37
f 28 32 30
f 28 38 32
f 28 36 38
f 28 33 36
f 27 31 35
f 26 33 34
f 26 32 33
f 26 30 32
f 25 30 26
f 22 34 31
f 9 20 13
f 13 24 23
f 8 17 18
f 2 6 12
f 1 6 2
f 1 4 6
f 1 9 4
f 1 19 9
f 1 29 19
f 1 18 29
f 1 8 18
f 1 3 8
f 1 7 3
f 1 14 7
f 1 21 14
f 1 11 21
f 1 2 5
f 9 19 20
f 2 12 5
f 3 7 15
f 1 5 11
f 4 9 10
f 3 15 8
f 7 16 15
f 7 17 16
f 7 28 17
f 7 33 28
f 7 37 33
f 7 35 37
f 8 15 16
f 7 14 27
f 4 10 6
f 7 27 35
f 5 12 11
f 8 16 17
f 6 13 23
f 6 23 12
f 6 10 13