# https://github.com/mikedh/trimesh
v -0.02248940 -0.41839700 0.87485700
v -0.33898200 -0.24793000 0.87405100
v -0.34232100 -0.24793000 0.87453500
v -0.32331100 -0.26627600 0.87485700
v -0.11413300 -0.41839700 0.87485700
v -0.12363800 -0.42791800 0.87001900
v -0.02248940 -0.43108500 0.86840600
v -0.02248940 -0.40572900 0.86840600
v -0.32647900 -0.25042100 0.87163200
v -0.32770600 -0.24793000 0.87034100
v -0.34300200 -0.24793000 0.87437300
v -0.32331100 -0.28529900 0.87485700
v -0.20918300 -0.38037200 0.87485700
v -0.21868800 -0.38987300 0.87001900
v -0.12680600 -0.43108500 0.86211600
v -0.11413300 -0.43742000 0.85582600
v -0.11413300 -0.43108500 0.86840600
v -0.02248940 -0.44130200 0.85389100
v -0.32395800 -0.24793000 0.86905100
v -0.02248940 -0.40285100 0.86276100
v -0.31554300 -0.24793000 0.86356800
v -0.36068400 -0.24793000 0.86776100
v -0.35182600 -0.25675500 0.87001900
v -0.28525700 -0.32332400 0.87485700
v -0.33281600 -0.29480000 0.87001900
v -0.31380600 -0.31382300 0.87001900
v -0.29476200 -0.33284500 0.87001900
v -0.22185600 -0.39304100 0.86211600
v -0.18387000 -0.41206300 0.84308500
v -0.02248940 -0.44520300 0.83324700
v -0.17119700 -0.41839700 0.83679500
v -0.11413300 -0.43742000 -0.77279900
v -0.02248940 -0.39937500 0.85582600
v -0.31346500 -0.24793000 0.85502000
v -0.36116100 -0.24793000 0.86727700
v -0.35182600 -0.27577800 0.86050300
v -0.33598400 -0.29796700 0.86211600
v -0.31697400 -0.31699000 0.86211600
v -0.29793000 -0.33601200 0.86211600
v -0.31063800 -0.32965800 0.84937500
v -0.27892000 -0.35499600 0.84308500
v -0.23452900 -0.38670600 0.84937500
v -0.22311700 -0.39242300 -0.77279900
v -0.18387000 -0.41206300 -0.77279900
v -0.02248940 -0.44520300 -0.77279900
v -0.17119700 -0.41839700 -0.77279900
v -0.02248940 -0.39335000 -0.77279900
v -0.29224100 -0.25422600 -0.77279900
v -0.29731700 -0.25167600 -0.77279900
v -0.30481200 -0.24793000 -0.77279900
v -0.37052900 -0.24793000 0.85502000
v -0.35499400 -0.27894500 0.84308500
v -0.32964800 -0.31065500 0.84937500
v -0.29159300 -0.34866200 0.83034300
v -0.31063800 -0.32965800 -0.77279900
v -0.23452900 -0.38670600 -0.77279900
v -0.37052900 -0.24793000 -0.77279900
v -0.34865800 -0.29163300 0.83034300
v -0.35438100 -0.28020000 -0.77279900
v -0.32964800 -0.31065500 -0.77279900
v -0.29159300 -0.34866200 -0.77279900
v -0.34865800 -0.29163300 -0.77279900
f 32 46 44
f 29 43 44
f 29 44 46
f 29 46 31
f 58 59 62
f 32 60 62
f 32 56 61
f 32 61 55
f 32 55 60
f 29 42 43
f 32 62 59
f 32 43 56
f 28 42 29
f 25 36 37
f 28 41 54
f 28 40 41
f 28 39 40
f 26 39 27
f 26 38 39
f 25 38 26
f 25 37 38
f 25 35 36
f 24 26 27
f 22 25 23
f 22 35 25
f 32 59 57
f 28 54 42
f 32 57 50
f 42 54 61
f 32 49 48
f 21 33 34
f 53 62 60
f 53 58 62
f 51 59 58
f 51 57 59
f 51 58 52
f 42 56 43
f 42 61 56
f 40 61 54
f 40 55 61
f 40 60 55
f 40 53 60
f 40 54 41
f 38 40 39
f 38 53 40
f 37 58 53
f 37 52 58
f 37 53 38
f 36 52 37
f 36 51 52
f 35 51 36
f 34 49 50
f 34 48 49
f 34 47 48
f 33 47 34
f 32 47 45
f 32 48 47
f 32 50 49
f 20 33 21
f 32 44 43
f 16 32 45
f 2 11 3
f 2 22 11
f 2 35 22
f 2 51 35
f 2 57 51
f 2 50 57
f 2 34 50
f 2 21 34
f 2 10 19
f 2 9 10
f 1 8 2
f 1 20 8
f 1 33 20
f 1 47 33
f 1 45 47
f 1 30 45
f 1 18 30
f 1 7 18
f 1 6 7
f 1 5 6
f 1 13 5
f 1 24 13
f 1 12 24
f 1 4 12
f 1 3 4
f 1 2 3
f 16 45 30
f 2 8 9
f 3 11 12
f 2 19 21
f 5 13 6
f 16 46 32
f 16 31 46
f 16 18 17
f 3 12 4
f 15 31 16
f 15 29 31
f 15 28 29
f 14 39 28
f 14 27 39
f 13 27 14
f 13 24 27
f 12 26 24
f 12 25 26
f 12 23 25
f 16 30 18
f 11 22 23
f 11 23 12
f 6 13 14
f 6 28 15
f 6 15 16
f 6 16 17
f 6 17 7
f 6 14 28
f 8 19 9
f 8 20 21
f 8 21 19
f 9 19 10
f 7 17 18