o centered_combined
v 0.0194561 0.00388894 0.0797593
v 0.0181573 0.00648283 0.0804163
v 0.0181573 0.00453646 0.0823615
v 0.0194561 -0.00388894 0.0797593
v 0.0194561 0.00583531 0.0719786
v 0.0175097 0.00972806 0.0758689
v 0.0162109 0.012322 0.0765259
v 0.0165347 0.0106993 0.0787932
v 0.0162109 0.0103756 0.0804163
v 0.0162109 0.00842921 0.0823615
v 0.0158871 0.0042127 0.0839846
v 0.0162109 0.0025939 0.0843067
v 0.0181573 -0.00324142 0.0823615
v 0.0188048 -0.00453646 0.0810604
v 0.018481 -0.00534777 0.0807384
v 0.0149159 -0.012322 0.0810604
v 0.0149159 -0.0129695 0.0797593
v 0.0194561 -0.00583531 0.0719786
v 0.0194561 0.00583531 0.0680882
v 0.0175097 0.00972806 0.0603074
v 0.0162109 0.012322 0.0609515
v 0.0142645 0.0142645 0.0804163
v 0.0145921 0.0106993 0.0826835
v 0.0139408 0.00810545 0.0839846
v 0.0119944 0.00615907 0.0859298
v 0.012322 0.00453646 0.0862519
v 0.00583531 0 0.0894982
v 0.0162109 -0.00129504 0.0843067
v 0.0168584 -0.00453646 0.0830056
v 0.0165347 -0.00632286 0.0826835
v 0.0149159 -0.0025939 0.0849508
v 0.0145921 -0.0102118 0.0826835
v 0.013617 -0.0138608 0.0812279
v 0.0145921 -0.0131295 0.0807384
v 0.0142645 -0.0142645 0.0797593
v 0.0181573 -0.00842921 0.0719786
v 0.0194561 -0.00583531 0.0700334
v 0.0194561 0.00388894 -0.0421049
v 0.0168584 0.0110231 0.0596633
v 0.0142645 0.0142645 -0.0421049
v 0.0129695 0.0149159 0.0791152
v 0.0103756 0.0162109 0.0804163
v 0.00842921 0.0162109 0.0823615
v 0.0106993 0.0145921 0.0826835
v 0.012322 0.0103756 0.0843067
v 0.0106993 0.0068066 0.0865739
v 0.00972806 0.00388894 0.0875401
v 0.00388894 0.00388894 0.0894982
v 0.00388894 -0.00388894 0.0894982
v 0.00972806 -0.00388894 0.0875401
v 0.0110231 -0.00453646 0.086896
v 0.012322 -0.00324142 0.0862519
v 0.0145921 -0.00437648 0.0846287
v 0.0106993 -0.00632286 0.0865739
v 0.0110231 -0.0103756 0.0849508
v 0.0106993 -0.0141045 0.0826835
v 0.0126457 -0.0150758 0.0807384
v 0.0106993 -0.0111869 0.0846287
v 0.0116706 -0.0162909 0.0797593
v 0.012322 -0.0162109 0.0778141
v 0.0142645 -0.0142645 -0.0421049
v 0.0181573 -0.00842921 0.0700334
v 0.0189686 -0.0068066 0.0690672
v 0.0194561 -0.00388894 -0.0421049
v 0.0149159 0.0129695 -0.0421049
v 0.0129695 0.0149159 -0.0421049
v 0.00778169 0.0175097 0.0797593
v 0.00648283 0.0181573 0.0804163
v 0.00453646 0.0181573 0.0823615
v 0.00810545 0.0139408 0.0839846
v 0.0103756 0.012322 0.0843067
v 0.0068066 0.0106993 0.0865739
v 0 0.00583531 0.0894982
v 0.00388894 0.00972806 0.0875401
v 0 -0.00583531 0.0894982
v 0.00388894 -0.00972806 0.0875401
v 0.00583531 -0.00996802 0.0870634
v 0.00778169 -0.00802546 0.0870634
v 0.00972806 -0.00607909 0.0870634
v 0.00778169 -0.0162109 0.0823615
v 0.00972806 -0.012322 0.0843067
v 0.0106993 -0.0160509 0.0807384
v 0.00486403 -0.0189686 0.0807384
v 0.0106993 -0.0170222 0.0787932
v 0.00972806 -0.0175097 0.0778141
v 0.012322 -0.0162109 0.0739237
v 0.0134342 -0.0146835 -0.0421049
v 0.0149159 -0.0129695 -0.0421049
v 0.00388894 0.0194561 -0.0421049
v 0.00388894 0.0194561 0.0797593
v -0.00324142 0.0181573 0.0823615
v 0.0025939 0.0162109 0.0843067
v 0.0042127 0.0158871 0.0839846
v 0.00615907 0.0119944 0.0859298
v 0.00453646 0.012322 0.0862519
v -0.00453646 0.0110231 0.086896
v -0.00388894 0.00972806 0.0875401
v -0.00388894 0.00388894 0.0894982
v -0.00129504 0.0162109 0.0843067
v -0.00324142 0.012322 0.0862519
v -0.00388894 -0.00388894 0.0894982
v -0.00486403 -0.0106993 0.0870634
v -0.00291766 -0.0145921 0.0851182
v 0.00388894 -0.012322 0.0862519
v 0.00388894 -0.0181573 0.0823615
v -0.00388894 -0.0194561 0.0797593
v 0.00388894 -0.0194561 0.0797593
v -0.00388894 -0.0181573 0.0823615
v 0.00972806 -0.0175097 0.0739237
v 0.00388894 -0.0194561 -0.0421049
v -0.00388894 0.0194561 -0.0421049
v -0.00388894 0.0194561 0.0797593
v -0.00453646 0.0188048 0.0810604
v -0.00632286 0.0165347 0.0826835
v -0.00453646 0.0168584 0.0830056
v -0.0025939 0.0149159 0.0849508
v -0.00607909 0.00972806 0.0870634
v -0.00632286 0.0106993 0.0865739
v -0.00583531 0 0.0894982
v -0.00802546 0.00778169 0.0870634
v -0.00996802 0.00583531 0.0870634
v -0.00972806 0.00388894 0.0875401
v -0.0106993 -0.00486403 0.0870634
v -0.00486403 -0.00486403 0.0890086
v -0.0106993 -0.0106993 0.0851182
v -0.00583531 -0.0116706 0.0863292
v -0.00388894 -0.0155634 0.084384
v -0.00194256 -0.0162109 0.0843067
v 0.00194256 -0.0162109 0.0843067
v -0.00486403 -0.018481 0.0812279
v -0.00518779 -0.0188048 0.0804163
v -0.00972806 -0.0175097 0.0758689
v -0.00388894 -0.0194561 -0.0421049
v -0.00778169 -0.0162109 0.0823615
v -0.0126457 -0.0145921 0.0812279
v -0.0129695 0.0149159 -0.0421049
v -0.0068066 0.0189686 0.0612865
v -0.00583531 0.0194561 0.0622526
v -0.00972806 0.0175097 0.0778141
v -0.00996802 0.0170222 0.0797593
v -0.00583531 0.0194561 0.066143
v -0.0102118 0.0165347 0.0807384
v -0.0102118 0.0145921 0.0826835
v -0.00437648 0.0145921 0.0846287
v -0.0103756 0.0110231 0.0849508
v -0.012322 0.00388894 0.0862519
v -0.0145921 -0.00291766 0.0851182
v -0.0111869 0.0106993 0.0846287
v -0.012322 0.00972806 0.0843067
v -0.0116706 -0.00583531 0.0863292
v -0.00778169 -0.013617 0.084384
v -0.013617 -0.00778169 0.084384
v -0.0145921 -0.00875297 0.0831731
v -0.0145921 -0.0126457 0.0812279
v -0.00875297 -0.0145921 0.0831731
v -0.0129695 -0.0149159 0.0804163
v -0.0110231 -0.0168584 0.0765259
v -0.012322 -0.0162109 0.0752248
v -0.00972806 -0.0175097 0.0680882
v -0.0130685 -0.0148663 -0.0421049
v -0.012322 -0.0162109 0.0674441
v -0.0142645 0.0142645 -0.0421049
v -0.00842921 0.0181573 0.0622526
v -0.00972806 0.0175097 0.0719786
v -0.012322 0.0162109 0.0778141
v -0.0142645 0.0142645 0.0797593
v -0.0131295 0.0145921 0.0807384
v -0.012322 0.0149159 0.0810604
v -0.0138608 0.013617 0.0812279
v -0.0181573 0.00388894 0.0823615
v -0.0162109 0.00194256 0.0843067
v -0.0162109 -0.00194256 0.0843067
v -0.0155634 -0.00388894 0.084384
v -0.0141045 0.0106993 0.0826835
v -0.0162109 0.00778169 0.0823615
v -0.0162109 -0.00778169 0.0823615
v -0.0181573 -0.00388894 0.0823615
v -0.018481 -0.00486403 0.0812279
v -0.0149159 -0.0129695 0.0804163
v -0.0142645 -0.0142645 0.0791152
v -0.0162109 -0.012322 0.0752248
v -0.0142645 -0.0142645 -0.0421049
v -0.0162109 -0.012322 0.0674441
v -0.0146835 0.0134342 -0.0421049
v -0.012322 0.0162109 0.0719786
v -0.0149159 0.0129695 0.0797593
v -0.0150758 0.0126457 0.0807384
v -0.0189686 0.00486403 0.0807384
v -0.0194561 -0.00388894 0.0797593
v -0.0188048 -0.00518779 0.0804163
v -0.0168584 -0.0110231 0.0765259
v -0.0175097 -0.00972806 0.0758689
v -0.0148663 -0.0130685 -0.0421049
v -0.0175097 -0.00972806 0.0680882
v -0.0194561 -0.00388894 -0.0421049
v -0.0194561 0.00388894 -0.0421049
v -0.0194561 0.00388894 0.0797593
v -0.0194561 -0.00583531 0.0739237
v -0.0194561 -0.00583531 0.0719786
v 0.00778016 0.0272386 -0.0466957
v 0.00712959 0.026588 -0.0453987
v 0.0103718 0.0259374 -0.0460484
v 0.0181573 0.02205 -0.0460484
v 0.00778016 0.0272386 -0.054475
v -0.00778016 0.0272386 -0.0466957
v 0.00778016 0.0252922 -0.0447514
v 0.00940125 0.0249669 -0.0450739
v -0.00843073 0.026588 -0.0453987
v 0.02205 0.0181573 -0.0460484
v 0.0181573 0.02205 -0.0538301
v 0.013294 0.0230205 -0.0450739
v 0.0171814 0.0210742 -0.0450739
v 0.0116729 0.0252922 -0.054475
v 0.00907597 0.026588 -0.0551247
v 0.0103878 0.0240071 -0.066506
v 0.00406872 0.0254682 -0.066506
v -0.00778016 0.0272386 -0.054475
v -0.0181573 0.02205 -0.0466957
v 0.00388742 0.0194531 -0.0421073
v 0.00458598 0.0191065 -0.0421073
v 0.0116729 0.0233458 -0.0447514
v -0.00778016 0.0252922 -0.0447514
v -0.0162109 0.0226953 -0.0453987
v -0.0116729 0.0233458 -0.0447514
v 0.02205 0.0181573 -0.0538301
v 0.0210742 0.0171814 -0.0450739
v 0.0230205 0.013294 -0.0450739
v 0.0249669 0.00940125 -0.0450739
v 0.026588 0.00712959 -0.0453987
v 0.0259374 0.0103718 -0.0460484
v 0.0272386 0.00778016 -0.0466957
v 0.0184826 0.0184826 -0.066506
v 0.0164135 0.0203009 -0.066506
v 0.0142805 0.0220607 -0.066506
v 0.0168615 0.0226953 -0.0551247
v 0.0155603 0.0213994 -0.0447514
v 0.0142645 0.0142645 -0.0421073
v -0.00424469 0.0254682 -0.066506
v -0.00583379 0.0251162 -0.066506
v -0.00634571 0.0249829 -0.066506
v -0.00736423 0.0247163 -0.066506
v -0.00813744 0.0244976 -0.066506
v -0.00875068 0.026748 -0.0554496
v -0.0165362 0.0228606 -0.0554496
v -0.017752 0.0213994 -0.0452363
v -0.0170214 0.02237 -0.0457235
v -0.0181573 0.02205 -0.054475
v -0.02205 0.0181573 -0.0466957
v -0.00388742 0.0194531 -0.0421073
v 0.0129687 0.0149151 -0.0421073
v -0.00648436 0.0181573 -0.0421073
v -0.0155603 0.0213994 -0.0447514
v -0.0138006 0.0144992 -0.0421073
v 0.0220607 0.0142805 -0.066506
v 0.0203009 0.0164135 -0.066506
v 0.0252922 0.0116729 -0.054475
v 0.0226953 0.0168615 -0.0551247
v 0.0213994 0.0155603 -0.0447514
v 0.0233458 0.0116729 -0.0447514
v 0.0252922 0.00778016 -0.0447514
v 0.026588 -0.00843073 -0.0453987
v 0.0272386 -0.00778016 -0.0466957
v 0.0272386 0.00778016 -0.054475
v 0.0149151 0.0129687 -0.0421073
v -0.00890533 0.0242737 -0.066506
v -0.00974787 0.0240071 -0.066506
v -0.0122275 0.0229459 -0.066506
v -0.0136406 0.0220607 -0.066506
v -0.0216447 0.0175067 -0.0452363
v -0.0142645 0.0142645 -0.0421073
v -0.0180613 0.0190585 -0.066506
v -0.02205 0.0181573 -0.054475
v -0.0228606 0.0165362 -0.0457235
v 0.0240071 0.0103878 -0.066506
v 0.026588 0.00907597 -0.0551247
v 0.0191065 0.00458598 -0.0421073
v 0.0194531 0.00388742 -0.0421073
v 0.0252922 -0.00778016 -0.0447514
v 0.0233458 -0.0116729 -0.0447514
v 0.0226953 -0.0162109 -0.0453987
v 0.02205 -0.0181573 -0.0466957
v 0.0272386 -0.00778016 -0.054475
v 0.0254682 0.00406872 -0.066506
v -0.0255322 0.00972654 -0.0452363
v -0.0252922 0.00778016 -0.0447514
v -0.0233458 0.0116729 -0.0447514
v -0.0213994 0.0155603 -0.0447514
v -0.0149151 0.0129687 -0.0421073
v -0.0223486 0.0136193 -0.066506
v -0.0272386 0.00778016 -0.054475
v -0.0272386 0.00778016 -0.0466957
v -0.026748 0.00875068 -0.0457235
v 0.0194531 -0.00388742 -0.0421073
v 0.0181573 -0.00648436 -0.0421073
v 0.0213994 -0.0155603 -0.0447514
v 0.0144992 -0.0138006 -0.0421073
v 0.0213994 -0.017752 -0.0452363
v 0.02237 -0.0170214 -0.0457235
v 0.02205 -0.0181573 -0.054475
v 0.0181573 -0.02205 -0.0466957
v 0.026748 -0.00875068 -0.0554496
v 0.0244976 -0.00813744 -0.066506
v 0.0247163 -0.00736423 -0.066506
v 0.0249829 -0.00634571 -0.066506
v 0.0251162 -0.00583379 -0.066506
v 0.0254682 -0.00424469 -0.066506
v 0.0228606 -0.0165362 -0.0554496
v -0.026588 0.00778016 -0.0453987
v -0.0252922 -0.00778016 -0.0447514
v -0.0194531 0.00388742 -0.0421073
v -0.0185732 0.00565248 -0.0421073
v -0.024343 0.00936926 -0.066506
v -0.0254682 0.00388742 -0.066506
v -0.0272386 -0.00778016 -0.054475
v -0.0272386 -0.00778016 -0.0466957
v 0.0142645 -0.0142645 -0.0421073
v 0.0175067 -0.0216447 -0.0452363
v 0.0181573 -0.02205 -0.054475
v 0.0190585 -0.0180613 -0.066506
v 0.0220607 -0.0136406 -0.066506
v 0.0165362 -0.0228606 -0.0457235
v 0.0229459 -0.0122275 -0.066506
v 0.0240071 -0.00974787 -0.066506
v 0.0242737 -0.00890533 -0.066506
v -0.026588 -0.00778016 -0.0453987
v -0.0262627 -0.00875068 -0.0452363
v -0.0194531 -0.00388742 -0.0421073
v -0.0254682 -0.00442067 -0.066506
v -0.0252442 -0.00583379 -0.066506
v -0.0232978 -0.0116729 -0.066506
v -0.0259374 -0.0103718 -0.0551247
v -0.02205 -0.0181573 -0.0551247
v -0.026588 -0.00907597 -0.0460484
v -0.0252922 -0.0116729 -0.0466957
v 0.0155603 -0.0213994 -0.0447514
v 0.0129687 -0.0149151 -0.0421073
v 0.0116729 -0.0233458 -0.0447514
v 0.00778016 -0.0252922 -0.0447514
v 0.00972654 -0.0255322 -0.0452363
v 0.00778016 -0.0272386 -0.054475
v 0.0136193 -0.0223486 -0.066506
v 0.00875068 -0.026748 -0.0457235
v 0.00778016 -0.0272386 -0.0466957
v -0.02237 -0.0165362 -0.0452363
v -0.0181573 -0.00648436 -0.0421073
v -0.0229939 -0.0122008 -0.066506
v -0.0191011 -0.01804 -0.066506
v -0.0181573 -0.02205 -0.0551247
v -0.02205 -0.0181573 -0.0473453
v -0.0226953 -0.0168615 -0.0460484
v 0.00565248 -0.0185732 -0.0421073
v 0.00778016 -0.026588 -0.0453987
v 0.00388742 -0.0194531 -0.0421073
v -0.00778016 -0.0252922 -0.0447514
v 0.00388742 -0.0254682 -0.066506
v 0.00936926 -0.024343 -0.066506
v -0.00778016 -0.0272386 -0.054475
v -0.00778016 -0.0272386 -0.0466957
v -0.0204289 -0.0184826 -0.0452363
v -0.0142645 -0.0142645 -0.0421073
v -0.0149151 -0.0129687 -0.0421073
v -0.01804 -0.0191011 -0.066506
v -0.0181573 -0.02205 -0.0473453
v -0.0122008 -0.0229939 -0.066506
v -0.0116729 -0.0232978 -0.066506
v -0.0103718 -0.0259374 -0.0551247
v -0.0168615 -0.0226953 -0.0460484
v -0.00778016 -0.026588 -0.0453987
v -0.00388742 -0.0194531 -0.0421073
v -0.00875068 -0.0262627 -0.0452363
v -0.00442067 -0.0254682 -0.066506
v -0.00583379 -0.0252442 -0.066506
v -0.00907597 -0.026588 -0.0460484
v -0.0116729 -0.0252922 -0.0466957
v -0.0184826 -0.0204289 -0.0452363
v -0.0165362 -0.02237 -0.0452363
v -0.0129687 -0.0149151 -0.0421073
v -0.00648436 -0.0181573 -0.0421073
v 0.00583112 0.0408579 -0.0778265
v 0.00518322 0.040202 -0.0765279
v 0.012966 0.0382582 -0.0765279
v 0.013614 0.0389061 -0.0778265
v 0.00583112 0.0408579 -0.0875514
v -0.00583112 0.0408579 -0.0778265
v 0.00406339 0.0254682 -0.066506
v 0.0103904 0.0240044 -0.066506
v -0.00647903 0.040202 -0.0765279
v 0.013614 0.0369624 -0.0758798
v 0.0145898 0.0379383 -0.076852
v 0.0162056 0.0376103 -0.0771761
v 0.0175094 0.0369624 -0.0778265
v 0.013614 0.0389061 -0.0875514
v 0.0145898 0.0379383 -0.0890098
v 0.00680698 0.039882 -0.0890098
v 0.00583112 0.040202 -0.0888477
v -0.00680698 0.0403699 -0.0885236
v -0.00583112 0.0408579 -0.0875514
v -0.013614 0.0389061 -0.0778265
v -0.0142619 0.0382582 -0.0765279
v -0.00423936 0.0254682 -0.066506
v 0.0142779 0.0220607 -0.066506
v 0.0175094 0.0350187 -0.0758798
v -0.00583112 0.0251162 -0.066506
v 0.020101 0.0356666 -0.0771761
v 0.0213968 0.033075 -0.0758798
v 0.0239884 0.0337229 -0.0771761
v 0.0175094 0.0369624 -0.0875514
v 0.0149098 0.0382582 -0.0881996
v 0.0175094 0.0350187 -0.0894982
v 0.013614 0.0369624 -0.0894982
v 0.0188052 0.0363145 -0.0881996
v 0.0226926 0.0343708 -0.0881996
v 0.0223726 0.0340429 -0.0890098
v 0.0213968 0.033075 -0.0894982
v 0.00583112 0.0389061 -0.0894982
v -0.00583112 0.0389061 -0.0894982
v -0.00583112 0.040202 -0.0888477
v -0.013614 0.0382582 -0.0888477
v -0.0145898 0.0384182 -0.0885236
v -0.013614 0.0389061 -0.0875514
v -0.0175094 0.0369624 -0.0778265
v -0.0150777 0.0379383 -0.076852
v -0.0181573 0.0363145 -0.0765279
v -0.0122222 0.0229485 -0.066506
v -0.00975053 0.0240044 -0.066506
v -0.00890266 0.0242763 -0.066506
v -0.00736689 0.0247163 -0.066506
v 0.0164135 0.0203009 -0.066506
v 0.0230205 0.0327471 -0.0762038
v 0.0184772 0.0184772 -0.066506
v 0.0337229 0.0239884 -0.0771761
v 0.0239884 0.0337229 -0.0869032
v 0.0343708 0.0226926 -0.0881996
v 0.0340429 0.0223726 -0.0890098
v 0.033075 0.0213968 -0.0894982
v -0.013614 0.0369624 -0.0894982
v -0.0155577 0.0372024 -0.0890098
v -0.0175094 0.0369624 -0.0875514
v -0.0194531 0.0352587 -0.0890098
v -0.0223726 0.0345308 -0.0885236
v -0.0239884 0.0337229 -0.0778265
v -0.0220447 0.0343708 -0.0765279
v -0.0136379 0.0220607 -0.066506
v 0.0203009 0.0164135 -0.066506
v 0.0327471 0.0230205 -0.0762038
v 0.033075 0.0213968 -0.0758798
v 0.0379383 0.0145898 -0.076852
v 0.0356666 0.020101 -0.0771761
v 0.0337229 0.0239884 -0.0869032
v 0.0363145 0.0188052 -0.0881996
v 0.0379383 0.0145898 -0.0890098
v 0.0350187 0.0175094 -0.0894982
v -0.0175094 0.0350187 -0.0894982
v -0.0233405 0.033315 -0.0890098
v -0.0239884 0.0337229 -0.0875514
v -0.0337229 0.0239884 -0.0778265
v -0.0235885 0.033075 -0.0763659
v -0.0228606 0.0340429 -0.076852
v -0.0180613 0.0190531 -0.066506
v 0.0220607 0.0142779 -0.066506
v 0.0350187 0.0175094 -0.0758798
v 0.0369624 0.013614 -0.0758798
v 0.0382582 0.012966 -0.0765279
v 0.0389061 0.013614 -0.0778265
v 0.0376103 0.0162056 -0.0771761
v 0.0369624 0.0175094 -0.0778265
v 0.0369624 0.0175094 -0.0875514
v 0.0382582 0.0149098 -0.0881996
v 0.0389061 0.013614 -0.0875514
v 0.0408579 0.00583112 -0.0875514
v 0.039882 0.00680698 -0.0890098
v 0.0369624 0.013614 -0.0894982
v -0.0213968 0.033075 -0.0894982
v -0.0252922 0.0313713 -0.0890098
v -0.0337229 0.0239884 -0.0875514
v -0.0345308 0.0223726 -0.076852
v -0.033315 0.0233405 -0.0763659
v -0.0313713 0.0252922 -0.0763659
v -0.0223486 0.013614 -0.066506
v 0.0240044 0.0103904 -0.066506
v 0.040202 0.00518322 -0.0765279
v 0.0408579 0.00583112 -0.0778265
v 0.0408579 -0.00583112 -0.0875514
v 0.0403699 -0.00680698 -0.0885236
v 0.040202 0.00583112 -0.0888477
v 0.040202 -0.00583112 -0.0888477
v 0.0389061 -0.00583112 -0.0894982
v 0.0389061 0.00583112 -0.0894982
v -0.033075 0.0213968 -0.0894982
v -0.033075 0.0235885 -0.0890098
v -0.0340429 0.0228606 -0.0885236
v -0.0343708 0.0220447 -0.0888477
v -0.0379383 0.0150777 -0.0885236
v -0.0369624 0.0175094 -0.0875514
v -0.0369624 0.0175094 -0.0778265
v -0.0384182 0.0145898 -0.076852
v -0.0352587 0.0194531 -0.0763659
v -0.0372024 0.0155577 -0.0763659
v -0.0243403 0.00936659 -0.066506
v 0.0254682 0.00406339 -0.066506
v 0.040202 -0.00647903 -0.0765279
v 0.0408579 -0.00583112 -0.0778265
v 0.0389061 -0.013614 -0.0875514
v 0.0384182 -0.0145898 -0.0885236
v 0.0382582 -0.013614 -0.0888477
v 0.0369624 -0.013614 -0.0894982
v -0.0350187 0.0175094 -0.0894982
v -0.0363145 0.0181573 -0.0888477
v -0.0382582 0.0142619 -0.0888477
v -0.0389061 0.013614 -0.0875514
v -0.0389061 0.013614 -0.0778265
v -0.0403699 0.00680698 -0.076852
v -0.0382582 0.013614 -0.0765279
v -0.0254682 0.00388742 -0.066506
v -0.040202 0.00583112 -0.0765279
v 0.0254682 -0.00423936 -0.066506
v 0.0382582 -0.0142619 -0.0765279
v 0.0251162 -0.00583112 -0.066506
v 0.0389061 -0.013614 -0.0778265
v 0.0369624 -0.0175094 -0.0875514
v 0.0372024 -0.0155577 -0.0890098
v 0.0345308 -0.0223726 -0.0885236
v 0.0352587 -0.0194531 -0.0890098
v 0.0350187 -0.0175094 -0.0894982
v -0.0369624 0.013614 -0.0894982
v -0.040202 0.00647903 -0.0888477
v -0.0408579 0.00583112 -0.0875514
v -0.0408579 0.00583112 -0.0778265
v -0.0408579 -0.00583112 -0.0778265
v -0.040202 -0.00583112 -0.0765279
v -0.0254682 -0.00442333 -0.066506
v 0.0363145 -0.0181573 -0.0765279
v 0.0379383 -0.0150777 -0.076852
v 0.0247163 -0.00736689 -0.066506
v 0.0242763 -0.00890266 -0.066506
v 0.0240044 -0.00975053 -0.066506
v 0.0229485 -0.0122222 -0.066506
v 0.0369624 -0.0175094 -0.0778265
v 0.0337229 -0.0239884 -0.0875514
v 0.033315 -0.0233405 -0.0890098
v 0.033075 -0.0213968 -0.0894982
v -0.0389061 0.00583112 -0.0894982
v -0.040202 -0.00518322 -0.0888477
v -0.0408579 -0.00583112 -0.0875514
v -0.0389061 -0.013614 -0.0778265
v -0.0379383 -0.0145898 -0.0763659
v -0.039882 -0.00680698 -0.0763659
v -0.0252442 -0.00583112 -0.066506
v 0.0343708 -0.0220447 -0.0765279
v 0.0337229 -0.0239884 -0.0778265
v 0.0220607 -0.0136379 -0.066506
v 0.0313713 -0.0252922 -0.0890098
v 0.0239884 -0.0337229 -0.0875514
v 0.0213968 -0.033075 -0.0894982
v -0.0389061 -0.00583112 -0.0894982
v -0.0382582 -0.012966 -0.0888477
v -0.0389061 -0.013614 -0.0875514
v -0.0369624 -0.0175094 -0.0778265
v -0.0382582 -0.0149098 -0.0771761
v -0.0363145 -0.0188052 -0.0771761
v -0.0343708 -0.0226926 -0.0771761
v -0.0340429 -0.0223726 -0.0763659
v -0.0233005 -0.0116702 -0.066506
v 0.033075 -0.0235885 -0.0763659
v 0.0340429 -0.0228606 -0.076852
v 0.0239884 -0.0337229 -0.0778265
v 0.0190531 -0.0180613 -0.066506
v 0.0235885 -0.033075 -0.0890098
v 0.0220447 -0.0343708 -0.0888477
v 0.0228606 -0.0340429 -0.0885236
v 0.0175094 -0.0369624 -0.0875514
v 0.0150777 -0.0379383 -0.0885236
v 0.0175094 -0.0350187 -0.0894982
v -0.0369624 -0.013614 -0.0894982
v -0.0379383 -0.0145898 -0.0885236
v -0.0376103 -0.0162056 -0.0881996
v -0.0369624 -0.0175094 -0.0875514
v -0.0337229 -0.0239884 -0.0784724
v -0.0226926 -0.0343708 -0.0771761
v -0.0229885 -0.0121982 -0.066506
v -0.0223726 -0.0340429 -0.0763659
v -0.0191011 -0.0180373 -0.066506
v 0.0252922 -0.0313713 -0.0763659
v 0.0233405 -0.033315 -0.0763659
v 0.0223726 -0.0345308 -0.076852
v 0.013614 -0.0223486 -0.066506
v 0.0181573 -0.0363145 -0.0888477
v 0.0175094 -0.0369624 -0.0778265
v 0.013614 -0.0389061 -0.0875514
v 0.0142619 -0.0382582 -0.0888477
v 0.013614 -0.0369624 -0.0894982
v -0.0350187 -0.0175094 -0.0894982
v -0.0356666 -0.020101 -0.0881996
v -0.033075 -0.0213968 -0.0894982
v -0.0337229 -0.0239884 -0.0881996
v -0.0239884 -0.0337229 -0.0784724
v -0.0188052 -0.0363145 -0.0771761
v -0.0145898 -0.0379383 -0.0763659
v -0.0116702 -0.0233005 -0.066506
v -0.0121982 -0.0229885 -0.066506
v -0.0180373 -0.0191011 -0.066506
v 0.0194531 -0.0352587 -0.0763659
v 0.0145898 -0.0384182 -0.076852
v 0.00936659 -0.0243403 -0.066506
v 0.0155577 -0.0372024 -0.0763659
v 0.013614 -0.0389061 -0.0778265
v 0.00583112 -0.0408579 -0.0875514
v 0.00647903 -0.040202 -0.0888477
v 0.00583112 -0.0389061 -0.0894982
v -0.0327471 -0.0230205 -0.0891718
v -0.0213968 -0.033075 -0.0894982
v -0.0239884 -0.0337229 -0.0881996
v -0.0175094 -0.0369624 -0.0778265
v -0.0149098 -0.0382582 -0.0771761
v -0.013614 -0.0389061 -0.0778265
v -0.00583112 -0.0408579 -0.0778265
v -0.00680698 -0.039882 -0.0763659
v -0.00583112 -0.0252442 -0.066506
v 0.013614 -0.0382582 -0.0765279
v 0.00680698 -0.0403699 -0.076852
v 0.00388742 -0.0254682 -0.066506
v 0.00583112 -0.040202 -0.0765279
v 0.00583112 -0.0408579 -0.0778265
v -0.00583112 -0.0408579 -0.0875514
v -0.00518322 -0.040202 -0.0888477
v -0.00583112 -0.0389061 -0.0894982
v -0.0230205 -0.0327471 -0.0891718
v -0.0175094 -0.0350187 -0.0894982
v -0.0145898 -0.0379383 -0.0885236
v -0.020101 -0.0356666 -0.0881996
v -0.0175094 -0.0369624 -0.0875514
v -0.013614 -0.0389061 -0.0875514
v -0.00583112 -0.040202 -0.0765279
v -0.00442333 -0.0254682 -0.066506
v -0.012966 -0.0382582 -0.0888477
v -0.013614 -0.0369624 -0.0894982
v -0.0162056 -0.0376103 -0.0881996
f 1 2 3
f 1 3 13
f 1 13 4
f 1 4 18
f 1 18 37
f 1 37 64
f 1 64 38
f 1 38 19
f 1 19 5
f 1 5 6
f 1 6 7
f 1 7 2
f 2 7 8
f 2 8 9
f 2 9 10
f 2 10 3
f 3 10 24
f 3 24 11
f 3 11 12
f 3 12 28
f 3 28 13
f 4 13 14
f 4 14 15
f 4 15 16
f 4 16 17
f 4 17 18
f 5 19 20
f 5 20 6
f 6 20 21
f 6 21 7
f 7 21 40
f 7 40 22
f 7 22 8
f 8 22 9
f 9 22 10
f 10 23 45
f 10 45 24
f 10 22 23
f 11 24 25
f 11 25 26
f 11 26 12
f 12 26 27
f 12 27 28
f 13 29 30
f 13 30 14
f 13 28 31
f 13 31 29
f 14 30 32
f 14 32 16
f 14 16 15
f 16 32 33
f 16 33 34
f 16 34 17
f 17 34 35
f 17 35 36
f 17 36 18
f 18 36 62
f 18 62 37
f 19 38 20
f 20 39 21
f 20 38 39
f 21 39 40
f 22 41 42
f 22 42 43
f 22 43 44
f 22 44 23
f 22 40 66
f 22 66 41
f 23 44 71
f 23 71 45
f 24 45 25
f 25 45 46
f 25 46 26
f 26 46 47
f 26 47 27
f 27 47 48
f 27 48 73
f 27 73 98
f 27 98 119
f 27 119 101
f 27 101 75
f 27 75 49
f 27 49 50
f 27 50 51
f 27 51 52
f 27 52 28
f 28 52 31
f 29 31 30
f 30 31 53
f 30 53 32
f 31 52 51
f 31 51 54
f 31 54 53
f 32 53 54
f 32 54 55
f 32 55 33
f 33 56 57
f 33 57 35
f 33 35 34
f 33 55 58
f 33 58 56
f 35 57 59
f 35 59 60
f 35 60 86
f 35 86 61
f 35 61 62
f 35 62 36
f 37 62 63
f 37 63 64
f 38 64 88
f 38 88 61
f 38 61 87
f 38 87 110
f 38 110 133
f 38 133 160
f 38 160 182
f 38 182 193
f 38 193 195
f 38 195 196
f 38 196 184
f 38 184 162
f 38 162 136
f 38 136 111
f 38 111 89
f 38 89 66
f 38 66 40
f 38 40 65
f 38 65 39
f 39 65 40
f 41 67 42
f 41 66 89
f 41 89 90
f 41 90 67
f 42 67 90
f 42 90 68
f 42 68 69
f 42 69 43
f 43 69 93
f 43 93 70
f 43 70 71
f 43 71 44
f 45 71 72
f 45 72 46
f 46 72 48
f 46 48 47
f 48 72 74
f 48 74 73
f 49 75 76
f 49 76 77
f 49 77 78
f 49 78 79
f 49 79 50
f 50 79 51
f 51 79 54
f 54 79 55
f 55 79 78
f 55 78 77
f 55 77 58
f 56 80 57
f 56 58 81
f 56 81 80
f 57 82 59
f 57 80 82
f 58 77 81
f 59 82 83
f 59 83 84
f 59 84 60
f 60 84 85
f 60 85 109
f 60 109 86
f 61 88 63
f 61 63 62
f 61 86 87
f 63 88 64
f 68 90 69
f 69 91 99
f 69 99 92
f 69 92 93
f 69 90 112
f 69 112 91
f 70 93 94
f 70 94 71
f 71 94 72
f 72 94 95
f 72 95 74
f 73 96 97
f 73 97 98
f 73 74 95
f 73 95 92
f 73 92 99
f 73 99 100
f 73 100 96
f 75 101 102
f 75 102 103
f 75 103 104
f 75 104 76
f 76 104 77
f 77 104 81
f 80 105 83
f 80 83 82
f 80 81 105
f 81 104 105
f 83 106 107
f 83 107 85
f 83 85 84
f 83 105 108
f 83 108 106
f 85 107 110
f 85 110 109
f 86 109 87
f 87 109 110
f 89 111 138
f 89 138 141
f 89 141 112
f 89 112 90
f 91 112 113
f 91 113 114
f 91 114 115
f 91 115 116
f 91 116 99
f 92 95 93
f 93 95 94
f 96 117 97
f 96 100 116
f 96 116 118
f 96 118 117
f 97 117 98
f 98 117 120
f 98 120 121
f 98 121 122
f 98 122 119
f 99 116 100
f 101 119 123
f 101 123 124
f 101 124 102
f 102 124 123
f 102 123 125
f 102 125 126
f 102 126 127
f 102 127 103
f 103 127 128
f 103 128 129
f 103 129 104
f 104 129 105
f 105 129 128
f 105 128 108
f 106 108 130
f 106 130 131
f 106 131 132
f 106 132 159
f 106 159 133
f 106 133 110
f 106 110 107
f 108 134 135
f 108 135 130
f 108 128 127
f 108 127 151
f 108 151 134
f 111 136 137
f 111 137 138
f 112 139 140
f 112 140 113
f 112 141 139
f 113 140 142
f 113 142 114
f 114 142 143
f 114 143 144
f 114 144 116
f 114 116 115
f 116 144 118
f 117 118 145
f 117 145 120
f 118 144 143
f 118 143 145
f 119 122 146
f 119 146 147
f 119 147 123
f 120 145 121
f 121 145 148
f 121 148 149
f 121 149 146
f 121 146 122
f 123 147 173
f 123 173 150
f 123 150 125
f 125 151 126
f 125 150 152
f 125 152 153
f 125 153 154
f 125 154 135
f 125 135 155
f 125 155 151
f 126 151 127
f 130 135 156
f 130 156 131
f 131 156 157
f 131 157 132
f 132 157 158
f 132 158 161
f 132 161 159
f 133 159 161
f 133 161 160
f 134 151 155
f 134 155 135
f 135 154 179
f 135 179 156
f 136 162 137
f 137 163 138
f 137 162 163
f 138 163 185
f 138 185 164
f 138 164 139
f 138 139 141
f 139 165 140
f 139 164 185
f 139 185 165
f 140 165 142
f 142 165 166
f 142 166 167
f 142 167 168
f 142 168 143
f 143 168 169
f 143 169 145
f 145 169 148
f 146 149 170
f 146 170 171
f 146 171 147
f 147 171 172
f 147 172 173
f 148 169 174
f 148 174 149
f 149 174 175
f 149 175 170
f 150 173 152
f 152 173 177
f 152 177 176
f 152 176 153
f 153 176 154
f 154 176 177
f 154 177 178
f 154 178 190
f 154 190 179
f 156 179 180
f 156 180 158
f 156 158 157
f 158 181 183
f 158 183 161
f 158 180 181
f 160 161 182
f 161 183 182
f 162 184 166
f 162 166 165
f 162 165 185
f 162 185 163
f 166 186 187
f 166 187 169
f 166 169 167
f 166 184 186
f 167 169 168
f 169 187 174
f 170 175 188
f 170 188 177
f 170 177 172
f 170 172 171
f 172 177 173
f 174 187 175
f 175 187 188
f 177 188 189
f 177 189 178
f 178 189 190
f 179 190 191
f 179 191 181
f 179 181 180
f 181 191 192
f 181 192 194
f 181 194 183
f 182 183 193
f 183 194 195
f 183 195 193
f 184 196 197
f 184 197 188
f 184 188 186
f 186 188 187
f 188 197 189
f 189 197 196
f 189 196 195
f 189 195 199
f 189 199 198
f 189 198 192
f 189 192 190
f 190 192 191
f 192 198 199
f 192 199 194
f 194 199 195
f 200 201 202
f 200 202 203
f 200 203 210
f 200 210 213
f 200 213 204
f 200 204 217
f 200 217 205
f 200 205 208
f 200 208 201
f 201 206 207
f 201 207 203
f 201 203 202
f 201 208 222
f 201 222 206
f 203 209 225
f 203 225 210
f 203 207 211
f 203 211 212
f 203 212 226
f 203 226 209
f 204 213 235
f 204 235 214
f 204 214 215
f 204 215 216
f 204 216 238
f 204 238 217
f 205 217 244
f 205 244 247
f 205 247 218
f 205 218 208
f 206 219 220
f 206 220 250
f 206 250 221
f 206 221 211
f 206 211 207
f 206 222 249
f 206 249 219
f 208 218 223
f 208 223 224
f 208 224 222
f 209 226 227
f 209 227 228
f 209 228 229
f 209 229 230
f 209 230 231
f 209 231 263
f 209 263 256
f 209 256 225
f 210 225 232
f 210 232 233
f 210 233 234
f 210 234 235
f 210 235 213
f 211 221 236
f 211 236 212
f 212 236 237
f 212 237 226
f 214 235 234
f 214 234 215
f 215 234 233
f 215 233 232
f 215 232 255
f 215 255 254
f 215 254 274
f 215 274 283
f 215 283 306
f 215 306 305
f 215 305 304
f 215 304 303
f 215 303 302
f 215 302 324
f 215 324 323
f 215 323 322
f 215 322 320
f 215 320 319
f 215 319 341
f 215 341 356
f 215 356 355
f 215 355 371
f 215 371 372
f 215 372 365
f 215 365 364
f 215 364 362
f 215 362 347
f 215 347 346
f 215 346 330
f 215 330 329
f 215 329 328
f 215 328 313
f 215 313 312
f 215 312 289
f 215 289 271
f 215 271 268
f 215 268 267
f 215 267 266
f 215 266 265
f 215 265 242
f 215 242 241
f 215 241 240
f 215 240 239
f 215 239 238
f 215 238 216
f 217 238 239
f 217 239 240
f 217 240 241
f 217 241 242
f 217 242 243
f 217 243 244
f 218 245 246
f 218 246 223
f 218 247 272
f 218 272 248
f 218 248 269
f 218 269 245
f 219 249 251
f 219 251 253
f 219 253 270
f 219 270 288
f 219 288 311
f 219 311 310
f 219 310 327
f 219 327 345
f 219 345 361
f 219 361 360
f 219 360 377
f 219 377 378
f 219 378 369
f 219 369 353
f 219 353 351
f 219 351 336
f 219 336 316
f 219 316 296
f 219 296 294
f 219 294 293
f 219 293 277
f 219 277 276
f 219 276 264
f 219 264 237
f 219 237 250
f 219 250 220
f 221 250 236
f 222 224 253
f 222 253 251
f 222 251 249
f 223 246 245
f 223 245 252
f 223 252 224
f 224 252 253
f 225 254 255
f 225 255 232
f 225 256 257
f 225 257 254
f 226 258 259
f 226 259 227
f 226 237 258
f 227 259 260
f 227 260 228
f 228 260 229
f 229 261 262
f 229 262 231
f 229 231 230
f 229 260 278
f 229 278 261
f 231 262 282
f 231 282 263
f 236 250 237
f 237 264 258
f 242 265 243
f 243 265 266
f 243 266 267
f 243 267 244
f 244 267 268
f 244 268 247
f 245 269 270
f 245 270 252
f 247 271 272
f 247 268 271
f 248 272 290
f 248 290 291
f 248 291 273
f 248 273 269
f 252 270 253
f 254 257 275
f 254 275 274
f 256 263 275
f 256 275 257
f 258 264 259
f 259 264 276
f 259 276 260
f 260 276 277
f 260 277 293
f 260 293 278
f 261 278 279
f 261 279 280
f 261 280 281
f 261 281 262
f 262 281 299
f 262 299 307
f 262 307 282
f 263 282 306
f 263 306 283
f 263 283 274
f 263 274 275
f 269 273 284
f 269 284 285
f 269 285 286
f 269 286 287
f 269 287 270
f 270 287 288
f 271 289 272
f 272 289 290
f 273 291 292
f 273 292 284
f 278 293 294
f 278 294 296
f 278 296 279
f 279 295 280
f 279 296 295
f 280 295 297
f 280 297 298
f 280 298 281
f 281 298 297
f 281 297 317
f 281 317 300
f 281 300 318
f 281 318 299
f 282 301 302
f 282 302 303
f 282 303 304
f 282 304 305
f 282 305 306
f 282 307 301
f 284 292 308
f 284 308 285
f 285 308 325
f 285 325 309
f 285 309 327
f 285 327 310
f 285 310 311
f 285 311 288
f 285 288 286
f 286 288 287
f 289 312 290
f 290 312 313
f 290 313 328
f 290 328 314
f 290 314 315
f 290 315 291
f 291 315 325
f 291 325 308
f 291 308 292
f 295 296 316
f 295 316 297
f 297 316 317
f 299 318 319
f 299 319 320
f 299 320 307
f 300 317 321
f 300 321 343
f 300 343 340
f 300 340 318
f 301 307 322
f 301 322 323
f 301 323 324
f 301 324 302
f 307 320 322
f 309 325 326
f 309 326 327
f 314 328 329
f 314 329 330
f 314 330 331
f 314 331 332
f 314 332 349
f 314 349 334
f 314 334 315
f 315 333 326
f 315 326 325
f 315 334 350
f 315 350 333
f 316 335 317
f 316 336 335
f 317 335 337
f 317 337 338
f 317 338 339
f 317 339 321
f 318 340 341
f 318 341 319
f 321 339 342
f 321 342 343
f 326 333 350
f 326 350 344
f 326 344 361
f 326 361 345
f 326 345 327
f 330 346 332
f 330 332 331
f 332 347 362
f 332 362 348
f 332 348 363
f 332 363 349
f 332 346 347
f 334 349 350
f 335 336 337
f 336 351 338
f 336 338 337
f 338 352 339
f 338 351 353
f 338 353 369
f 338 369 354
f 338 354 368
f 338 368 352
f 339 352 342
f 340 355 356
f 340 356 341
f 340 343 358
f 340 358 357
f 340 357 371
f 340 371 355
f 342 352 343
f 343 352 368
f 343 368 358
f 344 350 359
f 344 359 360
f 344 360 361
f 348 362 364
f 348 364 365
f 348 365 366
f 348 366 357
f 348 357 358
f 348 358 374
f 348 374 363
f 349 363 367
f 349 367 350
f 350 367 375
f 350 375 359
f 354 369 370
f 354 370 368
f 357 366 365
f 357 365 372
f 357 372 371
f 358 368 370
f 358 370 373
f 358 373 367
f 358 367 374
f 359 375 360
f 360 375 376
f 360 376 377
f 363 374 367
f 367 373 370
f 367 370 376
f 367 376 375
f 369 378 370
f 370 378 377
f 370 377 376
f 379 380 381
f 379 381 382
f 379 382 392
f 379 392 383
f 379 383 397
f 379 397 384
f 379 384 387
f 379 387 380
f 380 385 386
f 380 386 381
f 380 387 400
f 380 400 385
f 381 388 389
f 381 389 382
f 381 386 388
f 382 389 390
f 382 390 404
f 382 404 391
f 382 391 407
f 382 407 392
f 383 392 393
f 383 393 394
f 383 394 395
f 383 395 396
f 383 396 397
f 384 397 420
f 384 420 398
f 384 398 399
f 384 399 387
f 385 400 403
f 385 403 427
f 385 427 426
f 385 426 425
f 385 425 424
f 385 424 443
f 385 443 459
f 385 459 479
f 385 479 499
f 385 499 514
f 385 514 531
f 385 531 548
f 385 548 563
f 385 563 580
f 385 580 582
f 385 582 601
f 385 601 600
f 385 600 599
f 385 599 618
f 385 618 634
f 385 634 621
f 385 621 604
f 385 604 586
f 385 586 567
f 385 567 551
f 385 551 537
f 385 537 536
f 385 536 535
f 385 535 534
f 385 534 518
f 385 518 516
f 385 516 500
f 385 500 480
f 385 480 460
f 385 460 444
f 385 444 430
f 385 430 428
f 385 428 401
f 385 401 386
f 386 401 405
f 386 405 402
f 386 402 388
f 387 399 403
f 387 403 400
f 388 402 389
f 389 404 390
f 389 402 405
f 389 405 406
f 389 406 404
f 391 404 406
f 391 406 432
f 391 432 412
f 391 412 411
f 391 411 407
f 392 407 411
f 392 411 408
f 392 408 393
f 393 409 410
f 393 410 415
f 393 415 394
f 393 408 411
f 393 411 412
f 393 412 413
f 393 413 414
f 393 414 409
f 394 415 416
f 394 416 417
f 394 417 395
f 395 417 396
f 396 417 418
f 396 418 419
f 396 419 420
f 396 420 397
f 398 420 438
f 398 438 421
f 398 421 422
f 398 422 399
f 399 422 423
f 399 423 424
f 399 424 425
f 399 425 426
f 399 426 427
f 399 427 403
f 401 428 429
f 401 429 405
f 405 429 406
f 406 429 430
f 406 430 431
f 406 431 449
f 406 449 432
f 409 414 435
f 409 435 452
f 409 452 472
f 409 472 488
f 409 488 487
f 409 487 506
f 409 506 524
f 409 524 541
f 409 541 554
f 409 554 573
f 409 573 591
f 409 591 609
f 409 609 626
f 409 626 636
f 409 636 628
f 409 628 611
f 409 611 594
f 409 594 592
f 409 592 574
f 409 574 555
f 409 555 542
f 409 542 525
f 409 525 507
f 409 507 489
f 409 489 473
f 409 473 453
f 409 453 436
f 409 436 416
f 409 416 415
f 409 415 410
f 412 432 449
f 412 449 433
f 412 433 434
f 412 434 413
f 413 434 435
f 413 435 414
f 416 436 418
f 416 418 417
f 418 436 437
f 418 437 419
f 419 438 420
f 419 437 439
f 419 439 440
f 419 440 438
f 421 438 440
f 421 440 455
f 421 455 441
f 421 441 422
f 422 441 442
f 422 442 423
f 423 442 424
f 424 442 443
f 428 430 429
f 430 444 445
f 430 445 431
f 431 445 446
f 431 446 447
f 431 447 448
f 431 448 466
f 431 466 467
f 431 467 450
f 431 450 433
f 431 433 449
f 433 450 451
f 433 451 434
f 434 451 435
f 435 451 452
f 436 453 439
f 436 439 437
f 439 453 473
f 439 473 454
f 439 454 440
f 440 454 455
f 441 455 475
f 441 475 456
f 441 456 478
f 441 478 457
f 441 457 458
f 441 458 442
f 442 458 457
f 442 457 443
f 443 457 459
f 444 460 445
f 445 460 446
f 446 461 447
f 446 460 480
f 446 480 461
f 447 462 463
f 447 463 464
f 447 464 465
f 447 465 448
f 447 461 462
f 448 465 464
f 448 464 466
f 450 467 469
f 450 469 468
f 450 468 451
f 451 468 469
f 451 469 470
f 451 470 471
f 451 471 488
f 451 488 472
f 451 472 452
f 454 474 455
f 454 473 474
f 455 474 490
f 455 490 475
f 456 475 494
f 456 494 495
f 456 495 476
f 456 476 477
f 456 477 478
f 457 478 459
f 459 478 477
f 459 477 479
f 461 480 462
f 462 480 463
f 463 480 481
f 463 481 482
f 463 482 464
f 464 482 470
f 464 470 469
f 464 469 467
f 464 467 466
f 470 482 502
f 470 502 483
f 470 483 484
f 470 484 485
f 470 485 471
f 471 485 486
f 471 486 487
f 471 487 488
f 473 489 490
f 473 490 474
f 475 490 491
f 475 491 492
f 475 492 493
f 475 493 494
f 476 495 496
f 476 496 497
f 476 497 477
f 477 497 479
f 479 497 498
f 479 498 499
f 480 500 481
f 481 501 502
f 481 502 482
f 481 500 516
f 481 516 501
f 483 502 519
f 483 519 503
f 483 503 504
f 483 504 484
f 484 486 485
f 484 504 505
f 484 505 486
f 486 505 506
f 486 506 487
f 489 507 508
f 489 508 492
f 489 492 490
f 490 492 491
f 492 508 493
f 493 508 509
f 493 509 510
f 493 510 494
f 494 510 511
f 494 511 495
f 495 511 496
f 496 511 528
f 496 528 512
f 496 512 513
f 496 513 499
f 496 499 498
f 496 498 497
f 499 513 515
f 499 515 514
f 501 517 502
f 501 516 518
f 501 518 517
f 502 517 519
f 503 519 538
f 503 538 520
f 503 520 504
f 504 521 505
f 504 520 522
f 504 522 523
f 504 523 521
f 505 521 506
f 506 521 523
f 506 523 524
f 507 525 509
f 507 509 508
f 509 525 542
f 509 542 526
f 509 526 527
f 509 527 510
f 510 527 528
f 510 528 511
f 512 528 529
f 512 529 530
f 512 530 515
f 512 515 513
f 514 515 530
f 514 530 531
f 517 532 533
f 517 533 519
f 517 518 534
f 517 534 535
f 517 535 536
f 517 536 537
f 517 537 532
f 519 533 538
f 520 538 550
f 520 550 539
f 520 539 522
f 522 539 540
f 522 540 523
f 523 540 541
f 523 541 524
f 526 542 555
f 526 555 543
f 526 543 544
f 526 544 527
f 527 544 529
f 527 529 528
f 529 545 546
f 529 546 547
f 529 547 530
f 529 544 557
f 529 557 545
f 530 547 531
f 531 547 548
f 532 549 533
f 532 537 549
f 533 549 550
f 533 550 538
f 537 551 549
f 539 552 540
f 539 550 566
f 539 566 553
f 539 553 568
f 539 568 552
f 540 552 541
f 541 552 568
f 541 568 554
f 543 555 574
f 543 574 556
f 543 556 544
f 544 556 557
f 545 558 560
f 545 560 559
f 545 559 546
f 545 557 577
f 545 577 558
f 546 559 560
f 546 560 561
f 546 561 562
f 546 562 563
f 546 563 548
f 546 548 547
f 549 564 565
f 549 565 550
f 549 551 564
f 550 565 564
f 550 564 583
f 550 583 566
f 551 567 564
f 553 569 570
f 553 570 568
f 553 566 585
f 553 585 588
f 553 588 571
f 553 571 572
f 553 572 569
f 554 568 569
f 554 569 587
f 554 587 573
f 556 574 575
f 556 575 557
f 557 575 576
f 557 576 593
f 557 593 577
f 558 577 593
f 558 593 595
f 558 595 578
f 558 578 561
f 558 561 560
f 561 578 596
f 561 596 579
f 561 579 581
f 561 581 562
f 562 580 563
f 562 581 601
f 562 601 582
f 562 582 580
f 564 567 583
f 566 583 584
f 566 584 585
f 567 586 584
f 567 584 583
f 568 570 569
f 569 572 587
f 571 588 606
f 571 606 589
f 571 589 572
f 572 589 590
f 572 590 587
f 573 587 590
f 573 590 591
f 574 592 575
f 575 593 576
f 575 592 594
f 575 594 595
f 575 595 593
f 578 595 612
f 578 612 596
f 579 597 598
f 579 598 581
f 579 596 612
f 579 612 630
f 579 630 631
f 579 631 613
f 579 613 597
f 581 598 599
f 581 599 600
f 581 600 601
f 584 586 602
f 584 602 585
f 585 602 603
f 585 603 588
f 586 604 605
f 586 605 602
f 588 603 606
f 589 606 623
f 589 623 607
f 589 607 590
f 590 607 608
f 590 608 609
f 590 609 591
f 594 610 595
f 594 611 627
f 594 627 610
f 595 610 627
f 595 627 612
f 597 613 615
f 597 615 614
f 597 614 598
f 598 614 615
f 598 615 616
f 598 616 617
f 598 617 618
f 598 618 599
f 602 605 603
f 603 605 604
f 603 604 619
f 603 619 620
f 603 620 623
f 603 623 606
f 604 621 622
f 604 622 619
f 607 623 616
f 607 616 624
f 607 624 625
f 607 625 608
f 608 625 626
f 608 626 609
f 611 612 627
f 611 628 629
f 611 629 612
f 612 629 630
f 613 631 632
f 613 632 615
f 615 632 624
f 615 624 616
f 616 623 620
f 616 620 633
f 616 633 617
f 617 633 634
f 617 634 618
f 619 622 620
f 620 622 633
f 621 634 633
f 621 633 622
f 624 632 635
f 624 635 625
f 625 635 636
f 625 636 626
f 628 636 629
f 629 636 635
f 629 635 632
f 629 632 637
f 629 637 630
f 630 637 632
f 630 632 631
