o piece_002
v 0.00583112 0.0408579 -0.0778265
v 0.00518322 0.040202 -0.0765279
v 0.012966 0.0382582 -0.0765279
v 0.013614 0.0389061 -0.0778265
v 0.00583112 0.0408579 -0.0875514
v -0.00583112 0.0408579 -0.0778265
v 0.00406339 0.0254682 -0.066506
v 0.0103904 0.0240044 -0.066506
v -0.00647903 0.040202 -0.0765279
v 0.013614 0.0369624 -0.0758798
v 0.0145898 0.0379383 -0.076852
v 0.0162056 0.0376103 -0.0771761
v 0.0175094 0.0369624 -0.0778265
v 0.013614 0.0389061 -0.0875514
v 0.0145898 0.0379383 -0.0890098
v 0.00680698 0.039882 -0.0890098
v 0.00583112 0.040202 -0.0888477
v -0.00680698 0.0403699 -0.0885236
v -0.00583112 0.0408579 -0.0875514
v -0.013614 0.0389061 -0.0778265
v -0.0142619 0.0382582 -0.0765279
v -0.00423936 0.0254682 -0.066506
v 0.0142779 0.0220607 -0.066506
v 0.0175094 0.0350187 -0.0758798
v -0.00583112 0.0251162 -0.066506
v 0.020101 0.0356666 -0.0771761
v 0.0213968 0.033075 -0.0758798
v 0.0239884 0.0337229 -0.0771761
v 0.0175094 0.0369624 -0.0875514
v 0.0149098 0.0382582 -0.0881996
v 0.0175094 0.0350187 -0.0894982
v 0.013614 0.0369624 -0.0894982
v 0.0188052 0.0363145 -0.0881996
v 0.0226926 0.0343708 -0.0881996
v 0.0223726 0.0340429 -0.0890098
v 0.0213968 0.033075 -0.0894982
v 0.00583112 0.0389061 -0.0894982
v -0.00583112 0.0389061 -0.0894982
v -0.00583112 0.040202 -0.0888477
v -0.013614 0.0382582 -0.0888477
v -0.0145898 0.0384182 -0.0885236
v -0.013614 0.0389061 -0.0875514
v -0.0175094 0.0369624 -0.0778265
v -0.0150777 0.0379383 -0.076852
v -0.0181573 0.0363145 -0.0765279
v -0.0122222 0.0229485 -0.066506
v -0.00975053 0.0240044 -0.066506
v -0.00890266 0.0242763 -0.066506
v -0.00736689 0.0247163 -0.066506
v 0.0164135 0.0203009 -0.066506
v 0.0230205 0.0327471 -0.0762038
v 0.0184772 0.0184772 -0.066506
v 0.0337229 0.0239884 -0.0771761
v 0.0239884 0.0337229 -0.0869032
v 0.0343708 0.0226926 -0.0881996
v 0.0340429 0.0223726 -0.0890098
v 0.033075 0.0213968 -0.0894982
v -0.013614 0.0369624 -0.0894982
v -0.0155577 0.0372024 -0.0890098
v -0.0175094 0.0369624 -0.0875514
v -0.0194531 0.0352587 -0.0890098
v -0.0223726 0.0345308 -0.0885236
v -0.0239884 0.0337229 -0.0778265
v -0.0220447 0.0343708 -0.0765279
v -0.0136379 0.0220607 -0.066506
v 0.0203009 0.0164135 -0.066506
v 0.0327471 0.0230205 -0.0762038
v 0.033075 0.0213968 -0.0758798
v 0.0379383 0.0145898 -0.076852
v 0.0356666 0.020101 -0.0771761
v 0.0337229 0.0239884 -0.0869032
v 0.0363145 0.0188052 -0.0881996
v 0.0379383 0.0145898 -0.0890098
v 0.0350187 0.0175094 -0.0894982
v -0.0175094 0.0350187 -0.0894982
v -0.0233405 0.033315 -0.0890098
v -0.0239884 0.0337229 -0.0875514
v -0.0337229 0.0239884 -0.0778265
v -0.0235885 0.033075 -0.0763659
v -0.0228606 0.0340429 -0.076852
v -0.0180613 0.0190531 -0.066506
v 0.0220607 0.0142779 -0.066506
v 0.0350187 0.0175094 -0.0758798
v 0.0369624 0.013614 -0.0758798
v 0.0382582 0.012966 -0.0765279
v 0.0389061 0.013614 -0.0778265
v 0.0376103 0.0162056 -0.0771761
v 0.0369624 0.0175094 -0.0778265
v 0.0369624 0.0175094 -0.0875514
v 0.0382582 0.0149098 -0.0881996
v 0.0389061 0.013614 -0.0875514
v 0.0408579 0.00583112 -0.0875514
v 0.039882 0.00680698 -0.0890098
v 0.0369624 0.013614 -0.0894982
v -0.0213968 0.033075 -0.0894982
v -0.0252922 0.0313713 -0.0890098
v -0.0337229 0.0239884 -0.0875514
v -0.0345308 0.0223726 -0.076852
v -0.033315 0.0233405 -0.0763659
v -0.0313713 0.0252922 -0.0763659
v -0.0223486 0.013614 -0.066506
v 0.0240044 0.0103904 -0.066506
v 0.040202 0.00518322 -0.0765279
v 0.0408579 0.00583112 -0.0778265
v 0.0408579 -0.00583112 -0.0875514
v 0.0403699 -0.00680698 -0.0885236
v 0.040202 0.00583112 -0.0888477
v 0.040202 -0.00583112 -0.0888477
v 0.0389061 -0.00583112 -0.0894982
v 0.0389061 0.00583112 -0.0894982
v -0.033075 0.0213968 -0.0894982
v -0.033075 0.0235885 -0.0890098
v -0.0340429 0.0228606 -0.0885236
v -0.0343708 0.0220447 -0.0888477
v -0.0379383 0.0150777 -0.0885236
v -0.0369624 0.0175094 -0.0875514
v -0.0369624 0.0175094 -0.0778265
v -0.0384182 0.0145898 -0.076852
v -0.0352587 0.0194531 -0.0763659
v -0.0372024 0.0155577 -0.0763659
v -0.0243403 0.00936659 -0.066506
v 0.0254682 0.00406339 -0.066506
v 0.040202 -0.00647903 -0.0765279
v 0.0408579 -0.00583112 -0.0778265
v 0.0389061 -0.013614 -0.0875514
v 0.0384182 -0.0145898 -0.0885236
v 0.0382582 -0.013614 -0.0888477
v 0.0369624 -0.013614 -0.0894982
v -0.0350187 0.0175094 -0.0894982
v -0.0363145 0.0181573 -0.0888477
v -0.0382582 0.0142619 -0.0888477
v -0.0389061 0.013614 -0.0875514
v -0.0389061 0.013614 -0.0778265
v -0.0403699 0.00680698 -0.076852
v -0.0382582 0.013614 -0.0765279
v -0.0254682 0.00388742 -0.066506
v -0.040202 0.00583112 -0.0765279
v 0.0254682 -0.00423936 -0.066506
v 0.0382582 -0.0142619 -0.0765279
v 0.0251162 -0.00583112 -0.066506
v 0.0389061 -0.013614 -0.0778265
v 0.0369624 -0.0175094 -0.0875514
v 0.0372024 -0.0155577 -0.0890098
v 0.0345308 -0.0223726 -0.0885236
v 0.0352587 -0.0194531 -0.0890098
v 0.0350187 -0.0175094 -0.0894982
v -0.0369624 0.013614 -0.0894982
v -0.040202 0.00647903 -0.0888477
v -0.0408579 0.00583112 -0.0875514
v -0.0408579 0.00583112 -0.0778265
v -0.0408579 -0.00583112 -0.0778265
v -0.040202 -0.00583112 -0.0765279
v -0.0254682 -0.00442333 -0.066506
v 0.0363145 -0.0181573 -0.0765279
v 0.0379383 -0.0150777 -0.076852
v 0.0247163 -0.00736689 -0.066506
v 0.0242763 -0.00890266 -0.066506
v 0.0240044 -0.00975053 -0.066506
v 0.0229485 -0.0122222 -0.066506
v 0.0369624 -0.0175094 -0.0778265
v 0.0337229 -0.0239884 -0.0875514
v 0.033315 -0.0233405 -0.0890098
v 0.033075 -0.0213968 -0.0894982
v -0.0389061 0.00583112 -0.0894982
v -0.040202 -0.00518322 -0.0888477
v -0.0408579 -0.00583112 -0.0875514
v -0.0389061 -0.013614 -0.0778265
v -0.0379383 -0.0145898 -0.0763659
v -0.039882 -0.00680698 -0.0763659
v -0.0252442 -0.00583112 -0.066506
v 0.0343708 -0.0220447 -0.0765279
v 0.0337229 -0.0239884 -0.0778265
v 0.0220607 -0.0136379 -0.066506
v 0.0313713 -0.0252922 -0.0890098
v 0.0239884 -0.0337229 -0.0875514
v 0.0213968 -0.033075 -0.0894982
v -0.0389061 -0.00583112 -0.0894982
v -0.0382582 -0.012966 -0.0888477
v -0.0389061 -0.013614 -0.0875514
v -0.0369624 -0.0175094 -0.0778265
v -0.0382582 -0.0149098 -0.0771761
v -0.0363145 -0.0188052 -0.0771761
v -0.0343708 -0.0226926 -0.0771761
v -0.0340429 -0.0223726 -0.0763659
v -0.0233005 -0.0116702 -0.066506
v 0.033075 -0.0235885 -0.0763659
v 0.0340429 -0.0228606 -0.076852
v 0.0239884 -0.0337229 -0.0778265
v 0.0190531 -0.0180613 -0.066506
v 0.0235885 -0.033075 -0.0890098
v 0.0220447 -0.0343708 -0.0888477
v 0.0228606 -0.0340429 -0.0885236
v 0.0175094 -0.0369624 -0.0875514
v 0.0150777 -0.0379383 -0.0885236
v 0.0175094 -0.0350187 -0.0894982
v -0.0369624 -0.013614 -0.0894982
v -0.0379383 -0.0145898 -0.0885236
v -0.0376103 -0.0162056 -0.0881996
v -0.0369624 -0.0175094 -0.0875514
v -0.0337229 -0.0239884 -0.0784724
v -0.0226926 -0.0343708 -0.0771761
v -0.0229885 -0.0121982 -0.066506
v -0.0223726 -0.0340429 -0.0763659
v -0.0191011 -0.0180373 -0.066506
v 0.0252922 -0.0313713 -0.0763659
v 0.0233405 -0.033315 -0.0763659
v 0.0223726 -0.0345308 -0.076852
v 0.013614 -0.0223486 -0.066506
v 0.0181573 -0.0363145 -0.0888477
v 0.0175094 -0.0369624 -0.0778265
v 0.013614 -0.0389061 -0.0875514
v 0.0142619 -0.0382582 -0.0888477
v 0.013614 -0.0369624 -0.0894982
v -0.0350187 -0.0175094 -0.0894982
v -0.0356666 -0.020101 -0.0881996
v -0.033075 -0.0213968 -0.0894982
v -0.0337229 -0.0239884 -0.0881996
v -0.0239884 -0.0337229 -0.0784724
v -0.0188052 -0.0363145 -0.0771761
v -0.0145898 -0.0379383 -0.0763659
v -0.0116702 -0.0233005 -0.066506
v -0.0121982 -0.0229885 -0.066506
v -0.0180373 -0.0191011 -0.066506
v 0.0194531 -0.0352587 -0.0763659
v 0.0145898 -0.0384182 -0.076852
v 0.00936659 -0.0243403 -0.066506
v 0.0155577 -0.0372024 -0.0763659
v 0.013614 -0.0389061 -0.0778265
v 0.00583112 -0.0408579 -0.0875514
v 0.00647903 -0.040202 -0.0888477
v 0.00583112 -0.0389061 -0.0894982
v -0.0327471 -0.0230205 -0.0891718
v -0.0213968 -0.033075 -0.0894982
v -0.0239884 -0.0337229 -0.0881996
v -0.0175094 -0.0369624 -0.0778265
v -0.0149098 -0.0382582 -0.0771761
v -0.013614 -0.0389061 -0.0778265
v -0.00583112 -0.0408579 -0.0778265
v -0.00680698 -0.039882 -0.0763659
v -0.00583112 -0.0252442 -0.066506
v 0.013614 -0.0382582 -0.0765279
v 0.00680698 -0.0403699 -0.076852
v 0.00388742 -0.0254682 -0.066506
v 0.00583112 -0.040202 -0.0765279
v 0.00583112 -0.0408579 -0.0778265
v -0.00583112 -0.0408579 -0.0875514
v -0.00518322 -0.040202 -0.0888477
v -0.00583112 -0.0389061 -0.0894982
v -0.0230205 -0.0327471 -0.0891718
v -0.0175094 -0.0350187 -0.0894982
v -0.0145898 -0.0379383 -0.0885236
v -0.020101 -0.0356666 -0.0881996
v -0.0175094 -0.0369624 -0.0875514
v -0.013614 -0.0389061 -0.0875514
v -0.00583112 -0.040202 -0.0765279
v -0.00442333 -0.0254682 -0.066506
v -0.012966 -0.0382582 -0.0888477
v -0.013614 -0.0369624 -0.0894982
v -0.0162056 -0.0376103 -0.0881996
f 1 2 3
f 1 3 4
f 1 4 14
f 1 14 5
f 1 5 19
f 1 19 6
f 1 6 9
f 1 9 2
f 2 7 8
f 2 8 3
f 2 9 22
f 2 22 7
f 3 10 11
f 3 11 4
f 3 8 10
f 4 11 12
f 4 12 26
f 4 26 13
f 4 13 29
f 4 29 14
f 5 14 15
f 5 15 16
f 5 16 17
f 5 17 18
f 5 18 19
f 6 19 42
f 6 42 20
f 6 20 21
f 6 21 9
f 7 22 25
f 7 25 49
f 7 49 48
f 7 48 47
f 7 47 46
f 7 46 65
f 7 65 81
f 7 81 101
f 7 101 121
f 7 121 136
f 7 136 153
f 7 153 170
f 7 170 185
f 7 185 202
f 7 202 204
f 7 204 223
f 7 223 222
f 7 222 221
f 7 221 240
f 7 240 256
f 7 256 243
f 7 243 226
f 7 226 208
f 7 208 189
f 7 189 173
f 7 173 159
f 7 159 158
f 7 158 157
f 7 157 156
f 7 156 140
f 7 140 138
f 7 138 122
f 7 122 102
f 7 102 82
f 7 82 66
f 7 66 52
f 7 52 50
f 7 50 23
f 7 23 8
f 8 23 27
f 8 27 24
f 8 24 10
f 9 21 25
f 9 25 22
f 10 24 11
f 11 26 12
f 11 24 27
f 11 27 28
f 11 28 26
f 13 26 28
f 13 28 54
f 13 54 34
f 13 34 33
f 13 33 29
f 14 29 33
f 14 33 30
f 14 30 15
f 15 31 32
f 15 32 37
f 15 37 16
f 15 30 33
f 15 33 34
f 15 34 35
f 15 35 36
f 15 36 31
f 16 37 38
f 16 38 39
f 16 39 17
f 17 39 18
f 18 39 40
f 18 40 41
f 18 41 42
f 18 42 19
f 20 42 60
f 20 60 43
f 20 43 44
f 20 44 21
f 21 44 45
f 21 45 46
f 21 46 47
f 21 47 48
f 21 48 49
f 21 49 25
f 23 50 51
f 23 51 27
f 27 51 28
f 28 51 52
f 28 52 53
f 28 53 71
f 28 71 54
f 31 36 57
f 31 57 74
f 31 74 94
f 31 94 110
f 31 110 109
f 31 109 128
f 31 128 146
f 31 146 163
f 31 163 176
f 31 176 195
f 31 195 213
f 31 213 231
f 31 231 248
f 31 248 258
f 31 258 250
f 31 250 233
f 31 233 216
f 31 216 214
f 31 214 196
f 31 196 177
f 31 177 164
f 31 164 147
f 31 147 129
f 31 129 111
f 31 111 95
f 31 95 75
f 31 75 58
f 31 58 38
f 31 38 37
f 31 37 32
f 34 54 71
f 34 71 55
f 34 55 56
f 34 56 35
f 35 56 57
f 35 57 36
f 38 58 40
f 38 40 39
f 40 58 59
f 40 59 41
f 41 60 42
f 41 59 61
f 41 61 62
f 41 62 60
f 43 60 62
f 43 62 77
f 43 77 63
f 43 63 44
f 44 63 64
f 44 64 45
f 45 64 46
f 46 64 65
f 50 52 51
f 52 66 67
f 52 67 53
f 53 67 68
f 53 68 69
f 53 69 70
f 53 70 88
f 53 88 89
f 53 89 72
f 53 72 55
f 53 55 71
f 55 72 73
f 55 73 56
f 56 73 57
f 57 73 74
f 58 75 61
f 58 61 59
f 61 75 95
f 61 95 76
f 61 76 62
f 62 76 77
f 63 77 97
f 63 97 78
f 63 78 100
f 63 100 79
f 63 79 80
f 63 80 64
f 64 80 79
f 64 79 65
f 65 79 81
f 66 82 67
f 67 82 68
f 68 83 69
f 68 82 102
f 68 102 83
f 69 84 85
f 69 85 86
f 69 86 87
f 69 87 70
f 69 83 84
f 70 87 86
f 70 86 88
f 72 89 91
f 72 91 90
f 72 90 73
f 73 90 91
f 73 91 92
f 73 92 93
f 73 93 110
f 73 110 94
f 73 94 74
f 76 96 77
f 76 95 96
f 77 96 112
f 77 112 97
f 78 97 116
f 78 116 117
f 78 117 98
f 78 98 99
f 78 99 100
f 79 100 81
f 81 100 99
f 81 99 101
f 83 102 84
f 84 102 85
f 85 102 103
f 85 103 104
f 85 104 86
f 86 104 92
f 86 92 91
f 86 91 89
f 86 89 88
f 92 104 124
f 92 124 105
f 92 105 106
f 92 106 107
f 92 107 93
f 93 107 108
f 93 108 109
f 93 109 110
f 95 111 112
f 95 112 96
f 97 112 113
f 97 113 114
f 97 114 115
f 97 115 116
f 98 117 118
f 98 118 119
f 98 119 99
f 99 119 101
f 101 119 120
f 101 120 121
f 102 122 103
f 103 123 124
f 103 124 104
f 103 122 138
f 103 138 123
f 105 124 141
f 105 141 125
f 105 125 126
f 105 126 106
f 106 108 107
f 106 126 127
f 106 127 108
f 108 127 128
f 108 128 109
f 111 129 130
f 111 130 114
f 111 114 112
f 112 114 113
f 114 130 115
f 115 130 131
f 115 131 132
f 115 132 116
f 116 132 133
f 116 133 117
f 117 133 118
f 118 133 150
f 118 150 134
f 118 134 135
f 118 135 121
f 118 121 120
f 118 120 119
f 121 135 137
f 121 137 136
f 123 139 124
f 123 138 140
f 123 140 139
f 124 139 141
f 125 141 160
f 125 160 142
f 125 142 126
f 126 143 127
f 126 142 144
f 126 144 145
f 126 145 143
f 127 143 128
f 128 143 145
f 128 145 146
f 129 147 131
f 129 131 130
f 131 147 164
f 131 164 148
f 131 148 149
f 131 149 132
f 132 149 150
f 132 150 133
f 134 150 151
f 134 151 152
f 134 152 137
f 134 137 135
f 136 137 152
f 136 152 153
f 139 154 155
f 139 155 141
f 139 140 156
f 139 156 157
f 139 157 158
f 139 158 159
f 139 159 154
f 141 155 160
f 142 160 172
f 142 172 161
f 142 161 144
f 144 161 162
f 144 162 145
f 145 162 163
f 145 163 146
f 148 164 177
f 148 177 165
f 148 165 166
f 148 166 149
f 149 166 151
f 149 151 150
f 151 167 168
f 151 168 169
f 151 169 152
f 151 166 179
f 151 179 167
f 152 169 153
f 153 169 170
f 154 171 155
f 154 159 171
f 155 171 172
f 155 172 160
f 159 173 171
f 161 174 162
f 161 172 188
f 161 188 175
f 161 175 190
f 161 190 174
f 162 174 163
f 163 174 190
f 163 190 176
f 165 177 196
f 165 196 178
f 165 178 166
f 166 178 179
f 167 180 182
f 167 182 181
f 167 181 168
f 167 179 199
f 167 199 180
f 168 181 182
f 168 182 183
f 168 183 184
f 168 184 185
f 168 185 170
f 168 170 169
f 171 186 187
f 171 187 172
f 171 173 186
f 172 187 186
f 172 186 205
f 172 205 188
f 173 189 186
f 175 191 192
f 175 192 190
f 175 188 207
f 175 207 210
f 175 210 193
f 175 193 194
f 175 194 191
f 176 190 191
f 176 191 209
f 176 209 195
f 178 196 197
f 178 197 179
f 179 197 198
f 179 198 215
f 179 215 199
f 180 199 215
f 180 215 217
f 180 217 200
f 180 200 183
f 180 183 182
f 183 200 218
f 183 218 201
f 183 201 203
f 183 203 184
f 184 202 185
f 184 203 223
f 184 223 204
f 184 204 202
f 186 189 205
f 188 205 206
f 188 206 207
f 189 208 206
f 189 206 205
f 190 192 191
f 191 194 209
f 193 210 228
f 193 228 211
f 193 211 194
f 194 211 212
f 194 212 209
f 195 209 212
f 195 212 213
f 196 214 197
f 197 215 198
f 197 214 216
f 197 216 217
f 197 217 215
f 200 217 234
f 200 234 218
f 201 219 220
f 201 220 203
f 201 218 234
f 201 234 252
f 201 252 253
f 201 253 235
f 201 235 219
f 203 220 221
f 203 221 222
f 203 222 223
f 206 208 224
f 206 224 207
f 207 224 225
f 207 225 210
f 208 226 227
f 208 227 224
f 210 225 228
f 211 228 245
f 211 245 229
f 211 229 212
f 212 229 230
f 212 230 231
f 212 231 213
f 216 232 217
f 216 233 249
f 216 249 232
f 217 232 249
f 217 249 234
f 219 235 237
f 219 237 236
f 219 236 220
f 220 236 237
f 220 237 238
f 220 238 239
f 220 239 240
f 220 240 221
f 224 227 225
f 225 227 226
f 225 226 241
f 225 241 242
f 225 242 245
f 225 245 228
f 226 243 244
f 226 244 241
f 229 245 238
f 229 238 246
f 229 246 247
f 229 247 230
f 230 247 248
f 230 248 231
f 233 234 249
f 233 250 251
f 233 251 234
f 234 251 252
f 235 253 254
f 235 254 237
f 237 254 246
f 237 246 238
f 238 245 242
f 238 242 255
f 238 255 239
f 239 255 256
f 239 256 240
f 241 244 242
f 242 244 255
f 243 256 255
f 243 255 244
f 246 254 257
f 246 257 247
f 247 257 258
f 247 258 248
f 250 258 251
f 251 258 257
f 251 257 254
f 251 254 259
f 251 259 252
f 252 259 254
f 252 254 253
