o piece_000
v 0.0194561 0.00388894 0.0797593
v 0.0181573 0.00648283 0.0804163
v 0.0181573 0.00453646 0.0823615
v 0.0194561 -0.00388894 0.0797593
v 0.0194561 0.00583531 0.0719786
v 0.0175097 0.00972806 0.0758689
v 0.0162109 0.012322 0.0765259
v 0.0165347 0.0106993 0.0787932
v 0.0162109 0.0103756 0.0804163
v 0.0162109 0.00842921 0.0823615
v 0.0158871 0.0042127 0.0839846
v 0.0162109 0.0025939 0.0843067
v 0.0181573 -0.00324142 0.0823615
v 0.0188048 -0.00453646 0.0810604
v 0.018481 -0.00534777 0.0807384
v 0.0149159 -0.012322 0.0810604
v 0.0149159 -0.0129695 0.0797593
v 0.0194561 -0.00583531 0.0719786
v 0.0194561 0.00583531 0.0680882
v 0.0175097 0.00972806 0.0603074
v 0.0162109 0.012322 0.0609515
v 0.0142645 0.0142645 0.0804163
v 0.0145921 0.0106993 0.0826835
v 0.0139408 0.00810545 0.0839846
v 0.0119944 0.00615907 0.0859298
v 0.012322 0.00453646 0.0862519
v 0.00583531 0 0.0894982
v 0.0162109 -0.00129504 0.0843067
v 0.0168584 -0.00453646 0.0830056
v 0.0165347 -0.00632286 0.0826835
v 0.0149159 -0.0025939 0.0849508
v 0.0145921 -0.0102118 0.0826835
v 0.013617 -0.0138608 0.0812279
v 0.0145921 -0.0131295 0.0807384
v 0.0142645 -0.0142645 0.0797593
v 0.0181573 -0.00842921 0.0719786
v 0.0194561 -0.00583531 0.0700334
v 0.0194561 0.00388894 -0.0421049
v 0.0168584 0.0110231 0.0596633
v 0.0142645 0.0142645 -0.0421049
v 0.0129695 0.0149159 0.0791152
v 0.0103756 0.0162109 0.0804163
v 0.00842921 0.0162109 0.0823615
v 0.0106993 0.0145921 0.0826835
v 0.012322 0.0103756 0.0843067
v 0.0106993 0.0068066 0.0865739
v 0.00972806 0.00388894 0.0875401
v 0.00388894 0.00388894 0.0894982
v 0.00388894 -0.00388894 0.0894982
v 0.00972806 -0.00388894 0.0875401
v 0.0110231 -0.00453646 0.086896
v 0.012322 -0.00324142 0.0862519
v 0.0145921 -0.00437648 0.0846287
v 0.0106993 -0.00632286 0.0865739
v 0.0110231 -0.0103756 0.0849508
v 0.0106993 -0.0141045 0.0826835
v 0.0126457 -0.0150758 0.0807384
v 0.0106993 -0.0111869 0.0846287
v 0.0116706 -0.0162909 0.0797593
v 0.012322 -0.0162109 0.0778141
v 0.0142645 -0.0142645 -0.0421049
v 0.0181573 -0.00842921 0.0700334
v 0.0189686 -0.0068066 0.0690672
v 0.0194561 -0.00388894 -0.0421049
v 0.0149159 0.0129695 -0.0421049
v 0.0129695 0.0149159 -0.0421049
v 0.00778169 0.0175097 0.0797593
v 0.00648283 0.0181573 0.0804163
v 0.00453646 0.0181573 0.0823615
v 0.00810545 0.0139408 0.0839846
v 0.0103756 0.012322 0.0843067
v 0.0068066 0.0106993 0.0865739
v 0 0.00583531 0.0894982
v 0.00388894 0.00972806 0.0875401
v 0 -0.00583531 0.0894982
v 0.00388894 -0.00972806 0.0875401
v 0.00583531 -0.00996802 0.0870634
v 0.00778169 -0.00802546 0.0870634
v 0.00972806 -0.00607909 0.0870634
v 0.00778169 -0.0162109 0.0823615
v 0.00972806 -0.012322 0.0843067
v 0.0106993 -0.0160509 0.0807384
v 0.00486403 -0.0189686 0.0807384
v 0.0106993 -0.0170222 0.0787932
v 0.00972806 -0.0175097 0.0778141
v 0.012322 -0.0162109 0.0739237
v 0.0134342 -0.0146835 -0.0421049
v 0.0149159 -0.0129695 -0.0421049
v 0.00388894 0.0194561 -0.0421049
v 0.00388894 0.0194561 0.0797593
v -0.00324142 0.0181573 0.0823615
v 0.0025939 0.0162109 0.0843067
v 0.0042127 0.0158871 0.0839846
v 0.00615907 0.0119944 0.0859298
v 0.00453646 0.012322 0.0862519
v -0.00453646 0.0110231 0.086896
v -0.00388894 0.00972806 0.0875401
v -0.00388894 0.00388894 0.0894982
v -0.00129504 0.0162109 0.0843067
v -0.00324142 0.012322 0.0862519
v -0.00388894 -0.00388894 0.0894982
v -0.00486403 -0.0106993 0.0870634
v -0.00291766 -0.0145921 0.0851182
v 0.00388894 -0.012322 0.0862519
v 0.00388894 -0.0181573 0.0823615
v -0.00388894 -0.0194561 0.0797593
v 0.00388894 -0.0194561 0.0797593
v -0.00388894 -0.0181573 0.0823615
v 0.00972806 -0.0175097 0.0739237
v 0.00388894 -0.0194561 -0.0421049
v -0.00388894 0.0194561 -0.0421049
v -0.00388894 0.0194561 0.0797593
v -0.00453646 0.0188048 0.0810604
v -0.00632286 0.0165347 0.0826835
v -0.00453646 0.0168584 0.0830056
v -0.0025939 0.0149159 0.0849508
v -0.00607909 0.00972806 0.0870634
v -0.00632286 0.0106993 0.0865739
v -0.00583531 0 0.0894982
v -0.00802546 0.00778169 0.0870634
v -0.00996802 0.00583531 0.0870634
v -0.00972806 0.00388894 0.0875401
v -0.0106993 -0.00486403 0.0870634
v -0.00486403 -0.00486403 0.0890086
v -0.0106993 -0.0106993 0.0851182
v -0.00583531 -0.0116706 0.0863292
v -0.00388894 -0.0155634 0.084384
v -0.00194256 -0.0162109 0.0843067
v 0.00194256 -0.0162109 0.0843067
v -0.00486403 -0.018481 0.0812279
v -0.00518779 -0.0188048 0.0804163
v -0.00972806 -0.0175097 0.0758689
v -0.00388894 -0.0194561 -0.0421049
v -0.00778169 -0.0162109 0.0823615
v -0.0126457 -0.0145921 0.0812279
v -0.0129695 0.0149159 -0.0421049
v -0.0068066 0.0189686 0.0612865
v -0.00583531 0.0194561 0.0622526
v -0.00972806 0.0175097 0.0778141
v -0.00996802 0.0170222 0.0797593
v -0.00583531 0.0194561 0.066143
v -0.0102118 0.0165347 0.0807384
v -0.0102118 0.0145921 0.0826835
v -0.00437648 0.0145921 0.0846287
v -0.0103756 0.0110231 0.0849508
v -0.012322 0.00388894 0.0862519
v -0.0145921 -0.00291766 0.0851182
v -0.0111869 0.0106993 0.0846287
v -0.012322 0.00972806 0.0843067
v -0.0116706 -0.00583531 0.0863292
v -0.00778169 -0.013617 0.084384
v -0.013617 -0.00778169 0.084384
v -0.0145921 -0.00875297 0.0831731
v -0.0145921 -0.0126457 0.0812279
v -0.00875297 -0.0145921 0.0831731
v -0.0129695 -0.0149159 0.0804163
v -0.0110231 -0.0168584 0.0765259
v -0.012322 -0.0162109 0.0752248
v -0.00972806 -0.0175097 0.0680882
v -0.0130685 -0.0148663 -0.0421049
v -0.012322 -0.0162109 0.0674441
v -0.0142645 0.0142645 -0.0421049
v -0.00842921 0.0181573 0.0622526
v -0.00972806 0.0175097 0.0719786
v -0.012322 0.0162109 0.0778141
v -0.0142645 0.0142645 0.0797593
v -0.0131295 0.0145921 0.0807384
v -0.012322 0.0149159 0.0810604
v -0.0138608 0.013617 0.0812279
v -0.0181573 0.00388894 0.0823615
v -0.0162109 0.00194256 0.0843067
v -0.0162109 -0.00194256 0.0843067
v -0.0155634 -0.00388894 0.084384
v -0.0141045 0.0106993 0.0826835
v -0.0162109 0.00778169 0.0823615
v -0.0162109 -0.00778169 0.0823615
v -0.0181573 -0.00388894 0.0823615
v -0.018481 -0.00486403 0.0812279
v -0.0149159 -0.0129695 0.0804163
v -0.0142645 -0.0142645 0.0791152
v -0.0162109 -0.012322 0.0752248
v -0.0142645 -0.0142645 -0.0421049
v -0.0162109 -0.012322 0.0674441
v -0.0146835 0.0134342 -0.0421049
v -0.012322 0.0162109 0.0719786
v -0.0149159 0.0129695 0.0797593
v -0.0150758 0.0126457 0.0807384
v -0.0189686 0.00486403 0.0807384
v -0.0194561 -0.00388894 0.0797593
v -0.0188048 -0.00518779 0.0804163
v -0.0168584 -0.0110231 0.0765259
v -0.0175097 -0.00972806 0.0758689
v -0.0148663 -0.0130685 -0.0421049
v -0.0175097 -0.00972806 0.0680882
v -0.0194561 -0.00388894 -0.0421049
v -0.0194561 0.00388894 -0.0421049
v -0.0194561 0.00388894 0.0797593
v -0.0194561 -0.00583531 0.0739237
v -0.0194561 -0.00583531 0.0719786
f 1 2 3
f 1 3 13
f 1 13 4
f 1 4 18
f 1 18 37
f 1 37 64
f 1 64 38
f 1 38 19
f 1 19 5
f 1 5 6
f 1 6 7
f 1 7 2
f 2 7 8
f 2 8 9
f 2 9 10
f 2 10 3
f 3 10 24
f 3 24 11
f 3 11 12
f 3 12 28
f 3 28 13
f 4 13 14
f 4 14 15
f 4 15 16
f 4 16 17
f 4 17 18
f 5 19 20
f 5 20 6
f 6 20 21
f 6 21 7
f 7 21 40
f 7 40 22
f 7 22 8
f 8 22 9
f 9 22 10
f 10 23 45
f 10 45 24
f 10 22 23
f 11 24 25
f 11 25 26
f 11 26 12
f 12 26 27
f 12 27 28
f 13 29 30
f 13 30 14
f 13 28 31
f 13 31 29
f 14 30 32
f 14 32 16
f 14 16 15
f 16 32 33
f 16 33 34
f 16 34 17
f 17 34 35
f 17 35 36
f 17 36 18
f 18 36 62
f 18 62 37
f 19 38 20
f 20 39 21
f 20 38 39
f 21 39 40
f 22 41 42
f 22 42 43
f 22 43 44
f 22 44 23
f 22 40 66
f 22 66 41
f 23 44 71
f 23 71 45
f 24 45 25
f 25 45 46
f 25 46 26
f 26 46 47
f 26 47 27
f 27 47 48
f 27 48 73
f 27 73 98
f 27 98 119
f 27 119 101
f 27 101 75
f 27 75 49
f 27 49 50
f 27 50 51
f 27 51 52
f 27 52 28
f 28 52 31
f 29 31 30
f 30 31 53
f 30 53 32
f 31 52 51
f 31 51 54
f 31 54 53
f 32 53 54
f 32 54 55
f 32 55 33
f 33 56 57
f 33 57 35
f 33 35 34
f 33 55 58
f 33 58 56
f 35 57 59
f 35 59 60
f 35 60 86
f 35 86 61
f 35 61 62
f 35 62 36
f 37 62 63
f 37 63 64
f 38 64 88
f 38 88 61
f 38 61 87
f 38 87 110
f 38 110 133
f 38 133 160
f 38 160 182
f 38 182 193
f 38 193 195
f 38 195 196
f 38 196 184
f 38 184 162
f 38 162 136
f 38 136 111
f 38 111 89
f 38 89 66
f 38 66 40
f 38 40 65
f 38 65 39
f 39 65 40
f 41 67 42
f 41 66 89
f 41 89 90
f 41 90 67
f 42 67 90
f 42 90 68
f 42 68 69
f 42 69 43
f 43 69 93
f 43 93 70
f 43 70 71
f 43 71 44
f 45 71 72
f 45 72 46
f 46 72 48
f 46 48 47
f 48 72 74
f 48 74 73
f 49 75 76
f 49 76 77
f 49 77 78
f 49 78 79
f 49 79 50
f 50 79 51
f 51 79 54
f 54 79 55
f 55 79 78
f 55 78 77
f 55 77 58
f 56 80 57
f 56 58 81
f 56 81 80
f 57 82 59
f 57 80 82
f 58 77 81
f 59 82 83
f 59 83 84
f 59 84 60
f 60 84 85
f 60 85 109
f 60 109 86
f 61 88 63
f 61 63 62
f 61 86 87
f 63 88 64
f 68 90 69
f 69 91 99
f 69 99 92
f 69 92 93
f 69 90 112
f 69 112 91
f 70 93 94
f 70 94 71
f 71 94 72
f 72 94 95
f 72 95 74
f 73 96 97
f 73 97 98
f 73 74 95
f 73 95 92
f 73 92 99
f 73 99 100
f 73 100 96
f 75 101 102
f 75 102 103
f 75 103 104
f 75 104 76
f 76 104 77
f 77 104 81
f 80 105 83
f 80 83 82
f 80 81 105
f 81 104 105
f 83 106 107
f 83 107 85
f 83 85 84
f 83 105 108
f 83 108 106
f 85 107 110
f 85 110 109
f 86 109 87
f 87 109 110
f 89 111 138
f 89 138 141
f 89 141 112
f 89 112 90
f 91 112 113
f 91 113 114
f 91 114 115
f 91 115 116
f 91 116 99
f 92 95 93
f 93 95 94
f 96 117 97
f 96 100 116
f 96 116 118
f 96 118 117
f 97 117 98
f 98 117 120
f 98 120 121
f 98 121 122
f 98 122 119
f 99 116 100
f 101 119 123
f 101 123 124
f 101 124 102
f 102 124 123
f 102 123 125
f 102 125 126
f 102 126 127
f 102 127 103
f 103 127 128
f 103 128 129
f 103 129 104
f 104 129 105
f 105 129 128
f 105 128 108
f 106 108 130
f 106 130 131
f 106 131 132
f 106 132 159
f 106 159 133
f 106 133 110
f 106 110 107
f 108 134 135
f 108 135 130
f 108 128 127
f 108 127 151
f 108 151 134
f 111 136 137
f 111 137 138
f 112 139 140
f 112 140 113
f 112 141 139
f 113 140 142
f 113 142 114
f 114 142 143
f 114 143 144
f 114 144 116
f 114 116 115
f 116 144 118
f 117 118 145
f 117 145 120
f 118 144 143
f 118 143 145
f 119 122 146
f 119 146 147
f 119 147 123
f 120 145 121
f 121 145 148
f 121 148 149
f 121 149 146
f 121 146 122
f 123 147 173
f 123 173 150
f 123 150 125
f 125 151 126
f 125 150 152
f 125 152 153
f 125 153 154
f 125 154 135
f 125 135 155
f 125 155 151
f 126 151 127
f 130 135 156
f 130 156 131
f 131 156 157
f 131 157 132
f 132 157 158
f 132 158 161
f 132 161 159
f 133 159 161
f 133 161 160
f 134 151 155
f 134 155 135
f 135 154 179
f 135 179 156
f 136 162 137
f 137 163 138
f 137 162 163
f 138 163 185
f 138 185 164
f 138 164 139
f 138 139 141
f 139 165 140
f 139 164 185
f 139 185 165
f 140 165 142
f 142 165 166
f 142 166 167
f 142 167 168
f 142 168 143
f 143 168 169
f 143 169 145
f 145 169 148
f 146 149 170
f 146 170 171
f 146 171 147
f 147 171 172
f 147 172 173
f 148 169 174
f 148 174 149
f 149 174 175
f 149 175 170
f 150 173 152
f 152 173 177
f 152 177 176
f 152 176 153
f 153 176 154
f 154 176 177
f 154 177 178
f 154 178 190
f 154 190 179
f 156 179 180
f 156 180 158
f 156 158 157
f 158 181 183
f 158 183 161
f 158 180 181
f 160 161 182
f 161 183 182
f 162 184 166
f 162 166 165
f 162 165 185
f 162 185 163
f 166 186 187
f 166 187 169
f 166 169 167
f 166 184 186
f 167 169 168
f 169 187 174
f 170 175 188
f 170 188 177
f 170 177 172
f 170 172 171
f 172 177 173
f 174 187 175
f 175 187 188
f 177 188 189
f 177 189 178
f 178 189 190
f 179 190 191
f 179 191 181
f 179 181 180
f 181 191 192
f 181 192 194
f 181 194 183
f 182 183 193
f 183 194 195
f 183 195 193
f 184 196 197
f 184 197 188
f 184 188 186
f 186 188 187
f 188 197 189
f 189 197 196
f 189 196 195
f 189 195 199
f 189 199 198
f 189 198 192
f 189 192 190
f 190 192 191
f 192 198 199
f 192 199 194
f 194 199 195
