o piece_001
v 0.00778016 0.0272386 -0.0466957
v 0.00712959 0.026588 -0.0453987
v 0.0103718 0.0259374 -0.0460484
v 0.0181573 0.02205 -0.0460484
v 0.00778016 0.0272386 -0.054475
v -0.00778016 0.0272386 -0.0466957
v 0.00778016 0.0252922 -0.0447514
v 0.00940125 0.0249669 -0.0450739
v -0.00843073 0.026588 -0.0453987
v 0.02205 0.0181573 -0.0460484
v 0.0181573 0.02205 -0.0538301
v 0.013294 0.0230205 -0.0450739
v 0.0171814 0.0210742 -0.0450739
v 0.0116729 0.0252922 -0.054475
v 0.00907597 0.026588 -0.0551247
v 0.0103878 0.0240071 -0.066506
v 0.00406872 0.0254682 -0.066506
v -0.00778016 0.0272386 -0.054475
v -0.0181573 0.02205 -0.0466957
v 0.00388742 0.0194531 -0.0421073
v 0.00458598 0.0191065 -0.0421073
v 0.0116729 0.0233458 -0.0447514
v -0.00778016 0.0252922 -0.0447514
v -0.0162109 0.0226953 -0.0453987
v -0.0116729 0.0233458 -0.0447514
v 0.02205 0.0181573 -0.0538301
v 0.0210742 0.0171814 -0.0450739
v 0.0230205 0.013294 -0.0450739
v 0.0249669 0.00940125 -0.0450739
v 0.026588 0.00712959 -0.0453987
v 0.0259374 0.0103718 -0.0460484
v 0.0272386 0.00778016 -0.0466957
v 0.0184826 0.0184826 -0.066506
v 0.0164135 0.0203009 -0.066506
v 0.0142805 0.0220607 -0.066506
v 0.0168615 0.0226953 -0.0551247
v 0.0155603 0.0213994 -0.0447514
v 0.0142645 0.0142645 -0.0421073
v -0.00424469 0.0254682 -0.066506
v -0.00583379 0.0251162 -0.066506
v -0.00634571 0.0249829 -0.066506
v -0.00736423 0.0247163 -0.066506
v -0.00813744 0.0244976 -0.066506
v -0.00875068 0.026748 -0.0554496
v -0.0165362 0.0228606 -0.0554496
v -0.017752 0.0213994 -0.0452363
v -0.0170214 0.02237 -0.0457235
v -0.0181573 0.02205 -0.054475
v -0.02205 0.0181573 -0.0466957
v -0.00388742 0.0194531 -0.0421073
v 0.0129687 0.0149151 -0.0421073
v -0.00648436 0.0181573 -0.0421073
v -0.0155603 0.0213994 -0.0447514
v -0.0138006 0.0144992 -0.0421073
v 0.0220607 0.0142805 -0.066506
v 0.0203009 0.0164135 -0.066506
v 0.0252922 0.0116729 -0.054475
v 0.0226953 0.0168615 -0.0551247
v 0.0213994 0.0155603 -0.0447514
v 0.0233458 0.0116729 -0.0447514
v 0.0252922 0.00778016 -0.0447514
v 0.026588 -0.00843073 -0.0453987
v 0.0272386 -0.00778016 -0.0466957
v 0.0272386 0.00778016 -0.054475
v 0.0149151 0.0129687 -0.0421073
v -0.00890533 0.0242737 -0.066506
v -0.00974787 0.0240071 -0.066506
v -0.0122275 0.0229459 -0.066506
v -0.0136406 0.0220607 -0.066506
v -0.0216447 0.0175067 -0.0452363
v -0.0142645 0.0142645 -0.0421073
v -0.0180613 0.0190585 -0.066506
v -0.02205 0.0181573 -0.054475
v -0.0228606 0.0165362 -0.0457235
v 0.0240071 0.0103878 -0.066506
v 0.026588 0.00907597 -0.0551247
v 0.0191065 0.00458598 -0.0421073
v 0.0194531 0.00388742 -0.0421073
v 0.0252922 -0.00778016 -0.0447514
v 0.0233458 -0.0116729 -0.0447514
v 0.0226953 -0.0162109 -0.0453987
v 0.02205 -0.0181573 -0.0466957
v 0.0272386 -0.00778016 -0.054475
v 0.0254682 0.00406872 -0.066506
v -0.0255322 0.00972654 -0.0452363
v -0.0252922 0.00778016 -0.0447514
v -0.0233458 0.0116729 -0.0447514
v -0.0213994 0.0155603 -0.0447514
v -0.0149151 0.0129687 -0.0421073
v -0.0223486 0.0136193 -0.066506
v -0.0272386 0.00778016 -0.054475
v -0.0272386 0.00778016 -0.0466957
v -0.026748 0.00875068 -0.0457235
v 0.0194531 -0.00388742 -0.0421073
v 0.0181573 -0.00648436 -0.0421073
v 0.0213994 -0.0155603 -0.0447514
v 0.0144992 -0.0138006 -0.0421073
v 0.0213994 -0.017752 -0.0452363
v 0.02237 -0.0170214 -0.0457235
v 0.02205 -0.0181573 -0.054475
v 0.0181573 -0.02205 -0.0466957
v 0.026748 -0.00875068 -0.0554496
v 0.0244976 -0.00813744 -0.066506
v 0.0247163 -0.00736423 -0.066506
v 0.0249829 -0.00634571 -0.066506
v 0.0251162 -0.00583379 -0.066506
v 0.0254682 -0.00424469 -0.066506
v 0.0228606 -0.0165362 -0.0554496
v -0.026588 0.00778016 -0.0453987
v -0.0252922 -0.00778016 -0.0447514
v -0.0194531 0.00388742 -0.0421073
v -0.0185732 0.00565248 -0.0421073
v -0.024343 0.00936926 -0.066506
v -0.0254682 0.00388742 -0.066506
v -0.0272386 -0.00778016 -0.054475
v -0.0272386 -0.00778016 -0.0466957
v 0.0142645 -0.0142645 -0.0421073
v 0.0175067 -0.0216447 -0.0452363
v 0.0181573 -0.02205 -0.054475
v 0.0190585 -0.0180613 -0.066506
v 0.0220607 -0.0136406 -0.066506
v 0.0165362 -0.0228606 -0.0457235
v 0.0229459 -0.0122275 -0.066506
v 0.0240071 -0.00974787 -0.066506
v 0.0242737 -0.00890533 -0.066506
v -0.026588 -0.00778016 -0.0453987
v -0.0262627 -0.00875068 -0.0452363
v -0.0194531 -0.00388742 -0.0421073
v -0.0254682 -0.00442067 -0.066506
v -0.0252442 -0.00583379 -0.066506
v -0.0232978 -0.0116729 -0.066506
v -0.0259374 -0.0103718 -0.0551247
v -0.02205 -0.0181573 -0.0551247
v -0.026588 -0.00907597 -0.0460484
v -0.0252922 -0.0116729 -0.0466957
v 0.0155603 -0.0213994 -0.0447514
v 0.0129687 -0.0149151 -0.0421073
v 0.0116729 -0.0233458 -0.0447514
v 0.00778016 -0.0252922 -0.0447514
v 0.00972654 -0.0255322 -0.0452363
v 0.00778016 -0.0272386 -0.054475
v 0.0136193 -0.0223486 -0.066506
v 0.00875068 -0.026748 -0.0457235
v 0.00778016 -0.0272386 -0.0466957
v -0.02237 -0.0165362 -0.0452363
v -0.0181573 -0.00648436 -0.0421073
v -0.0229939 -0.0122008 -0.066506
v -0.0191011 -0.01804 -0.066506
v -0.0181573 -0.02205 -0.0551247
v -0.02205 -0.0181573 -0.0473453
v -0.0226953 -0.0168615 -0.0460484
v 0.00565248 -0.0185732 -0.0421073
v 0.00778016 -0.026588 -0.0453987
v 0.00388742 -0.0194531 -0.0421073
v -0.00778016 -0.0252922 -0.0447514
v 0.00388742 -0.0254682 -0.066506
v 0.00936926 -0.024343 -0.066506
v -0.00778016 -0.0272386 -0.054475
v -0.00778016 -0.0272386 -0.0466957
v -0.0204289 -0.0184826 -0.0452363
v -0.0142645 -0.0142645 -0.0421073
v -0.0149151 -0.0129687 -0.0421073
v -0.01804 -0.0191011 -0.066506
v -0.0181573 -0.02205 -0.0473453
v -0.0122008 -0.0229939 -0.066506
v -0.0116729 -0.0232978 -0.066506
v -0.0103718 -0.0259374 -0.0551247
v -0.0168615 -0.0226953 -0.0460484
v -0.00778016 -0.026588 -0.0453987
v -0.00388742 -0.0194531 -0.0421073
v -0.00875068 -0.0262627 -0.0452363
v -0.00442067 -0.0254682 -0.066506
v -0.00583379 -0.0252442 -0.066506
v -0.00907597 -0.026588 -0.0460484
v -0.0116729 -0.0252922 -0.0466957
v -0.0184826 -0.0204289 -0.0452363
v -0.0165362 -0.02237 -0.0452363
v -0.0129687 -0.0149151 -0.0421073
v -0.00648436 -0.0181573 -0.0421073
f 1 2 3
f 1 3 4
f 1 4 11
f 1 11 14
f 1 14 5
f 1 5 18
f 1 18 6
f 1 6 9
f 1 9 2
f 2 7 8
f 2 8 4
f 2 4 3
f 2 9 23
f 2 23 7
f 4 10 26
f 4 26 11
f 4 8 12
f 4 12 13
f 4 13 27
f 4 27 10
f 5 14 36
f 5 36 15
f 5 15 16
f 5 16 17
f 5 17 39
f 5 39 18
f 6 18 45
f 6 45 48
f 6 48 19
f 6 19 9
f 7 20 21
f 7 21 51
f 7 51 22
f 7 22 12
f 7 12 8
f 7 23 50
f 7 50 20
f 9 19 24
f 9 24 25
f 9 25 23
f 10 27 28
f 10 28 29
f 10 29 30
f 10 30 31
f 10 31 32
f 10 32 64
f 10 64 57
f 10 57 26
f 11 26 33
f 11 33 34
f 11 34 35
f 11 35 36
f 11 36 14
f 12 22 37
f 12 37 13
f 13 37 38
f 13 38 27
f 15 36 35
f 15 35 16
f 16 35 34
f 16 34 33
f 16 33 56
f 16 56 55
f 16 55 75
f 16 75 84
f 16 84 107
f 16 107 106
f 16 106 105
f 16 105 104
f 16 104 103
f 16 103 125
f 16 125 124
f 16 124 123
f 16 123 121
f 16 121 120
f 16 120 142
f 16 142 157
f 16 157 156
f 16 156 172
f 16 172 173
f 16 173 166
f 16 166 165
f 16 165 163
f 16 163 148
f 16 148 147
f 16 147 131
f 16 131 130
f 16 130 129
f 16 129 114
f 16 114 113
f 16 113 90
f 16 90 72
f 16 72 69
f 16 69 68
f 16 68 67
f 16 67 66
f 16 66 43
f 16 43 42
f 16 42 41
f 16 41 40
f 16 40 39
f 16 39 17
f 18 39 40
f 18 40 41
f 18 41 42
f 18 42 43
f 18 43 44
f 18 44 45
f 19 46 47
f 19 47 24
f 19 48 73
f 19 73 49
f 19 49 70
f 19 70 46
f 20 50 52
f 20 52 54
f 20 54 71
f 20 71 89
f 20 89 112
f 20 112 111
f 20 111 128
f 20 128 146
f 20 146 162
f 20 162 161
f 20 161 178
f 20 178 179
f 20 179 170
f 20 170 154
f 20 154 152
f 20 152 137
f 20 137 117
f 20 117 97
f 20 97 95
f 20 95 94
f 20 94 78
f 20 78 77
f 20 77 65
f 20 65 38
f 20 38 51
f 20 51 21
f 22 51 37
f 23 25 54
f 23 54 52
f 23 52 50
f 24 47 46
f 24 46 53
f 24 53 25
f 25 53 54
f 26 55 56
f 26 56 33
f 26 57 58
f 26 58 55
f 27 59 60
f 27 60 28
f 27 38 59
f 28 60 61
f 28 61 29
f 29 61 30
f 30 62 63
f 30 63 32
f 30 32 31
f 30 61 79
f 30 79 62
f 32 63 83
f 32 83 64
f 37 51 38
f 38 65 59
f 43 66 44
f 44 66 67
f 44 67 68
f 44 68 45
f 45 68 69
f 45 69 48
f 46 70 71
f 46 71 53
f 48 72 73
f 48 69 72
f 49 73 91
f 49 91 92
f 49 92 74
f 49 74 70
f 53 71 54
f 55 58 76
f 55 76 75
f 57 64 76
f 57 76 58
f 59 65 60
f 60 65 77
f 60 77 61
f 61 77 78
f 61 78 94
f 61 94 79
f 62 79 80
f 62 80 81
f 62 81 82
f 62 82 63
f 63 82 100
f 63 100 108
f 63 108 83
f 64 83 107
f 64 107 84
f 64 84 75
f 64 75 76
f 70 74 85
f 70 85 86
f 70 86 87
f 70 87 88
f 70 88 71
f 71 88 89
f 72 90 73
f 73 90 91
f 74 92 93
f 74 93 85
f 79 94 95
f 79 95 97
f 79 97 80
f 80 96 81
f 80 97 96
f 81 96 98
f 81 98 99
f 81 99 82
f 82 99 98
f 82 98 118
f 82 118 101
f 82 101 119
f 82 119 100
f 83 102 103
f 83 103 104
f 83 104 105
f 83 105 106
f 83 106 107
f 83 108 102
f 85 93 109
f 85 109 86
f 86 109 126
f 86 126 110
f 86 110 128
f 86 128 111
f 86 111 112
f 86 112 89
f 86 89 87
f 87 89 88
f 90 113 91
f 91 113 114
f 91 114 129
f 91 129 115
f 91 115 116
f 91 116 92
f 92 116 126
f 92 126 109
f 92 109 93
f 96 97 117
f 96 117 98
f 98 117 118
f 100 119 120
f 100 120 121
f 100 121 108
f 101 118 122
f 101 122 144
f 101 144 141
f 101 141 119
f 102 108 123
f 102 123 124
f 102 124 125
f 102 125 103
f 108 121 123
f 110 126 127
f 110 127 128
f 115 129 130
f 115 130 131
f 115 131 132
f 115 132 133
f 115 133 150
f 115 150 135
f 115 135 116
f 116 134 127
f 116 127 126
f 116 135 151
f 116 151 134
f 117 136 118
f 117 137 136
f 118 136 138
f 118 138 139
f 118 139 140
f 118 140 122
f 119 141 142
f 119 142 120
f 122 140 143
f 122 143 144
f 127 134 151
f 127 151 145
f 127 145 162
f 127 162 146
f 127 146 128
f 131 147 133
f 131 133 132
f 133 148 163
f 133 163 149
f 133 149 164
f 133 164 150
f 133 147 148
f 135 150 151
f 136 137 138
f 137 152 139
f 137 139 138
f 139 153 140
f 139 152 154
f 139 154 170
f 139 170 155
f 139 155 169
f 139 169 153
f 140 153 143
f 141 156 157
f 141 157 142
f 141 144 159
f 141 159 158
f 141 158 172
f 141 172 156
f 143 153 144
f 144 153 169
f 144 169 159
f 145 151 160
f 145 160 161
f 145 161 162
f 149 163 165
f 149 165 166
f 149 166 167
f 149 167 158
f 149 158 159
f 149 159 175
f 149 175 164
f 150 164 168
f 150 168 151
f 151 168 176
f 151 176 160
f 155 170 171
f 155 171 169
f 158 167 166
f 158 166 173
f 158 173 172
f 159 169 171
f 159 171 174
f 159 174 168
f 159 168 175
f 160 176 161
f 161 176 177
f 161 177 178
f 164 175 168
f 168 174 171
f 168 171 177
f 168 177 176
f 170 179 171
f 171 179 178
f 171 178 177
