# https://github.com/mikedh/trimesh
v -0.46275400 0.00598675 0.18280800
v -0.46275400 -0.05079600 0.18280800
v -0.46275400 0.00598675 0.13006700
v -0.51509700 0.00598675 0.22627000
v -0.51454300 0.00337194 0.22679900
v -0.49257200 -0.11426700 0.17773200
v -0.46275400 -0.08465090 0.16588900
v -0.53489900 -0.02709750 0.23695100
v -0.52474400 -0.04741050 0.22679900
v -0.53148300 -0.05418140 0.23018300
v -0.51117400 -0.07449440 0.20988000
v -0.51288200 -0.08379760 0.20818800
v -0.52303600 -0.12442400 0.19803600
v -0.46275400 -0.13807600 0.13006700
v -0.85911100 0.00598675 0.13006700
v -0.54556100 0.00598675 0.24659000
v -0.54505400 0.00337194 0.24710300
v -0.46275400 -0.13540600 0.13541600
v -0.46275400 -0.10496400 0.15572000
v -0.54163800 -0.03386850 0.24033500
v -0.53319100 -0.06348470 0.22849100
v -0.57210200 -0.07449440 0.25048700
v -0.54334600 -0.11426700 0.21834000
v -0.52303600 -0.16502200 0.16758100
v -0.54334600 -0.13458000 0.20818800
v -0.54334600 -0.20564800 0.13710800
v -0.52617500 -0.19392300 0.13006700
v -0.93171700 -0.21393300 0.13006700
v -0.93144000 0.00598675 0.25674200
v -0.56536300 0.00598675 0.25725500
v -0.57210200 0.00598675 0.26065600
v -0.55179300 -0.00339905 0.25048700
v -0.57210200 -0.01355550 0.26065600
v -0.56194700 -0.04402500 0.25048700
v -0.57381000 -0.08379760 0.24879500
v -0.59241200 -0.07449440 0.26065600
v -0.57381000 -0.13458000 0.22849100
v -0.53826800 -0.17261900 0.17265700
v -0.56365500 -0.16502200 0.19803600
v -0.56365500 -0.19549100 0.16758100
v -0.57381000 -0.22593300 0.13710800
v -0.57067100 -0.22634600 0.13006700
v -0.54020700 -0.20603300 0.13006700
v -0.93430200 -0.22535500 0.13006700
v -0.93430200 0.00598675 0.26404000
v -0.57888700 0.00598675 0.26404000
v -0.59919700 -0.00001356 0.27419100
v -0.59241200 -0.00339905 0.27080700
v -0.59411900 -0.08379760 0.25896400
v -0.61272100 -0.06433790 0.27080700
v -0.59919700 -0.08253150 0.26149300
v -0.57381000 -0.18533500 0.18788400
v -0.59411900 -0.13458000 0.23864300
v -0.60427400 -0.19549100 0.19803600
v -0.59411900 -0.20564800 0.17773200
v -0.58904200 -0.23738300 0.13203200
v -0.57694900 -0.23025500 0.13006700
v -0.93430200 -0.25582500 0.13006700
v -0.93430200 0.00598675 0.28434300
v -0.58304100 0.00598675 0.26610800
v -0.60039700 0.00598675 0.27297800
v -0.62966100 0.00598675 0.28434300
v -0.62966100 -0.01017000 0.28434300
v -0.61950600 -0.06095240 0.27419100
v -0.59919700 -0.13331400 0.24119000
v -0.62458300 -0.11426700 0.25896400
v -0.61950600 -0.07237500 0.27164500
v -0.64997000 -0.07237500 0.28181400
v -0.62966100 -0.11300100 0.26149300
v -0.61442900 -0.17517800 0.21834000
v -0.63473800 -0.14470900 0.24879500
v -0.62966100 -0.18616100 0.21666500
v -0.64997000 -0.19631700 0.21666500
v -0.61442900 -0.20055600 0.19803600
v -0.61950600 -0.20691400 0.19296000
v -0.62966100 -0.22722700 0.17265700
v -0.60427400 -0.24118200 0.13710800
v -0.59098100 -0.23884200 0.13006700
v -0.58839600 -0.23730100 0.13006700
v -0.61950600 -0.23738300 0.15233600
v -0.93430200 -0.25387000 0.14218400
v -0.93245600 -0.26402700 0.13006700
v -0.93430200 -0.00001356 0.29449500
v -0.93171700 0.00505093 0.29957100
v -0.93148700 0.00598675 0.29864800
v -0.66012500 0.00598675 0.29449500
v -0.66012500 -0.01017000 0.29449500
v -0.63981600 -0.04063950 0.28434300
v -0.64997000 -0.06095240 0.28434300
v -0.63981600 -0.14344300 0.25134100
v -0.69058900 -0.07237500 0.29196500
v -0.66012500 -0.08253150 0.28181400
v -0.64997000 -0.10284400 0.27164500
v -0.66012500 -0.13331400 0.26149300
v -0.64997000 -0.15569100 0.24710300
v -0.66520200 -0.21071200 0.20818800
v -0.64997000 -0.21663000 0.19634400
v -0.67028000 -0.16584800 0.24710300
v -0.71085200 -0.21663000 0.21666500
v -0.62966100 -0.21663000 0.18619200
v -0.64997000 -0.22722700 0.18280800
v -0.67028000 -0.24710000 0.16588900
v -0.64997000 -0.24710000 0.15572000
v -0.64489300 -0.25133800 0.14726000
v -0.66520200 -0.26149500 0.13710800
v -0.65190900 -0.25915500 0.13006700
v -0.93430200 -0.24371400 0.16248800
v -0.93139400 -0.26675200 0.13006700
v -0.93088600 -0.26064100 0.14556800
v -0.93088600 -0.25048500 0.16588900
v -0.93088600 -0.00001356 0.30126300
v -0.93430200 -0.07110890 0.28434300
v -0.92940900 0.00598675 0.30051100
v -0.71205200 0.00598675 0.30345000
v -0.71085200 -0.00001356 0.30466400
v -0.67028000 -0.03048300 0.29449500
v -0.69058900 -0.06095240 0.29449500
v -0.66012500 -0.15359900 0.25134100
v -0.70069800 -0.07110890 0.29449500
v -0.67028000 -0.13204800 0.26404000
v -0.71085200 -0.08253150 0.29196500
v -0.70069800 -0.10284400 0.28181400
v -0.68043400 -0.14344300 0.26149300
v -0.67028000 -0.21707000 0.20311200
v -0.69058900 -0.15569100 0.25725500
v -0.72100700 -0.16584800 0.25725500
v -0.76162600 -0.23694300 0.19634400
v -0.73116200 -0.22678700 0.20649600
v -0.72100700 -0.25725600 0.16588900
v -0.73116200 -0.20647400 0.22679900
v -0.76162600 -0.19631700 0.23695100
v -0.81239900 -0.21663000 0.21666500
v -0.66520200 -0.25133800 0.15741200
v -0.71085200 -0.25766900 0.16248800
v -0.68551200 -0.26149500 0.14726000
v -0.71593000 -0.27165100 0.13710800
v -0.69252800 -0.26931200 0.13006700
v -0.67028000 -0.26477000 0.13006700
v -0.93430200 -0.23355800 0.17265700
v -0.93171700 -0.24371400 0.17392100
v -0.92959400 -0.26832100 0.13006700
v -0.92871700 -0.26892600 0.13006700
v -0.92917900 -0.25896300 0.14980700
v -0.92917900 -0.24880600 0.17011000
v -0.93088600 -0.07110890 0.29111100
v -0.92917900 -0.00507803 0.30211700
v -0.92410100 -0.00001356 0.30466400
v -0.92714800 0.00598675 0.30165600
v -0.93430200 -0.10157800 0.27419100
v -0.72100700 0.00598675 0.30466400
v -0.74131600 -0.03048300 0.30466400
v -0.72100700 -0.08126540 0.29449500
v -0.72100700 -0.13204800 0.27419100
v -0.69058900 -0.14214900 0.26404000
v -0.69058900 -0.14892000 0.26065600
v -0.72100700 -0.15907700 0.26065600
v -0.80224500 -0.16584800 0.25725500
v -0.79209000 -0.22678700 0.20649600
v -0.92410100 -0.24710000 0.17604000
v -0.80224500 -0.25725600 0.16588900
v -0.74427100 -0.27517400 0.13006700
v -0.71593000 -0.26149500 0.15741200
v -0.92410100 -0.17600400 0.24710300
v -0.79209000 -0.20647400 0.22679900
v -0.92410100 -0.20647400 0.21666500
v -0.68043400 -0.25766900 0.15233600
v -0.72100700 -0.27418300 0.13203200
v -0.72100700 -0.27418300 0.13006700
v -0.93430200 -0.19293200 0.21328100
v -0.93171700 -0.21324500 0.20439400
v -0.92410100 -0.27008200 0.13006700
v -0.92410100 -0.26741200 0.13541600
v -0.92410100 -0.25048500 0.16927300
v -0.93088600 -0.10157800 0.28095900
v -0.92917900 -0.07617340 0.29196500
v -0.92410100 -0.07110890 0.29449500
v -0.78193500 -0.03048300 0.30466400
v -0.81655400 0.00598675 0.30466400
v -0.93430200 -0.12189100 0.26404000
v -0.93171700 -0.11173500 0.27545600
v -0.75147100 -0.11173500 0.28434300
v -0.80224500 -0.08126540 0.29449500
v -0.78701300 -0.11679900 0.28181400
v -0.80224500 -0.13204800 0.27419100
v -0.80224500 -0.15907700 0.26065600
v -0.80732200 -0.15739800 0.26149300
v -0.80224500 -0.27418300 0.13203200
v -0.78193500 -0.27517400 0.13006700
v -0.73314700 -0.27492700 0.13006700
v -0.92917900 -0.16755400 0.25134100
v -0.93171700 -0.17261900 0.24498400
v -0.93171700 -0.20308800 0.21454500
v -0.93430200 -0.16246200 0.24371900
v -0.92917900 -0.10664300 0.28181400
v -0.92410100 -0.10157800 0.28434300
v -0.93171700 -0.13204800 0.26530400
v -0.78193500 -0.11173500 0.28434300
v -0.80732200 -0.13708500 0.27164500
f 110 144 140
f 105 138 106
f 110 143 144
f 109 143 110
f 109 142 143
f 109 141 142
f 108 141 109
f 107 140 139
f 107 110 140
f 105 137 138
f 99 130 131
f 105 135 136
f 104 135 105
f 104 133 135
f 102 129 134
f 102 104 103
f 102 133 104
f 99 132 127
f 99 131 132
f 111 145 175
f 105 136 137
f 102 134 133
f 123 153 154
f 111 146 147
f 123 155 125
f 99 126 130
f 123 154 155
f 121 153 122
f 121 152 153
f 120 153 123
f 120 122 153
f 119 152 121
f 119 151 152
f 115 117 116
f 115 119 117
f 115 151 119
f 115 177 151
f 115 147 177
f 115 178 147
f 115 150 178
f 114 150 115
f 112 174 145
f 112 149 174
f 111 148 113
f 111 147 148
f 111 175 146
f 99 102 124
f 76 97 101
f 99 128 129
f 86 114 115
f 84 113 85
f 84 111 113
f 83 145 111
f 83 112 145
f 83 111 84
f 81 110 107
f 81 109 110
f 81 108 109
f 86 115 87
f 81 82 108
f 77 105 106
f 77 104 105
f 77 80 104
f 76 104 80
f 76 103 104
f 76 102 103
f 76 101 102
f 76 100 97
f 125 155 156
f 77 106 78
f 87 116 89
f 87 89 88
f 89 116 117
f 99 127 128
f 98 126 99
f 98 125 126
f 98 123 125
f 98 118 123
f 97 102 101
f 97 124 102
f 96 99 124
f 96 124 97
f 94 123 118
f 94 120 123
f 92 122 120
f 92 121 122
f 92 119 121
f 92 94 93
f 92 120 94
f 91 119 92
f 91 117 119
f 90 98 95
f 90 118 98
f 90 94 118
f 99 129 102
f 125 156 126
f 190 194 196
f 126 156 185
f 167 189 168
f 165 192 170
f 163 192 165
f 163 191 192
f 163 190 191
f 161 189 167
f 160 187 188
f 160 172 187
f 160 173 172
f 169 170 192
f 159 173 160
f 157 190 163
f 157 186 190
f 157 185 186
f 153 185 156
f 153 184 185
f 153 183 184
f 153 181 183
f 153 155 154
f 153 156 155
f 159 165 170
f 169 192 191
f 169 191 193
f 171 188 187
f 190 196 191
f 75 100 76
f 186 194 190
f 186 198 194
f 184 186 185
f 184 198 186
f 184 194 198
f 183 194 184
f 183 195 194
f 183 197 195
f 182 195 197
f 181 197 183
f 180 196 194
f 179 191 196
f 179 193 191
f 176 182 177
f 176 195 182
f 175 195 176
f 175 194 195
f 174 180 194
f 171 187 172
f 152 197 181
f 152 182 197
f 152 181 153
f 151 182 152
f 133 166 135
f 133 134 166
f 132 159 158
f 132 165 159
f 132 163 165
f 132 164 163
f 131 164 132
f 131 163 164
f 131 157 163
f 129 188 161
f 129 160 188
f 129 162 134
f 129 136 162
f 129 161 136
f 127 160 129
f 127 159 160
f 127 158 159
f 127 132 158
f 127 129 128
f 126 157 131
f 126 185 157
f 134 162 135
f 126 131 130
f 134 135 166
f 136 161 167
f 151 177 182
f 149 180 174
f 149 196 180
f 149 179 196
f 147 178 148
f 147 176 177
f 147 175 176
f 146 175 147
f 145 194 175
f 145 174 194
f 143 159 144
f 143 173 159
f 143 172 173
f 143 171 172
f 142 171 143
f 140 159 170
f 140 144 159
f 139 170 169
f 139 140 170
f 137 167 168
f 136 167 137
f 135 162 136
f 75 97 100
f 87 115 116
f 73 99 96
f 10 34 22
f 10 20 34
f 10 12 11
f 10 21 12
f 8 10 9
f 8 20 10
f 8 32 20
f 8 17 32
f 6 13 18
f 10 22 35
f 6 19 7
f 5 17 8
f 5 16 17
f 4 16 5
f 3 28 15
f 3 44 28
f 3 58 44
f 3 82 58
f 3 108 82
f 3 141 108
f 6 18 19
f 10 35 21
f 12 21 35
f 12 35 23
f 24 25 39
f 24 38 26
f 23 37 25
f 23 35 37
f 22 49 35
f 22 36 49
f 22 33 36
f 22 34 33
f 20 33 34
f 20 32 33
f 18 24 26
f 17 31 32
f 17 30 31
f 16 30 17
f 15 28 29
f 14 26 27
f 14 18 26
f 13 25 24
f 13 23 25
f 13 24 18
f 12 23 13
f 3 142 141
f 3 171 142
f 3 188 171
f 3 161 188
f 1 60 46
f 1 61 60
f 1 62 61
f 1 86 62
f 1 114 86
f 1 150 114
f 1 178 150
f 1 148 178
f 1 113 148
f 1 85 113
f 1 59 85
f 1 45 59
f 1 29 45
f 1 15 29
f 1 3 15
f 1 14 3
f 1 18 14
f 1 19 18
f 1 7 19
f 1 2 7
f 74 97 75
f 1 46 31
f 24 39 38
f 1 31 30
f 1 16 4
f 3 189 161
f 3 168 189
f 3 137 168
f 3 138 137
f 3 106 138
f 3 78 106
f 3 79 78
f 3 57 79
f 3 42 57
f 3 27 43
f 3 14 27
f 2 13 6
f 2 12 13
f 2 11 12
f 2 10 11
f 2 9 10
f 2 8 9
f 2 5 8
f 2 6 7
f 1 5 2
f 1 4 5
f 1 30 16
f 25 37 39
f 3 43 42
f 26 41 42
f 56 79 57
f 56 78 79
f 56 77 78
f 55 76 56
f 54 76 55
f 54 75 76
f 54 74 75
f 54 73 74
f 54 72 73
f 56 76 80
f 54 70 72
f 53 90 71
f 53 65 90
f 53 70 54
f 51 92 69
f 51 68 92
f 51 67 68
f 50 64 67
f 49 66 65
f 49 69 66
f 53 71 70
f 56 80 77
f 58 82 81
f 59 83 84
f 73 98 99
f 26 40 41
f 73 97 74
f 73 96 97
f 72 98 73
f 72 95 98
f 71 95 72
f 71 90 95
f 70 71 72
f 69 94 90
f 69 93 94
f 69 92 93
f 68 91 92
f 68 117 91
f 68 89 117
f 65 69 90
f 65 66 69
f 64 68 67
f 64 89 68
f 64 88 89
f 59 84 85
f 49 51 69
f 49 65 53
f 63 87 88
f 47 64 50
f 38 52 40
f 38 39 52
f 37 54 52
f 37 53 54
f 37 49 53
f 37 52 39
f 36 51 49
f 36 67 51
f 36 50 67
f 33 50 36
f 33 48 50
f 31 33 32
f 31 48 33
f 31 47 48
f 31 46 47
f 28 45 29
f 28 44 45
f 26 38 40
f 47 50 48
f 26 43 27
f 26 42 43
f 40 52 54
f 40 54 55
f 35 49 37
f 41 55 56
f 47 87 63
f 40 55 41
f 47 86 87
f 47 62 86
f 47 61 62
f 47 60 61
f 44 59 45
f 47 88 64
f 44 83 59
f 44 112 83
f 46 60 47
f 47 63 88
f 44 179 149
f 44 193 179
f 44 169 193
f 44 139 169
f 44 107 139
f 44 81 107
f 44 58 81
f 44 149 112
f 42 56 57
f 41 56 42