# https://github.com/mikedh/trimesh
v -0.80090600 -0.15506500 -0.26267500
v -0.80566000 -0.16588700 -0.25725500
v -0.92751700 -0.15572400 -0.25725500
v -0.92687100 -0.15506500 -0.25756200
v -0.71966900 -0.15506500 -0.26267500
v -0.92751700 -0.17603500 -0.24710600
v -0.72437700 -0.16588700 -0.25725500
v -0.76504200 -0.19634500 -0.23695600
v -0.93430200 -0.16248900 -0.24372300
v -0.93171700 -0.15506500 -0.25129600
v -0.92765500 -0.15506500 -0.25737000
v -0.69331200 -0.15506500 -0.25756200
v -0.71763800 -0.15910700 -0.26063800
v -0.92751700 -0.18619700 -0.23695600
v -0.93259400 -0.17095300 -0.24203100
v -0.79550600 -0.20650800 -0.22676900
v -0.81581500 -0.21665600 -0.21662000
v -0.67364900 -0.16588700 -0.24710600
v -0.71422200 -0.21665600 -0.21662000
v -0.73457700 -0.20650800 -0.22676900
v -0.73457700 -0.22681900 -0.20647000
v -0.79550600 -0.22681900 -0.20647000
v -0.93430200 -0.15506500 -0.24372300
v -0.93430200 -0.17265200 -0.23357300
v -0.66889500 -0.15506500 -0.25248800
v -0.66691000 -0.15910700 -0.25048900
v -0.92751700 -0.24711400 -0.17602300
v -0.93259400 -0.18111600 -0.23188200
v -0.64660100 -0.18958000 -0.22000300
v -0.65334000 -0.19634500 -0.21662000
v -0.66691000 -0.20989100 -0.20985300
v -0.72437700 -0.25726200 -0.16583500
v -0.67364900 -0.24711400 -0.16583500
v -0.76504200 -0.23695200 -0.19632100
v -0.93430200 -0.15506500 -0.20308700
v -0.93430200 -0.23356900 -0.17264000
v -0.66211000 -0.15506500 -0.25098800
v -0.65758600 -0.15742300 -0.24879700
v -0.92751700 -0.27757300 -0.11508900
v -0.93430200 -0.26402800 -0.12185600
v -0.93430200 -0.25388000 -0.14215400
v -0.93259400 -0.24203300 -0.17094800
v -0.80566000 -0.25726200 -0.16583500
v -0.80566000 -0.26742500 -0.14553700
v -0.63727700 -0.18788100 -0.21831100
v -0.65758600 -0.20819200 -0.20816200
v -0.65334000 -0.21665600 -0.19632100
v -0.71763800 -0.26064500 -0.15906900
v -0.72437700 -0.26742500 -0.14553700
v -0.66691000 -0.25049700 -0.15906900
v -0.93430200 -0.22538300 0.13006700
v -0.93171700 -0.21396100 0.13006700
v -0.92733200 -0.21078400 0.13006700
v -0.82255400 -0.15506500 0.13006700
v -0.93430200 -0.24371700 -0.16245200
v -0.65818600 -0.15506500 -0.24995000
v -0.60741300 -0.15506500 -0.22965200
v -0.60681300 -0.15742300 -0.22846000
v -0.61696700 -0.17773300 -0.21831100
v -0.92410100 -0.28433800 -0.10151900
v -0.92410100 -0.29450100 -0.07107120
v -0.92751700 -0.28773600 -0.08460340
v -0.93088600 -0.29111800 -0.06768810
v -0.93088600 -0.28095600 -0.09813570
v -0.93430200 -0.27419000 -0.10151900
v -0.80224500 -0.27419000 -0.13200500
v -0.60681300 -0.19804400 -0.19801300
v -0.63727700 -0.21835500 -0.18786400
v -0.64660100 -0.22003900 -0.18955500
v -0.68722000 -0.26064500 -0.14892000
v -0.71763800 -0.27080800 -0.13877100
v -0.65758600 -0.24879900 -0.15737800
v -0.64660100 -0.25049700 -0.14892000
v -0.93430200 -0.25582700 0.13006700
v -0.48906400 -0.15506500 0.13006700
v -0.58710300 -0.15506500 -0.21950300
v -0.58650300 -0.15742300 -0.21831100
v -0.78193500 -0.28433800 -0.11170600
v -0.80224500 -0.29450100 -0.08122040
v -0.92410100 -0.30466400 -0.00002697
v -0.78193500 -0.30466400 -0.03047450
v -0.93088600 -0.30126600 0.00335608
v -0.93430200 -0.29450100 -0.00002697
v -0.93430200 -0.28433800 -0.07107120
v -0.61696700 -0.21835500 -0.17771400
v -0.57634900 -0.18788100 -0.18786400
v -0.59665800 -0.20819200 -0.17771400
v -0.66691000 -0.26064500 -0.13877100
v -0.72100700 -0.27419000 -0.13200500
v -0.70069800 -0.27419000 -0.12185600
v -0.63727700 -0.24879900 -0.14722800
v -0.65758600 -0.25896100 -0.13707900
v -0.93430200 -0.26402800 0.12184000
v -0.93245600 -0.26402800 0.13006700
v -0.49566500 -0.16347000 0.13006700
v -0.48255600 -0.15506500 0.12679900
v -0.55663900 -0.15506500 -0.19916600
v -0.55603900 -0.15742300 -0.19801300
v -0.56619400 -0.16757100 -0.19801300
v -0.75147100 -0.28433800 -0.11170600
v -0.72100700 -0.29450100 -0.08122040
v -0.92410100 -0.29450100 0.07105570
v -0.93088600 -0.29111800 0.07443880
v -0.78193500 -0.30466400 0.03045900
v -0.74131600 -0.30466400 -0.03047450
v -0.93430200 -0.28433800 0.07105570
v -0.57634900 -0.22850300 -0.13707900
v -0.59665800 -0.23865100 -0.13707900
v -0.53826800 -0.17265200 -0.17264000
v -0.56619400 -0.19804400 -0.16752700
v -0.65887900 -0.26149500 -0.13200500
v -0.65675500 -0.27080800 -0.10832300
v -0.70069800 -0.29450100 -0.07107120
v -0.62712200 -0.25896100 -0.11678100
v -0.63856900 -0.25134700 -0.14215400
v -0.64743200 -0.26910900 -0.10663200
v -0.93430200 -0.27419000 0.10154200
v -0.93088600 -0.27080800 0.12522300
v -0.93139400 -0.26675200 0.13006700
v -0.50582000 -0.17363300 0.13006700
v -0.49257200 -0.16503700 0.12691500
v -0.49257200 -0.17518500 0.11676500
v -0.46275400 -0.15572400 0.10492500
v -0.46275400 -0.15506500 0.10523200
v -0.51546700 -0.15506500 -0.16495100
v -0.52557500 -0.16757100 -0.16752700
v -0.92410100 -0.28433800 0.10154200
v -0.80224500 -0.29450100 0.08124330
v -0.93088600 -0.28095600 0.10492500
v -0.74131600 -0.30466400 0.03045900
v -0.70069800 -0.30466400 -0.00002697
v -0.57634900 -0.24879900 -0.08629500
v -0.59665800 -0.25896100 -0.08629500
v -0.54588400 -0.20819200 -0.13707900
v -0.54588400 -0.21835500 -0.11678100
v -0.55603900 -0.22850300 -0.10663200
v -0.59790400 -0.24118400 -0.13200500
v -0.64872400 -0.27165700 -0.10151900
v -0.65887900 -0.28180500 -0.08122040
v -0.67028000 -0.28433800 -0.08122040
v -0.68934300 -0.29196800 -0.07107120
v -0.69058900 -0.29450100 -0.06096050
v -0.61696700 -0.25896100 -0.10663200
v -0.61821400 -0.26149500 -0.10151900
v -0.62841500 -0.26149500 -0.11170600
v -0.92871700 -0.26894800 0.13006700
v -0.92917900 -0.26910900 0.12945200
v -0.92959400 -0.26833300 0.13006700
v -0.52617500 -0.19394400 0.13006700
v -0.52303600 -0.19549600 0.12691500
v -0.51288200 -0.18534800 0.12691500
v -0.49257200 -0.18026700 0.10661600
v -0.51454300 -0.19634500 0.11169100
v -0.46275400 -0.16588700 0.08462640
v -0.46275400 -0.15506500 -0.10524800
v -0.46275400 -0.15572400 -0.10490200
v -0.49511100 -0.17773300 -0.11678100
v -0.52557500 -0.19804400 -0.12693000
v -0.92410100 -0.27009000 0.13006700
v -0.92917900 -0.27927200 0.10915400
v -0.78193500 -0.28433800 0.11169100
v -0.78193500 -0.27517200 0.13006700
v -0.72100700 -0.29450100 0.08124330
v -0.70069800 -0.29450100 0.07105570
v -0.69058900 -0.29450100 0.06090650
v -0.67028000 -0.29450100 -0.03047450
v -0.66012500 -0.29450100 -0.01017620
v -0.66012500 -0.29450100 0.01012220
v -0.67028000 -0.29450100 0.03045900
v -0.57759500 -0.25134700 -0.08122040
v -0.56536300 -0.24711400 -0.07107120
v -0.59790400 -0.26149500 -0.08122040
v -0.53489900 -0.21665600 -0.10151900
v -0.54505400 -0.22681900 -0.09136960
v -0.51454300 -0.19634500 -0.11170600
v -0.61821400 -0.27165700 -0.07107120
v -0.64872400 -0.28180500 -0.07107120
v -0.64997000 -0.28433800 -0.06096050
v -0.54020700 -0.20605400 0.13006700
v -0.52303600 -0.20057700 0.11676500
v -0.54334600 -0.21074000 0.12691500
v -0.46275400 -0.18280000 0.05075730
v -0.46275400 -0.17118800 0.07401590
v -0.52811400 -0.20691800 0.11169100
v -0.50438900 -0.20650800 0.07105570
v -0.46275400 -0.15809600 -0.10017300
v -0.46275400 -0.15961900 -0.09713610
v -0.46275400 -0.17603500 -0.06434350
v -0.46275400 -0.18280000 -0.05081130
v -0.75147100 -0.28433800 0.11169100
v -0.74427100 -0.27517200 0.13006700
v -0.71593000 -0.29196800 0.08631790
v -0.72100700 -0.27419000 0.13006700
v -0.68551200 -0.29196800 0.06598110
v -0.64489300 -0.28180500 0.06598110
v -0.66520200 -0.28180500 0.08631790
v -0.69566600 -0.29196800 0.07613030
v -0.64997000 -0.28433800 0.06090650
v -0.63981600 -0.28433800 -0.04062370
v -0.62966100 -0.28433800 -0.01017620
v -0.59919700 -0.27419000 -0.00002697
v -0.62966100 -0.28433800 0.01012220
v -0.63981600 -0.28433800 0.04060820
v -0.57210200 -0.25049700 -0.07107120
v -0.55520800 -0.24711400 -0.04062370
v -0.51454300 -0.21665600 -0.06096050
v -0.52474400 -0.22681900 -0.05081130
v -0.59241200 -0.26064500 -0.07107120
v -0.59919700 -0.26402800 -0.07107120
v -0.61950600 -0.27419000 -0.06096050
v -0.50438900 -0.20650800 -0.07107120
v -0.57067100 -0.22636500 0.13006700
v -0.54334600 -0.22088800 0.10661600
v -0.57381000 -0.23103600 0.12691500
v -0.54842300 -0.21708100 0.12184000
v -0.51795900 -0.21708100 0.07105570
v -0.52811400 -0.22722900 0.06090650
v -0.52474400 -0.22681900 0.05075730
v -0.53489900 -0.23695200 0.03045900
v -0.51454300 -0.22681900 -0.00002697
v -0.54842300 -0.22722900 0.10154200
v -0.53489900 -0.23695200 -0.03047450
v -0.74639400 -0.28180500 0.11676500
v -0.73314700 -0.27492300 0.13006700
v -0.69566600 -0.27165700 0.12691500
v -0.65504800 -0.27165700 0.10661600
v -0.69252800 -0.26931400 0.13006700
v -0.63473800 -0.28180500 0.04568280
v -0.61442900 -0.27165700 0.06598110
v -0.63473800 -0.27165700 0.08631790
v -0.57888700 -0.26402800 -0.01017620
v -0.59241200 -0.27080800 -0.00002697
v -0.59411900 -0.27165700 0.00504761
v -0.62458300 -0.28180500 0.01519680
v -0.56194700 -0.25049700 -0.04062370
v -0.54505400 -0.24711400 -0.00002697
v -0.56536300 -0.25726200 -0.01017620
v -0.57210200 -0.26064500 -0.01017620
v -0.57694900 -0.23024500 0.13006700
v -0.58839600 -0.23728900 0.13006700
v -0.59098100 -0.23884100 0.13006700
v -0.56873300 -0.24753900 0.08124330
v -0.53826800 -0.22722900 0.08124330
v -0.55857800 -0.24753900 0.05075730
v -0.53826800 -0.23737700 0.04060820
v -0.54334600 -0.24118400 0.03553360
v -0.67028000 -0.26476000 0.13006700
v -0.63473800 -0.26149500 0.11676500
v -0.60427400 -0.27165700 0.03553360
v -0.59411900 -0.26149500 0.07613030
v -0.60427400 -0.26149500 0.08631790
v -0.55179300 -0.25049700 -0.00002697
v -0.57210200 -0.26064500 0.01012220
v -0.57381000 -0.26149500 0.01519680
v -0.55350000 -0.25134700 0.00504761
v -0.62144500 -0.24900400 0.13006700
v -0.62966100 -0.25768700 0.12184000
v -0.58904200 -0.25768700 0.08124330
v -0.57381000 -0.25134700 0.07613030
v -0.56365500 -0.25134700 0.04568280
v -0.65190900 -0.25915200 0.13006700
v -0.58396500 -0.26149500 0.04568280
f 150 180 153
f 144 172 176
f 146 148 147
f 149 179 150
f 144 176 145
f 150 179 181
f 153 180 184
f 152 182 183
f 152 183 154
f 152 153 182
f 142 178 166
f 153 184 216
f 150 181 180
f 141 178 142
f 134 158 135
f 139 177 141
f 139 176 177
f 138 176 139
f 138 145 176
f 137 172 143
f 135 175 173
f 135 158 175
f 135 171 136
f 135 174 171
f 135 173 174
f 132 171 170
f 133 170 172
f 153 216 185
f 141 177 178
f 153 185 182
f 170 204 208
f 157 175 158
f 170 171 204
f 132 136 171
f 170 208 172
f 169 203 198
f 168 203 169
f 168 202 203
f 168 201 202
f 167 201 168
f 167 200 201
f 167 199 200
f 167 178 199
f 166 178 167
f 165 195 194
f 165 198 195
f 165 169 198
f 164 197 192
f 164 196 197
f 164 195 196
f 164 194 195
f 164 165 194
f 163 193 190
f 163 192 193
f 163 164 192
f 161 191 162
f 161 190 191
f 157 189 175
f 157 188 189
f 157 187 188
f 157 186 187
f 156 186 157
f 132 170 133
f 110 126 134
f 131 168 169
f 122 152 154
f 121 151 122
f 120 151 121
f 120 150 151
f 120 149 150
f 118 148 119
f 118 147 148
f 118 146 147
f 118 129 146
f 117 129 118
f 116 145 138
f 114 137 143
f 114 145 116
f 114 144 145
f 114 172 144
f 114 143 172
f 113 139 141
f 113 140 139
f 113 142 131
f 113 141 142
f 112 140 113
f 112 139 140
f 112 138 139
f 111 138 112
f 111 116 138
f 109 126 110
f 108 137 114
f 108 172 137
f 171 205 235
f 122 154 123
f 131 169 165
f 122 151 150
f 122 153 152
f 131 167 168
f 131 166 167
f 131 142 166
f 131 165 164
f 130 164 163
f 130 131 164
f 129 160 146
f 128 190 161
f 128 163 190
f 127 162 159
f 127 161 162
f 127 128 161
f 127 160 129
f 127 146 160
f 127 159 146
f 126 158 134
f 126 157 158
f 126 156 157
f 125 156 126
f 125 155 156
f 123 155 124
f 123 156 155
f 123 186 156
f 123 187 186
f 123 188 187
f 123 189 188
f 123 182 189
f 123 183 182
f 123 154 183
f 122 150 153
f 171 235 204
f 248 258 257
f 171 206 207
f 229 262 250
f 229 249 262
f 228 249 229
f 228 233 249
f 228 234 233
f 226 248 247
f 226 251 248
f 226 230 251
f 225 247 227
f 225 226 247
f 221 242 243
f 220 236 222
f 219 236 220
f 229 250 251
f 219 255 236
f 219 245 246
f 218 245 219
f 217 245 218
f 217 244 245
f 217 242 244
f 216 242 217
f 216 243 242
f 216 221 243
f 214 221 215
f 214 242 221
f 214 241 242
f 214 240 241
f 214 239 240
f 219 246 255
f 229 251 230
f 232 238 252
f 232 252 253
f 256 261 257
f 254 260 262
f 254 255 260
f 252 254 253
f 252 255 254
f 250 258 251
f 250 260 259
f 250 262 260
f 108 133 172
f 248 251 258
f 247 257 261
f 247 248 257
f 246 260 255
f 244 246 245
f 244 260 246
f 242 260 244
f 242 259 260
f 242 250 259
f 242 258 250
f 241 258 242
f 241 257 258
f 241 256 257
f 236 238 237
f 236 252 238
f 236 255 252
f 233 262 249
f 233 254 262
f 232 254 233
f 232 253 254
f 212 239 214
f 209 231 210
f 208 231 209
f 208 238 231
f 189 207 206
f 189 222 207
f 189 220 222
f 184 221 216
f 182 220 189
f 182 219 220
f 182 218 219
f 182 217 218
f 182 216 217
f 182 185 216
f 181 221 213
f 181 215 221
f 181 214 215
f 181 212 214
f 180 221 184
f 180 213 221
f 180 181 213
f 179 212 181
f 178 210 199
f 176 178 177
f 176 210 178
f 175 189 211
f 174 211 206
f 173 211 174
f 173 175 211
f 172 210 176
f 172 209 210
f 172 208 209
f 171 207 205
f 189 206 211
f 171 174 206
f 190 193 223
f 191 223 224
f 205 207 222
f 205 238 235
f 205 237 238
f 205 236 237
f 205 222 236
f 204 238 208
f 204 235 238
f 202 228 203
f 202 234 228
f 201 210 231
f 201 234 202
f 201 233 234
f 201 232 233
f 201 238 232
f 201 231 238
f 200 210 201
f 199 210 200
f 196 230 226
f 195 230 196
f 195 229 230
f 195 228 229
f 195 203 228
f 195 198 203
f 193 225 227
f 193 224 223
f 192 226 225
f 192 196 226
f 192 197 196
f 192 225 193
f 190 223 191
f 107 136 132
f 77 98 99
f 107 134 135
f 30 45 46
f 29 45 30
f 29 38 45
f 27 44 39
f 27 43 44
f 27 34 43
f 27 41 42
f 27 40 41
f 27 39 40
f 26 38 29
f 26 37 38
f 25 37 26
f 24 42 36
f 30 46 31
f 24 28 42
f 21 34 22
f 21 32 34
f 19 33 32
f 19 31 33
f 19 32 21
f 18 31 19
f 18 30 31
f 18 29 30
f 18 26 29
f 17 22 27
f 107 135 136
f 14 42 28
f 14 27 42
f 22 34 27
f 31 46 47
f 31 47 33
f 32 33 50
f 44 89 100
f 44 71 89
f 44 49 71
f 41 55 42
f 39 66 60
f 39 44 66
f 39 65 40
f 39 64 65
f 39 63 64
f 39 62 63
f 39 61 62
f 39 60 61
f 38 59 45
f 38 58 59
f 38 57 58
f 38 56 57
f 37 56 38
f 36 42 55
f 35 53 54
f 35 52 53
f 35 51 52
f 33 69 50
f 33 47 69
f 32 43 34
f 32 44 43
f 32 49 44
f 32 71 49
f 32 48 71
f 32 50 48
f 12 26 13
f 12 25 26
f 9 35 23
f 9 51 35
f 3 11 4
f 3 10 11
f 3 9 10
f 3 6 9
f 2 8 6
f 2 7 8
f 2 6 3
f 1 7 2
f 1 5 7
f 1 12 5
f 1 25 12
f 1 37 25
f 1 56 37
f 1 57 56
f 1 76 57
f 1 97 76
f 1 125 97
f 1 155 125
f 1 124 155
f 1 96 124
f 1 75 96
f 1 54 75
f 1 35 54
f 1 23 35
f 1 10 23
f 1 11 10
f 1 4 11
f 1 3 4
f 1 2 3
f 5 12 13
f 44 100 78
f 5 13 7
f 6 28 15
f 9 74 51
f 9 93 74
f 9 117 93
f 9 106 117
f 9 83 106
f 9 84 83
f 9 65 84
f 9 40 65
f 9 41 40
f 9 55 41
f 9 36 55
f 9 24 36
f 9 28 24
f 9 15 28
f 9 23 10
f 8 17 16
f 8 22 17
f 8 21 22
f 8 19 21
f 8 20 19
f 7 20 8
f 7 19 20
f 7 18 19
f 7 26 18
f 7 13 26
f 6 17 14
f 6 16 17
f 6 8 16
f 6 15 9
f 6 14 28
f 44 78 66
f 14 17 27
f 45 67 46
f 89 113 101
f 89 90 113
f 88 112 90
f 88 111 112
f 88 92 111
f 86 107 87
f 86 110 107
f 86 109 110
f 86 99 109
f 85 108 91
f 85 107 108
f 85 87 107
f 83 103 106
f 89 101 100
f 82 103 83
f 80 130 104
f 80 131 130
f 80 105 131
f 80 81 105
f 80 103 82
f 80 102 103
f 79 105 81
f 79 101 105
f 78 101 79
f 78 100 101
f 76 98 77
f 76 97 98
f 75 95 96
f 80 104 102
f 90 112 113
f 91 114 115
f 91 115 92
f 107 110 134
f 107 133 108
f 45 59 67
f 105 113 131
f 104 163 128
f 104 130 163
f 103 117 106
f 103 129 117
f 102 128 127
f 102 104 128
f 102 129 103
f 102 127 129
f 101 113 105
f 99 126 109
f 98 126 99
f 98 125 126
f 97 125 98
f 96 123 124
f 96 122 123
f 96 121 122
f 95 121 96
f 95 120 121
f 93 119 94
f 93 118 119
f 93 117 118
f 92 116 111
f 92 114 116
f 92 115 114
f 91 108 114
f 74 93 94
f 73 91 92
f 107 132 133
f 71 90 89
f 51 212 179
f 51 239 212
f 51 240 239
f 51 241 240
f 51 256 241
f 51 261 256
f 51 247 261
f 51 227 247
f 51 193 227
f 51 224 193
f 51 191 224
f 51 162 191
f 51 159 162
f 51 146 159
f 51 148 146
f 51 119 148
f 51 94 119
f 51 74 94
f 50 88 70
f 50 73 88
f 50 91 73
f 50 72 91
f 50 68 72
f 50 69 68
f 48 50 70
f 48 70 71
f 47 68 69
f 46 67 68
f 73 92 88
f 51 179 149
f 51 149 120
f 46 68 47
f 51 95 75
f 51 120 95
f 70 88 71
f 68 91 72
f 68 85 91
f 67 87 85
f 67 86 87
f 67 99 86
f 67 77 99
f 67 85 68
f 63 80 82
f 63 65 64
f 63 84 65
f 63 83 84
f 63 82 83
f 71 88 90
f 61 79 81
f 51 54 53
f 51 75 54
f 51 53 52
f 57 76 77
f 61 81 80
f 58 77 67
f 57 77 58
f 60 66 78
f 60 78 79
f 60 79 61
f 61 80 63
f 61 63 62
f 58 67 59