# https://github.com/mikedh/trimesh
v -0.77044200 0.17693000 -0.24667100
v -0.76162600 0.19635000 -0.23695800
v -0.76162600 0.17693000 -0.24667100
v -0.92410100 0.17693000 -0.24532000
v -0.79209000 0.20650300 -0.22676900
v -0.81239900 0.21665700 -0.21661800
v -0.79209000 0.22681100 -0.20646600
v -0.76162600 0.23696400 -0.19631400
v -0.73116200 0.22681100 -0.20646600
v -0.71085200 0.21665700 -0.21661800
v -0.73116200 0.20650300 -0.22676900
v -0.70817500 0.17693000 -0.24532000
v -0.75654900 0.18788400 -0.24115700
v -0.93171700 0.17693000 -0.24071900
v -0.92410100 0.18618400 -0.23695800
v -0.92410100 0.23696400 -0.18616200
v -0.92410100 0.24710600 -0.17601100
v -0.72100700 0.25725900 -0.16585900
v -0.80224500 0.25725900 -0.16585900
v -0.69058900 0.18280700 -0.23735900
v -0.67028000 0.24710600 -0.16585900
v -0.64997000 0.21665700 -0.19631400
v -0.66520200 0.20819100 -0.21070200
v -0.67028000 0.20311500 -0.21705600
v -0.64997000 0.18280700 -0.22720800
v -0.66760300 0.17693000 -0.23516800
v -0.93430200 0.17693000 -0.22928900
v -0.93430200 0.20311500 -0.20310600
v -0.93171700 0.21454400 -0.20310600
v -0.93171700 0.24499200 -0.17261500
v -0.92917900 0.25134500 -0.16753900
v -0.72100700 0.26742500 -0.14555500
v -0.69058900 0.25725900 -0.15570700
v -0.80732200 0.26149800 -0.15738700
v -0.80224500 0.26742500 -0.14555500
v -0.66012500 0.25134500 -0.15358900
v -0.64997000 0.24710600 -0.15570700
v -0.62966100 0.21665700 -0.18616200
v -0.61442900 0.19803800 -0.20055000
v -0.64997000 0.19635000 -0.21661800
v -0.62966100 0.18618400 -0.21661800
v -0.62536800 0.17693000 -0.22187600
v -0.65583200 0.17693000 -0.23202800
v -0.93430200 0.17693000 -0.18864600
v -0.93430200 0.24372900 -0.16246300
v -0.93171700 0.27546600 -0.11170400
v -0.92917900 0.28180500 -0.10662800
v -0.75147100 0.28434400 -0.11170400
v -0.72100700 0.27419000 -0.13200800
v -0.69058900 0.26403700 -0.14215900
v -0.68043400 0.26149800 -0.14343700
v -0.80732200 0.27165200 -0.13708300
v -0.78193500 0.28434400 -0.11170400
v -0.63981600 0.25134500 -0.14343700
v -0.63473800 0.24880600 -0.14467900
v -0.61442900 0.21834500 -0.17517100
v -0.60427400 0.19803800 -0.19547400
v -0.61950600 0.19296100 -0.20690400
v -0.60505900 0.17693000 -0.21172400
v -0.93282500 0.17693000 -0.18203600
v -0.92299300 0.21438100 0.12638800
v -0.92908600 0.21845800 0.12638800
v -0.92977900 0.21945800 0.12638800
v -0.93314800 0.22454700 0.12638800
v -0.93430200 0.23357600 0.12638800
v -0.93430200 0.27419000 -0.10155200
v -0.93088600 0.28095500 -0.10155200
v -0.93088600 0.29112100 -0.07106050
v -0.92917900 0.29195900 -0.07613630
v -0.92410100 0.28434400 -0.10155200
v -0.72100700 0.29449800 -0.08121220
v -0.71085200 0.28434400 -0.10155200
v -0.71085200 0.27165200 -0.13328600
v -0.66012500 0.26149800 -0.13328600
v -0.80224500 0.29449800 -0.08121220
v -0.62966100 0.26149800 -0.11294600
v -0.59919700 0.24119100 -0.13328600
v -0.59411900 0.23866500 -0.13452700
v -0.60427400 0.22849900 -0.15486700
v -0.58396500 0.21834500 -0.15486700
v -0.57381000 0.18788400 -0.18532300
v -0.59411900 0.17773100 -0.20562600
v -0.59490400 0.17693000 -0.20624700
v -0.93171700 0.17693000 -0.17725200
v -0.82255400 0.17693000 0.12638800
v -0.93430200 0.25388300 0.12638800
v -0.93430200 0.28434400 -0.07106050
v -0.93088600 0.30127500 -0.00003469
v -0.92917900 0.30211300 -0.00511057
v -0.92410100 0.30466400 -0.00003469
v -0.92410100 0.29449800 -0.07106050
v -0.74131600 0.30466400 -0.03049000
v -0.70069800 0.29449800 -0.07106050
v -0.66012500 0.27419000 -0.10155200
v -0.64997000 0.27165200 -0.10279400
v -0.78193500 0.30466400 -0.03049000
v -0.62458300 0.25896000 -0.11422400
v -0.59919700 0.26149800 -0.08249030
v -0.59411900 0.25896000 -0.08376840
v -0.57381000 0.24880600 -0.08376840
v -0.57381000 0.22849900 -0.13452700
v -0.56365500 0.19803800 -0.16501900
v -0.54251500 0.17693000 -0.17049700
v -0.54574600 0.17693000 -0.17290700
v -0.56444000 0.17693000 -0.18652800
v -0.50217300 0.17693000 0.12638800
v -0.93430200 0.26403700 0.12185900
v -0.93204000 0.26856300 0.12638800
v -0.93430200 0.29449800 -0.00003469
v -0.93171700 0.29957400 0.00507770
v -0.93088600 0.29112100 0.07106410
v -0.92410100 0.29449800 0.07106410
v -0.78193500 0.30466400 0.03045710
v -0.70069800 0.30466400 -0.00003469
v -0.69058900 0.29449800 -0.06090870
v -0.69058900 0.29195900 -0.07233860
v -0.66012500 0.28180500 -0.08249030
v -0.59241200 0.26064800 -0.07445660
v -0.61950600 0.27165200 -0.07233860
v -0.57210200 0.25049400 -0.07445660
v -0.55350000 0.23866500 -0.07361670
v -0.56365500 0.23866500 -0.09392020
v -0.54334600 0.21834500 -0.11422400
v -0.54334600 0.20819100 -0.13452700
v -0.54039200 0.17693000 -0.16834200
v -0.50189600 0.17693000 0.12613200
v -0.50217300 0.17716800 0.12638800
v -0.93430200 0.27419000 0.10151900
v -0.93162500 0.26930100 0.12638800
v -0.93171700 0.27926700 0.10663200
v -0.93430200 0.28434400 0.07106410
v -0.93171700 0.28942100 0.07614000
v -0.92751700 0.29112100 0.07785630
v -0.92410100 0.28434400 0.10151900
v -0.80224500 0.29449800 0.08121590
v -0.74131600 0.30466400 0.03045710
v -0.70069800 0.29449800 0.07106410
v -0.69058900 0.29449800 0.06091240
v -0.67028000 0.29449800 0.03045710
v -0.66012500 0.29449800 0.01015360
v -0.66012500 0.29449800 -0.01018650
v -0.67028000 0.29449800 -0.03049000
v -0.64997000 0.28434400 -0.06090870
v -0.64997000 0.28180500 -0.07233860
v -0.58225700 0.26064800 -0.04403780
v -0.61272100 0.27080200 -0.06430480
v -0.61950600 0.27419000 -0.06090870
v -0.56194700 0.25049400 -0.04403780
v -0.55179300 0.24035300 -0.06430480
v -0.53148300 0.23019900 -0.05418960
v -0.53319100 0.22849900 -0.06346490
v -0.51288200 0.20819100 -0.08376840
v -0.52303600 0.19803800 -0.12437500
v -0.49257200 0.17773100 -0.11422400
v -0.49335700 0.17693000 -0.11542900
v -0.49335700 0.17693000 0.11758700
v -0.49257200 0.17773100 0.11678400
v -0.50272700 0.17773100 0.12638800
v -0.92862500 0.27080200 0.12638800
v -0.92751700 0.28095500 0.10831200
v -0.78193500 0.28434400 0.11170800
v -0.72100700 0.29449800 0.08121590
v -0.70069800 0.27419000 0.12185900
v -0.64489300 0.26911300 0.10663200
v -0.65504800 0.27926700 0.08629170
v -0.66183300 0.28265600 0.07953610
v -0.65167800 0.28265600 0.06938430
v -0.64997000 0.28434400 0.06091240
v -0.63981600 0.28434400 0.04060880
v -0.62966100 0.28434400 0.01015360
v -0.62966100 0.28434400 -0.01018650
v -0.63981600 0.28434400 -0.04064170
v -0.60256600 0.27080200 -0.03388610
v -0.57888700 0.26403700 -0.01018650
v -0.57210200 0.26064800 -0.01354600
v -0.60935100 0.27419000 -0.03049000
v -0.54163800 0.24035300 -0.03388610
v -0.52474400 0.22681100 -0.04739740
v -0.46275400 0.18280700 -0.05079350
v -0.52132900 0.22004600 -0.06430480
v -0.51117400 0.20988000 -0.07445660
v -0.46275400 0.17750500 -0.06138340
v -0.46275400 0.17693000 -0.06251550
v -0.49215700 0.17693000 -0.11404100
v -0.49257200 0.17693000 0.11678400
v -0.46275400 0.17693000 0.06251910
v -0.46275400 0.18280700 0.05076060
v -0.50438900 0.20650300 0.07446020
v -0.51288200 0.20819100 0.08629170
v -0.51454300 0.19635000 0.11506700
v -0.52303600 0.19803800 0.12638800
v -0.52248300 0.19748800 0.12638800
v -0.92636300 0.27192700 0.12638800
v -0.78535100 0.28095500 0.11846300
v -0.77912000 0.27700400 0.12638800
v -0.75147100 0.28434400 0.11170800
v -0.71177600 0.27329000 0.12638800
v -0.68606600 0.26938900 0.12638800
v -0.66520200 0.26911300 0.11678400
v -0.62458300 0.25896000 0.11678400
v -0.61442900 0.25896000 0.10663200
v -0.64489300 0.27926700 0.07614000
v -0.61950600 0.27419000 0.06091240
v -0.60935100 0.27419000 0.03045710
v -0.59919700 0.27419000 -0.00003469
v -0.55179300 0.25049400 -0.00339427
v -0.59241200 0.27080200 -0.00339427
v -0.54505400 0.24710600 0.00336139
v -0.53489900 0.23696400 -0.02709390
v -0.51454300 0.22681100 0.00336139
v -0.49423400 0.20650300 0.04400490
v -0.52474400 0.22681100 0.05415670
v -0.51454300 0.21665700 0.06430840
v -0.54671500 0.22512300 0.10323600
v -0.54334600 0.21834500 0.11678400
v -0.55239300 0.21779500 0.12638800
v -0.74694800 0.27700400 0.12638800
v -0.68274200 0.26856300 0.12638800
v -0.64544700 0.25923500 0.12638800
v -0.64480100 0.25907200 0.12638800
v -0.64212300 0.25839700 0.12638800
v -0.63529200 0.25613400 0.12638800
v -0.62938400 0.25415800 0.12638800
v -0.61498300 0.24908100 0.12638800
v -0.60012000 0.24281600 0.12638800
v -0.58590300 0.23673900 0.12638800
v -0.61442900 0.26911300 0.07614000
v -0.59411900 0.25896000 0.08629170
v -0.59919700 0.26403700 0.07106410
v -0.57888700 0.26403700 0.01015360
v -0.57210200 0.26064800 0.00675748
v -0.56536300 0.25725900 0.01351320
v -0.53489900 0.23696400 0.03381670
v -0.54505400 0.23696400 0.06430840
v -0.54671500 0.23527600 0.07278040
v -0.55687000 0.23527600 0.09308390
v -0.56365500 0.23866500 0.09644350
v -0.55350000 0.22849900 0.10663200
v -0.56536300 0.22681100 0.12521900
v -0.56591700 0.22624800 0.12638800
v -0.57381000 0.24880600 0.08629170
v -0.58567200 0.25725900 0.07446020
v -0.57551800 0.25725900 0.04400490
v -0.55520800 0.24710600 0.04400490
v -0.56536300 0.24710600 0.07446020
v -0.56702500 0.24541700 0.08293220
f 137 163 164
f 137 164 165
f 137 165 166
f 137 166 167
f 140 169 170
f 137 168 138
f 138 168 139
f 139 169 140
f 140 170 205
f 137 162 163
f 137 167 168
f 139 168 169
f 130 132 131
f 135 196 162
f 135 161 196
f 134 161 135
f 134 160 161
f 133 160 134
f 130 133 132
f 130 160 133
f 129 160 130
f 129 159 160
f 128 130 131
f 126 157 127
f 140 205 171
f 127 157 158
f 136 162 137
f 140 171 141
f 152 179 153
f 141 172 142
f 157 185 186
f 126 156 157
f 156 185 157
f 154 184 155
f 154 183 184
f 154 182 183
f 154 179 182
f 153 179 154
f 152 181 179
f 152 180 181
f 150 209 178
f 150 177 209
f 150 152 151
f 150 180 152
f 150 179 180
f 150 178 179
f 149 177 150
f 148 175 177
f 147 172 176
f 146 176 173
f 146 147 176
f 145 175 148
f 145 174 175
f 145 205 174
f 145 173 205
f 143 172 147
f 142 172 143
f 141 171 172
f 125 154 155
f 101 122 123
f 124 153 125
f 112 133 134
f 111 133 112
f 111 132 133
f 110 132 111
f 110 131 132
f 109 131 110
f 108 130 128
f 108 129 130
f 107 108 128
f 106 126 127
f 103 124 125
f 102 124 103
f 101 124 102
f 101 123 124
f 100 122 101
f 100 121 122
f 100 149 121
f 100 120 149
f 99 120 100
f 99 118 120
f 98 146 118
f 98 119 146
f 98 118 99
f 94 117 95
f 93 117 94
f 93 116 117
f 157 186 187
f 112 134 135
f 125 153 154
f 112 135 113
f 113 162 136
f 123 153 124
f 123 152 153
f 122 152 123
f 121 152 122
f 121 151 152
f 121 150 151
f 121 149 150
f 120 177 149
f 120 148 177
f 119 147 146
f 119 143 147
f 119 144 143
f 118 173 145
f 118 146 173
f 118 148 120
f 118 145 148
f 116 144 117
f 115 144 116
f 115 143 144
f 115 142 143
f 114 142 115
f 114 141 142
f 114 140 141
f 114 139 140
f 114 138 139
f 114 137 138
f 114 136 137
f 113 135 162
f 157 187 188
f 226 240 239
f 157 189 190
f 212 235 213
f 212 234 235
f 212 233 234
f 210 212 211
f 210 233 212
f 208 210 209
f 208 233 210
f 208 232 233
f 207 230 231
f 206 232 208
f 206 231 232
f 205 230 207
f 213 235 236
f 204 230 205
f 203 229 230
f 203 228 229
f 203 227 228
f 201 228 227
f 201 226 228
f 200 226 201
f 200 225 226
f 200 224 225
f 200 223 224
f 200 222 223
f 200 221 222
f 200 220 221
f 203 230 204
f 214 236 237
f 214 237 215
f 215 237 238
f 93 115 116
f 242 244 243
f 242 245 244
f 241 246 245
f 237 241 239
f 237 239 238
f 236 241 237
f 236 246 241
f 235 246 236
f 234 246 235
f 234 245 246
f 234 244 245
f 233 244 234
f 232 243 244
f 232 244 233
f 230 232 231
f 230 243 232
f 229 243 230
f 229 242 243
f 228 242 229
f 228 245 242
f 228 241 245
f 226 241 228
f 226 239 241
f 216 239 240
f 215 239 216
f 215 238 239
f 200 219 220
f 200 218 219
f 199 218 200
f 198 218 199
f 169 204 170
f 169 203 204
f 168 203 169
f 168 227 203
f 168 202 227
f 167 202 168
f 165 167 166
f 165 202 167
f 164 202 165
f 164 227 202
f 164 201 227
f 164 200 201
f 164 199 200
f 163 199 164
f 163 198 199
f 163 197 198
f 163 196 197
f 162 196 163
f 161 217 196
f 161 195 217
f 161 194 195
f 160 194 161
f 160 193 194
f 159 193 160
f 157 192 158
f 157 191 192
f 157 190 191
f 170 204 205
f 157 188 189
f 171 205 176
f 173 176 205
f 196 217 197
f 193 195 194
f 191 215 216
f 189 215 191
f 189 191 190
f 188 215 189
f 188 214 215
f 188 236 214
f 188 213 236
f 187 213 188
f 187 212 213
f 187 211 212
f 187 210 211
f 179 210 187
f 179 209 210
f 179 181 180
f 179 183 182
f 179 186 183
f 179 187 186
f 178 209 179
f 177 208 209
f 177 206 208
f 175 231 206
f 175 207 231
f 175 206 177
f 174 207 175
f 174 205 207
f 171 176 172
f 93 114 115
f 66 68 67
f 90 96 91
f 25 42 43
f 25 41 42
f 25 40 41
f 24 40 25
f 23 40 24
f 22 40 23
f 22 39 40
f 22 57 39
f 22 38 57
f 21 51 36
f 21 33 51
f 21 38 22
f 25 43 26
f 21 37 38
f 21 36 54
f 20 24 25
f 19 34 35
f 18 35 32
f 18 19 35
f 18 33 21
f 18 32 33
f 17 34 19
f 17 31 34
f 17 30 31
f 17 29 30
f 16 29 17
f 21 54 37
f 27 44 65
f 27 65 86
f 27 86 107
f 37 56 38
f 37 55 56
f 37 54 55
f 36 74 54
f 36 51 74
f 35 52 53
f 34 52 35
f 33 50 51
f 32 53 48
f 32 35 53
f 32 50 33
f 32 49 50
f 32 48 49
f 31 52 34
f 31 47 52
f 31 46 47
f 30 46 31
f 30 45 46
f 29 45 30
f 28 45 29
f 27 45 28
f 27 66 45
f 27 87 66
f 27 109 87
f 27 131 109
f 27 128 131
f 27 107 128
f 15 29 16
f 38 56 57
f 14 29 15
f 14 27 28
f 1 14 4
f 1 27 14
f 1 44 27
f 1 60 44
f 1 84 60
f 1 85 84
f 1 106 85
f 1 126 106
f 1 156 126
f 1 185 156
f 1 186 185
f 1 183 186
f 1 4 2
f 1 184 183
f 1 125 155
f 1 103 125
f 1 104 103
f 1 105 104
f 1 83 105
f 1 59 83
f 1 42 59
f 1 43 42
f 1 26 43
f 1 12 26
f 1 3 12
f 1 2 3
f 1 155 184
f 2 4 5
f 2 5 6
f 2 6 7
f 12 20 25
f 10 24 20
f 10 23 24
f 10 22 23
f 10 21 22
f 10 18 21
f 10 12 11
f 10 20 12
f 9 18 10
f 8 19 18
f 8 17 19
f 8 18 9
f 7 17 8
f 6 17 7
f 6 16 17
f 6 15 16
f 4 6 5
f 4 15 6
f 4 14 15
f 3 13 12
f 2 13 3
f 2 12 13
f 2 11 12
f 2 10 11
f 2 9 10
f 2 8 9
f 2 7 8
f 14 28 29
f 39 58 40
f 12 25 26
f 40 58 41
f 74 94 95
f 72 74 73
f 72 94 74
f 72 93 94
f 71 96 92
f 71 75 96
f 71 93 72
f 71 92 93
f 70 91 75
f 69 90 91
f 69 89 90
f 68 89 69
f 75 91 96
f 68 88 89
f 68 87 109
f 92 114 93
f 66 87 68
f 61 63 62
f 61 64 63
f 61 65 64
f 61 86 65
f 61 108 86
f 61 129 108
f 61 159 129
f 61 193 159
f 61 195 193
f 68 109 88
f 76 95 117
f 76 117 144
f 76 144 119
f 39 57 58
f 90 92 96
f 90 114 92
f 90 136 114
f 90 113 136
f 90 112 113
f 90 111 112
f 88 90 89
f 88 111 90
f 88 110 111
f 88 109 110
f 86 108 107
f 82 105 83
f 81 105 82
f 81 104 105
f 81 103 104
f 81 102 103
f 80 101 102
f 78 80 79
f 78 101 80
f 78 100 101
f 78 99 100
f 77 97 99
f 77 99 78
f 76 99 97
f 76 98 99
f 76 119 98
f 61 217 195
f 61 197 217
f 76 97 77
f 61 218 198
f 54 76 77
f 54 95 76
f 54 74 95
f 53 70 75
f 51 73 74
f 49 51 50
f 49 73 51
f 49 72 73
f 49 71 72
f 48 75 71
f 48 53 75
f 47 53 52
f 47 70 53
f 54 77 78
f 47 91 70
f 47 68 69
f 47 67 68
f 46 67 47
f 46 66 67
f 45 66 46
f 44 64 65
f 44 63 64
f 44 62 63
f 44 61 62
f 44 60 61
f 42 58 59
f 61 198 197
f 41 58 42
f 47 69 91
f 54 78 55
f 48 71 49
f 55 78 79
f 61 219 218
f 61 220 219
f 61 221 220
f 61 222 221
f 61 223 222
f 61 224 223
f 61 225 224
f 61 226 225
f 61 216 240
f 61 191 216
f 61 192 191
f 61 158 192
f 61 127 158
f 61 240 226
f 61 85 106
f 55 79 56
f 61 106 127
f 56 79 80
f 56 80 57
f 57 80 102
f 57 81 82
f 57 102 81
f 57 59 58
f 59 82 83
f 60 84 61
f 61 84 85
f 57 82 59