# https://github.com/mikedh/trimesh
v -0.54178900 0.17691800 -0.16976200
v -0.82255600 0.00601426 -0.18851200
v -0.82535300 0.17691800 -0.16976200
v -0.86656500 -0.00339885 -0.13540500
v -0.88014000 0.02369680 -0.10830600
v -0.86656500 -0.02370720 -0.13540500
v -0.88690000 -0.04401550 -0.09477170
v -0.82541100 -0.15498600 -0.18851200
v -0.47861000 0.00601426 -0.18851200
v -0.54532600 -0.15506500 -0.18851200
v -0.84658100 -0.15506500 -0.04334880
v -0.85641900 -0.14555700 -0.04400370
v -0.87671100 -0.12524900 -0.02370270
v -0.86656500 -0.13540300 0.01689920
v -0.88013700 -0.11846900 -0.01693570
v -0.88690000 -0.10492500 -0.02370270
v -0.88856900 -0.09647350 -0.03552160
v -0.89366400 -0.09139640 -0.02033480
v -0.89366400 -0.09139640 -0.01016870
v -0.89028200 -0.09816060 -0.00680083
v -0.88013700 -0.10831500 0.04399840
v -0.85641900 -0.14555700 0.02706530
v -0.84965500 -0.14893200 0.04399840
v -0.82255600 -0.15506500 0.13006700
v -0.84658100 -0.15506500 0.02772020
v -0.46275400 -0.15506500 -0.10525000
v -0.51546000 -0.15506500 -0.16493600
v -0.46275400 -0.13540300 -0.13540500
v -0.51572300 -0.12630500 -0.18851200
v -0.49508000 -0.11678200 -0.17769100
v -0.46275400 -0.10492500 -0.15570600
v -0.46275400 -0.09715150 -0.15960400
v -0.46275400 -0.05077970 -0.18277400
v -0.50259100 -0.10155100 -0.18851200
v -0.48080600 -0.05650330 -0.18851200
v -0.53605900 -0.14661400 -0.18851200
v -0.53570700 -0.14724400 -0.18785700
v -0.47861000 -0.05077970 -0.18851200
v -0.46275400 0.00601426 -0.18277400
v -0.46275400 -0.13806800 0.13006700
v -0.46275400 -0.15506500 0.10524400
v -0.48251900 -0.15506500 0.12679300
v -0.48554900 -0.15329900 0.13006700
v -0.48906300 -0.15506500 0.13006700
v -0.46275400 0.00601426 0.13006700
v -0.85909800 0.00601426 0.13006700
v -0.85909800 -0.04062560 0.13006700
v -0.85795600 -0.04521390 0.13006700
v -0.85641900 -0.06093390 0.12523300
v -0.87671100 -0.04062560 0.10493200
v -0.86656500 -0.02031720 0.12523300
v -0.88690000 -0.01016300 0.09476640
v -0.89366400 -0.04062560 0.07106630
v -0.88097100 -0.05077970 0.09264590
v -0.88097100 -0.07110390 0.08251100
v -0.89111700 -0.05077970 0.07234490
v -0.89366400 -0.06093390 0.06093140
v -0.90381000 -0.06093390 0.03046440
v -0.89028200 -0.06771390 0.06429930
v -0.87842400 -0.07616520 0.08375830
v -0.87842400 -0.10662800 0.05329130
v -0.88097100 -0.10155100 0.05204390
v -0.90042800 -0.06771390 0.03383230
v -0.90381000 -0.06093390 -0.03043850
v -0.91140800 -0.00508596 -0.01525180
v -0.90381000 -0.04062560 0.04059930
v -0.90381000 -0.01016300 0.05076540
v -0.89366400 -0.01016300 0.08123240
v -0.90381000 -0.00000887 0.05076540
v -0.90382400 0.04062660 0.03046350
v -0.89111400 0.02540320 0.07614990
v -0.89111400 0.04571220 0.06600380
v -0.88096400 0.02540320 0.09647100
v -0.89111700 -0.00508596 0.08631550
v -0.87671300 0.02031760 0.10493600
v -0.87714700 0.03047210 0.10154400
v -0.86656500 -0.00000887 0.12523300
v -0.86092300 0.02483440 0.12638800
v -0.82257700 0.17691800 0.12638800
v -0.50214200 0.17691800 0.12638800
v -0.46275400 0.13991300 0.12638800
v -0.49255500 0.17691800 0.11676300
v -0.46275400 0.17691800 0.06252510
v -0.46275400 0.15570500 0.10493600
v -0.46275400 0.17691800 -0.06253270
v -0.49216500 0.17691800 -0.11404600
v -0.52300700 0.16754900 -0.16500800
v -0.53970700 0.17551200 -0.16976200
v -0.53497900 0.17181500 -0.16976200
v -0.52279000 0.15762900 -0.16976200
v -0.48908500 0.11538800 -0.16976200
v -0.46275400 0.10493300 -0.15570300
v -0.46275400 0.13539600 -0.13538200
v -0.46275400 0.15570500 -0.10491400
v -0.46275400 0.07686160 -0.16976200
v -0.87671300 0.10493300 0.02028840
v -0.88096400 0.09646800 0.02536140
v -0.88096400 0.08633020 0.04568260
v -0.90126500 0.04571220 0.03553650
v -0.89111400 0.05586670 0.05582870
v -0.89367400 0.07109010 0.01014230
v -0.89111400 0.07617570 0.01521530
v -0.88352300 0.09141580 -0.03044210
v -0.89367400 0.07109010 -0.02032500
v -0.87671300 0.10493300 -0.03044210
v -0.90382400 0.04062660 -0.03044210
v -0.91057400 -0.00339885 -0.02033480
v -0.90381000 -0.02031720 -0.06090560
v -0.90381000 -0.00000887 -0.06090560
v -0.89367400 0.02031760 -0.08123050
v -0.89029000 0.02369680 -0.08801390
v -0.89367400 0.04062660 -0.07108440
v -0.90382400 0.02031760 -0.05076330
v -0.90126500 0.04189800 -0.04061720
v -0.90126500 0.03174350 -0.05076330
v -0.89111400 0.05205250 -0.07108440
v -0.89366400 -0.04062560 -0.08123770
v -0.89366400 -0.06093390 -0.07107160
v -0.88856900 -0.05585680 -0.08632080
v -0.88856900 -0.08631940 -0.05585370
v -0.89871500 -0.06601100 -0.04568760
v -0.90381000 -0.05077970 -0.04060460
v -0.88729700 0.05078110 0.07107680
v -0.87714700 0.05078110 0.09139800
v -0.87671100 -0.06093390 0.09476640
f 99 98 97
f 97 98 79
f 97 79 96
f 96 79 3
f 85 40 39
f 1 3 80
f 9 2 1
f 81 45 85
f 45 40 85
f 95 39 9
f 79 80 3
f 99 79 98
f 102 97 101
f 100 72 79
f 100 99 72
f 99 70 72
f 99 101 70
f 102 101 99
f 102 99 97
f 103 101 97
f 103 104 101
f 103 3 104
f 103 105 3
f 103 96 105
f 89 90 9
f 105 96 3
f 100 79 99
f 103 97 96
f 88 87 89
f 91 95 9
f 45 80 79
f 104 3 106
f 81 80 45
f 82 80 81
f 82 83 80
f 84 83 82
f 84 81 83
f 84 82 81
f 83 81 85
f 83 85 80
f 85 1 80
f 86 1 85
f 87 1 86
f 90 91 9
f 88 1 87
f 88 89 9
f 87 90 89
f 87 91 90
f 87 92 91
f 87 93 92
f 87 86 93
f 94 93 86
f 94 85 93
f 94 86 85
f 93 85 39
f 95 93 39
f 92 93 95
f 92 95 91
f 88 9 1
f 104 106 101
f 120 118 8
f 70 106 65
f 18 64 120
f 18 19 64
f 18 120 17
f 17 120 8
f 17 8 13
f 122 118 64
f 122 108 118
f 122 65 108
f 122 64 65
f 123 79 72
f 123 124 79
f 123 72 124
f 73 124 72
f 73 76 124
f 124 76 79
f 51 47 46
f 20 63 19
f 20 21 63
f 62 63 21
f 62 21 61
f 61 21 24
f 60 61 24
f 60 24 55
f 125 55 24
f 125 50 55
f 125 24 50
f 46 45 79
f 121 120 64
f 121 64 118
f 121 118 120
f 119 8 118
f 107 65 106
f 107 108 65
f 109 108 107
f 50 24 49
f 110 108 109
f 110 111 108
f 110 112 111
f 110 113 112
f 110 109 113
f 109 107 113
f 113 107 106
f 114 113 106
f 115 113 114
f 70 101 106
f 115 116 113
f 114 3 116
f 114 106 3
f 116 3 112
f 113 116 112
f 111 112 3
f 111 3 5
f 111 5 7
f 117 111 7
f 117 108 111
f 117 118 108
f 117 119 118
f 117 8 119
f 117 7 8
f 115 114 116
f 78 46 79
f 33 39 32
f 77 78 76
f 11 10 25
f 10 26 25
f 27 26 10
f 27 28 26
f 29 28 27
f 30 28 29
f 30 31 28
f 30 32 31
f 30 33 32
f 30 29 33
f 34 33 29
f 34 35 33
f 34 29 35
f 29 10 35
f 36 10 29
f 36 37 10
f 36 29 37
f 37 29 27
f 37 27 10
f 35 10 9
f 38 35 9
f 38 33 35
f 38 9 33
f 33 9 39
f 32 39 26
f 28 32 26
f 31 32 28
f 12 11 25
f 26 39 40
f 22 14 12
f 23 22 25
f 78 79 76
f 2 3 1
f 4 3 2
f 4 5 3
f 6 5 4
f 6 7 5
f 6 8 7
f 6 4 8
f 4 2 8
f 9 8 2
f 10 8 9
f 11 8 10
f 12 8 11
f 12 13 8
f 14 13 12
f 15 13 14
f 16 13 15
f 16 17 13
f 16 18 17
f 16 15 18
f 15 19 18
f 15 20 19
f 15 14 21
f 22 21 14
f 23 21 22
f 23 24 21
f 23 25 24
f 22 12 25
f 41 26 40
f 15 21 20
f 41 40 42
f 58 19 63
f 58 64 19
f 58 65 64
f 66 65 58
f 66 67 65
f 66 53 67
f 66 58 53
f 68 67 53
f 69 67 68
f 69 65 67
f 69 70 65
f 71 70 69
f 71 72 70
f 71 73 72
f 71 74 73
f 71 69 68
f 68 52 74
f 68 53 52
f 73 74 52
f 75 73 52
f 75 76 73
f 75 77 76
f 75 52 77
f 77 52 51
f 77 51 46
f 77 46 78
f 41 42 26
f 59 58 63
f 59 63 62
f 71 68 74
f 59 61 60
f 43 42 40
f 43 44 42
f 59 62 61
f 43 40 44
f 44 40 24
f 44 24 42
f 42 24 26
f 25 26 24
f 46 24 45
f 47 24 46
f 48 24 47
f 48 49 24
f 48 50 49
f 48 47 50
f 45 24 40
f 50 51 52
f 59 57 58
f 50 47 51
f 57 53 58
f 56 54 53
f 59 60 55
f 56 53 57
f 59 55 57
f 56 55 54
f 54 55 50
f 54 50 53
f 50 52 53
f 56 57 55