# https://github.com/mikedh/trimesh
v -0.74694800 0.27701400 0.12640500
v -0.72437700 0.26064700 0.15910800
v -0.72437700 0.27080700 0.13879500
v -0.72100700 0.27417600 0.13202400
v -0.71177600 0.27327400 0.12640500
v -0.77912000 0.27701400 0.12640500
v -0.71763800 0.25725100 0.16587800
v -0.80566000 0.26064700 0.15910800
v -0.71763800 0.26741100 0.14556600
v -0.70577500 0.26910900 0.13710200
v -0.68551200 0.26910900 0.12694600
v -0.68606600 0.26937400 0.12640500
v -0.92636300 0.27192100 0.12640500
v -0.80224500 0.27417600 0.13202400
v -0.80566000 0.27080700 0.13879500
v -0.75825600 0.23695800 0.19634700
v -0.72779200 0.22679800 0.20650400
v -0.70748300 0.21663900 0.21664200
v -0.66691000 0.24709200 0.16587800
v -0.68722000 0.25725100 0.15572200
v -0.79887500 0.25725100 0.16587800
v -0.92751700 0.25048700 0.16926400
v -0.67535700 0.25894900 0.14725900
v -0.65504800 0.25894900 0.13710200
v -0.67591100 0.26685400 0.12640500
v -0.68274200 0.26855200 0.12640500
v -0.68541900 0.26921500 0.12640500
v -0.92862500 0.27080700 0.12640500
v -0.92751700 0.27080700 0.12863900
v -0.92073200 0.24709200 0.17603500
v -0.78872100 0.22679800 0.20650400
v -0.75825600 0.19631900 0.23695500
v -0.72779200 0.20647900 0.22679900
v -0.71763800 0.16586600 0.25726800
v -0.66691000 0.16586600 0.24711100
v -0.64660100 0.19631900 0.21664200
v -0.65504800 0.20817700 0.20819600
v -0.67706500 0.21663900 0.20650400
v -0.64660100 0.21663900 0.19634700
v -0.64660100 0.24709200 0.15572200
v -0.65504800 0.24878900 0.15741500
v -0.93171700 0.24878900 0.16757100
v -0.93171700 0.22849600 0.18788400
v -0.92751700 0.22003400 0.19973300
v -0.92073200 0.23695800 0.18619100
v -0.63473800 0.24878900 0.14725900
v -0.64212300 0.25839200 0.12640500
v -0.64544700 0.25924100 0.12640500
v -0.93162500 0.26929500 0.12640500
v -0.93171700 0.26910900 0.12694600
v -0.80903000 0.21663900 0.21664200
v -0.78872100 0.20647900 0.22679900
v -0.92073200 0.17602600 0.24711100
v -0.79887500 0.16586600 0.25726800
v -0.72100700 0.13204400 0.27419500
v -0.71763800 0.14554600 0.26742400
v -0.68722000 0.15570600 0.25726800
v -0.65504800 0.15740400 0.24880400
v -0.64660100 0.15570600 0.24711100
v -0.62629100 0.18615900 0.21664200
v -0.60427400 0.19801700 0.19804000
v -0.62629100 0.21663900 0.18619100
v -0.93204000 0.26855200 0.12640500
v -0.93430200 0.24372300 0.16249300
v -0.93430200 0.19295000 0.21327500
v -0.93171700 0.16756400 0.24880400
v -0.92751700 0.20987400 0.20988900
v -0.62938400 0.25414800 0.12640500
v -0.63700000 0.25669400 0.12640500
v -0.61442900 0.21833600 0.17772700
v -0.60427400 0.22849600 0.15741500
v -0.59411900 0.23863000 0.13710200
v -0.92751700 0.16923500 0.25049700
v -0.80566000 0.15910200 0.26065300
v -0.75147100 0.11172400 0.28435100
v -0.72100700 0.08124480 0.29450700
v -0.70069800 0.07111150 0.29450700
v -0.70069800 0.12188400 0.27419500
v -0.64489300 0.10665800 0.26911700
v -0.67028000 0.13204400 0.26403900
v -0.70577500 0.13711100 0.26911700
v -0.80224500 0.13204400 0.27419500
v -0.67535700 0.14724400 0.25896000
v -0.65504800 0.13711100 0.25896000
v -0.63473800 0.14724400 0.24880400
v -0.61442900 0.17769700 0.21833500
v -0.59411900 0.13711100 0.23864800
v -0.57381000 0.13711100 0.22849100
v -0.56365500 0.16756400 0.19804000
v -0.57381000 0.18785700 0.18788400
v -0.57381000 0.22849600 0.13710200
v -0.93430200 0.25388300 0.12640500
v -0.93430200 0.25388300 0.14218000
v -0.93430200 0.16247000 0.24372600
v -0.93430200 0.12188400 0.26403900
v -0.93171700 0.10665800 0.27927300
v -0.92751700 0.12864900 0.27080900
v -0.61498300 0.24908100 0.12640500
v -0.61442900 0.24878900 0.12694600
v -0.58590300 0.23672000 0.12640500
v -0.60012000 0.24282100 0.12640500
v -0.80566000 0.13880800 0.27080900
v -0.78193500 0.11172400 0.28435100
v -0.74131600 0.03047220 0.30464600
v -0.80224500 0.08124480 0.29450700
v -0.72100700 0.01017900 0.30464600
v -0.69058900 0.06095170 0.29450700
v -0.64997000 0.06095170 0.28435100
v -0.64489300 0.07617820 0.27927300
v -0.65504800 0.08633800 0.27927300
v -0.61442900 0.10665800 0.25896000
v -0.62458300 0.11679100 0.25896000
v -0.92410100 0.10156500 0.28435100
v -0.59411900 0.08633800 0.25896000
v -0.57381000 0.08633800 0.24880400
v -0.55350000 0.10665800 0.22849100
v -0.54334600 0.11679100 0.21833500
v -0.54334600 0.13711100 0.20819600
v -0.52303600 0.16756400 0.16757100
v -0.56365500 0.19801700 0.16757100
v -0.54334600 0.20817700 0.13710200
v -0.55239300 0.21777900 0.12640500
v -0.56591700 0.22621500 0.12640500
v -0.93430200 0.23356300 0.12640500
v -0.93430200 0.10156500 0.27419500
v -0.93430200 0.07111150 0.28435100
v -0.93171700 0.07617820 0.28942900
v -0.92751700 0.07787590 0.29112200
v -0.92751700 0.10832900 0.28096600
v -0.78193500 0.03047220 0.30464600
v -0.92410100 0.07111150 0.29450700
v -0.72100700 0.00601427 0.30464600
v -0.71205200 0.00601427 0.30346000
v -0.66012500 0.01017900 0.29450700
v -0.67028000 0.03047220 0.29450700
v -0.63981600 0.04063200 0.28435100
v -0.61950600 0.06095170 0.27419500
v -0.61442900 0.07617820 0.26911700
v -0.59919700 0.07111150 0.26403900
v -0.58567200 0.07448040 0.25726800
v -0.56536300 0.07448040 0.24711100
v -0.56702500 0.08294260 0.24541900
v -0.54671500 0.10326200 0.22510600
v -0.50438900 0.07448040 0.20650400
v -0.51288200 0.08633800 0.20819600
v -0.52303600 0.12695100 0.19804000
v -0.49257200 0.11679100 0.17772700
v -0.46275400 0.13541300 0.13541000
v -0.52303600 0.19801700 0.12694600
v -0.52303600 0.19801700 0.12640500
v -0.93314800 0.22454400 0.12640500
v -0.93430200 0.22340300 0.13202400
v -0.93430200 0.00601427 0.28435100
v -0.93148700 0.00601427 0.29864300
v -0.93088600 0.07111150 0.29112200
v -0.92714800 0.00601427 0.30164500
v -0.80224500 0.02031230 0.30464600
v -0.92788600 0.00601427 0.30127800
v -0.81655400 0.00601427 0.30464600
v -0.66012500 0.00601427 0.29450700
v -0.62966100 0.01017900 0.28435100
v -0.60935100 0.03047220 0.27419500
v -0.57888700 0.01017900 0.26403900
v -0.57551800 0.04402750 0.25726800
v -0.55520800 0.04402750 0.24711100
v -0.52474400 0.05418730 0.22679900
v -0.52640600 0.06264940 0.22510600
v -0.51454300 0.06432060 0.21664200
v -0.46275400 0.05079180 0.18280600
v -0.46275400 0.05519530 0.18060700
v -0.46275400 0.06535520 0.17552900
v -0.46275400 0.09819560 0.15910800
v -0.46275400 0.10496000 0.15572200
v -0.46275400 0.13880800 0.12863900
v -0.46275400 0.13992300 0.12640500
v -0.93144000 0.00601427 0.25674400
v -0.93430200 0.02031230 0.25388200
v -0.86349600 0.00601427 0.12640500
v -0.93430200 0.00601427 0.26403900
v -0.92940900 0.00601427 0.30051000
v -0.81239900 0.01017900 0.30464600
v -0.62966100 0.00601427 0.28435100
v -0.60039700 0.00601427 0.27299100
v -0.58304100 0.00601427 0.26609800
v -0.57888700 0.00601427 0.26403900
v -0.57210200 0.00678356 0.26065300
v -0.56536300 0.01354790 0.25726800
v -0.53489900 0.03386760 0.23695500
v -0.49423400 0.04402750 0.20650400
v -0.50438900 0.02370780 0.21664200
v -0.51509700 0.00601427 0.22627500
v -0.46275400 0.00601427 0.18280600
v -0.46275400 0.00601427 0.12640500
v -0.57210200 0.00601427 0.26065300
v -0.56536300 0.00601427 0.25726800
v -0.54556100 0.00601427 0.24658800
f 113 128 131
f 107 135 108
f 108 135 134
f 108 134 136
f 108 138 109
f 108 137 138
f 113 129 128
f 106 135 107
f 108 136 137
f 106 134 135
f 104 159 132
f 103 113 105
f 106 132 133
f 105 131 130
f 105 113 131
f 104 132 106
f 104 130 157
f 104 181 159
f 104 157 181
f 114 139 140
f 106 133 134
f 114 140 141
f 122 149 150
f 114 138 137
f 126 154 127
f 98 99 101
f 127 154 155
f 126 153 154
f 124 151 152
f 121 149 122
f 119 121 120
f 119 149 121
f 119 148 149
f 119 147 148
f 119 146 147
f 118 146 119
f 117 146 118
f 117 145 146
f 117 144 145
f 117 143 144
f 116 143 117
f 115 143 116
f 115 142 143
f 115 141 142
f 114 137 139
f 114 141 115
f 97 129 102
f 77 104 106
f 96 128 129
f 79 84 80
f 79 85 84
f 79 112 85
f 79 111 112
f 79 114 111
f 79 138 114
f 79 109 138
f 79 110 109
f 77 79 78
f 81 84 83
f 77 110 79
f 77 108 109
f 77 107 108
f 77 106 107
f 76 130 104
f 76 105 130
f 76 104 77
f 75 105 76
f 127 155 128
f 75 103 105
f 77 109 110
f 82 102 129
f 82 129 113
f 82 113 103
f 96 127 128
f 96 126 127
f 96 125 126
f 95 125 96
f 91 123 100
f 91 122 123
f 91 121 122
f 91 120 121
f 90 119 120
f 89 119 90
f 89 118 119
f 88 118 89
f 88 117 118
f 88 116 117
f 88 115 116
f 87 111 114
f 87 112 111
f 87 115 88
f 87 114 115
f 85 87 86
f 85 112 87
f 96 129 97
f 128 155 131
f 169 191 192
f 130 156 157
f 161 183 184
f 161 182 183
f 156 181 157
f 156 159 181
f 155 180 158
f 154 180 155
f 151 178 176
f 151 177 152
f 151 176 177
f 161 184 163
f 149 175 150
f 148 174 149
f 148 175 174
f 148 193 175
f 148 192 193
f 148 169 192
f 148 170 169
f 148 171 170
f 148 172 171
f 148 173 172
f 149 174 175
f 161 163 162
f 163 184 185
f 163 185 194
f 73 102 74
f 188 196 191
f 188 190 189
f 188 191 190
f 187 196 188
f 187 195 196
f 186 195 187
f 186 194 195
f 176 179 177
f 169 190 191
f 169 189 190
f 166 168 167
f 166 169 168
f 166 189 169
f 166 188 189
f 165 188 166
f 165 187 188
f 164 187 165
f 163 187 164
f 163 186 187
f 163 194 186
f 147 173 148
f 130 131 156
f 147 172 173
f 147 170 171
f 132 183 182
f 132 184 183
f 132 185 184
f 132 194 185
f 132 195 194
f 132 196 195
f 132 191 196
f 132 192 191
f 132 193 192
f 132 182 160
f 132 178 193
f 132 179 176
f 132 153 179
f 132 154 153
f 132 180 154
f 132 158 180
f 132 156 158
f 132 159 156
f 131 158 156
f 131 155 158
f 132 176 178
f 132 160 133
f 133 160 134
f 134 160 182
f 147 169 170
f 145 147 146
f 145 169 147
f 144 169 145
f 144 168 169
f 144 167 168
f 142 144 143
f 142 167 144
f 141 167 142
f 141 166 167
f 141 165 166
f 140 165 141
f 140 164 165
f 139 164 140
f 139 163 164
f 137 163 139
f 137 162 163
f 137 161 162
f 136 161 137
f 134 161 136
f 134 182 161
f 147 171 172
f 73 97 102
f 58 84 85
f 72 100 101
f 17 31 32
f 17 33 18
f 17 32 33
f 16 31 17
f 16 30 31
f 16 21 30
f 13 15 14
f 13 29 15
f 13 28 29
f 18 33 34
f 11 27 12
f 11 25 26
f 11 24 25
f 10 24 11
f 10 23 24
f 9 23 10
f 9 20 23
f 8 30 21
f 8 22 30
f 8 29 22
f 11 26 27
f 18 34 35
f 18 35 36
f 18 36 37
f 28 49 29
f 24 48 25
f 24 47 48
f 24 46 47
f 23 46 24
f 23 41 46
f 22 45 30
f 22 44 45
f 22 43 44
f 22 42 43
f 22 50 42
f 22 29 50
f 19 23 20
f 19 41 23
f 19 46 41
f 19 40 46
f 19 62 40
f 19 39 62
f 19 38 39
f 18 38 19
f 18 37 38
f 7 21 16
f 29 49 50
f 7 20 9
f 7 18 19
f 1 175 193
f 1 150 175
f 1 122 150
f 1 123 122
f 1 100 123
f 1 101 100
f 1 98 101
f 1 68 98
f 1 69 68
f 1 193 178
f 1 47 69
f 1 25 48
f 1 26 25
f 1 27 26
f 1 12 27
f 1 5 12
f 1 4 5
f 1 3 4
f 1 2 3
f 72 101 99
f 1 48 47
f 1 178 151
f 1 151 124
f 1 124 92
f 7 17 18
f 7 16 17
f 6 15 8
f 6 14 15
f 6 13 14
f 4 12 5
f 4 11 12
f 4 10 11
f 4 9 10
f 3 9 4
f 2 21 7
f 2 8 21
f 2 9 3
f 2 7 9
f 1 8 2
f 1 6 8
f 1 13 6
f 1 28 13
f 1 49 28
f 1 63 49
f 1 92 63
f 7 19 20
f 30 45 51
f 8 15 29
f 31 51 52
f 61 71 70
f 61 120 91
f 61 90 120
f 61 89 90
f 61 88 89
f 61 87 88
f 61 86 87
f 60 86 61
f 59 86 60
f 61 70 62
f 59 85 86
f 57 81 83
f 55 103 75
f 55 82 103
f 55 57 56
f 55 81 57
f 55 84 81
f 55 80 84
f 55 79 80
f 55 78 79
f 58 83 84
f 63 92 93
f 63 93 64
f 64 93 92
f 72 91 100
f 30 51 31
f 71 91 72
f 68 99 98
f 68 72 99
f 66 73 67
f 66 97 73
f 66 96 97
f 66 95 96
f 66 94 95
f 65 94 66
f 64 94 65
f 64 95 94
f 64 125 95
f 64 126 125
f 64 153 126
f 64 179 153
f 64 177 179
f 64 152 177
f 64 124 152
f 64 92 124
f 55 77 78
f 55 76 77
f 61 91 71
f 32 34 33
f 37 61 39
f 37 39 38
f 36 61 37
f 36 60 61
f 35 60 36
f 35 59 60
f 35 85 59
f 35 83 58
f 35 57 83
f 39 61 62
f 34 82 55
f 34 74 102
f 34 54 74
f 34 57 35
f 34 56 57
f 34 55 56
f 32 54 34
f 32 53 54
f 32 52 53
f 55 75 76
f 34 102 82
f 40 62 70
f 35 58 85
f 42 50 63
f 53 74 54
f 40 70 46
f 53 67 73
f 51 53 52
f 49 63 50
f 46 72 68
f 46 71 72
f 46 70 71
f 46 69 47
f 46 68 69
f 53 73 74
f 31 52 32
f 45 53 51
f 42 64 43
f 43 64 65
f 43 65 66
f 42 63 64
f 44 67 53
f 44 53 45
f 44 66 67
f 43 66 44