# https://github.com/mikedh/trimesh
v -0.47857800 0.00601426 -0.18851200
v -0.47857800 -0.05077970 -0.18851200
v -0.48410900 0.00601426 -0.19634500
v -0.82255700 0.00601426 -0.18851200
v -0.48080800 -0.05650330 -0.18851200
v -0.48410900 -0.05077970 -0.19634500
v -0.49423600 0.00601426 -0.20649800
v -0.93140300 0.00601426 -0.25451200
v -0.93175900 -0.14724400 -0.19803900
v -0.92752200 -0.14555700 -0.19634500
v -0.92582600 -0.15506500 -0.19295700
v -0.92274800 -0.15506500 -0.19159300
v -0.82541200 -0.15074500 -0.18851200
v -0.50262200 -0.10155100 -0.18851200
v -0.49423600 -0.07110390 -0.19634500
v -0.50440600 -0.07110390 -0.20649800
v -0.49423600 -0.04062560 -0.20649800
v -0.51457700 -0.00000887 -0.22681600
v -0.50440600 0.00601426 -0.21665100
v -0.93278500 0.00601426 -0.25727500
v -0.93425800 -0.15232100 -0.20311000
v -0.93077800 -0.15506500 -0.19543600
v -0.82224500 -0.15506500 -0.18851200
v -0.82541200 -0.15498600 -0.18851200
v -0.51573700 -0.12630500 -0.18851200
v -0.51457700 -0.11170500 -0.19634500
v -0.53487400 -0.10155100 -0.21665100
v -0.52470300 -0.08124230 -0.21665100
v -0.52470300 -0.05077970 -0.22681600
v -0.53487400 -0.03047140 -0.23696900
v -0.54504500 -0.00000887 -0.24711100
v -0.51658500 0.00601426 -0.22706600
v -0.93425800 0.00601426 -0.26404000
v -0.93425800 -0.02031720 -0.25387600
v -0.93425800 -0.15506500 -0.20311000
v -0.54535700 -0.15506500 -0.18851200
v -0.52586300 -0.13646000 -0.18851200
v -0.52555100 -0.12693600 -0.19803900
v -0.54589300 -0.11678200 -0.21834600
v -0.55601900 -0.10662800 -0.22849900
v -0.55517100 -0.08124230 -0.23696900
v -0.56534200 -0.07110390 -0.24711100
v -0.55517100 -0.04062560 -0.24711100
v -0.56534200 -0.01016300 -0.25726400
v -0.55178100 -0.00000887 -0.25049900
v -0.55347600 0.00506822 -0.25134000
v -0.55253900 0.00601426 -0.25063500
v -0.54705300 0.00601426 -0.24736100
v -0.93425800 0.00601426 -0.28848500
v -0.93425800 -0.15506500 -0.24373400
v -0.54705300 -0.15506500 -0.19022800
v -0.54589300 -0.14724400 -0.19803900
v -0.53603400 -0.14661400 -0.18851200
v -0.54589300 -0.13709000 -0.20819200
v -0.57636100 -0.13709000 -0.22849900
v -0.56619000 -0.09647350 -0.23866300
v -0.57636100 -0.08631940 -0.24880500
v -0.57761000 -0.08124230 -0.25134000
v -0.58563900 -0.07110390 -0.25726400
v -0.58224900 -0.04062560 -0.26065200
v -0.57890300 -0.01016300 -0.26404000
v -0.59411500 0.00506822 -0.27165800
v -0.58162400 0.00601426 -0.26541600
v -0.56810800 0.00601426 -0.25865100
v -0.56534200 0.00601426 -0.25726400
v -0.93296400 0.00601426 -0.29449900
v -0.93425800 -0.00000887 -0.29449900
v -0.93425800 -0.14216700 -0.25387600
v -0.93260700 -0.15063400 -0.25219300
v -0.93171500 -0.15506500 -0.25130600
v -0.55249500 -0.15506500 -0.19569700
v -0.55659900 -0.15506500 -0.19921000
v -0.58706700 -0.15506500 -0.21951700
v -0.59665800 -0.13709000 -0.23866300
v -0.59665800 -0.08631940 -0.25895800
v -0.59790700 -0.08124230 -0.26149300
v -0.59920000 -0.07110390 -0.26404000
v -0.58903000 -0.04062560 -0.26404000
v -0.59920000 -0.00000887 -0.27419300
v -0.59317800 0.00601426 -0.27095300
v -0.62966800 0.00601426 -0.28434600
v -0.93118000 0.00601426 -0.29905900
v -0.93091200 0.00338111 -0.30127600
v -0.93425800 -0.07110390 -0.28434600
v -0.93425800 -0.12185900 -0.26404000
v -0.93260700 -0.13032600 -0.26234600
v -0.92765500 -0.15506500 -0.25740000
v -0.60740800 -0.15506500 -0.22968100
v -0.59790700 -0.13201300 -0.24119900
v -0.63729600 -0.14724400 -0.24880500
v -0.62712500 -0.11678200 -0.25895800
v -0.62837500 -0.11170500 -0.26149300
v -0.62837500 -0.08124230 -0.27165800
v -0.61824800 -0.07110390 -0.27165800
v -0.61949700 -0.06093390 -0.27419300
v -0.63979400 -0.04062560 -0.28434600
v -0.62966800 -0.01016300 -0.28434600
v -0.66013600 0.00601426 -0.29449900
v -0.92984100 0.00601426 -0.30021800
v -0.92564800 0.00601426 -0.30127600
v -0.92413100 -0.00000887 -0.30465200
v -0.93091200 -0.06771390 -0.29112300
v -0.93425800 -0.10155100 -0.27419300
v -0.93260700 -0.11000200 -0.27249900
v -0.93091200 -0.09816060 -0.28095800
v -0.92752200 -0.11509500 -0.27758100
v -0.92752200 -0.13540300 -0.26741700
v -0.92685200 -0.15506500 -0.25759400
v -0.65817300 -0.15506500 -0.24997600
v -0.64657500 -0.14893200 -0.25049900
v -0.65759300 -0.13709000 -0.25895800
v -0.63854500 -0.14216700 -0.25134000
v -0.65884200 -0.13201300 -0.26149300
v -0.64871600 -0.10155100 -0.27165800
v -0.65884200 -0.08124230 -0.28181100
v -0.64871600 -0.07110390 -0.28181100
v -0.64996500 -0.06093390 -0.28434600
v -0.67026200 -0.03047140 -0.29449900
v -0.66013600 -0.01016300 -0.29449900
v -0.69568900 -0.00508596 -0.30211700
v -0.71085600 -0.00000887 -0.30465200
v -0.72102700 0.00601426 -0.30465200
v -0.92413100 0.00601426 -0.30165100
v -0.92413100 -0.07110390 -0.29449900
v -0.81653500 0.00601426 -0.30465200
v -0.78196300 -0.03047140 -0.30465200
v -0.92413100 -0.10155100 -0.28434600
v -0.80226000 -0.13201300 -0.27419300
v -0.80565000 -0.14555700 -0.26741700
v -0.80226000 -0.15232100 -0.26404000
v -0.80087700 -0.15506500 -0.26266400
v -0.66209900 -0.15506500 -0.25099900
v -0.68721400 -0.14893200 -0.26065200
v -0.66691700 -0.13877700 -0.26065200
v -0.65674600 -0.10831500 -0.27080500
v -0.66013600 -0.10155100 -0.27419300
v -0.67026200 -0.08124230 -0.28434600
v -0.68931000 -0.07110390 -0.29196400
v -0.69060400 -0.06093390 -0.29449900
v -0.70073000 -0.07110390 -0.29449900
v -0.73115300 -0.02031720 -0.30465200
v -0.80226000 -0.08124230 -0.29449900
v -0.74132400 -0.03047140 -0.30465200
v -0.78196300 -0.11170500 -0.28434600
v -0.78535300 -0.12524900 -0.27758100
v -0.72102700 -0.15232100 -0.26404000
v -0.71964400 -0.15506500 -0.26266400
v -0.66892400 -0.15506500 -0.25251100
v -0.67026200 -0.13201300 -0.26404000
v -0.69332500 -0.15506500 -0.25759400
v -0.71763700 -0.13877700 -0.27080500
v -0.71763700 -0.08800650 -0.29112300
v -0.72102700 -0.08124230 -0.29449900
v -0.75149500 -0.11170500 -0.28434600
v -0.75488500 -0.12524900 -0.27758100
v -0.72102700 -0.13201300 -0.27419300
f 82 99 83
f 90 110 111
f 90 109 110
f 88 109 90
f 87 107 108
f 87 106 107
f 86 106 87
f 86 105 106
f 90 111 113
f 84 102 103
f 83 124 102
f 83 101 124
f 83 100 101
f 83 99 100
f 86 103 104
f 86 104 105
f 92 112 113
f 90 112 92
f 100 123 101
f 79 98 81
f 98 121 122
f 98 120 121
f 98 119 120
f 96 119 97
f 96 118 119
f 90 113 112
f 96 117 118
f 94 117 95
f 94 116 117
f 93 115 116
f 92 115 93
f 92 114 115
f 92 113 114
f 90 92 91
f 95 117 96
f 93 116 94
f 69 87 70
f 79 97 119
f 67 102 84
f 67 83 102
f 66 83 67
f 66 82 83
f 62 81 80
f 62 79 81
f 62 80 63
f 61 79 62
f 61 78 79
f 59 78 60
f 59 77 78
f 59 76 77
f 57 76 58
f 57 75 76
f 57 74 75
f 68 85 69
f 69 85 103
f 69 103 86
f 69 86 87
f 79 96 97
f 79 95 96
f 78 95 79
f 77 95 78
f 76 95 77
f 76 94 95
f 76 93 94
f 79 119 98
f 76 92 93
f 74 92 89
f 74 91 92
f 74 90 91
f 74 88 90
f 74 76 75
f 74 89 76
f 73 88 74
f 76 89 92
f 101 123 125
f 124 126 142
f 101 122 121
f 133 151 149
f 133 147 151
f 133 150 147
f 133 148 150
f 133 149 134
f 132 148 133
f 130 147 131
f 130 146 147
f 130 155 146
f 130 145 155
f 128 130 129
f 128 145 130
f 128 144 145
f 127 144 128
f 127 142 144
f 134 149 135
f 135 149 136
f 136 149 137
f 137 149 140
f 55 74 57
f 152 156 153
f 149 156 152
f 149 151 156
f 146 151 147
f 146 156 151
f 146 155 156
f 126 153 142
f 144 155 145
f 142 154 144
f 142 153 154
f 140 149 152
f 140 143 141
f 140 153 143
f 140 152 153
f 138 140 139
f 144 154 155
f 101 125 122
f 126 143 153
f 121 140 141
f 108 130 131
f 108 129 130
f 107 129 108
f 106 129 107
f 106 128 129
f 106 127 128
f 106 124 127
f 103 105 104
f 102 106 105
f 102 124 106
f 102 105 103
f 101 126 124
f 101 143 126
f 101 141 143
f 101 121 141
f 109 132 110
f 110 132 133
f 110 133 134
f 110 134 111
f 120 140 121
f 120 139 140
f 118 120 119
f 118 139 120
f 117 139 118
f 117 138 139
f 116 138 117
f 124 142 127
f 115 138 116
f 115 137 140
f 114 137 115
f 114 136 137
f 114 135 136
f 114 134 135
f 113 134 114
f 111 134 113
f 115 140 138
f 55 73 74
f 12 23 24
f 54 73 55
f 9 22 10
f 9 21 22
f 9 20 21
f 8 20 9
f 7 18 19
f 7 17 18
f 6 16 17
f 6 15 16
f 6 14 15
f 5 14 6
f 4 12 13
f 4 11 12
f 4 10 11
f 4 9 10
f 4 8 9
f 10 22 11
f 3 17 7
f 11 22 35
f 11 50 70
f 11 36 23
f 11 51 36
f 11 71 51
f 11 72 71
f 11 73 72
f 11 88 73
f 11 109 88
f 11 132 109
f 11 148 132
f 11 150 148
f 11 147 150
f 11 131 147
f 11 108 131
f 11 87 108
f 11 70 87
f 11 35 50
f 3 6 17
f 2 5 6
f 1 5 2
f 1 98 122
f 1 81 98
f 1 80 81
f 1 63 80
f 1 64 63
f 1 65 64
f 1 47 65
f 1 48 47
f 1 32 48
f 1 19 32
f 1 7 19
f 1 3 7
f 1 6 3
f 1 2 6
f 153 156 154
f 1 122 125
f 1 125 123
f 1 123 100
f 1 100 99
f 1 14 5
f 1 25 14
f 1 37 25
f 1 53 37
f 1 36 53
f 1 23 36
f 1 24 23
f 11 23 12
f 1 13 24
f 1 8 4
f 1 20 8
f 1 33 20
f 1 49 33
f 1 66 49
f 1 82 66
f 1 99 82
f 1 4 13
f 12 24 13
f 14 25 26
f 14 26 15
f 42 58 76
f 42 57 58
f 42 56 57
f 41 56 42
f 40 56 41
f 40 55 56
f 39 55 40
f 39 54 55
f 38 54 39
f 38 52 54
f 37 52 38
f 37 53 52
f 36 52 53
f 36 51 52
f 31 47 48
f 42 76 59
f 42 59 43
f 43 59 60
f 43 60 44
f 54 72 73
f 52 72 54
f 52 71 72
f 51 71 52
f 50 69 70
f 50 68 69
f 49 66 67
f 31 46 47
f 46 65 47
f 46 63 64
f 45 63 46
f 45 62 63
f 45 61 62
f 44 61 45
f 44 78 61
f 44 60 78
f 46 64 65
f 55 57 56
f 31 45 46
f 30 44 31
f 21 34 33
f 21 35 22
f 20 34 21
f 20 33 34
f 18 32 19
f 18 48 32
f 18 31 48
f 18 30 31
f 18 29 30
f 17 29 18
f 16 29 17
f 16 28 29
f 16 27 28
f 16 26 27
f 15 26 16
f 21 33 49
f 21 49 67
f 21 67 84
f 21 84 103
f 30 43 44
f 29 43 30
f 29 42 43
f 29 41 42
f 28 41 29
f 27 41 28
f 27 40 41
f 31 44 45
f 27 39 40
f 26 38 27
f 25 38 26
f 25 37 38
f 21 50 35
f 21 68 50
f 21 85 68
f 21 103 85
f 27 38 39
f 154 156 155