# https://github.com/mikedh/trimesh
v 0.84281500 0.23357600 0.01015150
v 0.84281500 0.22337800 0.06090890
v 0.85129400 0.22168600 0.06936850
v 0.85293500 0.22337800 0.06090890
v 0.86319100 0.22337800 0.03045440
v 0.87673000 0.21661100 0.03383830
v 0.91734500 0.19630800 0.00338383
v 0.84281500 0.23357600 -0.01015150
v -0.46275400 0.18277200 0.05075740
v 0.84158400 0.22086300 0.07106040
v 0.84281500 0.21322700 0.09136330
v 0.85813100 0.21830300 0.07613610
v 0.86647300 0.21661100 0.06429270
v 0.90708900 0.19630800 0.05414120
v 0.92746500 0.18615600 0.04398980
v 0.91050700 0.19969200 -0.00338383
v 0.87673000 0.21661100 -0.02707060
v 0.92746500 0.18615600 -0.03722210
v 0.86319100 0.22337800 -0.03045440
v 0.84965300 0.23014600 -0.02368680
v 0.84787500 0.23101500 -0.02537870
v -0.46275400 0.18277200 -0.05075740
v -0.46275400 0.15570200 0.10489900
v 0.83939600 0.19969200 0.11848000
v 0.83939600 0.20984300 0.09813100
v 0.84965300 0.19969200 0.11848000
v 0.85635400 0.19630800 0.12524700
v 0.85293500 0.20307500 0.11166600
v 0.86647300 0.19630800 0.11505000
v 0.88849000 0.18784800 0.10659100
v 0.89874700 0.19800000 0.06598460
v 0.92582400 0.18446400 0.05244930
v 0.92910600 0.17769700 0.06598460
v 0.93430200 0.17262100 0.05075740
v 0.86989200 0.21999400 -0.03383830
v 0.92062700 0.18954000 -0.04398980
v 0.93088300 0.17938900 -0.05414120
v 0.85977200 0.21999400 -0.06429270
v 0.85293500 0.22337800 -0.06090890
v 0.84787500 0.22086300 -0.07613610
v -0.46275400 0.15570200 -0.10489900
v 0.83775500 0.21071200 -0.09643910
v 0.83775500 0.20056000 -0.11678800
v -0.46275400 0.13539900 0.13539900
v 0.84623400 0.19630800 0.12524700
v 0.84623400 0.16585300 0.16585300
v 0.85813100 0.17769700 0.14724200
v 0.87837100 0.16754500 0.14724200
v 0.86825100 0.18784800 0.12693900
v 0.87837100 0.18784800 0.11678800
v 0.90886600 0.18784800 0.07613610
v 0.91898600 0.16754500 0.10659100
v 0.92746500 0.16585300 0.09474720
v 0.92910600 0.15739400 0.10659100
v 0.93430200 0.17262100 -0.05075740
v 0.93430200 0.15231800 0.09136330
v 0.90038800 0.19969200 -0.05414120
v 0.91898600 0.18784800 -0.05327240
v 0.89874700 0.19800000 -0.06346960
v 0.93088300 0.15908600 -0.09474720
v 0.92910600 0.17769700 -0.06346960
v 0.85813100 0.21830300 -0.07362110
v 0.85293500 0.22086300 -0.07234070
v 0.85977200 0.19969200 -0.11505000
v 0.85293500 0.20307500 -0.11166600
v 0.85293500 0.19969200 -0.11848000
v -0.46275400 0.13539900 -0.13539900
v 0.84281500 0.19630800 -0.12524700
v 0.85293500 0.19630800 -0.12524700
v -0.46275400 0.10489900 0.15570200
v 0.84623400 0.12524700 0.19630800
v 0.85635400 0.12524700 0.19630800
v 0.85813100 0.14724200 0.17769700
v 0.86647300 0.15570200 0.16585300
v 0.86647300 0.16585300 0.15570200
v 0.87837100 0.14724200 0.16754500
v 0.92910600 0.13709100 0.13709100
v 0.89874700 0.16754500 0.12693900
v 0.90886600 0.16754500 0.11678800
v 0.93430200 0.15231800 -0.09136330
v 0.93430200 0.13201500 0.12186400
v 0.90886600 0.18784800 -0.07362110
v 0.93170400 0.15231800 -0.10279500
v 0.92910600 0.15739400 -0.10407600
v 0.91898600 0.16754500 -0.10407600
v 0.88849000 0.18784800 -0.10407600
v 0.85813100 0.19800000 -0.11930300
v -0.46275400 0.10489900 -0.15570200
v 0.84281500 0.17641600 -0.15231800
v 0.84281500 0.16585300 -0.16585300
v 0.84787500 0.14724200 -0.18025700
v 0.84281500 0.12524700 -0.19630800
v 0.84787500 0.18025700 -0.14724200
v 0.87837100 0.16754500 -0.14468100
v 0.85813100 0.17769700 -0.14468100
v -0.46275400 0.05075740 0.18277200
v 0.83939600 0.11848000 0.19969200
v 0.84965300 0.11848000 0.19969200
v 0.84281500 0.09136330 0.21322700
v 0.85293500 0.11166600 0.20307500
v 0.85813100 0.07613610 0.21830300
v 0.86647300 0.11505000 0.19630800
v 0.87837100 0.11678800 0.18784800
v 0.86825100 0.12693900 0.18784800
v 0.89874700 0.12693900 0.16754500
v 0.91898600 0.10659100 0.16754500
v 0.92910600 0.10659100 0.15739400
v 0.93430200 0.12186400 0.13201500
v 0.90886600 0.11678800 0.16754500
v 0.93430200 0.13201500 -0.12186400
v 0.93170400 0.13201500 -0.13325000
v 0.92910600 0.13709100 -0.13453000
v 0.89874700 0.16754500 -0.12437900
v 0.86319100 0.19292400 -0.12186400
v -0.46275400 0.05075740 -0.18277200
v 0.86319100 0.16585300 -0.15570200
v 0.86319100 0.15570200 -0.16585300
v 0.85293500 0.12524700 -0.19630800
v 0.85813100 0.11678800 -0.20056000
v 0.84281500 0.11848000 -0.19969200
v 0.87837100 0.14724200 -0.16498400
v -0.46275400 -0.05075740 0.18277200
v -0.06084080 -0.01015150 0.20307500
v 0.84281500 0.01015150 0.23357600
v 0.84281500 0.06090890 0.22337800
v 0.85129400 0.06936850 0.22168600
v 0.84158400 0.07106040 0.22086300
v 0.83939600 0.09813100 0.20984300
v 0.85293500 0.06090890 0.22337800
v 0.86647300 0.06429270 0.21661100
v 0.89874700 0.06598460 0.19800000
v 0.88849000 0.10659100 0.18784800
v 0.92910600 0.06598460 0.17769700
v 0.92746500 0.09474720 0.16585300
v 0.90886600 0.07613610 0.18784800
v 0.93430200 0.09136330 0.15231800
v 0.93430200 0.12186400 -0.13201500
v 0.93170400 0.10151500 -0.15359800
v 0.92910600 0.10659100 -0.15483300
v 0.91898600 0.10659100 -0.16498400
v 0.90886600 0.11678800 -0.16498400
v 0.89874700 0.12693900 -0.16498400
v -0.46275400 -0.05075740 -0.18277200
v 0.84281500 0.09136330 -0.21322700
v 0.84787500 0.07613610 -0.22086300
v 0.84787500 0.02537870 -0.23101500
v 0.84281500 0.01015150 -0.23357600
v 0.85293500 0.08121190 -0.21706800
v 0.91392600 0.09136330 -0.17641600
v 0.88343000 0.09136330 -0.19671900
v 0.87331100 0.08121190 -0.20691600
v 0.86319100 0.07106040 -0.21706800
v -0.03034510 -0.04060590 0.20307500
v -0.04060150 -0.03045440 0.20307500
v -0.46275400 -0.10489900 0.15570200
v 0.83775500 -0.11678800 0.20056000
v 0.83775500 -0.09643910 0.21071200
v 0.84787500 -0.07613610 0.22086300
v 0.84281500 -0.01015150 0.23357600
v 0.91734500 0.00338383 0.19630800
v 0.87673000 0.03383830 0.21661100
v 0.86319100 0.03045440 0.22337800
v 0.90708900 0.05414120 0.19630800
v 0.92746500 0.04398980 0.18615600
v 0.92582400 0.05244930 0.18446400
v 0.93430200 0.05075740 0.17262100
v 0.93430200 0.09136330 -0.15231800
v 0.93170400 0.06090890 -0.17390100
v 0.92746500 0.09136330 -0.16585300
v 0.91898600 0.09643910 -0.17006000
v -0.46275400 -0.10018900 -0.15808000
v 0.84281500 -0.01015150 -0.23357600
v 0.84281500 -0.06090890 -0.22337800
v 0.84459300 -0.06936850 -0.22168600
v 0.84281500 -0.09136330 -0.21322700
v 0.83939600 -0.10489900 -0.20645900
v 0.83939600 -0.12524700 -0.19630800
v 0.85813100 0.06598460 -0.22086300
v 0.85293500 0.06090890 -0.22337800
v 0.86825100 0.03553020 -0.22086300
v 0.92404600 0.05075740 -0.18656800
v 0.90380600 0.06090890 -0.19671900
v 0.89874700 0.05583310 -0.20056000
v 0.84787500 -0.02537870 0.23101500
v -0.46275400 -0.13539900 0.13539900
v 0.84281500 -0.12524700 0.19630800
v 0.85293500 -0.12524700 0.19630800
v 0.85293500 -0.11848000 0.19969200
v 0.85293500 -0.11166600 0.20307500
v 0.85977200 -0.11505000 0.19969200
v 0.85293500 -0.07234070 0.22086300
v 0.85293500 -0.06090890 0.22337800
v 0.84965300 -0.02368680 0.23014600
v 0.86319100 -0.03045440 0.22337800
v 0.87673000 -0.02707060 0.21661100
v 0.91050700 -0.00338383 0.19969200
v 0.92746500 -0.03722210 0.18615600
v 0.93430200 -0.05075740 0.17262100
v 0.93430200 0.05075740 -0.17262100
v 0.93088300 0.05075740 -0.17938900
v 0.92910600 0.05583310 -0.18025700
v -0.46275400 -0.10489900 -0.15570200
v 0.90886600 0.00507574 -0.20056000
v 0.87673000 -0.03045440 -0.21661100
v 0.86319100 -0.03045440 -0.22337800
v 0.84965300 -0.02030300 -0.23014600
v 0.85293500 -0.06090890 -0.22337800
v 0.85430200 -0.07106040 -0.22086300
v 0.85635400 -0.11848000 -0.19969200
v 0.84623400 -0.11848000 -0.19969200
v 0.84965300 -0.12524700 -0.19630800
v 0.83939600 -0.16585300 -0.16585300
v -0.46275400 -0.13539900 -0.13539900
v 0.91898600 0.04568170 -0.19040900
v 0.87673000 0.03045440 -0.21661100
v 0.92746500 0.04060590 -0.18615600
v 0.85977200 -0.06429270 0.21999400
v 0.86989200 -0.03383830 0.21999400
v -0.46275400 -0.15570200 0.10489900
v 0.84281500 -0.19630800 0.12524700
v 0.84787500 -0.18025700 0.14724200
v 0.84281500 -0.16585300 0.16585300
v 0.84281500 -0.15231800 0.17641600
v 0.84787500 -0.14724200 0.18025700
v 0.85813100 -0.14468100 0.17769700
v 0.87837100 -0.14468100 0.16754500
v 0.85813100 -0.11930300 0.19800000
v 0.88849000 -0.10407600 0.18784800
v 0.85813100 -0.07362110 0.21830300
v 0.92062700 -0.04398980 0.18954000
v 0.93088300 -0.05414120 0.17938900
v 0.93430200 -0.09136330 0.15231800
v 0.93430200 -0.05075740 -0.17262100
v 0.91734500 -0.00000000 -0.19630800
v 0.86647300 -0.06090890 -0.21661100
v 0.85977200 -0.06090890 -0.21999400
v 0.92746500 -0.04060590 -0.18615600
v 0.90708900 -0.05075740 -0.19630800
v 0.85553300 -0.07613610 -0.21830300
v 0.89491800 -0.06090890 -0.20056000
v 0.85553300 -0.14724200 -0.17769700
v 0.86059300 -0.11678800 -0.19800000
v 0.86319100 -0.12186400 -0.19292400
v 0.87577200 -0.14724200 -0.16754500
v 0.85553300 -0.17769700 -0.14724200
v 0.84965300 -0.19630800 -0.12524700
v 0.83939600 -0.19630800 -0.12524700
v -0.46275400 -0.15570200 -0.10489900
v 0.90038800 -0.05414120 0.19969200
v -0.46275400 -0.18277200 0.05075740
v 0.84281500 -0.19969200 0.11848000
v 0.85813100 -0.20056000 0.11678800
v 0.85293500 -0.19630800 0.12524700
v 0.86319100 -0.16585300 0.15570200
v 0.86319100 -0.15570200 0.16585300
v 0.89874700 -0.12437900 0.16754500
v 0.86319100 -0.12186400 0.19292400
v 0.87837100 -0.16498400 0.14724200
v 0.92910600 -0.13453000 0.13709100
v 0.91898600 -0.10407600 0.16754500
v 0.90886600 -0.07362110 0.18784800
v 0.89874700 -0.06346960 0.19800000
v 0.91898600 -0.05327240 0.18784800
v 0.92910600 -0.06346960 0.17769700
v 0.93088300 -0.09474720 0.15908600
v 0.93170400 -0.10279500 0.15231800
v 0.93430200 -0.12186400 0.13201500
v 0.93430200 -0.09136330 -0.15231800
v 0.93170400 -0.05583310 -0.17769700
v 0.93088300 -0.05075740 -0.17938900
v 0.91734500 -0.06090890 -0.18615600
v 0.89614800 -0.06598460 -0.19800000
v 0.88602900 -0.10659100 -0.18784800
v 0.91652400 -0.10659100 -0.16754500
v 0.88602900 -0.13709100 -0.16754500
v 0.92664400 -0.13709100 -0.13709100
v 0.87577200 -0.16754500 -0.14724200
v 0.85635400 -0.19969200 -0.11848000
v 0.84623400 -0.19969200 -0.11848000
v 0.84281500 -0.21322700 -0.09136330
v 0.83939600 -0.20645900 -0.10489900
v -0.46275400 -0.18277200 -0.05075740
v -0.46275400 -0.15808000 -0.10018900
v 0.84281500 -0.23357600 0.01015150
v 0.84787500 -0.23101500 0.02537870
v 0.84787500 -0.22086300 0.07613610
v 0.84281500 -0.21322700 0.09136330
v 0.85293500 -0.21706800 0.08121190
v 0.86319100 -0.21706800 0.07106040
v 0.87331100 -0.20691600 0.08121190
v 0.88343000 -0.19671900 0.09136330
v 0.91392600 -0.17641600 0.09136330
v 0.91898600 -0.16498400 0.10659100
v 0.90886600 -0.16498400 0.11678800
v 0.89874700 -0.16498400 0.12693900
v 0.92910600 -0.15483300 0.10659100
v 0.93170400 -0.15359800 0.10151500
v 0.93170400 -0.13325000 0.13201500
v 0.92910600 -0.10407600 0.15739400
v 0.93430200 -0.13201500 0.12186400
v 0.93430200 -0.12186400 -0.13201500
v 0.93170400 -0.09643910 -0.15739400
v 0.92746500 -0.09136330 -0.16585300
v 0.92664400 -0.06598460 -0.17769700
v 0.90626800 -0.07613610 -0.18784800
v 0.92664400 -0.10659100 -0.15739400
v 0.93170400 -0.12693900 -0.13709100
v 0.93170400 -0.13709100 -0.12693900
v 0.92664400 -0.15739400 -0.10659100
v 0.91652400 -0.16754500 -0.10659100
v 0.88602900 -0.16754500 -0.13709100
v 0.86319100 -0.19292400 -0.12186400
v 0.85553300 -0.21830300 -0.07613610
v 0.85430200 -0.22086300 -0.07106040
v 0.86059300 -0.19800000 -0.11678800
v 0.84459300 -0.22168600 -0.06936850
v 0.84281500 -0.22337800 -0.06090890
v 0.84281500 -0.23357600 -0.01015150
v 0.86825100 -0.22086300 0.03553020
v 0.85813100 -0.22086300 0.06598460
v 0.85293500 -0.22337800 0.06090890
v 0.89874700 -0.20056000 0.05583310
v 0.90380600 -0.19671900 0.06090890
v 0.92404600 -0.18656800 0.05075740
v 0.92746500 -0.16585300 0.09136330
v 0.91898600 -0.17006000 0.09643910
v 0.93170400 -0.17390100 0.06090890
v 0.93430200 -0.15231800 0.09136330
v 0.93430200 -0.13201500 -0.12186400
v 0.93170400 -0.15739400 -0.09643910
v 0.92746500 -0.16585300 -0.09136330
v 0.90626800 -0.18784800 -0.07613610
v 0.88602900 -0.18784800 -0.10659100
v 0.92664400 -0.17769700 -0.06598460
v 0.89614800 -0.19800000 -0.06598460
v 0.85293500 -0.22337800 -0.06090890
v 0.89491800 -0.20056000 -0.06090890
v 0.86647300 -0.21661100 -0.06090890
v 0.85977200 -0.21999400 -0.06090890
v 0.84965300 -0.23014600 -0.02030300
v 0.86319100 -0.22337800 -0.03045440
v 0.87673000 -0.21661100 -0.03045440
v 0.90886600 -0.20056000 0.00507574
v 0.87673000 -0.21661100 0.03045440
v 0.91898600 -0.19040900 0.04568170
v 0.92746500 -0.18615600 0.04060590
v 0.92910600 -0.18025700 0.05583310
v 0.93088300 -0.17938900 0.05075740
v 0.93430200 -0.17262100 0.05075740
v 0.93430200 -0.15231800 -0.09136330
v 0.93170400 -0.17769700 -0.05583310
v 0.91734500 -0.18615600 -0.06090890
v 0.90708900 -0.19630800 -0.05075740
v 0.92746500 -0.18615600 -0.04060590
v 0.91734500 -0.19630800 -0.00000000
v 0.93430200 -0.17262100 -0.05075740
v 0.93088300 -0.17938900 -0.05075740
f 1 2 3
f 209 242 243
f 209 243 244
f 209 244 241
f 211 241 212
f 212 241 245
f 212 245 246
f 212 246 247
f 212 247 213
f 209 239 242
f 213 247 248
f 216 237 234
f 217 249 218
f 217 229 262
f 217 262 249
f 218 249 230
f 219 250 251
f 219 251 220
f 220 251 252
f 215 216 234
f 220 252 253
f 209 241 211
f 208 240 272
f 198 265 232
f 199 233 270
f 199 270 237
f 199 237 216
f 199 216 200
f 203 234 204
f 204 235 236
f 204 236 205
f 208 272 239
f 204 234 237
f 204 238 235
f 205 236 207
f 205 207 206
f 207 236 208
f 208 239 209
f 208 236 235
f 208 235 238
f 208 238 240
f 204 237 238
f 220 253 221
f 221 253 254
f 221 254 222
f 232 265 266
f 232 266 267
f 233 268 302
f 233 302 269
f 233 269 270
f 237 270 269
f 237 269 304
f 237 304 271
f 231 299 265
f 237 271 238
f 238 272 240
f 239 272 273
f 239 273 242
f 241 244 277
f 241 277 245
f 242 273 243
f 243 273 274
f 243 274 275
f 238 271 272
f 231 264 299
f 231 263 264
f 230 263 231
f 222 254 255
f 222 255 224
f 222 224 223
f 224 255 225
f 225 255 226
f 226 256 257
f 226 257 227
f 226 255 254
f 226 254 258
f 226 258 259
f 226 259 256
f 227 257 256
f 227 256 260
f 227 260 228
f 228 260 261
f 228 261 262
f 228 262 229
f 230 249 262
f 230 262 263
f 198 231 265
f 243 275 244
f 197 230 231
f 194 218 195
f 160 196 230
f 160 230 197
f 160 197 164
f 160 164 161
f 161 164 163
f 164 197 231
f 164 231 198
f 164 198 166
f 160 218 196
f 168 200 201
f 168 199 200
f 169 201 181
f 171 177 202
f 172 180 203
f 172 203 204
f 172 204 205
f 172 205 206
f 172 206 207
f 168 201 169
f 172 207 174
f 160 195 218
f 159 194 195
f 152 182 183
f 152 183 178
f 153 158 184
f 153 184 159
f 153 159 154
f 155 185 186
f 155 186 156
f 156 186 187
f 159 195 160
f 156 187 188
f 156 158 157
f 158 188 189
f 158 189 190
f 158 190 191
f 158 191 192
f 158 192 184
f 159 184 193
f 159 193 194
f 156 188 158
f 172 174 173
f 174 207 208
f 174 208 175
f 185 219 220
f 185 220 221
f 185 221 222
f 185 222 223
f 185 223 186
f 186 223 224
f 186 224 187
f 187 224 225
f 184 194 193
f 187 225 226
f 187 227 188
f 188 227 189
f 189 227 190
f 190 228 229
f 190 229 191
f 190 227 228
f 191 229 217
f 191 217 192
f 187 226 227
f 184 218 194
f 184 217 218
f 184 192 217
f 175 208 209
f 175 209 210
f 175 210 177
f 175 177 176
f 177 210 209
f 177 209 211
f 177 211 212
f 177 212 213
f 177 213 202
f 178 183 180
f 180 183 214
f 180 214 216
f 180 216 215
f 180 215 234
f 180 234 203
f 181 201 216
f 181 216 214
f 181 214 183
f 181 183 182
f 196 218 230
f 151 182 152
f 244 275 276
f 245 277 278
f 310 312 311
f 310 331 334
f 310 334 332
f 312 333 315
f 313 315 333
f 313 333 335
f 313 335 337
f 313 337 314
f 310 333 312
f 314 336 316
f 314 353 338
f 314 338 339
f 314 339 336
f 316 336 318
f 316 318 317
f 318 336 340
f 318 340 341
f 318 341 342
f 314 337 353
f 318 342 343
f 310 332 333
f 309 330 331
f 291 323 292
f 292 323 324
f 292 324 325
f 292 325 326
f 292 326 293
f 293 326 325
f 293 325 296
f 296 325 297
f 309 331 310
f 297 325 327
f 297 349 328
f 297 328 300
f 297 300 298
f 301 329 308
f 301 308 307
f 302 306 303
f 308 329 350
f 308 350 330
f 297 327 349
f 318 343 319
f 319 343 355
f 319 355 344
f 336 339 341
f 336 341 340
f 338 353 342
f 338 342 339
f 339 342 341
f 342 353 354
f 342 354 355
f 342 355 343
f 335 353 337
f 344 355 346
f 346 357 356
f 346 356 349
f 346 349 348
f 346 348 347
f 346 355 354
f 351 356 357
f 351 357 354
f 352 354 353
f 346 354 357
f 335 352 353
f 334 354 352
f 334 351 354
f 319 344 346
f 319 346 345
f 319 345 322
f 319 322 320
f 322 345 324
f 322 324 323
f 324 346 347
f 324 347 325
f 324 345 346
f 325 347 327
f 327 348 349
f 327 347 348
f 330 350 356
f 330 356 351
f 330 351 331
f 331 351 334
f 332 334 352
f 332 352 335
f 332 335 333
f 290 323 291
f 244 276 277
f 289 320 322
f 289 322 323
f 252 293 294
f 252 294 295
f 252 295 258
f 252 258 253
f 253 258 254
f 256 259 260
f 258 295 259
f 259 296 297
f 252 292 293
f 259 297 298
f 259 266 299
f 259 299 260
f 259 295 294
f 259 294 293
f 259 293 296
f 260 299 264
f 260 264 261
f 261 264 262
f 259 298 266
f 262 264 263
f 252 291 292
f 252 289 290
f 245 278 246
f 246 278 279
f 246 279 247
f 247 279 280
f 247 280 281
f 247 281 282
f 247 282 283
f 247 283 248
f 252 290 291
f 250 284 285
f 250 286 287
f 250 287 251
f 250 282 318
f 250 318 284
f 251 287 286
f 251 286 252
f 252 286 288
f 252 288 289
f 250 285 286
f 265 299 266
f 266 298 267
f 267 298 300
f 278 313 314
f 278 314 280
f 278 280 279
f 278 312 315
f 278 315 313
f 280 314 316
f 280 316 282
f 280 282 281
f 277 312 278
f 282 316 317
f 284 318 319
f 284 319 285
f 285 319 320
f 285 320 321
f 285 321 286
f 286 321 320
f 286 320 289
f 286 289 288
f 282 317 318
f 277 311 312
f 276 311 277
f 276 310 311
f 268 301 307
f 268 307 302
f 269 302 303
f 269 303 304
f 271 305 272
f 271 304 305
f 272 305 273
f 273 305 274
f 274 305 304
f 274 304 303
f 274 303 306
f 274 306 276
f 274 276 275
f 276 306 302
f 276 302 307
f 276 307 308
f 276 308 330
f 276 330 309
f 276 309 310
f 289 323 290
f 150 182 151
f 200 216 201
f 149 181 182
f 34 232 267
f 34 267 300
f 34 300 328
f 34 328 349
f 34 349 356
f 34 356 350
f 34 350 329
f 34 329 301
f 34 198 232
f 34 301 268
f 34 233 199
f 34 199 167
f 34 167 137
f 34 137 110
f 34 110 80
f 34 80 55
f 35 36 57
f 35 57 38
f 34 268 233
f 36 37 58
f 34 166 198
f 34 108 136
f 27 46 47
f 27 47 48
f 27 48 49
f 27 49 50
f 27 50 30
f 27 30 29
f 30 50 79
f 30 79 52
f 34 136 166
f 30 52 51
f 32 51 33
f 33 52 53
f 33 53 54
f 33 54 56
f 33 56 34
f 33 51 52
f 34 56 81
f 34 81 108
f 31 51 32
f 36 58 59
f 36 59 57
f 37 60 84
f 46 73 74
f 46 74 75
f 46 75 47
f 47 75 48
f 48 75 74
f 48 74 76
f 48 76 77
f 48 77 78
f 46 72 73
f 48 78 49
f 49 79 50
f 52 77 54
f 52 54 53
f 52 79 77
f 54 77 81
f 54 81 56
f 58 61 59
f 59 61 82
f 49 78 79
f 46 71 72
f 44 46 45
f 44 71 46
f 37 84 61
f 37 61 58
f 37 55 80
f 37 80 60
f 38 57 59
f 38 59 62
f 38 62 63
f 38 63 39
f 39 63 40
f 40 63 64
f 40 64 65
f 40 65 66
f 40 66 43
f 40 43 42
f 41 43 68
f 41 68 67
f 43 66 69
f 43 69 68
f 44 70 71
f 27 45 46
f 59 82 86
f 24 27 26
f 23 45 24
f 7 15 18
f 7 18 36
f 7 36 16
f 8 17 19
f 8 19 20
f 8 20 21
f 8 21 22
f 9 22 41
f 7 17 8
f 9 41 67
f 9 88 115
f 9 115 143
f 9 143 171
f 9 171 202
f 9 202 213
f 9 213 248
f 9 248 283
f 9 283 282
f 9 67 88
f 9 282 250
f 7 35 17
f 6 15 7
f 1 3 4
f 1 4 5
f 1 5 6
f 1 6 7
f 1 7 8
f 1 8 22
f 1 22 9
f 1 9 2
f 7 16 35
f 2 9 3
f 3 10 11
f 3 11 12
f 3 12 4
f 4 12 13
f 4 13 6
f 4 6 5
f 6 13 14
f 6 14 15
f 3 9 10
f 9 250 219
f 9 219 185
f 9 185 155
f 15 33 34
f 15 34 55
f 15 55 37
f 15 37 18
f 15 31 32
f 16 36 35
f 17 35 19
f 18 37 36
f 15 32 33
f 19 35 21
f 21 35 38
f 21 38 39
f 21 39 40
f 149 182 150
f 22 40 42
f 22 42 43
f 22 43 41
f 23 44 45
f 19 21 20
f 14 31 15
f 12 27 29
f 12 28 27
f 9 155 122
f 9 122 96
f 9 96 70
f 9 70 44
f 9 44 23
f 9 23 24
f 9 24 25
f 9 25 11
f 9 11 10
f 11 25 24
f 11 24 26
f 11 26 27
f 11 27 28
f 11 28 12
f 12 29 30
f 12 30 51
f 12 51 31
f 12 31 14
f 12 14 13
f 24 45 27
f 59 86 62
f 21 40 22
f 60 83 84
f 115 146 147
f 115 147 172
f 115 172 143
f 117 121 118
f 118 121 119
f 119 148 145
f 119 145 120
f 119 121 142
f 115 145 146
f 119 142 141
f 119 140 149
f 119 149 150
f 119 150 151
f 119 151 152
f 119 152 148
f 120 145 144
f 122 153 154
f 122 154 123
f 119 141 140
f 122 155 156
f 115 144 145
f 112 142 121
f 103 132 106
f 103 106 109
f 103 109 105
f 103 105 104
f 106 133 134
f 106 134 107
f 106 132 135
f 106 135 133
f 115 120 144
f 107 134 133
f 107 166 136
f 110 137 111
f 111 138 112
f 111 137 138
f 112 138 139
f 112 139 140
f 112 140 141
f 112 141 142
f 107 133 166
f 122 156 157
f 122 157 158
f 122 158 153
f 140 170 149
f 143 172 173
f 143 173 174
f 143 174 175
f 143 175 176
f 143 176 177
f 143 177 171
f 145 148 152
f 140 169 170
f 145 152 178
f 145 179 146
f 146 179 178
f 146 178 180
f 146 180 147
f 147 180 172
f 149 170 169
f 149 169 181
f 60 80 83
f 145 178 179
f 139 169 140
f 138 199 168
f 138 167 199
f 123 159 124
f 124 159 160
f 124 160 161
f 124 161 162
f 124 162 129
f 124 129 126
f 124 126 125
f 129 162 161
f 129 161 130
f 130 161 163
f 131 163 164
f 131 164 165
f 131 165 135
f 133 135 165
f 133 165 164
f 133 164 166
f 137 167 138
f 138 168 169
f 138 169 139
f 101 132 102
f 101 135 132
f 123 154 159
f 101 163 131
f 72 99 100
f 72 100 101
f 72 101 102
f 72 102 132
f 72 132 103
f 72 103 104
f 72 104 76
f 72 76 73
f 72 98 99
f 73 76 74
f 76 105 77
f 77 106 107
f 77 107 136
f 77 136 108
f 77 108 81
f 77 79 78
f 77 105 109
f 77 109 106
f 76 104 105
f 71 97 98
f 70 97 71
f 70 96 97
f 61 84 85
f 101 131 135
f 61 85 82
f 62 86 64
f 62 64 63
f 64 87 65
f 64 86 87
f 65 87 66
f 66 87 69
f 67 68 89
f 67 89 90
f 67 90 91
f 67 91 92
f 67 92 88
f 68 69 93
f 68 93 89
f 69 87 94
f 69 94 95
f 69 95 93
f 80 110 83
f 82 85 86
f 71 98 72
f 83 112 84
f 94 114 113
f 94 113 112
f 94 112 121
f 96 122 123
f 96 123 124
f 96 124 125
f 96 125 126
f 96 127 99
f 96 99 128
f 96 128 97
f 97 128 99
f 97 99 98
f 99 127 126
f 99 126 101
f 99 101 100
f 101 126 129
f 83 111 112
f 101 129 130
f 101 130 163
f 94 116 95
f 94 117 116
f 96 126 127
f 94 121 117
f 83 110 111
f 84 112 85
f 85 112 113
f 85 113 114
f 85 114 87
f 87 114 94
f 88 92 120
f 88 120 115
f 89 93 90
f 85 87 86
f 90 116 117
f 90 117 91
f 91 118 92
f 91 117 118
f 92 118 119
f 90 93 116
f 92 119 120
f 93 95 116