# https://github.com/mikedh/trimesh
v -0.54177600 0.17691800 -0.16977600
v -0.53969900 0.17551200 -0.16977600
v -0.53826800 0.17263500 -0.17265400
v -0.54251500 0.17691800 -0.17051500
v -0.82537000 0.17691800 -0.16977600
v -0.53499100 0.17181500 -0.16977600
v -0.54334600 0.13708600 -0.20565300
v -0.56365500 0.16754900 -0.19549900
v -0.56444000 0.17691800 -0.18654600
v -0.54842300 0.17601400 -0.17603500
v -0.52280600 0.15762900 -0.16977600
v -0.49257200 0.11677700 -0.17519000
v -0.52303600 0.12693100 -0.19549900
v -0.54574600 0.17691800 -0.17291800
v -0.92410100 0.17691800 -0.17425200
v -0.82463100 0.00603099 -0.16977600
v -0.54334600 0.12693100 -0.21073700
v -0.54842300 0.12186300 -0.21707600
v -0.57381000 0.13708600 -0.22596300
v -0.58396500 0.15739500 -0.21580800
v -0.59490400 0.17691800 -0.20626100
v -0.59333500 0.17691800 -0.20525700
v -0.49571100 0.12377000 -0.16977600
v -0.48911000 0.11538800 -0.16977600
v -0.46275400 0.07686160 -0.16977600
v -0.46275400 0.07403440 -0.17118900
v -0.46275400 0.05078110 -0.18280900
v -0.49257200 0.10662200 -0.18026000
v -0.51454300 0.11170800 -0.19634400
v -0.52303600 0.11677700 -0.20058300
v -0.92959400 0.17691800 -0.17619300
v -0.46275400 0.00603099 -0.16977600
v -0.93171700 0.17691800 -0.17726300
v -0.92917900 0.01524870 -0.24625800
v -0.93139400 0.00603099 -0.25451200
v -0.54334600 0.10662200 -0.22089200
v -0.54842300 0.10155400 -0.22723000
v -0.57381000 0.12693100 -0.23104600
v -0.58904200 0.13201700 -0.23737200
v -0.58396500 0.13708600 -0.23104600
v -0.60505900 0.17691800 -0.21174100
v -0.46275400 0.00603099 -0.18280900
v -0.51657400 0.00603099 -0.22705900
v -0.50438900 0.02031760 -0.21665300
v -0.53489900 0.03047210 -0.23696200
v -0.52474400 0.05078110 -0.22680800
v -0.52811400 0.06093560 -0.22723000
v -0.51795900 0.07109010 -0.21707600
v -0.50438900 0.07109010 -0.20649800
v -0.52811400 0.11170800 -0.20692100
v -0.93171700 0.01016310 -0.25261000
v -0.93282500 0.17691800 -0.18206900
v -0.93430200 0.02031760 -0.25387800
v -0.93277900 0.00603099 -0.25727100
v -0.56873300 0.08124460 -0.24752600
v -0.55857800 0.09141580 -0.23737200
v -0.58904200 0.08124460 -0.25769400
v -0.59919700 0.09141580 -0.25769400
v -0.62966100 0.12186300 -0.25769400
v -0.60427400 0.13708600 -0.24118800
v -0.62536800 0.17691800 -0.22189500
v -0.54703800 0.00603099 -0.24735400
v -0.55257700 0.00603099 -0.25064200
v -0.54334600 0.03555770 -0.24118800
v -0.53826800 0.04062660 -0.23737200
v -0.55857800 0.05078110 -0.24752600
v -0.93430200 0.17691800 -0.18868500
v -0.93430200 0.00603099 -0.26403200
v -0.57381000 0.07617570 -0.25134200
v -0.59411900 0.07617570 -0.26149700
v -0.60427400 0.08633020 -0.26149700
v -0.63473800 0.11677700 -0.26149700
v -0.64489300 0.14724000 -0.25134200
v -0.61950600 0.15232600 -0.23737200
v -0.62966100 0.17263500 -0.22723000
v -0.67028000 0.16586000 -0.24710400
v -0.65583200 0.17691800 -0.23205000
v -0.56536300 0.00603099 -0.25727100
v -0.56536300 0.01016310 -0.25727100
v -0.57381000 0.01524870 -0.26149700
v -0.56365500 0.04571220 -0.25134200
v -0.93430200 0.17691800 -0.22930300
v -0.93430200 0.00603099 -0.28848800
v -0.61442900 0.06602120 -0.27165100
v -0.66520200 0.08633020 -0.28180600
v -0.65504800 0.10662200 -0.27165100
v -0.66520200 0.13708600 -0.26149700
v -0.66012500 0.14217200 -0.25769400
v -0.66520200 0.15739500 -0.25134200
v -0.64997000 0.15570500 -0.24710400
v -0.67028000 0.17601400 -0.23696200
v -0.71085200 0.16248100 -0.25769400
v -0.72100700 0.16586000 -0.25727100
v -0.71085200 0.17601400 -0.24710400
v -0.66760300 0.17691800 -0.23519300
v -0.56808600 0.00603099 -0.25864500
v -0.57210200 0.01016310 -0.26065200
v -0.58165700 0.00603099 -0.26541900
v -0.57888700 0.01016310 -0.26403200
v -0.59319600 0.00603099 -0.27095200
v -0.60427400 0.03555770 -0.27165100
v -0.93430200 0.17263500 -0.23358200
v -0.93171700 0.17691800 -0.24071200
v -0.93171700 0.17390700 -0.24372300
v -0.93430200 0.07109010 -0.28434100
v -0.93296400 0.00603099 -0.29449600
v -0.63473800 0.04571220 -0.28180600
v -0.64489300 0.06602120 -0.28180600
v -0.70069800 0.07109010 -0.29449600
v -0.69566600 0.07617570 -0.29196100
v -0.71593000 0.08633020 -0.29196100
v -0.71593000 0.13708600 -0.27165100
v -0.68551200 0.14724000 -0.26149700
v -0.68043400 0.15232600 -0.25769400
v -0.71593000 0.15739500 -0.26149700
v -0.76162600 0.17691800 -0.24666800
v -0.72100700 0.15910100 -0.26065200
v -0.80224500 0.16586000 -0.25727100
v -0.70817500 0.17691800 -0.24533400
v -0.57210200 0.00603099 -0.26065200
v -0.62966100 0.00603099 -0.28434100
v -0.62966100 0.01016310 -0.28434100
v -0.62458300 0.01524870 -0.28180600
v -0.93430200 0.16248100 -0.24372300
v -0.92410100 0.17691800 -0.24533400
v -0.92410100 0.17601400 -0.24710400
v -0.93088600 0.16586000 -0.25049700
v -0.92917900 0.17009200 -0.24880700
v -0.93430200 0.10155400 -0.27418700
v -0.93088600 0.07448610 -0.29111600
v -0.93116300 0.00603099 -0.29905200
v -0.63981600 0.04062660 -0.28434100
v -0.64997000 0.06093560 -0.28434100
v -0.69058900 0.06093560 -0.29449600
v -0.72100700 0.01016310 -0.30466400
v -0.74131600 0.03047210 -0.30466400
v -0.72100700 0.08124460 -0.29449600
v -0.72100700 0.13201700 -0.27418700
v -0.72100700 0.14555100 -0.26742600
v -0.77044200 0.17691800 -0.24666800
v -0.75147100 0.12524200 -0.27758000
v -0.80224500 0.15910100 -0.26065200
v -0.92410100 0.16925600 -0.25049700
v -0.66012500 0.00603099 -0.29449600
v -0.66012500 0.01016310 -0.29449600
v -0.93088600 0.10493300 -0.28096100
v -0.92982500 0.00603099 -0.30022700
v -0.92410100 0.10155400 -0.28434100
v -0.92410100 0.07109010 -0.29449600
v -0.67028000 0.03047210 -0.29449600
v -0.72100700 0.00603099 -0.30466400
v -0.78193500 0.03047210 -0.30466400
v -0.75147100 0.11170800 -0.28434100
v -0.80224500 0.08124460 -0.29449600
v -0.78193500 0.12524200 -0.27758000
v -0.80224500 0.14555100 -0.26742600
v -0.92410100 0.11508700 -0.27758000
v -0.92410100 0.00603099 -0.30165300
v -0.80224500 0.13201700 -0.27418700
v -0.78193500 0.11170800 -0.28434100
v -0.81655400 0.00603099 -0.30466400
v -0.80224500 0.02031760 -0.30466400
f 87 113 114
f 85 112 87
f 85 111 112
f 85 110 111
f 87 114 88
f 87 112 113
f 84 123 107
f 85 108 109
f 85 87 86
f 84 107 108
f 84 101 123
f 83 105 106
f 82 103 104
f 89 114 92
f 82 104 102
f 85 109 110
f 91 94 119
f 97 120 98
f 92 114 113
f 102 104 124
f 80 100 101
f 100 123 101
f 100 122 123
f 100 121 122
f 98 100 99
f 96 120 97
f 91 119 95
f 94 116 119
f 93 118 140
f 93 142 118
f 93 117 142
f 93 115 117
f 93 116 94
f 92 115 93
f 92 113 115
f 93 140 116
f 80 99 100
f 69 81 80
f 80 97 98
f 70 85 71
f 70 108 85
f 70 84 108
f 70 101 84
f 70 80 101
f 69 80 70
f 64 66 65
f 71 85 72
f 64 81 66
f 63 80 64
f 63 79 80
f 63 78 79
f 61 76 77
f 61 75 76
f 61 74 75
f 103 125 126
f 64 80 81
f 72 85 86
f 72 86 87
f 72 87 73
f 79 97 80
f 79 96 97
f 78 96 79
f 77 91 95
f 76 94 91
f 76 93 94
f 76 92 93
f 76 89 92
f 76 91 77
f 75 90 76
f 73 75 74
f 73 90 75
f 73 76 90
f 73 89 76
f 73 114 89
f 73 88 114
f 73 87 88
f 80 98 99
f 103 126 104
f 138 141 139
f 104 126 128
f 138 153 141
f 137 160 153
f 137 154 160
f 137 153 138
f 136 154 137
f 136 152 154
f 135 144 151
f 60 74 61
f 135 145 144
f 135 152 136
f 135 162 152
f 135 161 162
f 135 151 161
f 134 150 135
f 133 150 134
f 132 150 133
f 135 150 145
f 132 145 150
f 141 153 160
f 142 155 156
f 158 162 161
f 155 159 156
f 155 160 159
f 152 162 158
f 149 152 158
f 149 154 152
f 148 154 149
f 141 160 155
f 148 160 154
f 148 156 159
f 148 157 156
f 147 149 158
f 146 157 148
f 143 157 146
f 142 157 143
f 142 156 157
f 148 159 160
f 130 149 147
f 130 148 149
f 130 146 148
f 111 138 112
f 111 137 138
f 109 133 134
f 109 111 110
f 109 137 111
f 109 136 137
f 109 134 135
f 112 115 113
f 108 133 109
f 107 123 122
f 107 133 108
f 107 132 133
f 105 131 106
f 105 130 131
f 105 129 130
f 104 128 127
f 107 122 132
f 112 138 139
f 112 139 117
f 112 117 115
f 130 147 131
f 129 146 130
f 127 143 146
f 127 128 143
f 126 143 128
f 125 140 126
f 124 146 129
f 124 127 146
f 122 145 132
f 121 145 122
f 121 144 145
f 118 126 140
f 118 143 126
f 118 142 143
f 117 155 142
f 117 141 155
f 117 139 141
f 104 127 124
f 60 73 74
f 109 135 136
f 59 72 73
f 12 27 28
f 12 26 27
f 12 25 26
f 12 24 25
f 12 23 24
f 11 23 12
f 9 14 10
f 12 28 29
f 8 22 9
f 8 20 21
f 8 19 20
f 7 30 17
f 7 13 30
f 7 19 8
f 7 18 19
f 7 17 18
f 8 21 22
f 5 15 16
f 12 29 13
f 15 31 16
f 16 100 98
f 16 121 100
f 16 144 121
f 16 151 144
f 16 161 151
f 16 158 161
f 16 147 158
f 13 29 30
f 16 131 147
f 16 83 106
f 16 68 83
f 16 54 68
f 16 35 54
f 16 34 35
f 16 33 34
f 16 31 33
f 16 106 131
f 4 10 14
f 3 13 7
f 3 12 13
f 1 103 82
f 1 125 103
f 1 140 125
f 1 116 140
f 1 119 116
f 1 95 119
f 1 77 95
f 1 82 67
f 1 61 77
f 1 21 41
f 1 22 21
f 1 9 22
f 1 14 9
f 1 3 4
f 1 2 3
f 59 73 60
f 1 41 61
f 1 67 52
f 1 52 33
f 1 33 31
f 3 11 12
f 3 6 11
f 3 10 4
f 3 9 10
f 3 8 9
f 3 7 8
f 2 6 3
f 1 6 2
f 1 11 6
f 1 23 11
f 1 24 23
f 1 25 24
f 1 32 25
f 1 16 32
f 1 5 16
f 1 15 5
f 1 31 15
f 16 98 120
f 16 120 96
f 1 4 14
f 16 78 63
f 45 47 46
f 45 65 47
f 45 64 65
f 45 63 64
f 45 62 63
f 43 45 44
f 43 62 45
f 47 65 66
f 40 61 41
f 39 60 40
f 39 59 60
f 39 58 59
f 39 57 58
f 39 55 57
f 38 56 55
f 38 55 39
f 40 60 61
f 37 47 55
f 47 66 55
f 52 67 53
f 16 96 78
f 58 72 59
f 58 70 71
f 57 70 58
f 57 69 70
f 55 69 57
f 55 81 69
f 51 53 54
f 55 66 81
f 53 105 83
f 53 129 105
f 53 124 129
f 53 102 124
f 53 82 102
f 53 67 82
f 53 68 54
f 53 83 68
f 37 48 47
f 58 71 72
f 37 56 38
f 25 27 26
f 25 42 27
f 25 32 42
f 20 41 21
f 19 41 20
f 19 40 41
f 19 39 40
f 27 42 43
f 19 38 39
f 18 37 38
f 17 30 36
f 17 37 18
f 17 36 37
f 16 42 32
f 16 43 42
f 37 50 48
f 18 38 19
f 27 43 44
f 16 62 43
f 27 45 46
f 37 55 56
f 27 44 45
f 35 51 54
f 34 51 35
f 33 53 51
f 33 52 53
f 33 51 34
f 30 37 36
f 16 63 62
f 29 50 30
f 30 50 37
f 27 47 48
f 27 48 49
f 27 46 47
f 27 29 28
f 29 48 50
f 29 49 48
f 27 49 29