o convex_0
v 0.126836 0 0.528467
v 0.126836 -0.0211311 0.517806
v 0.126836 0.0211311 0.517806
v 0.084549 0.0211311 0.676384
v 0.063418 0.0105531 0.760908
v 0.084549 0 0.686854
v 0.063418 -0.0105531 0.760908
v 0.084549 -0.0211311 0.676384
v 0.116258 -0.031709 0.549598
v 0.124179 -0.033025 0.517806
v 0.126836 -0.031709 0.507336
v 0.116258 0.031709 0.549598
v 0.126836 0.031709 0.507336
v 0.089838 0.0369731 0.639452
v 0.0105531 0 0.961748
v 0.0924701 -0.033025 0.634122
v 0.124179 -0.0435781 0.507336
v 0.126836 -0.0422621 0.496675
v 0.121547 0.0475511 0.512476
v 0.126836 0.0422621 0.496675
v 0.0792601 0.0475511 0.660583
v 0.0686821 0.0369731 0.713316
v 0.02642 0.0158421 0.882555
v 0.02642 0.02642 0.861423
v 0.00526414 0.00526414 0.967079
v 0.00702713 -0.00350115 0.968792
v 0.071339 -0.033025 0.707985
v 0.0818921 -0.0435781 0.655253
v 0.113601 -0.0541561 0.528467
v 0.113601 -0.064734 0.507336
v 0.116258 -0.063418 0.496675
v 0.126836 -0.0422621 -0.961748
v 0.119784 0.056366 0.500292
v 0.110969 0.0686821 0.512476
v 0.110969 0.058129 0.533607
v 0.126836 0.0422621 -0.866563
v 0.0774971 0.056366 0.648209
v 0.058129 0.0475511 0.723976
v 0.109206 0.0774971 0.500292
v 0.0158421 0.02642 0.882555
v 0 0.0105531 0.961748
v 0.0457881 0.0457881 0.764525
v 0.0475511 0.058129 0.723976
v 0.0475511 0.0792601 0.660583
v -0.00350115 0.00702713 0.968792
v 0 0 0.972409
v 0.00526414 -0.00792104 0.967079
v 0.0774971 -0.056366 0.644592
v 0.109206 -0.0669191 0.517806
v 0.109206 -0.0774971 0.496675
v 0.116258 -0.063418 -0.961748
v 0.124179 -0.0475511 -0.967079
v 0.126836 0.031709 -0.961748
v 0.116258 0.063418 0.496675
v 0.12331 0.0493141 -0.870181
v 0.056366 0.056366 0.711602
v 0.0986281 0.088075 0.510762
v 0.089838 0.089838 0.533607
v 0.109206 0.0774971 -0.863137
v -0.0105531 0.063418 0.760908
v -0.0211311 0.084549 0.676384
v -0.033025 0.0924701 0.634122
v -0.033025 0.071339 0.707985
v 0.0369731 0.0686821 0.713316
v 0.0369731 0.089838 0.639452
v 0.0211311 0.084549 0.676384
v 0.0105531 0.063418 0.760908
v 0 0.084549 0.686854
v 0.056366 0.0774971 0.648209
v 0.0774971 0.109206 0.500292
v 0.0686821 0.110969 0.512476
v 0.058129 0.110969 0.533607
v -0.00792104 0.00526414 0.967079
v -0.00526414 -0.00526414 0.969744
v 0 -0.00702713 0.968792
v -0.00702713 0 0.968792
v 0.0369731 -0.071339 0.702845
v 0.0422621 -0.0673661 0.707985
v 0.0422621 -0.0567881 0.739777
v 0.056366 -0.056366 0.707985
v 0.0669191 -0.056366 0.676384
v 0 -0.0105531 0.961748
v 0.0211311 -0.084549 0.676384
v 0.02642 -0.0818921 0.681714
v 0.0986281 -0.088075 0.507336
v 0.109206 -0.0774971 -0.961748
v 0.113601 -0.0686821 -0.967079
v 0.117574 -0.05284 -0.969744
v 0.12331 -0.0422621 -0.968792
v 0.12331 0.031709 -0.968792
v 0.121547 0.0369731 -0.969744
v 0.12331 0.0387361 -0.965175
v 0.116258 0.063418 -0.866563
v 0.112732 0.0704451 -0.870181
v 0.112732 0.059892 -0.965175
v 0.088075 0.0986281 0.510762
v 0.109206 0.0669191 -0.958131
v 0.088075 0.088075 -0.958131
v 0.0774971 0.109206 -0.863137
v 0 0.126836 0.528467
v -0.0211311 0.126836 0.517806
v -0.031709 0.116258 0.549598
v -0.0435781 0.0818921 0.655253
v -0.0435781 0.124179 0.507336
v -0.0541561 0.113601 0.528467
v 0.0475511 0.121547 0.512476
v 0.031709 0.116258 0.549598
v 0.0211311 0.126836 0.517806
v 0.063418 0.116258 0.496675
v 0.056366 0.119784 0.500292
v -0.056366 0.056366 0.707985
v -0.0567881 0.0422621 0.739777
v -0.0673661 0.0422621 0.707985
v -0.071339 0.0369731 0.702845
v -0.0818921 0.02642 0.681714
v -0.084549 0.0211311 0.676384
v -0.0105531 0 0.961748
v -0.056366 0.0774971 0.644592
v -0.056366 0.0669191 0.676384
v -0.00702713 -0.00702713 0.965175
v 0.0475511 -0.0818921 0.649923
v 0.0475511 -0.124179 0.502005
v 0.058129 -0.113601 0.523136
v 0.063418 -0.109653 0.528467
v 0.0739711 -0.109653 0.507336
v 0.084549 -0.0990751 0.517806
v 0.089838 -0.0924701 0.523136
v 0.088075 -0.088075 0.538937
v 0.0105531 -0.063418 0.760908
v -0.031709 -0.071339 0.709318
v -0.031709 -0.0924701 0.635454
v -0.0211311 -0.084549 0.676384
v -0.0105531 -0.063418 0.760908
v 0 -0.084549 0.686854
v 0 -0.126836 0.528467
v 0.0211311 -0.126836 0.517806
v 0.031709 -0.116258 0.549598
v 0.0369731 -0.113601 0.554738
v 0.088075 -0.0986281 0.507336
v 0.0774971 -0.109206 -0.961748
v 0.096443 -0.084549 -0.969744
v 0.106996 -0.0739711 -0.969744
v 0.10568 -0.063418 -0.972409
v 0.116258 -0.0422621 -0.972409
v 0.116258 0.031709 -0.972409
v 0.110969 0.058129 -0.969744
v 0.0810231 0.091601 -0.965175
v 0.0774971 0.0986281 -0.958131
v 0.0704451 0.112732 -0.870181
v 0.063418 0.116258 -0.866563
v -0.033025 0.124179 0.517806
v -0.031709 0.126836 0.507336
v -0.0422621 0.126836 0.496675
v -0.064734 0.113601 0.507336
v -0.0669191 0.109206 0.517806
v 0.0422621 0.126836 0.496675
v 0.031709 0.126836 0.507336
v -0.088075 0.088075 0.538937
v -0.0924701 0.089838 0.523136
v -0.0990751 0.084549 0.517806
v -0.0818921 0.0475511 0.649923
v -0.109653 0.0739711 0.507336
v -0.109653 0.063418 0.528467
v -0.113601 0.058129 0.523136
v -0.124179 0.0475511 0.502005
v -0.113601 0.0369731 0.554738
v -0.116258 0.031709 0.549598
v -0.063418 0.0105531 0.760908
v -0.126836 0.0211311 0.517806
v -0.126836 0 0.528467
v -0.063418 -0.0105531 0.760908
v -0.084549 -0.0211311 0.676384
v -0.0924701 -0.031709 0.635454
v -0.071339 -0.031709 0.709318
v -0.084549 0 0.686854
v -0.0774971 0.109206 0.496675
v -0.088075 0.0986281 0.507336
v -0.0686821 -0.0369731 0.710651
v -0.0792601 -0.0475511 0.657918
v -0.058129 -0.0475511 0.721311
v -0.0475511 -0.0475511 0.752913
v -0.0475511 -0.058129 0.721311
v -0.0475511 -0.0792601 0.657918
v -0.0369731 -0.0686821 0.710651
v 0.031709 -0.126836 0.507336
v 0.0422621 -0.126836 0.496675
v 0.063418 -0.116258 0.496675
v 0.0686821 -0.113601 0.502005
v 0.0774971 -0.109206 0.496675
v -0.0369731 -0.089838 0.636787
v -0.05284 -0.113601 0.529799
v -0.0422621 -0.124179 0.508478
v -0.031709 -0.116258 0.549598
v -0.0211311 -0.126836 0.517806
v 0.063418 -0.116258 -0.961748
v 0.071339 -0.110969 -0.967079
v 0.0752871 -0.10568 -0.969744
v 0.0858651 -0.095127 -0.969744
v 0.063418 -0.10568 -0.972409
v 0.10568 0.05284 -0.972409
v 0.095127 0.063418 -0.972409
v 0.0792601 0.089838 -0.969744
v 0.0704451 0.102154 -0.965175
v 0.0493141 0.12331 -0.870181
v -0.063418 0.116258 0.496675
v -0.0422621 0.126836 -0.866563
v 0.0422621 0.126836 -0.866563
v -0.0986281 0.088075 0.507336
v -0.109206 0.0774971 0.496675
v -0.113601 0.0686821 0.502005
v -0.116258 0.063418 0.496675
v -0.126836 0.0422621 0.496675
v -0.126836 0.031709 0.507336
v -0.126836 -0.0211311 0.517806
v -0.116258 -0.031709 0.549598
v -0.089838 -0.0369731 0.636787
v -0.124179 -0.0422621 0.508478
v -0.113601 -0.05284 0.529799
v -0.0774971 0.109206 -0.866563
v -0.110969 -0.058129 0.530941
v -0.110969 -0.0686821 0.50981
v -0.112732 -0.0704451 0.500292
v -0.100391 -0.0792601 0.520471
v -0.091601 -0.091601 0.521423
v -0.089838 -0.089838 0.530941
v -0.0792601 -0.100391 0.520471
v -0.0704451 -0.112732 0.500292
v -0.0686821 -0.110969 0.50981
v -0.058129 -0.110969 0.530941
v 0.0422621 -0.126836 -0.961748
v -0.0475511 -0.121547 0.50981
v -0.0493141 -0.12331 0.500292
v -0.0422621 -0.126836 0.496675
v -0.031709 -0.124179 0.519139
v -0.031709 -0.126836 0.507336
v 0.0501831 -0.121547 -0.967079
v 0.0457881 -0.12331 -0.968792
v 0.0669191 -0.112732 -0.968792
v 0.0422621 -0.116258 -0.972409
v 0.063418 0.095127 -0.972409
v 0.0686821 0.100391 -0.969744
v 0.0493141 0.112732 -0.965175
v 0.0422621 0.116258 -0.961748
v -0.063418 0.116258 -0.866563
v -0.0105531 0.126836 -0.961748
v -0.0422621 0.116258 -0.961748
v -0.0475511 0.124179 -0.871894
v 0 0.126836 -0.961748
v -0.109206 0.0774971 -0.866563
v -0.116258 0.063418 -0.866563
v -0.126836 0.0422621 -0.866563
v -0.126836 -0.031709 0.507336
v -0.124179 -0.031709 0.519139
v -0.126836 -0.0422621 0.496675
v -0.12331 -0.0493141 0.500292
v -0.121547 -0.0475511 0.50981
v -0.0686821 0.113601 -0.871894
v -0.0686821 0.103048 -0.967079
v -0.0774971 0.0986281 -0.961748
v -0.100391 0.0818921 -0.956418
v -0.102154 0.0810231 -0.951088
v -0.112732 -0.059892 0.521423
v -0.116258 -0.063418 0.496675
v -0.109206 -0.0774971 0.493248
v -0.0986281 -0.088075 0.503719
v -0.088075 -0.0986281 0.503719
v -0.0774971 -0.109206 0.493248
v -0.063418 -0.116258 0.496675
v -0.059892 -0.112732 0.521423
v -0.0422621 -0.126836 -0.961748
v -0.0387361 -0.12331 -0.968792
v -0.0422621 -0.116258 -0.972409
v 0.0422621 0.10568 -0.972409
v 0.0475511 0.110969 -0.969744
v -0.0158421 0.124179 -0.967079
v -0.0475511 0.113601 -0.967079
v 0.00526414 0.121547 -0.969744
v 0 0.12331 -0.968792
v -0.109206 0.0669191 -0.961748
v -0.112732 0.059892 -0.961748
v -0.126836 0.031709 -0.961748
v -0.126836 -0.0422621 -0.961748
v -0.0739711 0.096443 -0.969744
v -0.100391 0.076628 -0.967079
v -0.116258 -0.063418 -0.961748
v -0.109206 -0.0774971 -0.965175
v -0.0774971 -0.109206 -0.965175
v -0.063418 -0.116258 -0.961748
v -0.056366 -0.119784 -0.965175
v -0.0475511 -0.121547 -0.967079
v -0.063418 -0.10568 -0.972409
v 0 0.116258 -0.972409
v -0.0105531 0.12331 -0.968792
v -0.0422621 0.112732 -0.968792
v -0.05284 0.106996 -0.969744
v -0.0105531 0.116258 -0.972409
v -0.110969 0.0607611 -0.967079
v -0.121547 0.03963 -0.967079
v -0.12331 0.0352101 -0.968792
v -0.12331 -0.0387361 -0.968792
v -0.121547 -0.0475511 -0.967079
v -0.119784 -0.056366 -0.965175
v -0.10568 0.064734 -0.969744
v -0.063418 0.095127 -0.972409
v -0.112732 0.056366 -0.968792
v -0.110969 -0.0686821 -0.967079
v -0.10568 -0.063418 -0.972409
v -0.103917 -0.0722081 -0.970505
v -0.093364 -0.082786 -0.970505
v -0.082786 -0.093364 -0.970505
v -0.0722081 -0.103917 -0.970505
v -0.0686821 -0.110969 -0.967079
v -0.0422621 0.10568 -0.972409
v -0.116258 0.031709 -0.972409
v -0.116258 -0.0422621 -0.972409
v -0.095127 0.063418 -0.972409
v -0.10568 0.05284 -0.972409
f 1 2 11
f 1 11 18
f 1 18 32
f 1 32 53
f 1 53 36
f 1 36 20
f 1 20 13
f 1 13 3
f 1 3 4
f 1 4 5
f 1 5 6
f 1 6 7
f 1 7 8
f 1 8 2
f 2 8 9
f 2 9 10
f 2 10 11
f 3 12 4
f 3 13 12
f 4 14 15
f 4 15 5
f 4 12 14
f 5 15 6
f 6 15 7
f 7 15 8
f 8 15 16
f 8 16 9
f 9 17 10
f 9 16 17
f 10 17 11
f 11 17 18
f 12 13 19
f 12 19 14
f 13 20 19
f 14 21 22
f 14 22 15
f 14 19 35
f 14 35 21
f 15 22 21
f 15 21 23
f 15 23 24
f 15 24 25
f 15 25 26
f 15 26 27
f 15 27 16
f 16 27 28
f 16 28 29
f 16 29 17
f 17 30 31
f 17 31 18
f 17 29 30
f 18 31 51
f 18 51 32
f 19 20 33
f 19 33 39
f 19 39 34
f 19 34 35
f 20 36 55
f 20 55 93
f 20 93 54
f 20 54 33
f 21 37 56
f 21 56 38
f 21 38 24
f 21 24 23
f 21 35 34
f 21 34 39
f 21 39 37
f 24 40 41
f 24 41 25
f 24 38 42
f 24 42 43
f 24 43 44
f 24 44 40
f 25 41 45
f 25 45 46
f 25 46 26
f 26 46 47
f 26 47 27
f 27 47 28
f 28 47 48
f 28 48 29
f 29 49 50
f 29 50 30
f 29 48 49
f 30 50 31
f 31 50 86
f 31 86 51
f 32 51 52
f 32 52 53
f 33 54 39
f 36 53 55
f 37 39 57
f 37 57 58
f 37 58 56
f 38 56 42
f 39 54 93
f 39 93 59
f 39 59 99
f 39 99 70
f 39 70 96
f 39 96 57
f 40 44 41
f 41 60 61
f 41 61 62
f 41 62 63
f 41 63 45
f 41 44 64
f 41 64 65
f 41 65 66
f 41 66 67
f 41 67 68
f 41 68 60
f 42 56 43
f 43 56 69
f 43 69 44
f 44 65 64
f 44 69 70
f 44 70 71
f 44 71 72
f 44 72 106
f 44 106 65
f 45 73 46
f 45 63 73
f 46 74 75
f 46 75 47
f 46 73 76
f 46 76 74
f 47 77 78
f 47 78 79
f 47 79 80
f 47 80 81
f 47 81 48
f 47 75 82
f 47 82 83
f 47 83 84
f 47 84 77
f 48 81 85
f 48 85 50
f 48 50 49
f 50 85 139
f 50 139 189
f 50 189 140
f 50 140 86
f 51 86 87
f 51 87 52
f 52 87 142
f 52 142 88
f 52 88 89
f 52 89 90
f 52 90 53
f 53 90 91
f 53 91 92
f 53 92 55
f 55 94 93
f 55 92 95
f 55 95 94
f 56 58 69
f 57 96 58
f 58 96 69
f 59 93 94
f 59 94 95
f 59 95 97
f 59 97 98
f 59 98 99
f 60 68 100
f 60 100 61
f 61 100 101
f 61 101 102
f 61 102 62
f 62 103 63
f 62 102 104
f 62 104 105
f 62 105 103
f 63 103 73
f 65 106 107
f 65 107 66
f 66 107 108
f 66 108 100
f 66 100 67
f 67 100 68
f 69 96 70
f 70 109 110
f 70 110 106
f 70 106 71
f 70 99 150
f 70 150 109
f 71 106 72
f 73 111 112
f 73 112 113
f 73 113 114
f 73 114 115
f 73 115 116
f 73 116 117
f 73 117 76
f 73 103 118
f 73 118 119
f 73 119 111
f 74 76 117
f 74 117 120
f 74 120 82
f 74 82 75
f 77 121 78
f 77 84 122
f 77 122 123
f 77 123 121
f 78 121 124
f 78 124 125
f 78 125 126
f 78 126 79
f 79 126 80
f 80 126 127
f 80 127 128
f 80 128 85
f 80 85 81
f 82 129 83
f 82 120 130
f 82 130 131
f 82 131 132
f 82 132 133
f 82 133 134
f 82 134 129
f 83 129 135
f 83 135 136
f 83 136 137
f 83 137 84
f 84 137 138
f 84 138 122
f 85 128 127
f 85 127 139
f 86 140 198
f 86 198 141
f 86 141 142
f 86 142 87
f 88 142 143
f 88 143 144
f 88 144 89
f 89 144 91
f 89 91 90
f 91 144 145
f 91 145 146
f 91 146 95
f 91 95 92
f 95 146 202
f 95 202 147
f 95 147 98
f 95 98 97
f 98 147 203
f 98 203 148
f 98 148 99
f 99 148 203
f 99 203 149
f 99 149 150
f 100 108 157
f 100 157 156
f 100 156 207
f 100 207 248
f 100 248 245
f 100 245 206
f 100 206 153
f 100 153 152
f 100 152 101
f 101 151 102
f 101 152 151
f 102 151 104
f 103 105 118
f 104 152 153
f 104 153 205
f 104 205 154
f 104 154 105
f 104 151 152
f 105 154 176
f 105 176 155
f 105 155 118
f 106 110 156
f 106 156 157
f 106 157 107
f 107 157 108
f 109 150 204
f 109 204 207
f 109 207 156
f 109 156 110
f 111 119 177
f 111 177 158
f 111 158 159
f 111 159 160
f 111 160 112
f 112 160 113
f 113 161 114
f 113 160 162
f 113 162 163
f 113 163 161
f 114 161 164
f 114 164 165
f 114 165 115
f 115 165 166
f 115 166 167
f 115 167 116
f 116 168 117
f 116 167 169
f 116 169 170
f 116 170 168
f 117 171 172
f 117 172 173
f 117 173 174
f 117 174 120
f 117 168 175
f 117 175 171
f 118 155 176
f 118 176 177
f 118 177 119
f 120 174 178
f 120 178 179
f 120 179 180
f 120 180 181
f 120 181 182
f 120 182 183
f 120 183 184
f 120 184 130
f 121 123 124
f 122 185 186
f 122 186 187
f 122 187 188
f 122 188 125
f 122 125 124
f 122 124 123
f 122 138 137
f 122 137 185
f 125 188 189
f 125 189 139
f 125 139 126
f 126 139 127
f 129 134 135
f 130 184 183
f 130 183 190
f 130 190 131
f 131 190 191
f 131 191 192
f 131 192 193
f 131 193 132
f 132 193 194
f 132 194 135
f 132 135 133
f 133 135 134
f 135 194 235
f 135 235 233
f 135 233 270
f 135 270 230
f 135 230 186
f 135 186 185
f 135 185 136
f 136 185 137
f 140 195 196
f 140 196 197
f 140 197 198
f 140 189 187
f 140 187 195
f 141 198 199
f 141 199 143
f 141 143 142
f 143 199 239
f 143 239 272
f 143 272 291
f 143 291 307
f 143 307 315
f 143 315 314
f 143 314 317
f 143 317 316
f 143 316 304
f 143 304 313
f 143 313 296
f 143 296 292
f 143 292 273
f 143 273 240
f 143 240 201
f 143 201 200
f 143 200 145
f 143 145 144
f 145 200 146
f 146 200 201
f 146 201 240
f 146 240 202
f 147 202 241
f 147 241 203
f 149 204 150
f 149 203 242
f 149 242 204
f 153 206 244
f 153 244 205
f 154 205 176
f 158 177 159
f 159 177 208
f 159 208 160
f 160 208 162
f 161 163 164
f 162 208 209
f 162 209 210
f 162 210 165
f 162 165 163
f 163 165 164
f 165 210 211
f 165 211 212
f 165 212 213
f 165 213 167
f 165 167 166
f 167 213 169
f 168 170 175
f 169 213 212
f 169 212 251
f 169 251 281
f 169 281 282
f 169 282 254
f 169 254 252
f 169 252 214
f 169 214 170
f 170 214 172
f 170 172 171
f 170 171 175
f 172 214 215
f 172 215 173
f 173 216 174
f 173 215 217
f 173 217 218
f 173 218 216
f 174 216 179
f 174 179 178
f 176 205 244
f 176 244 219
f 176 219 249
f 176 249 209
f 176 209 208
f 176 208 177
f 179 216 218
f 179 218 220
f 179 220 221
f 179 221 222
f 179 222 223
f 179 223 224
f 179 224 225
f 179 225 180
f 180 225 181
f 181 225 182
f 182 225 183
f 183 225 224
f 183 224 226
f 183 226 227
f 183 227 228
f 183 228 229
f 183 229 191
f 183 191 190
f 186 230 195
f 186 195 187
f 187 189 188
f 191 229 231
f 191 231 192
f 192 231 232
f 192 232 233
f 192 233 235
f 192 235 234
f 192 234 193
f 193 234 194
f 194 234 235
f 195 230 236
f 195 236 196
f 196 236 237
f 196 237 238
f 196 238 197
f 197 238 199
f 197 199 198
f 199 238 237
f 199 237 239
f 202 240 241
f 203 241 274
f 203 274 242
f 204 242 243
f 204 243 207
f 206 245 246
f 206 246 276
f 206 276 247
f 206 247 244
f 207 243 248
f 209 211 210
f 209 249 250
f 209 250 211
f 211 250 251
f 211 251 212
f 214 252 253
f 214 253 215
f 215 253 217
f 217 253 252
f 217 252 254
f 217 254 255
f 217 255 256
f 217 256 218
f 218 256 220
f 219 244 257
f 219 257 258
f 219 258 259
f 219 259 260
f 219 260 261
f 219 261 249
f 220 256 255
f 220 255 262
f 220 262 222
f 220 222 221
f 222 262 255
f 222 255 263
f 222 263 264
f 222 264 224
f 222 224 223
f 224 264 265
f 224 265 266
f 224 266 267
f 224 267 227
f 224 227 226
f 227 267 268
f 227 268 232
f 227 232 269
f 227 269 229
f 227 229 228
f 229 269 232
f 229 232 231
f 230 270 271
f 230 271 237
f 230 237 236
f 232 268 288
f 232 288 289
f 232 289 270
f 232 270 233
f 237 271 272
f 237 272 239
f 240 273 274
f 240 274 241
f 242 274 243
f 243 274 248
f 244 247 257
f 245 248 275
f 245 275 276
f 245 276 246
f 247 276 258
f 247 258 257
f 248 274 277
f 248 277 278
f 248 278 275
f 249 261 279
f 249 279 280
f 249 280 250
f 250 280 281
f 250 281 251
f 254 282 302
f 254 302 285
f 254 285 263
f 254 263 255
f 258 276 295
f 258 295 283
f 258 283 284
f 258 284 259
f 259 284 260
f 260 279 261
f 260 284 279
f 263 285 286
f 263 286 264
f 264 286 287
f 264 287 267
f 264 267 266
f 264 266 265
f 267 287 288
f 267 288 268
f 270 289 290
f 270 290 271
f 271 290 272
f 272 290 291
f 273 292 274
f 274 292 277
f 275 278 293
f 275 293 294
f 275 294 276
f 276 294 295
f 277 292 296
f 277 296 293
f 277 293 278
f 279 284 297
f 279 297 280
f 280 297 298
f 280 298 281
f 281 298 299
f 281 299 300
f 281 300 282
f 282 300 301
f 282 301 302
f 283 303 284
f 283 295 304
f 283 304 316
f 283 316 303
f 284 303 305
f 284 305 297
f 285 302 286
f 286 302 301
f 286 301 306
f 286 306 307
f 286 307 308
f 286 308 309
f 286 309 310
f 286 310 287
f 287 310 311
f 287 311 291
f 287 291 312
f 287 312 290
f 287 290 289
f 287 289 288
f 290 312 291
f 291 311 310
f 291 310 309
f 291 309 307
f 293 296 313
f 293 313 294
f 294 313 295
f 295 313 304
f 297 305 298
f 298 305 299
f 299 305 314
f 299 314 315
f 299 315 300
f 300 315 301
f 301 315 307
f 301 307 306
f 303 316 317
f 303 317 305
f 305 317 314
f 307 309 308
