# https://github.com/mikedh/trimesh
v -0.08859660 0.48237800 -0.75863500
v -0.08859660 0.35748900 -0.75863500
v -0.08859660 0.48877600 -0.76020800
v -0.28547800 0.48174900 -0.49931700
v -0.08859660 0.34569900 -0.76744600
v -0.28547800 0.35687600 -0.49931700
v -0.29141500 0.34497600 -0.49931700
v -0.08859660 0.49591200 -0.77093800
v -0.29141500 0.49364900 -0.49931700
v -0.28561800 0.48204800 -0.49931700
v -0.09814660 0.34348300 -0.75832000
v -0.08859660 0.33901900 -0.78506700
v -0.30331800 0.33901900 -0.49931700
v -0.08859660 0.49959100 -0.78506700
v -0.30331800 0.49959100 -0.49931700
v -0.08859660 0.33901900 -0.80290900
v -0.35683700 0.33901900 -0.49931700
v -0.08859660 0.49959100 -0.80290900
v -0.35683700 0.49959100 -0.49931700
v -0.19627900 0.33901900 -0.80290900
v -0.08859660 0.33964700 -0.80416700
v -0.36873900 0.34497600 -0.49931700
v -0.35683700 0.33901900 -0.57099800
v -0.08859660 0.49364900 -0.81480300
v -0.20521300 0.49514200 -0.81184500
v -0.19627900 0.49959100 -0.80290900
v -0.36873900 0.49364900 -0.49931700
v -0.35683700 0.49959100 -0.57099800
v -0.36577100 0.49514200 -0.57990300
v -0.21115000 0.34200500 -0.79995100
v -0.20521300 0.34794700 -0.81184500
v -0.19034200 0.34497600 -0.81480300
v -0.30331800 0.33901900 -0.69585900
v -0.08859660 0.34497600 -0.81480300
v -0.37470500 0.35687600 -0.49931700
v -0.36873900 0.34497600 -0.56505100
v -0.33899700 0.33901900 -0.62452300
v -0.08859660 0.48217400 -0.82056200
v -0.19627900 0.49364900 -0.81480300
v -0.19627900 0.48174900 -0.82075000
v -0.20818200 0.48770700 -0.81480300
v -0.31225200 0.49514200 -0.70479500
v -0.30331800 0.49959100 -0.69585900
v -0.37470500 0.48174900 -0.49931700
v -0.36873900 0.49364900 -0.57099800
v -0.33899700 0.49959100 -0.62452300
v -0.34793100 0.49514200 -0.63346000
v -0.36873900 0.48770700 -0.58289300
v -0.37470500 0.48174900 -0.57099800
v -0.22008400 0.35091800 -0.80885600
v -0.30034900 0.34200500 -0.71074200
v -0.19627900 0.35687600 -0.82075000
v -0.08859660 0.35563400 -0.82015200
v -0.31225200 0.34794700 -0.70479500
v -0.37470500 0.35687600 -0.57099800
v -0.36280200 0.35091800 -0.59478700
v -0.34793100 0.34794700 -0.63346000
v -0.35090000 0.34497600 -0.61857600
v -0.08859660 0.48174900 -0.82075000
v -0.22008400 0.47580700 -0.80885600
v -0.31522000 0.48770700 -0.70775300
v -0.35090000 0.48770700 -0.63641800
v -0.35683700 0.48174900 -0.62452300
v -0.30925500 0.35091800 -0.71964700
v -0.08859660 0.35687600 -0.82075000
v -0.34496200 0.35091800 -0.64831200
v -0.32712300 0.35091800 -0.68396400
v -0.35683700 0.35687600 -0.62452300
v -0.30925500 0.47580700 -0.71964700
v -0.34496200 0.47580700 -0.64831200
v -0.31522000 0.36281700 -0.70775300
f 35 44 49
f 33 57 54
f 40 65 52
f 33 54 51
f 32 52 53
f 33 37 57
f 35 49 55
f 38 40 39
f 36 56 57
f 37 58 57
f 38 59 40
f 40 59 65
f 32 53 34
f 36 55 56
f 31 52 32
f 25 42 43
f 30 51 50
f 40 52 50
f 25 40 41
f 25 41 61
f 25 61 42
f 25 43 26
f 27 29 45
f 31 50 52
f 27 45 49
f 28 46 47
f 28 47 29
f 29 48 49
f 29 49 45
f 29 47 48
f 30 50 31
f 27 49 44
f 40 50 60
f 61 66 70
f 41 60 61
f 25 39 40
f 66 71 67
f 64 67 71
f 62 68 63
f 62 66 68
f 62 70 66
f 61 71 66
f 61 64 71
f 61 69 64
f 61 70 62
f 60 69 61
f 55 57 56
f 55 66 57
f 55 68 66
f 54 67 64
f 54 66 67
f 54 57 66
f 42 61 62
f 42 62 47
f 42 47 46
f 42 46 43
f 47 62 48
f 48 62 49
f 40 60 41
f 49 62 63
f 49 68 55
f 50 51 64
f 50 64 69
f 50 69 60
f 51 54 64
f 52 65 53
f 49 63 68
f 24 39 25
f 36 57 58
f 23 58 37
f 2 7 5
f 3 8 9
f 3 9 10
f 3 10 4
f 4 10 9
f 4 9 15
f 2 6 7
f 4 15 19
f 4 27 44
f 4 44 35
f 4 35 22
f 4 22 17
f 4 17 13
f 4 13 7
f 4 19 27
f 4 7 6
f 1 6 2
f 1 3 4
f 24 38 39
f 1 2 5
f 1 5 12
f 1 12 16
f 1 16 21
f 1 21 34
f 1 4 6
f 1 34 53
f 1 59 38
f 1 38 24
f 1 24 18
f 1 18 14
f 1 14 8
f 1 8 3
f 1 65 59
f 5 11 12
f 1 53 65
f 7 13 11
f 17 36 23
f 18 24 25
f 18 25 26
f 19 28 29
f 19 29 27
f 20 30 31
f 17 22 36
f 20 31 32
f 20 33 51
f 21 32 34
f 22 35 55
f 22 55 36
f 5 7 11
f 23 36 58
f 20 32 21
f 16 20 21
f 20 51 30
f 14 28 19
f 14 19 15
f 11 13 12
f 12 13 17
f 8 14 15
f 12 17 23
f 12 23 37
f 8 15 9
f 12 33 20
f 12 20 16
f 14 18 26
f 14 26 43
f 14 43 46
f 12 37 33
f 14 46 28