# https://github.com/mikedh/trimesh
v 0.17840600 0.28549800 -0.01784570
v 0.17840600 0.42821400 -0.05353700
v -0.17840600 0.42821400 -0.05353700
v 0.17840600 0.48175800 -0.07137050
v -0.17840600 0.48175800 -0.07137050
v -0.18436200 0.44012400 -0.05948150
v -0.17840600 0.28549800 -0.01784570
v -0.19031800 0.28549800 -0.02380240
v -0.19177800 0.43715500 -0.06245370
v -0.18436200 0.49363400 -0.07731500
v 0.17245100 0.49363400 -0.07731500
v -0.17840600 0.49960600 -0.08920390
v -0.19177800 0.49066500 -0.08028720
v -0.19627400 0.48175800 -0.08920390
v -0.19031800 0.49363400 -0.08920390
v -0.19031800 0.49363400 -0.12495600
v -0.19627400 0.48168800 -0.12495600
v -0.19627400 0.35685600 -0.12489500
v -0.19623500 0.35678600 -0.12495600
v -0.19170100 -0.24953200 -0.08464000
v -0.17959800 -0.24953200 -0.08921540
v -0.19031800 0.34494600 -0.12495600
v -0.17848300 0.33904300 -0.12495600
v 0.17836800 0.33900800 -0.12495600
v 0.19627400 0.48168800 -0.12495600
v 0.19031800 0.34494600 -0.12495600
v 0.17840600 -0.24953200 -0.08921540
v 0.19623500 0.35682100 -0.12495600
v 0.19031800 -0.24953200 -0.08326090
v 0.19627400 0.35685600 -0.12489500
v 0.19627400 0.48175800 -0.08920390
v 0.19031800 0.49363400 -0.12495600
v -0.17844500 0.49957100 -0.12495600
v -0.17840600 0.49960600 -0.12489500
v 0.17840600 0.49960600 -0.08920390
v 0.18732100 0.49066500 -0.08028720
v 0.19031800 0.49363400 -0.09516060
v 0.19031800 0.47578500 -0.07731500
v 0.19031800 0.42227600 -0.05948150
v 0.19031800 0.27956100 -0.02380240
v 0.19627400 0.28549800 -0.03569130
v 0.19627400 0.42821400 -0.07137050
v 0.19627400 0.17844400 -0.01784570
v 0.19031800 0.17250700 -0.00595671
v 0.17840600 0.17844400 0.00000000
v 0.19031800 -0.14868800 -0.00595486
v 0.19627400 0.14278300 -0.01784520
v 0.19627400 -0.14273600 -0.01784520
v 0.19627400 -0.24953200 -0.03569010
v 0.19031800 -0.24953200 -0.02379970
v 0.17840600 -0.24953200 -0.01784520
v 0.17840600 -0.14273600 -0.00000036
v 0.09513980 -0.01193880 0.00598210
v 0.08918400 -0.03171580 0.00598210
v 0.07085530 -0.06758330 0.00598210
v 0.00000000 -0.09511760 0.00598210
v 0.05352580 -0.07726060 0.00598210
v -0.17840600 -0.14273600 -0.00000036
v -0.01971190 -0.09108540 0.00598210
v -0.07323770 -0.07322840 0.00598210
v -0.09513980 0.05349820 0.00598210
v -0.09513980 -0.01785270 0.00598210
v -0.09110520 -0.03759130 0.00598210
v -0.17840600 0.17844400 0.00000000
v -0.08587940 0.07204640 0.00598210
v -0.04949110 0.10703100 0.00598210
v 0.04161410 0.11298300 0.00598210
v -0.02974080 0.11298300 0.00598210
v 0.06536060 0.10104000 0.00598210
v 0.08322810 0.08322140 0.00598210
v 0.09513980 0.05945050 0.00598210
v -0.19031800 0.17844400 -0.00595671
v -0.19031800 0.14278300 -0.00595486
v -0.19627400 0.17844400 -0.01784570
v -0.19177800 0.18738600 -0.00892896
v -0.19627400 0.28549800 -0.03569130
v -0.19177800 0.29444000 -0.02677460
v -0.19627400 0.42821400 -0.07137050
v -0.19627400 -0.24953200 -0.07253530
v -0.19627400 -0.14273600 -0.01784520
v -0.19031800 -0.14273600 -0.00595486
v -0.18732100 -0.15164500 -0.00446391
v -0.17840600 -0.24953200 -0.01784520
v -0.19031800 -0.24953200 -0.02379970
v -0.19627400 -0.24953200 -0.03569010
v 0.19627400 -0.24953200 -0.07137050
v 0.17836800 0.49960600 -0.12495600
f 2 3 1
f 1 64 45
f 7 64 1
f 7 8 64
f 72 64 8
f 72 73 64
f 72 74 73
f 75 74 72
f 75 76 74
f 75 77 76
f 75 72 77
f 72 8 77
f 9 77 8
f 76 77 9
f 78 76 9
f 78 14 76
f 78 9 14
f 76 14 74
f 67 61 53
f 71 67 53
f 71 53 45
f 70 71 45
f 62 60 61
f 63 60 62
f 63 58 60
f 63 62 58
f 62 64 58
f 62 61 64
f 65 64 61
f 65 66 64
f 74 14 79
f 65 61 66
f 68 66 67
f 68 64 66
f 68 67 64
f 67 45 64
f 69 45 67
f 69 70 45
f 69 67 70
f 70 67 71
f 66 61 67
f 60 53 61
f 80 74 79
f 81 73 80
f 43 49 31
f 47 49 43
f 47 43 44
f 21 27 79
f 24 27 21
f 20 21 79
f 20 79 18
f 18 79 14
f 7 1 3
f 39 31 38
f 5 4 11
f 37 31 32
f 37 32 35
f 87 35 32
f 87 34 35
f 87 33 34
f 87 32 33
f 30 31 49
f 29 86 27
f 29 30 86
f 86 30 49
f 81 64 73
f 81 58 64
f 82 58 81
f 82 83 58
f 84 83 82
f 84 85 83
f 84 81 85
f 84 82 81
f 73 74 80
f 81 80 85
f 85 79 83
f 83 79 49
f 51 83 49
f 51 52 83
f 52 58 83
f 50 51 49
f 27 49 79
f 86 49 27
f 85 80 79
f 56 53 60
f 4 36 11
f 59 60 58
f 19 22 21
f 19 17 22
f 22 17 23
f 22 23 21
f 23 24 21
f 23 16 24
f 17 16 23
f 24 16 25
f 26 24 25
f 26 27 24
f 28 27 26
f 28 29 27
f 28 30 29
f 28 25 30
f 28 26 25
f 25 31 30
f 25 32 31
f 19 21 20
f 19 20 18
f 19 18 17
f 17 18 14
f 59 56 60
f 4 3 2
f 5 3 4
f 6 3 5
f 6 7 3
f 6 8 7
f 6 9 8
f 6 10 9
f 25 16 32
f 6 5 10
f 10 11 12
f 10 12 13
f 10 13 9
f 13 14 9
f 13 15 14
f 13 12 15
f 15 12 16
f 17 14 16
f 10 5 11
f 16 33 32
f 15 16 14
f 16 12 34
f 48 47 46
f 48 49 47
f 48 46 49
f 46 50 49
f 46 51 50
f 46 52 51
f 46 45 52
f 54 52 53
f 54 55 52
f 54 53 55
f 55 53 56
f 57 55 56
f 57 52 55
f 57 56 52
f 56 58 52
f 16 34 33
f 59 58 56
f 46 47 44
f 46 44 45
f 53 52 45
f 40 1 44
f 12 11 35
f 44 1 45
f 36 35 11
f 36 37 35
f 36 31 37
f 36 38 31
f 4 38 36
f 4 2 39
f 39 2 1
f 4 39 38
f 39 1 40
f 40 44 43
f 41 40 43
f 41 43 31
f 42 41 31
f 12 35 34
f 42 39 41
f 41 39 40
f 42 31 39