# https://github.com/mikedh/trimesh
v 0.31522200 0.49959100 -0.66615200
v 0.32116600 0.49827000 -0.66615200
v 0.30329300 0.49959100 -0.69588200
v 0.24385300 0.49959100 -0.66615200
v 0.33305500 0.49364900 -0.66615200
v 0.31522200 0.49364900 -0.70183100
v 0.30329300 0.49514200 -0.71595400
v 0.26762900 0.49959100 -0.73157600
v 0.22377600 0.49514200 -0.66615200
v -0.08855500 0.49959100 -0.78508700
v -0.08855500 0.49591200 -0.77093400
v -0.08855500 0.49303600 -0.76662000
v -0.08855500 0.48877600 -0.76023200
v 0.33604700 0.48174900 -0.66615200
v 0.30927800 0.48174900 -0.71967800
v 0.31223000 0.49067800 -0.70926300
v 0.28546100 0.49514200 -0.73380100
v 0.24979700 0.49514200 -0.76948100
v 0.24979700 0.49959100 -0.74940800
v 0.22228000 0.49217100 -0.66615200
v -0.08855500 0.48237800 -0.75862700
v -0.08855500 0.49959100 -0.80293500
v 0.33604700 0.35093400 -0.66615200
v 0.30927800 0.35687600 -0.71967800
v 0.22003500 0.48174900 -0.80888400
v 0.21409100 0.49514200 -0.80516000
v 0.19625900 0.49959100 -0.80293500
v 0.22003500 0.48174900 -0.66615200
v -0.08855500 0.35748900 -0.75862700
v -0.08855500 0.49364900 -0.81483300
v 0.33405200 0.34695700 -0.66615200
v 0.33455100 0.34794700 -0.66911900
v 0.31667700 0.34794700 -0.70481300
v 0.30553700 0.34348300 -0.71372900
v 0.28770500 0.34348300 -0.73157600
v 0.26987300 0.34348300 -0.74940800
v 0.21633600 0.34348300 -0.80293500
v 0.22003500 0.35687600 -0.80888400
v 0.19625900 0.48174900 -0.82078200
v 0.20515400 0.49067800 -0.81631600
v 0.19625900 0.49364900 -0.81483300
v 0.22003500 0.35687600 -0.66615200
v -0.08855500 0.34569900 -0.76745200
v 0.22377600 0.34348300 -0.66615200
v 0.22182200 0.34735000 -0.66615200
v -0.08855500 0.48217400 -0.82057000
v 0.32981200 0.34447300 -0.66615200
v 0.32337000 0.34348300 -0.67805000
v 0.32191500 0.34051200 -0.66615200
v 0.30329300 0.33901900 -0.69588200
v 0.26762900 0.33901900 -0.73157600
v 0.24979700 0.33901900 -0.74940800
v 0.19625900 0.33901900 -0.80293500
v 0.20220300 0.34497600 -0.81483300
v 0.20964300 0.34794700 -0.81185100
v 0.19625900 0.35687600 -0.82078200
v -0.08855500 0.48174900 -0.82078200
v -0.08855500 0.33901900 -0.78508700
v 0.24385300 0.33901900 -0.66615200
v 0.31522200 0.33901900 -0.66615200
v -0.08855500 0.33901900 -0.80293500
v -0.08855500 0.34497600 -0.81483300
v -0.08855500 0.35563400 -0.82016100
v -0.08855500 0.35687600 -0.82078200
f 29 45 42
f 26 41 27
f 29 43 44
f 25 40 26
f 29 44 45
f 26 40 41
f 32 48 34
f 31 47 48
f 31 48 32
f 32 34 33
f 25 39 40
f 34 48 49
f 30 41 46
f 25 56 39
f 22 27 41
f 24 37 38
f 24 36 37
f 24 35 36
f 24 34 35
f 24 33 34
f 24 32 33
f 23 32 24
f 23 31 32
f 22 41 30
f 21 42 28
f 21 29 42
f 20 21 28
f 34 49 50
f 25 38 56
f 34 50 51
f 50 52 51
f 35 51 52
f 18 27 19
f 56 63 64
f 54 63 56
f 54 62 63
f 53 62 54
f 53 61 62
f 50 53 52
f 50 61 53
f 50 58 61
f 50 59 58
f 50 60 59
f 49 60 50
f 47 49 48
f 34 51 35
f 43 59 44
f 39 46 41
f 39 57 46
f 39 64 57
f 39 56 64
f 39 41 40
f 38 54 56
f 38 55 54
f 37 55 38
f 37 54 55
f 37 53 54
f 36 53 37
f 36 52 53
f 35 52 36
f 43 58 59
f 18 26 27
f 18 25 26
f 15 25 18
f 4 10 11
f 3 17 8
f 3 7 17
f 3 6 7
f 3 5 6
f 2 5 3
f 1 5 2
f 1 14 5
f 1 23 14
f 1 31 23
f 1 47 31
f 1 49 47
f 1 60 49
f 1 59 60
f 1 44 59
f 1 45 44
f 1 42 45
f 1 28 42
f 1 20 28
f 1 9 20
f 1 4 9
f 1 10 4
f 1 22 10
f 1 27 22
f 1 19 27
f 1 3 8
f 1 2 3
f 4 11 12
f 4 12 13
f 1 8 19
f 5 14 6
f 4 13 9
f 15 38 25
f 15 18 17
f 14 24 15
f 14 23 24
f 10 12 11
f 10 13 12
f 10 21 13
f 10 29 21
f 10 43 29
f 10 58 43
f 10 61 58
f 10 62 61
f 10 63 62
f 15 24 38
f 10 57 64
f 10 64 63
f 6 16 7
f 6 14 15
f 7 16 15
f 7 15 17
f 8 17 18
f 6 15 16
f 9 13 21
f 9 21 20
f 10 22 30
f 10 30 46
f 10 46 57
f 8 18 19