# https://github.com/mikedh/trimesh
v 0.00027215 -0.11802500 0.70954300
v -0.00001816 -0.11802500 0.70963300
v -0.00001816 -0.21411600 0.67802700
v 0.00027215 -0.21425000 0.67789200
v 0.00027215 -0.11802500 0.53940300
v -0.07139080 -0.11802500 0.69178600
v -0.08030120 -0.22303800 0.65572900
v -0.00892857 -0.22303800 0.67355400
v -0.00001816 -0.22600500 0.67208500
v 0.00027215 -0.22587100 0.67208500
v 0.00027215 -0.13085100 0.54719700
v -0.05948790 -0.11896200 0.47883300
v -0.05901890 -0.11802500 0.47883300
v -0.08438790 -0.11802500 0.68629600
v -0.08923390 -0.22749900 0.64456800
v -0.07139080 -0.22600500 0.65423800
v -0.08923390 -0.11802500 0.68387800
v -0.16540800 -0.11802500 0.64578800
v -0.13380800 -0.22303800 0.62003300
v -0.00001816 -0.23194900 0.66017900
v 0.00027215 -0.23181500 0.66045100
v 0.00027215 -0.22604900 0.67199500
v 0.00027215 -0.19031600 0.59475300
v -0.14868100 -0.22600500 0.47883300
v -0.22787000 -0.11802500 0.47883300
v -0.14274100 -0.22749900 0.60887300
v -0.12489800 -0.23194900 0.60665900
v -0.07139080 -0.23194900 0.64233200
v -0.20109400 -0.11802500 0.59226800
v -0.14868100 -0.21411600 0.61260100
v 0.00027215 -0.23184900 0.66017900
v 0.00027215 -0.23194900 0.64233200
v 0.00027215 -0.22600500 0.63044800
v -0.15062400 -0.22698600 0.47883300
v 0.00027215 -0.23168100 0.64179000
v -0.22787000 -0.11802500 0.52155500
v -0.19627100 -0.21411600 0.47883300
v -0.15165100 -0.22303800 0.60218600
v -0.15462200 -0.22600500 0.59475300
v -0.14274100 -0.23194900 0.58883400
v -0.20891000 -0.11802500 0.57814800
v -0.16058400 -0.23194900 0.47883300
v -0.21002700 -0.11802500 0.57507500
v -0.19627100 -0.21411600 0.49961800
v -0.19030800 -0.22600500 0.50556000
v -0.17246500 -0.22600500 0.55910300
v -0.19030800 -0.22600500 0.47883300
v -0.16058400 -0.23194900 0.55313900
v -0.17842700 -0.23194900 0.47883300
v -0.18135300 -0.23048800 0.47883300
v -0.17842700 -0.23194900 0.49961800
f 20 28 27
f 23 33 24
f 24 33 35
f 20 49 42
f 20 32 31
f 20 51 49
f 20 48 51
f 20 40 48
f 20 27 40
f 20 42 32
f 12 23 24
f 19 30 26
f 18 30 19
f 18 29 30
f 15 28 16
f 15 27 28
f 15 26 27
f 12 25 13
f 12 37 25
f 24 35 34
f 12 47 37
f 20 31 21
f 25 37 44
f 45 47 50
f 26 30 38
f 12 50 47
f 49 51 50
f 46 51 48
f 45 51 46
f 45 50 51
f 41 43 46
f 40 46 48
f 39 46 40
f 39 41 46
f 37 45 44
f 25 44 36
f 37 47 45
f 36 45 46
f 36 44 45
f 32 34 35
f 32 42 34
f 29 41 39
f 29 38 30
f 29 39 38
f 26 40 27
f 26 39 40
f 26 38 39
f 36 46 43
f 12 49 50
f 7 14 17
f 12 34 42
f 1 17 14
f 1 18 17
f 1 29 18
f 1 41 29
f 1 43 41
f 1 36 43
f 1 25 36
f 1 13 25
f 1 5 13
f 1 11 5
f 1 23 11
f 1 35 33
f 1 32 35
f 1 31 32
f 1 21 31
f 1 22 21
f 1 10 22
f 1 4 10
f 1 3 4
f 1 2 3
f 12 42 49
f 1 14 6
f 1 6 2
f 1 33 23
f 2 7 8
f 12 24 34
f 2 6 7
f 11 23 12
f 9 22 10
f 9 21 22
f 9 20 21
f 9 16 28
f 7 26 15
f 7 19 26
f 7 18 19
f 9 28 20
f 7 9 8
f 7 16 9
f 7 15 16
f 6 14 7
f 5 12 13
f 5 11 12
f 3 10 4
f 3 9 10
f 7 17 18
f 3 8 9
f 2 8 3