# https://github.com/mikedh/trimesh
v -0.04946090 -0.11802500 0.25391500
v -0.05354760 -0.21411600 0.28549000
v -0.07621450 -0.11802500 0.26283300
v 0.00027215 -0.11802500 0.25391500
v -0.04758500 -0.22600500 0.29145700
v -0.06245800 -0.22303800 0.29442900
v -0.07733110 -0.22006000 0.29740200
v 0.00027215 -0.21411600 0.28549000
v -0.11190100 -0.11802500 0.28066700
v 0.00027215 -0.11802500 0.40643700
v -0.05354760 -0.23194900 0.30334600
v 0.00027215 -0.22600500 0.29145700
v 0.00027215 -0.23168100 0.30279600
v -0.06842060 -0.22898200 0.30631900
v -0.09814440 -0.22303800 0.31226400
v -0.11301700 -0.22006000 0.31523600
v -0.14756500 -0.11802500 0.29850200
v -0.05901890 -0.11802500 0.47883300
v 0.00027215 -0.13069400 0.39870800
v -0.08923390 -0.23194900 0.32118100
v 0.00027215 -0.23194900 0.30334600
v -0.10410700 -0.22898200 0.32415400
v -0.16652500 -0.22006000 0.36874100
v -0.18325100 -0.11802500 0.33419400
v -0.05948790 -0.11896200 0.47883300
v -0.22787000 -0.11802500 0.47883300
v 0.00027215 -0.18437200 0.36281800
v -0.14274100 -0.23194900 0.37468600
v 0.00027215 -0.23194900 0.32118100
v -0.15759200 -0.22898200 0.37765900
v -0.16058400 -0.23194900 0.39254300
v -0.16949500 -0.22303800 0.38362600
v -0.18436800 -0.22006000 0.42226800
v -0.17842700 -0.21411600 0.39254300
v -0.20109400 -0.11802500 0.36986400
v -0.14868100 -0.22600500 0.47883300
v 0.00027215 -0.22600500 0.33307100
v -0.22787000 -0.11802500 0.45016500
v -0.19627100 -0.21411600 0.47883300
v -0.16058400 -0.23194900 0.47883300
v -0.17842700 -0.23194900 0.44607000
v -0.17246500 -0.22600500 0.39848800
v -0.18733800 -0.22303800 0.43715300
v -0.19627100 -0.21411600 0.44607000
v -0.21002700 -0.11802500 0.39661700
v -0.15062400 -0.22698600 0.47883300
v -0.19030800 -0.22600500 0.47883300
v -0.17842700 -0.23194900 0.47883300
v -0.18135300 -0.23048800 0.47883300
v -0.19030800 -0.22600500 0.45201500
f 22 28 30
f 22 30 23
f 23 31 32
f 23 32 43
f 23 35 24
f 23 33 44
f 23 44 34
f 20 28 22
f 23 34 35
f 23 43 33
f 19 25 27
f 18 49 48
f 18 46 36
f 18 40 46
f 18 48 40
f 18 47 49
f 18 39 47
f 18 26 39
f 18 25 19
f 17 23 24
f 16 23 17
f 18 36 25
f 23 30 31
f 43 50 44
f 25 37 27
f 16 22 23
f 41 49 50
f 41 48 49
f 39 50 47
f 39 44 50
f 38 45 44
f 37 46 40
f 36 46 37
f 34 45 35
f 34 44 45
f 33 43 44
f 32 50 43
f 32 42 50
f 31 42 32
f 31 50 42
f 31 41 50
f 29 37 40
f 28 31 30
f 47 50 49
f 26 44 39
f 26 38 44
f 25 36 37
f 15 22 16
f 3 7 16
f 11 31 28
f 4 10 19
f 3 16 9
f 2 12 5
f 2 8 12
f 2 7 3
f 2 6 7
f 2 5 6
f 1 8 2
f 1 4 8
f 4 19 27
f 1 10 4
f 1 26 18
f 1 38 26
f 1 45 38
f 1 35 45
f 1 24 35
f 1 17 24
f 1 9 17
f 1 3 9
f 11 28 20
f 1 18 10
f 4 27 37
f 1 2 3
f 4 29 21
f 11 41 31
f 11 48 41
f 11 40 48
f 11 29 40
f 11 21 29
f 11 13 21
f 4 37 29
f 11 20 22
f 10 18 19
f 9 16 17
f 11 22 14
f 6 15 16
f 6 16 7
f 4 13 12
f 4 12 8
f 5 11 14
f 4 21 13
f 5 12 13
f 5 13 11
f 6 14 22
f 6 22 15
f 5 14 6