# https://github.com/mikedh/trimesh
v 0.24386200 0.33901900 -0.66613700
v 0.22379100 0.34348300 -0.66613700
v 0.31523200 0.33901900 -0.66613700
v 0.24981100 0.33901900 -0.64233800
v 0.22185300 0.34735000 -0.66613700
v 0.28550400 0.33901900 -0.53530600
v 0.30332000 0.33901900 -0.48617600
v 0.27360600 0.34497600 -0.52935200
v 0.32190800 0.34051200 -0.66613700
v 0.32116600 0.33901900 -0.66018200
v 0.22006700 0.35687600 -0.66613700
v 0.28550400 0.35687600 -0.48617600
v 0.35685800 0.33901900 -0.48617600
v 0.29143700 0.34497600 -0.48617600
v 0.28769800 0.35245900 -0.48617600
v 0.32983900 0.34447300 -0.66613700
v 0.34123700 0.34348300 -0.64233800
v 0.33901200 0.33901900 -0.62449300
v 0.22006700 0.48174900 -0.66613700
v 0.28550400 0.48174900 -0.48617600
v 0.36875600 0.34497600 -0.48617600
v 0.35685800 0.33901900 -0.57099500
v 0.33404700 0.34695700 -0.66613700
v 0.35239300 0.34794700 -0.63342400
v 0.35091000 0.34497600 -0.62449300
v 0.22230800 0.49217100 -0.66613700
v 0.27210800 0.49067800 -0.52637500
v 0.28996900 0.49070900 -0.48617600
v 0.37470500 0.35687600 -0.48617600
v 0.36875600 0.34497600 -0.57099500
v 0.33604500 0.35093400 -0.66613700
v 0.35091000 0.35687600 -0.63640100
v 0.35685800 0.35687600 -0.62449300
v 0.37470500 0.35687600 -0.57099500
v 0.37023900 0.34794700 -0.57989100
v 0.22379100 0.49514200 -0.66613700
v 0.29143700 0.49364900 -0.48617600
v 0.37470500 0.48174900 -0.48617600
v 0.33604500 0.48174900 -0.66613700
v 0.35091000 0.48174900 -0.63640100
v 0.35685800 0.48174900 -0.62449300
v 0.37470500 0.48174900 -0.57099500
v 0.24981100 0.49959100 -0.64233800
v 0.24386200 0.49959100 -0.66613700
v 0.30038300 0.49812900 -0.48617600
v 0.30332000 0.49959100 -0.48617600
v 0.28550400 0.49959100 -0.53530600
v 0.36875600 0.49364900 -0.48617600
v 0.33306300 0.49363300 -0.66613700
v 0.35091000 0.49364900 -0.63044700
v 0.36875600 0.49364900 -0.57691400
v 0.31523200 0.49959100 -0.66613700
v 0.35685800 0.49959100 -0.48617600
v 0.36568300 0.49518900 -0.48617600
v 0.32116600 0.49827000 -0.66613700
v 0.32116600 0.49959100 -0.66018200
v 0.33901200 0.49959100 -0.62449300
v 0.35685800 0.49959100 -0.57099500
f 27 37 36
f 24 30 25
f 26 27 36
f 27 28 37
f 32 40 41
f 29 42 38
f 30 35 34
f 31 39 40
f 31 40 32
f 32 41 33
f 29 34 42
f 24 35 30
f 21 34 29
f 53 54 58
f 24 32 33
f 24 31 32
f 23 31 24
f 21 30 34
f 20 28 27
f 19 27 26
f 19 20 27
f 18 30 22
f 18 25 30
f 33 41 42
f 24 34 35
f 33 42 34
f 43 57 56
f 36 37 45
f 17 25 18
f 52 56 55
f 51 58 54
f 50 58 51
f 50 57 58
f 50 56 57
f 49 56 50
f 49 55 56
f 48 51 54
f 43 52 44
f 43 56 52
f 43 58 57
f 43 53 58
f 43 46 53
f 43 47 46
f 42 50 51
f 41 50 42
f 40 50 41
f 39 50 40
f 39 49 50
f 38 51 48
f 38 42 51
f 36 47 43
f 36 46 47
f 36 45 46
f 36 43 44
f 17 24 25
f 24 33 34
f 16 23 17
f 2 6 7
f 2 4 6
f 1 4 2
f 1 6 4
f 1 7 6
f 1 13 7
f 1 22 13
f 1 18 22
f 1 10 18
f 1 3 10
f 1 9 3
f 1 16 9
f 1 23 16
f 1 31 23
f 1 39 31
f 1 49 39
f 1 55 49
f 1 52 55
f 1 44 52
f 1 36 44
f 1 26 36
f 1 11 19
f 1 5 11
f 1 2 5
f 17 23 24
f 2 7 8
f 2 8 5
f 1 19 26
f 5 8 12
f 3 9 10
f 13 30 21
f 13 22 30
f 11 12 20
f 10 17 18
f 9 17 10
f 9 16 17
f 8 15 12
f 8 14 15
f 7 14 8
f 7 15 14
f 7 12 15
f 11 20 19
f 7 28 20
f 7 20 12
f 7 13 21
f 7 29 38
f 7 38 48
f 7 48 54
f 7 21 29
f 7 53 46
f 7 46 45
f 7 45 37
f 7 37 28
f 7 54 53
f 5 12 11