# https://github.com/mikedh/trimesh
v 0.19626200 -0.24953200 -0.03569360
v 0.19626200 -0.24953200 -0.07137260
v 0.19029500 -0.24953200 -0.02379330
v 0.24974800 -0.24981200 -0.10705200
v 0.19029500 -0.24953200 -0.08326190
v 0.17865200 -0.24953200 -0.01798690
v 0.35562900 -0.36871900 -0.09040650
v 0.35388300 -0.35982900 -0.09218720
v 0.36276100 -0.35090400 -0.10110100
v 0.30927500 -0.29738900 -0.10110100
v 0.27354400 -0.26170000 -0.10110100
v 0.17836100 -0.24953200 -0.08921210
v 0.17857900 -0.24953200 -0.08912360
v 0.26168300 -0.25576200 -0.11300200
v 0.25869900 -0.25872500 -0.12043400
v 0.24974800 -0.25576200 -0.11895200
v 0.24087000 -0.25426900 -0.11597700
v -0.24974800 -0.24981200 -0.10705200
v 0.17836100 -0.24953200 -0.01785410
v 0.36283400 -0.36871900 -0.09519540
v 0.17836100 -0.24981200 -0.01785410
v 0.17836100 -0.32116500 -0.03569360
v 0.17836100 -0.36871900 -0.05353310
v 0.36574500 -0.36577900 -0.09812630
v 0.36865500 -0.36871900 -0.10106800
v 0.37171200 -0.36871900 -0.11004900
v 0.36872800 -0.36280400 -0.11300200
v 0.33307100 -0.32711500 -0.11300200
v -0.17959800 -0.24953200 -0.08921210
v 0.36945600 -0.36871900 -0.12001400
v 0.24974800 -0.26765000 -0.12489100
v -0.24087000 -0.25872500 -0.12043400
v 0.36720000 -0.36871900 -0.12263500
v 0.35693900 -0.36871900 -0.13070800
v 0.35679400 -0.36871900 -0.13080800
v -0.24974800 -0.25576200 -0.11895200
v -0.25869900 -0.25426900 -0.11597700
v -0.26168300 -0.25576200 -0.10705200
v -0.25571600 -0.25576200 -0.09516220
v -0.19029500 -0.24953200 -0.02379330
v -0.19626200 -0.24953200 -0.03569360
v -0.19626200 -0.24953200 -0.07254490
v -0.19167800 -0.24953200 -0.08464440
v -0.17836100 -0.24953200 -0.01785410
v 0.36632700 -0.36871900 -0.09754010
v -0.17836100 -0.24981200 -0.01785410
v -0.17836100 -0.32116500 -0.03569360
v -0.17836100 -0.36871900 -0.05353310
v 0.33896500 -0.36871900 -0.13083000
v -0.24974800 -0.26765000 -0.12489100
v -0.26757700 -0.26542200 -0.12043400
v -0.27354400 -0.26170000 -0.10705200
v -0.26313800 -0.25872500 -0.09812630
v -0.26983300 -0.26765000 -0.09366920
v -0.32339200 -0.32116500 -0.09366920
v -0.35905000 -0.35685400 -0.09366920
v -0.36545300 -0.36871900 -0.09465350
v -0.35759400 -0.36871900 -0.09070510
v -0.18731100 -0.33009000 -0.04015070
v -0.35082700 -0.36871900 -0.08921210
v -0.33896500 -0.36871900 -0.13083000
v -0.35679400 -0.36871900 -0.13081900
v -0.36741800 -0.36871900 -0.12396200
v -0.28547900 -0.28326000 -0.12043400
v -0.30927500 -0.29738900 -0.10705200
v -0.36276100 -0.35090400 -0.10705200
v -0.37018400 -0.36577900 -0.09812630
v -0.36974700 -0.36871900 -0.09715300
v -0.36872800 -0.36871900 -0.12189400
v -0.35679400 -0.35462500 -0.12043400
v -0.32113600 -0.31893700 -0.12043400
v -0.36960100 -0.36871900 -0.11796800
v -0.37171200 -0.36871900 -0.10705200
v -0.37171200 -0.36871900 -0.10106800
f 31 61 50
f 31 49 61
f 39 53 40
f 32 50 36
f 26 30 27
f 31 35 49
f 27 30 28
f 38 53 39
f 36 51 37
f 37 51 52
f 37 52 38
f 38 52 53
f 40 53 54
f 24 45 25
f 36 50 51
f 22 48 23
f 18 37 38
f 21 47 22
f 15 34 35
f 40 54 55
f 15 35 31
f 16 36 37
f 16 37 17
f 18 38 39
f 18 39 40
f 18 40 41
f 18 41 42
f 18 42 43
f 18 43 29
f 19 44 46
f 19 46 21
f 20 45 24
f 21 46 47
f 22 47 48
f 40 55 56
f 64 71 66
f 40 57 58
f 56 68 57
f 58 60 59
f 63 69 66
f 63 66 70
f 63 70 71
f 63 71 64
f 56 67 68
f 64 66 65
f 66 72 73
f 66 73 74
f 66 74 67
f 66 71 70
f 67 74 68
f 15 33 34
f 66 69 72
f 56 66 67
f 55 66 56
f 55 65 66
f 40 58 44
f 44 58 46
f 46 58 47
f 47 58 59
f 47 59 48
f 48 59 60
f 50 61 62
f 50 62 51
f 51 62 63
f 51 63 64
f 51 64 52
f 52 54 53
f 52 64 65
f 52 65 54
f 54 65 55
f 40 56 57
f 15 30 33
f 1 4 2
f 15 32 36
f 3 10 11
f 3 11 4
f 4 12 13
f 4 13 5
f 4 11 14
f 4 14 15
f 3 9 10
f 4 15 16
f 4 17 37
f 4 37 18
f 4 18 29
f 4 29 12
f 6 19 7
f 7 20 8
f 4 16 17
f 7 19 21
f 3 8 9
f 3 6 7
f 15 36 16
f 1 2 5
f 1 5 13
f 1 13 12
f 1 12 29
f 1 29 43
f 3 7 8
f 1 43 42
f 1 40 44
f 1 44 19
f 1 19 6
f 1 6 3
f 1 3 4
f 2 4 5
f 1 42 41
f 7 21 22
f 1 41 40
f 7 23 48
f 7 45 20
f 8 20 9
f 9 20 24
f 9 24 25
f 9 25 26
f 9 26 27
f 7 25 45
f 9 27 28
f 10 14 11
f 14 28 30
f 14 30 15
f 15 31 50
f 7 22 23
f 15 50 32
f 9 28 10
f 7 26 25
f 10 28 14
f 7 33 30
f 7 30 26
f 7 58 57
f 7 57 68
f 7 60 58
f 7 74 73
f 7 48 60
f 7 73 72
f 7 72 69
f 7 68 74
f 7 69 63
f 7 63 62
f 7 62 61
f 7 61 49
f 7 49 35
f 7 35 34
f 7 34 33