# https://github.com/mikedh/trimesh
v 0.00027215 -0.11802500 0.25389300
v 0.00027215 -0.21411600 0.28549000
v 0.00027215 -0.11802500 0.40642400
v 0.05763950 -0.11802500 0.25389300
v 0.00027215 -0.22600500 0.29145800
v 0.05354020 -0.21411600 0.28549000
v 0.00027215 -0.13069400 0.39869700
v 0.05902080 -0.11802500 0.48135300
v 0.06069170 -0.11802500 0.25502900
v 0.05948860 -0.22600500 0.29145800
v 0.00027215 -0.23168100 0.30279200
v 0.00027215 -0.18437200 0.36282400
v 0.05948860 -0.11896200 0.48135300
v 0.05917670 -0.11834800 0.48135300
v 0.22787000 -0.11802500 0.48135300
v 0.09638200 -0.11802500 0.27286500
v 0.05354020 -0.23194900 0.30334900
v 0.09517890 -0.22600500 0.30929400
v 0.00027215 -0.23194900 0.30334900
v 0.00027215 -0.22600500 0.33307500
v 0.14869200 -0.22600500 0.48135300
v 0.19625700 -0.21411600 0.48135300
v 0.22787000 -0.11802500 0.44605900
v 0.13205000 -0.11802500 0.29070100
v 0.08923050 -0.23194900 0.32118500
v 0.10262000 -0.22303800 0.31225600
v 0.10930400 -0.22749900 0.32118500
v 0.00027215 -0.23194900 0.32118500
v 0.16056700 -0.23194900 0.48135300
v 0.19030800 -0.22600500 0.48135300
v 0.19180100 -0.22303800 0.43715200
v 0.19625700 -0.21411600 0.44605900
v 0.21002500 -0.11802500 0.39252900
v 0.14617500 -0.11802500 0.29851700
v 0.10707600 -0.23194900 0.33902100
v 0.11302400 -0.21411600 0.31523900
v 0.16281700 -0.22749900 0.37469300
v 0.17841200 -0.23194900 0.48135300
v 0.19006300 -0.22613800 0.48135300
v 0.19030800 -0.22600500 0.44605900
v 0.17395600 -0.22303800 0.38362200
v 0.20452200 -0.11802500 0.37952500
v 0.18186500 -0.11802500 0.33418900
v 0.14274400 -0.23194900 0.37469300
v 0.16651500 -0.21411600 0.36874700
v 0.17246300 -0.22600500 0.39252900
v 0.16056700 -0.23194900 0.39252900
v 0.17841200 -0.23194900 0.44605900
v 0.19971000 -0.11802500 0.36986100
f 24 34 26
f 23 41 33
f 18 26 27
f 23 31 41
f 23 32 31
f 22 31 32
f 22 30 31
f 20 29 21
f 20 28 29
f 18 27 25
f 17 48 38
f 17 28 19
f 17 29 28
f 17 38 29
f 17 47 48
f 17 44 47
f 17 35 44
f 17 25 35
f 25 27 35
f 16 24 18
f 18 24 26
f 26 34 36
f 37 41 46
f 27 36 37
f 15 32 23
f 41 49 42
f 41 43 49
f 41 45 43
f 40 47 46
f 40 48 47
f 39 48 40
f 38 48 39
f 37 47 44
f 37 46 47
f 37 45 41
f 36 45 37
f 36 43 45
f 35 37 44
f 34 43 36
f 33 41 42
f 31 46 41
f 31 40 46
f 30 40 31
f 30 39 40
f 27 37 35
f 26 36 27
f 15 22 32
f 10 18 25
f 12 20 13
f 1 9 4
f 1 16 9
f 1 24 16
f 1 34 24
f 1 43 34
f 1 49 43
f 1 42 49
f 1 33 42
f 1 15 23
f 1 4 6
f 1 8 15
f 1 7 3
f 1 12 7
f 1 20 12
f 1 28 20
f 1 19 28
f 1 11 19
f 1 5 11
f 1 2 5
f 13 20 21
f 1 3 8
f 1 6 2
f 1 23 33
f 2 10 5
f 2 6 10
f 10 25 17
f 10 17 11
f 9 18 10
f 9 16 18
f 8 22 15
f 8 30 22
f 8 39 30
f 8 38 39
f 8 29 38
f 11 17 19
f 3 7 8
f 8 13 21
f 8 14 13
f 7 14 8
f 7 13 14
f 7 12 13
f 5 10 11
f 4 10 6
f 4 9 10
f 8 21 29