# https://github.com/mikedh/trimesh
v -0.33898000 -0.39254900 -0.24980300
v -0.32115500 -0.41039600 -0.24980300
v -0.35387200 -0.38957700 -0.24682500
v -0.35680600 -0.38066000 -0.24384700
v 0.33898000 -0.39254900 -0.24980300
v -0.31521300 -0.42229900 -0.24384700
v -0.34492200 -0.41634100 -0.23789100
v -0.33597300 -0.40742400 -0.24682500
v -0.24977900 -0.44606500 -0.24980300
v -0.26467000 -0.44309200 -0.24682500
v -0.36274800 -0.39850700 -0.23789100
v -0.36575500 -0.38363200 -0.24086900
v -0.36575500 -0.37917300 -0.24086900
v -0.35680600 -0.37471500 -0.23195500
v 0.35680600 -0.38066000 -0.24384700
v 0.36575500 -0.38363200 -0.24532700
v 0.35908000 -0.39254900 -0.24532700
v 0.32115500 -0.41039600 -0.24980300
v -0.30927100 -0.43417500 -0.23789100
v -0.24383700 -0.45796700 -0.24384700
v -0.33303800 -0.42229900 -0.22599900
v -0.34492200 -0.41634100 -0.11301100
v -0.32115500 -0.42824300 -0.23195500
v -0.14267800 -0.48175900 -0.24980300
v -0.36274800 -0.39850700 -0.11301100
v -0.37470500 -0.37471500 -0.10707400
v -0.36868900 -0.38660400 -0.22599900
v -0.36868900 -0.38066000 -0.23195500
v -0.37169700 -0.36873200 -0.10707400
v -0.36964300 -0.36873200 -0.11798700
v -0.36868900 -0.36873200 -0.12190600
v -0.36736900 -0.36873200 -0.12398100
v -0.35680600 -0.36873200 -0.13084000
v 0.35680600 -0.37471500 -0.23195500
v 0.36868900 -0.38066000 -0.23789100
v 0.37023000 -0.38363200 -0.24086900
v 0.36274800 -0.39850700 -0.23195500
v 0.34492200 -0.41634100 -0.23195500
v 0.34118100 -0.41039600 -0.24532700
v 0.32709600 -0.42229900 -0.24384700
v 0.24977900 -0.44606500 -0.24980300
v -0.27354600 -0.45202200 -0.23789100
v -0.24977900 -0.46391200 -0.23195500
v -0.19028700 -0.47581400 -0.24384700
v -0.33303800 -0.42229900 -0.10111800
v -0.32115500 -0.42824300 -0.10707400
v -0.13673600 -0.49364900 -0.24384700
v 0.14267800 -0.48175900 -0.24980300
v -0.36868900 -0.38660400 -0.10111800
v -0.36971600 -0.36873200 -0.09716060
v -0.37169700 -0.36873200 -0.10108000
v -0.36575500 -0.38363200 -0.09368320
v -0.36868900 -0.37471500 -0.09518170
v 0.33898000 -0.36873200 -0.13084000
v 0.35680600 -0.36873200 -0.13082100
v 0.35695200 -0.36873200 -0.13072500
v 0.36722200 -0.36873200 -0.12265500
v 0.36942300 -0.36873200 -0.12004300
v 0.37169700 -0.36873200 -0.11005200
v 0.37470500 -0.37471500 -0.10707400
v 0.36274800 -0.39850700 -0.10707400
v 0.34492200 -0.41634100 -0.10707400
v 0.33303800 -0.42229900 -0.23195500
v 0.33450500 -0.41931300 -0.24086900
v 0.32115500 -0.42824300 -0.23195500
v 0.25572100 -0.45796700 -0.24384700
v -0.24977900 -0.46391200 -0.10707400
v -0.14267800 -0.49960600 -0.23195500
v -0.29437900 -0.43714800 -0.09368320
v -0.33003100 -0.41931300 -0.09368320
v -0.34793000 -0.40147900 -0.09368320
v -0.26166200 -0.45796700 -0.10111800
v 0.14862000 -0.49364900 -0.24384700
v 0.20217000 -0.47581400 -0.24384700
v -0.36546200 -0.36873200 -0.09468220
v -0.35680600 -0.37471500 -0.08922590
v 0.36868900 -0.36873200 -0.10108000
v 0.36634200 -0.36873200 -0.09756410
v 0.36868900 -0.38066000 -0.09518170
v 0.36575500 -0.38809100 -0.09814040
v 0.35680600 -0.39477800 -0.09368320
v 0.33898000 -0.41262600 -0.09368320
v 0.33003100 -0.42378500 -0.09814040
v 0.33303800 -0.42229900 -0.10707400
v 0.32115500 -0.42824300 -0.10707400
v 0.24977900 -0.46391200 -0.23195500
v -0.14267800 -0.49960600 -0.10707400
v -0.15463500 -0.49364900 -0.10111800
v 0.14267800 -0.49960600 -0.23195500
v -0.25865500 -0.45499500 -0.09368320
v -0.18735200 -0.45499500 -0.07583480
v -0.18735200 -0.40147900 -0.05800570
v -0.32115500 -0.41039600 -0.08922590
v -0.20517800 -0.47282900 -0.09368320
v -0.35753900 -0.36873200 -0.09072440
v -0.35086400 -0.36873200 -0.08922590
v -0.17840300 -0.39254900 -0.05354850
v -0.17840300 -0.36873200 -0.05354850
v 0.35563200 -0.36873200 -0.09041700
v 0.35680600 -0.37471500 -0.08922590
v 0.32115500 -0.41039600 -0.08922590
v 0.17840300 -0.44606500 -0.07137760
v 0.30332900 -0.43047300 -0.09368320
v 0.29437900 -0.44160600 -0.09814040
v 0.24977900 -0.46391200 -0.10707400
v -0.14267800 -0.49364900 -0.09518170
v -0.15162800 -0.49067600 -0.09368320
v 0.14267800 -0.49960600 -0.10707400
v 0.15162800 -0.49513500 -0.09814040
v -0.19622800 -0.46391200 -0.08254000
v -0.17840300 -0.44606500 -0.07137760
v -0.17840300 -0.46985700 -0.08327000
v 0.17840300 -0.46985700 -0.08327000
v 0.17840300 -0.39254900 -0.05354850
v 0.17840300 -0.36873200 -0.05354850
v 0.26760400 -0.44830700 -0.09368320
v 0.25865500 -0.45945300 -0.09814040
v 0.20517800 -0.47730100 -0.09814040
v 0.14267800 -0.49364900 -0.09518170
v 0.14267800 -0.48175900 -0.08922590
f 67 87 88
f 66 89 74
f 66 86 89
f 65 105 86
f 65 85 105
f 63 84 85
f 61 80 81
f 62 83 84
f 62 82 83
f 61 82 62
f 63 85 65
f 67 88 72
f 70 92 93
f 68 108 87
f 69 72 90
f 69 90 91
f 69 91 70
f 70 91 92
f 70 93 71
f 71 93 76
f 72 94 90
f 72 88 94
f 61 81 82
f 73 74 89
f 75 76 95
f 68 89 108
f 60 80 61
f 45 70 71
f 60 78 79
f 38 64 39
f 76 96 95
f 39 64 40
f 40 63 65
f 40 65 86
f 40 86 66
f 41 66 74
f 41 74 48
f 43 68 87
f 43 87 67
f 44 47 68
f 45 69 70
f 60 79 80
f 45 71 52
f 45 46 67
f 45 67 72
f 45 72 69
f 47 73 89
f 47 89 68
f 48 74 73
f 50 53 75
f 52 71 76
f 52 76 53
f 53 76 75
f 59 77 60
f 60 77 78
f 45 52 49
f 76 93 97
f 97 114 115
f 76 98 96
f 94 107 110
f 97 111 102
f 97 102 114
f 97 115 98
f 99 115 100
f 100 114 101
f 100 115 114
f 101 114 102
f 102 113 116
f 102 116 103
f 103 116 117
f 103 117 104
f 92 97 93
f 104 117 105
f 105 118 108
f 106 109 119
f 106 119 107
f 107 112 110
f 107 119 120
f 107 120 113
f 108 118 109
f 109 118 113
f 109 113 119
f 113 120 119
f 113 118 117
f 38 40 64
f 105 117 118
f 76 97 98
f 91 102 111
f 91 107 113
f 78 99 79
f 79 99 100
f 79 100 81
f 79 81 80
f 81 100 82
f 82 100 101
f 82 101 102
f 82 102 103
f 82 103 83
f 83 103 104
f 83 104 85
f 83 85 84
f 91 113 102
f 85 104 105
f 86 108 89
f 87 106 107
f 113 117 116
f 87 108 109
f 87 109 106
f 88 107 94
f 90 94 110
f 90 110 91
f 91 111 97
f 91 97 92
f 91 110 112
f 91 112 107
f 86 105 108
f 38 63 40
f 87 107 88
f 38 62 84
f 7 45 22
f 7 22 25
f 7 25 11
f 7 19 23
f 7 23 21
f 9 20 10
f 9 24 44
f 9 44 20
f 11 25 26
f 11 26 27
f 11 27 12
f 12 27 28
f 7 21 45
f 12 28 13
f 13 29 30
f 13 30 31
f 13 31 14
f 14 31 32
f 14 32 33
f 14 33 54
f 14 54 34
f 15 34 16
f 16 34 35
f 16 35 36
f 16 36 17
f 17 36 37
f 13 28 29
f 17 37 38
f 6 20 19
f 6 19 7
f 38 84 63
f 1 2 3
f 1 3 4
f 1 4 15
f 1 15 5
f 1 5 18
f 1 18 41
f 1 41 48
f 1 48 24
f 1 24 9
f 1 9 2
f 2 6 7
f 6 10 20
f 2 7 8
f 2 9 10
f 2 10 6
f 3 8 7
f 3 7 11
f 3 11 12
f 3 12 13
f 3 13 4
f 4 13 14
f 4 14 34
f 4 34 15
f 5 16 17
f 5 17 18
f 2 8 3
f 17 38 39
f 5 15 16
f 18 39 40
f 29 98 115
f 29 115 99
f 29 99 78
f 29 78 77
f 29 77 59
f 29 59 58
f 29 58 57
f 29 57 56
f 29 56 55
f 29 55 54
f 29 54 33
f 29 33 32
f 29 96 98
f 29 32 31
f 34 55 56
f 34 56 57
f 34 57 58
f 34 58 35
f 35 58 59
f 35 59 36
f 36 59 60
f 36 60 61
f 36 61 37
f 37 61 62
f 37 62 38
f 17 39 18
f 34 54 55
f 29 95 96
f 29 31 30
f 29 50 75
f 18 40 66
f 29 75 95
f 18 66 41
f 19 20 42
f 19 42 43
f 19 43 23
f 20 44 68
f 20 68 43
f 21 23 46
f 21 46 45
f 22 45 25
f 23 43 67
f 23 67 46
f 20 43 42
f 26 28 27
f 24 48 73
f 24 73 47
f 25 49 26
f 25 45 49
f 26 50 51
f 26 51 29
f 26 29 28
f 29 51 50
f 26 49 52
f 26 52 53
f 24 47 44
f 26 53 50