# https://github.com/mikedh/trimesh
v -0.18352000 0.48174900 -0.27910300
v -0.18582200 0.49144800 -0.27910300
v -0.18352000 0.35687600 -0.27910300
v -0.28548500 0.48174900 -0.49931700
v -0.18767500 0.49514200 -0.27910300
v -0.28561600 0.48204800 -0.49931700
v -0.18606500 0.34667400 -0.27910300
v -0.28548500 0.35687600 -0.49931700
v -0.19628400 0.49706000 -0.27910300
v -0.29143700 0.49364900 -0.49931700
v -0.30332200 0.49959100 -0.49931700
v -0.18767500 0.34348300 -0.27910300
v -0.29132500 0.34516500 -0.49931700
v -0.20773900 0.49959100 -0.27910300
v -0.35685000 0.49959100 -0.49931700
v -0.20773900 0.33901900 -0.27910300
v -0.30332200 0.33901900 -0.49931700
v -0.29143700 0.34497600 -0.49931700
v -0.28548500 0.49959100 -0.27910300
v -0.36875300 0.49364900 -0.49931700
v -0.35685000 0.49959100 -0.41037800
v -0.28548500 0.33901900 -0.27910300
v -0.35685000 0.33901900 -0.49931700
v -0.29836200 0.49673000 -0.27910300
v -0.32115800 0.49959100 -0.32118000
v -0.37470500 0.48174900 -0.49931700
v -0.36875300 0.49364900 -0.41037800
v -0.33901300 0.49959100 -0.35687600
v -0.29856800 0.34230400 -0.27910300
v -0.32115800 0.33901900 -0.32118000
v -0.36875300 0.34497600 -0.49931700
v -0.35685000 0.33901900 -0.41037800
v -0.30262900 0.49460800 -0.27910300
v -0.32340400 0.49514200 -0.30335300
v -0.37470500 0.48174900 -0.41037800
v -0.37470500 0.35687600 -0.49931700
v -0.37023200 0.49067800 -0.40145400
v -0.35239500 0.49067800 -0.34795200
v -0.35089800 0.49364900 -0.35687600
v -0.34124000 0.49514200 -0.33902800
v -0.30218000 0.34378100 -0.27910300
v -0.32115800 0.34348300 -0.30111100
v -0.33306100 0.34497600 -0.31523000
v -0.33901300 0.33901900 -0.35687600
v -0.36875300 0.34497600 -0.40442800
v -0.30904900 0.48174900 -0.27910300
v -0.33454000 0.49067800 -0.31225600
v -0.32711000 0.48174900 -0.29740400
v -0.35685000 0.48174900 -0.35687600
v -0.37470500 0.35687600 -0.41037800
v -0.34496500 0.48174900 -0.33307900
v -0.35685000 0.35687600 -0.35687600
v -0.34496500 0.35687600 -0.33307900
v -0.30904900 0.35687600 -0.27910300
v -0.32711000 0.35687600 -0.29740400
v -0.33008600 0.34794700 -0.30779400
v -0.35089800 0.34497600 -0.35092700
v -0.33306100 0.48174900 -0.30928100
v -0.33306100 0.35687600 -0.30928100
f 30 43 44
f 30 42 43
f 31 45 50
f 31 50 36
f 33 47 48
f 33 34 47
f 33 48 46
f 34 40 38
f 29 42 30
f 35 49 38
f 32 44 45
f 34 38 47
f 27 37 38
f 28 40 34
f 28 39 40
f 27 39 28
f 27 38 39
f 27 35 37
f 26 50 35
f 26 36 50
f 25 28 34
f 24 34 33
f 24 25 34
f 35 38 37
f 23 32 45
f 29 41 42
f 35 50 52
f 44 57 45
f 38 51 58
f 22 29 30
f 55 59 56
f 53 56 59
f 52 57 53
f 51 59 58
f 51 53 59
f 48 59 55
f 48 58 59
f 47 58 48
f 46 55 54
f 46 48 55
f 45 52 50
f 45 57 52
f 43 57 44
f 43 53 57
f 43 56 53
f 42 56 43
f 41 56 42
f 41 55 56
f 41 54 55
f 38 53 51
f 38 52 53
f 38 49 52
f 38 40 39
f 38 58 47
f 35 52 49
f 21 27 28
f 23 45 31
f 20 26 35
f 4 23 31
f 4 17 23
f 4 18 17
f 4 13 18
f 4 8 13
f 3 7 8
f 2 6 5
f 2 4 6
f 1 4 2
f 1 8 4
f 1 3 8
f 1 7 3
f 4 31 36
f 1 12 7
f 1 29 22
f 1 41 29
f 1 54 41
f 1 46 54
f 1 33 46
f 1 24 33
f 1 19 24
f 1 14 19
f 1 9 14
f 1 5 9
f 1 2 5
f 20 35 27
f 1 22 16
f 4 36 26
f 1 16 12
f 4 20 15
f 19 25 24
f 4 26 20
f 16 23 17
f 16 32 23
f 16 44 32
f 16 30 44
f 16 22 30
f 15 20 27
f 12 18 13
f 12 17 18
f 12 16 17
f 11 19 14
f 15 27 21
f 5 10 11
f 11 28 25
f 11 21 28
f 11 15 21
f 9 11 14
f 7 13 8
f 7 12 13
f 5 11 9
f 4 15 11
f 5 6 10
f 4 10 6
f 11 25 19
f 4 11 10