# https://github.com/mikedh/trimesh
v 0.37470500 0.48174900 -0.41038800
v 0.37470500 0.35687600 -0.41038800
v 0.37470500 0.48174900 -0.48615600
v 0.37028800 0.49058300 -0.48615600
v 0.36875300 0.49364900 -0.41632700
v 0.36577700 0.49067800 -0.40145000
v 0.34496500 0.48770700 -0.33308100
v 0.35685000 0.48174900 -0.35687700
v 0.35685000 0.35687600 -0.35687700
v 0.36875300 0.35091800 -0.39849000
v 0.36577700 0.34348300 -0.40145000
v 0.36875300 0.34497600 -0.41038800
v 0.37470500 0.35687600 -0.48615600
v 0.36875300 0.49364900 -0.48615600
v 0.36568400 0.49518900 -0.48615600
v 0.35685000 0.49959100 -0.41038800
v 0.33901300 0.49959100 -0.35687700
v 0.35089800 0.49364900 -0.36281600
v 0.34496500 0.36281700 -0.33308100
v 0.33603700 0.49662000 -0.34199900
v 0.31820100 0.49662000 -0.30632500
v 0.32711000 0.48770700 -0.29738600
v 0.35089800 0.35091800 -0.34497900
v 0.35685000 0.33901900 -0.41038800
v 0.36581500 0.34349900 -0.48615600
v 0.34792200 0.34348300 -0.34795800
v 0.33901300 0.33901900 -0.35687700
v 0.36875300 0.34497600 -0.48615600
v 0.35685000 0.49959100 -0.48615600
v 0.32115800 0.49959100 -0.32118200
v 0.33306100 0.35091800 -0.30928400
v 0.28548500 0.49959100 -0.27912300
v 0.29847400 0.49474900 -0.27912300
v 0.30839400 0.48814700 -0.27912300
v 0.30927300 0.48770700 -0.27954900
v 0.30904900 0.48748700 -0.27912300
v 0.32711000 0.36281700 -0.29738600
v 0.35685000 0.33901900 -0.48615600
v 0.33008600 0.34348300 -0.31226400
v 0.32115800 0.33901900 -0.32118200
v 0.30332200 0.49959100 -0.48615600
v 0.30332200 0.34970800 -0.27912300
v 0.30118800 0.34544800 -0.27912300
v 0.21412100 0.49959100 -0.27912300
v 0.30904900 0.36259700 -0.27912300
v 0.30332200 0.33901900 -0.48615600
v 0.31224900 0.34348300 -0.29442700
v 0.28548500 0.33901900 -0.27912300
v 0.30038300 0.49812900 -0.48615600
v 0.27657600 0.49514200 -0.45498100
v 0.18990200 0.49449800 -0.27912300
v 0.28548500 0.49959100 -0.44606300
v 0.21412100 0.49959100 -0.28550800
v 0.29143700 0.34497600 -0.48615600
v 0.28548500 0.33901900 -0.44606300
v 0.19856800 0.34131400 -0.27912300
v 0.21412100 0.33901900 -0.27912300
v 0.29143700 0.49364900 -0.48615600
v 0.27360000 0.48770700 -0.45796100
v 0.18352000 0.48682700 -0.27912300
v 0.18417500 0.48789500 -0.27912300
v 0.18483000 0.48880700 -0.27912300
v 0.27953300 0.35091800 -0.46985900
v 0.28769400 0.35245900 -0.48615600
v 0.18786200 0.34845000 -0.27912300
v 0.19033300 0.35091800 -0.29144700
v 0.21412100 0.33901900 -0.28550800
v 0.28995800 0.49070900 -0.48615600
v 0.28548500 0.48174900 -0.48615600
v 0.18352000 0.36193700 -0.27912300
v 0.28548500 0.35687600 -0.48615600
f 32 60 70
f 32 61 60
f 32 42 45
f 32 51 62
f 32 44 51
f 32 62 61
f 32 70 65
f 32 43 42
f 32 56 57
f 32 57 48
f 32 48 43
f 32 45 36
f 31 43 39
f 32 65 56
f 31 42 43
f 23 31 39
f 27 39 40
f 22 35 36
f 32 36 34
f 22 36 45
f 22 45 37
f 23 39 26
f 24 38 25
f 31 37 42
f 24 27 40
f 24 48 57
f 24 57 67
f 24 67 55
f 24 55 46
f 24 46 38
f 26 39 27
f 24 40 48
f 32 34 33
f 60 69 71
f 37 45 42
f 54 56 65
f 54 65 66
f 54 66 63
f 55 67 56
f 56 67 57
f 58 68 59
f 54 63 64
f 59 68 69
f 60 71 70
f 63 71 64
f 63 66 71
f 65 70 66
f 66 70 71
f 22 34 35
f 59 69 60
f 34 36 35
f 51 53 52
f 50 61 62
f 39 43 47
f 39 47 48
f 39 48 40
f 41 49 50
f 41 50 51
f 41 51 52
f 50 62 51
f 43 48 47
f 46 55 56
f 46 56 54
f 49 58 50
f 50 58 59
f 50 59 60
f 50 60 61
f 44 53 51
f 22 33 34
f 5 7 6
f 21 32 33
f 3 14 4
f 3 15 14
f 3 29 15
f 3 41 29
f 3 49 41
f 3 58 49
f 3 68 58
f 3 69 68
f 3 71 69
f 3 64 71
f 3 54 64
f 3 46 54
f 3 38 46
f 3 25 38
f 3 28 25
f 3 13 28
f 2 28 13
f 1 2 13
f 1 13 3
f 1 3 4
f 1 4 5
f 1 5 6
f 1 6 7
f 4 14 5
f 21 33 22
f 1 9 2
f 2 9 23
f 2 23 10
f 2 10 11
f 2 11 12
f 2 12 28
f 1 8 9
f 5 14 15
f 1 7 8
f 5 16 17
f 11 27 24
f 12 25 28
f 15 29 16
f 16 29 41
f 16 41 52
f 16 52 53
f 11 26 27
f 16 53 44
f 16 32 30
f 16 30 17
f 17 21 20
f 19 31 23
f 21 30 32
f 5 15 16
f 16 44 32
f 11 23 26
f 17 30 21
f 11 24 25
f 5 18 7
f 5 17 18
f 7 19 9
f 7 9 8
f 7 17 20
f 7 20 21
f 7 18 17
f 7 22 37
f 7 37 31
f 7 31 19
f 9 19 23
f 10 23 11
f 7 21 22
f 11 25 12