# https://github.com/mikedh/trimesh
v 0.28546700 0.49959100 -0.26763600
v 0.28251400 0.49662000 -0.25277300
v 0.29737600 0.49364900 -0.27358000
v 0.29847700 0.49474900 -0.27910300
v 0.28546700 0.49959100 -0.27910300
v 0.17837900 0.49959100 -0.12495600
v 0.17855400 0.49954300 -0.12495600
v 0.29142100 0.48770700 -0.24384100
v 0.19031400 0.49364900 -0.12495600
v 0.30838500 0.48814700 -0.27910300
v 0.21410800 0.49959100 -0.27910300
v 0.05347760 0.49959100 -0.12495600
v 0.29142100 0.36281700 -0.24384100
v 0.30333100 0.48174900 -0.26763600
v 0.30906100 0.48748700 -0.27910300
v 0.19621900 0.48185900 -0.12495600
v 0.19626900 0.48170200 -0.12495600
v 0.18986400 0.49449800 -0.27910300
v 0.18733700 0.49514200 -0.27655300
v 0.08029940 0.49514200 -0.22303300
v 0.05345250 0.49957500 -0.19632600
v 0.05355260 0.49959100 -0.19628100
v 0.05345250 0.49959100 -0.12498700
v 0.05345250 0.49940200 -0.12495600
v 0.29737600 0.35091800 -0.25574600
v 0.30333100 0.35687600 -0.26763600
v 0.19626900 0.37465400 -0.12495600
v 0.19624400 0.35682800 -0.12495600
v 0.30906100 0.36259700 -0.27910300
v 0.18481000 0.48880700 -0.27910300
v 0.14870500 0.48770700 -0.26169100
v 0.07732200 0.48770700 -0.22600600
v 0.05345250 0.49364900 -0.20815600
v 0.05345250 0.49959100 -0.17852100
v 0.05345250 0.33901900 -0.12498700
v 0.05347760 0.33901900 -0.12495600
v 0.29439900 0.34348300 -0.25871800
v 0.30117900 0.34544800 -0.27910300
v 0.30333100 0.34970800 -0.27910300
v 0.19031400 0.34497600 -0.12495600
v 0.18415900 0.48789500 -0.27910300
v 0.18348300 0.48682700 -0.27910300
v 0.05345250 0.48168600 -0.21411600
v 0.05345250 0.33901900 -0.17852100
v 0.17837900 0.33901900 -0.12495600
v 0.28546700 0.33901900 -0.26763600
v 0.28546700 0.33901900 -0.27910300
v 0.18348300 0.36193700 -0.27910300
v 0.05345250 0.37463800 -0.21411600
v 0.05345250 0.33906600 -0.19635600
v 0.05355260 0.33901900 -0.19628100
v 0.21410800 0.33901900 -0.27910300
v 0.17250000 0.35091800 -0.27358000
v 0.13682000 0.35091800 -0.25574600
v 0.06543730 0.35091800 -0.22006100
v 0.18783700 0.34845000 -0.27910300
v 0.05345250 0.35679700 -0.21407100
v 0.05345250 0.34497600 -0.20815600
v 0.19854600 0.34131400 -0.27910300
f 30 41 31
f 21 23 34
f 21 34 22
f 24 35 36
f 25 37 38
f 25 40 37
f 25 39 26
f 25 28 40
f 26 39 29
f 21 24 23
f 25 38 39
f 21 35 24
f 18 32 20
f 21 50 44
f 21 58 50
f 21 57 58
f 21 49 57
f 21 43 49
f 21 33 43
f 20 33 21
f 20 32 33
f 18 20 19
f 18 31 32
f 18 30 31
f 31 41 42
f 21 44 35
f 31 42 32
f 53 56 59
f 32 42 43
f 14 29 15
f 55 59 58
f 55 58 57
f 54 59 55
f 53 59 54
f 51 59 52
f 50 59 51
f 50 58 59
f 49 55 57
f 48 56 53
f 48 55 49
f 48 54 55
f 32 43 33
f 48 53 54
f 42 49 43
f 42 48 49
f 38 46 47
f 37 45 46
f 37 40 45
f 37 46 38
f 35 45 36
f 35 46 45
f 35 47 46
f 35 52 47
f 35 51 52
f 35 44 51
f 44 50 51
f 14 26 29
f 1 11 22
f 13 27 28
f 4 48 42
f 4 56 48
f 4 59 56
f 4 52 59
f 4 47 52
f 4 38 47
f 4 39 38
f 4 29 39
f 4 15 29
f 4 10 15
f 3 8 10
f 3 10 4
f 2 9 8
f 2 7 9
f 2 8 3
f 1 7 2
f 1 6 7
f 1 12 6
f 1 23 12
f 1 34 23
f 1 22 34
f 1 4 5
f 1 3 4
f 1 2 3
f 13 28 25
f 4 42 41
f 4 41 30
f 1 5 11
f 4 18 11
f 4 30 18
f 12 23 24
f 11 21 22
f 13 25 26
f 11 19 20
f 11 18 19
f 8 27 13
f 8 17 27
f 8 16 17
f 8 9 16
f 8 15 10
f 8 14 15
f 11 20 21
f 8 13 26
f 8 26 14
f 6 12 24
f 4 11 5
f 6 36 45
f 6 45 40
f 6 24 36
f 6 28 27
f 6 27 17
f 6 17 16
f 6 16 9
f 6 9 7
f 6 40 28