# https://github.com/mikedh/trimesh
v 0.05345250 0.49959100 -0.12498700
v 0.05345250 0.49940200 -0.12495600
v 0.05345250 0.49959100 -0.17852100
v 0.03560370 0.49959100 -0.12495600
v 0.05345250 0.33901900 -0.12498700
v 0.03560370 0.33901900 -0.12495600
v 0.05345250 0.49957500 -0.19632600
v 0.03567460 0.49959100 -0.19628100
v -0.16062800 0.49959100 -0.12495600
v 0.05345250 0.33901900 -0.17852100
v -0.16062800 0.33901900 -0.12495600
v 0.05345250 0.49364900 -0.20815600
v -0.20771600 0.49959100 -0.27910300
v -0.17840600 0.49959100 -0.14274600
v -0.17844100 0.49957500 -0.12495600
v 0.05345250 0.33906600 -0.19635600
v 0.03567460 0.33901900 -0.19628100
v -0.17847600 0.33905000 -0.12495600
v -0.17840600 0.33901900 -0.14274600
v 0.05345250 0.48168600 -0.21411600
v -0.18763200 0.49514200 -0.27910300
v -0.19625400 0.49706000 -0.27910300
v -0.28546300 0.49959100 -0.27910300
v -0.28546300 0.49959100 -0.26763600
v -0.19029300 0.49364900 -0.12495600
v -0.28769900 0.49514200 -0.24980100
v 0.05345250 0.34497600 -0.20815600
v -0.20771600 0.33901900 -0.27910300
v -0.19029300 0.34497600 -0.12495600
v -0.28546300 0.34348300 -0.24756700
v -0.28546300 0.33901900 -0.26763600
v 0.05345250 0.37463800 -0.21411600
v -0.18348000 0.48174900 -0.27910300
v -0.18578600 0.49144800 -0.27910300
v -0.29834400 0.49673000 -0.27910300
v -0.19625400 0.48170200 -0.12495600
v -0.29884100 0.49067800 -0.25871800
v -0.29142500 0.48174900 -0.24384100
v -0.30260300 0.49460800 -0.27910300
v 0.05345250 0.35679700 -0.21407100
v -0.18763200 0.34348300 -0.27910300
v -0.28546300 0.33901900 -0.27910300
v -0.19621900 0.35681300 -0.12495600
v -0.29142500 0.35687600 -0.24384100
v -0.29440600 0.34794700 -0.25425200
v -0.29735100 0.34497600 -0.26169100
v -0.30217700 0.34378100 -0.27910300
v -0.29855700 0.34230400 -0.27910300
v -0.18348000 0.35687600 -0.27910300
v -0.19625400 0.37465400 -0.12495600
v -0.30906100 0.48174900 -0.27910300
v -0.18603500 0.34667400 -0.27910300
v -0.30906100 0.35687600 -0.27910300
f 25 26 37
f 24 35 26
f 23 35 24
f 20 34 21
f 20 33 34
f 20 49 33
f 20 32 49
f 18 31 19
f 18 30 31
f 18 29 30
f 13 35 23
f 16 17 28
f 15 26 25
f 15 24 26
f 14 24 15
f 13 39 35
f 13 51 39
f 13 53 51
f 13 47 53
f 25 37 38
f 13 48 47
f 16 28 27
f 25 38 36
f 32 40 49
f 26 39 37
f 46 53 47
f 13 28 42
f 45 53 46
f 44 53 45
f 43 50 44
f 40 52 49
f 40 41 52
f 38 53 44
f 38 51 53
f 37 51 38
f 37 39 51
f 36 44 50
f 36 38 44
f 31 48 42
f 31 47 48
f 31 46 47
f 30 46 31
f 30 45 46
f 29 45 30
f 29 44 45
f 29 43 44
f 27 41 40
f 27 28 41
f 26 35 39
f 13 41 28
f 13 42 48
f 13 49 52
f 2 25 36
f 2 15 25
f 2 9 15
f 2 4 9
f 1 4 2
f 1 9 4
f 1 14 9
f 1 24 14
f 1 23 24
f 1 13 23
f 2 36 50
f 1 8 13
f 1 12 7
f 1 20 12
f 1 32 20
f 1 40 32
f 1 27 40
f 1 16 27
f 1 10 16
f 1 5 10
f 1 2 5
f 13 52 41
f 1 3 8
f 2 50 43
f 1 7 3
f 2 29 18
f 13 33 49
f 2 43 29
f 13 34 33
f 13 21 34
f 13 22 21
f 12 22 13
f 12 20 21
f 11 18 19
f 10 17 16
f 9 14 15
f 7 13 8
f 12 21 22
f 5 17 10
f 2 11 6
f 7 12 13
f 2 6 5
f 3 7 8
f 5 11 19
f 5 6 11
f 5 19 31
f 5 31 42
f 5 42 28
f 5 28 17
f 2 18 11