# https://github.com/mikedh/trimesh
v 0.18185100 -0.11802500 0.33421000
v 0.21002000 -0.11802500 0.39259800
v 0.17268100 -0.11802500 0.63659800
v 0.22623100 -0.11802500 0.52959000
v 0.20840600 -0.11802500 0.58309400
v 0.35680600 -0.10705500 0.53522600
v 0.22784500 -0.11802500 0.51741600
v 0.22784500 -0.11802500 0.44602700
v 0.35680600 -0.10705500 0.35690400
v 0.36575500 -0.10259600 0.54416800
v 0.16057700 -0.10705500 0.73150800
v 0.15485500 -0.11802500 0.65448300
v 0.08347960 -0.11802500 0.69017800
v 0.10702700 -0.10705500 0.74939300
v 0.16945300 -0.10259600 0.74045000
v 0.24977900 -0.09589900 0.67800400
v 0.21405400 -0.09589900 0.71369800
v 0.18735200 -0.09366940 0.74045000
v 0.16057700 -0.09516120 0.75532900
v 0.20517800 -0.06691400 0.75826000
v 0.24082900 -0.07584060 0.72264100
v 0.25865500 -0.07584060 0.70475600
v 0.31220500 -0.06691400 0.65125200
v 0.31521300 -0.05947920 0.65418200
v 0.36868900 -0.09516120 0.54717400
v 0.37470500 -0.08921020 0.53522600
v 0.36868900 -0.10110400 0.53522600
v 0.37023000 -0.09813680 0.34796100
v 0.37470500 -0.08921020 0.35690400
v 0.30927100 -0.08921020 0.22607400
v 0.31668000 -0.09813680 0.24095300
v 0.30553000 -0.10259600 0.23201100
v 0.35908000 -0.10259600 0.33901900
v 0.30332900 -0.10705500 0.24982000
v 0.36868900 -0.10110400 0.35690400
v 0.14612600 -0.11802500 0.29851500
v 0.19622800 -0.10705500 0.14281200
v 0.21632800 -0.10259600 0.14281200
v 0.20217000 -0.10110400 0.13086400
v 0.20965300 -0.09813680 0.13387000
v 0.07085650 -0.06760100 0.00598671
v 0.05351490 -0.07727840 0.00598671
v 0.00000000 -0.09514590 0.00598671
v 0.12485300 -0.10705500 0.10711800
v 0.05758480 -0.11802500 0.25395400
v 0.05347680 -0.10705500 0.08923290
v -0.05347680 -0.10705500 0.08923290
v -0.04936890 -0.11802500 0.25395400
v -0.12485300 -0.10705500 0.10711800
v -0.07614400 -0.11802500 0.26282100
v -0.16541900 -0.11802500 0.64576600
v -0.22784500 -0.11802500 0.45016000
v -0.18324400 -0.11802500 0.33421000
v -0.14752000 -0.11802500 0.29851500
v -0.19622800 -0.10705500 0.14281200
v -0.30332900 -0.10705500 0.24982000
v -0.20107000 -0.11802500 0.36990400
v -0.35680600 -0.10705500 0.35690400
v -0.35680600 -0.10705500 0.53522600
v -0.36868900 -0.10110400 0.36284000
v -0.36274800 -0.09516120 0.33308300
v -0.30927100 -0.09516120 0.22607400
v -0.30032100 -0.10408000 0.23494200
v -0.21112000 -0.10408000 0.14574300
v -0.21999600 -0.09516120 0.13680000
v -0.09514590 -0.01782880 0.00598671
v -0.09110390 -0.03757060 0.00598671
v -0.07325940 -0.07324450 0.00598671
v -0.01972580 -0.09109160 0.00598671
v 0.08920390 -0.03166230 0.00598671
v 0.21999600 -0.08921020 0.13680000
v 0.09514590 -0.01190010 0.00598671
v 0.08322470 0.08322340 0.00598671
v 0.09514590 0.05944760 0.00598671
v 0.30927100 0.12489100 0.22607400
v 0.21999600 0.12489100 0.13680000
v 0.20517800 0.13380900 0.12943600
v 0.21405400 0.13826800 0.14055800
v 0.30332900 0.13826800 0.22975600
v 0.30332900 0.14274500 0.24982000
v 0.19622800 0.14274500 0.14281200
v 0.12485300 0.14274500 0.10711800
v 0.14267800 0.13826800 0.10486300
v 0.04161240 0.11298900 0.00598671
v 0.06538020 0.10107100 0.00598671
v -0.02974710 0.11298900 0.00598671
v -0.05347680 0.14274500 0.08923290
v 0.05347680 0.14274500 0.08923290
v -0.35680600 0.14274500 0.35690400
v -0.30332900 0.14274500 0.24982000
v -0.36575500 0.13826800 0.34796100
v -0.35680600 0.14274500 0.53522600
v -0.36868900 0.13678800 0.53522600
v -0.36868900 0.13678800 0.35690400
v -0.37470500 0.12489100 0.35690400
v -0.36868900 0.13084800 0.34503100
v -0.31521300 0.13084800 0.23794700
v -0.31220500 0.13826800 0.24095300
v -0.20517800 0.13826800 0.13387000
v -0.20811200 0.13084800 0.13086400
v -0.21999600 0.11895200 0.13680000
v -0.09514590 0.05351900 0.00598671
v -0.08586970 0.07203840 0.00598671
v -0.05357080 0.10400400 0.00598671
v -0.06802520 0.08988550 0.00598671
v -0.05086990 0.10636800 0.00598671
v -0.04951010 0.10704000 0.00598671
v -0.13380200 0.13826800 0.09817530
v -0.30927100 0.11895200 0.22607400
v -0.37470500 -0.08921020 0.35690400
v -0.37470500 0.12489100 0.53522600
v -0.37023000 0.13380900 0.54416800
v -0.36274800 0.13678800 0.54717400
v -0.19622800 0.14274500 0.67800400
v -0.20217000 0.13678800 0.68987700
v -0.23635400 0.11597300 0.70475600
v -0.23415400 0.10259600 0.73150800
v -0.28770400 0.10259600 0.67800400
v -0.29885400 0.09812000 0.66906100
v -0.31000400 0.08920200 0.66011900
v -0.31668000 0.08028410 0.65125200
v -0.30927100 0.07136610 0.66613100
v -0.33883300 -0.03519660 0.60699100
v -0.30927100 -0.05353630 0.66613100
v -0.21999600 -0.05353630 0.75532900
v -0.25865500 -0.08029170 0.70032200
v -0.30332900 -0.06691400 0.66237300
v -0.31220500 -0.06245470 0.65568500
v -0.36575500 -0.09813680 0.54860200
v -0.36868900 -0.08921020 0.54717400
v -0.37470500 -0.08921020 0.53522600
v -0.36868900 -0.10110400 0.54123800
v -0.25865500 -0.09813680 0.66462800
v -0.18735200 -0.09813680 0.73601700
v -0.24082900 -0.08029170 0.71813200
v -0.20517800 -0.06245470 0.76276900
v -0.16057700 -0.09516120 0.75532900
v -0.17840300 -0.10259600 0.73376200
v -0.24977900 -0.10259600 0.66237300
v -0.16057700 -0.10705500 0.73150800
v -0.10702700 -0.10705500 0.74939300
v -0.10702700 -0.09516120 0.77313900
v -0.03565120 -0.09516120 0.79102400
v -0.03565120 -0.10705500 0.76720200
v 0.00000000 -0.11802500 0.70956500
v -0.07130250 -0.11802500 0.69175600
v -0.08435990 -0.11802500 0.68627000
v -0.20107000 -0.11802500 0.59218700
v -0.20884600 -0.11802500 0.57805900
v -0.22784500 -0.11802500 0.52147400
v 0.01210380 -0.11802500 0.70798700
v 0.03565120 -0.10705500 0.76720200
v 0.04460070 -0.10259600 0.77614500
v 0.11597700 -0.10259600 0.75826000
v 0.10702700 -0.09516120 0.77313900
v 0.13380200 -0.06691400 0.79395500
v 0.16057700 -0.07731620 0.77313900
v 0.13673600 -0.05947920 0.79696000
v 0.20811200 -0.05947920 0.76126600
v 0.21999600 -0.04758520 0.75532900
v 0.30927100 -0.04758520 0.66613100
v 0.30927100 0.07730560 0.66613100
v 0.37470500 0.12489100 0.53522600
v 0.31220500 0.09812000 0.65125200
v 0.29137200 0.09515900 0.68394000
v 0.36575500 0.13380900 0.54416800
v 0.36868900 0.13678800 0.52928900
v 0.35680600 0.14274500 0.53522600
v 0.35680600 0.14274500 0.35690400
v 0.36868900 0.13678800 0.35096700
v 0.37470500 0.12489100 0.35690400
v 0.31521300 0.13678800 0.24388400
v 0.31220500 0.13380900 0.23644400
v -0.03565120 0.14274500 0.74939300
v 0.14267800 0.14274500 0.71369800
v 0.19622800 0.14274500 0.67800400
v 0.21706200 0.12787000 0.69881900
v 0.24082900 0.11597300 0.70475600
v 0.16945300 0.13380900 0.72264100
v 0.10702700 0.14274500 0.73150800
v 0.13380200 0.13380900 0.74045000
v 0.11296900 0.13084800 0.75532900
v 0.03565120 0.14274500 0.74939300
v -0.02970940 0.13084800 0.77313900
v 0.04159310 0.13084800 0.77313900
v 0.07731770 0.11299500 0.79102400
v 0.13380200 0.09812000 0.79395500
v 0.18434500 0.09515900 0.77313900
v 0.20517800 0.09812000 0.75826000
v 0.23789500 0.09515900 0.73744500
v 0.21999600 0.07730560 0.75532900
v 0.16057700 0.08920200 0.78508700
v 0.12485300 0.07136610 0.80289700
v 0.12485300 -0.05353630 0.80289700
v 0.05347680 -0.05353630 0.82078200
v 0.05347680 -0.03519660 0.82078200
v -0.05347680 -0.05353630 0.82078200
v 0.05347680 -0.07731620 0.80883300
v 0.03565120 -0.09516120 0.79102400
v -0.05347680 -0.07731620 0.80883300
v -0.13380200 -0.06245470 0.79846300
v -0.06242630 -0.06245470 0.81627300
v -0.12485300 -0.05353630 0.80289700
v -0.12485300 0.07136610 0.80289700
v -0.16057700 0.08920200 0.78508700
v -0.21999600 0.07136610 0.75532900
v -0.18434500 0.08920200 0.77313900
v -0.17392800 0.09812000 0.77614500
v -0.16651900 0.10109800 0.77907600
v -0.12712700 0.08920200 0.79846300
v -0.05347680 0.07136610 0.82078200
v -0.05575090 0.08920200 0.81627300
v -0.04159310 0.10109800 0.81477000
v -0.03565120 0.08920200 0.82078200
v 0.03565120 0.08920200 0.82078200
v 0.05347680 0.07136610 0.82078200
v 0.06242630 0.09812000 0.81183900
v 0.02970940 0.10109800 0.81477000
v -0.11296900 0.10109800 0.79696000
v -0.12932700 0.09812000 0.79395500
v -0.11296900 0.13678800 0.74345600
v -0.16497900 0.13380900 0.72264100
v -0.18060400 0.10259600 0.76720200
v -0.21999600 0.10109800 0.74345600
v -0.22747800 0.09812000 0.74045000
v -0.23789500 0.08920200 0.73744500
v -0.29137200 0.08920200 0.68394000
v -0.16277800 0.13826800 0.71369800
v -0.14267800 0.14274500 0.71369800
v -0.14862000 0.13678800 0.72557100
v -0.10702700 0.14274500 0.73150800
v -0.04159310 0.13678800 0.76126600
v -0.16057700 -0.07731620 0.77313900
v -0.12485300 0.14274500 0.10711800
v -0.19622800 0.14274500 0.14281200
f 183 184 185
f 177 176 179
f 179 176 175
f 180 179 175
f 180 175 183
f 180 182 181
f 180 183 182
f 183 175 174
f 177 179 178
f 180 181 179
f 183 174 184
f 174 169 89
f 177 168 176
f 176 168 175
f 175 168 174
f 168 169 174
f 169 80 89
f 172 169 170
f 172 80 169
f 172 79 80
f 79 75 76
f 173 79 172
f 182 183 185
f 173 75 79
f 177 178 168
f 182 185 186
f 194 192 193
f 188 182 187
f 199 143 153
f 173 172 75
f 199 153 155
f 199 155 198
f 198 155 156
f 158 198 156
f 195 198 158
f 195 197 198
f 195 196 197
f 195 193 196
f 194 193 195
f 194 195 158
f 182 186 187
f 194 158 192
f 188 187 192
f 188 192 191
f 190 189 188
f 190 188 191
f 190 191 162
f 190 162 165
f 190 165 178
f 190 178 189
f 179 189 178
f 179 188 189
f 181 182 179
f 179 182 188
f 192 187 193
f 72 75 30
f 15 19 154
f 163 26 29
f 19 155 154
f 199 198 143
f 14 154 153
f 14 153 152
f 13 14 152
f 151 13 152
f 151 152 145
f 151 145 13
f 13 145 3
f 145 51 3
f 146 51 145
f 150 59 52
f 150 52 51
f 149 150 51
f 149 59 150
f 148 59 149
f 148 149 51
f 148 51 59
f 51 140 59
f 147 140 51
f 147 51 146
f 147 146 140
f 141 140 146
f 141 146 145
f 141 145 144
f 19 156 155
f 157 156 19
f 157 20 156
f 157 19 20
f 171 163 29
f 171 29 75
f 171 75 172
f 171 172 170
f 171 170 163
f 167 163 170
f 167 170 169
f 167 169 168
f 167 168 166
f 167 166 163
f 164 163 166
f 164 166 165
f 75 29 30
f 164 165 162
f 162 26 163
f 161 21 22
f 161 22 24
f 161 24 26
f 161 26 162
f 161 162 160
f 161 160 21
f 159 20 21
f 159 21 160
f 159 160 158
f 159 158 20
f 20 158 156
f 164 162 163
f 200 143 198
f 219 213 184
f 200 201 142
f 204 203 211
f 203 197 211
f 196 211 197
f 216 211 196
f 193 216 196
f 193 187 216
f 92 114 89
f 114 174 89
f 219 184 221
f 232 221 184
f 232 184 174
f 232 174 221
f 231 221 174
f 231 174 114
f 229 231 114
f 229 221 231
f 230 221 229
f 230 222 221
f 228 222 230
f 228 230 229
f 228 229 114
f 228 114 115
f 228 115 222
f 115 116 222
f 117 222 116
f 233 201 136
f 117 223 222
f 233 137 201
f 137 142 201
f 141 144 143
f 38 32 34
f 235 90 87
f 235 99 90
f 235 108 99
f 234 108 235
f 234 235 87
f 234 87 86
f 234 86 108
f 69 66 70
f 73 70 86
f 86 70 66
f 61 110 62
f 60 110 61
f 60 132 110
f 60 59 132
f 178 166 168
f 178 165 166
f 191 160 162
f 191 192 160
f 158 160 192
f 153 154 155
f 144 145 152
f 144 152 153
f 144 153 143
f 233 136 137
f 117 224 223
f 135 125 126
f 135 136 125
f 217 218 215
f 217 215 187
f 215 216 187
f 215 211 216
f 214 212 211
f 214 211 215
f 214 215 213
f 214 213 212
f 212 213 210
f 212 210 211
f 210 204 211
f 205 204 210
f 205 210 209
f 205 209 208
f 205 208 207
f 205 207 206
f 205 206 136
f 205 136 201
f 205 201 204
f 204 201 203
f 203 201 197
f 200 198 197
f 202 200 197
f 202 197 201
f 202 201 200
f 217 186 218
f 217 187 186
f 218 186 185
f 218 185 213
f 136 206 125
f 122 125 206
f 208 225 207
f 225 226 207
f 207 226 206
f 226 122 206
f 227 122 226
f 227 120 122
f 227 119 120
f 118 119 227
f 118 227 226
f 117 118 226
f 200 142 143
f 117 226 225
f 224 225 208
f 224 208 209
f 224 209 223
f 209 222 223
f 209 221 222
f 209 219 221
f 220 219 209
f 220 209 210
f 220 210 219
f 219 210 213
f 184 213 185
f 215 218 213
f 117 225 224
f 141 143 142
f 15 154 14
f 141 137 140
f 57 53 52
f 57 52 58
f 57 58 56
f 57 56 53
f 54 56 55
f 54 55 50
f 54 50 53
f 53 50 52
f 52 50 51
f 51 50 3
f 50 1 3
f 36 1 50
f 45 37 36
f 45 36 50
f 48 45 50
f 48 50 49
f 48 49 47
f 48 47 45
f 45 47 46
f 45 46 44
f 45 44 37
f 37 44 43
f 39 37 43
f 39 43 42
f 39 42 41
f 58 52 59
f 39 41 40
f 58 59 60
f 58 61 56
f 71 40 41
f 71 41 70
f 41 42 70
f 42 69 70
f 43 69 42
f 46 43 44
f 46 47 43
f 49 43 47
f 55 49 50
f 55 43 49
f 55 69 43
f 55 56 64
f 55 64 69
f 64 65 68
f 64 68 69
f 68 66 69
f 67 66 68
f 67 68 65
f 67 65 66
f 65 62 66
f 63 62 65
f 63 65 64
f 63 64 56
f 63 56 62
f 56 61 62
f 58 60 61
f 39 40 38
f 39 38 37
f 37 38 34
f 18 20 19
f 18 19 15
f 18 15 17
f 17 15 16
f 15 10 16
f 11 10 15
f 11 15 14
f 11 14 13
f 12 11 13
f 12 13 3
f 12 3 6
f 12 6 11
f 11 6 10
f 6 9 10
f 8 9 6
f 8 2 9
f 8 4 2
f 7 4 8
f 7 8 6
f 7 6 4
f 5 4 6
f 5 6 3
f 5 3 4
f 4 3 2
f 2 3 1
f 18 21 20
f 18 17 21
f 17 16 21
f 16 22 21
f 37 34 36
f 36 34 1
f 9 2 1
f 9 1 34
f 35 10 9
f 35 27 10
f 35 28 27
f 33 31 28
f 33 28 35
f 33 35 9
f 33 9 34
f 33 34 32
f 71 38 40
f 33 32 31
f 31 30 28
f 28 30 29
f 28 29 26
f 28 26 27
f 27 26 10
f 25 10 26
f 25 26 24
f 25 24 10
f 23 10 24
f 23 24 22
f 23 22 10
f 16 10 22
f 31 32 30
f 71 32 38
f 54 53 56
f 71 72 30
f 124 122 123
f 122 111 123
f 112 111 122
f 121 112 122
f 121 122 120
f 121 120 112
f 112 120 119
f 112 119 118
f 113 112 118
f 113 118 117
f 113 117 116
f 113 116 115
f 113 115 114
f 113 114 92
f 113 92 112
f 112 92 93
f 112 93 94
f 112 94 95
f 112 95 111
f 95 110 111
f 95 97 110
f 110 97 62
f 109 62 97
f 109 97 101
f 109 101 102
f 124 125 122
f 124 126 125
f 124 127 126
f 128 127 124
f 137 138 140
f 138 139 140
f 139 59 140
f 139 132 59
f 133 132 139
f 134 133 139
f 134 139 138
f 134 138 137
f 134 137 136
f 134 136 135
f 134 135 126
f 134 126 133
f 109 102 62
f 133 126 132
f 126 129 132
f 129 130 131
f 129 131 132
f 132 131 110
f 131 111 110
f 131 123 111
f 124 123 131
f 124 131 130
f 71 30 32
f 128 124 129
f 141 142 137
f 128 129 127
f 126 127 129
f 102 66 62
f 124 130 129
f 104 86 102
f 81 82 80
f 82 87 80
f 88 87 82
f 88 82 84
f 88 84 87
f 84 86 87
f 84 73 86
f 85 77 73
f 85 73 84
f 85 84 77
f 78 77 84
f 83 78 84
f 87 89 80
f 83 84 82
f 78 81 80
f 78 80 79
f 78 79 76
f 78 76 77
f 77 76 73
f 74 73 76
f 74 76 75
f 74 75 72
f 74 72 73
f 72 70 73
f 71 70 72
f 102 86 66
f 83 82 78
f 90 89 87
f 78 82 81
f 91 92 89
f 107 86 104
f 91 89 90
f 107 108 86
f 107 99 108
f 106 99 107
f 106 107 104
f 106 104 99
f 105 103 99
f 105 99 104
f 105 104 103
f 103 104 102
f 103 102 100
f 100 102 101
f 103 100 99
f 91 93 92
f 100 97 99
f 98 99 97
f 98 90 99
f 91 90 98
f 91 98 97
f 96 91 97
f 96 97 95
f 91 94 93
f 96 95 91
f 91 95 94
f 100 101 97