# https://github.com/mikedh/trimesh
v 0.22787000 -0.11802500 0.51747100
v 0.19625700 -0.21411600 0.49962400
v 0.22787000 -0.11802500 0.48137500
v 0.22624400 -0.11802500 0.52960000
v 0.19030800 -0.22006000 0.51150700
v 0.18734500 -0.22749900 0.50853600
v 0.19030800 -0.22600500 0.49962400
v 0.19625700 -0.21411600 0.48137500
v 0.05902080 -0.11802500 0.48137500
v 0.20839900 -0.11802500 0.58314000
v 0.17246300 -0.22006000 0.56504800
v 0.17841200 -0.23194900 0.49962400
v 0.17841200 -0.23194900 0.48137500
v 0.19006300 -0.22613800 0.48137500
v 0.16950000 -0.22749900 0.56207700
v 0.19030800 -0.22600500 0.48137500
v 0.00027215 -0.11802500 0.53938300
v 0.05917670 -0.11834800 0.48137500
v 0.17270800 -0.11802500 0.63663600
v 0.15461800 -0.22006000 0.60069700
v 0.16056700 -0.23194900 0.55314200
v 0.16056700 -0.23194900 0.48137500
v 0.15165500 -0.22749900 0.59772600
v 0.14274400 -0.23194900 0.58883600
v 0.00027215 -0.11802500 0.70956500
v 0.05948860 -0.11896200 0.48137500
v 0.00027215 -0.13085100 0.54720100
v 0.15488600 -0.11802500 0.65448300
v 0.13679500 -0.22006000 0.61854400
v 0.14869200 -0.22600500 0.48137500
v 0.00027215 -0.23194900 0.64233200
v 0.13381000 -0.22749900 0.61557300
v 0.12489900 -0.23194900 0.60666100
v 0.00027215 -0.21425000 0.67789200
v 0.01214660 -0.11802500 0.70800200
v 0.00027215 -0.19031600 0.59477800
v 0.08352720 -0.11802500 0.69017700
v 0.08328220 -0.22006000 0.65423800
v 0.00027215 -0.23168100 0.64179600
v 0.00027215 -0.22600500 0.63044900
v 0.07138540 -0.23194900 0.64233200
v 0.00027215 -0.23184900 0.66017900
v 0.08029680 -0.22749900 0.65126700
v 0.00027215 -0.22587100 0.67208500
v 0.00893853 -0.22749900 0.66911400
v 0.07138540 -0.21411600 0.66017900
v 0.00027215 -0.23181500 0.66044700
v 0.00027215 -0.22604900 0.67199500
f 24 32 33
f 23 32 24
f 23 29 32
f 22 31 30
f 20 29 23
f 19 29 20
f 19 28 29
f 17 34 25
f 17 44 34
f 15 24 21
f 17 47 48
f 17 42 47
f 17 31 42
f 17 39 31
f 17 40 39
f 17 36 40
f 17 27 36
f 17 26 27
f 17 18 26
f 17 48 44
f 25 34 35
f 32 43 33
f 27 30 36
f 15 23 24
f 41 47 42
f 41 45 47
f 41 43 45
f 38 45 43
f 38 46 45
f 37 46 38
f 34 46 37
f 34 45 46
f 26 30 27
f 34 44 45
f 33 43 41
f 31 41 42
f 30 40 36
f 30 39 40
f 30 31 39
f 29 43 32
f 29 38 43
f 28 38 29
f 28 37 38
f 34 37 35
f 12 22 13
f 3 30 26
f 12 41 31
f 3 8 16
f 2 4 5
f 2 16 8
f 2 7 16
f 2 6 7
f 2 5 6
f 1 4 2
f 1 10 4
f 1 19 10
f 1 28 19
f 1 37 28
f 1 35 37
f 1 25 35
f 1 17 25
f 1 9 17
f 1 3 9
f 1 8 3
f 1 2 8
f 44 48 45
f 3 16 14
f 3 14 13
f 3 13 22
f 3 22 30
f 12 33 41
f 12 24 33
f 12 21 24
f 12 15 21
f 11 23 15
f 11 20 23
f 10 20 11
f 10 19 20
f 9 18 17
f 12 31 22
f 7 14 16
f 6 14 7
f 6 13 14
f 6 12 13
f 5 15 6
f 5 11 15
f 4 11 5
f 4 10 11
f 3 18 9
f 3 26 18
f 6 15 12
f 45 48 47