o convex_0
v 0.178406 0.285498 -0.0178457
v 0.178406 0.428214 -0.053537
v -0.178406 0.428214 -0.053537
v 0.178406 0.481758 -0.0713705
v -0.178406 0.481758 -0.0713705
v -0.184362 0.440124 -0.0594815
v -0.178406 0.285498 -0.0178457
v -0.190318 0.285498 -0.0238024
v -0.191778 0.437155 -0.0624537
v -0.184362 0.493634 -0.077315
v 0.172451 0.493634 -0.077315
v -0.178406 0.499606 -0.0892039
v -0.191778 0.490665 -0.0802872
v -0.196274 0.481758 -0.0892039
v -0.190318 0.493634 -0.0892039
v -0.190318 0.493634 -0.124956
v -0.196274 0.481688 -0.124956
v -0.196274 0.356856 -0.124895
v -0.196235 0.356786 -0.124956
v -0.191701 -0.249532 -0.08464
v -0.179598 -0.249532 -0.0892154
v -0.190318 0.344946 -0.124956
v -0.178483 0.339043 -0.124956
v 0.178368 0.339008 -0.124956
v 0.196274 0.481688 -0.124956
v 0.190318 0.344946 -0.124956
v 0.178406 -0.249532 -0.0892154
v 0.196235 0.356821 -0.124956
v 0.190318 -0.249532 -0.0832609
v 0.196274 0.356856 -0.124895
v 0.196274 0.481758 -0.0892039
v 0.190318 0.493634 -0.124956
v -0.178445 0.499571 -0.124956
v -0.178406 0.499606 -0.124895
v 0.178406 0.499606 -0.0892039
v 0.187321 0.490665 -0.0802872
v 0.190318 0.493634 -0.0951606
v 0.190318 0.475785 -0.077315
v 0.190318 0.422276 -0.0594815
v 0.190318 0.279561 -0.0238024
v 0.196274 0.285498 -0.0356913
v 0.196274 0.428214 -0.0713705
v 0.196274 0.178444 -0.0178457
v 0.190318 0.172507 -0.00595671
v 0.178406 0.178444 0
v 0.190318 -0.148688 -0.00595486
v 0.196274 0.142783 -0.0178452
v 0.196274 -0.142736 -0.0178452
v 0.196274 -0.249532 -0.0356901
v 0.190318 -0.249532 -0.0237997
v 0.178406 -0.249532 -0.0178452
v 0.178406 -0.142736 -3.60803e-07
v 0.0951398 -0.0119388 0.0059821
v 0.089184 -0.0317158 0.0059821
v 0.0708553 -0.0675833 0.0059821
v 0 -0.0951176 0.0059821
v 0.0535258 -0.0772606 0.0059821
v -0.178406 -0.142736 -3.60803e-07
v -0.0197119 -0.0910854 0.0059821
v -0.0732377 -0.0732284 0.0059821
v -0.0951398 0.0534982 0.0059821
v -0.0951398 -0.0178527 0.0059821
v -0.0911052 -0.0375913 0.0059821
v -0.178406 0.178444 0
v -0.0858794 0.0720464 0.0059821
v -0.0494911 0.107031 0.0059821
v 0.0416141 0.112983 0.0059821
v -0.0297408 0.112983 0.0059821
v 0.0653606 0.10104 0.0059821
v 0.0832281 0.0832214 0.0059821
v 0.0951398 0.0594505 0.0059821
v -0.190318 0.178444 -0.00595671
v -0.190318 0.142783 -0.00595486
v -0.196274 0.178444 -0.0178457
v -0.191778 0.187386 -0.00892896
v -0.196274 0.285498 -0.0356913
v -0.191778 0.29444 -0.0267746
v -0.196274 0.428214 -0.0713705
v -0.196274 -0.249532 -0.0725353
v -0.196274 -0.142736 -0.0178452
v -0.190318 -0.142736 -0.00595486
v -0.187321 -0.151645 -0.00446391
v -0.178406 -0.249532 -0.0178452
v -0.190318 -0.249532 -0.0237997
v -0.196274 -0.249532 -0.0356901
v 0.196274 -0.249532 -0.0713705
v 0.178368 0.499606 -0.124956
f 2 3 1
f 4 3 2
f 5 3 4
f 6 3 5
f 6 7 3
f 6 8 7
f 6 9 8
f 6 10 9
f 6 5 10
f 10 5 11
f 10 11 12
f 10 12 13
f 10 13 9
f 13 14 9
f 13 15 14
f 13 12 15
f 15 12 16
f 15 16 14
f 17 14 16
f 17 18 14
f 19 18 17
f 19 20 18
f 19 21 20
f 19 22 21
f 19 17 22
f 22 17 23
f 22 23 21
f 23 24 21
f 23 16 24
f 17 16 23
f 24 16 25
f 26 24 25
f 26 27 24
f 28 27 26
f 28 29 27
f 28 30 29
f 28 25 30
f 28 26 25
f 25 31 30
f 25 32 31
f 25 16 32
f 16 33 32
f 16 34 33
f 16 12 34
f 12 35 34
f 12 11 35
f 36 35 11
f 36 37 35
f 36 31 37
f 36 38 31
f 4 38 36
f 4 39 38
f 4 2 39
f 39 2 1
f 39 1 40
f 41 39 40
f 42 39 41
f 42 31 39
f 42 41 31
f 41 43 31
f 41 40 43
f 40 44 43
f 40 1 44
f 44 1 45
f 46 44 45
f 46 47 44
f 48 47 46
f 48 49 47
f 48 46 49
f 46 50 49
f 46 51 50
f 46 52 51
f 46 45 52
f 53 52 45
f 54 52 53
f 54 55 52
f 54 53 55
f 55 53 56
f 57 55 56
f 57 52 55
f 57 56 52
f 56 58 52
f 59 58 56
f 59 60 58
f 59 56 60
f 56 53 60
f 60 53 61
f 62 60 61
f 63 60 62
f 63 58 60
f 63 62 58
f 62 64 58
f 62 61 64
f 65 64 61
f 65 66 64
f 65 61 66
f 66 61 67
f 68 66 67
f 68 64 66
f 68 67 64
f 67 45 64
f 69 45 67
f 69 70 45
f 69 67 70
f 70 67 71
f 70 71 45
f 71 53 45
f 71 67 53
f 67 61 53
f 1 64 45
f 7 64 1
f 7 8 64
f 72 64 8
f 72 73 64
f 72 74 73
f 75 74 72
f 75 76 74
f 75 77 76
f 75 72 77
f 72 8 77
f 9 77 8
f 76 77 9
f 78 76 9
f 78 14 76
f 78 9 14
f 76 14 74
f 74 14 79
f 80 74 79
f 73 74 80
f 81 73 80
f 81 64 73
f 81 58 64
f 82 58 81
f 82 83 58
f 84 83 82
f 84 85 83
f 84 81 85
f 84 82 81
f 81 80 85
f 85 80 79
f 85 79 83
f 83 79 49
f 51 83 49
f 51 52 83
f 52 58 83
f 50 51 49
f 27 49 79
f 86 49 27
f 86 30 49
f 29 30 86
f 29 86 27
f 30 31 49
f 43 49 31
f 47 49 43
f 47 43 44
f 21 27 79
f 24 27 21
f 20 21 79
f 20 79 18
f 18 79 14
f 7 1 3
f 39 31 38
f 4 36 11
f 5 4 11
f 37 31 32
f 37 32 35
f 87 35 32
f 87 34 35
f 87 33 34
f 87 32 33
o convex_1
v 0.000272155 -0.118025 0.709543
v -1.81624e-05 -0.118025 0.709633
v -1.81624e-05 -0.214116 0.678027
v 0.000272155 -0.21425 0.677892
v 0.000272155 -0.118025 0.539403
v -0.0713908 -0.118025 0.691786
v -0.0803012 -0.223038 0.655729
v -0.00892857 -0.223038 0.673554
v -1.81624e-05 -0.226005 0.672085
v 0.000272155 -0.225871 0.672085
v 0.000272155 -0.130851 0.547197
v -0.0594879 -0.118962 0.478833
v -0.0590189 -0.118025 0.478833
v -0.0843879 -0.118025 0.686296
v -0.0892339 -0.227499 0.644568
v -0.0713908 -0.226005 0.654238
v -0.0892339 -0.118025 0.683878
v -0.165408 -0.118025 0.645788
v -0.133808 -0.223038 0.620033
v -1.81624e-05 -0.231949 0.660179
v 0.000272155 -0.231815 0.660451
v 0.000272155 -0.226049 0.671995
v 0.000272155 -0.190316 0.594753
v -0.148681 -0.226005 0.478833
v -0.22787 -0.118025 0.478833
v -0.142741 -0.227499 0.608873
v -0.124898 -0.231949 0.606659
v -0.0713908 -0.231949 0.642332
v -0.201094 -0.118025 0.592268
v -0.148681 -0.214116 0.612601
v 0.000272155 -0.231849 0.660179
v 0.000272155 -0.231949 0.642332
v 0.000272155 -0.226005 0.630448
v -0.150624 -0.226986 0.478833
v 0.000272155 -0.231681 0.64179
v -0.22787 -0.118025 0.521555
v -0.196271 -0.214116 0.478833
v -0.151651 -0.223038 0.602186
v -0.154622 -0.226005 0.594753
v -0.142741 -0.231949 0.588834
v -0.20891 -0.118025 0.578148
v -0.160584 -0.231949 0.478833
v -0.210027 -0.118025 0.575075
v -0.196271 -0.214116 0.499618
v -0.190308 -0.226005 0.50556
v -0.172465 -0.226005 0.559103
v -0.190308 -0.226005 0.478833
v -0.160584 -0.231949 0.553139
v -0.178427 -0.231949 0.478833
v -0.181353 -0.230488 0.478833
v -0.178427 -0.231949 0.499618
f 88 89 90
f 88 90 91
f 88 91 97
f 88 97 109
f 88 109 108
f 88 108 118
f 88 118 119
f 88 119 122
f 88 122 120
f 88 120 110
f 88 110 98
f 88 98 92
f 88 92 100
f 88 100 112
f 88 112 123
f 88 123 130
f 88 130 128
f 88 128 116
f 88 116 105
f 88 105 104
f 88 104 101
f 88 101 93
f 88 93 89
f 89 93 94
f 89 94 95
f 89 95 90
f 90 95 96
f 90 96 97
f 90 97 91
f 92 98 99
f 92 99 100
f 93 101 94
f 94 102 103
f 94 103 96
f 94 96 95
f 94 101 104
f 94 104 105
f 94 105 106
f 94 106 113
f 94 113 102
f 96 103 115
f 96 115 107
f 96 107 108
f 96 108 109
f 96 109 97
f 98 110 99
f 99 111 121
f 99 121 129
f 99 129 136
f 99 136 137
f 99 137 134
f 99 134 124
f 99 124 112
f 99 112 100
f 99 110 111
f 102 113 114
f 102 114 115
f 102 115 103
f 105 116 117
f 105 117 106
f 106 117 113
f 107 118 108
f 107 115 114
f 107 114 127
f 107 127 135
f 107 135 138
f 107 138 136
f 107 136 129
f 107 129 119
f 107 119 118
f 110 120 111
f 111 120 122
f 111 122 121
f 112 124 131
f 112 131 123
f 113 117 125
f 113 125 126
f 113 126 127
f 113 127 114
f 116 126 125
f 116 125 117
f 116 128 126
f 119 129 121
f 119 121 122
f 123 131 132
f 123 132 133
f 123 133 130
f 124 134 132
f 124 132 131
f 126 128 133
f 126 133 127
f 127 133 135
f 128 130 133
f 132 134 137
f 132 137 138
f 132 138 133
f 133 138 135
f 136 138 137
o convex_2
v 0.285467 0.499591 -0.267636
v 0.282514 0.49662 -0.252773
v 0.297376 0.493649 -0.27358
v 0.298477 0.494749 -0.279103
v 0.285467 0.499591 -0.279103
v 0.178379 0.499591 -0.124956
v 0.178554 0.499543 -0.124956
v 0.291421 0.487707 -0.243841
v 0.190314 0.493649 -0.124956
v 0.308385 0.488147 -0.279103
v 0.214108 0.499591 -0.279103
v 0.0534776 0.499591 -0.124956
v 0.291421 0.362817 -0.243841
v 0.303331 0.481749 -0.267636
v 0.309061 0.487487 -0.279103
v 0.196219 0.481859 -0.124956
v 0.196269 0.481702 -0.124956
v 0.189864 0.494498 -0.279103
v 0.187337 0.495142 -0.276553
v 0.0802994 0.495142 -0.223033
v 0.0534525 0.499575 -0.196326
v 0.0535526 0.499591 -0.196281
v 0.0534525 0.499591 -0.124987
v 0.0534525 0.499402 -0.124956
v 0.297376 0.350918 -0.255746
v 0.303331 0.356876 -0.267636
v 0.196269 0.374654 -0.124956
v 0.196244 0.356828 -0.124956
v 0.309061 0.362597 -0.279103
v 0.18481 0.488807 -0.279103
v 0.148705 0.487707 -0.261691
v 0.077322 0.487707 -0.226006
v 0.0534525 0.493649 -0.208156
v 0.0534525 0.499591 -0.178521
v 0.0534525 0.339019 -0.124987
v 0.0534776 0.339019 -0.124956
v 0.294399 0.343483 -0.258718
v 0.301179 0.345448 -0.279103
v 0.303331 0.349708 -0.279103
v 0.190314 0.344976 -0.124956
v 0.184159 0.487895 -0.279103
v 0.183483 0.486827 -0.279103
v 0.0534525 0.481686 -0.214116
v 0.0534525 0.339019 -0.178521
v 0.178379 0.339019 -0.124956
v 0.285467 0.339019 -0.267636
v 0.285467 0.339019 -0.279103
v 0.183483 0.361937 -0.279103
v 0.0534525 0.374638 -0.214116
v 0.0534525 0.339066 -0.196356
v 0.0535526 0.339019 -0.196281
v 0.214108 0.339019 -0.279103
v 0.1725 0.350918 -0.27358
v 0.13682 0.350918 -0.255746
v 0.0654373 0.350918 -0.220061
v 0.187837 0.34845 -0.279103
v 0.0534525 0.356797 -0.214071
v 0.0534525 0.344976 -0.208156
v 0.198546 0.341314 -0.279103
f 139 140 141
f 139 141 142
f 139 142 143
f 139 143 149
f 139 149 160
f 139 160 172
f 139 172 161
f 139 161 150
f 139 150 144
f 139 144 145
f 139 145 140
f 140 146 141
f 140 145 147
f 140 147 146
f 141 148 142
f 141 146 148
f 142 148 153
f 142 153 167
f 142 167 177
f 142 177 176
f 142 176 185
f 142 185 190
f 142 190 197
f 142 197 194
f 142 194 186
f 142 186 180
f 142 180 179
f 142 179 168
f 142 168 156
f 142 156 149
f 142 149 143
f 144 150 162
f 144 162 174
f 144 174 183
f 144 183 178
f 144 178 166
f 144 166 165
f 144 165 155
f 144 155 154
f 144 154 147
f 144 147 145
f 146 151 164
f 146 164 152
f 146 152 153
f 146 153 148
f 146 147 154
f 146 154 155
f 146 155 165
f 146 165 151
f 149 156 157
f 149 157 158
f 149 158 159
f 149 159 160
f 150 161 162
f 151 163 164
f 151 165 166
f 151 166 163
f 152 164 167
f 152 167 153
f 156 168 169
f 156 169 170
f 156 170 158
f 156 158 157
f 158 170 171
f 158 171 159
f 159 171 181
f 159 181 187
f 159 187 195
f 159 195 196
f 159 196 188
f 159 188 182
f 159 182 173
f 159 173 162
f 159 162 161
f 159 161 172
f 159 172 160
f 162 173 174
f 163 175 176
f 163 176 177
f 163 177 164
f 163 166 178
f 163 178 175
f 164 177 167
f 168 179 169
f 169 179 180
f 169 180 170
f 170 181 171
f 170 180 181
f 173 182 189
f 173 189 190
f 173 190 185
f 173 185 184
f 173 184 183
f 173 183 174
f 175 184 176
f 175 178 183
f 175 183 184
f 176 184 185
f 180 186 187
f 180 187 181
f 182 188 189
f 186 191 192
f 186 192 193
f 186 193 187
f 186 194 191
f 187 193 195
f 188 196 197
f 188 197 189
f 189 197 190
f 191 194 197
f 191 197 192
f 192 197 193
f 193 196 195
f 193 197 196
o convex_3
v 0.0534525 0.499591 -0.124987
v 0.0534525 0.499402 -0.124956
v 0.0534525 0.499591 -0.178521
v 0.0356037 0.499591 -0.124956
v 0.0534525 0.339019 -0.124987
v 0.0356037 0.339019 -0.124956
v 0.0534525 0.499575 -0.196326
v 0.0356746 0.499591 -0.196281
v -0.160628 0.499591 -0.124956
v 0.0534525 0.339019 -0.178521
v -0.160628 0.339019 -0.124956
v 0.0534525 0.493649 -0.208156
v -0.207716 0.499591 -0.279103
v -0.178406 0.499591 -0.142746
v -0.178441 0.499575 -0.124956
v 0.0534525 0.339066 -0.196356
v 0.0356746 0.339019 -0.196281
v -0.178476 0.33905 -0.124956
v -0.178406 0.339019 -0.142746
v 0.0534525 0.481686 -0.214116
v -0.187632 0.495142 -0.279103
v -0.196254 0.49706 -0.279103
v -0.285463 0.499591 -0.279103
v -0.285463 0.499591 -0.267636
v -0.190293 0.493649 -0.124956
v -0.287699 0.495142 -0.249801
v 0.0534525 0.344976 -0.208156
v -0.207716 0.339019 -0.279103
v -0.190293 0.344976 -0.124956
v -0.285463 0.343483 -0.247567
v -0.285463 0.339019 -0.267636
v 0.0534525 0.374638 -0.214116
v -0.18348 0.481749 -0.279103
v -0.185786 0.491448 -0.279103
v -0.298344 0.49673 -0.279103
v -0.196254 0.481702 -0.124956
v -0.298841 0.490678 -0.258718
v -0.291425 0.481749 -0.243841
v -0.302603 0.494608 -0.279103
v 0.0534525 0.356797 -0.214071
v -0.187632 0.343483 -0.279103
v -0.285463 0.339019 -0.279103
v -0.196219 0.356813 -0.124956
v -0.291425 0.356876 -0.243841
v -0.294406 0.347947 -0.254252
v -0.297351 0.344976 -0.261691
v -0.302177 0.343781 -0.279103
v -0.298557 0.342304 -0.279103
v -0.18348 0.356876 -0.279103
v -0.196254 0.374654 -0.124956
v -0.309061 0.481749 -0.279103
v -0.186035 0.346674 -0.279103
v -0.309061 0.356876 -0.279103
f 198 199 202
f 198 202 207
f 198 207 213
f 198 213 224
f 198 224 237
f 198 237 229
f 198 229 217
f 198 217 209
f 198 209 204
f 198 204 200
f 198 200 205
f 198 205 210
f 198 210 220
f 198 220 221
f 198 221 211
f 198 211 206
f 198 206 201
f 198 201 199
f 199 201 206
f 199 206 212
f 199 212 222
f 199 222 233
f 199 233 247
f 199 247 240
f 199 240 226
f 199 226 215
f 199 215 208
f 199 208 203
f 199 203 202
f 200 204 205
f 202 203 208
f 202 208 216
f 202 216 228
f 202 228 239
f 202 239 225
f 202 225 214
f 202 214 207
f 204 209 210
f 204 210 205
f 206 211 212
f 207 214 213
f 208 215 216
f 209 217 218
f 209 218 219
f 209 219 210
f 210 219 218
f 210 218 231
f 210 231 230
f 210 230 246
f 210 246 249
f 210 249 238
f 210 238 225
f 210 225 239
f 210 239 245
f 210 245 244
f 210 244 250
f 210 250 248
f 210 248 236
f 210 236 232
f 210 232 220
f 211 221 212
f 212 221 223
f 212 223 222
f 213 214 225
f 213 225 224
f 215 226 227
f 215 227 228
f 215 228 216
f 217 229 246
f 217 246 230
f 217 230 231
f 217 231 218
f 220 232 221
f 221 232 223
f 222 223 234
f 222 234 235
f 222 235 233
f 223 232 236
f 223 236 234
f 224 225 238
f 224 238 237
f 226 240 241
f 226 241 242
f 226 242 227
f 227 242 243
f 227 243 228
f 228 243 244
f 228 244 245
f 228 245 239
f 229 237 246
f 233 235 241
f 233 241 247
f 234 236 248
f 234 248 235
f 235 248 250
f 235 250 241
f 237 238 249
f 237 249 246
f 240 247 241
f 241 250 242
f 242 250 243
f 243 250 244
o convex_4
v 0.315222 0.499591 -0.666152
v 0.321166 0.49827 -0.666152
v 0.303293 0.499591 -0.695882
v 0.243853 0.499591 -0.666152
v 0.333055 0.493649 -0.666152
v 0.315222 0.493649 -0.701831
v 0.303293 0.495142 -0.715954
v 0.267629 0.499591 -0.731576
v 0.223776 0.495142 -0.666152
v -0.088555 0.499591 -0.785087
v -0.088555 0.495912 -0.770934
v -0.088555 0.493036 -0.76662
v -0.088555 0.488776 -0.760232
v 0.336047 0.481749 -0.666152
v 0.309278 0.481749 -0.719678
v 0.31223 0.490678 -0.709263
v 0.285461 0.495142 -0.733801
v 0.249797 0.495142 -0.769481
v 0.249797 0.499591 -0.749408
v 0.22228 0.492171 -0.666152
v -0.088555 0.482378 -0.758627
v -0.088555 0.499591 -0.802935
v 0.336047 0.350934 -0.666152
v 0.309278 0.356876 -0.719678
v 0.220035 0.481749 -0.808884
v 0.214091 0.495142 -0.80516
v 0.196259 0.499591 -0.802935
v 0.220035 0.481749 -0.666152
v -0.088555 0.357489 -0.758627
v -0.088555 0.493649 -0.814833
v 0.334052 0.346957 -0.666152
v 0.334551 0.347947 -0.669119
v 0.316677 0.347947 -0.704813
v 0.305537 0.343483 -0.713729
v 0.287705 0.343483 -0.731576
v 0.269873 0.343483 -0.749408
v 0.216336 0.343483 -0.802935
v 0.220035 0.356876 -0.808884
v 0.196259 0.481749 -0.820782
v 0.205154 0.490678 -0.816316
v 0.196259 0.493649 -0.814833
v 0.220035 0.356876 -0.666152
v -0.088555 0.345699 -0.767452
v 0.223776 0.343483 -0.666152
v 0.221822 0.34735 -0.666152
v -0.088555 0.482174 -0.82057
v 0.329812 0.344473 -0.666152
v 0.32337 0.343483 -0.67805
v 0.321915 0.340512 -0.666152
v 0.303293 0.339019 -0.695882
v 0.267629 0.339019 -0.731576
v 0.249797 0.339019 -0.749408
v 0.196259 0.339019 -0.802935
v 0.202203 0.344976 -0.814833
v 0.209643 0.347947 -0.811851
v 0.196259 0.356876 -0.820782
v -0.088555 0.481749 -0.820782
v -0.088555 0.339019 -0.785087
v 0.243853 0.339019 -0.666152
v 0.315222 0.339019 -0.666152
v -0.088555 0.339019 -0.802935
v -0.088555 0.344976 -0.814833
v -0.088555 0.355634 -0.820161
v -0.088555 0.356876 -0.820782
f 251 252 253
f 251 253 258
f 251 258 269
f 251 269 277
f 251 277 272
f 251 272 260
f 251 260 254
f 251 254 259
f 251 259 270
f 251 270 278
f 251 278 292
f 251 292 295
f 251 295 294
f 251 294 309
f 251 309 310
f 251 310 299
f 251 299 297
f 251 297 281
f 251 281 273
f 251 273 264
f 251 264 255
f 251 255 252
f 252 255 253
f 253 255 256
f 253 256 257
f 253 257 267
f 253 267 258
f 254 260 261
f 254 261 262
f 254 262 263
f 254 263 259
f 255 264 256
f 256 265 266
f 256 266 257
f 256 264 265
f 257 266 265
f 257 265 267
f 258 267 268
f 258 268 269
f 259 263 271
f 259 271 270
f 260 272 280
f 260 280 296
f 260 296 307
f 260 307 314
f 260 314 313
f 260 313 312
f 260 312 311
f 260 311 308
f 260 308 293
f 260 293 279
f 260 279 271
f 260 271 263
f 260 263 262
f 260 262 261
f 264 273 274
f 264 274 265
f 265 268 267
f 265 274 288
f 265 288 275
f 265 275 268
f 268 275 276
f 268 276 277
f 268 277 269
f 270 271 278
f 271 279 292
f 271 292 278
f 272 277 291
f 272 291 280
f 273 281 282
f 273 282 274
f 274 282 283
f 274 283 284
f 274 284 285
f 274 285 286
f 274 286 287
f 274 287 288
f 275 288 306
f 275 306 289
f 275 289 290
f 275 290 276
f 276 290 291
f 276 291 277
f 279 293 294
f 279 294 295
f 279 295 292
f 280 291 296
f 281 297 298
f 281 298 282
f 282 298 284
f 282 284 283
f 284 298 299
f 284 299 300
f 284 300 301
f 284 301 285
f 285 301 302
f 285 302 286
f 286 302 303
f 286 303 287
f 287 303 304
f 287 304 305
f 287 305 288
f 288 305 304
f 288 304 306
f 289 291 290
f 289 306 314
f 289 314 307
f 289 307 296
f 289 296 291
f 293 308 309
f 293 309 294
f 297 299 298
f 299 310 300
f 300 310 309
f 300 309 308
f 300 308 311
f 300 311 303
f 300 303 302
f 300 302 301
f 303 311 312
f 303 312 304
f 304 312 313
f 304 313 306
f 306 313 314
o convex_5
v -0.18352 0.481749 -0.279103
v -0.185822 0.491448 -0.279103
v -0.18352 0.356876 -0.279103
v -0.285485 0.481749 -0.499317
v -0.187675 0.495142 -0.279103
v -0.285616 0.482048 -0.499317
v -0.186065 0.346674 -0.279103
v -0.285485 0.356876 -0.499317
v -0.196284 0.49706 -0.279103
v -0.291437 0.493649 -0.499317
v -0.303322 0.499591 -0.499317
v -0.187675 0.343483 -0.279103
v -0.291325 0.345165 -0.499317
v -0.207739 0.499591 -0.279103
v -0.35685 0.499591 -0.499317
v -0.207739 0.339019 -0.279103
v -0.303322 0.339019 -0.499317
v -0.291437 0.344976 -0.499317
v -0.285485 0.499591 -0.279103
v -0.368753 0.493649 -0.499317
v -0.35685 0.499591 -0.410378
v -0.285485 0.339019 -0.279103
v -0.35685 0.339019 -0.499317
v -0.298362 0.49673 -0.279103
v -0.321158 0.499591 -0.32118
v -0.374705 0.481749 -0.499317
v -0.368753 0.493649 -0.410378
v -0.339013 0.499591 -0.356876
v -0.298568 0.342304 -0.279103
v -0.321158 0.339019 -0.32118
v -0.368753 0.344976 -0.499317
v -0.35685 0.339019 -0.410378
v -0.302629 0.494608 -0.279103
v -0.323404 0.495142 -0.303353
v -0.374705 0.481749 -0.410378
v -0.374705 0.356876 -0.499317
v -0.370232 0.490678 -0.401454
v -0.352395 0.490678 -0.347952
v -0.350898 0.493649 -0.356876
v -0.34124 0.495142 -0.339028
v -0.30218 0.343781 -0.279103
v -0.321158 0.343483 -0.301111
v -0.333061 0.344976 -0.31523
v -0.339013 0.339019 -0.356876
v -0.368753 0.344976 -0.404428
v -0.309049 0.481749 -0.279103
v -0.33454 0.490678 -0.312256
v -0.32711 0.481749 -0.297404
v -0.35685 0.481749 -0.356876
v -0.374705 0.356876 -0.410378
v -0.344965 0.481749 -0.333079
v -0.35685 0.356876 -0.356876
v -0.344965 0.356876 -0.333079
v -0.309049 0.356876 -0.279103
v -0.32711 0.356876 -0.297404
v -0.330086 0.347947 -0.307794
v -0.350898 0.344976 -0.350927
v -0.333061 0.481749 -0.309281
v -0.333061 0.356876 -0.309281
f 315 316 319
f 315 319 323
f 315 323 328
f 315 328 333
f 315 333 338
f 315 338 347
f 315 347 360
f 315 360 368
f 315 368 355
f 315 355 343
f 315 343 336
f 315 336 330
f 315 330 326
f 315 326 321
f 315 321 317
f 315 317 322
f 315 322 318
f 315 318 316
f 316 318 320
f 316 320 319
f 317 321 322
f 318 322 327
f 318 327 332
f 318 332 331
f 318 331 337
f 318 337 345
f 318 345 350
f 318 350 340
f 318 340 334
f 318 334 329
f 318 329 325
f 318 325 324
f 318 324 320
f 319 320 324
f 319 324 325
f 319 325 323
f 321 326 327
f 321 327 322
f 323 325 328
f 325 329 335
f 325 335 342
f 325 342 339
f 325 339 333
f 325 333 328
f 326 330 331
f 326 331 332
f 326 332 327
f 329 334 341
f 329 341 335
f 330 336 344
f 330 344 358
f 330 358 346
f 330 346 337
f 330 337 331
f 333 339 338
f 334 340 349
f 334 349 341
f 335 341 342
f 336 343 344
f 337 346 359
f 337 359 345
f 338 339 348
f 338 348 347
f 339 342 348
f 340 350 364
f 340 364 349
f 341 349 351
f 341 351 352
f 341 352 353
f 341 353 342
f 342 353 354
f 342 354 348
f 343 355 356
f 343 356 344
f 344 357 358
f 344 356 357
f 345 359 364
f 345 364 350
f 346 358 359
f 347 348 361
f 347 361 362
f 347 362 360
f 348 354 352
f 348 352 361
f 349 363 352
f 349 352 351
f 349 364 366
f 349 366 363
f 352 365 372
f 352 372 361
f 352 354 353
f 352 363 366
f 352 366 367
f 352 367 365
f 355 368 369
f 355 369 370
f 355 370 356
f 356 370 357
f 357 370 367
f 357 367 371
f 357 371 358
f 358 371 359
f 359 371 366
f 359 366 364
f 360 362 369
f 360 369 368
f 361 372 362
f 362 372 373
f 362 373 369
f 365 367 373
f 365 373 372
f 366 371 367
f 367 370 373
f 369 373 370
o convex_6
v -0.0885966 0.482378 -0.758635
v -0.0885966 0.357489 -0.758635
v -0.0885966 0.488776 -0.760208
v -0.285478 0.481749 -0.499317
v -0.0885966 0.345699 -0.767446
v -0.285478 0.356876 -0.499317
v -0.291415 0.344976 -0.499317
v -0.0885966 0.495912 -0.770938
v -0.291415 0.493649 -0.499317
v -0.285618 0.482048 -0.499317
v -0.0981466 0.343483 -0.75832
v -0.0885966 0.339019 -0.785067
v -0.303318 0.339019 -0.499317
v -0.0885966 0.499591 -0.785067
v -0.303318 0.499591 -0.499317
v -0.0885966 0.339019 -0.802909
v -0.356837 0.339019 -0.499317
v -0.0885966 0.499591 -0.802909
v -0.356837 0.499591 -0.499317
v -0.196279 0.339019 -0.802909
v -0.0885966 0.339647 -0.804167
v -0.368739 0.344976 -0.499317
v -0.356837 0.339019 -0.570998
v -0.0885966 0.493649 -0.814803
v -0.205213 0.495142 -0.811845
v -0.196279 0.499591 -0.802909
v -0.368739 0.493649 -0.499317
v -0.356837 0.499591 -0.570998
v -0.365771 0.495142 -0.579903
v -0.21115 0.342005 -0.799951
v -0.205213 0.347947 -0.811845
v -0.190342 0.344976 -0.814803
v -0.303318 0.339019 -0.695859
v -0.0885966 0.344976 -0.814803
v -0.374705 0.356876 -0.499317
v -0.368739 0.344976 -0.565051
v -0.338997 0.339019 -0.624523
v -0.0885966 0.482174 -0.820562
v -0.196279 0.493649 -0.814803
v -0.196279 0.481749 -0.82075
v -0.208182 0.487707 -0.814803
v -0.312252 0.495142 -0.704795
v -0.303318 0.499591 -0.695859
v -0.374705 0.481749 -0.499317
v -0.368739 0.493649 -0.570998
v -0.338997 0.499591 -0.624523
v -0.347931 0.495142 -0.63346
v -0.368739 0.487707 -0.582893
v -0.374705 0.481749 -0.570998
v -0.220084 0.350918 -0.808856
v -0.300349 0.342005 -0.710742
v -0.196279 0.356876 -0.82075
v -0.0885966 0.355634 -0.820152
v -0.312252 0.347947 -0.704795
v -0.374705 0.356876 -0.570998
v -0.362802 0.350918 -0.594787
v -0.347931 0.347947 -0.63346
v -0.3509 0.344976 -0.618576
v -0.0885966 0.481749 -0.82075
v -0.220084 0.475807 -0.808856
v -0.31522 0.487707 -0.707753
v -0.3509 0.487707 -0.636418
v -0.356837 0.481749 -0.624523
v -0.309255 0.350918 -0.719647
v -0.0885966 0.356876 -0.82075
v -0.344962 0.350918 -0.648312
v -0.327123 0.350918 -0.683964
v -0.356837 0.356876 -0.624523
v -0.309255 0.475807 -0.719647
v -0.344962 0.475807 -0.648312
v -0.31522 0.362817 -0.707753
f 374 375 378
f 374 378 385
f 374 385 389
f 374 389 394
f 374 394 407
f 374 407 426
f 374 426 438
f 374 438 432
f 374 432 411
f 374 411 397
f 374 397 391
f 374 391 387
f 374 387 381
f 374 381 376
f 374 376 377
f 374 377 379
f 374 379 375
f 375 379 380
f 375 380 378
f 376 381 382
f 376 382 383
f 376 383 377
f 377 383 382
f 377 382 388
f 377 388 392
f 377 392 400
f 377 400 417
f 377 417 408
f 377 408 395
f 377 395 390
f 377 390 386
f 377 386 380
f 377 380 379
f 378 384 385
f 378 380 384
f 380 386 384
f 381 387 388
f 381 388 382
f 384 386 385
f 385 386 390
f 385 390 396
f 385 396 410
f 385 410 406
f 385 406 393
f 385 393 389
f 387 391 399
f 387 399 416
f 387 416 419
f 387 419 401
f 387 401 392
f 387 392 388
f 389 393 394
f 390 395 409
f 390 409 396
f 391 397 398
f 391 398 399
f 392 401 402
f 392 402 400
f 393 403 404
f 393 404 405
f 393 405 394
f 393 406 424
f 393 424 403
f 394 405 407
f 395 408 428
f 395 428 409
f 396 409 431
f 396 431 410
f 397 411 412
f 397 412 398
f 398 412 413
f 398 413 414
f 398 414 434
f 398 434 415
f 398 415 416
f 398 416 399
f 400 402 418
f 400 418 422
f 400 422 417
f 401 419 420
f 401 420 402
f 402 421 422
f 402 422 418
f 402 420 421
f 403 423 404
f 403 424 423
f 404 423 425
f 404 425 405
f 405 426 407
f 405 425 426
f 406 427 424
f 406 410 430
f 406 430 427
f 408 417 422
f 408 422 428
f 409 428 429
f 409 429 430
f 409 430 431
f 410 431 430
f 411 432 413
f 411 413 412
f 413 432 438
f 413 438 425
f 413 425 423
f 413 423 433
f 413 433 414
f 414 433 434
f 415 434 435
f 415 435 420
f 415 420 419
f 415 419 416
f 420 435 421
f 421 435 422
f 422 435 436
f 422 436 441
f 422 441 428
f 423 424 437
f 423 437 442
f 423 442 433
f 424 427 437
f 425 438 426
f 427 430 439
f 427 439 440
f 427 440 437
f 428 441 439
f 428 439 430
f 428 430 429
f 433 442 434
f 434 443 435
f 434 442 437
f 434 437 444
f 434 444 439
f 434 439 443
f 435 443 439
f 435 439 441
f 435 441 436
f 437 440 444
f 439 444 440
o convex_7
v 0.181851 -0.118025 0.33421
v 0.21002 -0.118025 0.392598
v 0.172681 -0.118025 0.636598
v 0.226231 -0.118025 0.52959
v 0.208406 -0.118025 0.583094
v 0.356806 -0.107055 0.535226
v 0.227845 -0.118025 0.517416
v 0.227845 -0.118025 0.446027
v 0.356806 -0.107055 0.356904
v 0.365755 -0.102596 0.544168
v 0.160577 -0.107055 0.731508
v 0.154855 -0.118025 0.654483
v 0.0834796 -0.118025 0.690178
v 0.107027 -0.107055 0.749393
v 0.169453 -0.102596 0.74045
v 0.249779 -0.095899 0.678004
v 0.214054 -0.095899 0.713698
v 0.187352 -0.0936694 0.74045
v 0.160577 -0.0951612 0.755329
v 0.205178 -0.066914 0.75826
v 0.240829 -0.0758406 0.722641
v 0.258655 -0.0758406 0.704756
v 0.312205 -0.066914 0.651252
v 0.315213 -0.0594792 0.654182
v 0.368689 -0.0951612 0.547174
v 0.374705 -0.0892102 0.535226
v 0.368689 -0.101104 0.535226
v 0.37023 -0.0981368 0.347961
v 0.374705 -0.0892102 0.356904
v 0.309271 -0.0892102 0.226074
v 0.31668 -0.0981368 0.240953
v 0.30553 -0.102596 0.232011
v 0.35908 -0.102596 0.339019
v 0.303329 -0.107055 0.24982
v 0.368689 -0.101104 0.356904
v 0.146126 -0.118025 0.298515
v 0.196228 -0.107055 0.142812
v 0.216328 -0.102596 0.142812
v 0.20217 -0.101104 0.130864
v 0.209653 -0.0981368 0.13387
v 0.0708565 -0.067601 0.00598671
v 0.0535149 -0.0772784 0.00598671
v 0 -0.0951459 0.00598671
v 0.124853 -0.107055 0.107118
v 0.0575848 -0.118025 0.253954
v 0.0534768 -0.107055 0.0892329
v -0.0534768 -0.107055 0.0892329
v -0.0493689 -0.118025 0.253954
v -0.124853 -0.107055 0.107118
v -0.076144 -0.118025 0.262821
v -0.165419 -0.118025 0.645766
v -0.227845 -0.118025 0.45016
v -0.183244 -0.118025 0.33421
v -0.14752 -0.118025 0.298515
v -0.196228 -0.107055 0.142812
v -0.303329 -0.107055 0.24982
v -0.20107 -0.118025 0.369904
v -0.356806 -0.107055 0.356904
v -0.356806 -0.107055 0.535226
v -0.368689 -0.101104 0.36284
v -0.362748 -0.0951612 0.333083
v -0.309271 -0.0951612 0.226074
v -0.300321 -0.10408 0.234942
v -0.21112 -0.10408 0.145743
v -0.219996 -0.0951612 0.1368
v -0.0951459 -0.0178288 0.00598671
v -0.0911039 -0.0375706 0.00598671
v -0.0732594 -0.0732445 0.00598671
v -0.0197258 -0.0910916 0.00598671
v 0.0892039 -0.0316623 0.00598671
v 0.219996 -0.0892102 0.1368
v 0.0951459 -0.0119001 0.00598671
v 0.0832247 0.0832234 0.00598671
v 0.0951459 0.0594476 0.00598671
v 0.309271 0.124891 0.226074
v 0.219996 0.124891 0.1368
v 0.205178 0.133809 0.129436
v 0.214054 0.138268 0.140558
v 0.303329 0.138268 0.229756
v 0.303329 0.142745 0.24982
v 0.196228 0.142745 0.142812
v 0.124853 0.142745 0.107118
v 0.142678 0.138268 0.104863
v 0.0416124 0.112989 0.00598671
v 0.0653802 0.101071 0.00598671
v -0.0297471 0.112989 0.00598671
v -0.0534768 0.142745 0.0892329
v 0.0534768 0.142745 0.0892329
v -0.356806 0.142745 0.356904
v -0.303329 0.142745 0.24982
v -0.365755 0.138268 0.347961
v -0.356806 0.142745 0.535226
v -0.368689 0.136788 0.535226
v -0.368689 0.136788 0.356904
v -0.374705 0.124891 0.356904
v -0.368689 0.130848 0.345031
v -0.315213 0.130848 0.237947
v -0.312205 0.138268 0.240953
v -0.205178 0.138268 0.13387
v -0.208112 0.130848 0.130864
v -0.219996 0.118952 0.1368
v -0.0951459 0.053519 0.00598671
v -0.0858697 0.0720384 0.00598671
v -0.0535708 0.104004 0.00598671
v -0.0680252 0.0898855 0.00598671
v -0.0508699 0.106368 0.00598671
v -0.0495101 0.10704 0.00598671
v -0.133802 0.138268 0.0981753
v -0.309271 0.118952 0.226074
v -0.374705 -0.0892102 0.356904
v -0.374705 0.124891 0.535226
v -0.37023 0.133809 0.544168
v -0.362748 0.136788 0.547174
v -0.196228 0.142745 0.678004
v -0.20217 0.136788 0.689877
v -0.236354 0.115973 0.704756
v -0.234154 0.102596 0.731508
v -0.287704 0.102596 0.678004
v -0.298854 0.09812 0.669061
v -0.310004 0.089202 0.660119
v -0.31668 0.0802841 0.651252
v -0.309271 0.0713661 0.666131
v -0.338833 -0.0351966 0.606991
v -0.309271 -0.0535363 0.666131
v -0.219996 -0.0535363 0.755329
v -0.258655 -0.0802917 0.700322
v -0.303329 -0.066914 0.662373
v -0.312205 -0.0624547 0.655685
v -0.365755 -0.0981368 0.548602
v -0.368689 -0.0892102 0.547174
v -0.374705 -0.0892102 0.535226
v -0.368689 -0.101104 0.541238
v -0.258655 -0.0981368 0.664628
v -0.187352 -0.0981368 0.736017
v -0.240829 -0.0802917 0.718132
v -0.205178 -0.0624547 0.762769
v -0.160577 -0.0951612 0.755329
v -0.178403 -0.102596 0.733762
v -0.249779 -0.102596 0.662373
v -0.160577 -0.107055 0.731508
v -0.107027 -0.107055 0.749393
v -0.107027 -0.0951612 0.773139
v -0.0356512 -0.0951612 0.791024
v -0.0356512 -0.107055 0.767202
v 0 -0.118025 0.709565
v -0.0713025 -0.118025 0.691756
v -0.0843599 -0.118025 0.68627
v -0.20107 -0.118025 0.592187
v -0.208846 -0.118025 0.578059
v -0.227845 -0.118025 0.521474
v 0.0121038 -0.118025 0.707987
v 0.0356512 -0.107055 0.767202
v 0.0446007 -0.102596 0.776145
v 0.115977 -0.102596 0.75826
v 0.107027 -0.0951612 0.773139
v 0.133802 -0.066914 0.793955
v 0.160577 -0.0773162 0.773139
v 0.136736 -0.0594792 0.79696
v 0.208112 -0.0594792 0.761266
v 0.219996 -0.0475852 0.755329
v 0.309271 -0.0475852 0.666131
v 0.309271 0.0773056 0.666131
v 0.374705 0.124891 0.535226
v 0.312205 0.09812 0.651252
v 0.291372 0.095159 0.68394
v 0.365755 0.133809 0.544168
v 0.368689 0.136788 0.529289
v 0.356806 0.142745 0.535226
v 0.356806 0.142745 0.356904
v 0.368689 0.136788 0.350967
v 0.374705 0.124891 0.356904
v 0.315213 0.136788 0.243884
v 0.312205 0.133809 0.236444
v -0.0356512 0.142745 0.749393
v 0.142678 0.142745 0.713698
v 0.196228 0.142745 0.678004
v 0.217062 0.12787 0.698819
v 0.240829 0.115973 0.704756
v 0.169453 0.133809 0.722641
v 0.107027 0.142745 0.731508
v 0.133802 0.133809 0.74045
v 0.112969 0.130848 0.755329
v 0.0356512 0.142745 0.749393
v -0.0297094 0.130848 0.773139
v 0.0415931 0.130848 0.773139
v 0.0773177 0.112995 0.791024
v 0.133802 0.09812 0.793955
v 0.184345 0.095159 0.773139
v 0.205178 0.09812 0.75826
v 0.237895 0.095159 0.737445
v 0.219996 0.0773056 0.755329
v 0.160577 0.089202 0.785087
v 0.124853 0.0713661 0.802897
v 0.124853 -0.0535363 0.802897
v 0.0534768 -0.0535363 0.820782
v 0.0534768 -0.0351966 0.820782
v -0.0534768 -0.0535363 0.820782
v 0.0534768 -0.0773162 0.808833
v 0.0356512 -0.0951612 0.791024
v -0.0534768 -0.0773162 0.808833
v -0.133802 -0.0624547 0.798463
v -0.0624263 -0.0624547 0.816273
v -0.124853 -0.0535363 0.802897
v -0.124853 0.0713661 0.802897
v -0.160577 0.089202 0.785087
v -0.219996 0.0713661 0.755329
v -0.184345 0.089202 0.773139
v -0.173928 0.09812 0.776145
v -0.166519 0.101098 0.779076
v -0.127127 0.089202 0.798463
v -0.0534768 0.0713661 0.820782
v -0.0557509 0.089202 0.816273
v -0.0415931 0.101098 0.81477
v -0.0356512 0.089202 0.820782
v 0.0356512 0.089202 0.820782
v 0.0534768 0.0713661 0.820782
v 0.0624263 0.09812 0.811839
v 0.0297094 0.101098 0.81477
v -0.112969 0.101098 0.79696
v -0.129327 0.09812 0.793955
v -0.112969 0.136788 0.743456
v -0.164979 0.133809 0.722641
v -0.180604 0.102596 0.767202
v -0.219996 0.101098 0.743456
v -0.227478 0.09812 0.74045
v -0.237895 0.089202 0.737445
v -0.291372 0.089202 0.68394
v -0.162778 0.138268 0.713698
v -0.142678 0.142745 0.713698
v -0.14862 0.136788 0.725571
v -0.107027 0.142745 0.731508
v -0.0415931 0.136788 0.761266
v -0.160577 -0.0773162 0.773139
v -0.124853 0.142745 0.107118
v -0.196228 0.142745 0.142812
f 446 447 445
f 448 447 446
f 449 447 448
f 449 450 447
f 449 448 450
f 451 450 448
f 451 452 450
f 451 448 452
f 452 448 446
f 452 446 453
f 452 453 450
f 450 453 454
f 455 450 454
f 456 450 455
f 456 447 450
f 456 457 447
f 456 455 457
f 455 458 457
f 455 459 458
f 455 454 459
f 459 454 460
f 461 459 460
f 462 459 461
f 462 463 459
f 462 464 463
f 462 465 464
f 462 461 465
f 461 460 465
f 460 466 465
f 460 454 466
f 467 466 454
f 467 468 466
f 467 454 468
f 469 468 454
f 469 470 468
f 469 454 470
f 471 470 454
f 472 470 471
f 472 473 470
f 472 474 473
f 475 474 472
f 475 476 474
f 477 476 475
f 477 478 476
f 477 453 478
f 477 479 453
f 477 472 479
f 477 475 472
f 479 472 471
f 479 471 454
f 479 454 453
f 453 445 478
f 453 446 445
f 480 478 445
f 481 478 480
f 481 482 478
f 483 482 481
f 483 484 482
f 483 485 484
f 483 486 485
f 483 487 486
f 483 481 487
f 481 488 487
f 489 488 481
f 489 490 488
f 489 491 490
f 492 491 489
f 492 493 491
f 492 494 493
f 492 489 494
f 489 480 494
f 489 481 480
f 480 445 494
f 494 445 447
f 495 494 447
f 496 494 495
f 497 494 496
f 498 494 497
f 498 499 494
f 498 500 499
f 498 497 500
f 501 500 497
f 501 502 500
f 501 496 502
f 501 497 496
f 502 496 503
f 502 503 504
f 502 504 505
f 502 505 500
f 500 505 506
f 507 500 506
f 507 508 500
f 507 509 508
f 507 506 509
f 509 506 510
f 511 509 510
f 511 512 509
f 511 510 512
f 512 510 513
f 508 512 513
f 508 509 512
f 499 508 513
f 499 500 508
f 499 513 487
f 499 487 493
f 499 493 494
f 493 487 491
f 490 491 487
f 490 487 488
f 487 513 486
f 486 513 514
f 485 486 514
f 515 485 514
f 515 484 485
f 515 482 484
f 515 476 482
f 515 474 476
f 515 516 474
f 515 514 516
f 516 514 517
f 518 516 517
f 518 519 516
f 518 520 519
f 518 517 520
f 521 520 517
f 522 520 521
f 522 523 520
f 522 524 523
f 522 525 524
f 522 526 525
f 527 526 522
f 527 528 526
f 527 522 528
f 522 521 528
f 529 528 521
f 529 517 528
f 529 521 517
f 528 517 530
f 528 530 531
f 532 528 531
f 532 526 528
f 532 531 526
f 526 531 524
f 525 526 524
f 531 533 524
f 534 533 531
f 535 533 534
f 535 536 533
f 535 537 536
f 535 538 537
f 535 539 538
f 540 539 535
f 540 541 539
f 540 535 541
f 535 542 541
f 535 534 542
f 542 534 543
f 542 543 541
f 544 541 543
f 544 545 541
f 544 546 545
f 547 546 544
f 547 548 546
f 549 548 547
f 549 543 548
f 549 547 543
f 547 544 543
f 550 548 543
f 550 551 548
f 550 543 551
f 551 543 552
f 551 552 530
f 551 530 548
f 548 530 546
f 546 530 510
f 546 510 506
f 553 546 506
f 553 545 546
f 553 541 545
f 553 506 541
f 554 541 506
f 539 541 554
f 539 554 555
f 556 539 555
f 556 538 539
f 556 537 538
f 556 536 537
f 557 536 556
f 557 558 536
f 557 559 558
f 557 560 559
f 557 561 560
f 557 562 561
f 557 556 562
f 556 563 562
f 556 564 563
f 565 564 556
f 565 566 564
f 565 556 566
f 556 555 566
f 566 555 567
f 568 566 567
f 568 569 566
f 568 570 569
f 568 571 570
f 572 571 568
f 572 573 571
f 572 568 573
f 568 574 573
f 568 575 574
f 568 567 575
f 575 567 555
f 575 555 554
f 576 575 554
f 573 575 576
f 573 574 575
f 570 573 576
f 570 571 573
f 577 570 576
f 578 570 577
f 578 579 570
f 578 580 579
f 578 581 580
f 578 582 581
f 578 583 582
f 578 577 583
f 577 576 583
f 583 576 503
f 583 503 584
f 582 583 584
f 581 582 584
f 585 581 584
f 585 586 581
f 585 587 586
f 585 588 587
f 585 589 588
f 585 590 589
f 585 584 590
f 591 590 584
f 591 495 590
f 591 584 495
f 495 584 503
f 592 495 503
f 592 593 495
f 592 503 593
f 593 503 594
f 593 594 495
f 594 496 495
f 594 503 496
f 590 495 589
f 589 495 447
f 457 589 447
f 595 589 457
f 595 596 589
f 595 457 596
f 457 458 596
f 458 597 596
f 458 598 597
f 459 598 458
f 459 463 598
f 463 599 598
f 463 600 599
f 601 600 463
f 601 464 600
f 601 463 464
f 464 602 600
f 603 602 464
f 603 604 602
f 603 465 604
f 603 464 465
f 605 604 465
f 605 606 604
f 605 470 606
f 605 468 470
f 605 466 468
f 605 465 466
f 606 470 607
f 608 606 607
f 608 609 606
f 608 610 609
f 608 607 610
f 611 610 607
f 611 612 610
f 611 613 612
f 611 614 613
f 611 607 614
f 615 614 607
f 615 616 614
f 615 519 616
f 615 473 519
f 615 607 473
f 607 470 473
f 519 473 474
f 516 519 474
f 617 616 519
f 617 523 616
f 617 519 523
f 523 519 520
f 616 523 524
f 616 524 613
f 616 613 614
f 613 524 533
f 618 613 533
f 612 613 618
f 619 612 618
f 620 612 619
f 621 612 620
f 621 622 612
f 621 623 622
f 621 620 623
f 623 620 619
f 624 623 619
f 624 625 623
f 624 626 625
f 624 627 626
f 624 619 627
f 627 619 618
f 627 618 628
f 627 628 629
f 626 627 629
f 626 629 630
f 626 630 631
f 632 626 631
f 623 626 632
f 625 626 623
f 623 632 633
f 623 633 622
f 634 622 633
f 634 609 622
f 634 606 609
f 634 635 606
f 634 632 635
f 634 633 632
f 632 636 635
f 632 631 636
f 636 631 637
f 638 636 637
f 638 602 636
f 638 639 602
f 638 637 639
f 639 637 640
f 639 640 641
f 639 641 642
f 639 642 602
f 602 642 600
f 642 599 600
f 643 599 642
f 643 597 599
f 643 587 597
f 643 642 587
f 644 587 642
f 644 586 587
f 644 645 586
f 646 645 644
f 646 641 645
f 646 644 641
f 644 642 641
f 647 645 641
f 648 645 647
f 649 645 648
f 649 580 645
f 649 650 580
f 649 651 650
f 649 652 651
f 649 653 652
f 649 654 653
f 649 648 654
f 654 648 655
f 656 654 655
f 656 657 654
f 658 657 656
f 658 659 657
f 658 655 659
f 658 656 655
f 659 655 660
f 659 660 631
f 661 659 631
f 661 662 659
f 661 630 662
f 661 631 630
f 662 630 629
f 662 629 657
f 659 662 657
f 628 657 629
f 663 657 628
f 663 654 657
f 664 654 663
f 664 653 654
f 664 663 653
f 653 663 665
f 653 665 666
f 653 666 667
f 668 653 667
f 668 652 653
f 668 669 652
f 561 669 668
f 561 670 669
f 561 562 670
f 562 671 670
f 562 563 671
f 671 563 564
f 671 564 566
f 671 566 670
f 670 566 650
f 651 670 650
f 669 670 651
f 652 669 651
f 566 569 650
f 580 650 569
f 579 580 569
f 579 569 570
f 561 668 667
f 561 667 666
f 561 666 560
f 559 560 666
f 672 559 666
f 672 558 559
f 672 673 558
f 672 674 673
f 672 666 674
f 674 666 665
f 674 665 673
f 673 665 675
f 673 675 558
f 675 618 558
f 675 665 618
f 676 618 665
f 676 628 618
f 676 665 628
f 663 628 665
f 558 618 533
f 536 558 533
f 637 631 660
f 637 660 640
f 660 655 640
f 640 655 641
f 647 641 655
f 648 647 655
f 677 645 580
f 677 581 645
f 677 580 581
f 581 586 645
f 588 597 587
f 588 596 597
f 588 589 596
f 597 598 599
f 602 604 636
f 635 636 604
f 635 604 606
f 622 609 610
f 622 610 612
f 504 503 576
f 504 576 554
f 504 554 505
f 505 554 506
f 530 514 510
f 517 514 530
f 513 510 514
f 678 530 552
f 678 531 530
f 678 679 531
f 678 552 679
f 679 552 543
f 679 543 534
f 679 534 531
f 482 476 478
o convex_8
v 0.196262 -0.249532 -0.0356936
v 0.196262 -0.249532 -0.0713726
v 0.190295 -0.249532 -0.0237933
v 0.249748 -0.249812 -0.107052
v 0.190295 -0.249532 -0.0832619
v 0.178652 -0.249532 -0.0179869
v 0.355629 -0.368719 -0.0904065
v 0.353883 -0.359829 -0.0921872
v 0.362761 -0.350904 -0.101101
v 0.309275 -0.297389 -0.101101
v 0.273544 -0.2617 -0.101101
v 0.178361 -0.249532 -0.0892121
v 0.178579 -0.249532 -0.0891236
v 0.261683 -0.255762 -0.113002
v 0.258699 -0.258725 -0.120434
v 0.249748 -0.255762 -0.118952
v 0.24087 -0.254269 -0.115977
v -0.249748 -0.249812 -0.107052
v 0.178361 -0.249532 -0.0178541
v 0.362834 -0.368719 -0.0951954
v 0.178361 -0.249812 -0.0178541
v 0.178361 -0.321165 -0.0356936
v 0.178361 -0.368719 -0.0535331
v 0.365745 -0.365779 -0.0981263
v 0.368655 -0.368719 -0.101068
v 0.371712 -0.368719 -0.110049
v 0.368728 -0.362804 -0.113002
v 0.333071 -0.327115 -0.113002
v -0.179598 -0.249532 -0.0892121
v 0.369456 -0.368719 -0.120014
v 0.249748 -0.26765 -0.124891
v -0.24087 -0.258725 -0.120434
v 0.3672 -0.368719 -0.122635
v 0.356939 -0.368719 -0.130708
v 0.356794 -0.368719 -0.130808
v -0.249748 -0.255762 -0.118952
v -0.258699 -0.254269 -0.115977
v -0.261683 -0.255762 -0.107052
v -0.255716 -0.255762 -0.0951622
v -0.190295 -0.249532 -0.0237933
v -0.196262 -0.249532 -0.0356936
v -0.196262 -0.249532 -0.0725449
v -0.191678 -0.249532 -0.0846444
v -0.178361 -0.249532 -0.0178541
v 0.366327 -0.368719 -0.0975401
v -0.178361 -0.249812 -0.0178541
v -0.178361 -0.321165 -0.0356936
v -0.178361 -0.368719 -0.0535331
v 0.338965 -0.368719 -0.13083
v -0.249748 -0.26765 -0.124891
v -0.267577 -0.265422 -0.120434
v -0.273544 -0.2617 -0.107052
v -0.263138 -0.258725 -0.0981263
v -0.269833 -0.26765 -0.0936692
v -0.323392 -0.321165 -0.0936692
v -0.35905 -0.356854 -0.0936692
v -0.365453 -0.368719 -0.0946535
v -0.357594 -0.368719 -0.0907051
v -0.187311 -0.33009 -0.0401507
v -0.350827 -0.368719 -0.0892121
v -0.338965 -0.368719 -0.13083
v -0.356794 -0.368719 -0.130819
v -0.367418 -0.368719 -0.123962
v -0.285479 -0.28326 -0.120434
v -0.309275 -0.297389 -0.107052
v -0.362761 -0.350904 -0.107052
v -0.370184 -0.365779 -0.0981263
v -0.369747 -0.368719 -0.097153
v -0.368728 -0.368719 -0.121894
v -0.356794 -0.354625 -0.120434
v -0.321136 -0.318937 -0.120434
v -0.369601 -0.368719 -0.117968
v -0.371712 -0.368719 -0.107052
v -0.371712 -0.368719 -0.101068
f 680 681 684
f 680 684 692
f 680 692 691
f 680 691 708
f 680 708 722
f 680 722 721
f 680 721 720
f 680 720 719
f 680 719 723
f 680 723 698
f 680 698 685
f 680 685 682
f 680 682 683
f 680 683 681
f 681 683 684
f 682 685 686
f 682 686 687
f 682 687 688
f 682 688 689
f 682 689 690
f 682 690 683
f 683 691 692
f 683 692 684
f 683 690 693
f 683 693 694
f 683 694 695
f 683 695 696
f 683 696 716
f 683 716 697
f 683 697 708
f 683 708 691
f 685 698 686
f 686 699 687
f 686 698 700
f 686 700 701
f 686 701 702
f 686 702 727
f 686 727 739
f 686 739 737
f 686 737 736
f 686 736 747
f 686 747 753
f 686 753 752
f 686 752 751
f 686 751 748
f 686 748 742
f 686 742 741
f 686 741 740
f 686 740 728
f 686 728 714
f 686 714 713
f 686 713 712
f 686 712 709
f 686 709 705
f 686 705 704
f 686 704 724
f 686 724 699
f 687 699 688
f 688 699 703
f 688 703 704
f 688 704 705
f 688 705 706
f 688 706 707
f 688 707 689
f 689 707 693
f 689 693 690
f 693 707 709
f 693 709 694
f 694 710 729
f 694 729 711
f 694 711 715
f 694 715 695
f 694 709 712
f 694 712 713
f 694 713 714
f 694 714 710
f 695 715 716
f 695 716 696
f 697 716 717
f 697 717 718
f 697 718 719
f 697 719 720
f 697 720 721
f 697 721 722
f 697 722 708
f 698 723 725
f 698 725 700
f 699 724 703
f 700 725 726
f 700 726 701
f 701 726 727
f 701 727 702
f 703 724 704
f 705 709 706
f 706 709 707
f 710 714 728
f 710 728 740
f 710 740 729
f 711 729 715
f 715 729 730
f 715 730 716
f 716 730 731
f 716 731 717
f 717 732 718
f 717 731 732
f 718 732 719
f 719 732 733
f 719 733 734
f 719 734 735
f 719 735 736
f 719 736 737
f 719 737 723
f 723 737 725
f 725 737 726
f 726 737 738
f 726 738 727
f 727 738 739
f 729 740 741
f 729 741 730
f 730 741 742
f 730 742 743
f 730 743 731
f 731 733 732
f 731 743 744
f 731 744 733
f 733 744 734
f 734 744 745
f 734 745 735
f 735 745 746
f 735 746 747
f 735 747 736
f 737 739 738
f 742 748 745
f 742 745 749
f 742 749 750
f 742 750 743
f 743 750 745
f 743 745 744
f 745 748 751
f 745 751 752
f 745 752 753
f 745 753 746
f 745 750 749
f 746 753 747
o convex_9
v -0.33898 -0.392549 -0.249803
v -0.321155 -0.410396 -0.249803
v -0.353872 -0.389577 -0.246825
v -0.356806 -0.38066 -0.243847
v 0.33898 -0.392549 -0.249803
v -0.315213 -0.422299 -0.243847
v -0.344922 -0.416341 -0.237891
v -0.335973 -0.407424 -0.246825
v -0.249779 -0.446065 -0.249803
v -0.26467 -0.443092 -0.246825
v -0.362748 -0.398507 -0.237891
v -0.365755 -0.383632 -0.240869
v -0.365755 -0.379173 -0.240869
v -0.356806 -0.374715 -0.231955
v 0.356806 -0.38066 -0.243847
v 0.365755 -0.383632 -0.245327
v 0.35908 -0.392549 -0.245327
v 0.321155 -0.410396 -0.249803
v -0.309271 -0.434175 -0.237891
v -0.243837 -0.457967 -0.243847
v -0.333038 -0.422299 -0.225999
v -0.344922 -0.416341 -0.113011
v -0.321155 -0.428243 -0.231955
v -0.142678 -0.481759 -0.249803
v -0.362748 -0.398507 -0.113011
v -0.374705 -0.374715 -0.107074
v -0.368689 -0.386604 -0.225999
v -0.368689 -0.38066 -0.231955
v -0.371697 -0.368732 -0.107074
v -0.369643 -0.368732 -0.117987
v -0.368689 -0.368732 -0.121906
v -0.367369 -0.368732 -0.123981
v -0.356806 -0.368732 -0.13084
v 0.356806 -0.374715 -0.231955
v 0.368689 -0.38066 -0.237891
v 0.37023 -0.383632 -0.240869
v 0.362748 -0.398507 -0.231955
v 0.344922 -0.416341 -0.231955
v 0.341181 -0.410396 -0.245327
v 0.327096 -0.422299 -0.243847
v 0.249779 -0.446065 -0.249803
v -0.273546 -0.452022 -0.237891
v -0.249779 -0.463912 -0.231955
v -0.190287 -0.475814 -0.243847
v -0.333038 -0.422299 -0.101118
v -0.321155 -0.428243 -0.107074
v -0.136736 -0.493649 -0.243847
v 0.142678 -0.481759 -0.249803
v -0.368689 -0.386604 -0.101118
v -0.369716 -0.368732 -0.0971606
v -0.371697 -0.368732 -0.10108
v -0.365755 -0.383632 -0.0936832
v -0.368689 -0.374715 -0.0951817
v 0.33898 -0.368732 -0.13084
v 0.356806 -0.368732 -0.130821
v 0.356952 -0.368732 -0.130725
v 0.367222 -0.368732 -0.122655
v 0.369423 -0.368732 -0.120043
v 0.371697 -0.368732 -0.110052
v 0.374705 -0.374715 -0.107074
v 0.362748 -0.398507 -0.107074
v 0.344922 -0.416341 -0.107074
v 0.333038 -0.422299 -0.231955
v 0.334505 -0.419313 -0.240869
v 0.321155 -0.428243 -0.231955
v 0.255721 -0.457967 -0.243847
v -0.249779 -0.463912 -0.107074
v -0.142678 -0.499606 -0.231955
v -0.294379 -0.437148 -0.0936832
v -0.330031 -0.419313 -0.0936832
v -0.34793 -0.401479 -0.0936832
v -0.261662 -0.457967 -0.101118
v 0.14862 -0.493649 -0.243847
v 0.20217 -0.475814 -0.243847
v -0.365462 -0.368732 -0.0946822
v -0.356806 -0.374715 -0.0892259
v 0.368689 -0.368732 -0.10108
v 0.366342 -0.368732 -0.0975641
v 0.368689 -0.38066 -0.0951817
v 0.365755 -0.388091 -0.0981404
v 0.356806 -0.394778 -0.0936832
v 0.33898 -0.412626 -0.0936832
v 0.330031 -0.423785 -0.0981404
v 0.333038 -0.422299 -0.107074
v 0.321155 -0.428243 -0.107074
v 0.249779 -0.463912 -0.231955
v -0.142678 -0.499606 -0.107074
v -0.154635 -0.493649 -0.101118
v 0.142678 -0.499606 -0.231955
v -0.258655 -0.454995 -0.0936832
v -0.187352 -0.454995 -0.0758348
v -0.187352 -0.401479 -0.0580057
v -0.321155 -0.410396 -0.0892259
v -0.205178 -0.472829 -0.0936832
v -0.357539 -0.368732 -0.0907244
v -0.350864 -0.368732 -0.0892259
v -0.178403 -0.392549 -0.0535485
v -0.178403 -0.368732 -0.0535485
v 0.355632 -0.368732 -0.090417
v 0.356806 -0.374715 -0.0892259
v 0.321155 -0.410396 -0.0892259
v 0.178403 -0.446065 -0.0713776
v 0.303329 -0.430473 -0.0936832
v 0.294379 -0.441606 -0.0981404
v 0.249779 -0.463912 -0.107074
v -0.142678 -0.493649 -0.0951817
v -0.151628 -0.490676 -0.0936832
v 0.142678 -0.499606 -0.107074
v 0.151628 -0.495135 -0.0981404
v -0.196228 -0.463912 -0.08254
v -0.178403 -0.446065 -0.0713776
v -0.178403 -0.469857 -0.08327
v 0.178403 -0.469857 -0.08327
v 0.178403 -0.392549 -0.0535485
v 0.178403 -0.368732 -0.0535485
v 0.267604 -0.448307 -0.0936832
v 0.258655 -0.459453 -0.0981404
v 0.205178 -0.477301 -0.0981404
v 0.142678 -0.493649 -0.0951817
v 0.142678 -0.481759 -0.0892259
f 754 755 756
f 754 756 757
f 754 757 768
f 754 768 758
f 754 758 771
f 754 771 794
f 754 794 801
f 754 801 777
f 754 777 762
f 754 762 755
f 755 759 760
f 755 760 761
f 755 761 756
f 755 762 763
f 755 763 759
f 756 761 760
f 756 760 764
f 756 764 765
f 756 765 766
f 756 766 757
f 757 766 767
f 757 767 787
f 757 787 768
f 758 768 769
f 758 769 770
f 758 770 771
f 759 772 760
f 759 763 773
f 759 773 772
f 760 774 798
f 760 798 775
f 760 775 778
f 760 778 764
f 760 772 776
f 760 776 774
f 762 773 763
f 762 777 797
f 762 797 773
f 764 778 779
f 764 779 780
f 764 780 765
f 765 780 781
f 765 781 766
f 766 781 782
f 766 782 783
f 766 783 784
f 766 784 767
f 767 784 785
f 767 785 786
f 767 786 807
f 767 807 787
f 768 787 769
f 769 787 788
f 769 788 789
f 769 789 770
f 770 789 790
f 770 790 791
f 770 791 792
f 770 792 771
f 771 792 793
f 771 793 819
f 771 819 794
f 772 773 795
f 772 795 796
f 772 796 776
f 773 797 821
f 773 821 796
f 773 796 795
f 774 776 799
f 774 799 798
f 775 798 778
f 776 796 820
f 776 820 799
f 777 800 797
f 777 801 826
f 777 826 800
f 778 802 779
f 778 798 802
f 779 803 804
f 779 804 782
f 779 782 781
f 779 781 780
f 779 802 805
f 779 805 806
f 779 806 803
f 782 804 803
f 782 803 828
f 782 828 848
f 782 848 849
f 782 849 851
f 782 851 868
f 782 868 852
f 782 852 831
f 782 831 830
f 782 830 812
f 782 812 811
f 782 811 810
f 782 810 809
f 782 809 808
f 782 808 807
f 782 807 786
f 782 786 785
f 782 785 784
f 782 784 783
f 787 807 808
f 787 808 809
f 787 809 810
f 787 810 811
f 787 811 788
f 788 811 812
f 788 812 789
f 789 812 813
f 789 813 814
f 789 814 790
f 790 814 815
f 790 815 791
f 791 815 837
f 791 837 816
f 791 816 793
f 791 793 817
f 791 817 792
f 792 817 793
f 793 816 818
f 793 818 839
f 793 839 819
f 794 819 827
f 794 827 801
f 796 821 840
f 796 840 820
f 797 800 821
f 798 822 823
f 798 823 824
f 798 824 805
f 798 805 802
f 798 799 820
f 798 820 825
f 798 825 822
f 800 826 842
f 800 842 821
f 801 827 826
f 803 806 828
f 805 824 829
f 805 829 806
f 806 829 828
f 812 830 813
f 813 830 831
f 813 831 832
f 813 832 833
f 813 833 814
f 814 834 835
f 814 835 815
f 814 833 834
f 815 835 836
f 815 836 837
f 816 837 838
f 816 838 818
f 818 838 858
f 818 858 839
f 819 839 842
f 819 842 827
f 820 840 841
f 820 841 825
f 821 842 861
f 821 861 840
f 822 825 843
f 822 843 844
f 822 844 823
f 823 844 845
f 823 845 846
f 823 846 824
f 824 846 829
f 825 847 843
f 825 841 847
f 826 827 842
f 828 829 848
f 829 849 848
f 829 846 850
f 829 850 851
f 829 851 849
f 831 852 832
f 832 852 853
f 832 853 834
f 832 834 833
f 834 853 835
f 835 853 854
f 835 854 855
f 835 855 856
f 835 856 836
f 836 856 857
f 836 857 838
f 836 838 837
f 838 857 858
f 839 858 861
f 839 861 842
f 840 859 860
f 840 860 841
f 840 861 862
f 840 862 859
f 841 860 847
f 843 847 863
f 843 863 844
f 844 864 850
f 844 850 845
f 844 863 865
f 844 865 860
f 844 860 866
f 844 866 855
f 844 855 864
f 845 850 846
f 847 860 863
f 850 864 855
f 850 855 867
f 850 867 868
f 850 868 851
f 852 868 853
f 853 867 854
f 853 868 867
f 854 867 855
f 855 866 869
f 855 869 856
f 856 869 870
f 856 870 857
f 857 870 858
f 858 870 871
f 858 871 861
f 859 862 872
f 859 872 860
f 860 865 863
f 860 872 873
f 860 873 866
f 861 871 862
f 862 871 866
f 862 866 872
f 866 873 872
f 866 871 870
f 866 870 869
o convex_10
v 0.374705 0.481749 -0.410388
v 0.374705 0.356876 -0.410388
v 0.374705 0.481749 -0.486156
v 0.370288 0.490583 -0.486156
v 0.368753 0.493649 -0.416327
v 0.365777 0.490678 -0.40145
v 0.344965 0.487707 -0.333081
v 0.35685 0.481749 -0.356877
v 0.35685 0.356876 -0.356877
v 0.368753 0.350918 -0.39849
v 0.365777 0.343483 -0.40145
v 0.368753 0.344976 -0.410388
v 0.374705 0.356876 -0.486156
v 0.368753 0.493649 -0.486156
v 0.365684 0.495189 -0.486156
v 0.35685 0.499591 -0.410388
v 0.339013 0.499591 -0.356877
v 0.350898 0.493649 -0.362816
v 0.344965 0.362817 -0.333081
v 0.336037 0.49662 -0.341999
v 0.318201 0.49662 -0.306325
v 0.32711 0.487707 -0.297386
v 0.350898 0.350918 -0.344979
v 0.35685 0.339019 -0.410388
v 0.365815 0.343499 -0.486156
v 0.347922 0.343483 -0.347958
v 0.339013 0.339019 -0.356877
v 0.368753 0.344976 -0.486156
v 0.35685 0.499591 -0.486156
v 0.321158 0.499591 -0.321182
v 0.333061 0.350918 -0.309284
v 0.285485 0.499591 -0.279123
v 0.298474 0.494749 -0.279123
v 0.308394 0.488147 -0.279123
v 0.309273 0.487707 -0.279549
v 0.309049 0.487487 -0.279123
v 0.32711 0.362817 -0.297386
v 0.35685 0.339019 -0.486156
v 0.330086 0.343483 -0.312264
v 0.321158 0.339019 -0.321182
v 0.303322 0.499591 -0.486156
v 0.303322 0.349708 -0.279123
v 0.301188 0.345448 -0.279123
v 0.214121 0.499591 -0.279123
v 0.309049 0.362597 -0.279123
v 0.303322 0.339019 -0.486156
v 0.312249 0.343483 -0.294427
v 0.285485 0.339019 -0.279123
v 0.300383 0.498129 -0.486156
v 0.276576 0.495142 -0.454981
v 0.189902 0.494498 -0.279123
v 0.285485 0.499591 -0.446063
v 0.214121 0.499591 -0.285508
v 0.291437 0.344976 -0.486156
v 0.285485 0.339019 -0.446063
v 0.198568 0.341314 -0.279123
v 0.214121 0.339019 -0.279123
v 0.291437 0.493649 -0.486156
v 0.2736 0.487707 -0.457961
v 0.18352 0.486827 -0.279123
v 0.184175 0.487895 -0.279123
v 0.18483 0.488807 -0.279123
v 0.279533 0.350918 -0.469859
v 0.287694 0.352459 -0.486156
v 0.187862 0.34845 -0.279123
v 0.190333 0.350918 -0.291447
v 0.214121 0.339019 -0.285508
v 0.289958 0.490709 -0.486156
v 0.285485 0.481749 -0.486156
v 0.18352 0.361937 -0.279123
v 0.285485 0.356876 -0.486156
f 874 875 886
f 874 886 876
f 874 876 877
f 874 877 878
f 874 878 879
f 874 879 880
f 874 880 881
f 874 881 882
f 874 882 875
f 875 882 896
f 875 896 883
f 875 883 884
f 875 884 885
f 875 885 901
f 875 901 886
f 876 886 901
f 876 901 898
f 876 898 911
f 876 911 919
f 876 919 927
f 876 927 937
f 876 937 944
f 876 944 942
f 876 942 941
f 876 941 931
f 876 931 922
f 876 922 914
f 876 914 902
f 876 902 888
f 876 888 887
f 876 887 877
f 877 887 878
f 878 887 888
f 878 888 889
f 878 889 890
f 878 890 891
f 878 891 880
f 878 880 879
f 880 892 882
f 880 882 881
f 880 891 890
f 880 890 893
f 880 893 894
f 880 894 895
f 880 895 910
f 880 910 904
f 880 904 892
f 882 892 896
f 883 896 884
f 884 897 898
f 884 898 885
f 884 896 899
f 884 899 900
f 884 900 897
f 885 898 901
f 888 902 889
f 889 902 914
f 889 914 925
f 889 925 926
f 889 926 917
f 889 917 905
f 889 905 903
f 889 903 890
f 890 903 894
f 890 894 893
f 892 904 896
f 894 903 905
f 894 905 906
f 894 906 895
f 895 906 907
f 895 907 908
f 895 908 909
f 895 909 918
f 895 918 910
f 896 904 912
f 896 912 899
f 897 911 898
f 897 900 913
f 897 913 921
f 897 921 930
f 897 930 940
f 897 940 928
f 897 928 919
f 897 919 911
f 899 912 900
f 900 912 913
f 904 910 915
f 904 915 916
f 904 916 912
f 905 917 924
f 905 924 935
f 905 935 934
f 905 934 933
f 905 933 943
f 905 943 938
f 905 938 929
f 905 929 930
f 905 930 921
f 905 921 916
f 905 916 915
f 905 915 918
f 905 918 909
f 905 909 907
f 905 907 906
f 907 909 908
f 910 918 915
f 912 916 920
f 912 920 921
f 912 921 913
f 914 922 923
f 914 923 924
f 914 924 925
f 916 921 920
f 917 926 924
f 919 928 929
f 919 929 927
f 922 931 923
f 923 931 932
f 923 932 933
f 923 933 934
f 923 934 935
f 923 935 924
f 924 926 925
f 927 936 937
f 927 929 938
f 927 938 939
f 927 939 936
f 928 940 929
f 929 940 930
f 931 941 932
f 932 941 942
f 932 942 933
f 933 942 944
f 933 944 943
f 936 944 937
f 936 939 944
f 938 943 939
f 939 943 944
o convex_11
v 0.243862 0.339019 -0.666137
v 0.223791 0.343483 -0.666137
v 0.315232 0.339019 -0.666137
v 0.249811 0.339019 -0.642338
v 0.221853 0.34735 -0.666137
v 0.285504 0.339019 -0.535306
v 0.30332 0.339019 -0.486176
v 0.273606 0.344976 -0.529352
v 0.321908 0.340512 -0.666137
v 0.321166 0.339019 -0.660182
v 0.220067 0.356876 -0.666137
v 0.285504 0.356876 -0.486176
v 0.356858 0.339019 -0.486176
v 0.291437 0.344976 -0.486176
v 0.287698 0.352459 -0.486176
v 0.329839 0.344473 -0.666137
v 0.341237 0.343483 -0.642338
v 0.339012 0.339019 -0.624493
v 0.220067 0.481749 -0.666137
v 0.285504 0.481749 -0.486176
v 0.368756 0.344976 -0.486176
v 0.356858 0.339019 -0.570995
v 0.334047 0.346957 -0.666137
v 0.352393 0.347947 -0.633424
v 0.35091 0.344976 -0.624493
v 0.222308 0.492171 -0.666137
v 0.272108 0.490678 -0.526375
v 0.289969 0.490709 -0.486176
v 0.374705 0.356876 -0.486176
v 0.368756 0.344976 -0.570995
v 0.336045 0.350934 -0.666137
v 0.35091 0.356876 -0.636401
v 0.356858 0.356876 -0.624493
v 0.374705 0.356876 -0.570995
v 0.370239 0.347947 -0.579891
v 0.223791 0.495142 -0.666137
v 0.291437 0.493649 -0.486176
v 0.374705 0.481749 -0.486176
v 0.336045 0.481749 -0.666137
v 0.35091 0.481749 -0.636401
v 0.356858 0.481749 -0.624493
v 0.374705 0.481749 -0.570995
v 0.249811 0.499591 -0.642338
v 0.243862 0.499591 -0.666137
v 0.300383 0.498129 -0.486176
v 0.30332 0.499591 -0.486176
v 0.285504 0.499591 -0.535306
v 0.368756 0.493649 -0.486176
v 0.333063 0.493633 -0.666137
v 0.35091 0.493649 -0.630447
v 0.368756 0.493649 -0.576914
v 0.315232 0.499591 -0.666137
v 0.356858 0.499591 -0.486176
v 0.365683 0.495189 -0.486176
v 0.321166 0.49827 -0.666137
v 0.321166 0.499591 -0.660182
v 0.339012 0.499591 -0.624493
v 0.356858 0.499591 -0.570995
f 945 946 949
f 945 949 955
f 945 955 963
f 945 963 970
f 945 970 980
f 945 980 988
f 945 988 996
f 945 996 999
f 945 999 993
f 945 993 983
f 945 983 975
f 945 975 967
f 945 967 960
f 945 960 953
f 945 953 947
f 945 947 954
f 945 954 962
f 945 962 966
f 945 966 957
f 945 957 951
f 945 951 950
f 945 950 948
f 945 948 946
f 946 948 950
f 946 950 951
f 946 951 952
f 946 952 949
f 947 953 954
f 949 952 956
f 949 956 955
f 951 957 965
f 951 965 973
f 951 973 982
f 951 982 992
f 951 992 998
f 951 998 997
f 951 997 990
f 951 990 989
f 951 989 981
f 951 981 972
f 951 972 964
f 951 964 956
f 951 956 959
f 951 959 958
f 951 958 952
f 952 958 959
f 952 959 956
f 953 960 961
f 953 961 954
f 954 961 962
f 955 956 964
f 955 964 963
f 957 966 974
f 957 974 965
f 960 967 961
f 961 967 968
f 961 968 969
f 961 969 962
f 962 969 974
f 962 974 966
f 963 964 971
f 963 971 970
f 964 972 971
f 965 974 978
f 965 978 973
f 967 975 968
f 968 975 976
f 968 976 977
f 968 977 978
f 968 978 979
f 968 979 974
f 968 974 969
f 970 971 980
f 971 972 981
f 971 981 980
f 973 978 986
f 973 986 982
f 974 979 978
f 975 983 984
f 975 984 976
f 976 984 985
f 976 985 977
f 977 985 986
f 977 986 978
f 980 987 988
f 980 981 989
f 980 989 990
f 980 990 991
f 980 991 987
f 982 986 995
f 982 995 992
f 983 993 994
f 983 994 984
f 984 994 985
f 985 994 986
f 986 994 995
f 987 991 990
f 987 990 997
f 987 997 1002
f 987 1002 1001
f 987 1001 1000
f 987 1000 996
f 987 996 988
f 992 995 998
f 993 999 1000
f 993 1000 994
f 994 1000 1001
f 994 1001 1002
f 994 1002 995
f 995 1002 998
f 996 1000 999
f 997 998 1002
o convex_12
v 0.000272155 -0.118025 0.253893
v 0.000272155 -0.214116 0.28549
v 0.000272155 -0.118025 0.406424
v 0.0576395 -0.118025 0.253893
v 0.000272155 -0.226005 0.291458
v 0.0535402 -0.214116 0.28549
v 0.000272155 -0.130694 0.398697
v 0.0590208 -0.118025 0.481353
v 0.0606917 -0.118025 0.255029
v 0.0594886 -0.226005 0.291458
v 0.000272155 -0.231681 0.302792
v 0.000272155 -0.184372 0.362824
v 0.0594886 -0.118962 0.481353
v 0.0591767 -0.118348 0.481353
v 0.22787 -0.118025 0.481353
v 0.096382 -0.118025 0.272865
v 0.0535402 -0.231949 0.303349
v 0.0951789 -0.226005 0.309294
v 0.000272155 -0.231949 0.303349
v 0.000272155 -0.226005 0.333075
v 0.148692 -0.226005 0.481353
v 0.196257 -0.214116 0.481353
v 0.22787 -0.118025 0.446059
v 0.13205 -0.118025 0.290701
v 0.0892305 -0.231949 0.321185
v 0.10262 -0.223038 0.312256
v 0.109304 -0.227499 0.321185
v 0.000272155 -0.231949 0.321185
v 0.160567 -0.231949 0.481353
v 0.190308 -0.226005 0.481353
v 0.191801 -0.223038 0.437152
v 0.196257 -0.214116 0.446059
v 0.210025 -0.118025 0.392529
v 0.146175 -0.118025 0.298517
v 0.107076 -0.231949 0.339021
v 0.113024 -0.214116 0.315239
v 0.162817 -0.227499 0.374693
v 0.178412 -0.231949 0.481353
v 0.190063 -0.226138 0.481353
v 0.190308 -0.226005 0.446059
v 0.173956 -0.223038 0.383622
v 0.204522 -0.118025 0.379525
v 0.181865 -0.118025 0.334189
v 0.142744 -0.231949 0.374693
v 0.166515 -0.214116 0.368747
v 0.172463 -0.226005 0.392529
v 0.160567 -0.231949 0.392529
v 0.178412 -0.231949 0.446059
v 0.19971 -0.118025 0.369861
f 1003 1004 1007
f 1003 1007 1013
f 1003 1013 1021
f 1003 1021 1030
f 1003 1030 1022
f 1003 1022 1014
f 1003 1014 1009
f 1003 1009 1005
f 1003 1005 1010
f 1003 1010 1017
f 1003 1017 1025
f 1003 1025 1035
f 1003 1035 1044
f 1003 1044 1051
f 1003 1051 1045
f 1003 1045 1036
f 1003 1036 1026
f 1003 1026 1018
f 1003 1018 1011
f 1003 1011 1006
f 1003 1006 1008
f 1003 1008 1004
f 1004 1008 1012
f 1004 1012 1007
f 1005 1009 1010
f 1006 1011 1012
f 1006 1012 1008
f 1007 1012 1013
f 1009 1014 1015
f 1009 1015 1016
f 1009 1016 1010
f 1010 1016 1015
f 1010 1015 1023
f 1010 1023 1031
f 1010 1031 1040
f 1010 1040 1041
f 1010 1041 1032
f 1010 1032 1024
f 1010 1024 1017
f 1011 1018 1020
f 1011 1020 1012
f 1012 1019 1013
f 1012 1020 1027
f 1012 1027 1019
f 1013 1019 1021
f 1014 1022 1015
f 1015 1022 1023
f 1017 1024 1034
f 1017 1034 1025
f 1018 1026 1020
f 1019 1027 1037
f 1019 1037 1046
f 1019 1046 1049
f 1019 1049 1050
f 1019 1050 1040
f 1019 1040 1031
f 1019 1031 1030
f 1019 1030 1021
f 1020 1026 1028
f 1020 1028 1029
f 1020 1029 1027
f 1022 1030 1031
f 1022 1031 1023
f 1024 1032 1033
f 1024 1033 1034
f 1025 1034 1033
f 1025 1033 1043
f 1025 1043 1035
f 1026 1036 1028
f 1027 1029 1037
f 1028 1036 1038
f 1028 1038 1029
f 1029 1038 1039
f 1029 1039 1037
f 1032 1041 1042
f 1032 1042 1033
f 1033 1042 1048
f 1033 1048 1043
f 1035 1043 1044
f 1036 1045 1038
f 1037 1039 1046
f 1038 1045 1047
f 1038 1047 1039
f 1039 1047 1043
f 1039 1043 1048
f 1039 1048 1049
f 1039 1049 1046
f 1040 1050 1041
f 1041 1050 1042
f 1042 1050 1049
f 1042 1049 1048
f 1043 1047 1045
f 1043 1045 1051
f 1043 1051 1044
o convex_13
v -0.0494609 -0.118025 0.253915
v -0.0535476 -0.214116 0.28549
v -0.0762145 -0.118025 0.262833
v 0.000272155 -0.118025 0.253915
v -0.047585 -0.226005 0.291457
v -0.062458 -0.223038 0.294429
v -0.0773311 -0.22006 0.297402
v 0.000272155 -0.214116 0.28549
v -0.111901 -0.118025 0.280667
v 0.000272155 -0.118025 0.406437
v -0.0535476 -0.231949 0.303346
v 0.000272155 -0.226005 0.291457
v 0.000272155 -0.231681 0.302796
v -0.0684206 -0.228982 0.306319
v -0.0981444 -0.223038 0.312264
v -0.113017 -0.22006 0.315236
v -0.147565 -0.118025 0.298502
v -0.0590189 -0.118025 0.478833
v 0.000272155 -0.130694 0.398708
v -0.0892339 -0.231949 0.321181
v 0.000272155 -0.231949 0.303346
v -0.104107 -0.228982 0.324154
v -0.166525 -0.22006 0.368741
v -0.183251 -0.118025 0.334194
v -0.0594879 -0.118962 0.478833
v -0.22787 -0.118025 0.478833
v 0.000272155 -0.184372 0.362818
v -0.142741 -0.231949 0.374686
v 0.000272155 -0.231949 0.321181
v -0.157592 -0.228982 0.377659
v -0.160584 -0.231949 0.392543
v -0.169495 -0.223038 0.383626
v -0.184368 -0.22006 0.422268
v -0.178427 -0.214116 0.392543
v -0.201094 -0.118025 0.369864
v -0.148681 -0.226005 0.478833
v 0.000272155 -0.226005 0.333071
v -0.22787 -0.118025 0.450165
v -0.196271 -0.214116 0.478833
v -0.160584 -0.231949 0.478833
v -0.178427 -0.231949 0.44607
v -0.172465 -0.226005 0.398488
v -0.187338 -0.223038 0.437153
v -0.196271 -0.214116 0.44607
v -0.210027 -0.118025 0.396617
v -0.150624 -0.226986 0.478833
v -0.190308 -0.226005 0.478833
v -0.178427 -0.231949 0.478833
v -0.181353 -0.230488 0.478833
v -0.190308 -0.226005 0.452015
f 1052 1053 1054
f 1052 1054 1060
f 1052 1060 1068
f 1052 1068 1075
f 1052 1075 1086
f 1052 1086 1096
f 1052 1096 1089
f 1052 1089 1077
f 1052 1077 1069
f 1052 1069 1061
f 1052 1061 1055
f 1052 1055 1059
f 1052 1059 1053
f 1053 1056 1057
f 1053 1057 1058
f 1053 1058 1054
f 1053 1059 1063
f 1053 1063 1056
f 1054 1058 1067
f 1054 1067 1060
f 1055 1061 1070
f 1055 1070 1078
f 1055 1078 1088
f 1055 1088 1080
f 1055 1080 1072
f 1055 1072 1064
f 1055 1064 1063
f 1055 1063 1059
f 1056 1062 1065
f 1056 1065 1057
f 1056 1063 1064
f 1056 1064 1062
f 1057 1065 1073
f 1057 1073 1066
f 1057 1066 1067
f 1057 1067 1058
f 1060 1067 1068
f 1061 1069 1070
f 1062 1071 1073
f 1062 1073 1065
f 1062 1064 1072
f 1062 1072 1080
f 1062 1080 1091
f 1062 1091 1099
f 1062 1099 1092
f 1062 1092 1082
f 1062 1082 1079
f 1062 1079 1071
f 1066 1073 1067
f 1067 1073 1074
f 1067 1074 1068
f 1068 1074 1075
f 1069 1076 1070
f 1069 1077 1090
f 1069 1090 1098
f 1069 1098 1100
f 1069 1100 1099
f 1069 1099 1091
f 1069 1091 1097
f 1069 1097 1087
f 1069 1087 1076
f 1070 1076 1078
f 1071 1079 1073
f 1073 1079 1081
f 1073 1081 1074
f 1074 1082 1083
f 1074 1083 1094
f 1074 1094 1084
f 1074 1084 1095
f 1074 1095 1085
f 1074 1085 1086
f 1074 1086 1075
f 1074 1081 1082
f 1076 1087 1088
f 1076 1088 1078
f 1077 1089 1095
f 1077 1095 1090
f 1079 1082 1081
f 1080 1088 1091
f 1082 1092 1101
f 1082 1101 1093
f 1082 1093 1083
f 1083 1093 1101
f 1083 1101 1094
f 1084 1094 1095
f 1085 1095 1096
f 1085 1096 1086
f 1087 1097 1088
f 1088 1097 1091
f 1089 1096 1095
f 1090 1095 1101
f 1090 1101 1098
f 1092 1099 1100
f 1092 1100 1101
f 1094 1101 1095
f 1098 1101 1100
o convex_14
v 0.22787 -0.118025 0.517471
v 0.196257 -0.214116 0.499624
v 0.22787 -0.118025 0.481375
v 0.226244 -0.118025 0.5296
v 0.190308 -0.22006 0.511507
v 0.187345 -0.227499 0.508536
v 0.190308 -0.226005 0.499624
v 0.196257 -0.214116 0.481375
v 0.0590208 -0.118025 0.481375
v 0.208399 -0.118025 0.58314
v 0.172463 -0.22006 0.565048
v 0.178412 -0.231949 0.499624
v 0.178412 -0.231949 0.481375
v 0.190063 -0.226138 0.481375
v 0.1695 -0.227499 0.562077
v 0.190308 -0.226005 0.481375
v 0.000272155 -0.118025 0.539383
v 0.0591767 -0.118348 0.481375
v 0.172708 -0.118025 0.636636
v 0.154618 -0.22006 0.600697
v 0.160567 -0.231949 0.553142
v 0.160567 -0.231949 0.481375
v 0.151655 -0.227499 0.597726
v 0.142744 -0.231949 0.588836
v 0.000272155 -0.118025 0.709565
v 0.0594886 -0.118962 0.481375
v 0.000272155 -0.130851 0.547201
v 0.154886 -0.118025 0.654483
v 0.136795 -0.22006 0.618544
v 0.148692 -0.226005 0.481375
v 0.000272155 -0.231949 0.642332
v 0.13381 -0.227499 0.615573
v 0.124899 -0.231949 0.606661
v 0.000272155 -0.21425 0.677892
v 0.0121466 -0.118025 0.708002
v 0.000272155 -0.190316 0.594778
v 0.0835272 -0.118025 0.690177
v 0.0832822 -0.22006 0.654238
v 0.000272155 -0.231681 0.641796
v 0.000272155 -0.226005 0.630449
v 0.0713854 -0.231949 0.642332
v 0.000272155 -0.231849 0.660179
v 0.0802968 -0.227499 0.651267
v 0.000272155 -0.225871 0.672085
v 0.00893853 -0.227499 0.669114
v 0.0713854 -0.214116 0.660179
v 0.000272155 -0.231815 0.660447
v 0.000272155 -0.226049 0.671995
f 1102 1103 1109
f 1102 1109 1104
f 1102 1104 1110
f 1102 1110 1118
f 1102 1118 1126
f 1102 1126 1136
f 1102 1136 1138
f 1102 1138 1129
f 1102 1129 1120
f 1102 1120 1111
f 1102 1111 1105
f 1102 1105 1103
f 1103 1106 1107
f 1103 1107 1108
f 1103 1108 1117
f 1103 1117 1109
f 1103 1105 1106
f 1104 1109 1117
f 1104 1117 1115
f 1104 1115 1114
f 1104 1114 1123
f 1104 1123 1131
f 1104 1131 1127
f 1104 1127 1119
f 1104 1119 1110
f 1105 1111 1112
f 1105 1112 1106
f 1106 1112 1116
f 1106 1116 1107
f 1107 1113 1114
f 1107 1114 1115
f 1107 1115 1108
f 1107 1116 1113
f 1108 1115 1117
f 1110 1119 1118
f 1111 1120 1121
f 1111 1121 1112
f 1112 1121 1124
f 1112 1124 1116
f 1113 1116 1122
f 1113 1122 1125
f 1113 1125 1134
f 1113 1134 1142
f 1113 1142 1132
f 1113 1132 1123
f 1113 1123 1114
f 1116 1124 1125
f 1116 1125 1122
f 1118 1119 1127
f 1118 1127 1128
f 1118 1128 1137
f 1118 1137 1141
f 1118 1141 1140
f 1118 1140 1132
f 1118 1132 1143
f 1118 1143 1148
f 1118 1148 1149
f 1118 1149 1145
f 1118 1145 1135
f 1118 1135 1126
f 1120 1129 1130
f 1120 1130 1121
f 1121 1130 1124
f 1123 1132 1131
f 1124 1130 1133
f 1124 1133 1125
f 1125 1133 1134
f 1126 1135 1136
f 1127 1131 1128
f 1128 1131 1137
f 1129 1138 1139
f 1129 1139 1130
f 1130 1139 1144
f 1130 1144 1133
f 1131 1132 1140
f 1131 1140 1141
f 1131 1141 1137
f 1132 1142 1143
f 1133 1144 1134
f 1134 1144 1142
f 1135 1138 1136
f 1135 1145 1146
f 1135 1146 1147
f 1135 1147 1138
f 1138 1147 1139
f 1139 1147 1146
f 1139 1146 1144
f 1142 1144 1146
f 1142 1146 1148
f 1142 1148 1143
f 1145 1149 1146
f 1146 1149 1148
