# https://github.com/mikedh/trimesh
v -0.11638700 0.34373400 -0.12716700
v -0.14812500 0.34373400 -0.12716700
v -0.11354200 0.34300800 -0.12716700
v -0.17020300 0.28470500 -0.32325400
v -0.17984600 0.28564600 -0.32325400
v -0.15806600 0.34247000 -0.12716700
v -0.20101000 0.28564600 -0.32325400
v -0.10644600 0.33875700 -0.12716700
v -0.15541400 0.27835500 -0.32325400
v -0.18005600 0.33843400 -0.12716700
v -0.21511400 0.27859700 -0.32325400
v -0.21687000 0.28298300 -0.30150800
v -0.18513200 0.33590500 -0.13225400
v -0.10537500 0.33811100 -0.12716700
v -0.10051000 0.33324100 -0.12960500
v -0.14459500 0.26799700 -0.32325400
v -0.18683600 0.33504400 -0.12716700
v -0.22215700 0.27902800 -0.30680500
v -0.22726800 0.26721700 -0.32325400
v -0.22746100 0.27240900 -0.31208400
v -0.19387900 0.33141200 -0.12716700
v -0.09480130 0.32753700 -0.12716700
v -0.08993610 0.32266800 -0.12960500
v -0.14340100 0.26562900 -0.32325400
v -0.22568700 0.27859700 -0.29622900
v -0.22960400 0.26310000 -0.32325400
v -0.23009600 0.26579100 -0.31738100
v -0.22921800 0.27152100 -0.30680500
v -0.21511400 0.31031800 -0.13755100
v -0.20447000 0.32091900 -0.12716700
v -0.08993610 0.32266800 -0.12716700
v -0.08703810 0.31836300 -0.12716700
v -0.08647600 0.31736700 -0.12716700
v -0.13755200 0.25389900 -0.32325400
v -0.14106500 0.26094800 -0.32325400
v -0.22568700 0.29974500 -0.13755100
v -0.23157100 0.25919900 -0.32325400
v -0.23274800 0.26447200 -0.30680500
v -0.23627800 0.27859700 -0.14812700
v -0.21511400 0.31031800 -0.12716700
v -0.08017060 0.29907200 -0.12716700
v -0.07946800 0.29622000 -0.12716700
v -0.07447990 0.25389900 -0.12716700
v -0.13755200 0.21157700 -0.32325400
v -0.22575800 0.29961000 -0.12716700
v -0.22568700 0.29974500 -0.12716700
v -0.23274800 0.25389900 -0.32325400
v -0.24332100 0.24332500 -0.28563400
v -0.24332100 0.26447200 -0.14812700
v -0.23627800 0.27859700 -0.12716700
v -0.22928800 0.29256100 -0.12716700
v -0.07447990 0.25325300 -0.12716700
v -0.07662270 0.23842800 -0.12716700
v -0.07946800 0.22215100 -0.12716700
v -0.09522280 0.19045700 -0.15870300
v -0.09787500 0.18515700 -0.16400100
v -0.10184400 0.17985600 -0.16927900
v -0.10844800 0.15340900 -0.15340600
v -0.13950100 0.20767600 -0.32325400
v -0.23274800 0.22215100 -0.32325400
v -0.24332100 0.22215100 -0.28563400
v -0.25391200 0.21157700 -0.16927900
v -0.25391200 0.22215100 -0.15870300
v -0.25391200 0.23253600 -0.12716700
v -0.25126000 0.24442800 -0.12716700
v -0.25115500 0.24469700 -0.12716700
v -0.24332100 0.26447200 -0.12716700
v -0.10591900 0.14792000 -0.12716700
v -0.10844800 0.14283500 -0.13225400
v -0.15077700 0.18515700 -0.32267900
v -0.14459500 0.19750600 -0.32325400
v -0.11902200 0.12168800 -0.13225400
v -0.23157100 0.21276100 -0.32325400
v -0.23274800 0.21157700 -0.31738100
v -0.22746100 0.19573000 -0.32267900
v -0.23274800 0.20103000 -0.30680500
v -0.24332100 0.19045700 -0.24333000
v -0.25391200 0.19045700 -0.16927900
v -0.25391200 0.17985600 -0.12716700
v -0.10929100 0.14114000 -0.12716700
v -0.15713500 0.17829600 -0.32325400
v -0.15163800 0.18459200 -0.32325400
v -0.15091800 0.18572200 -0.32325400
v -0.15518600 0.17633200 -0.31738100
v -0.11649300 0.12674600 -0.12716700
v -0.11988300 0.11999300 -0.12716700
v -0.12350100 0.11294400 -0.12716700
v -0.13490000 0.10051400 -0.13225400
v -0.22716300 0.19602600 -0.32325400
v -0.21393700 0.17751600 -0.32325400
v -0.21511400 0.17633200 -0.32091300
v -0.21687000 0.12168800 -0.23803300
v -0.22746100 0.17458300 -0.29093200
v -0.23274800 0.17985600 -0.27505800
v -0.24332100 0.16928300 -0.21160200
v -0.25391200 0.17985600 -0.14812700
v -0.25386000 0.16933600 -0.12716700
v -0.16207100 0.17428700 -0.32325400
v -0.17631500 0.10228900 -0.21160200
v -0.17719300 0.12168800 -0.24860900
v -0.13616400 0.09798460 -0.12716700
v -0.15518600 0.09171580 -0.14812700
v -0.16574200 0.09171580 -0.16927900
v -0.20071100 0.16957900 -0.32325400
v -0.20629700 0.16400900 -0.31208400
v -0.20629700 0.10051400 -0.21690000
v -0.21511400 0.11286300 -0.22569100
v -0.21687000 0.11108700 -0.21690000
v -0.23803500 0.16400900 -0.22745700
v -0.23803500 0.15340900 -0.20630500
v -0.24332100 0.15870900 -0.19045000
v -0.24332100 0.13756200 -0.13755100
v -0.24058100 0.12674600 -0.12716700
v -0.16911400 0.16957900 -0.32325400
v -0.17719300 0.08994000 -0.18515300
v -0.18249800 0.10051400 -0.21690000
v -0.18690600 0.09876480 -0.21866600
v -0.16788500 0.07681040 -0.12716700
v -0.16574200 0.08111520 -0.13755100
v -0.17852800 0.08730340 -0.17985500
v -0.19628500 0.16809900 -0.32325400
v -0.19394900 0.12343700 -0.25743800
v -0.20276600 0.10403800 -0.22394400
v -0.19394900 0.10228900 -0.22569100
v -0.20629700 0.08994000 -0.19572900
v -0.21511400 0.10228900 -0.20455800
v -0.19394900 0.16575800 -0.32091300
v -0.22746100 0.11108700 -0.16400100
v -0.23803500 0.12168800 -0.13225400
v -0.23482000 0.11431600 -0.12716700
v -0.17571800 0.16809900 -0.32325400
v -0.18910200 0.08730340 -0.19045000
v -0.19041900 0.09524030 -0.21160200
v -0.18219900 0.16694200 -0.32325400
v -0.16804300 0.07672970 -0.12716700
v -0.17852800 0.07670280 -0.14812700
v -0.19279000 0.16694200 -0.32325400
v -0.19923600 0.08641550 -0.18868400
v -0.20353900 0.07153710 -0.12716700
v -0.20629700 0.07936640 -0.15340600
v -0.21511400 0.08111520 -0.14106400
v -0.22568700 0.10228900 -0.15165900
v -0.22746100 0.10051400 -0.13225400
v -0.22424700 0.09316860 -0.12716700
v -0.18910200 0.07670280 -0.15870300
v -0.17984600 0.07406610 -0.13755100
v -0.18114500 0.07148330 -0.12716700
v -0.19063000 0.06887350 -0.12716700
v -0.19041900 0.07406610 -0.14812700
v -0.21578100 0.08046950 -0.12716700
f 87 101 88
f 84 100 98
f 84 99 100
f 84 88 99
f 81 84 98
f 79 96 97
f 75 91 92
f 77 95 78
f 75 77 76
f 75 95 77
f 75 94 95
f 75 93 94
f 75 92 93
f 88 101 102
f 78 95 96
f 88 102 103
f 92 109 93
f 90 104 91
f 97 112 113
f 97 111 112
f 96 111 97
f 95 111 96
f 95 110 111
f 95 109 110
f 88 103 99
f 93 95 94
f 92 105 106
f 92 108 109
f 92 107 108
f 92 106 107
f 91 105 92
f 91 104 105
f 93 109 95
f 75 90 91
f 49 65 66
f 73 75 74
f 61 75 76
f 61 74 75
f 61 73 74
f 60 73 61
f 58 72 70
f 58 69 72
f 58 71 59
f 58 70 71
f 56 58 57
f 56 69 58
f 55 69 56
f 54 69 55
f 54 68 69
f 49 66 67
f 98 100 114
f 61 76 77
f 75 89 90
f 61 77 78
f 62 96 79
f 73 89 75
f 72 88 84
f 72 87 88
f 72 86 87
f 72 85 86
f 72 80 85
f 70 84 81
f 70 72 84
f 70 83 71
f 70 82 83
f 70 81 82
f 69 80 72
f 68 80 69
f 62 64 63
f 62 79 64
f 62 78 96
f 99 103 115
f 117 134 131
f 99 116 100
f 129 143 130
f 129 142 143
f 128 142 129
f 126 141 142
f 126 142 128
f 125 141 126
f 130 143 144
f 125 140 141
f 125 138 139
f 125 133 138
f 124 133 125
f 124 137 134
f 122 137 124
f 122 127 137
f 125 139 140
f 132 136 145
f 132 145 138
f 132 138 133
f 146 147 148
f 48 64 65
f 145 148 149
f 142 144 143
f 141 144 142
f 141 150 144
f 139 141 140
f 139 150 141
f 139 149 148
f 138 149 139
f 138 145 149
f 136 148 145
f 136 146 148
f 135 147 146
f 135 146 136
f 122 124 123
f 121 137 127
f 120 136 132
f 118 136 119
f 106 126 107
f 106 125 126
f 106 124 125
f 106 123 124
f 106 122 123
f 104 106 105
f 104 121 106
f 103 120 115
f 103 136 120
f 103 119 136
f 102 119 103
f 101 119 102
f 101 118 119
f 100 117 114
f 100 116 117
f 106 121 127
f 99 115 116
f 106 127 122
f 108 126 128
f 118 135 136
f 117 124 134
f 117 133 124
f 117 132 133
f 117 120 132
f 115 117 116
f 115 120 117
f 114 117 131
f 113 129 130
f 112 129 113
f 111 129 112
f 111 128 129
f 110 128 111
f 108 110 109
f 108 128 110
f 107 126 108
f 48 63 64
f 48 65 49
f 48 78 62
f 4 9 16
f 3 9 4
f 3 8 9
f 2 7 6
f 1 7 2
f 1 5 7
f 4 16 24
f 1 4 5
f 1 8 3
f 1 14 8
f 1 22 14
f 1 31 22
f 1 32 31
f 1 33 32
f 1 3 4
f 4 24 35
f 4 35 34
f 4 34 44
f 4 89 73
f 4 90 89
f 4 104 90
f 4 121 104
f 4 137 121
f 4 134 137
f 4 131 134
f 4 114 131
f 4 98 114
f 4 81 98
f 4 82 81
f 4 83 82
f 4 71 83
f 4 59 71
f 4 44 59
f 1 41 33
f 1 42 41
f 1 52 43
f 1 53 52
f 1 65 64
f 1 66 65
f 1 67 66
f 1 50 67
f 1 51 50
f 1 45 51
f 1 46 45
f 1 40 46
f 1 30 40
f 1 21 30
f 1 17 21
f 1 10 17
f 1 6 10
f 1 2 6
f 48 62 63
f 1 64 79
f 4 73 60
f 1 79 97
f 1 113 130
f 1 54 53
f 1 68 54
f 1 80 68
f 1 85 80
f 1 86 85
f 1 87 86
f 1 101 87
f 1 118 101
f 1 135 118
f 1 147 135
f 1 148 147
f 1 139 148
f 1 150 139
f 1 144 150
f 1 130 144
f 1 97 113
f 4 60 47
f 1 43 42
f 4 37 26
f 36 45 46
f 34 52 44
f 34 43 52
f 34 42 43
f 34 41 42
f 33 41 34
f 29 40 30
f 29 46 40
f 29 36 46
f 28 39 36
f 28 38 39
f 27 38 28
f 27 37 38
f 26 37 27
f 25 28 36
f 37 47 48
f 25 36 29
f 37 48 38
f 38 48 49
f 48 61 78
f 4 47 37
f 47 61 48
f 47 60 61
f 44 58 59
f 44 57 58
f 44 56 57
f 44 55 56
f 44 54 55
f 44 53 54
f 44 52 53
f 39 67 50
f 39 49 67
f 39 51 45
f 39 50 51
f 38 49 39
f 23 35 24
f 36 39 45
f 23 34 35
f 12 18 13
f 11 20 18
f 11 19 20
f 11 18 12
f 10 13 17
f 9 14 15
f 8 14 9
f 7 13 10
f 7 12 13
f 7 11 12
f 6 7 10
f 4 7 5
f 4 11 7
f 4 19 11
f 4 26 19
f 13 21 17
f 13 18 21
f 9 15 16
f 21 29 30
f 14 22 23
f 23 31 32
f 22 31 23
f 21 25 29
f 20 28 25
f 23 32 33
f 19 27 20
f 20 27 28
f 18 25 21
f 18 20 25
f 16 23 24
f 15 23 16
f 14 23 15
f 19 26 27
f 23 33 34