# https://github.com/mikedh/trimesh
v 0.11635000 0.40202800 -0.01275640
v 0.13752800 0.39144200 -0.01275640
v 0.11635000 0.40202800 -0.02116700
v -0.11635000 0.40202800 -0.01275640
v 0.16300300 0.37868900 -0.01275640
v 0.13752800 0.39144200 -0.02116700
v 0.11635000 0.39936900 -0.03307170
v 0.10578600 0.40202800 -0.03175020
v 0.12339200 0.39848300 -0.02469470
v -0.11635000 0.40202800 -0.02116700
v -0.16502300 0.37770400 -0.01275640
v 0.16574800 0.37731000 -0.01275640
v 0.16574800 0.37731000 -0.01411150
v 0.14457000 0.38789700 -0.02469470
v 0.10578600 0.39936900 -0.04364370
v 0.12163100 0.39671000 -0.03439320
v 0.13224600 0.38612400 -0.05554850
v 0.12691300 0.38878300 -0.05422700
v 0.09517160 0.40202800 -0.04232220
v 0.13400700 0.38789700 -0.04585000
v -0.10578600 0.40202800 -0.03175020
v -0.12163100 0.39936900 -0.02645300
v -0.13752800 0.39144200 -0.02116700
v -0.14280900 0.38878300 -0.02645300
v -0.16393500 0.37819700 -0.01586980
v -0.17206500 0.37386400 -0.01275640
v 0.16709400 0.37662100 -0.01275640
v 0.18335300 0.36322800 -0.02822250
v 0.17631100 0.36672400 -0.03526670
v 0.15513300 0.37731000 -0.04585000
v 0.12691300 0.37819700 -0.07537100
v 0.11635000 0.37381500 -0.08816050
v 0.09517160 0.39493800 -0.05643320
v 0.15337200 0.37553800 -0.05554850
v 0.17631100 0.34560100 -0.10931600
v 0.17983200 0.33634400 -0.12716700
v 0.08460850 0.39144200 -0.06348870
v -0.09517160 0.40202800 -0.04232220
v -0.10050500 0.39936900 -0.04761940
v -0.13224600 0.38878300 -0.04761940
v -0.15337200 0.37819700 -0.04761940
v -0.14809100 0.38479500 -0.03175020
v -0.16926900 0.37420800 -0.02116700
v -0.20101000 0.33191300 -0.10578800
v -0.20453100 0.33147000 -0.09521600
v -0.18335300 0.36322800 -0.02116700
v -0.18335300 0.36322800 -0.01275640
v 0.17118500 0.37342100 -0.01275640
v 0.18335300 0.36322800 -0.01275640
v 0.20453100 0.34205600 -0.02822250
v 0.21509400 0.32088400 -0.10226000
v 0.20805200 0.32442900 -0.10931600
v 0.19743700 0.33501500 -0.09873250
v 0.11635000 0.35264200 -0.11989900
v 0.08460850 0.38435100 -0.07757730
v 0.14809100 0.34373000 -0.12716700
v 0.19567600 0.33324200 -0.10843100
v 0.18837600 0.33161800 -0.12716700
v 0.07932690 0.38878300 -0.06877470
v -0.08460850 0.39144200 -0.06348870
v -0.08989000 0.38878300 -0.06877470
v -0.12163100 0.37819700 -0.07934670
v -0.12163100 0.38878300 -0.05819150
v -0.12691300 0.38479500 -0.06348870
v -0.13752800 0.38479500 -0.05290550
v -0.15865400 0.37420800 -0.05290550
v -0.19391600 0.33147000 -0.12695400
v -0.20629100 0.32531500 -0.11108500
v -0.20453100 0.34205600 -0.03175020
v -0.19391600 0.35264200 -0.03175020
v -0.21509400 0.32088400 -0.09521600
v -0.20453100 0.34205600 -0.01275640
v 0.20453100 0.34205600 -0.01275640
v 0.21509400 0.33147000 -0.01763920
v 0.22565700 0.31029800 -0.08110500
v 0.22565700 0.29971100 -0.12716700
v 0.21685400 0.31207000 -0.11901400
v 0.20629100 0.32265600 -0.11901400
v -0.11635000 0.35264200 -0.11989900
v -0.08460850 0.38435100 -0.07757730
v -0.14809100 0.34373000 -0.12716700
v 0.19836900 0.32462600 -0.12716700
v -0.11635000 0.37381500 -0.08816050
v -0.12691300 0.37420800 -0.08463270
v -0.18003900 0.33841200 -0.12716700
v -0.17983200 0.34249900 -0.11637100
v -0.19386400 0.33142100 -0.12716700
v -0.21509400 0.31029800 -0.12716700
v -0.22576100 0.29961300 -0.12716700
v -0.21509400 0.33147000 -0.03175020
v -0.21509400 0.33147000 -0.01275640
v 0.21509400 0.33147000 -0.01275640
v 0.23627200 0.29971100 -0.03879450
v 0.23627200 0.28917400 -0.10226000
v 0.21509400 0.31029800 -0.12716700
v 0.23979300 0.28208400 -0.10931600
v 0.24000000 0.27243400 -0.12716700
v 0.20349500 0.32063800 -0.12716700
v 0.20080300 0.32275500 -0.12716700
v -0.15803200 0.34245000 -0.12716700
v -0.15865400 0.34249900 -0.12695400
v -0.15865400 0.34235200 -0.12716700
v -0.18682200 0.33501500 -0.12716700
v -0.23627200 0.27858800 -0.12716700
v -0.23627200 0.28917400 -0.09521600
v -0.23627200 0.29971100 -0.03175020
v -0.23627200 0.29971100 -0.01275640
v 0.23627200 0.29971100 -0.01275640
v 0.24828500 0.28095200 -0.01275640
v 0.24859600 0.28036100 -0.01322680
v 0.24683500 0.27858800 -0.05996090
v 0.24331400 0.26445700 -0.12716700
v 0.25035600 0.27149800 -0.06700520
v 0.25387700 0.26445700 -0.06348870
v 0.25035600 0.26096100 -0.09873250
v -0.24331400 0.26445700 -0.12716700
v -0.25035600 0.26096100 -0.09521600
v -0.24683500 0.27858800 -0.05290550
v -0.23699700 0.29828400 -0.01275640
v 0.24859600 0.28036100 -0.01275640
v 0.24952800 0.27844100 -0.01275640
v 0.25387700 0.25387100 -0.09521600
v 0.25387700 0.23274800 -0.12695400
v 0.25382500 0.23274800 -0.12716700
v 0.25118500 0.27479700 -0.01275640
v 0.25149500 0.27405800 -0.01275640
v 0.26205800 0.24234900 -0.01275640
v 0.26449200 0.23274800 -0.04232220
v -0.25123600 0.24441700 -0.12716700
v -0.25123600 0.24461400 -0.12695400
v -0.25387700 0.24328500 -0.11637100
v -0.25387700 0.25387100 -0.09521600
v -0.25387700 0.26445700 -0.05290550
v -0.25108100 0.27007000 -0.01275640
v -0.24683500 0.27858800 -0.01275640
v -0.24051800 0.29124200 -0.01275640
v 0.26449200 0.22216200 -0.06348870
v 0.25387700 0.23250200 -0.12716700
v 0.26449200 0.23274800 -0.01275640
v -0.25382500 0.23274800 -0.12716700
v -0.25387700 0.23274800 -0.12695400
v -0.26449200 0.22216200 -0.06348870
v -0.26449200 0.23274800 -0.04232220
v -0.26392200 0.24358000 -0.01275640
v -0.25387700 0.26445700 -0.01275640
v 0.26449200 0.17981700 -0.03175020
v 0.25387700 0.17981700 -0.12695400
v 0.25387700 0.19040300 -0.12716700
v 0.26449200 0.16923100 -0.01275640
v -0.25387700 0.23250200 -0.12716700
v -0.26449200 0.21157500 -0.07404950
v -0.26449200 0.24111800 -0.01275640
v 0.26449200 0.16923100 -0.02116700
v 0.25387700 0.16923100 -0.11637100
v 0.25382500 0.17981700 -0.12716700
v 0.26366400 0.15869400 -0.01275640
v -0.25387700 0.17981700 -0.12716700
v -0.25387700 0.16923100 -0.12695400
v -0.26449200 0.20098900 -0.06348870
v -0.26449200 0.15869400 -0.01275640
v 0.26335300 0.15647800 -0.01275640
v 0.25387700 0.15869400 -0.10578800
v 0.25123600 0.15337600 -0.11108500
v 0.24331400 0.13757100 -0.12695400
v 0.24321000 0.13737400 -0.12716700
v -0.25382500 0.16928000 -0.12716700
v -0.24057000 0.12678800 -0.12716700
v -0.24331400 0.12698500 -0.11637100
v -0.25387700 0.14815700 -0.08463270
v -0.26449200 0.15869400 -0.02116700
v -0.26449200 0.16923100 -0.03175020
v -0.25387700 0.12698500 -0.01275640
v 0.25387700 0.12698500 -0.01275640
v 0.25387700 0.12698500 -0.03175020
v 0.24331400 0.12698500 -0.10578800
v 0.24067300 0.12166700 -0.11108500
v 0.23275100 0.11639800 -0.12716700
v 0.16926900 -0.10098700 -0.02116700
v -0.23482200 0.11433000 -0.12716700
v -0.16926900 -0.10098700 -0.02116700
v -0.24331400 0.10581200 -0.05290550
v -0.25387700 0.12698500 -0.03175020
v -0.16926900 -0.10098700 -0.01275640
v 0.16926900 -0.10098700 -0.01275640
v 0.25123600 0.12166700 -0.03703620
v 0.21866700 0.08828360 -0.12716700
v 0.16574800 -0.10098700 -0.02822250
v 0.21504200 0.08119330 -0.12716700
v -0.22420700 0.09315820 -0.12716700
v -0.16574800 -0.10098700 -0.02822250
v 0.14265400 -0.10098700 -0.07437430
v 0.21483500 0.08104560 -0.12716700
v 0.14104900 -0.10098700 -0.07757730
v 0.11987100 -0.10098700 -0.09873250
v 0.11603900 -0.10098700 -0.10065900
v 0.10899700 -0.10098700 -0.10418700
v 0.08781880 -0.10098700 -0.11477000
v 0.08460850 -0.10098700 -0.11637100
v 0.04230420 -0.10098700 -0.12695400
v -0.15161200 -0.10098700 -0.05643320
v -0.15580600 -0.10098700 -0.04808980
v -0.21576700 0.08045480 -0.12716700
v -0.13043400 -0.10098700 -0.08816050
v 0.19971500 0.07154270 -0.12716700
v 0.19018800 0.06888380 -0.12716700
v -0.03168930 -0.10098700 -0.12695400
v -0.20354700 0.07154270 -0.12716700
v -0.07979290 -0.10098700 -0.11637100
v -0.08460850 -0.10098700 -0.11530700
v -0.09056320 -0.10098700 -0.11297800
v -0.10578600 -0.10098700 -0.10578800
v -0.11153400 -0.10098700 -0.10291000
v -0.11987100 -0.10098700 -0.09873250
v -0.19060200 0.06888380 -0.12716700
f 117 133 118
f 116 129 130
f 117 132 133
f 118 134 135
f 118 135 136
f 116 132 117
f 116 131 132
f 116 130 131
f 118 133 134
f 114 122 115
f 112 123 124
f 114 127 128
f 114 126 127
f 114 125 126
f 114 121 125
f 112 122 123
f 112 115 122
f 110 113 111
f 110 120 121
f 118 136 119
f 110 114 113
f 110 121 114
f 114 128 122
f 122 128 137
f 132 144 133
f 123 137 138
f 142 151 159
f 141 151 142
f 109 120 110
f 141 150 151
f 140 150 141
f 137 148 138
f 137 147 148
f 137 146 147
f 133 145 134
f 133 144 145
f 132 143 144
f 132 142 143
f 131 142 132
f 131 141 142
f 129 131 130
f 129 141 131
f 129 140 141
f 128 146 137
f 128 153 146
f 128 149 153
f 128 139 149
f 127 139 128
f 123 138 124
f 122 137 123
f 106 118 119
f 76 94 96
f 105 118 106
f 79 81 83
f 78 95 98
f 78 99 82
f 78 98 99
f 76 96 97
f 76 78 77
f 76 95 78
f 75 94 76
f 75 93 94
f 74 108 93
f 79 83 80
f 74 92 108
f 69 91 72
f 69 90 91
f 68 89 71
f 68 88 89
f 67 88 68
f 67 87 88
f 67 86 87
f 66 86 67
f 142 159 171
f 65 86 66
f 71 89 90
f 81 100 83
f 83 100 101
f 83 101 84
f 105 117 118
f 104 117 105
f 104 116 117
f 100 102 101
f 96 115 112
f 96 114 115
f 96 113 114
f 96 111 113
f 96 112 97
f 94 111 96
f 93 111 94
f 93 110 111
f 93 109 110
f 93 108 109
f 90 107 91
f 90 106 107
f 90 105 106
f 89 105 90
f 89 104 105
f 86 103 87
f 85 103 86
f 85 101 102
f 84 101 85
f 106 119 107
f 142 171 170
f 178 191 187
f 142 160 152
f 180 189 190
f 180 182 181
f 179 189 180
f 178 188 186
f 178 187 188
f 178 193 191
f 178 194 193
f 178 195 194
f 178 196 195
f 178 197 196
f 187 191 188
f 178 198 197
f 178 206 199
f 178 208 206
f 178 209 208
f 178 210 209
f 178 211 210
f 178 212 211
f 178 213 212
f 178 203 213
f 178 200 203
f 178 201 200
f 178 199 198
f 188 191 193
f 188 193 194
f 188 194 195
f 65 85 86
f 206 207 214
f 202 213 203
f 202 212 213
f 202 211 212
f 202 210 211
f 202 209 210
f 202 208 209
f 202 206 208
f 202 207 206
f 199 214 205
f 199 206 214
f 199 205 204
f 192 199 204
f 189 203 200
f 189 202 203
f 189 201 190
f 189 200 201
f 188 199 192
f 188 198 199
f 188 197 198
f 188 196 197
f 188 195 196
f 178 190 201
f 178 180 190
f 178 183 180
f 178 184 183
f 158 170 171
f 158 169 170
f 158 168 169
f 158 167 168
f 158 166 167
f 157 166 158
f 155 164 165
f 155 163 164
f 154 163 155
f 154 162 163
f 153 162 154
f 153 161 162
f 153 156 161
f 151 158 159
f 151 157 158
f 150 157 151
f 149 156 153
f 147 155 148
f 147 154 155
f 146 154 147
f 146 153 154
f 143 152 144
f 142 152 143
f 158 171 159
f 142 170 160
f 160 170 182
f 161 173 174
f 177 178 186
f 176 185 178
f 174 178 185
f 174 176 175
f 174 185 176
f 173 178 174
f 173 184 178
f 172 180 183
f 172 182 180
f 169 182 170
f 168 180 181
f 168 182 169
f 168 181 182
f 167 180 168
f 167 179 180
f 165 178 177
f 165 176 178
f 164 176 165
f 163 176 164
f 162 176 163
f 162 175 176
f 162 174 175
f 161 174 162
f 160 182 172
f 64 85 65
f 74 93 75
f 62 64 63
f 14 30 20
f 13 30 14
f 13 29 30
f 13 28 29
f 13 27 28
f 12 27 13
f 11 25 26
f 11 24 25
f 11 23 24
f 10 23 11
f 15 18 31
f 10 24 23
f 10 39 22
f 10 21 39
f 9 17 16
f 9 20 17
f 9 14 20
f 8 15 19
f 7 18 15
f 7 17 18
f 7 16 17
f 7 9 16
f 10 22 24
f 15 31 32
f 15 32 33
f 15 33 19
f 28 48 49
f 27 48 28
f 26 46 47
f 26 45 46
f 26 44 45
f 26 43 44
f 25 43 26
f 24 40 41
f 24 43 25
f 24 42 43
f 24 41 42
f 22 40 24
f 22 39 40
f 21 38 39
f 19 60 38
f 19 37 60
f 19 33 37
f 18 36 31
f 18 35 36
f 17 35 18
f 17 34 35
f 17 30 34
f 17 20 30
f 7 15 8
f 6 13 14
f 5 13 6
f 5 12 13
f 1 160 172
f 1 152 160
f 1 144 152
f 1 145 144
f 1 134 145
f 1 135 134
f 1 136 135
f 1 119 136
f 1 107 119
f 1 91 107
f 1 72 91
f 1 47 72
f 1 26 47
f 1 11 26
f 1 4 11
f 1 10 4
f 1 21 10
f 1 38 21
f 1 19 38
f 1 8 19
f 1 3 8
f 1 6 3
f 1 2 6
f 1 172 183
f 28 49 73
f 1 184 173
f 1 161 156
f 4 10 11
f 3 9 7
f 3 14 9
f 3 6 14
f 3 7 8
f 2 5 6
f 1 5 2
f 1 12 5
f 1 27 12
f 1 48 27
f 1 49 48
f 1 73 49
f 1 92 73
f 1 108 92
f 1 109 108
f 1 120 109
f 1 121 120
f 1 125 121
f 1 126 125
f 1 127 126
f 1 139 127
f 1 149 139
f 1 156 149
f 1 173 161
f 28 73 50
f 1 183 184
f 28 51 52
f 45 71 90
f 45 68 71
f 45 70 46
f 45 69 70
f 44 68 45
f 44 67 68
f 44 66 67
f 43 66 44
f 42 66 43
f 41 66 42
f 45 90 69
f 40 66 41
f 40 64 65
f 40 63 64
f 39 63 40
f 39 62 63
f 39 61 62
f 39 60 61
f 38 60 39
f 37 61 60
f 37 59 61
f 37 55 59
f 40 65 66
f 46 70 69
f 46 69 72
f 46 72 47
f 28 50 51
f 62 84 64
f 62 83 84
f 61 83 62
f 61 80 83
f 58 78 82
f 57 78 58
f 55 61 59
f 55 80 61
f 54 80 55
f 54 79 80
f 54 81 79
f 54 56 81
f 64 84 85
f 52 78 57
f 51 78 52
f 51 77 78
f 51 76 77
f 51 75 76
f 51 74 75
f 50 74 51
f 50 92 74
f 50 73 92
f 36 81 56
f 36 100 81
f 52 57 53
f 36 85 102
f 36 124 138
f 36 112 124
f 36 97 112
f 36 76 97
f 36 95 76
f 36 98 95
f 36 99 98
f 36 82 99
f 36 58 82
f 35 58 36
f 35 57 58
f 35 53 57
f 33 55 37
f 32 56 54
f 32 36 56
f 32 54 55
f 31 36 32
f 30 35 34
f 29 35 30
f 29 53 35
f 29 52 53
f 36 102 100
f 28 52 29
f 36 138 148
f 36 148 155
f 32 55 33
f 36 116 104
f 36 88 87
f 36 89 88
f 36 104 89
f 36 129 116
f 36 140 129
f 36 87 103
f 36 150 140
f 36 157 150
f 36 103 85
f 36 167 166
f 36 179 167
f 36 166 157
f 36 189 179
f 36 165 177
f 36 177 186
f 36 188 192
f 36 192 204
f 36 186 188
f 36 205 214
f 36 214 207
f 36 207 202
f 36 202 189
f 36 204 205
f 36 155 165