# https://github.com/mikedh/trimesh
v 0.20101200 0.28564700 -0.32325400
v 0.19042800 0.29623100 -0.37030000
v 0.16928100 0.28564700 -0.32325400
v 0.21273500 0.27978600 -0.32325400
v 0.21687700 0.28034500 -0.33327000
v 0.21158500 0.28564700 -0.34913000
v 0.19042800 0.29623100 -0.38087300
v 0.15869700 0.28564700 -0.35971500
v 0.15831400 0.28015900 -0.32325400
v 0.21511700 0.27858400 -0.32325400
v 0.21657700 0.27730000 -0.32325400
v 0.22616700 0.26847700 -0.32325400
v 0.22569000 0.27858400 -0.35618300
v 0.21158500 0.28564700 -0.40201900
v 0.15869700 0.28564700 -0.38087300
v 0.16398900 0.28299600 -0.40731700
v 0.16928100 0.28564700 -0.40201900
v 0.14459200 0.27858400 -0.35971500
v 0.15517600 0.27858400 -0.32325400
v 0.22979100 0.26323700 -0.32325400
v 0.22569000 0.27858400 -0.38791400
v 0.23275300 0.26448000 -0.35971500
v 0.22922200 0.27154200 -0.36324700
v 0.21863800 0.28210600 -0.40555100
v 0.21687700 0.28034500 -0.40996100
v 0.21158500 0.27858400 -0.41612400
v 0.15341600 0.28299600 -0.38614800
v 0.14459200 0.27858400 -0.38087300
v 0.16928100 0.27858400 -0.41612400
v 0.15869700 0.27506300 -0.41260400
v 0.15517600 0.27858400 -0.40201900
v 0.14018100 0.26978200 -0.34384300
v 0.14459200 0.26800100 -0.32325400
v 0.23139600 0.25930200 -0.32325400
v 0.22922200 0.27154200 -0.39496600
v 0.23275300 0.25389600 -0.32325400
v 0.23275300 0.26448000 -0.39144600
v 0.22746100 0.26978200 -0.40466200
v 0.21952800 0.27506300 -0.41392000
v 0.21687700 0.26978200 -0.42053400
v 0.21158500 0.27154200 -0.41965600
v 0.14283200 0.26713100 -0.39673200
v 0.14018100 0.26580500 -0.39144600
v 0.13754000 0.26448000 -0.38087300
v 0.12695600 0.24333300 -0.37030000
v 0.16928100 0.27154200 -0.41965600
v 0.16398900 0.27241200 -0.41789000
v 0.14283200 0.25654700 -0.40731700
v 0.16222900 0.26800100 -0.41965600
v 0.14283200 0.24596300 -0.41789000
v 0.13754000 0.25389600 -0.32325400
v 0.14263500 0.26410700 -0.32325400
v 0.12695600 0.24333300 -0.35971500
v 0.12960700 0.24861400 -0.35442800
v 0.23010200 0.26448000 -0.40334600
v 0.23275300 0.22216500 -0.32325400
v 0.23275300 0.24333300 -0.41260400
v 0.22746100 0.25919800 -0.41524700
v 0.21158500 0.26448000 -0.42317700
v 0.22746100 0.24861400 -0.42053400
v 0.21687700 0.21688300 -0.43111900
v 0.13048800 0.23627000 -0.39849900
v 0.12695600 0.23274900 -0.39144600
v 0.16928100 0.26448000 -0.42317700
v 0.15164500 0.21510200 -0.43023000
v 0.14812400 0.24463800 -0.42053400
v 0.14812400 0.15870400 -0.44434700
v 0.14107100 0.23627000 -0.41965600
v 0.13224800 0.21423200 -0.41789000
v 0.14380500 0.15773000 -0.44282900
v 0.13224800 0.15077100 -0.43904800
v 0.12695600 0.23274900 -0.34913000
v 0.13754000 0.21158100 -0.32325400
v 0.23010200 0.25389600 -0.41392000
v 0.22995700 0.20685900 -0.32325400
v 0.23275300 0.14812000 -0.42317700
v 0.22922200 0.24333300 -0.41965600
v 0.23275300 0.15870400 -0.42317700
v 0.21158500 0.21158100 -0.43376200
v 0.20101200 0.22216500 -0.43376200
v 0.22569000 0.13753600 -0.43728200
v 0.21687700 0.14283800 -0.44169200
v 0.21158500 0.13753600 -0.44434700
v 0.12960700 0.21290700 -0.41260400
v 0.12695600 0.20099700 -0.41260400
v 0.17985500 0.22216500 -0.43376200
v 0.15794100 0.16852100 -0.44434700
v 0.13754000 0.13753600 -0.44434700
v 0.13048800 0.20453900 -0.41965600
v 0.13048800 0.14107800 -0.44081400
v 0.12695600 0.13753600 -0.40201900
v 0.14576300 0.19513600 -0.32325400
v 0.12960700 0.12697300 -0.40070300
v 0.13048800 0.09876300 -0.41965600
v 0.13224800 0.10052400 -0.41524700
v 0.22967700 0.20572000 -0.32325400
v 0.23010200 0.13225400 -0.42847500
v 0.22922200 0.15870400 -0.43023000
v 0.22613600 0.12697300 -0.43376200
v 0.21952800 0.11108700 -0.43904800
v 0.21863800 0.11638900 -0.44081400
v 0.21158500 0.11638900 -0.44434700
v 0.12695600 0.16928700 -0.42317700
v 0.13754000 0.12697300 -0.44434700
v 0.13048800 0.13049400 -0.44081400
v 0.12695600 0.13753600 -0.43376200
v 0.12695600 0.10580500 -0.42317700
v 0.15283600 0.18101000 -0.32325400
v 0.13224800 0.10052400 -0.42847500
v 0.13754000 0.09522130 -0.42317700
v 0.15164500 0.08817920 -0.41965600
v 0.15341600 0.08993970 -0.41524700
v 0.16957100 0.16957700 -0.32325400
v 0.15564200 0.17680600 -0.32325400
v 0.21938300 0.18573300 -0.32325400
v 0.21687700 0.11373800 -0.40731700
v 0.21952800 0.11506300 -0.41260400
v 0.22216900 0.11638900 -0.42317700
v 0.21511700 0.10228400 -0.42317700
v 0.21027000 0.10315400 -0.43376200
v 0.21511700 0.10932600 -0.44081400
v 0.16928100 0.09522130 -0.43376200
v 0.14812400 0.11638900 -0.44434700
v 0.13930100 0.11814900 -0.44258100
v 0.13224800 0.11108700 -0.43904800
v 0.12695600 0.12697300 -0.43376200
v 0.13577900 0.10404500 -0.43552800
v 0.14459200 0.09170030 -0.42670900
v 0.15869700 0.08463750 -0.42317700
v 0.15869700 0.08817920 -0.41612400
v 0.17750400 0.16692600 -0.32325400
v 0.17399300 0.16808600 -0.32325400
v 0.21865900 0.18457300 -0.32325400
v 0.20629300 0.09787240 -0.41789000
v 0.21315900 0.17829700 -0.32325400
v 0.20823000 0.17427900 -0.32325400
v 0.20101200 0.09522130 -0.42317700
v 0.20894500 0.10052400 -0.42847500
v 0.20453300 0.09876300 -0.43023000
v 0.17280200 0.08817920 -0.43023000
v 0.15869700 0.09522130 -0.43376200
v 0.14459200 0.10228400 -0.43728200
v 0.15341600 0.08993970 -0.42847500
v 0.16928100 0.08463750 -0.42317700
v 0.17457300 0.08728860 -0.41789000
v 0.16222900 0.08817920 -0.43023000
v 0.16928100 0.08817920 -0.41612400
v 0.18806700 0.16692600 -0.32325400
v 0.20101200 0.10228400 -0.40907200
v 0.20115700 0.16957700 -0.32325400
v 0.19456000 0.16810700 -0.32325400
f 81 99 100
f 81 100 101
f 75 96 97
f 81 97 99
f 81 102 83
f 81 101 102
f 81 98 97
f 76 97 78
f 80 83 87
f 79 83 80
f 78 97 98
f 77 98 81
f 75 97 76
f 81 83 82
f 80 87 86
f 84 89 85
f 94 111 95
f 88 104 105
f 73 95 92
f 95 112 113
f 95 111 112
f 94 129 111
f 94 110 129
f 94 109 110
f 94 107 109
f 93 107 94
f 92 95 108
f 91 107 93
f 90 106 103
f 90 126 106
f 90 105 126
f 89 90 103
f 88 105 90
f 85 89 103
f 73 94 95
f 56 75 76
f 73 91 93
f 61 82 83
f 60 82 61
f 60 81 82
f 60 77 81
f 60 74 77
f 59 86 64
f 59 80 86
f 59 79 80
f 58 74 60
f 57 98 77
f 57 78 98
f 57 77 74
f 55 74 58
f 95 113 114
f 55 57 74
f 61 83 79
f 73 93 94
f 62 69 84
f 63 84 85
f 72 91 73
f 70 90 71
f 70 88 90
f 69 89 84
f 68 90 89
f 67 88 70
f 67 104 88
f 67 123 104
f 67 102 123
f 67 83 102
f 67 87 83
f 65 70 66
f 65 67 70
f 64 87 67
f 64 86 87
f 62 84 63
f 95 114 108
f 145 149 150
f 96 116 117
f 129 145 130
f 129 144 145
f 128 143 129
f 127 143 128
f 127 146 143
f 127 142 146
f 125 142 127
f 123 142 125
f 123 141 142
f 123 125 124
f 122 146 141
f 122 140 146
f 121 140 122
f 121 139 140
f 120 139 121
f 129 143 146
f 120 138 139
f 129 146 140
f 130 145 147
f 51 72 73
f 145 148 147
f 145 151 148
f 145 150 151
f 141 146 142
f 137 139 138
f 137 140 139
f 137 144 140
f 137 145 144
f 134 150 149
f 134 136 150
f 134 145 137
f 134 149 145
f 130 148 131
f 130 147 148
f 129 140 144
f 96 115 116
f 119 138 120
f 119 134 137
f 104 125 105
f 104 124 125
f 104 123 124
f 102 141 123
f 102 122 141
f 102 121 122
f 100 102 101
f 100 121 102
f 100 120 121
f 100 119 120
f 100 118 119
f 97 100 99
f 97 118 100
f 97 117 118
f 96 117 97
f 105 125 126
f 119 137 138
f 107 125 109
f 109 125 127
f 117 119 118
f 116 136 134
f 116 135 136
f 116 133 135
f 116 119 117
f 116 134 119
f 115 133 116
f 112 132 113
f 112 131 132
f 112 130 131
f 112 129 130
f 111 129 112
f 110 128 129
f 109 128 110
f 109 127 128
f 107 126 125
f 51 53 72
f 26 40 41
f 50 90 68
f 8 18 9
f 8 28 18
f 8 15 28
f 7 17 15
f 7 16 17
f 7 14 16
f 9 18 19
f 6 21 14
f 5 13 6
f 5 12 13
f 5 11 12
f 5 10 11
f 4 10 5
f 3 8 9
f 6 13 21
f 12 20 13
f 13 20 22
f 13 22 23
f 18 28 32
f 16 28 27
f 16 31 28
f 16 30 31
f 16 29 30
f 16 26 29
f 15 27 28
f 15 16 27
f 15 17 16
f 14 26 16
f 14 25 26
f 14 24 25
f 14 21 24
f 13 35 21
f 13 23 35
f 2 8 3
f 2 15 8
f 2 7 15
f 2 14 7
f 1 148 151
f 1 131 148
f 1 132 131
f 1 113 132
f 1 114 113
f 1 108 114
f 1 92 108
f 1 73 92
f 1 51 73
f 1 52 51
f 1 33 52
f 1 19 33
f 1 9 19
f 1 3 9
f 51 54 53
f 1 151 150
f 18 32 19
f 1 150 136
f 1 135 133
f 2 6 14
f 1 6 2
f 1 5 6
f 1 4 5
f 1 10 4
f 1 11 10
f 1 12 11
f 1 20 12
f 1 34 20
f 1 36 34
f 1 56 36
f 1 75 56
f 1 96 75
f 1 115 96
f 1 133 115
f 1 136 135
f 19 32 33
f 1 2 3
f 21 35 24
f 45 63 85
f 43 45 44
f 43 63 45
f 43 62 63
f 42 62 43
f 42 48 62
f 20 34 22
f 41 64 46
f 40 79 59
f 40 61 79
f 40 60 61
f 40 58 60
f 40 59 41
f 39 58 40
f 41 59 64
f 45 103 106
f 45 106 126
f 45 126 107
f 50 70 71
f 50 66 70
f 50 69 62
f 50 89 69
f 50 68 89
f 49 67 65
f 49 64 67
f 49 66 50
f 49 65 66
f 48 50 62
f 46 49 47
f 46 64 49
f 45 72 53
f 45 91 72
f 45 107 91
f 38 58 39
f 38 55 58
f 45 85 103
f 35 55 38
f 26 41 46
f 50 71 90
f 26 39 40
f 25 39 26
f 24 39 25
f 24 38 39
f 24 35 38
f 22 35 23
f 22 37 35
f 22 57 37
f 22 78 57
f 22 76 78
f 22 56 76
f 22 36 56
f 37 57 55
f 26 46 29
f 28 31 42
f 22 34 36
f 28 43 44
f 35 37 55
f 32 54 51
f 32 53 54
f 32 45 53
f 28 42 43
f 32 51 52
f 30 50 48
f 32 52 33
f 30 47 49
f 30 42 31
f 30 48 42
f 29 47 30
f 29 46 47
f 28 45 32
f 28 44 45
f 30 49 50