# https://github.com/mikedh/trimesh
v 0.14812000 0.34373400 -0.12716700
v 0.11639100 0.34373400 -0.12716700
v 0.17984900 0.33633500 -0.12716700
v 0.20100800 0.28564600 -0.32325400
v 0.10643500 0.33875700 -0.12716700
v 0.16926100 0.28564600 -0.32325400
v 0.18838800 0.33162700 -0.12716700
v 0.18514300 0.33324100 -0.12960500
v 0.21863100 0.28212200 -0.29974200
v 0.21511300 0.27859700 -0.32325400
v 0.10559800 0.33821900 -0.12716700
v 0.15517300 0.27859700 -0.32325400
v 0.19839500 0.32465900 -0.12716700
v 0.22568400 0.27859700 -0.29269700
v 0.22921900 0.27152100 -0.31033700
v 0.22746000 0.26977300 -0.32003000
v 0.21658200 0.27730600 -0.32325400
v 0.10050900 0.33060500 -0.13225400
v 0.09543730 0.32807500 -0.12716700
v 0.08993850 0.32003100 -0.13225400
v 0.14460200 0.26799700 -0.32325400
v 0.20080300 0.32277500 -0.12716700
v 0.20350100 0.32065000 -0.12716700
v 0.21511300 0.31031800 -0.13402000
v 0.22568400 0.29974500 -0.13402000
v 0.23979000 0.27152100 -0.15165900
v 0.24332500 0.26447200 -0.14812700
v 0.23273700 0.26447200 -0.30680500
v 0.23140500 0.25928000 -0.32325400
v 0.22978300 0.26323500 -0.32325400
v 0.22921900 0.29269600 -0.14106400
v 0.22616200 0.26848100 -0.32325400
v 0.09501040 0.32764500 -0.12716700
v 0.08739400 0.31873900 -0.12716700
v 0.14263800 0.26409600 -0.32325400
v 0.14106700 0.26094800 -0.32325400
v 0.13754900 0.25389900 -0.32325400
v 0.21511300 0.31031800 -0.12716700
v 0.22568400 0.29974500 -0.12716700
v 0.24002900 0.27243600 -0.12716700
v 0.24332500 0.26447200 -0.12716700
v 0.25386100 0.23275100 -0.12716700
v 0.24332500 0.24332500 -0.27505800
v 0.23273700 0.25389900 -0.32325400
v 0.08218550 0.30561000 -0.12716700
v 0.13754900 0.21157700 -0.32325400
v 0.08464460 0.26447200 -0.14812700
v 0.07945320 0.29600500 -0.12716700
v 0.08210010 0.30531400 -0.12716700
v 0.25391200 0.23253600 -0.12716700
v 0.25391200 0.22215100 -0.15870300
v 0.24332500 0.23275100 -0.28563400
v 0.23273700 0.22215100 -0.32325400
v 0.07945320 0.23253600 -0.12716700
v 0.08464460 0.25389900 -0.14812700
v 0.15283300 0.18101300 -0.32325400
v 0.11109700 0.14283500 -0.15340600
v 0.10050900 0.17458300 -0.16400100
v 0.10050900 0.18515700 -0.17457700
v 0.09523240 0.20103000 -0.16927900
v 0.25391200 0.19045700 -0.12716700
v 0.25391200 0.21157700 -0.15870300
v 0.24332500 0.22215100 -0.28563400
v 0.23273700 0.21157700 -0.31738100
v 0.23010700 0.20630400 -0.32267900
v 0.22995300 0.20686900 -0.32325400
v 0.08210010 0.21962200 -0.12716700
v 0.15565100 0.17681600 -0.32325400
v 0.12166800 0.12168800 -0.14283000
v 0.11285600 0.13401000 -0.14106400
v 0.10580300 0.14813500 -0.13755100
v 0.09523240 0.17985600 -0.14812700
v 0.25382700 0.17985600 -0.12716700
v 0.25391200 0.19045700 -0.13755100
v 0.24067800 0.21687700 -0.29093200
v 0.24332500 0.19045700 -0.24333000
v 0.24067800 0.18515700 -0.24860900
v 0.24067800 0.16400900 -0.21690000
v 0.23010700 0.16400900 -0.25918400
v 0.22612800 0.17985600 -0.29622900
v 0.22966300 0.20573900 -0.32325400
v 0.09523240 0.17985600 -0.12716700
v 0.16955200 0.16957900 -0.32325400
v 0.16750200 0.16753400 -0.31914700
v 0.16400200 0.16400900 -0.31208400
v 0.17455500 0.10051400 -0.21690000
v 0.12344400 0.11286300 -0.13048800
v 0.12277800 0.11219000 -0.12716700
v 0.11219000 0.13336500 -0.12716700
v 0.10580300 0.14813500 -0.12716700
v 0.25379300 0.17966800 -0.12716700
v 0.24332500 0.16928300 -0.21160200
v 0.24067800 0.14283500 -0.16400100
v 0.23010700 0.12168800 -0.17457700
v 0.21951900 0.11108700 -0.20630500
v 0.21951900 0.12168800 -0.22745700
v 0.21951900 0.18515700 -0.32267900
v 0.21938300 0.18572200 -0.32325400
v 0.17397500 0.16809900 -0.32325400
v 0.17631400 0.16575800 -0.32091300
v 0.18690200 0.10228900 -0.22569100
v 0.18690200 0.09171580 -0.20455800
v 0.19042000 0.08463980 -0.19045000
v 0.17809000 0.09346460 -0.20279200
v 0.16400200 0.07936640 -0.14283000
v 0.15517300 0.08111520 -0.13048800
v 0.13334800 0.10161700 -0.12716700
v 0.24322200 0.13734700 -0.12716700
v 0.24332500 0.14813500 -0.15870300
v 0.24067800 0.13226100 -0.13225400
v 0.23010700 0.11108700 -0.14283000
v 0.21951900 0.08994000 -0.13225400
v 0.21511300 0.10228900 -0.20102600
v 0.21511300 0.11286300 -0.22217800
v 0.21422500 0.12168800 -0.23803300
v 0.21511300 0.17633200 -0.31738100
v 0.21866500 0.18459200 -0.32325400
v 0.17749300 0.16694200 -0.32325400
v 0.18806300 0.16694200 -0.32325400
v 0.19395500 0.09876480 -0.21866600
v 0.19395500 0.08816430 -0.19749500
v 0.19974400 0.07153710 -0.12716700
v 0.19175200 0.07670280 -0.15870300
v 0.19042000 0.07406610 -0.14812700
v 0.17730500 0.07153710 -0.12716700
v 0.17809000 0.08289090 -0.17104500
v 0.15450700 0.08046950 -0.12716700
v 0.16931300 0.07411990 -0.12716700
v 0.23984100 0.13056600 -0.12716700
v 0.22206400 0.09502510 -0.12716700
v 0.21866500 0.08824500 -0.12716700
v 0.21504500 0.08119590 -0.12716700
v 0.20365500 0.10051400 -0.21690000
v 0.20894800 0.08994000 -0.17457700
v 0.20452600 0.09171580 -0.19045000
v 0.20894800 0.11108700 -0.22745700
v 0.20821400 0.17428700 -0.32325400
v 0.21314900 0.17829600 -0.32325400
v 0.19455300 0.16809900 -0.32325400
v 0.20114400 0.16957900 -0.32325400
v 0.19967600 0.09257670 -0.20102600
v 0.19836100 0.08994000 -0.19572900
v 0.20232300 0.08730340 -0.17985500
v 0.21485700 0.08106140 -0.12716700
v 0.19021500 0.06887350 -0.12716700
f 77 92 78
f 78 94 95
f 78 93 94
f 78 92 93
f 78 95 96
f 76 92 77
f 70 89 71
f 73 91 92
f 71 82 72
f 71 90 82
f 71 89 90
f 70 88 89
f 78 96 79
f 69 88 70
f 73 92 76
f 79 96 80
f 85 100 86
f 80 96 97
f 69 87 88
f 88 106 107
f 87 106 88
f 86 100 101
f 86 106 87
f 86 105 106
f 80 97 81
f 86 104 105
f 86 102 103
f 86 101 102
f 83 85 84
f 83 100 85
f 83 99 100
f 81 97 98
f 86 103 104
f 68 87 69
f 51 62 63
f 68 85 86
f 59 72 60
f 58 72 59
f 58 71 72
f 57 71 58
f 57 70 71
f 57 69 70
f 60 72 67
f 57 68 69
f 54 60 67
f 53 65 66
f 53 64 65
f 53 63 64
f 51 63 52
f 91 108 109
f 56 68 57
f 68 86 87
f 61 73 74
f 63 75 65
f 68 84 85
f 68 83 84
f 67 72 82
f 65 75 77
f 65 81 66
f 65 80 81
f 62 74 63
f 65 79 80
f 65 77 78
f 63 77 75
f 63 76 77
f 63 73 76
f 63 74 73
f 63 65 64
f 65 78 79
f 91 109 92
f 135 142 141
f 93 109 108
f 120 133 121
f 119 139 120
f 116 138 117
f 115 138 116
f 115 137 138
f 115 136 137
f 120 139 140
f 114 136 115
f 113 135 133
f 113 134 135
f 113 132 134
f 113 133 114
f 112 132 113
f 112 131 132
f 114 133 136
f 112 130 131
f 120 140 133
f 121 141 142
f 50 62 51
f 135 143 142
f 134 143 135
f 133 137 136
f 133 140 137
f 133 135 141
f 121 133 141
f 132 144 134
f 123 145 124
f 122 134 144
f 122 143 134
f 122 145 123
f 121 143 122
f 121 142 143
f 124 145 125
f 111 129 130
f 111 130 112
f 108 111 110
f 99 118 100
f 97 115 116
f 97 117 98
f 97 116 117
f 96 115 97
f 96 114 115
f 100 118 101
f 95 114 96
f 95 112 113
f 95 111 112
f 94 111 95
f 93 111 94
f 93 110 111
f 93 108 110
f 95 113 114
f 101 119 120
f 101 120 103
f 101 103 102
f 108 129 111
f 106 127 107
f 105 128 127
f 105 125 128
f 105 126 125
f 105 127 106
f 104 126 105
f 103 120 121
f 103 126 104
f 103 125 126
f 103 124 125
f 103 123 124
f 103 122 123
f 103 121 122
f 101 118 119
f 92 109 93
f 50 74 62
f 4 12 6
f 47 54 48
f 4 17 32
f 4 10 17
f 4 9 10
f 3 9 4
f 3 8 9
f 3 7 8
f 4 32 30
f 2 6 5
f 1 4 6
f 1 3 4
f 1 7 3
f 1 13 7
f 1 22 13
f 1 23 22
f 1 6 2
f 1 38 23
f 4 30 29
f 4 44 53
f 4 68 56
f 4 83 68
f 4 99 83
f 4 118 99
f 4 119 118
f 4 139 119
f 4 29 44
f 4 140 139
f 4 138 137
f 4 117 138
f 4 98 117
f 4 81 98
f 4 66 81
f 4 53 66
f 4 137 140
f 4 56 46
f 1 40 39
f 1 42 41
f 1 90 89
f 1 82 90
f 1 67 82
f 1 54 67
f 1 48 54
f 1 49 48
f 1 89 88
f 1 45 49
f 1 33 34
f 1 19 33
f 1 11 19
f 1 5 11
f 1 2 5
f 50 61 74
f 1 34 45
f 1 41 40
f 1 88 107
f 1 127 128
f 1 50 42
f 1 61 50
f 1 73 61
f 1 91 73
f 1 108 91
f 1 129 108
f 1 107 127
f 1 130 129
f 1 132 131
f 1 144 132
f 1 122 144
f 1 145 122
f 1 125 145
f 1 128 125
f 1 131 130
f 4 46 37
f 1 39 38
f 4 36 35
f 29 43 44
f 28 43 29
f 27 43 28
f 27 42 43
f 27 41 42
f 27 40 41
f 37 46 55
f 26 31 40
f 25 40 31
f 25 39 40
f 24 39 25
f 24 38 39
f 23 38 24
f 20 37 34
f 26 40 27
f 37 55 47
f 37 47 48
f 37 48 49
f 47 55 54
f 4 37 36
f 46 60 54
f 46 59 60
f 46 58 59
f 46 57 58
f 46 56 57
f 46 54 55
f 44 63 53
f 44 52 63
f 43 52 44
f 43 51 52
f 43 50 51
f 42 50 43
f 37 49 45
f 20 36 37
f 20 35 36
f 34 37 45
f 20 21 35
f 12 21 20
f 12 20 18
f 11 12 18
f 11 18 19
f 10 16 17
f 9 15 10
f 13 22 14
f 9 14 15
f 7 14 9
f 7 13 14
f 5 12 11
f 5 6 12
f 4 21 12
f 4 35 21
f 7 9 8
f 14 22 23
f 10 15 16
f 15 31 26
f 18 20 19
f 16 30 32
f 16 32 17
f 20 34 33
f 15 25 31
f 14 23 24
f 15 30 16
f 15 28 29
f 15 27 28
f 15 26 27
f 14 25 15
f 14 24 25
f 15 29 30
f 19 20 33