# https://github.com/mikedh/trimesh
v 0.05289770 -0.57235000 0.32212400
v 0.07405040 -0.57235000 0.31714100
v -0.03171300 -0.57235000 0.32212400
v 0.10048300 -0.74587600 0.29357000
v 0.07613050 -0.57235000 0.31632100
v -0.04230540 -0.57235000 0.32094400
v -0.10048300 -0.74587600 0.29357000
v -0.00000000 -0.76177200 0.28563600
v -0.00000000 -0.77582400 0.27858800
v 0.04230540 -0.81813500 0.24685400
v 0.06345800 -0.82873300 0.23626500
v 0.07405040 -0.82166800 0.23980500
v 0.07933060 -0.82253100 0.23803500
v 0.08992290 -0.81727200 0.23803500
v 0.10579500 -0.75117500 0.28563600
v 0.11987600 -0.73708400 0.27858800
v 0.08358670 -0.57235000 0.31261700
v 0.08109060 -0.57486200 0.31386200
v 0.08109060 -0.57235000 0.31386200
v -0.06451410 -0.57235000 0.31684600
v -0.11987600 -0.74061600 0.27858800
v -0.10579500 -0.75117500 0.28563600
v -0.08992290 -0.81990200 0.23537900
v -0.07933060 -0.81990200 0.24065800
v -0.06345800 -0.82873300 0.23626500
v -0.04230540 -0.81813500 0.24685400
v -0.08358670 -0.57235000 0.31048600
v -0.08566680 -0.57235000 0.30943700
v -0.09837120 -0.57235000 0.29979800
v 0.01056030 -0.95566800 0.14109500
v 0.02643290 -0.95480500 0.13227600
v 0.10048300 -0.81727200 0.22744600
v 0.12163600 -0.74854500 0.26976900
v 0.12342800 -0.74410900 0.27153900
v 0.14282100 -0.69563500 0.23803500
v 0.13274000 -0.57235000 0.26344200
v 0.13014800 -0.57235000 0.26675300
v 0.11987600 -0.57235000 0.27858800
v 0.10931600 -0.58895300 0.28917700
v 0.09872320 -0.57839500 0.29973300
v 0.08688280 -0.57235000 0.30999400
v -0.12342800 -0.74061600 0.27153900
v -0.12342800 -0.74764200 0.26799900
v -0.12163600 -0.74587600 0.27242400
v -0.11635600 -0.74854500 0.27639100
v -0.10931600 -0.58188800 0.28917700
v -0.11987600 -0.57235000 0.27858800
v -0.13037200 -0.57235000 0.26750700
v -0.13082000 -0.57235000 0.26678600
v -0.14544500 -0.69300600 0.23803500
v -0.10048300 -0.81990200 0.22479000
v -0.02643290 -0.95743400 0.12962100
v -0.01584050 -0.95743400 0.13489900
v -0.01056030 -0.95213600 0.14152100
v -0.00000000 -0.95566800 0.14109500
v -0.10931600 -0.57235000 0.28917700
v -0.00000000 -0.96626600 0.13050600
v 0.01056030 -0.96669800 0.12696500
v 0.01584050 -0.96010300 0.13227600
v 0.02643290 -0.96010300 0.12168700
v 0.10931600 -0.81813500 0.21157900
v 0.10579500 -0.81460300 0.22216800
v 0.11107600 -0.81197300 0.21685700
v 0.12694800 -0.74061600 0.26449100
v 0.11283600 -0.80757700 0.21862700
v 0.13488400 -0.78418400 0.19043400
v 0.14634100 -0.68947300 0.23098700
v 0.14474100 -0.57235000 0.24046100
v 0.13398800 -0.57486200 0.26095000
v 0.10931600 -0.57235000 0.28917700
v 0.09872320 -0.57235000 0.29973300
v -0.12694800 -0.74061600 0.26449100
v -0.14544500 -0.77233000 0.17056700
v -0.13488400 -0.78288900 0.19174500
v -0.13222800 -0.78814800 0.19305600
v -0.11107600 -0.80934300 0.21423400
v -0.13408400 -0.57235000 0.26039300
v -0.14784500 -0.57235000 0.23285500
v -0.15603700 -0.57235000 0.21184100
v -0.15869300 -0.57235000 0.19994100
v -0.15869300 -0.67710900 0.16925600
v -0.14810100 -0.76177200 0.16925600
v -0.10224300 -0.82166800 0.21511900
v -0.13222800 -0.79874600 0.17191100
v -0.02819290 -0.95920100 0.11991700
v -0.00704023 -0.96979800 0.11991700
v -0.02115270 -0.96010300 0.12831000
v -0.00528017 -0.96803200 0.12434300
v -0.00000000 -0.96979800 0.12345800
v 0.00528017 -0.97066200 0.12168700
v -0.00000000 -0.97333100 0.11637700
v 0.02115270 -0.96273300 0.10582000
v 0.02819290 -0.95920100 0.10582000
v 0.02819290 -0.95920100 0.11637700
v 0.13398800 -0.80051200 0.15866700
v 0.13222800 -0.80137600 0.16397800
v 0.13488400 -0.79478200 0.16925600
v 0.14544500 -0.77362600 0.16925600
v 0.14810100 -0.76177200 0.16925600
v 0.15869300 -0.67710900 0.16925600
v 0.15869300 -0.57235000 0.19994100
v 0.15610100 -0.57235000 0.21157900
v 0.15603700 -0.57235000 0.21184100
v 0.14787700 -0.57235000 0.23272400
v 0.14704500 -0.57235000 0.23482200
v -0.14810100 -0.77233000 0.15866700
v -0.14458100 -0.77935600 0.16220700
v -0.14282100 -0.77759000 0.17191100
v -0.13398800 -0.78991400 0.18335300
v -0.16346100 -0.57235000 0.16820700
v -0.15869300 -0.67710900 0.13755400
v -0.14106100 -0.78642100 0.15515900
v -0.02819290 -0.95920100 0.10932800
v -0.02115270 -0.96273300 0.11637700
v -0.00000000 -0.96273300 0.08464240
v 0.01187240 -0.96010300 0.08464240
v 0.02246470 -0.96010300 0.09523140
v -0.02115270 -0.96273300 0.10582000
v -0.02643290 -0.95743400 0.08995330
v -0.01584050 -0.95743400 0.07936430
v 0.02908890 -0.95743400 0.10050900
v 0.13488400 -0.79874600 0.15342200
v 0.14106100 -0.78642100 0.15866700
v 0.14810100 -0.77233000 0.15866700
v 0.15869300 -0.67710900 0.13755400
v 0.16346100 -0.57235000 0.16925600
v -0.14810100 -0.77233000 0.13755400
v -0.16346100 -0.57235000 0.13650500
v -0.15869300 -0.66655100 0.12696500
v -0.14810100 -0.76177200 0.11637700
v -0.14106100 -0.78642100 0.13401400
v -0.03526510 -0.94511000 0.09169080
v 0.00352011 -0.95920100 0.07759400
v -0.00352011 -0.95566800 0.07054560
v 0.01321640 -0.95743400 0.07936430
v 0.02377680 -0.95743400 0.08995330
v -0.02643290 -0.94687600 0.06877530
v 0.02377680 -0.94687600 0.06877530
v 0.02908890 -0.94687600 0.07936430
v 0.03568120 -0.94157700 0.08464240
v 0.14147700 -0.78288900 0.12696500
v 0.14106100 -0.78642100 0.13755400
v 0.14810100 -0.77233000 0.13755400
v 0.15869300 -0.66655100 0.12696500
v 0.16346100 -0.57235000 0.13755400
v -0.14282100 -0.77759000 0.12168700
v -0.16080500 -0.57235000 0.12486700
v -0.14810100 -0.67710900 0.07408620
v -0.14282100 -0.75647300 0.10050900
v -0.14106100 -0.76526500 0.10228000
v -0.13222800 -0.77759000 0.08995330
v -0.13926800 -0.77405700 0.10405000
v -0.14106100 -0.77582400 0.11286900
v -0.14282100 -0.69300600 0.06877530
v -0.03702520 -0.93627900 0.07936430
v 0.01408050 -0.94864200 0.06700510
v -0.00704023 -0.94864200 0.06700510
v -0.03702520 -0.91512300 0.05821920
v -0.03702520 -0.89396700 0.04763020
v -0.02643290 -0.90452500 0.04763020
v -0.01408050 -0.93451200 0.05995670
v 0.02377680 -0.90452500 0.04763020
v 0.03436910 -0.89396700 0.04763020
v 0.03436910 -0.91512300 0.05821920
v 0.13091600 -0.78288900 0.09523140
v 0.13488400 -0.78814800 0.11109800
v 0.14544500 -0.77759000 0.13227600
v 0.14810100 -0.76177200 0.12696500
v 0.14810100 -0.67710900 0.07408620
v 0.16224500 -0.57235000 0.12696500
v 0.14810100 -0.74061600 0.10582000
v -0.15552500 -0.57235000 0.10477100
v -0.14810100 -0.66655100 0.07408620
v -0.14458100 -0.67357700 0.06700510
v -0.14106100 -0.68064200 0.05995670
v -0.13222800 -0.73531700 0.06877530
v -0.13222800 -0.75647300 0.07936430
v -0.11107600 -0.75647300 0.04763020
v -0.08992290 -0.78814800 0.03704120
v -0.07933060 -0.80934300 0.03704120
v -0.13222800 -0.69300600 0.04763020
v 0.01056030 -0.89926600 0.04231930
v 0.01408050 -0.90629100 0.04585990
v -0.01056030 -0.89926600 0.04231930
v -0.06873820 -0.80934300 0.02645230
v -0.01408050 -0.91335600 0.04940050
v -0.03702520 -0.80934300 0.01589610
v 0.02246470 -0.89926600 0.04497480
v 0.04496140 -0.80934300 0.01589610
v 0.06611410 -0.80934300 0.02645230
v 0.07757050 -0.79344700 0.02822260
v 0.07667450 -0.80934300 0.03704120
v 0.08857890 -0.79344700 0.04231930
v 0.09917120 -0.77233000 0.04231930
v 0.13488400 -0.76703200 0.08995330
v 0.13488400 -0.77759000 0.10050900
v 0.14544500 -0.75647300 0.11109800
v 0.14544500 -0.68240800 0.06877530
v 0.14458100 -0.67710900 0.06700510
v 0.14810100 -0.66655100 0.07408620
v 0.15168500 -0.57235000 0.09523140
v 0.14544500 -0.74587600 0.10050900
v -0.15021300 -0.57235000 0.09310050
v -0.14458100 -0.66301900 0.06700510
v -0.14106100 -0.67008400 0.05995670
v -0.13046800 -0.68064200 0.03881150
v -0.12870800 -0.71062900 0.05113800
v -0.11107600 -0.71416200 0.02645230
v -0.10931600 -0.74410900 0.03881150
v -0.08816280 -0.77582400 0.02822260
v -0.07757050 -0.79698000 0.02822260
v 0.03171300 -0.80404500 0.01058520
v -0.02115270 -0.80404500 0.01058520
v -0.05817790 -0.78814800 0.01589610
v -0.07933060 -0.78814800 0.02645230
v -0.08992290 -0.72472000 0.01589610
v -0.05289770 -0.77233000 0.01058520
v 0.04361740 -0.80404500 0.01324060
v 0.06477010 -0.80404500 0.02382960
v 0.08816280 -0.77233000 0.02822260
v 0.08198660 -0.79874600 0.03704120
v 0.13488400 -0.73531700 0.06877530
v 0.09254700 -0.77759000 0.03704120
v 0.11987600 -0.71942100 0.03881150
v 0.12429200 -0.72472000 0.04763020
v 0.13488400 -0.68240800 0.04763020
v 0.14106100 -0.67710900 0.05995670
v 0.14458100 -0.66655100 0.06700510
v 0.14758900 -0.57235000 0.08359330
v -0.13965300 -0.57235000 0.07195530
v -0.13398800 -0.65242100 0.04585990
v -0.13046800 -0.65948600 0.03881150
v -0.10931600 -0.69123900 0.01763360
v -0.11987600 -0.69123900 0.02822260
v -0.10931600 -0.72295400 0.02822260
v 0.01056030 -0.64539500 -0.01055990
v 0.03171300 -0.63479800 -0.01055990
v 0.04230540 -0.79344700 0.01058520
v -0.06345800 -0.68770700 0.00002902
v -0.02115270 -0.63479800 -0.01055990
v -0.00000000 -0.64539500 -0.01055990
v -0.10048300 -0.70356400 0.01589610
v -0.09520310 -0.68770700 0.01058520
v -0.07933060 -0.69300600 0.00530711
v -0.07405040 -0.67710900 0.00002902
v 0.05289770 -0.77233000 0.01058520
v 0.05420970 -0.78288900 0.01324060
v 0.07536240 -0.78288900 0.02382960
v 0.10931600 -0.68770700 0.01763360
v 0.11987600 -0.69826500 0.02822260
v 0.12429200 -0.70356400 0.03704120
v 0.13091600 -0.68770700 0.04231930
v 0.13046800 -0.67710900 0.03881150
v 0.14106100 -0.66655100 0.05995670
v 0.14474100 -0.57235000 0.07795460
v 0.13046800 -0.66655100 0.03881150
v -0.13222800 -0.57235000 0.05821920
v -0.10931600 -0.65948600 0.01763360
v -0.10979600 -0.57235000 0.02773080
v -0.09923520 -0.57235000 0.01714180
v -0.07757050 -0.57486200 -0.00351156
v -0.05910590 -0.57348900 -0.01272360
v 0.02953700 -0.60928500 -0.01272360
v 0.04121730 -0.60492800 -0.01272360
v 0.04307340 -0.60304400 -0.01272360
v 0.07405040 -0.67710900 0.00002902
v 0.07536240 -0.68770700 0.00265168
v -0.04012930 -0.60088500 -0.01272360
v -0.02736090 -0.60928500 -0.01272360
v -0.05507380 -0.58161300 -0.01272360
v -0.05072160 -0.59028800 -0.01272360
v 0.07536240 -0.74061600 0.01324060
v 0.09520310 -0.68770700 0.01058520
v 0.08595480 -0.71942100 0.01324060
v 0.09651510 -0.69826500 0.01324060
v 0.05763390 -0.57235000 -0.01272360
v 0.10931600 -0.65595300 0.01763360
v 0.14070900 -0.57235000 0.07090630
v 0.11987600 -0.65595300 0.02822260
v 0.11952400 -0.57235000 0.03917210
v 0.12960400 -0.57235000 0.05185920
v -0.07757050 -0.57235000 -0.00351156
v -0.06137800 -0.57235000 -0.01160900
v -0.05910590 -0.57235000 -0.01272360
v 0.04851360 -0.59248600 -0.01272360
v 0.08816280 -0.57235000 0.00707741
v 0.09872320 -0.57235000 0.01763360
v 0.10934800 -0.57235000 0.02858320
f 171 197 202
f 165 194 195
f 165 195 196
f 165 196 166
f 166 196 197
f 166 197 167
f 169 228 200
f 169 198 199
f 169 199 228
f 169 200 170
f 169 171 198
f 170 200 201
f 168 197 171
f 165 193 194
f 162 183 188
f 164 192 165
f 158 185 159
f 171 202 198
f 159 185 160
f 160 184 186
f 160 186 161
f 160 185 187
f 160 187 184
f 161 186 184
f 158 180 185
f 162 188 189
f 162 189 163
f 163 189 190
f 163 190 164
f 164 190 191
f 164 191 192
f 165 192 193
f 172 203 173
f 182 213 212
f 174 204 205
f 184 187 213
f 185 214 187
f 185 211 210
f 185 210 215
f 185 215 216
f 185 216 214
f 182 184 213
f 187 214 217
f 188 218 189
f 189 218 190
f 190 218 219
f 190 219 191
f 157 161 184
f 191 219 220
f 187 217 213
f 182 188 183
f 182 218 188
f 182 212 218
f 174 205 175
f 175 205 232
f 175 232 206
f 176 181 207
f 176 207 208
f 176 208 178
f 176 178 177
f 178 209 210
f 178 210 179
f 178 208 235
f 178 235 209
f 179 210 180
f 180 210 211
f 180 211 185
f 181 206 207
f 173 203 204
f 156 184 182
f 137 159 160
f 156 182 183
f 132 155 137
f 133 134 156
f 133 156 138
f 133 138 135
f 134 137 157
f 134 157 156
f 131 155 132
f 135 138 136
f 137 160 161
f 137 161 157
f 137 155 151
f 137 151 158
f 138 140 139
f 138 156 183
f 137 158 159
f 138 183 162
f 131 146 155
f 130 148 154
f 191 220 192
f 125 144 145
f 125 143 168
f 125 168 144
f 127 146 131
f 127 130 146
f 130 154 149
f 128 147 148
f 129 148 130
f 130 149 150
f 130 150 151
f 130 151 152
f 130 152 153
f 130 153 146
f 128 148 129
f 156 157 184
f 138 162 163
f 138 164 165
f 148 175 154
f 149 176 177
f 149 177 151
f 149 151 150
f 149 154 176
f 151 177 178
f 148 174 175
f 151 178 179
f 151 180 158
f 151 155 152
f 152 155 153
f 154 175 206
f 154 206 181
f 154 181 176
f 151 179 180
f 138 163 164
f 148 204 174
f 147 173 148
f 138 165 140
f 140 165 166
f 140 166 141
f 141 166 167
f 141 167 142
f 142 167 143
f 148 173 204
f 143 167 197
f 144 169 170
f 144 170 145
f 144 168 171
f 144 171 169
f 146 153 155
f 147 172 173
f 143 197 168
f 192 220 221
f 239 268 240
f 192 194 193
f 240 268 269
f 240 269 241
f 243 262 245
f 243 245 244
f 245 262 270
f 245 270 271
f 239 271 268
f 246 272 247
f 246 273 272
f 247 272 248
f 248 272 274
f 248 274 275
f 249 275 273
f 249 273 276
f 246 267 273
f 249 276 277
f 239 245 271
f 238 266 267
f 232 259 260
f 232 260 258
f 233 258 282
f 233 282 261
f 233 261 262
f 233 262 243
f 238 267 246
f 233 243 242
f 236 269 263
f 236 263 264
f 236 264 237
f 237 264 265
f 237 265 266
f 237 266 238
f 236 241 269
f 232 257 259
f 249 277 256
f 249 253 250
f 262 268 271
f 262 271 270
f 265 285 266
f 266 285 276
f 266 276 273
f 266 273 267
f 262 269 268
f 272 273 274
f 276 286 277
f 277 286 287
f 277 287 279
f 279 287 288
f 279 288 280
f 123 143 124
f 273 275 274
f 249 256 253
f 262 263 269
f 262 265 264
f 250 253 252
f 250 252 251
f 255 256 278
f 256 277 279
f 256 279 280
f 256 280 281
f 262 264 263
f 256 281 278
f 261 282 283
f 261 283 262
f 262 283 284
f 262 284 276
f 262 276 285
f 262 285 265
f 258 260 282
f 192 221 194
f 231 257 232
f 229 256 255
f 203 231 204
f 204 231 232
f 204 232 205
f 206 232 258
f 206 258 233
f 206 233 234
f 203 230 231
f 206 234 208
f 208 234 233
f 208 233 210
f 208 210 235
f 209 235 210
f 210 233 215
f 212 236 237
f 206 208 207
f 212 237 238
f 200 229 201
f 199 254 228
f 194 222 195
f 194 221 223
f 194 223 220
f 194 220 224
f 194 224 225
f 194 225 222
f 200 228 229
f 195 222 202
f 195 197 196
f 198 226 227
f 198 227 199
f 198 202 222
f 198 222 226
f 199 227 254
f 195 202 197
f 230 257 231
f 212 238 218
f 212 241 236
f 220 275 249
f 220 249 250
f 220 250 224
f 222 225 251
f 222 251 252
f 222 252 226
f 220 248 275
f 224 250 251
f 226 253 227
f 226 252 253
f 227 253 256
f 227 256 254
f 228 254 229
f 229 254 256
f 224 251 225
f 212 213 241
f 220 223 221
f 218 248 219
f 213 217 239
f 213 239 240
f 213 240 241
f 214 216 217
f 215 233 242
f 215 242 216
f 219 248 220
f 216 242 243
f 217 243 244
f 217 244 245
f 217 245 239
f 218 238 246
f 218 246 247
f 218 247 248
f 216 243 217
f 123 142 143
f 30 57 58
f 121 142 122
f 16 39 40
f 16 70 39
f 16 38 70
f 16 37 38
f 16 36 37
f 16 35 36
f 16 34 35
f 15 32 33
f 15 34 16
f 15 33 34
f 14 32 15
f 14 31 32
f 14 30 31
f 13 30 14
f 11 30 13
f 11 13 12
f 10 30 11
f 7 21 22
f 7 22 23
f 7 23 24
f 7 24 25
f 7 25 26
f 7 26 9
f 16 40 41
f 7 9 8
f 7 27 28
f 7 28 29
f 7 29 21
f 9 26 10
f 10 26 55
f 10 55 30
f 7 20 27
f 16 41 17
f 17 19 18
f 21 42 43
f 25 55 26
f 29 56 46
f 30 55 57
f 122 142 123
f 30 58 59
f 30 59 31
f 24 55 25
f 31 59 58
f 31 60 61
f 31 61 32
f 32 61 62
f 32 62 33
f 33 62 63
f 33 63 34
f 31 58 60
f 6 20 7
f 24 54 55
f 23 53 24
f 21 43 44
f 21 44 45
f 21 45 22
f 21 29 46
f 21 46 56
f 21 56 47
f 24 53 54
f 21 47 48
f 21 49 50
f 21 50 42
f 22 45 51
f 22 51 23
f 23 51 52
f 23 52 53
f 21 48 49
f 4 18 5
f 4 17 18
f 4 16 17
f 1 170 201
f 1 201 229
f 1 229 255
f 1 255 278
f 1 278 281
f 1 281 280
f 1 145 170
f 1 280 288
f 1 287 286
f 1 286 276
f 1 276 284
f 1 284 283
f 1 283 282
f 1 282 260
f 1 288 287
f 1 260 259
f 1 126 145
f 1 102 101
f 1 2 5
f 1 5 19
f 1 19 17
f 1 17 41
f 1 41 71
f 1 71 70
f 1 101 126
f 1 70 38
f 1 37 36
f 1 36 68
f 1 68 105
f 1 105 104
f 1 104 103
f 1 103 102
f 1 38 37
f 34 64 35
f 1 259 257
f 1 230 203
f 1 3 7
f 1 7 4
f 1 4 2
f 2 4 5
f 3 6 7
f 4 7 8
f 1 6 3
f 4 8 9
f 4 10 11
f 4 11 12
f 4 12 13
f 4 13 14
f 4 14 15
f 4 15 16
f 4 9 10
f 1 257 230
f 1 20 6
f 1 28 27
f 1 203 172
f 1 172 147
f 1 147 128
f 1 128 110
f 1 110 80
f 1 80 79
f 1 27 20
f 1 79 78
f 1 77 49
f 1 49 48
f 1 48 47
f 1 47 56
f 1 56 29
f 1 29 28
f 1 78 77
f 34 63 65
f 5 18 19
f 34 66 64
f 86 88 87
f 89 91 90
f 91 115 116
f 91 116 117
f 91 117 92
f 91 114 118
f 86 89 88
f 91 118 119
f 91 120 115
f 92 117 93
f 93 117 121
f 93 121 95
f 93 95 94
f 95 123 97
f 91 119 120
f 95 97 96
f 86 91 89
f 85 112 131
f 80 110 81
f 81 110 128
f 81 128 111
f 81 111 127
f 81 127 106
f 81 106 82
f 85 131 113
f 83 84 85
f 84 107 112
f 84 112 85
f 85 113 118
f 85 118 114
f 85 114 91
f 85 91 86
f 84 109 107
f 75 84 76
f 95 121 122
f 97 124 98
f 115 134 133
f 116 133 135
f 116 135 117
f 117 135 136
f 117 136 121
f 119 132 137
f 115 120 134
f 119 137 120
f 121 136 138
f 121 138 139
f 121 139 140
f 121 140 141
f 121 141 142
f 34 65 66
f 120 137 134
f 97 123 124
f 115 133 116
f 113 119 118
f 98 124 99
f 99 124 100
f 100 125 145
f 100 145 126
f 100 126 101
f 100 124 143
f 113 131 132
f 100 143 125
f 106 131 112
f 106 112 107
f 111 128 129
f 111 129 130
f 111 130 127
f 113 132 119
f 106 127 131
f 75 109 84
f 95 122 123
f 35 68 69
f 50 77 78
f 50 79 80
f 50 80 81
f 50 81 82
f 50 82 73
f 50 73 72
f 49 77 50
f 51 83 52
f 51 84 83
f 52 85 86
f 52 86 87
f 52 87 57
f 52 57 53
f 52 83 85
f 51 76 84
f 53 57 55
f 44 51 45
f 43 76 51
f 35 67 68
f 75 107 109
f 35 69 36
f 35 64 67
f 36 69 68
f 39 70 71
f 43 51 44
f 39 71 40
f 42 72 43
f 42 50 72
f 43 72 73
f 43 73 74
f 43 74 75
f 43 75 76
f 40 71 41
f 53 55 54
f 50 78 79
f 57 88 89
f 64 99 67
f 66 97 98
f 67 100 101
f 67 101 102
f 67 102 103
f 67 103 104
f 67 104 105
f 67 105 68
f 67 99 100
f 73 106 107
f 73 107 108
f 73 108 74
f 73 82 106
f 57 87 88
f 75 108 107
f 64 98 99
f 64 66 98
f 74 108 75
f 61 63 62
f 63 66 65
f 57 89 90
f 57 90 58
f 58 90 60
f 60 90 91
f 60 92 93
f 60 93 94
f 60 91 92
f 60 95 96
f 60 96 61
f 61 96 97
f 61 97 66
f 61 66 63
f 60 94 95