# https://github.com/mikedh/trimesh
v 0.16922100 -0.10103700 -0.01275640
v 0.28347000 -0.33423100 -0.01275640
v 0.16922100 -0.10103700 -0.02116700
v -0.16922100 -0.10103700 -0.01275640
v 0.28514800 -0.33856000 -0.01275640
v 0.28565100 -0.34915700 -0.04232220
v 0.28207200 -0.34209200 -0.04585000
v 0.28207200 -0.33154400 -0.01411150
v 0.16732000 -0.10103700 -0.02500830
v 0.28207200 -0.35269000 -0.06700520
v 0.27150300 -0.34209200 -0.08816050
v 0.26976900 -0.34388300 -0.09785900
v 0.26171700 -0.34821200 -0.12716700
v 0.25757800 -0.34060000 -0.12716700
v -0.16922100 -0.10103700 -0.02116700
v -0.27502600 -0.31741500 -0.01275640
v 0.28565100 -0.34074900 -0.01275640
v 0.28565100 -0.35970500 -0.06348870
v 0.15675000 -0.10103700 -0.04617480
v 0.28296700 -0.35970500 -0.07537100
v 0.28033900 -0.35443100 -0.07669250
v 0.27228600 -0.36930700 -0.12716700
v 0.23800600 -0.31214100 -0.12716700
v 0.14103600 -0.10103700 -0.07757730
v 0.14265800 -0.10103700 -0.07437430
v 0.14618100 -0.10103700 -0.06733000
v -0.16636900 -0.10103700 -0.02693460
v -0.26171700 -0.34776400 -0.12716700
v -0.26182800 -0.34781400 -0.12695400
v -0.27239800 -0.34781400 -0.09521600
v -0.28296700 -0.34781400 -0.05290550
v -0.27239800 -0.31607100 -0.03175020
v -0.27502600 -0.31741500 -0.02116700
v -0.28509200 -0.33831100 -0.01275640
v 0.28565100 -0.40199500 -0.01275640
v 0.28565100 -0.37025300 -0.07404950
v 0.28296700 -0.37025300 -0.08595420
v 0.27262100 -0.37025300 -0.12716700
v 0.21697900 -0.28587100 -0.12716700
v 0.11989800 -0.10103700 -0.09873250
v 0.13046700 -0.10103700 -0.08816050
v -0.15580000 -0.10103700 -0.04808980
v -0.24678500 -0.32452900 -0.12716700
v -0.27228600 -0.36890900 -0.12716700
v -0.15160600 -0.10103700 -0.05643320
v -0.13046700 -0.10103700 -0.08816050
v -0.27239800 -0.36895900 -0.12695400
v -0.28565100 -0.34915700 -0.04232220
v -0.28565100 -0.34074900 -0.01275640
v 0.28565100 -0.40199500 -0.07404950
v 0.27502600 -0.43373800 -0.01275640
v 0.28565100 -0.38085000 -0.08463270
v 0.27463500 -0.37915900 -0.12716700
v 0.21418300 -0.28308500 -0.12716700
v 0.04227730 -0.10103700 -0.12695400
v 0.08461050 -0.10103700 -0.11637100
v 0.10194600 -0.10103700 -0.10771400
v -0.24057800 -0.31602100 -0.12716700
v -0.11989800 -0.10103700 -0.09873250
v -0.27491400 -0.38075100 -0.12716700
v -0.27502600 -0.38085000 -0.12695400
v -0.27502600 -0.37025300 -0.11637100
v -0.28565100 -0.37025300 -0.06348870
v -0.28565100 -0.40199500 -0.01275640
v 0.27502600 -0.41259300 -0.11637100
v 0.28565100 -0.39144800 -0.08463270
v 0.27502600 -0.43373800 -0.06348870
v 0.27239800 -0.43901200 -0.06877470
v 0.27239800 -0.42846400 -0.10050200
v 0.27239800 -0.41786700 -0.12165700
v 0.26798000 -0.44786800 -0.01275640
v 0.27502600 -0.38085000 -0.12695400
v 0.27491400 -0.38085000 -0.12716700
v 0.21133100 -0.28029800 -0.12716700
v 0.20803100 -0.27860700 -0.12716700
v 0.16905300 -0.25910400 -0.12716700
v 0.15909900 -0.25412800 -0.12716700
v 0.15865200 -0.25392900 -0.12716700
v -0.03170800 -0.10103700 -0.12695400
v -0.21507700 -0.28223900 -0.12716700
v -0.11156500 -0.10103700 -0.10291000
v -0.27491400 -0.40189600 -0.12716700
v -0.27502600 -0.40199500 -0.12695400
v -0.28565100 -0.39144800 -0.08463270
v -0.27502600 -0.43373800 -0.01275640
v -0.28565100 -0.40199500 -0.07404950
v 0.27502600 -0.40199500 -0.12695400
v 0.26842700 -0.44433600 -0.07404950
v 0.26798000 -0.44786800 -0.06348870
v 0.26798000 -0.43727100 -0.09521600
v 0.26842700 -0.42314100 -0.12695400
v 0.27491400 -0.40219400 -0.12716700
v 0.24684100 -0.47961100 -0.01275640
v -0.14808200 -0.25392900 -0.12716700
v -0.15887500 -0.25402900 -0.12716700
v -0.20098500 -0.27507400 -0.12716700
v -0.20803100 -0.27860700 -0.12716700
v -0.07980120 -0.10103700 -0.11637100
v -0.10574900 -0.10103700 -0.10578800
v -0.09059420 -0.10103700 -0.11297800
v -0.08461050 -0.10103700 -0.11530700
v -0.27485800 -0.40219400 -0.12716700
v -0.27228600 -0.41279200 -0.12716700
v -0.27329300 -0.41080200 -0.12518500
v -0.27502600 -0.41259300 -0.11637100
v -0.27396400 -0.43592700 -0.01275640
v -0.27502600 -0.43373800 -0.05290550
v -0.27502600 -0.42314100 -0.09521600
v 0.25741100 -0.45841600 -0.07404950
v 0.24684100 -0.47961100 -0.03175020
v 0.25741100 -0.43727100 -0.12695400
v 0.26837100 -0.42294200 -0.12716700
v 0.26814800 -0.42338900 -0.12716700
v 0.23526500 -0.49000900 -0.01275640
v -0.26976900 -0.42846400 -0.11108500
v -0.26652600 -0.42523000 -0.12716700
v -0.26798000 -0.44786800 -0.05643320
v -0.26798000 -0.44786800 -0.01411150
v -0.26865100 -0.44647500 -0.01275640
v -0.26798000 -0.43727100 -0.09873250
v 0.24684100 -0.45841600 -0.10578800
v 0.23627200 -0.47961100 -0.06348870
v 0.21507700 -0.50075600 -0.03175020
v 0.25735500 -0.43722100 -0.12716700
v 0.04121480 -0.60489000 -0.01275640
v -0.25808200 -0.43791700 -0.12716700
v -0.25920000 -0.43901200 -0.12165700
v -0.26624600 -0.43552900 -0.10755700
v -0.25741100 -0.45841600 -0.07757730
v -0.24684100 -0.47961100 -0.02469470
v -0.24684100 -0.47961100 -0.01275640
v -0.25741100 -0.44786800 -0.10931600
v 0.24684100 -0.44786800 -0.12695400
v 0.22564700 -0.47961100 -0.09521600
v 0.22564700 -0.46901300 -0.12695400
v 0.23627200 -0.45841600 -0.12695400
v 0.24678500 -0.44776900 -0.12716700
v 0.02952700 -0.60921800 -0.01275640
v 0.17984600 -0.49717400 -0.12716700
v 0.19365900 -0.49025800 -0.12716700
v 0.19393900 -0.49015800 -0.12695400
v -0.24751200 -0.44851500 -0.12716700
v -0.24684100 -0.46901300 -0.07757730
v -0.23627200 -0.47961100 -0.06700520
v -0.23627200 -0.49015800 -0.01411150
v -0.23627200 -0.49015800 -0.01275640
v -0.23627200 -0.46901300 -0.10931600
v 0.21507700 -0.47961100 -0.11637100
v 0.22542300 -0.46906300 -0.12716700
v 0.22559100 -0.46891400 -0.12716700
v 0.19382700 -0.49015800 -0.12716700
v 0.17962300 -0.49722300 -0.12716700
v -0.02734600 -0.60921800 -0.01275640
v -0.22631800 -0.46966000 -0.12716700
v -0.22564700 -0.47961100 -0.09873250
v -0.21507700 -0.49015800 -0.08816050
v -0.22564700 -0.49015800 -0.05643320
v -0.20450800 -0.50075600 -0.06700520
v -0.21507700 -0.50075600 -0.02469470
v -0.19567200 -0.51309500 -0.01586980
v -0.20193600 -0.50996000 -0.01275640
v -0.21507700 -0.47961100 -0.12716700
v -0.16922100 -0.49722300 -0.12716700
v -0.20629800 -0.49195000 -0.10050200
v -0.19567200 -0.49195000 -0.12165700
v -0.19461000 -0.49085500 -0.12716700
v -0.17979000 -0.49717400 -0.12716700
f 83 103 104
f 83 104 105
f 83 102 103
f 82 102 83
f 80 101 98
f 80 100 101
f 80 99 100
f 106 107 117
f 79 80 98
f 79 97 80
f 79 96 97
f 79 95 96
f 79 94 95
f 83 105 84
f 72 92 73
f 72 87 92
f 80 81 99
f 84 105 86
f 91 113 112
f 86 105 108
f 106 118 119
f 71 110 89
f 106 117 118
f 105 115 108
f 103 116 115
f 103 105 104
f 103 115 105
f 93 114 110
f 91 111 113
f 91 112 92
f 90 111 91
f 90 121 111
f 90 109 121
f 89 110 109
f 88 109 90
f 88 89 109
f 86 108 107
f 85 107 106
f 71 93 110
f 55 74 75
f 70 91 92
f 55 75 76
f 54 74 55
f 53 72 73
f 52 72 53
f 52 87 72
f 52 66 87
f 51 68 67
f 51 71 68
f 50 70 65
f 50 69 70
f 50 68 69
f 50 67 68
f 50 65 66
f 48 64 49
f 48 86 64
f 108 115 120
f 48 84 86
f 55 76 77
f 70 92 87
f 55 77 78
f 55 94 79
f 69 91 70
f 69 90 91
f 69 88 90
f 68 89 88
f 68 71 89
f 68 88 69
f 65 70 87
f 65 87 66
f 64 107 85
f 64 86 107
f 61 63 62
f 61 84 63
f 61 83 84
f 60 83 61
f 60 82 83
f 59 81 80
f 58 59 80
f 55 78 94
f 108 120 117
f 138 153 163
f 109 122 121
f 145 157 158
f 144 157 145
f 144 156 157
f 144 155 156
f 144 147 155
f 143 147 144
f 142 154 147
f 145 158 159
f 140 151 141
f 138 152 139
f 136 150 137
f 135 151 149
f 135 141 151
f 135 148 141
f 135 150 136
f 135 149 150
f 138 163 152
f 145 159 160
f 145 160 161
f 145 161 146
f 48 63 84
f 162 165 164
f 162 166 165
f 158 160 159
f 156 158 157
f 156 162 164
f 155 162 156
f 153 167 163
f 153 166 167
f 153 165 166
f 153 164 165
f 153 156 164
f 153 158 156
f 153 160 158
f 153 161 160
f 147 162 155
f 147 154 162
f 134 148 135
f 134 141 148
f 132 147 143
f 132 142 147
f 121 133 124
f 120 132 129
f 120 128 132
f 118 131 119
f 117 131 118
f 117 130 131
f 117 129 130
f 117 120 129
f 115 128 120
f 115 127 128
f 115 126 127
f 115 116 126
f 114 125 123
f 111 124 113
f 111 121 124
f 110 123 122
f 110 114 123
f 121 122 134
f 109 110 122
f 121 134 135
f 121 136 133
f 130 146 131
f 130 145 146
f 130 144 145
f 130 143 144
f 129 143 130
f 129 132 143
f 127 132 128
f 126 132 127
f 126 142 132
f 125 141 134
f 125 140 141
f 125 139 140
f 125 138 139
f 124 136 137
f 124 133 136
f 123 125 134
f 122 123 134
f 121 135 136
f 48 62 63
f 107 108 117
f 47 61 62
f 5 17 6
f 4 33 16
f 4 15 33
f 3 14 9
f 3 13 14
f 3 12 13
f 3 11 12
f 3 10 11
f 3 7 10
f 3 8 7
f 2 8 3
f 2 7 8
f 2 6 7
f 2 5 6
f 1 5 2
f 1 17 5
f 1 35 17
f 6 17 35
f 1 51 35
f 6 35 50
f 6 66 52
f 13 112 113
f 13 92 112
f 13 73 92
f 13 53 73
f 13 38 53
f 13 22 38
f 12 22 13
f 12 21 22
f 11 21 12
f 10 21 11
f 10 20 21
f 10 18 20
f 9 14 19
f 7 18 10
f 6 18 7
f 6 36 18
f 6 52 36
f 6 50 66
f 13 113 124
f 1 71 51
f 1 114 93
f 1 100 99
f 1 101 100
f 1 98 101
f 1 79 98
f 1 55 79
f 1 56 55
f 1 57 56
f 1 40 57
f 1 41 40
f 1 24 41
f 1 25 24
f 1 26 25
f 1 19 26
f 1 9 19
f 1 3 9
f 1 2 3
f 47 62 48
f 1 99 81
f 1 93 71
f 1 81 59
f 1 46 45
f 1 125 114
f 1 153 138
f 1 161 153
f 1 146 161
f 1 131 146
f 1 119 131
f 1 106 119
f 1 85 106
f 1 64 85
f 1 49 64
f 1 34 49
f 1 16 34
f 1 4 16
f 1 15 4
f 1 27 15
f 1 42 27
f 1 45 42
f 1 59 46
f 13 124 137
f 1 138 125
f 29 47 30
f 28 45 46
f 28 42 45
f 28 47 29
f 28 44 47
f 27 42 28
f 23 41 24
f 23 40 41
f 28 46 43
f 23 39 40
f 20 38 22
f 18 37 20
f 18 36 37
f 16 33 34
f 15 32 33
f 15 31 32
f 15 30 31
f 20 22 21
f 30 47 31
f 31 48 32
f 31 47 48
f 47 60 61
f 13 137 150
f 44 60 47
f 43 59 58
f 43 46 59
f 39 57 40
f 39 56 57
f 39 55 56
f 39 54 55
f 37 53 38
f 37 52 53
f 36 52 37
f 35 67 50
f 35 51 67
f 34 48 49
f 33 48 34
f 32 48 33
f 15 29 30
f 15 28 29
f 20 37 38
f 14 26 19
f 13 60 44
f 13 82 60
f 13 102 82
f 13 103 102
f 13 116 103
f 13 126 116
f 15 27 28
f 13 154 142
f 13 44 28
f 13 162 154
f 13 167 166
f 13 163 167
f 13 152 163
f 13 139 152
f 13 140 139
f 13 151 140
f 13 149 151
f 13 150 149
f 13 166 162
f 13 28 43
f 13 142 126
f 13 43 58
f 14 25 26
f 14 24 25
f 14 23 24
f 13 23 14
f 13 39 23
f 13 74 54
f 13 75 74
f 13 76 75
f 13 54 39
f 13 78 77
f 13 58 80
f 13 94 78
f 13 80 97
f 13 95 94
f 13 96 95
f 13 97 96
f 13 77 76