# https://github.com/mikedh/trimesh
v -0.22217300 -0.50780300 -0.42317700
v -0.21511500 -0.51133700 -0.43728300
v -0.21335000 -0.52014800 -0.43552500
v -0.21511500 -0.52191500 -0.42670300
v -0.21864400 -0.51487100 -0.41965000
v -0.22217300 -0.50780300 -0.41259700
v -0.22217300 -0.47606800 -0.42317700
v -0.20805600 -0.50429200 -0.44080900
v -0.20101000 -0.50780300 -0.44434700
v -0.20101000 -0.51838100 -0.44434700
v -0.21864400 -0.47255700 -0.43023000
v -0.20629100 -0.52368200 -0.43905100
v -0.20277400 -0.53072600 -0.43552500
v -0.18514000 -0.55541700 -0.42847200
v -0.21511500 -0.52191500 -0.41612400
v -0.18690500 -0.55718400 -0.41965000
v -0.21864400 -0.51487100 -0.40907100
v -0.22217300 -0.46548900 -0.41259700
v -0.21158500 -0.41262100 -0.33141100
v -0.21158500 -0.38088600 -0.38087000
v -0.21158500 -0.40204200 -0.40201800
v -0.21952600 -0.46417000 -0.42317700
v -0.19748100 -0.47255700 -0.44080900
v -0.19042200 -0.47606800 -0.44434700
v -0.16927100 -0.53956100 -0.44434700
v -0.18514000 -0.54483900 -0.43905100
v -0.21687900 -0.46285000 -0.42847200
v -0.19748100 -0.40908700 -0.43023000
v -0.18161100 -0.55188300 -0.43552500
v -0.17280000 -0.55365000 -0.43728300
v -0.17984600 -0.56071800 -0.42317700
v -0.14282600 -0.56865800 -0.41789300
v -0.18514000 -0.55541700 -0.41525100
v -0.21687900 -0.51310400 -0.40467100
v -0.21158500 -0.37030700 -0.33141100
v -0.21158500 -0.37030700 -0.33855300
v -0.20455200 -0.42673300 -0.33141100
v -0.20980800 -0.36227300 -0.33141100
v -0.20101000 -0.34915000 -0.35971100
v -0.19836300 -0.34780800 -0.37029100
v -0.20893800 -0.37956600 -0.39143900
v -0.20893800 -0.39014500 -0.40201800
v -0.17984600 -0.45491100 -0.44434700
v -0.19042200 -0.41262100 -0.43375600
v -0.13754400 -0.53956100 -0.44434700
v -0.20629100 -0.38882500 -0.40731300
v -0.19571600 -0.39940400 -0.42847200
v -0.19042200 -0.40072300 -0.43111400
v -0.14107300 -0.55365000 -0.43728300
v -0.14282600 -0.56599600 -0.42847200
v -0.14107300 -0.56776300 -0.42317700
v -0.13401500 -0.56422900 -0.42317700
v -0.12695600 -0.55409800 -0.41259700
v -0.12167500 -0.54747800 -0.40731300
v -0.13754400 -0.56071800 -0.41259700
v -0.14282600 -0.55805600 -0.40731300
v -0.14812000 -0.55718400 -0.40554400
v -0.15341400 -0.55541700 -0.40467100
v -0.16269700 -0.46235600 -0.33141100
v -0.16796600 -0.45919900 -0.33141100
v -0.17824300 -0.45187200 -0.33141100
v -0.18328900 -0.44793700 -0.33141100
v -0.20629100 -0.52368200 -0.40467100
v -0.19397600 -0.43731200 -0.33141100
v -0.20865300 -0.35996400 -0.33141100
v -0.19748100 -0.34208300 -0.35971100
v -0.19571600 -0.34121100 -0.36500700
v -0.19571600 -0.34648800 -0.37558600
v -0.19571600 -0.35178900 -0.38616500
v -0.19836300 -0.35841000 -0.39143900
v -0.20629100 -0.37824700 -0.39673400
v -0.15869500 -0.41262100 -0.44434700
v -0.12695600 -0.52898300 -0.44434700
v -0.12563900 -0.53956100 -0.44169400
v -0.13401500 -0.54660600 -0.44080900
v -0.19836300 -0.37956600 -0.41259700
v -0.19748100 -0.38793000 -0.41965000
v -0.19571600 -0.38352400 -0.41789300
v -0.18514000 -0.38882500 -0.42847200
v -0.17984600 -0.39014500 -0.43111400
v -0.14019100 -0.56599600 -0.42847200
v -0.13621400 -0.56071800 -0.43111400
v -0.12432200 -0.54483900 -0.43905100
v -0.11373400 -0.53426000 -0.43905100
v -0.11285100 -0.54307200 -0.42317700
v -0.11285100 -0.54307200 -0.41259700
v -0.13225000 -0.55277900 -0.40731300
v -0.11638100 -0.54088100 -0.40467100
v -0.13640100 -0.45872700 -0.33141100
v -0.14098700 -0.46146000 -0.33141100
v -0.14467700 -0.46237900 -0.33141100
v -0.14812000 -0.46282700 -0.33141100
v -0.15869500 -0.46391100 -0.33141100
v -0.20722300 -0.35753800 -0.33141100
v -0.19510700 -0.33732300 -0.33141100
v -0.19280800 -0.33489700 -0.33141100
v -0.20278700 -0.35002200 -0.33141100
v -0.18514000 -0.34121100 -0.37558600
v -0.19042200 -0.34516900 -0.38087000
v -0.18514000 -0.33063200 -0.33326800
v -0.19042200 -0.35619500 -0.39496500
v -0.16927100 -0.39146400 -0.43375600
v -0.16927100 -0.38439600 -0.43023000
v -0.14282600 -0.38616300 -0.43111400
v -0.14812000 -0.41262100 -0.44434700
v -0.11506300 -0.52898300 -0.44169400
v -0.11638100 -0.51838100 -0.44434700
v -0.19042200 -0.37735200 -0.41612400
v -0.16927100 -0.37735200 -0.42670300
v -0.10845200 -0.53426000 -0.42847200
v -0.10845200 -0.52368200 -0.43905100
v -0.10580500 -0.52898300 -0.42317700
v -0.10580500 -0.52898300 -0.41259700
v -0.11108700 -0.53689900 -0.40731300
v -0.10933400 -0.53249300 -0.40554400
v -0.12228400 -0.44730100 -0.33141100
v -0.18574900 -0.33093900 -0.33141100
v -0.17984600 -0.33857200 -0.37029100
v -0.17984600 -0.34208300 -0.37734400
v -0.17984600 -0.34561700 -0.38439700
v -0.17455200 -0.33063200 -0.34384800
v -0.16927100 -0.32799400 -0.33855300
v -0.18328900 -0.32971400 -0.33141100
v -0.14812000 -0.38439600 -0.43023000
v -0.14812000 -0.37735200 -0.42670300
v -0.13225000 -0.38616300 -0.42583000
v -0.13754400 -0.40204200 -0.43772500
v -0.14282600 -0.40732000 -0.44169400
v -0.13754400 -0.44435600 -0.44434700
v -0.10933400 -0.51838100 -0.44080900
v -0.11108700 -0.51310400 -0.44169400
v -0.15869500 -0.36677300 -0.41612400
v -0.09786410 -0.49194700 -0.41789300
v -0.10580500 -0.51838100 -0.43375600
v -0.09786410 -0.47079000 -0.39673400
v -0.10580500 -0.41262100 -0.33141100
v -0.11723800 -0.43764100 -0.33141100
v -0.11962400 -0.44240000 -0.33141100
v -0.16927100 -0.33857200 -0.37029100
v -0.16927100 -0.34208300 -0.37734400
v -0.16927100 -0.34561700 -0.38439700
v -0.17984600 -0.32926600 -0.33141100
v -0.16927100 -0.32799400 -0.33141100
v -0.16212500 -0.32799400 -0.33141100
v -0.15869500 -0.32874800 -0.33141100
v -0.15869500 -0.33063200 -0.33987900
v -0.13225000 -0.37558500 -0.41525100
v -0.12167500 -0.38616300 -0.41525100
v -0.11285100 -0.40204200 -0.41612400
v -0.12343900 -0.40204200 -0.42670300
v -0.13225000 -0.39674100 -0.43111400
v -0.11285100 -0.42319900 -0.42670300
v -0.12167500 -0.41789800 -0.43111400
v -0.12695600 -0.43377800 -0.43772500
v -0.13225000 -0.43907900 -0.44169400
v -0.10933400 -0.45491100 -0.43023000
v -0.10227600 -0.43377800 -0.41612400
v -0.11108700 -0.44963300 -0.43111400
v -0.14282600 -0.36500600 -0.40467100
v -0.14812000 -0.36236800 -0.40334500
v -0.09521710 -0.45491100 -0.40201800
v -0.09521710 -0.44435600 -0.39143900
v -0.09521710 -0.43377800 -0.40201800
v -0.10580500 -0.40548200 -0.33141100
v -0.15869500 -0.34121100 -0.37161700
v -0.15182300 -0.33143300 -0.33141100
v -0.15164900 -0.33150400 -0.33150000
v -0.15341400 -0.33327100 -0.34120600
v -0.12167500 -0.37558500 -0.39409200
v -0.14282600 -0.35442800 -0.38352300
v -0.10933400 -0.39499800 -0.40554400
v -0.11108700 -0.39674100 -0.40995500
v -0.10051100 -0.42850000 -0.40995500
v -0.09874650 -0.42673300 -0.40554400
v -0.15341400 -0.34385000 -0.37294400
v -0.09521710 -0.43377800 -0.39143900
v -0.10580500 -0.40204200 -0.40201800
v -0.10845200 -0.39358400 -0.33141100
v -0.10656300 -0.40204200 -0.33141100
v -0.15156200 -0.33155100 -0.33141100
v -0.13401500 -0.34561700 -0.33502600
v -0.14107300 -0.34208300 -0.34207900
v -0.14282600 -0.34385000 -0.35178500
v -0.11991000 -0.37381800 -0.38439700
v -0.11285100 -0.38793000 -0.39849200
v -0.11991000 -0.36323900 -0.33150000
v -0.11982300 -0.36342800 -0.33141100
v -0.11715100 -0.37030700 -0.33141100
v -0.14651700 -0.33550900 -0.33141100
v -0.13401500 -0.34561700 -0.33141100
v -0.12391200 -0.35812700 -0.33141100
v -0.11994700 -0.36316900 -0.33141100
f 106 130 111
f 106 107 130
f 105 128 129
f 107 129 155
f 104 128 105
f 104 127 128
f 104 126 127
f 107 131 130
f 104 125 126
f 101 120 109
f 103 125 124
f 103 109 125
f 103 124 104
f 101 109 108
f 100 122 121
f 100 123 122
f 99 120 101
f 107 155 131
f 100 117 123
f 104 124 125
f 109 132 125
f 118 122 139
f 110 111 112
f 122 142 143
f 98 122 118
f 122 123 142
f 120 141 132
f 119 141 120
f 119 140 141
f 118 140 119
f 118 139 140
f 115 138 116
f 109 120 132
f 115 137 138
f 113 136 115
f 113 135 136
f 113 133 135
f 113 115 114
f 112 133 113
f 112 134 133
f 111 134 112
f 111 133 134
f 111 130 133
f 115 136 137
f 98 121 122
f 69 101 70
f 98 120 99
f 74 106 84
f 74 83 75
f 73 107 106
f 73 106 74
f 72 104 105
f 72 103 104
f 72 102 103
f 72 80 102
f 70 108 76
f 74 84 83
f 70 101 108
f 68 99 69
f 67 100 98
f 67 96 100
f 67 99 68
f 67 98 99
f 66 97 95
f 66 94 97
f 66 96 67
f 122 143 144
f 69 99 101
f 98 100 121
f 75 82 81
f 76 108 78
f 98 119 120
f 98 118 119
f 96 117 100
f 88 116 89
f 88 115 116
f 88 114 115
f 86 114 88
f 86 113 114
f 85 113 86
f 75 83 82
f 85 112 113
f 84 111 110
f 84 106 111
f 84 110 85
f 80 103 102
f 80 109 103
f 79 109 80
f 79 108 109
f 78 108 79
f 76 78 77
f 85 110 112
f 122 144 145
f 169 170 184
f 122 146 165
f 167 181 182
f 167 180 181
f 166 180 167
f 164 176 179
f 163 178 176
f 163 177 178
f 163 171 177
f 163 174 171
f 161 176 162
f 167 182 183
f 161 163 176
f 159 165 175
f 159 160 165
f 157 174 163
f 157 173 174
f 157 172 173
f 156 158 157
f 152 158 153
f 152 157 158
f 149 152 150
f 159 175 170
f 149 157 152
f 167 183 168
f 168 170 175
f 184 192 186
f 181 184 183
f 181 192 184
f 181 191 192
f 181 190 191
f 181 189 190
f 181 183 182
f 180 189 181
f 177 188 178
f 168 183 170
f 177 187 188
f 176 178 179
f 172 174 173
f 171 186 177
f 171 185 186
f 171 174 172
f 170 183 184
f 66 95 96
f 169 185 171
f 169 184 185
f 177 186 187
f 122 145 146
f 149 172 157
f 148 171 172
f 130 156 157
f 130 158 156
f 130 131 158
f 128 155 129
f 128 154 155
f 127 154 128
f 127 158 154
f 127 153 158
f 127 152 153
f 130 157 133
f 127 150 152
f 126 151 127
f 126 150 151
f 126 149 150
f 126 148 149
f 126 147 148
f 125 159 147
f 125 132 159
f 125 147 126
f 122 165 139
f 127 151 150
f 148 172 149
f 131 155 154
f 132 141 165
f 148 169 171
f 147 170 169
f 147 159 170
f 147 169 148
f 146 175 165
f 146 168 175
f 146 167 168
f 145 167 146
f 145 166 167
f 131 154 158
f 140 165 141
f 136 176 164
f 136 162 176
f 135 162 136
f 133 163 161
f 133 157 163
f 133 162 135
f 133 161 162
f 132 160 159
f 132 165 160
f 139 165 140
f 65 94 66
f 25 30 26
f 58 93 59
f 19 59 93
f 19 60 59
f 19 61 60
f 19 62 61
f 19 64 62
f 19 37 64
f 18 36 20
f 18 35 36
f 17 34 19
f 16 34 17
f 16 33 34
f 16 32 33
f 16 31 32
f 15 16 17
f 14 31 16
f 14 30 31
f 14 29 30
f 14 26 29
f 13 26 14
f 19 93 92
f 19 92 91
f 19 91 90
f 19 90 89
f 19 142 123
f 19 143 142
f 19 144 143
f 19 145 144
f 19 166 145
f 19 180 166
f 19 189 180
f 19 190 189
f 19 191 190
f 11 28 23
f 19 192 191
f 19 188 187
f 19 178 188
f 19 179 178
f 19 164 179
f 19 136 164
f 19 137 136
f 19 138 137
f 19 116 138
f 19 89 116
f 19 187 192
f 11 27 28
f 11 22 27
f 10 26 12
f 3 16 4
f 3 14 16
f 3 13 14
f 3 26 13
f 3 12 26
f 3 10 12
f 2 11 8
f 2 10 3
f 2 9 10
f 4 15 17
f 2 8 9
f 1 7 11
f 1 18 7
f 1 6 18
f 1 17 6
f 1 5 17
f 1 4 5
f 1 3 4
f 1 2 3
f 184 186 185
f 1 11 2
f 19 123 117
f 4 17 5
f 6 17 19
f 10 25 26
f 9 25 10
f 9 45 25
f 9 73 45
f 9 107 73
f 9 129 107
f 9 105 129
f 9 72 105
f 9 43 72
f 4 16 15
f 9 24 43
f 8 23 9
f 8 11 23
f 7 22 11
f 7 42 22
f 7 21 42
f 7 20 21
f 7 18 20
f 6 35 18
f 6 19 35
f 9 23 24
f 19 117 96
f 19 96 95
f 19 95 97
f 47 79 80
f 47 78 79
f 47 77 78
f 46 77 47
f 46 76 77
f 46 70 76
f 46 71 70
f 45 75 49
f 45 74 75
f 47 80 48
f 45 73 74
f 43 44 72
f 41 70 71
f 41 46 42
f 41 71 46
f 40 70 41
f 40 69 70
f 40 68 69
f 40 67 68
f 40 66 67
f 44 48 72
f 39 66 40
f 48 80 72
f 50 81 51
f 57 93 58
f 57 92 93
f 57 91 92
f 57 90 91
f 56 90 57
f 56 87 90
f 55 87 56
f 54 90 87
f 54 89 90
f 49 75 81
f 54 88 89
f 54 87 55
f 53 86 54
f 52 86 53
f 52 85 86
f 52 84 85
f 52 83 84
f 52 82 83
f 52 81 82
f 51 81 52
f 54 86 88
f 62 64 63
f 38 66 39
f 35 38 36
f 27 46 47
f 26 30 29
f 25 49 30
f 25 45 49
f 24 44 43
f 24 28 44
f 23 28 24
f 22 46 27
f 22 42 46
f 27 47 28
f 20 42 21
f 20 40 41
f 20 39 40
f 20 38 39
f 20 36 38
f 19 34 37
f 19 38 35
f 19 65 38
f 19 94 65
f 19 97 94
f 20 41 42
f 38 65 66
f 28 47 48
f 30 49 81
f 34 64 37
f 34 63 64
f 33 63 34
f 33 62 63
f 33 61 62
f 33 60 61
f 33 59 60
f 33 58 59
f 32 58 33
f 28 48 44
f 32 57 58
f 32 55 56
f 32 54 55
f 32 53 54
f 32 52 53
f 32 51 52
f 31 51 32
f 31 50 51
f 30 50 31
f 30 81 50
f 32 56 57
f 186 192 187