# https://github.com/mikedh/trimesh
v -0.28565100 -0.40199400 -0.01271480
v -0.28565100 -0.40199400 0.01060200
v -0.28565100 -0.34076000 -0.01271480
v -0.27502600 -0.43375600 -0.01271480
v -0.28565100 -0.39146600 0.04232940
v -0.27502600 -0.43375600 -0.01054960
v -0.27502600 -0.41259300 0.06348100
v -0.28565100 -0.33857700 -0.01054960
v -0.28509200 -0.33829500 -0.01271480
v -0.27396400 -0.43593900 -0.01271480
v -0.28565100 -0.35974000 0.07409850
v -0.27502600 -0.40199400 0.09525010
v -0.27502600 -0.39146600 0.10582600
v -0.27150300 -0.44079800 -0.00705213
v -0.26445700 -0.43375600 0.07409850
v -0.27150300 -0.40907200 0.09874760
v -0.28565100 -0.33857700 0.03175360
v -0.26445700 -0.26452600 0.06348100
v -0.26445700 -0.27509000 0.03175360
v -0.26182800 -0.27375200 0.02117780
v -0.27502600 -0.31741500 -0.01271480
v -0.26865100 -0.44650200 -0.01271480
v -0.28565100 -0.34914100 0.06348100
v -0.27502600 -0.37030300 0.11640200
v -0.27502600 -0.32797800 0.11640200
v -0.27502600 -0.30681600 0.09525010
v -0.27239800 -0.40199400 0.10715800
v -0.27239800 -0.38090200 0.11773400
v -0.24684100 -0.47960200 0.01763860
v -0.25036400 -0.47252400 0.02471690
v -0.26093400 -0.45139700 0.03529270
v -0.26093400 -0.44079800 0.07759600
v -0.25036400 -0.45139700 0.11994100
v -0.26445700 -0.27509000 0.10582600
v -0.23274900 -0.21262300 0.20100800
v -0.26182800 -0.25920900 0.06876890
v -0.26093400 -0.25744800 0.06348100
v -0.25741100 -0.26097000 0.03175360
v -0.26518400 -0.29769600 -0.01271480
v -0.26870700 -0.30473800 -0.01271480
v -0.25741100 -0.28213200 -0.01054960
v -0.24684100 -0.47960200 -0.01271480
v -0.26445700 -0.35974000 0.14812900
v -0.26445700 -0.33857700 0.14812900
v -0.23274900 -0.26452600 0.23273600
v -0.24331800 -0.27509000 0.20100800
v -0.23274900 -0.22220100 0.21158400
v -0.26182800 -0.41259300 0.12831000
v -0.25125900 -0.44431900 0.12831000
v -0.26182800 -0.39146600 0.13888600
v -0.26182800 -0.37030300 0.14946200
v -0.22564700 -0.50076400 0.09171090
v -0.22922600 -0.49368700 0.09874760
v -0.16346100 -0.57235000 0.16824000
v -0.24857500 -0.44963600 0.12964200
v -0.15842800 -0.57235000 0.20113300
v -0.15602300 -0.57235000 0.21183400
v -0.23006500 -0.21688400 0.21687200
v -0.22212400 -0.21262300 0.24331100
v -0.23308400 -0.21262300 0.12593700
v -0.25741100 -0.25040600 0.06348100
v -0.24684100 -0.23980700 0.05290520
v -0.23800600 -0.23540600 0.03704150
v -0.25813800 -0.28466700 -0.01271480
v -0.23800600 -0.24072300 0.02646570
v -0.23627200 -0.26097000 -0.01054960
v -0.24611400 -0.27227300 -0.01271480
v -0.25668400 -0.28287200 -0.01271480
v -0.23627200 -0.49016500 -0.01271480
v -0.16346100 -0.57235000 0.13651200
v -0.21155400 -0.38090200 0.26446300
v -0.22212400 -0.34914100 0.25388700
v -0.23274900 -0.29625200 0.23273600
v -0.20803100 -0.32797800 0.28211700
v -0.22922600 -0.26452600 0.23977200
v -0.23006500 -0.25920900 0.23802300
v -0.19835700 -0.41259300 0.27637100
v -0.20892600 -0.39146600 0.26579500
v -0.18778700 -0.45491800 0.26579500
v -0.15865200 -0.57235000 0.19992600
v -0.18510300 -0.46020000 0.26712800
v -0.15552000 -0.57235000 0.21316600
v -0.14780300 -0.57235000 0.23286100
v -0.17453400 -0.50252500 0.24597600
v -0.20803100 -0.21262300 0.27154100
v -0.23140700 -0.21262300 0.11640200
v -0.23101500 -0.21262300 0.11452800
v -0.22122900 -0.21262300 0.08167640
v -0.21642000 -0.21262300 0.07018460
v -0.20260700 -0.21262300 0.04232940
v -0.22212400 -0.22878600 0.03175360
v -0.15686200 -0.21262300 -0.01271480
v -0.22212400 -0.24994800 -0.01054960
v -0.22430500 -0.25269500 -0.01271480
v -0.23554500 -0.26170900 -0.01271480
v -0.20193600 -0.50999000 -0.01271480
v -0.13220000 -0.57235000 0.05819310
v -0.13963800 -0.57235000 0.07197500
v -0.15020700 -0.57235000 0.09312660
v -0.15552000 -0.57235000 0.10478500
v -0.16077700 -0.57235000 0.12485400
v -0.20803100 -0.38090200 0.27154100
v -0.21507700 -0.34914100 0.26800200
v -0.20803100 -0.33857700 0.28211700
v -0.20450800 -0.32797800 0.28915400
v -0.21507700 -0.27509000 0.26800200
v -0.21949500 -0.26980800 0.25917500
v -0.19393900 -0.21262300 0.29973000
v -0.19427400 -0.21262300 0.29906300
v -0.19746200 -0.21262300 0.29269300
v -0.19567200 -0.41787500 0.27770400
v -0.19393900 -0.40199400 0.28915400
v -0.20450800 -0.38090200 0.27857800
v -0.14467100 -0.57235000 0.23923100
v -0.13404600 -0.57235000 0.26038300
v -0.13080200 -0.57235000 0.26679500
v -0.13035500 -0.57235000 0.26750300
v -0.13220000 -0.48136200 0.33058300
v 0.15758900 -0.21262300 -0.01271480
v -0.19259700 -0.51463800 -0.01271480
v -0.10977600 -0.57235000 0.02775640
v -0.20450800 -0.33857700 0.28915400
v -0.17280000 -0.21262300 0.33145700
v -0.13046700 -0.46548200 0.34207400
v -0.18689300 -0.37030300 0.30326900
v -0.19393900 -0.34914100 0.29973000
v -0.17280000 -0.41259300 0.31030500
v -0.11989800 -0.57235000 0.27857800
v -0.12163100 -0.48136200 0.34115800
v 0.20199200 -0.21262300 0.04182980
v 0.23800600 -0.23804700 0.02913050
v 0.23800600 -0.24864500 0.00793720
v 0.22743600 -0.24864500 -0.00263861
v 0.21748200 -0.24896200 -0.01271480
v -0.05910990 -0.57235000 -0.01271480
v -0.07510370 -0.57235000 -0.00476209
v -0.07756430 -0.57235000 -0.00351298
v -0.09920630 -0.57235000 0.01713900
v -0.17280000 -0.22220100 0.33145700
v -0.16183900 -0.21262300 0.34211600
v -0.11989800 -0.46548200 0.35265000
v -0.14103600 -0.42315700 0.34207400
v -0.15160600 -0.42315700 0.33145700
v -0.13046700 -0.42315700 0.35265000
v -0.10927200 -0.57235000 0.28915400
v -0.09836740 -0.57235000 0.29977100
v -0.11637400 -0.47608100 0.34911100
v 0.21261700 -0.21262300 0.06298140
v 0.23979500 -0.23628600 0.03883190
v 0.25920000 -0.26980800 0.01855460
v 0.26026300 -0.28783700 -0.01271480
v 0.25601300 -0.28357600 -0.01271480
v 0.23912400 -0.26667400 -0.01271480
v 0.23056800 -0.25811700 -0.01271480
v 0.22956100 -0.25713200 -0.01271480
v 0.05765600 -0.57235000 -0.01271480
v -0.15127000 -0.21262300 0.35227600
v -0.11106200 -0.47076300 0.35706400
v -0.11637400 -0.42315700 0.36364200
v -0.11989800 -0.41259300 0.36322600
v -0.08567310 -0.57235000 0.30943100
v 0.21737000 -0.21262300 0.07305750
v 0.23006500 -0.21262300 0.10345300
v 0.23056800 -0.21262300 0.10474300
v 0.23297300 -0.21262300 0.11548600
v 0.24684100 -0.23980700 0.05644440
v 0.25741100 -0.26097000 0.03529270
v 0.26093400 -0.26804700 0.02821440
v 0.28347000 -0.33421100 -0.01271480
v 0.18929700 -0.51629300 -0.01271480
v 0.08813360 -0.57235000 0.00706282
v -0.13852000 -0.21262300 0.36235200
v -0.08461050 -0.57129400 0.31076300
v -0.08992320 -0.47076300 0.36764000
v -0.10049200 -0.44963600 0.36764000
v -0.10574900 -0.45491800 0.36364200
v -0.11106200 -0.41787500 0.36764000
v -0.13751300 -0.21262300 0.36289300
v -0.08354800 -0.57235000 0.31051400
v 0.23325200 -0.21262300 0.11690100
v 0.24684100 -0.23980700 0.08817180
v 0.25741100 -0.26097000 0.09874760
v 0.26445700 -0.27509000 0.03175360
v 0.28565100 -0.33857700 -0.01054960
v 0.28514800 -0.33857700 -0.01271480
v 0.19075100 -0.51555300 -0.01271480
v 0.12957200 -0.57235000 0.05186430
v 0.11950600 -0.57235000 0.03916500
v 0.10932800 -0.57235000 0.02858920
v 0.09870300 -0.57235000 0.01763860
v -0.07929790 -0.44963600 0.37821500
v -0.06447850 -0.57235000 0.31684200
v -0.05284660 -0.47608100 0.37421800
v -0.04758990 -0.47076300 0.37821500
v -0.06872860 -0.46020000 0.37821500
v -0.08992320 -0.41787500 0.37821500
v -0.11704500 -0.21262300 0.37351000
v 0.23325200 -0.21262300 0.14708800
v 0.24331800 -0.23276500 0.13755300
v 0.26445700 -0.27509000 0.09525010
v 0.28565100 -0.33857700 0.04232940
v 0.28565100 -0.34076000 -0.01271480
v 0.23370000 -0.49090500 -0.01271480
v 0.23627200 -0.49016500 -0.01054960
v 0.14070100 -0.57235000 0.07089240
v -0.04758990 -0.40731100 0.39936700
v -0.06872860 -0.41787500 0.38879100
v -0.04227730 -0.57235000 0.32096400
v -0.02113870 -0.48664400 0.37421800
v -0.01582600 -0.48136200 0.37821500
v -0.01582600 -0.46020000 0.38879100
v -0.03702060 -0.44963600 0.38879100
v -0.02639540 -0.42847400 0.39936700
v -0.03702060 -0.41787500 0.39936700
v -0.09585090 -0.21262300 0.38408600
v 0.23274900 -0.21262300 0.20100800
v 0.27502600 -0.30681600 0.09525010
v 0.28565100 -0.34914100 0.06348100
v 0.28565100 -0.40199400 -0.01271480
v 0.23526500 -0.48998900 -0.01271480
v 0.24684100 -0.47960200 -0.01271480
v 0.16346100 -0.57235000 0.13755300
v 0.16223100 -0.57235000 0.12697800
v 0.15166100 -0.57235000 0.09525010
v 0.14757900 -0.57235000 0.08359170
v 0.14472700 -0.57235000 0.07797070
v -0.04227730 -0.40199400 0.40199000
v -0.09517990 -0.21262300 0.38441900
v -0.00000000 -0.40199400 0.41260800
v -0.03170800 -0.57235000 0.32213000
v -0.01056930 -0.49016500 0.37380200
v -0.01056930 -0.48312300 0.37734100
v -0.01056930 -0.46196000 0.38791700
v -0.00525670 -0.43903700 0.39936700
v 0.23168600 -0.21262300 0.20613000
v 0.23274900 -0.22220100 0.21158400
v 0.27502600 -0.31741500 0.10582600
v 0.28565100 -0.35974000 0.07409850
v 0.28565100 -0.40199400 0.01060200
v 0.27502600 -0.43375600 -0.01271480
v 0.26798000 -0.44784000 -0.01271480
v 0.24684100 -0.47960200 0.00002616
v 0.16346100 -0.57235000 0.16928100
v -0.04227730 -0.39146600 0.40199000
v -0.07504780 -0.21262300 0.39091500
v -0.00000000 -0.43375600 0.40199000
v 0.01056930 -0.40199400 0.41260800
v -0.00000000 -0.38090200 0.41260800
v 0.05284660 -0.57235000 0.32213000
v 0.02113870 -0.49016500 0.37380200
v 0.02113870 -0.48312300 0.37734100
v -0.00000000 -0.44079800 0.39849300
v 0.23079200 -0.21262300 0.20966900
v 0.23095900 -0.21336300 0.20979400
v 0.23274900 -0.26452600 0.23273600
v 0.24331800 -0.25392700 0.19047400
v 0.22212400 -0.21262300 0.24331100
v 0.27502600 -0.33857700 0.11640200
v 0.25388800 -0.28565300 0.16928100
v 0.27502600 -0.37030300 0.11640200
v 0.27502600 -0.39146600 0.10582600
v 0.28565100 -0.39146600 0.04232940
v 0.27502600 -0.43375600 -0.01054960
v 0.26445700 -0.43375600 0.09525010
v 0.26445700 -0.44431900 0.05290520
v 0.26798000 -0.44784000 -0.01054960
v 0.25741100 -0.45843900 0.05290520
v 0.23627200 -0.49016500 0.05290520
v 0.15865200 -0.57235000 0.19992600
v 0.22564700 -0.50076400 0.09525010
v -0.03271460 -0.21262300 0.40149100
v 0.01056930 -0.43375600 0.40199000
v 0.01056930 -0.38090200 0.41260800
v 0.03170800 -0.42315700 0.40199000
v 0.04227730 -0.40199400 0.40199000
v 0.08461050 -0.21262300 0.38883300
v -0.02113870 -0.21262300 0.40199000
v -0.03170800 -0.21262300 0.40161500
v 0.07404120 -0.57235000 0.31713400
v 0.06347190 -0.56203300 0.32529500
v 0.03170800 -0.47738300 0.37821500
v 0.02113870 -0.46196000 0.38791700
v 0.01056930 -0.44079800 0.39849300
v 0.23056800 -0.21262300 0.21054300
v 0.22564700 -0.26097000 0.24685100
v 0.22922600 -0.26804700 0.23977200
v 0.20450800 -0.32445700 0.28915400
v 0.20803100 -0.33150000 0.28211700
v 0.23274900 -0.32797800 0.23273600
v 0.26445700 -0.32797800 0.14812900
v 0.22111700 -0.21262300 0.24535200
v 0.26445700 -0.35974000 0.14812900
v 0.26093400 -0.36326100 0.15520700
v 0.27239800 -0.40333200 0.10582600
v 0.27502600 -0.40199400 0.09525010
v 0.25036400 -0.39495200 0.16578300
v 0.26093400 -0.40555100 0.13401400
v 0.26182800 -0.41389600 0.12697800
v 0.26093400 -0.45139700 0.05290520
v 0.26182800 -0.43505800 0.10582600
v 0.25388800 -0.45491800 0.09525010
v 0.24684100 -0.46900300 0.09525010
v 0.15842800 -0.57235000 0.20100800
v 0.02113870 -0.45491800 0.39141400
v 0.02113870 -0.43505800 0.39936700
v 0.01056930 -0.21262300 0.40199000
v 0.08226180 -0.21262300 0.38937400
v 0.07404120 -0.21262300 0.39120600
v 0.07297870 -0.21262300 0.39141400
v 0.03170800 -0.45622100 0.38879100
v 0.03875420 -0.42671300 0.39849300
v 0.04932350 -0.40555100 0.39849300
v 0.08483420 -0.21262300 0.38875000
v 0.07611030 -0.57235000 0.31634300
v 0.11279500 -0.46900300 0.35614800
v 0.08461050 -0.46682000 0.36764000
v 0.05284660 -0.46682000 0.37821500
v 0.21054800 -0.21262300 0.26654500
v 0.19997800 -0.21262300 0.28769600
v 0.19623200 -0.21262300 0.29519100
v 0.19393900 -0.21262300 0.29973000
v 0.21507700 -0.28213200 0.26800200
v 0.20450800 -0.33505600 0.28915400
v 0.17280000 -0.21262300 0.33145700
v 0.20803100 -0.34209800 0.28211700
v 0.22922600 -0.33150000 0.23977200
v 0.22212400 -0.34914100 0.25388700
v 0.25036400 -0.37382500 0.17635900
v 0.26182800 -0.42449500 0.11640200
v 0.25125900 -0.40333200 0.15870500
v 0.20803100 -0.38442300 0.27154100
v 0.20803100 -0.40555100 0.26092400
v 0.20892600 -0.41389600 0.25388700
v 0.25920000 -0.41523400 0.13226500
v 0.25036400 -0.44784000 0.12343800
v 0.25125900 -0.45622100 0.10582600
v 0.15602300 -0.57235000 0.21183400
v 0.15658300 -0.57235000 0.20937700
v 0.06347190 -0.42449500 0.38879100
v 0.07051810 -0.41611400 0.38791700
v 0.10602900 -0.21262300 0.37817400
v 0.08108740 -0.57235000 0.31384500
v 0.11989800 -0.46196000 0.35265000
v 0.11279500 -0.41611400 0.36672400
v 0.09165670 -0.41611400 0.37734100
v 0.08354800 -0.57235000 0.31259500
v 0.12163100 -0.47872100 0.34382300
v 0.17280000 -0.21868000 0.33145700
v 0.19393900 -0.34562000 0.29973000
v 0.18689300 -0.37382500 0.30326900
v 0.19393900 -0.39847300 0.28915400
v 0.19746200 -0.40555100 0.28211700
v 0.14707600 -0.21262300 0.35489900
v 0.21860000 -0.35266200 0.26092400
v 0.20629800 -0.41523400 0.25917500
v 0.24857500 -0.45227700 0.12169000
v 0.18510300 -0.45755900 0.26975100
v 0.18510300 -0.47872100 0.24859900
v 0.14472700 -0.57235000 0.24048000
v 0.14702000 -0.57235000 0.23481700
v 0.14785900 -0.57235000 0.23273600
v 0.24684100 -0.45843900 0.11640200
v 0.12716700 -0.21262300 0.36759800
v 0.11989800 -0.40907200 0.36322600
v 0.13046700 -0.46196000 0.34207400
v 0.14103600 -0.43023400 0.34207400
v 0.13438100 -0.21262300 0.36389200
v 0.13220000 -0.21424300 0.36497500
v 0.08684740 -0.57235000 0.31001400
v 0.13220000 -0.47872100 0.33324700
v 0.09870300 -0.57235000 0.29973000
v 0.11989800 -0.57235000 0.27857800
v 0.19567200 -0.41523400 0.28032700
v 0.14455900 -0.43727700 0.33499600
v 0.14282600 -0.44696000 0.33324700
v 0.14092400 -0.21262300 0.35935400
v 0.13276000 -0.57235000 0.26342200
v 0.13013100 -0.57235000 0.26675300
f 216 236 217
f 216 235 236
f 212 234 213
f 213 234 229
f 211 234 212
f 217 237 238
f 211 252 234
f 213 229 214
f 370 373 375
f 221 242 243
f 217 236 237
f 219 239 263
f 219 263 240
f 221 241 266
f 221 266 242
f 227 244 228
f 221 243 222
f 227 229 248
f 211 233 252
f 217 238 218
f 210 233 211
f 248 306 277
f 210 231 232
f 200 217 201
f 227 248 244
f 200 216 217
f 201 217 218
f 203 220 204
f 204 220 221
f 204 221 222
f 204 222 223
f 204 223 224
f 210 232 233
f 204 224 225
f 204 226 205
f 206 227 228
f 206 228 207
f 206 214 229
f 206 229 227
f 207 228 215
f 208 230 231
f 208 231 210
f 208 210 209
f 204 225 226
f 228 244 245
f 245 248 271
f 229 246 272
f 238 261 262
f 238 258 260
f 239 262 264
f 239 264 265
f 239 265 263
f 240 263 266
f 240 266 241
f 242 266 267
f 242 267 268
f 242 268 243
f 243 268 270
f 243 270 269
f 244 248 245
f 247 272 274
f 247 274 275
f 247 275 276
f 247 276 273
f 248 273 306
f 199 216 200
f 238 260 261
f 237 259 258
f 237 256 259
f 237 258 238
f 229 272 247
f 229 247 273
f 229 273 248
f 230 249 250
f 230 250 231
f 231 250 251
f 231 251 232
f 232 251 282
f 232 282 283
f 229 234 246
f 232 283 252
f 234 252 283
f 234 283 272
f 234 272 246
f 235 253 254
f 235 254 236
f 236 255 256
f 236 256 237
f 236 254 257
f 236 257 255
f 232 252 233
f 198 216 199
f 146 158 147
f 196 207 215
f 157 160 172
f 158 161 173
f 158 173 174
f 158 174 175
f 158 175 176
f 158 176 159
f 159 176 175
f 159 175 177
f 159 177 160
f 160 177 178
f 160 178 172
f 161 179 173
f 165 180 166
f 166 181 182
f 166 182 167
f 166 180 198
f 166 198 181
f 167 182 200
f 167 200 183
f 156 170 171
f 151 168 169
f 150 168 151
f 149 168 150
f 132 153 154
f 132 154 155
f 132 155 133
f 133 155 134
f 139 144 157
f 139 157 140
f 141 147 158
f 141 158 159
f 141 159 160
f 167 183 168
f 141 160 144
f 248 277 278
f 146 161 158
f 148 162 149
f 149 162 163
f 149 163 164
f 149 164 165
f 149 165 166
f 149 166 167
f 149 167 168
f 144 160 157
f 168 183 184
f 168 184 169
f 169 184 185
f 184 238 262
f 184 262 239
f 184 239 219
f 184 219 202
f 184 202 185
f 186 203 204
f 186 204 187
f 187 204 205
f 191 195 214
f 184 218 238
f 191 214 206
f 192 208 209
f 192 209 193
f 193 209 210
f 193 210 194
f 194 210 211
f 194 211 212
f 194 212 195
f 195 212 213
f 195 213 214
f 191 206 207
f 196 215 197
f 184 201 218
f 183 200 201
f 170 186 187
f 170 187 188
f 170 188 189
f 170 189 190
f 170 190 171
f 173 179 174
f 174 191 175
f 174 179 192
f 174 192 193
f 183 201 184
f 174 193 194
f 174 195 191
f 175 191 207
f 175 207 196
f 175 196 177
f 177 197 178
f 177 196 197
f 181 198 199
f 181 199 182
f 182 199 200
f 174 194 195
f 248 278 271
f 289 325 326
f 249 280 250
f 315 346 347
f 315 347 343
f 323 348 349
f 323 349 350
f 323 350 351
f 323 351 352
f 323 352 325
f 324 353 348
f 325 352 331
f 325 331 354
f 325 354 326
f 327 354 328
f 328 354 331
f 331 352 332
f 332 352 355
f 332 355 333
f 334 355 335
f 335 356 336
f 335 355 357
f 315 342 346
f 315 340 339
f 315 345 340
f 315 344 345
f 298 355 334
f 298 334 335
f 298 335 329
f 300 329 335
f 300 335 336
f 301 336 302
f 302 336 337
f 302 337 338
f 302 338 303
f 335 357 358
f 310 317 311
f 311 340 312
f 311 317 316
f 311 316 315
f 311 315 339
f 312 340 313
f 313 340 341
f 314 342 315
f 315 343 364
f 315 364 344
f 311 339 340
f 298 333 355
f 335 358 359
f 335 360 361
f 351 366 352
f 352 373 355
f 352 366 374
f 352 374 375
f 352 375 373
f 353 376 364
f 355 373 357
f 357 373 370
f 357 370 377
f 357 377 359
f 357 359 358
f 363 368 367
f 364 376 367
f 365 370 375
f 365 375 366
f 366 375 374
f 370 372 378
f 370 378 377
f 132 152 153
f 350 366 351
f 349 366 350
f 348 366 349
f 348 364 366
f 335 361 337
f 335 337 356
f 336 356 362
f 336 362 337
f 337 362 356
f 340 345 363
f 340 363 341
f 343 347 370
f 343 370 365
f 335 359 360
f 343 365 366
f 344 364 367
f 344 367 368
f 344 368 363
f 344 363 345
f 346 369 347
f 347 369 371
f 347 371 372
f 347 372 370
f 348 353 364
f 343 366 364
f 298 330 333
f 296 333 330
f 296 332 333
f 261 293 296
f 261 296 297
f 261 297 298
f 261 298 294
f 262 295 264
f 263 265 299
f 263 299 267
f 263 267 266
f 264 299 265
f 264 295 294
f 264 294 300
f 264 300 336
f 264 336 301
f 264 301 299
f 267 302 268
f 267 299 301
f 267 301 302
f 268 302 270
f 269 270 302
f 261 295 262
f 261 294 295
f 260 293 261
f 260 292 293
f 250 280 281
f 250 281 251
f 251 281 310
f 251 310 282
f 253 284 254
f 254 284 257
f 255 285 286
f 255 286 287
f 255 287 288
f 269 302 303
f 255 288 325
f 255 289 292
f 255 292 290
f 255 290 259
f 255 259 256
f 255 257 285
f 257 291 285
f 258 259 290
f 258 290 292
f 258 292 260
f 255 325 289
f 272 283 282
f 272 282 304
f 272 304 310
f 285 322 286
f 286 322 287
f 287 323 325
f 287 325 288
f 287 322 321
f 287 321 324
f 287 324 348
f 287 348 323
f 289 326 354
f 285 321 322
f 289 354 327
f 292 327 293
f 293 328 296
f 293 327 328
f 294 298 329
f 294 329 300
f 296 330 298
f 296 298 297
f 296 328 331
f 296 331 332
f 289 327 292
f 249 279 280
f 285 320 321
f 285 318 319
f 272 310 305
f 272 305 274
f 273 276 307
f 273 307 308
f 273 308 309
f 273 309 306
f 274 305 310
f 274 310 311
f 274 311 312
f 285 319 320
f 274 312 275
f 275 313 276
f 279 314 315
f 279 315 316
f 279 316 317
f 279 317 281
f 279 281 280
f 281 317 310
f 282 310 304
f 285 291 318
f 275 312 313
f 132 151 152
f 54 372 371
f 131 148 149
f 33 56 57
f 33 57 55
f 35 47 58
f 35 58 59
f 35 59 85
f 35 85 110
f 35 110 109
f 35 109 108
f 35 108 123
f 35 123 140
f 35 140 157
f 35 157 172
f 35 172 178
f 35 178 197
f 35 197 215
f 35 215 228
f 35 228 245
f 35 245 271
f 35 271 278
f 33 53 56
f 33 55 49
f 31 53 33
f 30 53 31
f 24 28 43
f 24 43 44
f 24 44 25
f 25 44 45
f 25 45 46
f 25 46 47
f 25 47 26
f 26 47 35
f 26 35 34
f 35 278 277
f 27 48 28
f 27 49 48
f 28 48 50
f 28 50 51
f 28 51 43
f 29 52 53
f 29 53 30
f 29 42 70
f 29 70 54
f 29 54 52
f 27 33 49
f 22 42 29
f 35 277 306
f 35 309 308
f 35 163 162
f 35 162 148
f 35 148 130
f 35 130 119
f 35 119 92
f 35 92 90
f 35 90 89
f 35 89 88
f 35 88 87
f 35 87 86
f 35 86 60
f 35 60 61
f 35 61 36
f 36 61 37
f 37 61 38
f 38 61 62
f 38 62 63
f 38 63 41
f 39 41 64
f 35 164 163
f 35 165 164
f 35 180 165
f 35 198 180
f 35 308 307
f 35 307 276
f 35 276 313
f 35 313 341
f 35 341 363
f 35 363 367
f 35 367 376
f 35 376 353
f 35 353 324
f 35 306 309
f 35 324 321
f 35 320 319
f 35 319 318
f 35 318 291
f 35 291 257
f 35 257 284
f 35 284 253
f 35 253 235
f 35 235 216
f 35 216 198
f 35 321 320
f 41 63 65
f 20 41 39
f 20 40 21
f 1 169 185
f 1 185 202
f 1 202 219
f 1 219 240
f 1 240 241
f 1 241 221
f 1 221 220
f 1 220 203
f 1 203 186
f 1 186 170
f 1 170 156
f 1 156 135
f 1 135 120
f 1 120 96
f 1 96 69
f 1 69 42
f 1 42 22
f 1 22 10
f 1 10 4
f 1 151 169
f 1 152 151
f 1 153 152
f 1 154 153
f 1 2 5
f 1 5 11
f 1 11 23
f 1 23 17
f 1 17 8
f 1 8 3
f 1 3 9
f 1 9 21
f 1 21 40
f 132 150 151
f 1 40 39
f 1 64 68
f 1 68 67
f 1 67 95
f 1 95 94
f 1 94 92
f 1 92 119
f 1 119 134
f 1 134 155
f 1 155 154
f 1 39 64
f 20 38 41
f 1 6 2
f 2 7 5
f 13 28 24
f 14 22 29
f 14 29 30
f 14 30 31
f 14 31 33
f 14 33 32
f 15 32 33
f 15 33 16
f 16 33 27
f 17 23 26
f 17 26 18
f 18 34 35
f 18 35 36
f 18 36 37
f 18 37 19
f 18 26 34
f 19 37 38
f 19 38 20
f 20 39 40
f 13 27 28
f 12 27 13
f 12 16 27
f 11 26 23
f 3 8 9
f 4 10 6
f 5 7 12
f 5 12 13
f 5 13 11
f 6 10 14
f 6 14 32
f 6 32 15
f 6 15 7
f 2 6 7
f 7 15 16
f 8 17 18
f 8 18 19
f 8 19 20
f 8 20 9
f 9 20 21
f 10 22 14
f 11 13 24
f 11 24 25
f 11 25 26
f 7 16 12
f 41 65 66
f 1 4 6
f 41 67 68
f 76 107 108
f 76 108 109
f 76 109 110
f 76 110 85
f 77 79 81
f 77 81 111
f 77 111 112
f 77 112 113
f 77 113 78
f 78 113 102
f 81 84 83
f 81 83 114
f 81 114 115
f 81 115 116
f 81 116 117
f 81 117 118
f 81 118 111
f 90 92 91
f 92 94 93
f 75 105 106
f 75 107 76
f 75 106 107
f 74 122 105
f 63 90 91
f 63 91 92
f 63 92 93
f 63 93 65
f 65 93 94
f 65 94 66
f 66 94 95
f 66 95 67
f 69 96 97
f 96 120 121
f 69 97 98
f 69 99 100
f 69 100 101
f 69 101 70
f 71 78 102
f 71 102 72
f 72 102 103
f 72 103 73
f 73 103 104
f 74 104 122
f 69 98 99
f 63 89 90
f 96 121 97
f 103 113 122
f 122 126 139
f 123 139 140
f 124 141 144
f 124 144 142
f 124 142 143
f 124 143 127
f 125 127 143
f 125 143 126
f 126 143 142
f 126 142 144
f 126 144 139
f 128 145 129
f 129 145 146
f 129 146 147
f 129 147 141
f 130 148 131
f 131 149 150
f 131 150 132
f 41 66 67
f 120 138 121
f 120 137 138
f 120 136 137
f 119 133 134
f 103 122 104
f 105 108 106
f 105 122 139
f 105 139 123
f 105 123 108
f 106 108 107
f 111 118 124
f 111 124 112
f 112 125 126
f 102 113 103
f 112 126 122
f 112 124 127
f 112 127 125
f 117 128 118
f 118 128 129
f 118 129 141
f 118 141 124
f 119 130 131
f 119 131 132
f 119 132 133
f 112 122 113
f 63 88 89
f 120 135 136
f 62 87 63
f 52 80 53
f 53 80 56
f 54 70 101
f 54 101 100
f 54 100 99
f 54 99 98
f 54 98 97
f 54 97 121
f 54 121 138
f 54 138 137
f 54 137 136
f 54 136 135
f 54 135 156
f 54 156 171
f 54 171 190
f 54 190 189
f 54 189 188
f 54 188 187
f 54 187 205
f 52 54 80
f 50 78 51
f 49 79 77
f 49 55 79
f 41 68 64
f 63 87 88
f 42 69 70
f 43 51 78
f 43 78 71
f 43 71 72
f 43 72 73
f 43 73 45
f 43 45 44
f 54 205 226
f 45 73 104
f 45 74 105
f 45 75 76
f 45 76 59
f 45 59 47
f 45 47 46
f 47 59 58
f 48 49 77
f 48 77 78
f 48 78 50
f 45 104 74
f 54 226 225
f 45 105 75
f 54 224 223
f 54 146 145
f 54 145 128
f 54 128 117
f 54 117 116
f 54 116 115
f 54 115 114
f 54 114 83
f 54 83 82
f 54 82 57
f 54 161 146
f 54 57 56
f 55 81 79
f 55 82 83
f 55 83 84
f 55 84 81
f 59 76 85
f 60 62 61
f 54 225 224
f 62 86 87
f 60 86 62
f 54 56 80
f 54 179 161
f 55 57 82
f 54 192 179
f 54 243 269
f 54 223 222
f 54 269 303
f 54 303 338
f 54 338 337
f 54 222 243
f 54 361 360
f 54 360 359
f 54 359 377
f 54 377 378
f 54 337 361
f 54 371 369
f 54 369 346
f 54 208 192
f 54 346 342
f 54 342 314
f 54 314 279
f 54 279 249
f 54 249 230
f 54 378 372
f 54 230 208