# https://github.com/mikedh/trimesh
v -0.14812000 -0.25391200 -0.12716700
v -0.14812000 -0.25391200 -0.13754300
v -0.15870000 -0.25400800 -0.12716700
v -0.11659500 -0.26968000 -0.12716700
v -0.12695900 -0.26715600 -0.16003500
v -0.14812000 -0.25658000 -0.14943900
v -0.15341000 -0.25658000 -0.15341700
v -0.15891700 -0.25403100 -0.12716700
v -0.11285900 -0.27156200 -0.14460100
v -0.11991900 -0.26803700 -0.15165800
v -0.11285900 -0.27156200 -0.12716700
v -0.14812000 -0.26451200 -0.17986800
v -0.12166900 -0.26980000 -0.16135500
v -0.14108000 -0.26803700 -0.18338600
v -0.16928100 -0.26451200 -0.17986800
v -0.16568200 -0.25741400 -0.12716700
v -0.17984100 -0.26451200 -0.15869600
v -0.18513200 -0.26715600 -0.16399400
v -0.18690200 -0.26803700 -0.15869600
v -0.10227900 -0.28213800 -0.15517700
v -0.10933900 -0.27861200 -0.16223400
v -0.10227900 -0.28213800 -0.12716700
v -0.15870000 -0.32875100 -0.33141100
v -0.16214200 -0.32798900 -0.33141100
v -0.11108900 -0.28037500 -0.17193100
v -0.12166900 -0.28037500 -0.19308300
v -0.13225000 -0.28037500 -0.20367900
v -0.13754000 -0.27773100 -0.20233900
v -0.17455100 -0.26715600 -0.18514600
v -0.16928100 -0.32798900 -0.33141100
v -0.20806200 -0.27861200 -0.13754300
v -0.20806200 -0.27861200 -0.12716700
v -0.19042200 -0.27111000 -0.16929200
v -0.19394200 -0.27156200 -0.15869600
v -0.20629200 -0.27773100 -0.14284100
v -0.09875830 -0.28918800 -0.16223400
v -0.10050900 -0.29095100 -0.17193100
v -0.09521840 -0.29623800 -0.15869600
v -0.09521840 -0.29623800 -0.12716700
v -0.15181700 -0.33141900 -0.33141100
v -0.12166900 -0.29095100 -0.21425500
v -0.15156200 -0.33156200 -0.33141100
v -0.17984100 -0.27111000 -0.19044400
v -0.17984100 -0.32927500 -0.33141100
v -0.18328300 -0.32970400 -0.33141100
v -0.21508300 -0.28223300 -0.12716700
v -0.19571200 -0.27773100 -0.17457000
v -0.19280100 -0.33489600 -0.33141100
v -0.19510200 -0.33732600 -0.33141100
v -0.08817800 -0.31033900 -0.16223400
v -0.09875830 -0.31033900 -0.20455800
v -0.10050900 -0.31210200 -0.21425500
v -0.08463810 -0.31741300 -0.15869600
v -0.08463810 -0.31741300 -0.12716700
v -0.13402000 -0.34561500 -0.33141100
v -0.14652700 -0.33551600 -0.33141100
v -0.18574100 -0.33094200 -0.33141100
v -0.24057000 -0.31603200 -0.12716700
v -0.20452200 -0.33503900 -0.29622400
v -0.20452200 -0.34561500 -0.31737600
v -0.20279200 -0.35004500 -0.33141100
v -0.20894700 -0.35840500 -0.32795200
v -0.08463810 -0.32798900 -0.17986800
v -0.08817800 -0.32093800 -0.18338600
v -0.08992830 -0.32270100 -0.19308300
v -0.08729300 -0.32798900 -0.19176300
v -0.09787340 -0.31741300 -0.21293500
v -0.08817800 -0.34209000 -0.21513400
v -0.11108900 -0.36500300 -0.30943900
v -0.11982100 -0.36340700 -0.33141100
v -0.11995800 -0.36316900 -0.33141100
v -0.12391100 -0.35812000 -0.33141100
v -0.07405780 -0.34914000 -0.16929200
v -0.07405780 -0.34914000 -0.12716700
v -0.24692200 -0.32470200 -0.12716700
v -0.20894700 -0.34783000 -0.30680000
v -0.26173100 -0.34775800 -0.12716700
v -0.20865200 -0.35997700 -0.33141100
v -0.20979300 -0.36226400 -0.33141100
v -0.25124900 -0.36898100 -0.20102000
v -0.07671270 -0.34914000 -0.18118700
v -0.08463810 -0.34914000 -0.21159600
v -0.10845400 -0.37029100 -0.30812000
v -0.11714600 -0.37029100 -0.33141100
v -0.07405780 -0.35971500 -0.17986800
v -0.07405780 -0.40201800 -0.12716700
v -0.27231100 -0.36893300 -0.12716700
v -0.21158300 -0.37029100 -0.33141100
v -0.21952800 -0.36898100 -0.30680000
v -0.26448400 -0.38086700 -0.16929200
v -0.10579900 -0.40544700 -0.33141100
v -0.10845400 -0.39356200 -0.33141100
v -0.10845400 -0.39144200 -0.32929200
v -0.07405780 -0.37029100 -0.17986800
v -0.07415610 -0.41259300 -0.12716700
v -0.07405780 -0.40201800 -0.13754300
v -0.27496600 -0.38074700 -0.12716700
v -0.21158300 -0.41259300 -0.33141100
v -0.22216300 -0.38086700 -0.30680000
v -0.23274300 -0.39144200 -0.27505200
v -0.26448400 -0.39144200 -0.16929200
v -0.10579900 -0.41259300 -0.33141100
v -0.07405780 -0.38086700 -0.16929200
v -0.07417580 -0.41280700 -0.12716700
v -0.07405780 -0.39144200 -0.15869600
v -0.27496600 -0.40192200 -0.12716700
v -0.20987200 -0.41604700 -0.33141100
v -0.26977400 -0.41788100 -0.13226500
v -0.22216300 -0.40201800 -0.30680000
v -0.08463810 -0.41259300 -0.20102000
v -0.08463810 -0.42316900 -0.17986800
v -0.08463810 -0.43374400 -0.15869600
v -0.08729300 -0.43905600 -0.16399400
v -0.11724400 -0.43762700 -0.33141100
v -0.08475610 -0.44453400 -0.12716700
v -0.27231100 -0.41280700 -0.12716700
v -0.20454200 -0.42671800 -0.33141100
v -0.20629200 -0.42845600 -0.32267400
v -0.20452200 -0.43729300 -0.31031900
v -0.26654900 -0.42524100 -0.12716700
v -0.08729300 -0.44963100 -0.13226500
v -0.12229900 -0.44729700 -0.33141100
v -0.11962400 -0.44239000 -0.33141100
v -0.08813870 -0.45132200 -0.12716700
v -0.19396200 -0.43729300 -0.33141100
v -0.25809300 -0.43793600 -0.12716700
v -0.18342100 -0.44777300 -0.33141100
v -0.18328300 -0.44789300 -0.33141100
v -0.17824900 -0.45187000 -0.33141100
v -0.21510300 -0.47959500 -0.13048600
v -0.22635200 -0.46968700 -0.12716700
v -0.24751200 -0.44853600 -0.12716700
v -0.09169820 -0.45837300 -0.12716700
v -0.09126560 -0.45491900 -0.13754300
v -0.13639900 -0.45873000 -0.33141100
v -0.10227900 -0.46902000 -0.14811900
v -0.11500200 -0.48390700 -0.12716700
v -0.16798300 -0.45918300 -0.33141100
v -0.16271200 -0.46235100 -0.33141100
v -0.19461100 -0.49083800 -0.12716700
v -0.21510300 -0.47959500 -0.12716700
v -0.10570000 -0.47585600 -0.12716700
v -0.14098100 -0.46146900 -0.33141100
v -0.11516000 -0.48400200 -0.12716700
v -0.10595600 -0.47614200 -0.12716700
v -0.10611300 -0.47628500 -0.12716700
v -0.15870000 -0.46389900 -0.33141100
v -0.17980200 -0.49719700 -0.12716700
v -0.18513200 -0.49193400 -0.14284100
v -0.13616300 -0.49448200 -0.12716700
v -0.13643800 -0.49457700 -0.12716700
v -0.14467900 -0.46239800 -0.33141100
v -0.14812000 -0.46282700 -0.33141100
v -0.15870000 -0.49724500 -0.13754300
v -0.16928100 -0.49724500 -0.13754300
v -0.16928100 -0.49724500 -0.12716700
v -0.14833600 -0.49724500 -0.12716700
f 73 85 81
f 73 94 85
f 73 103 94
f 73 105 103
f 73 96 105
f 69 83 70
f 73 74 86
f 70 83 84
f 68 83 69
f 68 82 83
f 66 68 67
f 77 80 87
f 66 81 82
f 73 86 96
f 66 82 68
f 82 93 83
f 79 89 80
f 89 99 90
f 88 99 89
f 64 66 65
f 88 109 99
f 88 98 109
f 87 90 97
f 86 95 96
f 85 102 91
f 85 94 102
f 84 93 92
f 83 93 84
f 82 92 93
f 82 91 92
f 82 85 91
f 81 85 82
f 80 90 87
f 80 89 90
f 79 88 89
f 63 66 64
f 52 68 69
f 63 73 81
f 51 65 52
f 51 64 65
f 50 64 51
f 50 63 64
f 50 53 63
f 49 62 60
f 49 61 62
f 52 65 66
f 49 60 59
f 46 59 58
f 46 49 59
f 43 57 48
f 43 45 57
f 41 56 42
f 90 99 100
f 41 55 56
f 47 48 49
f 63 81 66
f 52 66 67
f 52 69 70
f 62 77 76
f 62 80 77
f 62 79 80
f 62 78 79
f 61 78 62
f 59 77 75
f 59 76 77
f 52 67 68
f 59 62 76
f 58 59 75
f 53 73 63
f 53 74 73
f 53 54 74
f 52 72 55
f 52 71 72
f 52 70 71
f 59 60 62
f 90 100 101
f 119 132 126
f 90 106 97
f 135 144 143
f 135 137 144
f 133 136 134
f 133 142 136
f 130 141 131
f 130 140 141
f 130 139 140
f 130 138 139
f 129 138 130
f 122 137 135
f 122 136 137
f 122 134 136
f 121 134 122
f 121 133 134
f 121 124 133
f 136 142 145
f 136 145 146
f 136 146 137
f 139 147 148
f 41 52 55
f 154 156 155
f 154 157 156
f 152 154 153
f 152 157 154
f 151 157 152
f 148 155 156
f 119 131 132
f 147 155 148
f 147 153 154
f 143 151 152
f 143 150 151
f 143 144 150
f 140 149 148
f 139 149 140
f 139 148 149
f 147 154 155
f 90 101 106
f 119 130 131
f 119 128 129
f 104 112 111
f 102 103 105
f 102 113 114
f 102 112 113
f 102 111 112
f 102 110 111
f 102 105 110
f 101 109 106
f 100 109 101
f 99 109 100
f 98 108 109
f 98 107 108
f 95 105 96
f 95 104 105
f 94 103 102
f 104 111 110
f 104 110 105
f 104 115 112
f 106 109 108
f 119 127 128
f 119 125 127
f 119 126 120
f 117 119 118
f 117 125 119
f 115 124 121
f 113 123 114
f 119 129 130
f 113 122 123
f 112 121 113
f 112 115 121
f 108 120 116
f 108 119 120
f 108 118 119
f 107 117 108
f 106 108 116
f 113 121 122
f 38 53 50
f 108 117 118
f 38 39 54
f 6 12 7
f 5 14 12
f 5 13 14
f 5 10 13
f 5 12 6
f 4 11 9
f 2 10 5
f 2 9 10
f 2 4 9
f 2 8 3
f 2 7 8
f 2 6 7
f 2 5 6
f 1 4 2
f 1 11 4
f 7 12 15
f 7 15 8
f 8 15 17
f 8 17 18
f 14 27 28
f 14 26 27
f 13 26 14
f 13 25 26
f 12 30 15
f 12 24 30
f 12 23 24
f 1 22 11
f 12 14 23
f 10 21 25
f 9 21 10
f 9 20 21
f 9 22 20
f 9 11 22
f 8 19 16
f 8 18 19
f 10 25 13
f 14 28 23
f 1 39 22
f 1 74 54
f 1 120 126
f 1 116 120
f 1 106 116
f 1 97 106
f 1 87 97
f 1 77 87
f 1 75 77
f 1 58 75
f 1 46 58
f 1 32 46
f 1 16 32
f 1 8 16
f 1 3 8
f 1 2 3
f 38 54 53
f 1 126 132
f 1 132 131
f 1 131 141
f 1 141 140
f 1 86 74
f 1 95 86
f 1 104 95
f 1 115 104
f 1 133 124
f 1 142 133
f 1 145 142
f 1 54 39
f 1 146 145
f 1 144 137
f 1 150 144
f 1 151 150
f 1 157 151
f 1 156 157
f 1 148 156
f 1 140 148
f 1 137 146
f 15 29 18
f 1 124 115
f 15 30 29
f 25 37 52
f 23 27 40
f 23 28 27
f 23 30 24
f 23 44 30
f 23 45 44
f 23 57 45
f 23 48 57
f 23 49 48
f 23 61 49
f 23 78 61
f 23 79 78
f 23 88 79
f 23 98 88
f 23 107 98
f 25 52 41
f 25 41 26
f 26 41 42
f 26 40 27
f 36 52 37
f 15 18 17
f 36 51 52
f 36 50 51
f 36 38 50
f 35 49 46
f 35 47 49
f 23 117 107
f 33 48 47
f 33 35 34
f 33 47 35
f 31 35 46
f 31 46 32
f 29 45 43
f 29 44 45
f 29 30 44
f 33 43 48
f 23 125 117
f 26 42 40
f 23 128 127
f 23 42 56
f 23 40 42
f 20 38 36
f 20 39 38
f 20 22 39
f 20 25 21
f 20 36 37
f 23 56 55
f 18 31 19
f 18 34 35
f 18 33 34
f 18 43 33
f 18 29 43
f 23 127 125
f 16 31 32
f 16 19 31
f 18 35 31
f 23 55 72
f 20 37 25
f 23 71 70
f 23 139 138
f 23 72 71
f 23 147 139
f 23 153 147
f 23 129 128
f 23 138 129
f 23 143 152
f 23 135 143
f 23 122 135
f 23 152 153
f 23 123 122
f 23 114 123
f 23 102 114
f 23 91 102
f 23 92 91
f 23 84 92
f 23 70 84