# https://github.com/mikedh/trimesh
v 0.01015820 0.41218900 0.16419400
v -0.01099500 0.41218900 0.16419400
v 0.01489190 0.41218900 0.16300200
v 0.01057860 0.95212900 0.11637000
v -0.01682330 0.41218900 0.15953100
v -0.01057450 0.95212900 0.11637000
v -0.02468140 0.95212900 0.10933100
v 0.01912540 0.41218900 0.15666200
v 0.02468560 0.95564400 0.10933100
v 0.01410180 0.96624500 0.10933100
v 0.00704829 0.95921400 0.11285000
v -0.01729450 0.41218900 0.15910700
v -0.01410490 0.95921400 0.11285000
v -0.01851240 0.95745700 0.11109600
v -0.01983170 0.96273000 0.10844400
v -0.02908890 0.96800300 0.10050700
v -0.03526530 0.92038000 0.09875250
v 0.02073480 0.41218900 0.15020500
v 0.03173900 0.95212900 0.09522310
v 0.02644710 0.96800300 0.10050700
v 0.01057860 0.97327600 0.09522310
v -0.00705140 0.96624500 0.10933100
v -0.02115830 0.42322900 0.14811500
v -0.02115830 0.41218900 0.14811500
v -0.03967280 0.92570800 0.08992890
v -0.04231870 0.87808600 0.08464470
v -0.02468140 0.96976100 0.10227200
v -0.02821180 0.96976100 0.09522310
v -0.03173490 0.96273000 0.09522310
v 0.02115520 0.41218900 0.14811500
v 0.02115520 0.42322900 0.14811500
v 0.03173900 0.96273000 0.08464470
v 0.03173900 0.41218900 0.09522310
v 0.02820870 0.96976100 0.08111530
v 0.02115520 0.97327600 0.08464470
v -0.02115830 0.97327600 0.09522310
v -0.03173490 0.41218900 0.09522310
v -0.03173490 0.96273000 0.08464470
v -0.03173490 0.95212900 0.07406630
v -0.02821180 0.95564400 0.06700750
v -0.03878840 0.88160100 0.07758590
v -0.03526530 0.87457100 0.07053690
v -0.03173490 0.41218900 0.08464470
v -0.02821180 0.96976100 0.08464470
v 0.02468560 0.96273000 0.07053690
v 0.02644710 0.96800300 0.07670850
v 0.03173900 0.93098100 0.07406630
v 0.03173900 0.41218900 0.08464470
v 0.02115520 0.97063900 0.07273540
v 0.01057860 0.97327600 0.07406630
v -0.02115830 0.97327600 0.08464470
v -0.02908890 0.96404800 0.07406630
v -0.02644300 0.96536600 0.06877220
v -0.02115830 0.96404800 0.06613010
v -0.02115830 0.95212900 0.06347810
v -0.02115830 0.87808600 0.06347810
v -0.01057450 0.41218900 0.06347810
v -0.02157150 0.41218900 0.06897920
v -0.02468140 0.41218900 0.07053690
v -0.02821180 0.41218900 0.07758590
v -0.03152470 0.41218900 0.08422080
v -0.02644300 0.97063900 0.07935060
v 0.01586330 0.96800300 0.06613010
v 0.02820870 0.93098100 0.06700750
v 0.02644710 0.93625500 0.06613010
v 0.02909310 0.92570800 0.06877220
v 0.03173900 0.87808600 0.07406630
v 0.02468560 0.41218900 0.07053690
v 0.02909310 0.87281300 0.06877220
v 0.01057860 0.96976100 0.06700750
v -0.01057450 0.97327600 0.07406630
v -0.01586640 0.97063900 0.06877220
v -0.01057450 0.96976100 0.06700750
v -0.01057450 0.96273000 0.06347810
v 0.01057860 0.41218900 0.06347810
v 0.01057860 0.96273000 0.06347810
v 0.02115520 0.93098100 0.06347810
v 0.02820870 0.87808600 0.06700750
v 0.02115520 0.87808600 0.06347810
f 1 2 5
f 40 53 54
f 40 54 55
f 40 55 56
f 40 56 42
f 40 42 41
f 42 56 57
f 42 57 58
f 42 58 59
f 42 59 60
f 42 60 61
f 42 61 43
f 44 51 62
f 44 62 52
f 45 63 49
f 45 49 46
f 40 52 53
f 39 52 40
f 38 52 39
f 38 44 52
f 26 39 40
f 26 40 41
f 26 41 42
f 26 42 43
f 26 43 37
f 27 36 28
f 28 44 38
f 45 47 64
f 28 38 29
f 28 51 44
f 32 45 46
f 32 46 34
f 32 47 45
f 34 46 49
f 34 49 35
f 35 49 50
f 28 36 51
f 25 39 26
f 45 64 65
f 47 66 64
f 55 79 75
f 55 75 57
f 55 57 56
f 63 65 76
f 63 76 70
f 64 77 65
f 64 66 69
f 64 69 78
f 64 78 79
f 64 79 77
f 65 77 76
f 68 79 78
f 68 78 69
f 70 76 74
f 70 74 73
f 55 77 79
f 55 76 77
f 55 74 76
f 54 74 55
f 47 67 69
f 47 69 66
f 48 68 69
f 48 69 67
f 49 63 70
f 49 70 50
f 50 70 73
f 45 65 63
f 50 73 72
f 51 71 72
f 51 72 62
f 52 62 53
f 53 62 72
f 53 72 54
f 54 72 73
f 54 73 74
f 50 72 71
f 25 38 39
f 68 75 79
f 24 26 37
f 2 6 7
f 2 7 5
f 3 8 9
f 3 9 4
f 4 9 10
f 4 10 11
f 4 11 13
f 4 13 6
f 5 7 12
f 6 13 14
f 6 14 7
f 7 14 15
f 7 15 16
f 7 16 17
f 7 17 12
f 1 6 2
f 1 4 6
f 1 3 4
f 1 8 3
f 25 29 38
f 1 5 12
f 1 12 24
f 1 37 43
f 1 43 61
f 1 61 60
f 1 60 59
f 8 18 19
f 1 59 58
f 1 57 75
f 1 75 68
f 1 68 48
f 1 48 33
f 1 33 30
f 1 30 18
f 1 18 8
f 1 58 57
f 8 19 9
f 1 24 37
f 9 20 10
f 19 32 20
f 19 31 30
f 19 30 33
f 19 33 48
f 19 48 67
f 19 67 47
f 19 47 32
f 20 32 34
f 20 34 35
f 20 35 21
f 21 35 50
f 21 50 71
f 21 71 51
f 22 36 27
f 9 19 20
f 18 31 19
f 18 30 31
f 21 51 36
f 16 29 25
f 10 20 21
f 16 25 17
f 10 21 36
f 10 36 22
f 10 22 13
f 10 13 11
f 12 23 24
f 12 17 25
f 23 26 24
f 12 26 23
f 13 22 27
f 13 27 15
f 12 25 26
f 13 15 14
f 15 27 16
f 16 27 28
f 16 28 29