# https://github.com/mikedh/trimesh
v -0.26449200 0.14809900 0.01059990
v -0.26449200 0.14809900 0.07409140
v -0.26449200 0.15868000 -0.01271170
v -0.24331400 -0.14809900 0.20103000
v -0.26449200 0.16926100 0.09525520
v -0.24331400 -0.13751900 0.21163400
v -0.26449200 0.24112400 -0.01271170
v -0.15756600 -0.21048300 -0.01271170
v -0.20261500 -0.21262300 0.04232330
v -0.21638800 -0.21262300 0.07015390
v -0.22125600 -0.21262300 0.08169780
v -0.23104200 -0.21262300 0.11449500
v -0.23140500 -0.21262300 0.11641900
v -0.23311300 -0.21262300 0.12595000
v -0.23275100 -0.21262300 0.20103000
v -0.26449200 0.20100300 0.10581500
v -0.23275100 -0.15868000 0.24331300
v -0.23275100 -0.10577700 0.25387200
v -0.24331400 -0.08461520 0.21163400
v -0.26449200 0.24332600 -0.01056400
v -0.26392200 0.24357000 -0.01271170
v -0.15689300 -0.21262300 -0.01271170
v -0.22213600 -0.21262300 0.24331300
v -0.26449200 0.23274500 0.10581500
v -0.21897700 -0.21262300 0.24966600
v -0.21949500 -0.16926100 0.26577400
v -0.21509400 -0.15868000 0.27857100
v -0.22565700 -0.10577700 0.26801100
v -0.21509400 0.00003050 0.29973500
v -0.22213600 0.00003050 0.28564000
v -0.23275100 0.10577600 0.25387200
v -0.26449200 0.25390600 0.02115940
v -0.25387700 0.27506800 0.01059990
v -0.25123600 0.27635200 0.00004033
v -0.25387700 0.26448700 -0.01271170
v 0.15756600 -0.21262300 -0.01271170
v -0.24331400 0.25390600 0.16930600
v -0.26449200 0.24332600 0.09525520
v -0.21193500 -0.21262300 0.26380500
v -0.20101000 -0.21262300 0.28564000
v -0.19427800 -0.21262300 0.29906300
v -0.19391600 -0.21262300 0.29973500
v -0.19391600 -0.17984200 0.31029400
v -0.20453100 -0.13751900 0.29973500
v -0.19391600 0.05293400 0.34206200
v -0.20453100 0.03177260 0.32089800
v -0.20101000 0.05293400 0.32796800
v -0.22213600 0.09525690 0.28564000
v -0.21949500 0.10045500 0.29092000
v -0.23005800 0.11103600 0.25919700
v -0.24067300 0.25916600 0.17458600
v -0.26449200 0.25390600 0.08465090
v -0.24331400 0.29622900 0.03176370
v -0.23627200 0.31029600 0.03176370
v -0.24683500 0.28913500 0.01059990
v -0.23627200 0.29971500 -0.01271170
v -0.24331400 0.28564800 -0.01271170
v 0.20199400 -0.21262300 0.04183110
v 0.26335300 0.15647800 -0.01271170
v -0.24067300 0.26974700 0.16402700
v -0.24067300 0.29090800 0.14286300
v -0.17279000 -0.21262300 0.33145800
v -0.18335300 -0.20100300 0.32089800
v -0.18335300 -0.14809900 0.33145800
v -0.18335300 -0.07403450 0.34206200
v -0.18335300 0.00003050 0.35262200
v -0.18335300 0.08467620 0.36322600
v -0.19836900 0.11103600 0.33324800
v -0.20101000 0.10577600 0.32796800
v -0.21157300 0.10577600 0.30680400
v -0.20893200 0.11103600 0.31208400
v -0.22612300 0.24332600 0.21163400
v -0.22612300 0.26448700 0.20103000
v -0.23668600 0.26448700 0.17986600
v -0.23005800 0.30148900 0.16402700
v -0.26179900 0.25916600 0.08993070
v -0.25123600 0.28032800 0.10053500
v -0.24067300 0.30148900 0.10053500
v -0.24331400 0.29622900 0.09525520
v -0.23627200 0.31029600 0.09525520
v -0.21509400 0.34203800 0.09525520
v -0.22565700 0.32087700 0.00004033
v -0.21509400 0.33145700 -0.01271170
v 0.21260900 -0.21262300 0.06299490
v 0.26366400 0.15868000 -0.01271170
v 0.26449200 0.15868000 -0.01056400
v 0.23057600 -0.21262300 0.10474100
v 0.23005800 -0.21262300 0.10348800
v 0.21737200 -0.21262300 0.07306230
v -0.23668600 0.29622900 0.14814200
v -0.23005800 0.31207000 0.14286300
v -0.16186400 -0.21262300 0.34210700
v -0.15161200 -0.21158400 0.35262200
v -0.15161200 -0.16926100 0.36322600
v -0.17279000 -0.16926100 0.34206200
v -0.17279000 -0.10577700 0.35262200
v -0.17279000 0.05293400 0.37378600
v -0.18335300 0.09525690 0.36322600
v -0.18775400 0.10045500 0.35441200
v -0.19438200 0.11635700 0.33852700
v -0.18381900 0.15868000 0.33852700
v -0.18381900 0.17984100 0.32796800
v -0.21556000 0.28564800 0.20103000
v -0.20365100 0.30148900 0.20630900
v -0.20365100 0.31207000 0.19575000
v -0.20365100 0.32265000 0.18514600
v -0.21556000 0.31732900 0.16930600
v -0.22565700 0.31029600 0.15870200
v -0.22565700 0.32087700 0.13753800
v -0.21509400 0.34203800 0.11641900
v -0.20453100 0.35261900 0.09525520
v -0.20805200 0.34558500 0.04232330
v -0.20453100 0.34203800 -0.01271170
v 0.26449200 0.16926100 -0.01271170
v 0.26449200 0.14809900 0.02115940
v 0.24331400 -0.14809900 0.20103000
v 0.23321700 -0.21262300 0.11691100
v 0.23301000 -0.21262300 0.11547900
v -0.15124900 -0.21262300 0.35230900
v -0.13856300 -0.21262300 0.36237600
v -0.13752800 -0.21158400 0.36367400
v -0.14809100 -0.17984200 0.36367400
v -0.13043400 -0.14809900 0.38439000
v -0.14104900 -0.09519590 0.38439000
v -0.16217500 -0.11635700 0.36322600
v -0.15161200 0.06351480 0.39494900
v -0.17279000 0.09525690 0.37378600
v -0.15161200 0.12693800 0.38439000
v -0.17279000 0.15868000 0.35262200
v -0.18335300 0.12693800 0.35262200
v -0.18775400 0.13219800 0.34380700
v -0.17279000 0.17984100 0.34206200
v -0.17719100 0.18510100 0.33324800
v -0.17190900 0.19568200 0.33324800
v -0.18381900 0.22216400 0.29620000
v -0.17190900 0.23800500 0.30148000
v -0.14016800 0.31207000 0.25919700
v -0.17190900 0.25916600 0.28036100
v -0.14016800 0.23800500 0.33324800
v -0.10842700 0.26974700 0.33324800
v -0.18247300 0.34381200 0.17458600
v -0.19303600 0.34381200 0.16402700
v -0.20453100 0.34203800 0.14814200
v -0.20893200 0.32265000 0.17458600
v -0.12955300 0.31207000 0.26975600
v -0.19391600 0.35261900 0.13753800
v -0.18335300 0.36320000 0.11641900
v -0.17279000 0.37378000 0.09525520
v -0.16217500 0.38436100 0.04232330
v -0.16217500 0.38436100 0.03176370
v -0.17279000 0.37378000 -0.01056400
v -0.18335300 0.36320000 -0.01271170
v 0.26449200 0.23274500 -0.01271170
v 0.26449200 0.14809900 0.07409140
v 0.24331400 -0.14809900 0.21163400
v 0.23321700 -0.21262300 0.14711300
v -0.11702300 -0.21262300 0.37351700
v -0.12691300 -0.20100300 0.37423300
v -0.13752800 -0.16926100 0.37423300
v -0.12691300 -0.15868000 0.38479300
v -0.12163100 -0.15335900 0.38877500
v -0.12163100 -0.07929420 0.39937900
v -0.13043400 -0.07403450 0.39494900
v -0.14104900 -0.01055020 0.39494900
v -0.15161200 -0.02113090 0.38439000
v -0.13043400 0.04235330 0.40555400
v -0.14280900 0.05819380 0.39937900
v -0.15161200 0.07409550 0.39494900
v -0.16217500 0.08467620 0.38439000
v -0.14104900 0.11635700 0.39494900
v -0.14104900 0.14809900 0.38439000
v -0.15161200 0.15868000 0.37378600
v -0.16217500 0.17984100 0.35262200
v -0.15073100 0.19568200 0.35441200
v -0.15073100 0.22742400 0.33324800
v -0.16129500 0.22742400 0.32264300
v -0.10842700 0.29090800 0.31208400
v -0.10842700 0.30148900 0.30148000
v -0.11899000 0.24858500 0.34380700
v -0.09781230 0.24858500 0.35441200
v -0.08724920 0.26974700 0.34380700
v -0.06612300 0.29090800 0.33324800
v -0.14016800 0.35439300 0.19575000
v -0.17190900 0.35439300 0.16402700
v -0.11899000 0.33323100 0.24859200
v -0.18247300 0.35439300 0.15342200
v -0.09781230 0.32265000 0.28036100
v -0.18112600 0.35702200 0.14814200
v -0.14104900 0.38436100 0.12697900
v -0.16574800 0.37732800 0.09525520
v -0.15513300 0.38790800 0.04232330
v -0.15513300 0.38790800 0.03176370
v -0.15337200 0.38876500 0.02648390
v -0.16502300 0.37769500 -0.01271170
v -0.17206500 0.37390300 -0.01271170
v 0.26205800 0.24234700 -0.01271170
v 0.26449200 0.24332600 0.00004033
v 0.26449200 0.16926100 0.09525520
v 0.24331400 -0.11635700 0.22214900
v 0.23275100 -0.15868000 0.24331300
v 0.22213600 -0.21262300 0.24331300
v 0.23083500 -0.21262300 0.20971000
v 0.23171500 -0.21262300 0.20617500
v 0.23275100 -0.21262300 0.20103000
v 0.26449200 0.20100300 0.10581500
v -0.09589650 -0.21262300 0.38407700
v -0.09517160 -0.21262300 0.38443500
v -0.09517160 -0.21158400 0.38479300
v -0.12163100 -0.19568200 0.37821500
v -0.08989000 -0.20626300 0.38877500
v -0.11106800 -0.12161700 0.39937900
v -0.10050500 -0.07929420 0.40993900
v -0.08989000 -0.03697140 0.42049800
v -0.13224600 -0.01581000 0.39937900
v -0.12163100 0.03703240 0.40993900
v -0.10226500 0.04235330 0.41964800
v -0.10226500 0.06351480 0.41964800
v -0.13752800 0.07409550 0.40201900
v -0.13043400 0.08467620 0.40555400
v -0.13400700 0.11635700 0.39848400
v -0.12825900 0.12693800 0.39937900
v -0.11769600 0.14809900 0.39937900
v -0.13043400 0.13751900 0.39494900
v -0.11899000 0.15335900 0.39669400
v -0.14016800 0.17452000 0.37557500
v -0.12955300 0.20626300 0.36497100
v -0.08724920 0.30148900 0.31208400
v -0.09781230 0.21684300 0.37557500
v -0.06612300 0.23800500 0.37557500
v -0.05550810 0.25916600 0.36497100
v -0.04934630 0.29971500 0.33145800
v -0.06612300 0.30148900 0.32264300
v -0.03878320 0.26797300 0.36322600
v -0.11899000 0.36497300 0.19575000
v -0.10842700 0.37555400 0.18514600
v -0.14016800 0.37555400 0.15342200
v -0.12955300 0.38613500 0.14286300
v -0.12825900 0.38876500 0.13753800
v -0.05638840 0.30326300 0.32443300
v -0.08812950 0.32442400 0.28210600
v -0.08812950 0.35616600 0.22921800
v -0.09781230 0.35439300 0.22742900
v -0.13400700 0.38790800 0.12697900
v -0.12339200 0.39848900 0.09525520
v -0.14809100 0.39139400 0.04232330
v -0.14809100 0.39139400 0.03176370
v -0.11635000 0.40197500 -0.01271170
v -0.11779900 0.40130200 -0.01271170
v -0.13897700 0.39072200 -0.01271170
v 0.25149500 0.27408900 -0.01271170
v 0.25387700 0.27506800 0.00004033
v 0.26449200 0.25390600 0.05292760
v 0.24331400 -0.10577700 0.22214900
v 0.23275100 -0.09519590 0.25387200
v 0.22917800 -0.16216600 0.25038200
v 0.22917800 -0.09874320 0.26094200
v 0.21861500 -0.21262300 0.25038200
v 0.26449200 0.22216400 0.10581500
v -0.07508090 -0.21262300 0.39092300
v -0.06876380 -0.18510100 0.39937900
v -0.07932690 -0.12161700 0.40993900
v -0.10578600 -0.11635700 0.40201900
v -0.08460850 -0.03171160 0.42318300
v -0.10050500 0.03703240 0.42049800
v -0.09517160 0.04235330 0.42318300
v -0.09517160 0.06351480 0.42318300
v -0.11635000 0.08467620 0.41257900
v -0.11987100 0.11635700 0.40555400
v -0.10578600 0.11635700 0.41257900
v -0.10708100 0.12693800 0.40993900
v -0.08595470 0.11635700 0.42049800
v -0.04359870 0.12693800 0.43110200
v -0.08595470 0.17984100 0.39937900
v -0.10842700 0.16394000 0.39669400
v -0.10842700 0.20626300 0.37557500
v -0.07668610 0.19568200 0.39669400
v -0.05550810 0.22742400 0.38613500
v -0.03438190 0.23800500 0.38613500
v -0.04494500 0.24858500 0.37557500
v -0.04582530 0.26094000 0.36676100
v -0.02464730 0.30326300 0.33499300
v -0.00704207 0.27855400 0.36322600
v -0.09869260 0.37732800 0.18693500
v -0.01097740 0.41218900 0.16420500
v -0.11769600 0.38876500 0.14814200
v -0.11899000 0.38613500 0.15342200
v -0.01729450 0.41218900 0.15914900
v -0.11769600 0.39934500 0.10581500
v -0.12691300 0.39139400 0.12697900
v -0.04582530 0.31384300 0.31382900
v -0.11635000 0.40197500 0.09525520
v -0.03168930 0.41218900 0.08465090
v -0.02620070 0.41218900 0.07364400
v -0.02464730 0.41218900 0.07055660
v -0.02154050 0.41218900 0.06899060
v -0.01056310 0.41218900 0.06348710
v 0.11635000 0.40197500 -0.01271170
v 0.25118500 0.27482300 -0.01271170
v 0.25035600 0.28210100 -0.00349443
v 0.24331400 0.29622900 0.03176370
v 0.26449200 0.25390600 0.08465090
v 0.23275100 0.08467620 0.25387200
v 0.22213600 0.00003050 0.28564000
v 0.21861500 -0.00351679 0.29266500
v 0.21861500 -0.16216600 0.27150100
v 0.20152800 -0.21262300 0.28461100
v 0.26449200 0.24332600 0.09525520
v 0.25387700 0.25390600 0.13753800
v -0.03272490 -0.21262300 0.40148200
v -0.03168930 -0.21158400 0.40201900
v -0.04230420 -0.20100300 0.40201900
v -0.03702270 -0.17452100 0.40993900
v -0.06343050 -0.17984200 0.40201900
v -0.07404530 -0.11635700 0.41257900
v -0.06343050 -0.07403450 0.42318300
v -0.07404530 -0.05287310 0.42318300
v -0.05286730 -0.02113090 0.43374200
v -0.06343050 0.01061120 0.43374200
v -0.03168930 0.03177260 0.44434700
v -0.03168930 0.05293400 0.44434700
v -0.06343050 0.06351480 0.43374200
v -0.08460850 0.10577600 0.42318300
v -0.04230420 0.11635700 0.43374200
v -0.02112620 0.09525690 0.44434700
v -0.03168930 0.12693800 0.43374200
v -0.02112620 0.16926100 0.42318300
v -0.03303560 0.16926100 0.42049800
v -0.05421360 0.17984100 0.40993900
v -0.07533980 0.19042200 0.39937900
v -0.05550810 0.18510100 0.40729900
v -0.06700330 0.19745600 0.39848400
v -0.04582530 0.22919800 0.38788000
v -0.02464730 0.23977800 0.38788000
v -0.03526220 0.25035900 0.37732000
v -0.01760520 0.24681200 0.38439000
v -0.01408410 0.27152000 0.36676100
v -0.00704207 0.29971500 0.34206200
v -0.00704207 0.32087700 0.31029400
v 0.01408410 0.27855400 0.36322600
v 0.01014890 0.41218900 0.16420500
v -0.02112620 0.41218900 0.14814200
v -0.03168930 0.41218900 0.09525520
v 0.01056310 0.41218900 0.06348710
v 0.12069900 0.39983500 -0.01271170
v 0.01734630 0.41218900 0.06688760
v 0.02438840 0.41218900 0.07042240
v 0.02464730 0.41218900 0.07055660
v 0.02806470 0.41218900 0.07731290
v 0.03158580 0.41218900 0.08438250
v 0.03168930 0.41218900 0.08465090
v 0.11635000 0.40197500 0.08465090
v 0.24952800 0.27843200 -0.01271170
v 0.24859600 0.28032800 -0.01271170
v 0.24828500 0.28093900 -0.01271170
v 0.23627200 0.29971500 -0.01271170
v 0.22917800 0.31384300 -0.00349443
v 0.24683500 0.28913500 0.00353035
v 0.23979300 0.30326300 0.02822900
v 0.24331400 0.29622900 0.09525520
v 0.25387700 0.27506800 0.09525520
v 0.24331400 0.28564800 0.13753800
v 0.22213600 0.09525690 0.28564000
v 0.24331400 0.23274500 0.17986600
v 0.20101000 0.04235330 0.32796800
v 0.21509400 0.00357779 0.29973500
v 0.21509400 -0.15513300 0.27857100
v 0.19743700 -0.18332800 0.30326900
v 0.19391600 -0.21262300 0.29973500
v 0.19997400 -0.21262300 0.28769800
v 0.23803200 0.29090800 0.15342200
v 0.23803200 0.28032800 0.16402700
v 0.23803200 0.26974700 0.17458600
v 0.24331400 0.25390600 0.16930600
v -0.03168930 -0.21262300 0.40161600
v -0.02112620 -0.21262300 0.40201900
v -0.01056310 -0.17984200 0.41257900
v -0.00000000 -0.10577700 0.43374200
v -0.03168930 -0.16926100 0.41257900
v -0.04230420 -0.10577700 0.42318300
v -0.01056310 -0.09519590 0.43374200
v -0.00000000 -0.04229230 0.44434700
v -0.02112620 0.00003050 0.44434700
v 0.02112620 0.09525690 0.44434700
v -0.01056310 0.13751900 0.43374200
v -0.02464730 0.17629400 0.41964800
v 0.02112620 0.16926100 0.42318300
v -0.02112620 0.21158400 0.40201900
v -0.03438190 0.17452000 0.41785800
v -0.02464730 0.21861700 0.39848400
v 0.02464730 0.24681200 0.38439000
v 0.01408410 0.29971500 0.34206200
v 0.04582530 0.26797300 0.36322600
v 0.05638840 0.29971500 0.33145800
v 0.01486080 0.41218900 0.16304200
v 0.04582530 0.31029600 0.32089800
v 0.14187700 0.38925400 -0.01271170
v 0.12339200 0.39848900 0.08111620
v 0.14457000 0.38790800 0.09172050
v 0.03168930 0.41218900 0.09525520
v 0.02071200 0.41218900 0.15024500
v 0.01910680 0.41218900 0.15668900
v 0.10578600 0.40197500 0.10581500
v 0.12163100 0.39671500 0.10053500
v 0.13752800 0.39139400 0.09525520
v 0.21509400 0.33145700 -0.01271170
v 0.22565700 0.32087700 0.00353035
v 0.23627200 0.31029600 0.03529850
v 0.23627200 0.31029600 0.09874520
v 0.24683500 0.28913500 0.09874520
v 0.23627200 0.29971500 0.14107300
v 0.21157300 0.10577600 0.30680400
v 0.23803200 0.24858500 0.18514600
v 0.20101000 0.10577600 0.32796800
v 0.19391600 0.04590060 0.34206200
v 0.20453100 0.02473920 0.32089800
v 0.20453100 -0.13397100 0.29973500
v 0.19391600 -0.17629400 0.31029400
v 0.18335300 -0.19745600 0.32089800
v 0.18687400 -0.20448900 0.31382900
v 0.17279000 -0.21262300 0.33145800
v 0.22741800 0.31207000 0.15342200
v 0.22741800 0.30148900 0.17458600
v 0.18511300 0.18510100 0.32264300
v 0.18511300 0.16394000 0.33324800
v 0.20629100 0.18510100 0.28036100
v 0.20629100 0.12161700 0.31208400
v 0.22741800 0.29090800 0.18514600
v 0.01056310 -0.21262300 0.40201900
v -0.00000000 -0.17984200 0.41257900
v 0.01056310 -0.13751900 0.42318300
v 0.07300970 -0.21262300 0.39141500
v 0.07404530 -0.21262300 0.39119100
v 0.01056310 -0.10706100 0.43110200
v 0.01056310 -0.09519590 0.43374200
v 0.02112620 -0.02113090 0.44434700
v 0.06343050 0.07409550 0.43374200
v 0.05286730 0.10577600 0.43374200
v 0.05110680 0.11458300 0.43199700
v 0.04054370 0.12516400 0.43199700
v 0.03168930 0.12693800 0.43374200
v 0.01056310 0.13751900 0.43374200
v 0.04758580 0.13219800 0.42846300
v 0.03702270 0.17452000 0.41785800
v 0.02464730 0.18332800 0.41611300
v 0.02464730 0.20448900 0.40555400
v 0.02112620 0.21158400 0.40201900
v 0.04758580 0.24858500 0.37557500
v 0.03702270 0.23800500 0.38613500
v 0.04582530 0.23623100 0.38439000
v 0.07756640 0.27855400 0.34206200
v 0.06876380 0.23800500 0.37557500
v 0.05814890 0.25916600 0.36497100
v 0.07756640 0.29971500 0.32089800
v 0.07756640 0.31029600 0.31029400
v 0.09869260 0.37378000 0.19400500
v 0.11106800 0.37555400 0.18514600
v 0.12163100 0.38613500 0.15342200
v 0.11106800 0.39671500 0.12169900
v 0.08812950 0.32087700 0.28917500
v 0.08812950 0.35261900 0.23624300
v 0.16574800 0.37732800 -0.01271170
v 0.16574800 0.37732800 0.09172050
v 0.15161200 0.38436100 0.09874520
v 0.14280900 0.38613500 0.11109500
v 0.20453100 0.34203800 -0.01271170
v 0.21509400 0.34203800 0.06702190
v 0.21509400 0.34203800 0.11990900
v 0.22565700 0.32087700 0.14107300
v 0.20453100 0.10926300 0.32089800
v 0.19391600 0.10926300 0.34206200
v 0.17279000 0.05648130 0.37378600
v 0.18335300 -0.07048720 0.34206200
v 0.18335300 -0.14455200 0.33145800
v 0.16217500 -0.16571400 0.35262200
v 0.15513300 -0.18332800 0.35615700
v 0.15161200 -0.20803600 0.35262200
v 0.14705500 -0.21262300 0.35490400
v 0.16217500 -0.11281000 0.36322600
v 0.20629100 0.31207000 0.19575000
v 0.22565700 0.31029600 0.16223700
v 0.20629100 0.32265000 0.18514600
v 0.17455000 0.19568200 0.33324800
v 0.18159200 0.18161500 0.32971300
v 0.18335300 0.15158500 0.34206200
v 0.19567600 0.12161700 0.33324800
v 0.20629100 0.30148900 0.20630900
v 0.17455000 0.23800500 0.30148000
v 0.03168930 -0.20100300 0.40201900
v 0.08460850 -0.21262300 0.38886400
v 0.08460850 -0.20100300 0.39141500
v 0.08460850 -0.14809900 0.40201900
v 0.10578600 -0.11635700 0.40201900
v 0.08460850 -0.03171160 0.42318300
v 0.06343050 0.02119190 0.43374200
v 0.09517160 0.06351480 0.42318300
v 0.08460850 0.10577600 0.42318300
v 0.05814890 0.12161700 0.42846300
v 0.10050500 0.14277800 0.40729900
v 0.06876380 0.17452000 0.40729900
v 0.05814890 0.18510100 0.40729900
v 0.03702270 0.19568200 0.40729900
v 0.05814890 0.22742400 0.38613500
v 0.08989000 0.26974700 0.34380700
v 0.11106800 0.26974700 0.33324800
v 0.09869260 0.27855400 0.33145800
v 0.09869260 0.28913500 0.32089800
v 0.07932690 0.19568200 0.39669400
v 0.10050500 0.21684300 0.37557500
v 0.10050500 0.24858500 0.35441200
v 0.09869260 0.31029600 0.29973500
v 0.11106800 0.31207000 0.29092000
v 0.10050500 0.32265000 0.28036100
v 0.10050500 0.35439300 0.22742900
v 0.12163100 0.36497300 0.19575000
v 0.13224600 0.37555400 0.16402700
v 0.14280900 0.37555400 0.15342200
v 0.13224600 0.38613500 0.13225800
v 0.16709400 0.37665500 -0.01271170
v 0.17279000 0.37378000 0.09874520
v 0.17455000 0.36497300 0.13225800
v 0.16393500 0.37555400 0.11109500
v 0.18335300 0.36320000 -0.01271170
v 0.17279000 0.37378000 -0.00702919
v 0.19391600 0.35261900 0.14107300
v 0.20453100 0.34203800 0.15167700
v 0.17279000 0.08822350 0.37378600
v 0.18335300 0.11984300 0.35262200
v 0.15161200 0.06706200 0.39494900
v 0.16217500 0.05648130 0.38439000
v 0.15161200 -0.11281000 0.37378600
v 0.17279000 -0.09164860 0.35262200
v 0.15161200 -0.16571400 0.36322600
v 0.14094500 -0.21262300 0.35933300
v 0.14104900 -0.19745600 0.36322600
v 0.13400700 -0.20448900 0.36676100
v 0.15513300 -0.13042400 0.36676100
v 0.14280900 0.29090800 0.29092000
v 0.19567600 0.34381200 0.16402700
v 0.17455000 0.34381200 0.18514600
v 0.19567600 0.32265000 0.19575000
v 0.16393500 0.22742400 0.32264300
v 0.15337200 0.22742400 0.33324800
v 0.13224600 0.22742400 0.35441200
v 0.15337200 0.19568200 0.35441200
v 0.17279000 0.18332800 0.34206200
v 0.17279000 0.16216600 0.35262200
v 0.12717200 -0.21262300 0.36761100
v 0.09165050 -0.20448900 0.38788000
v 0.12163100 -0.16131000 0.38613500
v 0.11635000 -0.15996500 0.38877500
v 0.11635000 -0.14809900 0.39141500
v 0.11282900 -0.11984300 0.39848400
v 0.12339200 -0.08816250 0.39848400
v 0.11635000 -0.08461520 0.40201900
v 0.09165050 -0.03525890 0.41964800
v 0.10226500 0.03880600 0.41964800
v 0.09517160 0.04235330 0.42318300
v 0.10226500 0.05996750 0.41964800
v 0.13043400 0.08822350 0.40555400
v 0.11635000 0.08467620 0.41257900
v 0.10578600 0.11635700 0.41257900
v 0.11106800 0.13219800 0.40729900
v 0.08989000 0.12161700 0.41785800
v 0.10050500 0.17452000 0.39669400
v 0.13224600 0.18510100 0.37557500
v 0.14280900 0.35439300 0.19575000
v 0.17455000 0.35439300 0.16402700
v 0.18511300 0.35439300 0.15342200
v 0.17118500 0.37341300 -0.01271170
v 0.15161200 0.08822350 0.39494900
v 0.15161200 0.13042400 0.38439000
v 0.14457000 0.05996750 0.39848400
v 0.13043400 0.03531990 0.40555400
v 0.14104900 -0.01758360 0.39494900
v 0.13043400 -0.08106790 0.39494900
v 0.13043400 -0.14455200 0.38439000
v 0.14457000 -0.17274700 0.36676100
v 0.13436900 -0.21262300 0.36389700
v 0.13400700 -0.16216600 0.37732000
v 0.12339200 -0.15158600 0.38788000
v 0.14280900 0.17452000 0.37557500
v 0.16217500 0.18332800 0.35262200
v 0.15161200 0.16216600 0.37378600
v 0.14280900 0.15335900 0.38613500
v 0.13400700 -0.02467820 0.39848400
v 0.11282900 -0.03525890 0.40904400
v 0.12339200 0.02822530 0.40904400
v 0.13752800 0.06351480 0.40201900
v 0.13752800 0.08467620 0.40201900
v 0.11987100 0.11984300 0.40555400
v 0.13224600 0.13219800 0.39669400
v 0.12163100 0.15335900 0.39669400
v 0.13224600 0.16394000 0.38613500
v 0.14104900 0.11984300 0.39494900
f 351 404 398
f 351 403 404
f 351 458 403
f 351 402 458
f 351 401 402
f 351 400 401
f 344 398 462
f 344 462 396
f 344 397 398
f 344 351 397
f 340 395 394
f 340 391 395
f 339 393 391
f 339 392 393
f 351 399 400
f 351 398 397
f 357 407 358
f 357 406 407
f 365 416 366
f 365 415 416
f 339 390 392
f 364 414 415
f 364 470 414
f 364 413 470
f 363 426 411
f 363 412 426
f 363 372 412
f 363 373 372
f 362 363 411
f 360 410 361
f 360 409 410
f 359 409 360
f 359 408 409
f 356 405 406
f 361 410 370
f 326 389 385
f 337 391 338
f 326 385 327
f 324 326 325
f 324 384 326
f 324 441 384
f 324 383 441
f 322 324 323
f 326 384 441
f 321 324 322
f 319 324 320
f 319 383 324
f 319 435 383
f 319 381 435
f 366 416 367
f 319 382 381
f 320 324 321
f 326 441 386
f 326 386 446
f 326 446 387
f 335 446 390
f 335 387 446
f 335 389 387
f 333 335 334
f 333 389 335
f 331 333 332
f 331 389 333
f 331 385 389
f 330 385 331
f 330 388 385
f 328 330 329
f 328 388 330
f 327 388 328
f 327 385 388
f 326 387 389
f 338 391 340
f 367 416 417
f 386 442 443
f 367 418 419
f 392 503 450
f 392 452 503
f 392 451 452
f 392 447 451
f 392 450 393
f 391 393 395
f 393 453 454
f 390 451 447
f 390 448 449
f 390 501 448
f 390 445 501
f 390 447 392
f 386 390 446
f 386 445 390
f 390 449 451
f 393 454 395
f 393 450 453
f 394 455 456
f 317 319 318
f 403 517 464
f 403 458 517
f 398 519 462
f 398 463 519
f 398 404 463
f 396 462 461
f 394 460 455
f 394 459 460
f 394 454 459
f 394 395 454
f 394 402 401
f 394 458 402
f 394 457 458
f 394 456 457
f 386 444 445
f 367 417 418
f 386 443 444
f 383 386 441
f 375 428 429
f 372 427 423
f 372 426 412
f 372 425 426
f 372 424 425
f 372 423 424
f 375 429 376
f 371 427 372
f 370 422 371
f 370 421 422
f 370 468 421
f 370 410 468
f 368 419 420
f 367 419 368
f 371 422 427
f 376 429 377
f 377 380 378
f 377 429 428
f 383 440 386
f 383 439 440
f 383 438 439
f 383 437 438
f 383 436 437
f 383 494 436
f 383 435 494
f 377 381 380
f 377 435 381
f 377 434 435
f 377 433 434
f 377 432 433
f 377 431 432
f 377 430 431
f 377 428 430
f 386 440 442
f 317 382 319
f 284 348 347
f 315 317 316
f 278 332 333
f 278 280 279
f 278 334 280
f 278 333 334
f 277 331 332
f 277 332 278
f 280 334 335
f 276 331 277
f 276 329 330
f 273 329 276
f 273 328 329
f 272 328 273
f 272 327 328
f 272 326 327
f 276 330 331
f 280 335 336
f 281 337 338
f 281 338 284
f 403 464 404
f 284 349 348
f 284 350 349
f 284 399 350
f 284 400 399
f 284 401 400
f 284 394 401
f 284 340 394
f 282 391 337
f 282 339 391
f 282 390 339
f 282 335 390
f 282 336 335
f 281 282 337
f 281 284 290
f 272 325 326
f 284 347 346
f 272 324 325
f 272 322 323
f 260 312 378
f 260 311 312
f 259 311 260
f 259 310 311
f 259 309 310
f 258 308 302
f 260 378 313
f 258 307 308
f 255 306 257
f 255 305 306
f 255 256 305
f 254 304 256
f 254 303 304
f 254 362 303
f 256 304 305
f 260 313 314
f 260 314 261
f 262 314 315
f 271 322 272
f 270 322 271
f 269 322 270
f 267 322 269
f 266 322 267
f 266 321 322
f 266 320 321
f 265 319 320
f 265 318 319
f 263 265 264
f 263 318 265
f 263 317 318
f 263 316 317
f 262 316 263
f 262 315 316
f 272 323 324
f 317 381 382
f 284 346 345
f 284 343 296
f 305 369 306
f 305 368 369
f 305 367 368
f 305 366 367
f 304 366 305
f 304 365 366
f 308 361 370
f 303 365 304
f 303 364 415
f 303 413 364
f 303 411 413
f 303 362 411
f 302 363 362
f 302 308 363
f 303 415 365
f 308 370 371
f 308 371 372
f 308 372 373
f 315 381 317
f 315 380 381
f 315 379 380
f 314 379 315
f 313 379 314
f 313 380 379
f 313 378 380
f 311 378 312
f 310 378 311
f 310 377 378
f 310 376 377
f 310 375 376
f 310 374 375
f 309 374 310
f 308 373 363
f 301 359 360
f 284 345 343
f 301 308 307
f 301 360 361
f 297 345 346
f 297 343 345
f 291 341 342
f 287 291 288
f 287 341 291
f 284 338 340
f 297 346 347
f 284 287 285
f 284 342 341
f 284 292 342
f 284 293 292
f 284 294 293
f 284 295 294
f 284 296 295
f 284 341 287
f 297 347 348
f 297 348 349
f 297 349 350
f 300 408 359
f 300 407 408
f 300 358 407
f 299 357 358
f 299 406 357
f 299 356 406
f 299 405 356
f 299 355 405
f 299 354 355
f 299 353 354
f 299 352 353
f 298 352 299
f 297 351 344
f 297 399 351
f 297 350 399
f 301 361 308
f 404 464 463
f 450 503 504
f 405 466 406
f 511 540 539
f 511 537 540
f 508 565 543
f 508 593 565
f 508 564 593
f 507 564 508
f 511 539 566
f 504 506 505
f 504 511 510
f 504 537 511
f 504 543 537
f 504 509 543
f 503 509 504
f 500 507 502
f 504 510 506
f 511 566 514
f 511 514 512
f 514 566 515
f 526 546 571
f 526 527 546
f 525 568 538
f 524 568 525
f 522 569 523
f 519 568 524
f 519 520 568
f 519 521 520
f 518 519 523
f 518 523 569
f 516 520 517
f 516 568 520
f 515 568 516
f 515 567 568
f 515 566 567
f 499 507 500
f 526 571 570
f 499 564 507
f 498 592 564
f 492 552 553
f 492 580 552
f 492 551 580
f 490 492 491
f 490 551 492
f 489 551 490
f 492 553 554
f 489 550 551
f 489 548 549
f 489 535 548
f 489 547 535
f 487 537 541
f 486 537 487
f 484 545 546
f 489 549 550
f 492 554 493
f 493 555 556
f 493 556 557
f 498 562 592
f 497 563 562
f 496 563 497
f 496 562 563
f 496 561 562
f 496 560 561
f 495 560 496
f 495 559 560
f 495 589 559
f 495 558 589
f 495 556 558
f 495 557 556
f 493 553 555
f 493 554 553
f 493 557 494
f 498 564 499
f 483 545 484
f 528 572 573
f 528 574 529
f 559 590 561
f 559 594 590
f 559 570 594
f 559 589 570
f 556 573 588
f 556 587 573
f 559 561 560
f 556 589 558
f 555 587 556
f 555 586 587
f 553 576 575
f 553 580 576
f 553 586 555
f 553 585 586
f 556 588 589
f 561 590 562
f 562 590 594
f 562 594 591
f 585 587 586
f 584 591 594
f 581 584 583
f 576 579 577
f 573 585 574
f 573 587 585
f 572 588 573
f 570 584 594
f 570 571 584
f 565 584 581
f 565 593 584
f 564 584 593
f 564 592 584
f 562 584 592
f 562 591 584
f 553 574 585
f 528 573 574
f 553 575 574
f 550 580 551
f 535 577 579
f 535 547 578
f 533 535 578
f 532 576 577
f 532 535 534
f 532 577 535
f 535 579 576
f 530 574 575
f 530 576 532
f 530 575 576
f 529 574 530
f 528 588 572
f 528 589 588
f 528 570 589
f 530 532 536
f 535 576 580
f 535 580 549
f 535 549 548
f 549 580 550
f 546 584 571
f 546 583 584
f 545 583 546
f 545 582 583
f 544 582 545
f 544 583 582
f 544 581 583
f 543 581 544
f 543 565 581
f 539 567 566
f 538 567 539
f 538 568 567
f 537 542 541
f 537 543 542
f 552 580 553
f 482 545 483
f 482 544 545
f 482 543 544
f 434 492 435
f 434 491 492
f 434 490 491
f 434 489 490
f 433 489 434
f 432 489 433
f 435 493 494
f 430 488 431
f 428 431 488
f 427 487 482
f 427 486 487
f 426 470 469
f 426 485 470
f 424 426 425
f 428 488 430
f 435 492 493
f 436 495 496
f 436 496 437
f 443 445 444
f 443 501 445
f 443 500 501
f 443 499 500
f 442 499 443
f 442 498 499
f 442 562 498
f 442 497 562
f 439 442 440
f 438 442 439
f 438 497 442
f 437 497 438
f 437 496 497
f 436 557 495
f 436 494 557
f 424 485 426
f 448 502 449
f 424 470 485
f 424 483 484
f 414 416 415
f 414 472 416
f 414 471 472
f 414 526 471
f 414 470 526
f 413 469 470
f 416 472 473
f 411 426 469
f 408 468 410
f 408 467 468
f 408 410 409
f 407 467 408
f 407 466 467
f 406 466 407
f 411 469 413
f 416 473 417
f 417 473 418
f 418 420 419
f 423 427 482
f 423 483 424
f 423 482 483
f 422 481 479
f 422 480 481
f 422 486 427
f 422 479 486
f 421 480 422
f 421 468 480
f 420 478 474
f 420 473 478
f 420 476 477
f 420 475 476
f 420 474 475
f 418 473 420
f 424 484 470
f 448 501 500
f 448 500 502
f 449 502 451
f 473 531 478
f 472 531 473
f 471 531 472
f 471 478 531
f 471 530 478
f 471 529 530
f 474 532 475
f 471 528 529
f 471 526 570
f 470 527 526
f 470 546 527
f 470 484 546
f 468 525 480
f 467 519 524
f 471 570 528
f 474 478 532
f 475 532 476
f 476 532 477
f 482 542 543
f 482 541 542
f 482 487 541
f 481 540 537
f 481 539 540
f 481 538 539
f 481 525 538
f 480 525 481
f 479 481 537
f 479 537 486
f 478 536 532
f 478 530 536
f 477 535 533
f 477 534 535
f 477 532 534
f 467 525 468
f 467 524 525
f 466 519 467
f 466 523 519
f 454 512 459
f 454 511 512
f 454 510 511
f 453 510 454
f 451 503 452
f 451 509 503
f 451 543 509
f 451 508 543
f 451 507 508
f 451 502 507
f 450 510 453
f 450 506 510
f 450 505 506
f 450 504 505
f 254 302 362
f 455 460 513
f 405 465 466
f 455 513 456
f 456 512 514
f 466 522 523
f 465 522 466
f 464 521 519
f 464 520 521
f 464 517 520
f 463 464 519
f 462 519 518
f 461 462 518
f 459 513 460
f 459 512 513
f 457 517 458
f 457 516 517
f 457 515 516
f 456 515 457
f 456 514 515
f 456 513 512
f 253 258 302
f 265 320 266
f 252 300 359
f 55 82 56
f 54 82 55
f 54 81 82
f 54 110 81
f 54 80 110
f 53 80 54
f 56 82 83
f 53 79 80
f 52 78 79
f 252 359 301
f 52 76 77
f 51 68 72
f 51 71 68
f 51 75 60
f 52 61 76
f 58 59 84
f 59 85 86
f 59 86 87
f 64 96 65
f 64 95 96
f 62 95 63
f 62 94 95
f 62 93 94
f 62 92 93
f 61 77 76
f 61 78 77
f 61 91 78
f 61 90 91
f 61 75 90
f 60 75 61
f 59 89 84
f 59 88 89
f 59 87 88
f 51 74 75
f 65 96 66
f 51 73 74
f 49 51 50
f 36 59 58
f 34 57 35
f 34 56 57
f 34 55 56
f 33 55 34
f 32 55 33
f 37 51 60
f 32 54 55
f 32 79 53
f 32 52 79
f 31 51 37
f 31 50 51
f 31 49 50
f 31 48 49
f 32 53 54
f 37 60 38
f 38 60 61
f 38 61 52
f 49 71 51
f 48 71 49
f 48 70 71
f 47 68 69
f 47 67 68
f 46 67 47
f 45 66 67
f 44 64 65
f 44 66 45
f 44 65 66
f 43 95 64
f 43 63 95
f 43 64 44
f 42 63 43
f 42 62 63
f 51 72 73
f 30 70 48
f 66 97 67
f 67 98 68
f 94 122 123
f 93 122 94
f 93 121 122
f 93 120 121
f 93 119 120
f 92 119 93
f 94 123 124
f 86 118 87
f 86 116 117
f 86 115 116
f 86 154 115
f 86 198 154
f 86 205 198
f 86 258 205
f 86 117 118
f 94 124 125
f 94 125 95
f 95 125 96
f 101 130 129
f 101 131 130
f 101 132 102
f 101 129 132
f 100 131 101
f 100 130 131
f 98 100 99
f 98 130 100
f 98 129 130
f 98 128 129
f 98 127 128
f 97 125 126
f 97 168 127
f 97 126 168
f 96 125 97
f 86 307 258
f 66 96 97
f 86 301 307
f 86 197 252
f 75 103 104
f 73 75 74
f 73 103 75
f 73 102 103
f 72 102 73
f 68 102 72
f 75 104 105
f 68 101 102
f 68 99 100
f 68 98 99
f 68 70 69
f 68 71 70
f 67 127 98
f 67 97 127
f 68 100 101
f 75 105 106
f 75 106 107
f 75 107 108
f 86 153 197
f 86 114 153
f 85 114 86
f 83 112 113
f 82 112 83
f 81 112 82
f 81 111 112
f 81 110 111
f 80 109 110
f 80 91 109
f 78 80 79
f 78 91 80
f 75 91 90
f 75 109 91
f 75 108 109
f 86 252 301
f 30 69 70
f 30 47 69
f 29 44 45
f 3 10 11
f 3 9 10
f 3 8 9
f 3 22 8
f 3 36 22
f 3 59 36
f 3 11 12
f 3 85 59
f 3 153 114
f 3 196 153
f 3 250 196
f 3 298 250
f 3 352 298
f 3 353 352
f 3 114 85
f 3 12 13
f 3 13 14
f 3 14 4
f 9 84 89
f 9 58 84
f 9 36 58
f 9 22 36
f 8 22 9
f 7 20 21
f 6 24 16
f 6 19 24
f 6 31 19
f 6 18 31
f 6 17 18
f 6 15 17
f 5 6 16
f 4 15 6
f 4 14 15
f 3 354 353
f 9 89 88
f 3 355 354
f 3 465 405
f 3 7 21
f 2 6 5
f 2 4 6
f 1 4 2
f 1 3 4
f 1 7 3
f 3 21 35
f 1 20 7
f 1 52 32
f 1 38 52
f 1 24 38
f 1 16 24
f 1 5 16
f 1 2 5
f 1 32 20
f 3 35 57
f 3 57 56
f 3 56 83
f 3 522 465
f 3 569 522
f 3 518 569
f 3 461 518
f 3 396 461
f 3 344 396
f 3 297 344
f 3 247 297
f 3 248 247
f 3 249 248
f 3 194 249
f 3 195 194
f 3 152 195
f 3 113 152
f 3 83 113
f 3 405 355
f 9 88 87
f 9 87 118
f 9 118 117
f 19 31 24
f 18 48 31
f 18 30 48
f 18 29 30
f 18 28 29
f 18 27 28
f 20 32 33
f 17 27 18
f 17 25 26
f 17 23 25
f 15 23 17
f 9 11 10
f 9 12 11
f 9 13 12
f 17 26 27
f 20 33 34
f 20 34 21
f 21 34 35
f 29 47 30
f 29 46 47
f 29 67 46
f 29 45 67
f 28 44 29
f 27 44 28
f 27 43 44
f 27 42 43
f 27 41 42
f 26 41 27
f 26 40 41
f 26 39 40
f 25 39 26
f 24 31 37
f 24 37 38
f 9 14 13
f 9 15 14
f 9 23 15
f 9 25 23
f 9 547 489
f 9 578 547
f 9 533 578
f 9 477 533
f 9 420 477
f 9 368 420
f 9 369 368
f 9 306 369
f 9 257 306
f 9 201 257
f 9 202 201
f 9 203 202
f 9 204 203
f 9 156 204
f 9 117 156
f 9 489 432
f 102 132 133
f 9 432 431
f 9 428 375
f 9 39 25
f 9 40 39
f 9 41 40
f 9 42 41
f 9 62 42
f 9 92 62
f 9 119 92
f 9 120 119
f 9 157 120
f 9 206 157
f 9 207 206
f 9 259 207
f 9 309 259
f 9 374 309
f 9 375 374
f 9 431 428
f 102 133 134
f 52 77 78
f 102 136 135
f 199 258 253
f 199 205 258
f 199 254 200
f 199 302 254
f 199 253 302
f 197 251 252
f 200 255 201
f 197 250 251
f 193 249 194
f 193 248 249
f 193 247 248
f 193 246 247
f 192 246 193
f 191 246 192
f 196 250 197
f 200 254 256
f 200 256 255
f 201 255 257
f 216 264 265
f 215 264 216
f 213 215 214
f 213 264 215
f 213 263 264
f 212 263 213
f 211 263 212
f 211 262 263
f 211 314 262
f 211 261 314
f 210 261 211
f 210 260 261
f 210 259 260
f 207 210 208
f 207 259 210
f 191 245 246
f 216 265 266
f 191 291 245
f 190 244 191
f 182 233 231
f 182 230 233
f 182 232 227
f 182 231 232
f 181 230 182
f 181 229 230
f 183 185 234
f 180 229 181
f 179 228 180
f 179 226 228
f 178 227 187
f 177 227 178
f 177 182 227
f 175 226 179
f 180 228 229
f 183 234 235
f 183 235 236
f 183 236 184
f 190 243 244
f 189 238 243
f 188 238 189
f 187 235 234
f 187 242 235
f 187 241 242
f 187 240 241
f 187 239 240
f 187 232 239
f 187 227 232
f 186 238 188
f 186 237 238
f 185 187 234
f 184 237 186
f 184 236 237
f 191 244 291
f 174 226 175
f 216 266 217
f 217 267 219
f 240 290 284
f 239 290 240
f 239 281 290
f 238 289 243
f 238 291 289
f 238 288 291
f 240 284 241
f 238 287 288
f 237 285 238
f 237 286 285
f 236 286 237
f 235 241 283
f 235 242 241
f 235 286 236
f 238 285 287
f 241 284 283
f 243 289 291
f 243 291 244
f 251 300 252
f 251 358 300
f 251 299 358
f 250 299 251
f 250 298 299
f 247 343 297
f 247 296 343
f 247 295 296
f 247 294 295
f 247 293 294
f 247 292 293
f 247 342 292
f 247 291 342
f 245 247 246
f 245 291 247
f 235 285 286
f 217 266 267
f 235 284 285
f 233 336 282
f 222 276 274
f 222 273 276
f 222 272 273
f 222 271 272
f 222 270 271
f 222 224 223
f 222 274 224
f 221 270 222
f 221 268 269
f 220 268 221
f 219 268 220
f 219 269 268
f 219 267 269
f 217 219 218
f 221 269 270
f 224 274 225
f 225 274 276
f 225 276 275
f 233 280 336
f 231 282 281
f 231 233 282
f 231 239 232
f 102 134 136
f 230 280 233
f 230 279 280
f 229 276 277
f 229 279 230
f 229 278 279
f 229 277 278
f 228 276 229
f 228 275 276
f 226 275 228
f 225 275 226
f 235 283 284
f 174 225 226
f 231 281 239
f 172 225 174
f 126 164 166
f 125 165 126
f 124 165 125
f 124 126 165
f 124 164 126
f 124 163 164
f 126 166 167
f 123 163 124
f 123 161 162
f 123 160 161
f 123 159 160
f 122 159 123
f 121 159 122
f 121 160 159
f 123 162 163
f 126 167 168
f 127 168 169
f 127 169 128
f 136 175 138
f 136 176 175
f 134 176 136
f 134 175 176
f 134 174 175
f 132 172 173
f 132 134 133
f 132 174 134
f 132 173 174
f 129 172 132
f 128 168 170
f 128 169 168
f 128 172 129
f 128 171 172
f 128 170 171
f 121 158 160
f 137 177 178
f 121 157 158
f 116 156 117
f 106 143 144
f 106 142 143
f 106 141 142
f 105 177 137
f 105 140 177
f 105 139 140
f 106 144 107
f 105 138 139
f 104 138 105
f 104 136 138
f 103 136 104
f 103 135 136
f 102 135 103
f 172 174 173
f 105 137 106
f 106 137 145
f 106 145 141
f 107 144 143
f 116 155 156
f 115 155 116
f 115 154 155
f 112 152 113
f 112 151 152
f 111 151 112
f 111 150 151
f 111 149 150
f 111 148 149
f 110 148 111
f 110 147 148
f 110 143 146
f 109 143 110
f 108 143 109
f 107 143 108
f 120 157 121
f 137 178 145
f 110 146 147
f 139 175 179
f 162 213 214
f 162 212 213
f 162 211 212
f 161 211 162
f 161 210 211
f 161 209 210
f 162 214 164
f 158 161 160
f 158 210 209
f 158 208 210
f 158 207 208
f 158 206 207
f 157 206 158
f 155 205 199
f 158 209 161
f 162 164 163
f 164 214 166
f 166 215 216
f 171 225 172
f 138 175 139
f 171 224 225
f 171 223 224
f 170 219 220
f 170 223 171
f 170 222 223
f 170 221 222
f 170 220 221
f 168 219 170
f 168 218 219
f 167 218 168
f 167 217 218
f 166 214 215
f 166 216 167
f 155 198 205
f 155 204 156
f 167 216 217
f 155 202 203
f 146 188 189
f 146 186 188
f 145 187 185
f 145 178 187
f 143 186 146
f 142 186 143
f 142 184 186
f 146 189 147
f 141 145 185
f 141 183 184
f 140 182 177
f 140 181 182
f 140 180 181
f 155 203 204
f 140 179 180
f 139 179 140
f 141 184 142
f 147 189 148
f 141 185 183
f 148 243 190
f 155 199 200
f 148 189 243
f 155 200 201
f 155 201 202
f 154 198 155
f 153 196 197
f 151 195 152
f 151 193 194
f 151 194 195
f 150 193 151
f 150 192 193
f 149 192 150
f 149 191 192
f 148 191 149
f 148 190 191