# https://github.com/mikedh/trimesh
v 0.15870000 -0.25391200 -0.12716700
v 0.15870000 -0.25391200 -0.13754500
v 0.14812000 -0.25391200 -0.12716700
v 0.15913300 -0.25412700 -0.12716700
v 0.17984100 -0.26451200 -0.15871400
v 0.16928100 -0.26451200 -0.17986200
v 0.15341000 -0.25658000 -0.15342100
v 0.14812000 -0.25391200 -0.13754500
v 0.20078600 -0.27496800 -0.12716700
v 0.18690200 -0.26803700 -0.16222800
v 0.11285900 -0.27156200 -0.12716700
v 0.14812000 -0.26451200 -0.17986200
v 0.17632100 -0.26803700 -0.18339700
v 0.17984100 -0.33029900 -0.33835800
v 0.16947700 -0.32798900 -0.33835800
v 0.14283000 -0.26715600 -0.18515400
v 0.14283000 -0.25658000 -0.14283700
v 0.12166900 -0.26715600 -0.15342100
v 0.11285900 -0.27156200 -0.14812900
v 0.20806200 -0.27861200 -0.12716700
v 0.20806200 -0.27861200 -0.13049600
v 0.18513200 -0.26980000 -0.17192300
v 0.19394200 -0.27156200 -0.15517900
v 0.19748200 -0.27861200 -0.17281200
v 0.10227900 -0.28213800 -0.12716700
v 0.16928100 -0.32798900 -0.33835800
v 0.18513200 -0.28037500 -0.20367600
v 0.18112000 -0.33077600 -0.33835800
v 0.13754000 -0.27111000 -0.19044600
v 0.11637900 -0.27111000 -0.15871400
v 0.10227900 -0.28213800 -0.15871400
v 0.21136600 -0.28028000 -0.12716700
v 0.19571200 -0.28037500 -0.18250800
v 0.21417800 -0.28306700 -0.12716700
v 0.21697100 -0.28587700 -0.12716700
v 0.23803300 -0.31210200 -0.12960700
v 0.19748200 -0.34209000 -0.33835800
v 0.09521840 -0.29623800 -0.12716700
v 0.14831700 -0.33444400 -0.33835800
v 0.19207400 -0.33735000 -0.33835800
v 0.19042200 -0.33615900 -0.33835800
v 0.18890800 -0.33515800 -0.33835800
v 0.12166900 -0.27773100 -0.18515400
v 0.11285900 -0.28213800 -0.17986200
v 0.09787340 -0.29492800 -0.16927700
v 0.09521840 -0.29623800 -0.15871400
v 0.10227900 -0.30328900 -0.20103000
v 0.09787340 -0.30550400 -0.19044600
v 0.23803300 -0.31210200 -0.12716700
v 0.25756200 -0.34061300 -0.12716700
v 0.25919400 -0.34385200 -0.12960700
v 0.21864300 -0.35266500 -0.28915800
v 0.21687300 -0.35442800 -0.29887400
v 0.20831800 -0.36221600 -0.33835800
v 0.08809930 -0.31048200 -0.12716700
v 0.14806100 -0.33461000 -0.33835800
v 0.12166900 -0.28301900 -0.19573800
v 0.08729300 -0.31607900 -0.16927700
v 0.08463810 -0.31741300 -0.15871400
v 0.10050900 -0.31474600 -0.21688600
v 0.09787340 -0.31607900 -0.21159400
v 0.14113900 -0.34197000 -0.33835800
v 0.08729300 -0.32665500 -0.19044600
v 0.26171100 -0.34821100 -0.12716700
v 0.26977400 -0.36500300 -0.12960700
v 0.21952800 -0.35971500 -0.29755100
v 0.21152400 -0.37007700 -0.33835800
v 0.08463810 -0.31741300 -0.12716700
v 0.08463810 -0.32798900 -0.17986200
v 0.07405780 -0.34914000 -0.15871400
v 0.12343900 -0.35619000 -0.32796000
v 0.11913200 -0.36874300 -0.33835800
v 0.11897500 -0.36900500 -0.33835800
v 0.10845400 -0.36898100 -0.30679100
v 0.10845400 -0.37953300 -0.31737600
v 0.08729300 -0.33723000 -0.20103000
v 0.07671270 -0.34783000 -0.16927700
v 0.27229200 -0.36936200 -0.12716700
v 0.27241000 -0.37029100 -0.12828400
v 0.26096400 -0.37381600 -0.17281200
v 0.26448400 -0.38086700 -0.16927700
v 0.21158300 -0.37029100 -0.33835800
v 0.07405780 -0.34914000 -0.12716700
v 0.07405780 -0.35971500 -0.16927700
v 0.11101000 -0.40182700 -0.33835800
v 0.10933900 -0.39849200 -0.33500900
v 0.11108900 -0.38879800 -0.33325200
v 0.10845400 -0.39010800 -0.32796000
v 0.08729300 -0.35840500 -0.22217800
v 0.27266500 -0.37029100 -0.12716700
v 0.27463200 -0.37917500 -0.12716700
v 0.27496600 -0.38086700 -0.12716700
v 0.26448400 -0.39144200 -0.16927700
v 0.22216300 -0.38086700 -0.30679100
v 0.21158300 -0.41259300 -0.33835800
v 0.07405780 -0.40201800 -0.12716700
v 0.10579900 -0.40201800 -0.32796000
v 0.07405780 -0.38086700 -0.16927700
v 0.11101000 -0.41240300 -0.33835800
v 0.27496600 -0.40223200 -0.12716700
v 0.22216300 -0.40201800 -0.30679100
v 0.27241000 -0.40730500 -0.13225300
v 0.26839800 -0.42295400 -0.12716700
v 0.26829900 -0.42316900 -0.12716700
v 0.20806200 -0.41964300 -0.33835800
v 0.07405780 -0.40201800 -0.14812900
v 0.07411680 -0.41254500 -0.12716700
v 0.10579900 -0.41259300 -0.32796000
v 0.07405780 -0.39144200 -0.15871400
v 0.11877800 -0.44434400 -0.33835800
v 0.26818100 -0.42338300 -0.12716700
v 0.20460100 -0.42657500 -0.33835800
v 0.08463810 -0.41259300 -0.20103000
v 0.08463810 -0.43374400 -0.15871400
v 0.08469710 -0.44429600 -0.12716700
v 0.11915200 -0.44529600 -0.33835800
v 0.20452200 -0.42669400 -0.33835800
v 0.25736500 -0.43722200 -0.12716700
v 0.09169820 -0.44786900 -0.16222800
v 0.09169820 -0.45844400 -0.13049600
v 0.09004630 -0.45513300 -0.12716700
v 0.12166900 -0.44963100 -0.33835800
v 0.20452200 -0.43729300 -0.30679100
v 0.19394200 -0.43729300 -0.33835800
v 0.22562400 -0.46894800 -0.12716700
v 0.09169820 -0.45844400 -0.12716700
v 0.10227900 -0.46902000 -0.15164400
v 0.10050900 -0.47078200 -0.13225300
v 0.14023400 -0.46280300 -0.33835800
v 0.11108900 -0.48135800 -0.13225300
v 0.17288000 -0.45832500 -0.33835800
v 0.18336200 -0.44786900 -0.33835800
v 0.22544700 -0.46909100 -0.12716700
v 0.17274200 -0.45844400 -0.33835800
v 0.10050900 -0.47078200 -0.12716700
v 0.14812000 -0.46544700 -0.33835800
v 0.13734300 -0.49448200 -0.12716700
v 0.13225000 -0.49193400 -0.13225300
v 0.12489500 -0.48871800 -0.12716700
v 0.11108900 -0.48135800 -0.12716700
v 0.19386300 -0.49017100 -0.12716700
v 0.18115900 -0.49457700 -0.13754500
v 0.16570200 -0.46199300 -0.33835800
v 0.15870000 -0.46542300 -0.33835800
v 0.16928100 -0.49724500 -0.13754500
v 0.15870000 -0.49724500 -0.13754500
v 0.14815900 -0.49719700 -0.12716700
v 0.18678400 -0.49372000 -0.12716700
v 0.17988100 -0.49717400 -0.12716700
v 0.15889700 -0.46539900 -0.33835800
v 0.17962500 -0.49724500 -0.12716700
v 0.15870000 -0.49724500 -0.12716700
f 73 86 87
f 73 85 86
f 73 75 74
f 70 77 84
f 70 96 83
f 70 106 96
f 70 84 98
f 70 98 109
f 67 81 82
f 67 80 81
f 66 80 67
f 66 79 80
f 65 79 66
f 65 78 79
f 70 109 106
f 73 87 88
f 77 89 84
f 76 89 77
f 84 97 108
f 84 89 97
f 63 70 69
f 82 101 95
f 82 94 101
f 81 94 82
f 81 101 94
f 81 93 101
f 81 100 93
f 81 92 100
f 79 81 80
f 79 91 81
f 79 90 91
f 78 90 79
f 76 88 89
f 73 88 75
f 81 91 92
f 55 59 68
f 63 76 77
f 51 65 53
f 51 78 65
f 51 64 78
f 50 64 51
f 48 61 63
f 47 62 60
f 47 56 62
f 47 60 61
f 46 59 55
f 46 58 59
f 45 58 46
f 45 63 58
f 45 48 63
f 84 108 98
f 44 56 47
f 51 53 52
f 63 77 70
f 53 65 66
f 54 66 67
f 63 88 76
f 63 75 88
f 63 74 75
f 62 72 71
f 61 74 63
f 61 73 74
f 60 73 61
f 60 72 73
f 60 71 72
f 60 62 71
f 59 83 68
f 59 70 83
f 59 69 70
f 59 63 69
f 58 63 59
f 53 66 54
f 85 99 108
f 120 127 128
f 85 97 86
f 130 139 140
f 130 138 139
f 129 138 130
f 129 137 138
f 129 136 137
f 128 140 135
f 128 130 140
f 127 130 128
f 125 134 131
f 125 133 134
f 123 132 124
f 123 131 132
f 123 125 131
f 122 130 127
f 122 129 130
f 133 141 134
f 120 135 126
f 134 141 142
f 136 144 145
f 44 57 56
f 149 151 150
f 146 152 147
f 145 152 146
f 145 151 152
f 145 150 151
f 144 150 145
f 142 150 143
f 142 149 150
f 142 148 149
f 141 148 142
f 137 139 138
f 136 147 137
f 136 146 147
f 136 145 146
f 134 142 143
f 85 108 97
f 120 128 135
f 120 126 121
f 104 112 105
f 104 111 112
f 100 103 102
f 99 110 108
f 98 108 109
f 96 106 107
f 95 104 105
f 95 103 104
f 95 102 103
f 95 100 102
f 93 95 101
f 93 100 95
f 88 97 89
f 86 88 87
f 86 97 88
f 106 113 114
f 120 122 127
f 106 114 107
f 107 114 115
f 118 125 123
f 117 123 124
f 117 118 123
f 116 120 119
f 116 122 120
f 115 120 121
f 114 120 115
f 114 119 120
f 114 116 119
f 111 118 117
f 111 117 112
f 110 116 114
f 108 110 114
f 108 113 109
f 108 114 113
f 106 109 113
f 43 57 44
f 47 61 48
f 39 56 43
f 5 10 6
f 3 19 11
f 3 8 19
f 2 10 5
f 2 9 10
f 2 4 9
f 2 7 8
f 2 6 7
f 2 5 6
f 1 4 2
f 1 9 4
f 1 20 9
f 1 32 20
f 1 34 32
f 1 35 34
f 6 12 7
f 1 49 35
f 6 10 13
f 6 14 15
f 11 19 31
f 10 33 22
f 10 24 33
f 10 23 24
f 10 21 23
f 10 22 13
f 9 21 10
f 9 20 21
f 8 18 19
f 8 17 18
f 8 16 17
f 8 12 16
f 7 12 8
f 6 26 12
f 6 15 26
f 6 13 14
f 11 31 25
f 1 50 49
f 1 78 64
f 1 126 135
f 1 121 126
f 1 115 121
f 1 107 115
f 1 96 107
f 1 83 96
f 1 68 83
f 1 55 68
f 1 38 55
f 1 25 38
f 1 11 25
f 1 3 11
f 1 8 3
f 1 2 8
f 43 56 57
f 1 135 140
f 1 64 50
f 1 140 139
f 1 137 147
f 1 90 78
f 1 92 91
f 1 100 92
f 1 103 100
f 1 104 103
f 1 111 104
f 1 118 111
f 1 125 118
f 1 133 125
f 1 141 133
f 1 148 141
f 1 149 148
f 1 151 149
f 1 152 151
f 1 147 152
f 1 139 137
f 12 26 16
f 1 91 90
f 13 27 28
f 27 40 41
f 27 33 40
f 26 39 29
f 25 46 38
f 25 31 46
f 24 37 33
f 24 36 37
f 24 35 36
f 24 34 35
f 24 32 34
f 23 32 24
f 22 33 27
f 21 32 23
f 20 32 21
f 19 30 31
f 27 41 42
f 18 30 19
f 27 42 28
f 30 43 44
f 38 46 55
f 13 22 27
f 37 53 54
f 37 52 53
f 37 51 52
f 36 51 37
f 36 50 51
f 36 49 50
f 35 49 36
f 33 37 40
f 31 48 45
f 31 47 48
f 31 44 47
f 31 45 46
f 30 44 31
f 29 39 43
f 16 26 29
f 29 43 30
f 16 30 18
f 14 132 131
f 14 124 132
f 14 117 124
f 14 112 117
f 14 105 112
f 14 82 95
f 14 67 82
f 14 54 67
f 14 37 54
f 14 40 37
f 14 41 40
f 14 42 41
f 16 18 17
f 14 28 42
f 13 28 14
f 14 131 134
f 14 134 143
f 14 95 105
f 14 73 72
f 14 39 26
f 14 56 39
f 14 62 56
f 14 72 62
f 16 29 30
f 14 85 73
f 14 99 85
f 14 26 15
f 14 110 99
f 14 116 110
f 14 122 116
f 14 129 122
f 14 136 129
f 14 144 136
f 14 150 144
f 14 143 150