# https://github.com/mikedh/trimesh
v -0.17985500 0.28564700 -0.32325400
v -0.19042800 0.29623100 -0.37030000
v -0.20101200 0.28564700 -0.32325400
v -0.17022400 0.28469500 -0.32325400
v -0.16928100 0.28564700 -0.32797200
v -0.15869700 0.28564700 -0.35971500
v -0.19042800 0.29623100 -0.38087300
v -0.21158500 0.28564700 -0.34913000
v -0.21291100 0.28299600 -0.33855700
v -0.21511700 0.27858400 -0.32325400
v -0.15541400 0.27835700 -0.32325400
v -0.15517600 0.27858400 -0.32445200
v -0.14459200 0.27858400 -0.35618300
v -0.15869700 0.28564700 -0.38087300
v -0.16928100 0.28564700 -0.40201900
v -0.21687700 0.28299600 -0.40731700
v -0.21158500 0.28564700 -0.40201900
v -0.22569000 0.27858400 -0.34913000
v -0.22726400 0.26721400 -0.32325400
v -0.14459200 0.26800100 -0.32325400
v -0.14340200 0.26563900 -0.32325400
v -0.13401900 0.25743800 -0.35618300
v -0.12695600 0.24333300 -0.35971500
v -0.14459200 0.27858400 -0.37735200
v -0.15164500 0.28210600 -0.38439300
v -0.16222900 0.28210600 -0.40555100
v -0.16398900 0.28034500 -0.40996100
v -0.16928100 0.28210600 -0.40907200
v -0.17985500 0.27858400 -0.41612400
v -0.21158500 0.27858400 -0.41612400
v -0.22216900 0.27506300 -0.41260400
v -0.22569000 0.27858400 -0.40201900
v -0.22922200 0.27154200 -0.34913000
v -0.23010200 0.26978200 -0.34384300
v -0.22961500 0.26311300 -0.32325400
v -0.13754000 0.25389600 -0.32325400
v -0.12695600 0.23274900 -0.35971500
v -0.12695600 0.24333300 -0.37030000
v -0.15341600 0.28034500 -0.39408900
v -0.14107100 0.27154200 -0.38439300
v -0.14283200 0.26978200 -0.39408900
v -0.15164500 0.27154200 -0.40555100
v -0.15341600 0.26978200 -0.40996100
v -0.16928100 0.27506300 -0.41657500
v -0.17457300 0.26978200 -0.42053400
v -0.17985500 0.27154200 -0.41965600
v -0.21158500 0.27154200 -0.41965600
v -0.21687700 0.27241200 -0.41789000
v -0.21863800 0.26800100 -0.41965600
v -0.22746100 0.25654700 -0.41789000
v -0.22922200 0.26800100 -0.40907200
v -0.22746100 0.27241200 -0.40731700
v -0.22922200 0.27154200 -0.40201900
v -0.23275300 0.26448000 -0.34913000
v -0.23157200 0.25919800 -0.32325400
v -0.13754000 0.21158100 -0.32325400
v -0.12695600 0.13753600 -0.40201900
v -0.12695600 0.20099700 -0.41260400
v -0.12960700 0.24333300 -0.38220000
v -0.14018100 0.26448000 -0.39276200
v -0.14018100 0.24333300 -0.41392000
v -0.14283200 0.24861400 -0.41524700
v -0.15869700 0.26448000 -0.41657500
v -0.16398900 0.25919800 -0.42053400
v -0.15341600 0.21688300 -0.43111900
v -0.17985500 0.26448000 -0.42317700
v -0.21158500 0.26448000 -0.42317700
v -0.22922200 0.24685400 -0.41965600
v -0.23275300 0.26448000 -0.40201900
v -0.23275300 0.25389600 -0.32325400
v -0.14459200 0.19747600 -0.32325400
v -0.13048800 0.10228400 -0.41612400
v -0.12960700 0.12564700 -0.40201900
v -0.12695600 0.10580500 -0.42317700
v -0.13048800 0.20099700 -0.41965600
v -0.13224800 0.20630000 -0.42053400
v -0.13048800 0.20806000 -0.41612400
v -0.12960700 0.23274900 -0.39276200
v -0.12695600 0.16928700 -0.42317700
v -0.14283200 0.23803000 -0.42053400
v -0.15869700 0.21158100 -0.43376200
v -0.13224800 0.14283800 -0.44169200
v -0.14812400 0.15870400 -0.44434700
v -0.15671900 0.16729900 -0.44434700
v -0.17985500 0.22216500 -0.43376200
v -0.20101200 0.22216500 -0.43376200
v -0.22216900 0.13886100 -0.44169200
v -0.22216900 0.24333300 -0.42317700
v -0.23275300 0.24333300 -0.41260400
v -0.22746100 0.14018700 -0.43904800
v -0.23010200 0.13886100 -0.43376200
v -0.23275300 0.22216500 -0.32325400
v -0.15091000 0.18573300 -0.32325400
v -0.13224800 0.09787240 -0.41789000
v -0.15162400 0.18457300 -0.32325400
v -0.13048800 0.09876300 -0.42317700
v -0.12960700 0.10052400 -0.42847500
v -0.12695600 0.12697300 -0.43376200
v -0.13048800 0.16928700 -0.43023000
v -0.13224800 0.17456900 -0.43111900
v -0.12695600 0.13753600 -0.43376200
v -0.13048800 0.13753600 -0.44081400
v -0.13754000 0.13753600 -0.44434700
v -0.21158500 0.13753600 -0.44434700
v -0.22040900 0.12873300 -0.44258100
v -0.23275300 0.15870400 -0.42317700
v -0.22746100 0.12167000 -0.43904800
v -0.23098200 0.12873300 -0.43199600
v -0.23157200 0.21276200 -0.32325400
v -0.23275300 0.13753600 -0.42317700
v -0.15341600 0.08728860 -0.41789000
v -0.15869700 0.08463750 -0.42317700
v -0.13754000 0.09522130 -0.42317700
v -0.15713400 0.17829700 -0.32325400
v -0.16206300 0.17427900 -0.32325400
v -0.16913600 0.16957700 -0.32325400
v -0.15076500 0.08993970 -0.42847500
v -0.13401900 0.09876300 -0.43023000
v -0.13489900 0.11108700 -0.43904800
v -0.12960700 0.12167000 -0.43904800
v -0.13048800 0.12697300 -0.44081400
v -0.13754000 0.12697300 -0.44434700
v -0.21158500 0.11638900 -0.44434700
v -0.21687700 0.11108700 -0.43904800
v -0.21335600 0.10404500 -0.43552800
v -0.22393000 0.11462800 -0.43552800
v -0.22746100 0.12167000 -0.42053400
v -0.23010200 0.12697300 -0.42186100
v -0.22717100 0.19600600 -0.32325400
v -0.15869700 0.08817920 -0.41612400
v -0.16928100 0.08817920 -0.41612400
v -0.16928100 0.08463750 -0.42317700
v -0.17573300 0.16810700 -0.32325400
v -0.18220500 0.16692600 -0.32325400
v -0.15517600 0.08817920 -0.43023000
v -0.14459200 0.10932600 -0.44081400
v -0.13621400 0.11638900 -0.44169200
v -0.14812400 0.11638900 -0.44434700
v -0.20806400 0.10932600 -0.44081400
v -0.16928100 0.09522130 -0.43376200
v -0.20453300 0.10228400 -0.43728200
v -0.20101200 0.09522130 -0.42317700
v -0.21511700 0.10228400 -0.42670900
v -0.22481000 0.11638900 -0.42450400
v -0.21863800 0.10932600 -0.41965600
v -0.21687700 0.11108700 -0.40996100
v -0.21394700 0.17751000 -0.32325400
v -0.17457300 0.08993970 -0.41524700
v -0.19278900 0.16692600 -0.32325400
v -0.16575000 0.08817920 -0.43023000
v -0.17633400 0.08817920 -0.41965600
v -0.15869700 0.09522130 -0.43376200
v -0.20806400 0.09876300 -0.41965600
v -0.20629300 0.10052400 -0.41524700
v -0.20072200 0.16957700 -0.32325400
v -0.20101200 0.10228400 -0.40907200
v -0.19629000 0.16808600 -0.32325400
f 86 104 87
f 87 104 105
f 87 105 90
f 82 100 102
f 84 86 85
f 90 105 107
f 89 91 106
f 84 104 86
f 82 103 83
f 83 123 104
f 83 138 123
f 83 122 138
f 83 103 122
f 82 102 103
f 90 107 91
f 83 104 84
f 91 107 108
f 97 119 120
f 92 110 109
f 81 84 85
f 97 120 98
f 98 121 102
f 97 118 119
f 97 135 118
f 97 117 135
f 97 112 117
f 91 108 106
f 97 113 112
f 94 116 111
f 94 115 116
f 94 114 115
f 94 95 114
f 94 113 96
f 94 112 113
f 94 111 112
f 96 113 97
f 80 100 82
f 58 99 75
f 79 101 102
f 65 84 81
f 65 83 84
f 65 82 83
f 65 80 82
f 64 80 65
f 63 80 64
f 62 80 63
f 61 80 62
f 61 76 80
f 61 77 76
f 59 61 60
f 59 78 61
f 58 79 99
f 58 78 59
f 98 102 101
f 66 81 85
f 66 85 86
f 66 86 67
f 67 86 87
f 76 100 80
f 75 100 76
f 75 99 100
f 74 97 98
f 74 96 97
f 74 94 96
f 72 95 94
f 79 102 99
f 72 93 95
f 72 94 74
f 71 93 72
f 68 91 89
f 68 90 91
f 68 87 90
f 68 88 87
f 67 87 88
f 72 74 73
f 98 120 121
f 148 149 156
f 102 121 122
f 132 141 150
f 132 153 142
f 132 151 153
f 132 148 151
f 131 149 148
f 131 148 132
f 130 149 131
f 130 134 149
f 129 146 147
f 127 129 128
f 127 146 129
f 127 145 146
f 127 144 145
f 126 143 144
f 126 144 127
f 135 150 140
f 135 140 152
f 135 152 136
f 136 138 137
f 58 61 78
f 154 156 155
f 149 157 156
f 148 153 151
f 148 154 153
f 148 156 154
f 147 154 155
f 125 139 141
f 146 154 147
f 143 145 144
f 143 146 145
f 143 153 146
f 142 153 143
f 139 150 141
f 139 140 150
f 136 152 138
f 146 153 154
f 99 102 100
f 125 143 126
f 125 132 142
f 111 131 132
f 111 130 131
f 109 128 129
f 109 110 128
f 108 128 110
f 108 127 128
f 155 156 157
f 107 126 127
f 107 125 126
f 107 124 125
f 107 123 124
f 106 108 110
f 105 123 107
f 104 123 105
f 102 122 103
f 111 132 112
f 111 116 133
f 111 133 134
f 111 134 130
f 125 141 132
f 124 139 125
f 123 140 139
f 123 152 140
f 123 138 152
f 123 139 124
f 122 137 138
f 125 142 143
f 121 137 122
f 119 135 136
f 119 137 120
f 119 136 137
f 118 135 119
f 112 135 117
f 112 150 135
f 112 132 150
f 120 137 121
f 58 77 61
f 107 127 108
f 58 75 76
f 13 20 21
f 12 20 13
f 11 20 12
f 10 18 19
f 9 18 10
f 8 18 9
f 8 32 18
f 8 17 32
f 7 16 17
f 7 15 16
f 7 14 15
f 6 24 14
f 6 13 24
f 5 13 6
f 5 12 13
f 13 21 22
f 13 22 23
f 13 23 38
f 13 38 24
f 19 34 35
f 18 34 19
f 18 33 34
f 18 53 33
f 18 32 53
f 16 32 17
f 16 31 32
f 5 11 12
f 16 30 31
f 15 29 16
f 15 28 29
f 15 27 28
f 15 26 27
f 14 26 15
f 14 25 26
f 14 24 25
f 16 29 30
f 21 36 22
f 4 11 5
f 3 8 9
f 1 134 133
f 1 149 134
f 1 157 149
f 1 155 157
f 1 147 155
f 1 129 147
f 1 109 129
f 1 92 109
f 1 70 92
f 1 55 70
f 1 35 55
f 1 19 35
f 1 3 10
f 1 2 3
f 58 76 77
f 1 133 116
f 1 116 115
f 1 115 114
f 1 114 95
f 2 8 3
f 2 17 8
f 2 7 17
f 2 14 7
f 2 6 14
f 2 5 6
f 1 5 2
f 3 9 10
f 1 4 5
f 1 20 11
f 1 21 20
f 1 36 21
f 1 56 36
f 1 71 56
f 1 93 71
f 1 95 93
f 1 11 4
f 22 36 23
f 1 10 19
f 23 57 74
f 46 67 47
f 46 66 67
f 45 66 46
f 45 81 66
f 45 65 81
f 45 64 65
f 44 64 45
f 44 63 64
f 43 62 63
f 43 63 44
f 42 62 43
f 41 62 42
f 41 61 62
f 41 60 61
f 40 60 41
f 47 67 49
f 47 49 48
f 49 67 88
f 49 88 68
f 23 37 57
f 57 73 74
f 56 73 57
f 56 71 72
f 54 70 55
f 54 92 70
f 54 110 92
f 38 60 40
f 54 106 110
f 54 69 89
f 52 69 53
f 51 89 69
f 51 68 89
f 51 69 52
f 50 68 51
f 49 68 50
f 54 89 106
f 38 59 60
f 56 72 73
f 37 56 57
f 27 29 28
f 26 42 27
f 26 41 42
f 26 39 41
f 25 39 26
f 24 41 39
f 24 40 41
f 24 38 40
f 24 39 25
f 23 56 37
f 23 36 56
f 23 58 38
f 23 79 58
f 23 98 101
f 38 58 59
f 27 42 43
f 27 43 44
f 23 101 79
f 29 44 45
f 34 55 35
f 27 44 29
f 34 54 55
f 33 54 34
f 33 69 54
f 33 53 69
f 32 52 53
f 31 52 32
f 23 74 98
f 31 50 51
f 31 49 50
f 31 48 49
f 30 48 31
f 30 47 48
f 31 51 52
f 29 47 30
f 29 45 46
f 29 46 47