# https://github.com/mikedh/trimesh
v 0.09521710 -0.46548900 -0.40201800
v 0.10580500 -0.51838100 -0.43376400
v 0.10580500 -0.52898300 -0.42318200
v 0.10580500 -0.52898300 -0.41260000
v 0.09521710 -0.45491100 -0.39144600
v 0.09521710 -0.43377800 -0.40201800
v 0.10933400 -0.51487100 -0.44081900
v 0.11108700 -0.53426000 -0.43905600
v 0.09874650 -0.43024400 -0.40907300
v 0.11285100 -0.54307200 -0.42671000
v 0.10933400 -0.53602700 -0.40907300
v 0.09786410 -0.46548900 -0.39012800
v 0.11100000 -0.41243200 -0.33835800
v 0.09521710 -0.44435600 -0.39144600
v 0.10580500 -0.40204200 -0.35971000
v 0.10580500 -0.40204200 -0.40201800
v 0.10933400 -0.45137700 -0.43023700
v 0.11991000 -0.40908700 -0.43023700
v 0.13048600 -0.44082200 -0.44081900
v 0.11638100 -0.51838100 -0.44433600
v 0.12872100 -0.53779400 -0.44258300
v 0.12167500 -0.54483900 -0.43905600
v 0.11814500 -0.52721600 -0.44258300
v 0.10933400 -0.39850800 -0.40907300
v 0.11108700 -0.40998200 -0.41789100
v 0.11285100 -0.42673300 -0.42671000
v 0.14282600 -0.56865800 -0.41789100
v 0.11108700 -0.53426000 -0.40466300
v 0.11877900 -0.44435600 -0.33835800
v 0.11100000 -0.40185400 -0.33835800
v 0.11897800 -0.36901100 -0.33835800
v 0.11108700 -0.39410300 -0.40730900
v 0.11904000 -0.36887000 -0.33835800
v 0.11285100 -0.38793000 -0.40201800
v 0.12167500 -0.39940400 -0.42847300
v 0.14107300 -0.40908700 -0.44081900
v 0.14812000 -0.41262100 -0.44433600
v 0.13754400 -0.44435600 -0.44433600
v 0.12695600 -0.52898300 -0.44433600
v 0.13754400 -0.53956100 -0.44433600
v 0.14107300 -0.54660600 -0.44081900
v 0.14459000 -0.55365000 -0.43729200
v 0.15517800 -0.55365000 -0.43729200
v 0.17280000 -0.55718400 -0.43023700
v 0.16927100 -0.56071800 -0.42318200
v 0.18117600 -0.55805600 -0.42318200
v 0.18514000 -0.55805600 -0.41789100
v 0.14812000 -0.56467600 -0.41260000
v 0.14282600 -0.55541700 -0.40466300
v 0.14019100 -0.56071800 -0.41128200
v 0.14024100 -0.46280300 -0.33835800
v 0.12167500 -0.44963300 -0.33835800
v 0.11915200 -0.44532200 -0.33835800
v 0.12167500 -0.38882500 -0.41789100
v 0.11912700 -0.36872900 -0.33835800
v 0.11991000 -0.37381800 -0.38087400
v 0.12167500 -0.37294600 -0.38616500
v 0.12343900 -0.37735200 -0.40201800
v 0.13225000 -0.37824700 -0.41789100
v 0.13225000 -0.38882500 -0.42847300
v 0.13754400 -0.39014500 -0.43111900
v 0.14812000 -0.39850800 -0.43729200
v 0.16397700 -0.40732000 -0.44170100
v 0.15869500 -0.41262100 -0.44433600
v 0.15869500 -0.53956100 -0.44433600
v 0.16221200 -0.54660600 -0.44081900
v 0.17191800 -0.54483900 -0.43905600
v 0.18249300 -0.55541700 -0.42847300
v 0.16927100 -0.55365000 -0.40907300
v 0.15341400 -0.55805600 -0.40730900
v 0.20893800 -0.53426000 -0.42847300
v 0.20805600 -0.53602700 -0.42318200
v 0.18778700 -0.55541700 -0.41789100
v 0.20893800 -0.53030200 -0.41260000
v 0.21158500 -0.51972400 -0.40466300
v 0.17272600 -0.45844500 -0.33835800
v 0.16567900 -0.46200200 -0.33835800
v 0.15888200 -0.46539500 -0.33835800
v 0.14812000 -0.55718400 -0.40554500
v 0.14812000 -0.46544200 -0.33835800
v 0.12343900 -0.36677300 -0.37029200
v 0.14113600 -0.34196500 -0.33835800
v 0.13401500 -0.35619500 -0.37029200
v 0.12695600 -0.36632600 -0.38087400
v 0.13754400 -0.36632600 -0.40201800
v 0.13225000 -0.37294600 -0.40730900
v 0.14812000 -0.36632600 -0.41260000
v 0.14282600 -0.37294600 -0.41789100
v 0.14812000 -0.37735200 -0.42671000
v 0.14812000 -0.38439600 -0.43023700
v 0.16927100 -0.38439600 -0.43023700
v 0.17455200 -0.38616300 -0.43111900
v 0.18514000 -0.39674100 -0.43111900
v 0.19571600 -0.40732000 -0.43111900
v 0.18514000 -0.44963300 -0.44170100
v 0.17984600 -0.45491100 -0.44433600
v 0.17984600 -0.52898300 -0.44433600
v 0.20453900 -0.52544900 -0.44081900
v 0.19306900 -0.53426000 -0.43905600
v 0.20453900 -0.53602700 -0.43023700
v 0.21158500 -0.52898300 -0.42318200
v 0.20893800 -0.52368200 -0.43905600
v 0.21555000 -0.51838100 -0.43376400
v 0.21952600 -0.51310400 -0.42847300
v 0.20629100 -0.53689900 -0.41789100
v 0.21511500 -0.52191500 -0.41260000
v 0.21687900 -0.51574200 -0.40730900
v 0.21864400 -0.51133700 -0.40554500
v 0.20453900 -0.42673300 -0.33835800
v 0.18337600 -0.44789000 -0.33835800
v 0.15869500 -0.46541900 -0.33835800
v 0.14805800 -0.33459000 -0.33835800
v 0.14812000 -0.33459000 -0.33855500
v 0.14812000 -0.34516900 -0.37029200
v 0.15869500 -0.36677300 -0.41612700
v 0.15869500 -0.34516900 -0.38087400
v 0.16927100 -0.37735200 -0.42671000
v 0.18514000 -0.38616300 -0.42582800
v 0.19042200 -0.39146400 -0.42714500
v 0.19571600 -0.38616300 -0.42053700
v 0.19836300 -0.38088600 -0.41392800
v 0.21687900 -0.47079000 -0.43111900
v 0.19571600 -0.47079000 -0.44170100
v 0.19042200 -0.47606800 -0.44433600
v 0.20101000 -0.51838100 -0.44433600
v 0.20805600 -0.51838100 -0.44081900
v 0.21864400 -0.51487100 -0.42318200
v 0.21864400 -0.51487100 -0.41260000
v 0.21511500 -0.50780300 -0.43729200
v 0.22217300 -0.50780300 -0.42318200
v 0.22217300 -0.50780300 -0.41260000
v 0.21158500 -0.41262100 -0.33835800
v 0.20813100 -0.41954700 -0.33835800
v 0.14831900 -0.33444900 -0.33835800
v 0.15341400 -0.34121100 -0.36500100
v 0.16397700 -0.34121100 -0.37558300
v 0.16927100 -0.34561700 -0.38440100
v 0.17984600 -0.34561700 -0.38440100
v 0.19042200 -0.37735200 -0.41612700
v 0.19042200 -0.35619500 -0.39497300
v 0.19836300 -0.35972900 -0.39276300
v 0.20805600 -0.38439600 -0.39497300
v 0.21864400 -0.46902300 -0.42671000
v 0.21864400 -0.47606800 -0.43023700
v 0.20629100 -0.50252500 -0.44170100
v 0.20101000 -0.50780300 -0.44433600
v 0.22217300 -0.47606800 -0.42318200
v 0.22217300 -0.47606800 -0.41260000
v 0.21158500 -0.37030700 -0.33835800
v 0.16927100 -0.32799400 -0.33835800
v 0.16927100 -0.32799400 -0.33855500
v 0.16397700 -0.33063200 -0.34384700
v 0.16927100 -0.33857200 -0.37029200
v 0.16927100 -0.34208300 -0.37734700
v 0.17984600 -0.34208300 -0.37734700
v 0.19042200 -0.34121100 -0.37162000
v 0.19571600 -0.34385000 -0.37293700
v 0.19571600 -0.35442800 -0.38881100
v 0.19748100 -0.35266100 -0.38440100
v 0.20805600 -0.37381800 -0.37381900
v 0.21158500 -0.39146400 -0.39144600
v 0.21158500 -0.38088600 -0.37029200
v 0.21158500 -0.37030700 -0.33855500
v 0.21153600 -0.37007200 -0.33835800
v 0.16945700 -0.32799400 -0.33835800
v 0.17984600 -0.33027900 -0.33835800
v 0.17984600 -0.33063200 -0.33987300
v 0.17984600 -0.33857200 -0.37029200
v 0.19042200 -0.33857200 -0.35971000
v 0.19748100 -0.34208300 -0.36323700
v 0.20101000 -0.34915000 -0.35971000
v 0.20831700 -0.36222600 -0.33835800
v 0.18112600 -0.33079700 -0.33835800
v 0.19748100 -0.34208300 -0.33835800
v 0.18514000 -0.33327100 -0.34120100
v 0.18891800 -0.33515600 -0.33835800
v 0.19042200 -0.33616900 -0.33835800
v 0.19207500 -0.33734700 -0.33835800
f 94 120 121
f 94 119 120
f 87 89 88
f 94 122 123
f 93 119 94
f 94 123 95
f 95 123 124
f 94 121 122
f 92 119 93
f 89 117 91
f 92 117 118
f 91 117 92
f 89 115 117
f 89 91 90
f 87 115 89
f 87 137 115
f 87 116 137
f 95 124 96
f 92 118 119
f 97 125 98
f 108 128 131
f 98 126 102
f 112 134 113
f 85 116 87
f 108 133 109
f 108 132 133
f 108 131 132
f 106 108 107
f 106 128 108
f 104 128 127
f 98 125 126
f 104 131 128
f 104 147 130
f 104 144 147
f 104 129 144
f 103 129 104
f 102 129 103
f 102 126 129
f 101 127 128
f 101 104 127
f 104 130 131
f 85 114 116
f 63 95 64
f 83 112 113
f 70 78 79
f 69 78 70
f 68 100 71
f 68 98 100
f 68 99 98
f 67 98 99
f 67 99 68
f 66 98 67
f 71 101 72
f 65 98 66
f 64 95 96
f 63 94 95
f 63 93 94
f 63 92 93
f 63 91 92
f 63 90 91
f 62 90 63
f 113 134 135
f 65 97 98
f 83 113 114
f 71 100 98
f 71 102 103
f 81 112 83
f 81 82 112
f 79 111 80
f 78 111 79
f 75 110 76
f 75 109 110
f 75 108 109
f 75 107 108
f 71 98 102
f 74 107 75
f 74 105 106
f 73 105 74
f 72 106 105
f 72 128 106
f 72 101 128
f 72 105 73
f 71 104 101
f 71 103 104
f 74 106 107
f 113 135 114
f 160 171 162
f 114 136 116
f 153 155 154
f 153 168 155
f 151 168 153
f 151 156 168
f 151 167 156
f 151 166 167
f 151 165 166
f 150 165 151
f 155 168 156
f 149 163 164
f 147 163 149
f 147 162 163
f 147 161 162
f 143 147 144
f 142 147 143
f 142 161 147
f 142 162 161
f 142 160 162
f 147 149 148
f 142 159 160
f 156 167 166
f 156 169 170
f 61 90 62
f 170 178 174
f 170 177 178
f 170 176 177
f 170 175 176
f 170 173 175
f 170 172 171
f 170 174 172
f 156 166 169
f 166 170 169
f 164 171 172
f 162 164 163
f 162 171 164
f 160 170 171
f 159 170 160
f 157 159 158
f 157 170 159
f 156 170 157
f 166 173 170
f 141 159 142
f 141 158 159
f 140 158 141
f 122 145 123
f 122 129 145
f 122 144 129
f 122 143 144
f 121 143 122
f 121 142 143
f 121 141 142
f 121 140 141
f 123 145 146
f 121 139 140
f 118 120 119
f 117 140 139
f 117 138 140
f 117 120 118
f 117 139 120
f 116 136 137
f 115 138 117
f 115 137 138
f 120 139 121
f 123 146 124
f 125 146 145
f 125 145 126
f 140 157 158
f 138 157 140
f 138 156 157
f 138 155 156
f 137 155 138
f 137 154 155
f 136 151 153
f 136 152 151
f 136 154 137
f 136 153 154
f 135 152 136
f 134 152 135
f 134 151 152
f 173 176 175
f 131 149 132
f 131 148 149
f 130 148 131
f 130 147 148
f 126 145 129
f 114 135 136
f 61 89 90
f 134 150 151
f 59 89 60
f 13 166 165
f 13 173 166
f 13 176 173
f 13 177 176
f 13 178 177
f 13 174 178
f 13 172 174
f 13 164 172
f 13 165 150
f 13 149 164
f 13 133 132
f 13 109 133
f 13 110 109
f 13 76 110
f 13 77 76
f 13 78 77
f 13 111 78
f 13 80 111
f 13 132 149
f 13 51 80
f 13 150 134
f 13 112 82
f 19 38 20
f 19 37 38
f 19 36 37
f 18 36 19
f 18 35 36
f 18 25 35
f 17 26 18
f 16 34 32
f 13 134 112
f 16 33 34
f 16 32 24
f 15 31 16
f 15 30 31
f 14 30 15
f 13 31 30
f 13 33 31
f 13 55 33
f 13 82 55
f 16 31 33
f 13 52 51
f 13 53 52
f 13 29 53
f 5 30 14
f 5 13 30
f 5 12 13
f 4 12 5
f 4 11 12
f 4 10 11
f 3 10 4
f 2 9 7
f 6 14 15
f 2 6 9
f 2 7 8
f 1 6 2
f 1 14 6
f 1 5 14
f 1 4 5
f 1 3 4
f 1 2 3
f 60 89 61
f 2 8 3
f 6 15 16
f 6 16 24
f 6 24 9
f 12 29 13
f 12 28 29
f 11 27 28
f 11 28 12
f 10 27 11
f 10 22 27
f 9 26 17
f 9 18 26
f 9 25 18
f 9 24 25
f 8 23 21
f 8 20 23
f 8 22 10
f 8 21 22
f 7 9 17
f 7 20 8
f 7 19 20
f 7 18 19
f 7 17 18
f 20 39 23
f 20 38 37
f 3 8 10
f 20 64 96
f 47 75 76
f 47 74 75
f 47 73 74
f 47 72 73
f 47 71 72
f 47 68 71
f 47 70 48
f 47 69 70
f 47 76 77
f 46 68 47
f 44 68 46
f 44 67 68
f 44 66 67
f 43 66 44
f 41 43 42
f 41 66 43
f 40 66 41
f 40 65 66
f 44 46 45
f 37 63 64
f 47 77 78
f 48 70 79
f 59 88 89
f 20 37 64
f 59 87 88
f 59 85 87
f 59 86 85
f 58 86 59
f 58 114 85
f 58 83 114
f 47 78 69
f 58 84 83
f 57 83 84
f 57 81 83
f 56 81 57
f 55 82 81
f 55 81 56
f 49 80 51
f 49 79 80
f 48 79 49
f 57 84 58
f 37 62 63
f 58 85 86
f 36 61 37
f 27 44 45
f 27 43 44
f 27 42 43
f 24 35 25
f 24 32 35
f 22 40 41
f 22 42 27
f 22 41 42
f 27 45 46
f 21 40 22
f 21 23 39
f 20 40 39
f 20 65 40
f 20 125 97
f 20 146 125
f 37 61 62
f 20 96 124
f 20 124 146
f 21 39 40
f 27 46 47
f 20 97 65
f 27 48 49
f 35 60 36
f 27 47 48
f 35 54 59
f 34 59 54
f 34 58 59
f 34 57 58
f 34 56 57
f 34 55 56
f 33 55 34
f 35 59 60
f 36 60 61
f 32 34 54
f 28 53 29
f 28 52 53
f 28 51 52
f 27 49 50
f 28 49 51
f 28 50 49
f 32 54 35
f 27 50 28