o piece_009
v -0.0179855 0.02856745 -0.0323254
v -0.0190428 0.02962585 -0.03703
v -0.0201012 0.02856745 -0.0323254
v -0.0170224 0.02847225 -0.0323254
v -0.0169281 0.02856745 -0.0327972
v -0.0158697 0.02856745 -0.0359715
v -0.0190428 0.02962585 -0.0380873
v -0.0211585 0.02856745 -0.034913
v -0.0212911 0.02830235 -0.0338557
v -0.0215117 0.02786115 -0.0323254
v -0.0155414 0.02783845 -0.0323254
v -0.0155176 0.02786115 -0.0324452
v -0.0144592 0.02786115 -0.0356183
v -0.0158697 0.02856745 -0.0380873
v -0.0169281 0.02856745 -0.0402019
v -0.0216877 0.02830235 -0.0407317
v -0.0211585 0.02856745 -0.0402019
v -0.022569 0.02786115 -0.034913
v -0.0227264 0.02672415 -0.0323254
v -0.0144592 0.02680285 -0.0323254
v -0.0143402 0.02656665 -0.0323254
v -0.0134019 0.02574655 -0.0356183
v -0.0126956 0.02433605 -0.0359715
v -0.0144592 0.02786115 -0.0377352
v -0.0151645 0.02821335 -0.0384393
v -0.0162229 0.02821335 -0.0405551
v -0.0163989 0.02803725 -0.0409961
v -0.0169281 0.02821335 -0.0409072
v -0.0179855 0.02786115 -0.0416124
v -0.0211585 0.02786115 -0.0416124
v -0.0222169 0.02750905 -0.0412604
v -0.022569 0.02786115 -0.0402019
v -0.0229222 0.02715695 -0.034913
v -0.0230102 0.02698095 -0.0343843
v -0.0229615 0.02631405 -0.0323254
v -0.013754 0.02539235 -0.0323254
v -0.0126956 0.02327765 -0.0359715
v -0.0126956 0.02433605 -0.03703
v -0.0153416 0.02803725 -0.0394089
v -0.0141071 0.02715695 -0.0384393
v -0.0142832 0.02698095 -0.0394089
v -0.0151645 0.02715695 -0.0405551
v -0.0153416 0.02698095 -0.0409961
v -0.0169281 0.02750905 -0.0416575
v -0.0174573 0.02698095 -0.0420534
v -0.0179855 0.02715695 -0.0419656
v -0.0211585 0.02715695 -0.0419656
v -0.0216877 0.02724395 -0.041789
v -0.0218638 0.02680285 -0.0419656
v -0.0227461 0.02565745 -0.041789
v -0.0229222 0.02680285 -0.0409072
v -0.0227461 0.02724395 -0.0407317
v -0.0229222 0.02715695 -0.0402019
v -0.0232753 0.02645075 -0.034913
v -0.0231572 0.02592255 -0.0323254
v -0.013754 0.02116085 -0.0323254
v -0.0126956 0.01375635 -0.0402019
v -0.0126956 0.02010245 -0.0412604
v -0.0129607 0.02433605 -0.03822
v -0.0140181 0.02645075 -0.0392762
v -0.0140181 0.02433605 -0.041392
v -0.0142832 0.02486415 -0.0415247
v -0.0158697 0.02645075 -0.0416575
v -0.0163989 0.02592255 -0.0420534
v -0.0153416 0.02169105 -0.0431119
v -0.0179855 0.02645075 -0.0423177
v -0.0211585 0.02645075 -0.0423177
v -0.0229222 0.02468815 -0.0419656
v -0.0232753 0.02645075 -0.0402019
v -0.0232753 0.02539235 -0.0323254
v -0.0144592 0.01975035 -0.0323254
v -0.0130488 0.01023115 -0.0416124
v -0.0129607 0.01256745 -0.0402019
v -0.0126956 0.01058325 -0.0423177
v -0.0130488 0.02010245 -0.0419656
v -0.0132248 0.02063275 -0.0420534
v -0.0130488 0.02080875 -0.0416124
v -0.0129607 0.02327765 -0.0392762
v -0.0126956 0.01693145 -0.0423177
v -0.0142832 0.02380575 -0.0420534
v -0.0158697 0.02116085 -0.0433762
v -0.0132248 0.01428655 -0.0441692
v -0.0148124 0.01587315 -0.0444347
v -0.0156719 0.01673265 -0.0444347
v -0.0179855 0.02221925 -0.0433762
v -0.0201012 0.02221925 -0.0433762
v -0.0222169 0.01388885 -0.0441692
v -0.0222169 0.02433605 -0.0423177
v -0.0232753 0.02433605 -0.0412604
v -0.0227461 0.01402145 -0.0439048
v -0.0230102 0.01388885 -0.0433762
v -0.0232753 0.02221925 -0.0323254
v -0.015091 0.01857605 -0.0323254
v -0.0132248 0.00978999 -0.041789
v -0.0151624 0.01846005 -0.0323254
v -0.0130488 0.00987905 -0.0423177
v -0.0129607 0.01005515 -0.0428475
v -0.0126956 0.01270005 -0.0433762
v -0.0130488 0.01693145 -0.043023
v -0.0132248 0.01745965 -0.0431119
v -0.0126956 0.01375635 -0.0433762
v -0.0130488 0.01375635 -0.0440814
v -0.013754 0.01375635 -0.0444347
v -0.0211585 0.01375635 -0.0444347
v -0.0220409 0.01287605 -0.0442581
v -0.0232753 0.01587315 -0.0423177
v -0.0227461 0.01216975 -0.0439048
v -0.0230982 0.01287605 -0.0431996
v -0.0231572 0.02127895 -0.0323254
v -0.0232753 0.01375635 -0.0423177
v -0.0153416 0.00873161 -0.041789
v -0.0158697 0.0084665 -0.0423177
v -0.013754 0.00952488 -0.0423177
v -0.0157134 0.01783245 -0.0323254
v -0.0162063 0.01743065 -0.0323254
v -0.0169136 0.01696045 -0.0323254
v -0.0150765 0.00899672 -0.0428475
v -0.0134019 0.00987905 -0.043023
v -0.0134899 0.01111145 -0.0439048
v -0.0129607 0.01216975 -0.0439048
v -0.0130488 0.01270005 -0.0440814
v -0.013754 0.01270005 -0.0444347
v -0.0211585 0.01164165 -0.0444347
v -0.0216877 0.01111145 -0.0439048
v -0.0213356 0.01040725 -0.0435528
v -0.022393 0.01146555 -0.0435528
v -0.0227461 0.01216975 -0.0420534
v -0.0230102 0.01270005 -0.0421861
v -0.0227171 0.01960335 -0.0323254
v -0.0158697 0.00882067 -0.0416124
v -0.0169281 0.00882067 -0.0416124
v -0.0169281 0.0084665 -0.0423177
v -0.0175733 0.01681345 -0.0323254
v -0.0182205 0.01669535 -0.0323254
v -0.0155176 0.00882067 -0.043023
v -0.0144592 0.01093535 -0.0440814
v -0.0136214 0.01164165 -0.0441692
v -0.0148124 0.01164165 -0.0444347
v -0.0208064 0.01093535 -0.0440814
v -0.0169281 0.00952488 -0.0433762
v -0.0204533 0.01023115 -0.0437282
v -0.0201012 0.00952488 -0.0423177
v -0.0215117 0.01023115 -0.0426709
v -0.022481 0.01164165 -0.0424504
v -0.0218638 0.01093535 -0.0419656
v -0.0216877 0.01111145 -0.0409961
v -0.0213947 0.01775375 -0.0323254
v -0.0174573 0.00899672 -0.0415247
v -0.0192789 0.01669535 -0.0323254
v -0.016575 0.00882067 -0.043023
v -0.0176334 0.00882067 -0.0419656
v -0.0158697 0.00952488 -0.0433762
v -0.0208064 0.00987905 -0.0419656
v -0.0206293 0.01005515 -0.0415247
v -0.0200722 0.01696045 -0.0323254
v -0.0201012 0.01023115 -0.0409072
v -0.019629 0.01681135 -0.0323254
f 1 2 3
f 1 3 10
f 1 10 19
f 1 19 35
f 1 35 55
f 1 55 70
f 1 70 92
f 1 92 109
f 1 109 129
f 1 129 147
f 1 147 155
f 1 155 157
f 1 157 149
f 1 149 134
f 1 134 133
f 1 133 116
f 1 116 115
f 1 115 114
f 1 114 95
f 1 95 93
f 1 93 71
f 1 71 56
f 1 56 36
f 1 36 21
f 1 21 20
f 1 20 11
f 1 11 4
f 1 4 5
f 1 5 2
f 2 5 6
f 2 6 14
f 2 14 7
f 2 7 17
f 2 17 8
f 2 8 3
f 3 8 9
f 3 9 10
f 4 11 5
f 5 11 12
f 5 12 13
f 5 13 6
f 6 13 24
f 6 24 14
f 7 14 15
f 7 15 16
f 7 16 17
f 8 17 32
f 8 32 18
f 8 18 9
f 9 18 10
f 10 18 19
f 11 20 12
f 12 20 13
f 13 20 21
f 13 21 22
f 13 22 23
f 13 23 38
f 13 38 24
f 14 24 25
f 14 25 26
f 14 26 15
f 15 26 27
f 15 27 28
f 15 28 29
f 15 29 16
f 16 29 30
f 16 30 31
f 16 31 32
f 16 32 17
f 18 32 53
f 18 53 33
f 18 33 34
f 18 34 19
f 19 34 35
f 21 36 22
f 22 36 23
f 23 37 57
f 23 57 74
f 23 74 98
f 23 98 101
f 23 101 79
f 23 79 58
f 23 58 38
f 23 36 56
f 23 56 37
f 24 39 25
f 24 38 40
f 24 40 41
f 24 41 39
f 25 39 26
f 26 39 41
f 26 41 42
f 26 42 27
f 27 29 28
f 27 42 43
f 27 43 44
f 27 44 29
f 29 44 45
f 29 45 46
f 29 46 47
f 29 47 30
f 30 47 48
f 30 48 31
f 31 48 49
f 31 49 50
f 31 50 51
f 31 51 52
f 31 52 32
f 32 52 53
f 33 53 69
f 33 69 54
f 33 54 34
f 34 54 55
f 34 55 35
f 37 56 57
f 38 58 59
f 38 59 60
f 38 60 40
f 40 60 41
f 41 60 61
f 41 61 62
f 41 62 42
f 42 62 43
f 43 63 44
f 43 62 63
f 44 63 64
f 44 64 45
f 45 64 65
f 45 65 81
f 45 81 66
f 45 66 46
f 46 66 67
f 46 67 47
f 47 67 49
f 47 49 48
f 49 67 88
f 49 88 68
f 49 68 50
f 50 68 51
f 51 69 52
f 51 68 89
f 51 89 69
f 52 69 53
f 54 69 89
f 54 89 106
f 54 106 110
f 54 110 92
f 54 92 70
f 54 70 55
f 56 71 72
f 56 72 73
f 56 73 57
f 57 73 74
f 58 75 76
f 58 76 77
f 58 77 61
f 58 61 78
f 58 78 59
f 58 79 99
f 58 99 75
f 59 78 61
f 59 61 60
f 61 77 76
f 61 76 80
f 61 80 62
f 62 80 63
f 63 80 64
f 64 80 65
f 65 80 82
f 65 82 83
f 65 83 84
f 65 84 81
f 66 81 85
f 66 85 86
f 66 86 67
f 67 86 87
f 67 87 88
f 68 88 87
f 68 87 90
f 68 90 91
f 68 91 89
f 71 93 72
f 72 94 74
f 72 74 73
f 72 93 95
f 72 95 94
f 74 94 96
f 74 96 97
f 74 97 98
f 75 99 100
f 75 100 76
f 76 100 80
f 79 101 102
f 79 102 99
f 80 100 82
f 81 84 85
f 82 100 102
f 82 102 103
f 82 103 83
f 83 103 122
f 83 122 138
f 83 138 123
f 83 123 104
f 83 104 84
f 84 104 86
f 84 86 85
f 86 104 87
f 87 104 105
f 87 105 90
f 89 91 106
f 90 105 107
f 90 107 91
f 91 107 108
f 91 108 106
f 92 110 109
f 94 111 112
f 94 112 113
f 94 113 96
f 94 95 114
f 94 114 115
f 94 115 116
f 94 116 111
f 96 113 97
f 97 113 112
f 97 112 117
f 97 117 135
f 97 135 118
f 97 118 119
f 97 119 120
f 97 120 98
f 98 121 102
f 98 102 101
f 98 120 121
f 99 102 100
f 102 121 122
f 102 122 103
f 104 123 105
f 105 123 107
f 106 108 110
f 107 123 124
f 107 124 125
f 107 125 126
f 107 126 127
f 107 127 108
f 108 127 128
f 108 128 110
f 109 110 128
f 109 128 129
f 111 130 131
f 111 131 132
f 111 132 112
f 111 116 133
f 111 133 134
f 111 134 130
f 112 132 150
f 112 150 135
f 112 135 117
f 118 135 119
f 119 136 137
f 119 137 120
f 119 135 136
f 120 137 121
f 121 137 122
f 122 137 138
f 123 139 124
f 123 138 152
f 123 152 140
f 123 140 139
f 124 139 125
f 125 141 132
f 125 132 142
f 125 142 143
f 125 143 126
f 125 139 141
f 126 144 127
f 126 143 144
f 127 144 145
f 127 145 146
f 127 146 129
f 127 129 128
f 129 146 147
f 130 134 149
f 130 149 131
f 131 148 132
f 131 149 148
f 132 148 151
f 132 151 153
f 132 153 142
f 132 141 150
f 135 150 140
f 135 140 152
f 135 152 136
f 136 138 137
f 136 152 138
f 139 140 150
f 139 150 141
f 142 153 143
f 143 153 146
f 143 146 145
f 143 145 144
f 146 153 154
f 146 154 147
f 147 154 155
f 148 156 154
f 148 154 153
f 148 153 151
f 148 149 156
f 149 157 156
f 154 156 155
f 155 156 157
