o piece_002
v 0.011635 0.04020555 -0.00127564
v 0.0137528 0.03914695 -0.00127564
v 0.011635 0.04020555 -0.0021167
v -0.011635 0.04020555 -0.00127564
v 0.0163003 0.03787165 -0.00127564
v 0.0137528 0.03914695 -0.0021167
v 0.011635 0.03993965 -0.00330717
v 0.0105786 0.04020555 -0.00317502
v 0.0123392 0.03985105 -0.00246947
v -0.011635 0.04020555 -0.0021167
v -0.0165023 0.03777315 -0.00127564
v 0.0165748 0.03773375 -0.00127564
v 0.0165748 0.03773375 -0.00141115
v 0.014457 0.03879245 -0.00246947
v 0.0105786 0.03993965 -0.00436437
v 0.0121631 0.03967375 -0.00343932
v 0.0132246 0.03861515 -0.00555485
v 0.0126913 0.03888105 -0.0054227
v 0.00951716 0.04020555 -0.00423222
v 0.0134007 0.03879245 -0.004585
v -0.0105786 0.04020555 -0.00317502
v -0.0121631 0.03993965 -0.0026453
v -0.0137528 0.03914695 -0.0021167
v -0.0142809 0.03888105 -0.0026453
v -0.0163935 0.03782245 -0.00158698
v -0.0172065 0.03738915 -0.00127564
v 0.0167094 0.03766485 -0.00127564
v 0.0183353 0.03632555 -0.00282225
v 0.0176311 0.03667515 -0.00352667
v 0.0155133 0.03773375 -0.004585
v 0.0126913 0.03782245 -0.0075371
v 0.011635 0.03738425 -0.00881605
v 0.00951716 0.03949655 -0.00564332
v 0.0153372 0.03755655 -0.00555485
v 0.0176311 0.03456285 -0.0109316
v 0.0179832 0.03363715 -0.0127167
v 0.00846085 0.03914695 -0.00634887
v -0.00951716 0.04020555 -0.00423222
v -0.0100505 0.03993965 -0.00476194
v -0.0132246 0.03888105 -0.00476194
v -0.0153372 0.03782245 -0.00476194
v -0.0148091 0.03848225 -0.00317502
v -0.0169269 0.03742355 -0.0021167
v -0.020101 0.03319405 -0.0105788
v -0.0204531 0.03314975 -0.0095216
v -0.0183353 0.03632555 -0.0021167
v -0.0183353 0.03632555 -0.00127564
v 0.0171185 0.03734485 -0.00127564
v 0.0183353 0.03632555 -0.00127564
v 0.0204531 0.03420835 -0.00282225
v 0.0215094 0.03209115 -0.010226
v 0.0208052 0.03244565 -0.0109316
v 0.0197437 0.03350425 -0.00987325
v 0.011635 0.03526695 -0.0119899
v 0.00846085 0.03843785 -0.00775773
v 0.0148091 0.03437575 -0.0127167
v 0.0195676 0.03332695 -0.0108431
v 0.0188376 0.03316455 -0.0127167
v 0.00793269 0.03888105 -0.00687747
v -0.00846085 0.03914695 -0.00634887
v -0.008989 0.03888105 -0.00687747
v -0.0121631 0.03782245 -0.00793467
v -0.0121631 0.03888105 -0.00581915
v -0.0126913 0.03848225 -0.00634887
v -0.0137528 0.03848225 -0.00529055
v -0.0158654 0.03742355 -0.00529055
v -0.0193916 0.03314975 -0.0126954
v -0.0206291 0.03253425 -0.0111085
v -0.0204531 0.03420835 -0.00317502
v -0.0193916 0.03526695 -0.00317502
v -0.0215094 0.03209115 -0.0095216
v -0.0204531 0.03420835 -0.00127564
v 0.0204531 0.03420835 -0.00127564
v 0.0215094 0.03314975 -0.00176392
v 0.0225657 0.03103255 -0.0081105
v 0.0225657 0.02997385 -0.0127167
v 0.0216854 0.03120975 -0.0119014
v 0.0206291 0.03226835 -0.0119014
v -0.011635 0.03526695 -0.0119899
v -0.00846085 0.03843785 -0.00775773
v -0.0148091 0.03437575 -0.0127167
v 0.0198369 0.03246535 -0.0127167
v -0.011635 0.03738425 -0.00881605
v -0.0126913 0.03742355 -0.00846327
v -0.0180039 0.03384395 -0.0127167
v -0.0179832 0.03425265 -0.0116371
v -0.0193864 0.03314485 -0.0127167
v -0.0215094 0.03103255 -0.0127167
v -0.0225761 0.02996405 -0.0127167
v -0.0215094 0.03314975 -0.00317502
v -0.0215094 0.03314975 -0.00127564
v 0.0215094 0.03314975 -0.00127564
v 0.0236272 0.02997385 -0.00387945
v 0.0236272 0.02892015 -0.010226
v 0.0215094 0.03103255 -0.0127167
v 0.0239793 0.02821115 -0.0109316
v 0.024 0.02724615 -0.0127167
v 0.0203495 0.03206655 -0.0127167
v 0.0200803 0.03227825 -0.0127167
v -0.0158032 0.03424775 -0.0127167
v -0.0158654 0.03425265 -0.0126954
v -0.0158654 0.03423795 -0.0127167
v -0.0186822 0.03350425 -0.0127167
v -0.0236272 0.02786155 -0.0127167
v -0.0236272 0.02892015 -0.0095216
v -0.0236272 0.02997385 -0.00317502
v -0.0236272 0.02997385 -0.00127564
v 0.0236272 0.02997385 -0.00127564
v 0.0248285 0.02809795 -0.00127564
v 0.0248596 0.02803885 -0.00132268
v 0.0246835 0.02786155 -0.00599609
v 0.0243314 0.02644845 -0.0127167
v 0.0250356 0.02715255 -0.00670052
v 0.0253877 0.02644845 -0.00634887
v 0.0250356 0.02609885 -0.00987325
v -0.0243314 0.02644845 -0.0127167
v -0.0250356 0.02609885 -0.0095216
v -0.0246835 0.02786155 -0.00529055
v -0.0236997 0.02983115 -0.00127564
v 0.0248596 0.02803885 -0.00127564
v 0.0249528 0.02784685 -0.00127564
v 0.0253877 0.02538985 -0.0095216
v 0.0253877 0.02327755 -0.0126954
v 0.0253825 0.02327755 -0.0127167
v 0.0251185 0.02748245 -0.00127564
v 0.0251495 0.02740855 -0.00127564
v 0.0262058 0.02423765 -0.00127564
v 0.0264492 0.02327755 -0.00423222
v -0.0251236 0.02444445 -0.0127167
v -0.0251236 0.02446415 -0.0126954
v -0.0253877 0.02433125 -0.0116371
v -0.0253877 0.02538985 -0.0095216
v -0.0253877 0.02644845 -0.00529055
v -0.0251081 0.02700975 -0.00127564
v -0.0246835 0.02786155 -0.00127564
v -0.0240518 0.02912695 -0.00127564
v 0.0264492 0.02221895 -0.00634887
v 0.0253877 0.02325295 -0.0127167
v 0.0264492 0.02327755 -0.00127564
v -0.0253825 0.02327755 -0.0127167
v -0.0253877 0.02327755 -0.0126954
v -0.0264492 0.02221895 -0.00634887
v -0.0264492 0.02327755 -0.00423222
v -0.0263922 0.02436075 -0.00127564
v -0.0253877 0.02644845 -0.00127564
v 0.0264492 0.01798445 -0.00317502
v 0.0253877 0.01798445 -0.0126954
v 0.0253877 0.01904305 -0.0127167
v 0.0264492 0.01692585 -0.00127564
v -0.0253877 0.02325295 -0.0127167
v -0.0264492 0.02116025 -0.00740495
v -0.0264492 0.02411455 -0.00127564
v 0.0264492 0.01692585 -0.0021167
v 0.0253877 0.01692585 -0.0116371
v 0.0253825 0.01798445 -0.0127167
v 0.0263664 0.01587215 -0.00127564
v -0.0253877 0.01798445 -0.0127167
v -0.0253877 0.01692585 -0.0126954
v -0.0264492 0.02010165 -0.00634887
v -0.0264492 0.01587215 -0.00127564
v 0.0263353 0.01565055 -0.00127564
v 0.0253877 0.01587215 -0.0105788
v 0.0251236 0.01534035 -0.0111085
v 0.0243314 0.01375985 -0.0126954
v 0.024321 0.01374015 -0.0127167
v -0.0253825 0.01693075 -0.0127167
v -0.024057 0.01268155 -0.0127167
v -0.0243314 0.01270125 -0.0116371
v -0.0253877 0.01481845 -0.00846327
v -0.0264492 0.01587215 -0.0021167
v -0.0264492 0.01692585 -0.00317502
v -0.0253877 0.01270125 -0.00127564
v 0.0253877 0.01270125 -0.00127564
v 0.0253877 0.01270125 -0.00317502
v 0.0243314 0.01270125 -0.0105788
v 0.0240673 0.01216945 -0.0111085
v 0.0232751 0.01164255 -0.0127167
v 0.0169269 -0.01009595 -0.0021167
v -0.0234822 0.01143575 -0.0127167
v -0.0169269 -0.01009595 -0.0021167
v -0.0243314 0.01058395 -0.00529055
v -0.0253877 0.01270125 -0.00317502
v -0.0169269 -0.01009595 -0.00127564
v 0.0169269 -0.01009595 -0.00127564
v 0.0251236 0.01216945 -0.00370362
v 0.0218667 0.00883111 -0.0127167
v 0.0165748 -0.01009595 -0.00282225
v 0.0215042 0.00812208 -0.0127167
v -0.0224207 0.00931857 -0.0127167
v -0.0165748 -0.01009595 -0.00282225
v 0.0142654 -0.01009595 -0.00743743
v 0.0214835 0.00810731 -0.0127167
v 0.0141049 -0.01009595 -0.00775773
v 0.0119871 -0.01009595 -0.00987325
v 0.0116039 -0.01009595 -0.0100659
v 0.0108997 -0.01009595 -0.0104187
v 0.00878188 -0.01009595 -0.011477
v 0.00846085 -0.01009595 -0.0116371
v 0.00423042 -0.01009595 -0.0126954
v -0.0151612 -0.01009595 -0.00564332
v -0.0155806 -0.01009595 -0.00480898
v -0.0215767 0.00804823 -0.0127167
v -0.0130434 -0.01009595 -0.00881605
v 0.0199715 0.00715702 -0.0127167
v 0.0190188 0.00689113 -0.0127167
v -0.00316893 -0.01009595 -0.0126954
v -0.0203547 0.00715702 -0.0127167
v -0.00797929 -0.01009595 -0.0116371
v -0.00846085 -0.01009595 -0.0115307
v -0.00905632 -0.01009595 -0.0112978
v -0.0105786 -0.01009595 -0.0105788
v -0.0111534 -0.01009595 -0.010291
v -0.0119871 -0.01009595 -0.00987325
v -0.0190602 0.00689113 -0.0127167
f 1 2 6
f 1 6 3
f 1 3 8
f 1 8 19
f 1 19 38
f 1 38 21
f 1 21 10
f 1 10 4
f 1 4 11
f 1 11 26
f 1 26 47
f 1 47 72
f 1 72 91
f 1 91 107
f 1 107 119
f 1 119 136
f 1 136 135
f 1 135 134
f 1 134 145
f 1 145 144
f 1 144 152
f 1 152 160
f 1 160 172
f 1 172 183
f 1 183 184
f 1 184 173
f 1 173 161
f 1 161 156
f 1 156 149
f 1 149 139
f 1 139 127
f 1 127 126
f 1 126 125
f 1 125 121
f 1 121 120
f 1 120 109
f 1 109 108
f 1 108 92
f 1 92 73
f 1 73 49
f 1 49 48
f 1 48 27
f 1 27 12
f 1 12 5
f 1 5 2
f 2 5 6
f 3 7 8
f 3 6 14
f 3 14 9
f 3 9 7
f 4 10 11
f 5 12 13
f 5 13 6
f 6 13 14
f 7 15 8
f 7 9 16
f 7 16 17
f 7 17 18
f 7 18 15
f 8 15 19
f 9 14 20
f 9 20 17
f 9 17 16
f 10 21 39
f 10 39 22
f 10 22 24
f 10 24 23
f 10 23 11
f 11 23 24
f 11 24 25
f 11 25 26
f 12 27 13
f 13 27 28
f 13 28 29
f 13 29 30
f 13 30 14
f 14 30 20
f 15 18 31
f 15 31 32
f 15 32 33
f 15 33 19
f 17 20 30
f 17 30 34
f 17 34 35
f 17 35 18
f 18 35 36
f 18 36 31
f 19 33 37
f 19 37 60
f 19 60 38
f 21 38 39
f 22 39 40
f 22 40 24
f 24 41 42
f 24 42 43
f 24 43 25
f 24 40 41
f 25 43 26
f 26 43 44
f 26 44 45
f 26 45 46
f 26 46 47
f 27 48 28
f 28 48 49
f 28 49 73
f 28 73 50
f 28 50 51
f 28 51 52
f 28 52 29
f 29 52 53
f 29 53 35
f 29 35 30
f 30 35 34
f 31 36 32
f 32 54 55
f 32 55 33
f 32 36 56
f 32 56 54
f 33 55 37
f 35 53 57
f 35 57 58
f 35 58 36
f 36 58 82
f 36 82 99
f 36 99 98
f 36 98 95
f 36 95 76
f 36 76 97
f 36 97 112
f 36 112 124
f 36 124 138
f 36 138 148
f 36 148 155
f 36 155 165
f 36 165 177
f 36 177 186
f 36 186 188
f 36 188 192
f 36 192 204
f 36 204 205
f 36 205 214
f 36 214 207
f 36 207 202
f 36 202 189
f 36 189 179
f 36 179 167
f 36 167 166
f 36 166 157
f 36 157 150
f 36 150 140
f 36 140 129
f 36 129 116
f 36 116 104
f 36 104 89
f 36 89 88
f 36 88 87
f 36 87 103
f 36 103 85
f 36 85 102
f 36 102 100
f 36 100 81
f 36 81 56
f 37 55 59
f 37 59 61
f 37 61 60
f 38 60 39
f 39 60 61
f 39 61 62
f 39 62 63
f 39 63 40
f 40 63 64
f 40 64 65
f 40 65 66
f 40 66 41
f 41 66 42
f 42 66 43
f 43 66 44
f 44 66 67
f 44 67 68
f 44 68 45
f 45 69 70
f 45 70 46
f 45 68 71
f 45 71 90
f 45 90 69
f 46 70 69
f 46 69 72
f 46 72 47
f 50 73 92
f 50 92 74
f 50 74 51
f 51 74 75
f 51 75 76
f 51 76 77
f 51 77 78
f 51 78 52
f 52 78 57
f 52 57 53
f 54 56 81
f 54 81 79
f 54 79 80
f 54 80 55
f 55 80 61
f 55 61 59
f 57 78 58
f 58 78 82
f 61 80 83
f 61 83 62
f 62 83 84
f 62 84 64
f 62 64 63
f 64 84 85
f 64 85 65
f 65 85 86
f 65 86 66
f 66 86 67
f 67 86 87
f 67 87 88
f 67 88 68
f 68 88 89
f 68 89 71
f 69 90 91
f 69 91 72
f 71 89 90
f 74 92 108
f 74 108 93
f 74 93 75
f 75 93 94
f 75 94 76
f 76 95 78
f 76 78 77
f 76 94 96
f 76 96 97
f 78 98 99
f 78 99 82
f 78 95 98
f 79 81 83
f 79 83 80
f 81 100 83
f 83 100 101
f 83 101 84
f 84 101 85
f 85 101 102
f 85 103 86
f 86 103 87
f 89 104 105
f 89 105 90
f 90 105 106
f 90 106 107
f 90 107 91
f 93 108 109
f 93 109 110
f 93 110 111
f 93 111 94
f 94 111 96
f 96 112 97
f 96 111 113
f 96 113 114
f 96 114 115
f 96 115 112
f 100 102 101
f 104 116 117
f 104 117 105
f 105 117 118
f 105 118 106
f 106 119 107
f 106 118 119
f 109 120 110
f 110 120 121
f 110 121 114
f 110 114 113
f 110 113 111
f 112 115 122
f 112 122 123
f 112 123 124
f 114 121 125
f 114 125 126
f 114 126 127
f 114 127 128
f 114 128 122
f 114 122 115
f 116 129 130
f 116 130 131
f 116 131 132
f 116 132 117
f 117 132 133
f 117 133 118
f 118 133 134
f 118 134 135
f 118 135 136
f 118 136 119
f 122 128 137
f 122 137 123
f 123 137 138
f 123 138 124
f 127 139 128
f 128 139 149
f 128 149 153
f 128 153 146
f 128 146 137
f 129 140 141
f 129 141 131
f 129 131 130
f 131 141 142
f 131 142 132
f 132 142 143
f 132 143 144
f 132 144 133
f 133 144 145
f 133 145 134
f 137 146 147
f 137 147 148
f 137 148 138
f 140 150 141
f 141 150 151
f 141 151 142
f 142 151 159
f 142 159 171
f 142 171 170
f 142 170 160
f 142 160 152
f 142 152 143
f 143 152 144
f 146 153 154
f 146 154 147
f 147 154 155
f 147 155 148
f 149 156 153
f 150 157 151
f 151 157 158
f 151 158 159
f 153 156 161
f 153 161 162
f 153 162 154
f 154 162 163
f 154 163 155
f 155 163 164
f 155 164 165
f 157 166 158
f 158 166 167
f 158 167 168
f 158 168 169
f 158 169 170
f 158 170 171
f 158 171 159
f 160 170 182
f 160 182 172
f 161 173 174
f 161 174 162
f 162 174 175
f 162 175 176
f 162 176 163
f 163 176 164
f 164 176 165
f 165 176 178
f 165 178 177
f 167 179 180
f 167 180 168
f 168 181 182
f 168 182 169
f 168 180 181
f 169 182 170
f 172 182 180
f 172 180 183
f 173 184 178
f 173 178 174
f 174 185 176
f 174 176 175
f 174 178 185
f 176 185 178
f 177 178 186
f 178 184 183
f 178 183 180
f 178 180 190
f 178 190 201
f 178 201 200
f 178 200 203
f 178 203 213
f 178 213 212
f 178 212 211
f 178 211 210
f 178 210 209
f 178 209 208
f 178 208 206
f 178 206 199
f 178 199 198
f 178 198 197
f 178 197 196
f 178 196 195
f 178 195 194
f 178 194 193
f 178 193 191
f 178 191 187
f 178 187 188
f 178 188 186
f 179 189 180
f 180 182 181
f 180 189 190
f 187 191 188
f 188 191 193
f 188 193 194
f 188 194 195
f 188 195 196
f 188 196 197
f 188 197 198
f 188 198 199
f 188 199 192
f 189 200 201
f 189 201 190
f 189 202 203
f 189 203 200
f 192 199 204
f 199 205 204
f 199 206 214
f 199 214 205
f 202 207 206
f 202 206 208
f 202 208 209
f 202 209 210
f 202 210 211
f 202 211 212
f 202 212 213
f 202 213 203
f 206 207 214
