o piece_011
v 0.00952171 -0.04654615 -0.0402018
v 0.0105805 -0.05183535 -0.0433764
v 0.0105805 -0.05289555 -0.0423182
v 0.0105805 -0.05289555 -0.04126
v 0.00952171 -0.04548835 -0.0391446
v 0.00952171 -0.04337505 -0.0402018
v 0.0109334 -0.05148435 -0.0440819
v 0.0111087 -0.05342325 -0.0439056
v 0.00987465 -0.04302165 -0.0409073
v 0.0112851 -0.05430445 -0.042671
v 0.0109334 -0.05359995 -0.0409073
v 0.00978641 -0.04654615 -0.0390128
v 0.0111 -0.04124045 -0.0338358
v 0.00952171 -0.04443285 -0.0391446
v 0.0105805 -0.04020145 -0.035971
v 0.0105805 -0.04020145 -0.0402018
v 0.0109334 -0.04513495 -0.0430237
v 0.011991 -0.04090595 -0.0430237
v 0.0130486 -0.04407945 -0.0440819
v 0.0116381 -0.05183535 -0.0444336
v 0.0128721 -0.05377665 -0.0442583
v 0.0121675 -0.05448115 -0.0439056
v 0.0118145 -0.05271885 -0.0442583
v 0.0109334 -0.03984805 -0.0409073
v 0.0111087 -0.04099545 -0.0417891
v 0.0112851 -0.04267055 -0.042671
v 0.0142826 -0.05686305 -0.0417891
v 0.0111087 -0.05342325 -0.0404663
v 0.0118779 -0.04443285 -0.0338358
v 0.0111 -0.04018265 -0.0338358
v 0.0118978 -0.03689835 -0.0338358
v 0.0111087 -0.03940755 -0.0407309
v 0.011904 -0.03688425 -0.0338358
v 0.0112851 -0.03879025 -0.0402018
v 0.0121675 -0.03993765 -0.0428473
v 0.0141073 -0.04090595 -0.0440819
v 0.014812 -0.04125935 -0.0444336
v 0.0137544 -0.04443285 -0.0444336
v 0.0126956 -0.05289555 -0.0444336
v 0.0137544 -0.05395335 -0.0444336
v 0.0141073 -0.05465785 -0.0440819
v 0.014459 -0.05536225 -0.0437292
v 0.0155178 -0.05536225 -0.0437292
v 0.01728 -0.05571565 -0.0430237
v 0.0169271 -0.05606905 -0.0423182
v 0.0181176 -0.05580285 -0.0423182
v 0.018514 -0.05580285 -0.0417891
v 0.014812 -0.05646485 -0.04126
v 0.0142826 -0.05553895 -0.0404663
v 0.0140191 -0.05606905 -0.0411282
v 0.0140241 -0.04627755 -0.0338358
v 0.0121675 -0.04496055 -0.0338358
v 0.0119152 -0.04452945 -0.0338358
v 0.0121675 -0.03887975 -0.0417891
v 0.0119127 -0.03687015 -0.0338358
v 0.011991 -0.03737905 -0.0380874
v 0.0121675 -0.03729185 -0.0386165
v 0.0123439 -0.03773245 -0.0402018
v 0.013225 -0.03782195 -0.0417891
v 0.013225 -0.03887975 -0.0428473
v 0.0137544 -0.03901175 -0.0431119
v 0.014812 -0.03984805 -0.0437292
v 0.0163977 -0.04072925 -0.0441701
v 0.0158695 -0.04125935 -0.0444336
v 0.0158695 -0.05395335 -0.0444336
v 0.0162212 -0.05465785 -0.0440819
v 0.0171918 -0.05448115 -0.0439056
v 0.0182493 -0.05553895 -0.0428473
v 0.0169271 -0.05536225 -0.0409073
v 0.0153414 -0.05580285 -0.0407309
v 0.0208938 -0.05342325 -0.0428473
v 0.0208056 -0.05359995 -0.0423182
v 0.0187787 -0.05553895 -0.0417891
v 0.0208938 -0.05302745 -0.04126
v 0.0211585 -0.05196965 -0.0404663
v 0.0172726 -0.04584175 -0.0338358
v 0.0165679 -0.04619745 -0.0338358
v 0.0158882 -0.04653675 -0.0338358
v 0.014812 -0.05571565 -0.0405545
v 0.014812 -0.04654145 -0.0338358
v 0.0123439 -0.03667455 -0.0370292
v 0.0141136 -0.03419375 -0.0338358
v 0.0134015 -0.03561675 -0.0370292
v 0.0126956 -0.03662985 -0.0380874
v 0.0137544 -0.03662985 -0.0402018
v 0.013225 -0.03729185 -0.0407309
v 0.014812 -0.03662985 -0.04126
v 0.0142826 -0.03729185 -0.0417891
v 0.014812 -0.03773245 -0.042671
v 0.014812 -0.03843685 -0.0430237
v 0.0169271 -0.03843685 -0.0430237
v 0.0174552 -0.03861355 -0.0431119
v 0.018514 -0.03967135 -0.0431119
v 0.0195716 -0.04072925 -0.0431119
v 0.018514 -0.04496055 -0.0441701
v 0.0179846 -0.04548835 -0.0444336
v 0.0179846 -0.05289555 -0.0444336
v 0.0204539 -0.05254215 -0.0440819
v 0.0193069 -0.05342325 -0.0439056
v 0.0204539 -0.05359995 -0.0430237
v 0.0211585 -0.05289555 -0.0423182
v 0.0208938 -0.05236545 -0.0439056
v 0.021555 -0.05183535 -0.0433764
v 0.0219526 -0.05130765 -0.0428473
v 0.0206291 -0.05368715 -0.0417891
v 0.0215115 -0.05218875 -0.04126
v 0.0216879 -0.05157145 -0.0407309
v 0.0218644 -0.05113095 -0.0405545
v 0.0204539 -0.04267055 -0.0338358
v 0.0183376 -0.04478625 -0.0338358
v 0.0158695 -0.04653915 -0.0338358
v 0.0148058 -0.03345625 -0.0338358
v 0.014812 -0.03345625 -0.0338555
v 0.014812 -0.03451415 -0.0370292
v 0.0158695 -0.03667455 -0.0416127
v 0.0158695 -0.03451415 -0.0380874
v 0.0169271 -0.03773245 -0.042671
v 0.018514 -0.03861355 -0.0425828
v 0.0190422 -0.03914365 -0.0427145
v 0.0195716 -0.03861355 -0.0420537
v 0.0198363 -0.03808585 -0.0413928
v 0.0216879 -0.04707625 -0.0431119
v 0.0195716 -0.04707625 -0.0441701
v 0.0190422 -0.04760405 -0.0444336
v 0.020101 -0.05183535 -0.0444336
v 0.0208056 -0.05183535 -0.0440819
v 0.0218644 -0.05148435 -0.0423182
v 0.0218644 -0.05148435 -0.04126
v 0.0215115 -0.05077755 -0.0437292
v 0.0222173 -0.05077755 -0.0423182
v 0.0222173 -0.05077755 -0.04126
v 0.0211585 -0.04125935 -0.0338358
v 0.0208131 -0.04195195 -0.0338358
v 0.0148319 -0.03344215 -0.0338358
v 0.0153414 -0.03411835 -0.0365001
v 0.0163977 -0.03411835 -0.0375583
v 0.0169271 -0.03455895 -0.0384401
v 0.0179846 -0.03455895 -0.0384401
v 0.0190422 -0.03773245 -0.0416127
v 0.0190422 -0.03561675 -0.0394973
v 0.0198363 -0.03597015 -0.0392763
v 0.0208056 -0.03843685 -0.0394973
v 0.0218644 -0.04689955 -0.042671
v 0.0218644 -0.04760405 -0.0430237
v 0.0206291 -0.05024975 -0.0441701
v 0.020101 -0.05077755 -0.0444336
v 0.0222173 -0.04760405 -0.0423182
v 0.0222173 -0.04760405 -0.04126
v 0.0211585 -0.03702795 -0.0338358
v 0.0169271 -0.03279665 -0.0338358
v 0.0169271 -0.03279665 -0.0338555
v 0.0163977 -0.03306045 -0.0343847
v 0.0169271 -0.03385445 -0.0370292
v 0.0169271 -0.03420555 -0.0377347
v 0.0179846 -0.03420555 -0.0377347
v 0.0190422 -0.03411835 -0.037162
v 0.0195716 -0.03438225 -0.0372937
v 0.0195716 -0.03544005 -0.0388811
v 0.0197481 -0.03526335 -0.0384401
v 0.0208056 -0.03737905 -0.0373819
v 0.0211585 -0.03914365 -0.0391446
v 0.0211585 -0.03808585 -0.0370292
v 0.0211585 -0.03702795 -0.0338555
v 0.0211536 -0.03700445 -0.0338358
v 0.0169457 -0.03279665 -0.0338358
v 0.0179846 -0.03302515 -0.0338358
v 0.0179846 -0.03306045 -0.0339873
v 0.0179846 -0.03385445 -0.0370292
v 0.0190422 -0.03385445 -0.035971
v 0.0197481 -0.03420555 -0.0363237
v 0.020101 -0.03491225 -0.035971
v 0.0208317 -0.03621985 -0.0338358
v 0.0181126 -0.03307695 -0.0338358
v 0.0197481 -0.03420555 -0.0338358
v 0.018514 -0.03332435 -0.0341201
v 0.0188918 -0.03351285 -0.0338358
v 0.0190422 -0.03361415 -0.0338358
v 0.0192075 -0.03373195 -0.0338358
f 1 2 3
f 1 3 4
f 1 4 5
f 1 5 14
f 1 14 6
f 1 6 2
f 2 7 8
f 2 8 3
f 2 6 9
f 2 9 7
f 3 8 10
f 3 10 4
f 4 10 11
f 4 11 12
f 4 12 5
f 5 12 13
f 5 13 30
f 5 30 14
f 6 14 15
f 6 15 16
f 6 16 24
f 6 24 9
f 7 17 18
f 7 18 19
f 7 19 20
f 7 20 8
f 7 9 17
f 8 21 22
f 8 22 10
f 8 20 23
f 8 23 21
f 9 24 25
f 9 25 18
f 9 18 26
f 9 26 17
f 10 22 27
f 10 27 11
f 11 28 12
f 11 27 28
f 12 28 29
f 12 29 13
f 13 29 53
f 13 53 52
f 13 52 51
f 13 51 80
f 13 80 111
f 13 111 78
f 13 78 77
f 13 77 76
f 13 76 110
f 13 110 109
f 13 109 133
f 13 133 132
f 13 132 149
f 13 149 164
f 13 164 172
f 13 172 174
f 13 174 178
f 13 178 177
f 13 177 176
f 13 176 173
f 13 173 166
f 13 166 165
f 13 165 150
f 13 150 134
f 13 134 112
f 13 112 82
f 13 82 55
f 13 55 33
f 13 33 31
f 13 31 30
f 14 30 15
f 15 30 31
f 15 31 16
f 16 32 24
f 16 31 33
f 16 33 34
f 16 34 32
f 17 26 18
f 18 25 35
f 18 35 36
f 18 36 19
f 19 36 37
f 19 37 38
f 19 38 20
f 20 39 23
f 20 38 37
f 20 37 64
f 20 64 96
f 20 96 124
f 20 124 146
f 20 146 125
f 20 125 97
f 20 97 65
f 20 65 40
f 20 40 39
f 21 23 39
f 21 39 40
f 21 40 22
f 22 41 42
f 22 42 27
f 22 40 41
f 24 32 35
f 24 35 25
f 27 42 43
f 27 43 44
f 27 44 45
f 27 45 46
f 27 46 47
f 27 47 48
f 27 48 49
f 27 49 50
f 27 50 28
f 28 50 49
f 28 49 51
f 28 51 52
f 28 52 53
f 28 53 29
f 32 34 54
f 32 54 35
f 33 55 34
f 34 55 56
f 34 56 57
f 34 57 58
f 34 58 59
f 34 59 54
f 35 54 59
f 35 59 60
f 35 60 36
f 36 60 61
f 36 61 37
f 37 61 62
f 37 62 63
f 37 63 64
f 40 65 66
f 40 66 41
f 41 66 43
f 41 43 42
f 43 66 44
f 44 66 67
f 44 67 68
f 44 68 46
f 44 46 45
f 46 68 47
f 47 69 70
f 47 70 48
f 47 68 71
f 47 71 72
f 47 72 73
f 47 73 74
f 47 74 75
f 47 75 76
f 47 76 77
f 47 77 78
f 47 78 69
f 48 70 79
f 48 79 49
f 49 79 80
f 49 80 51
f 55 81 56
f 55 82 81
f 56 81 57
f 57 81 83
f 57 83 84
f 57 84 58
f 58 84 83
f 58 83 114
f 58 114 85
f 58 85 86
f 58 86 59
f 59 86 85
f 59 85 87
f 59 87 88
f 59 88 89
f 59 89 60
f 60 89 61
f 61 89 90
f 61 90 62
f 62 90 63
f 63 90 91
f 63 91 92
f 63 92 93
f 63 93 94
f 63 94 95
f 63 95 64
f 64 95 96
f 65 97 98
f 65 98 66
f 66 98 67
f 67 99 68
f 67 98 99
f 68 99 98
f 68 98 100
f 68 100 71
f 69 78 70
f 70 78 79
f 71 101 72
f 71 100 98
f 71 98 102
f 71 102 103
f 71 103 104
f 71 104 101
f 72 105 73
f 72 101 128
f 72 128 106
f 72 106 105
f 73 105 74
f 74 105 106
f 74 106 107
f 74 107 75
f 75 107 108
f 75 108 109
f 75 109 110
f 75 110 76
f 78 111 79
f 79 111 80
f 81 82 112
f 81 112 83
f 83 112 113
f 83 113 114
f 85 114 116
f 85 116 87
f 87 115 89
f 87 89 88
f 87 116 137
f 87 137 115
f 89 117 91
f 89 91 90
f 89 115 117
f 91 117 92
f 92 117 118
f 92 118 119
f 92 119 93
f 93 119 94
f 94 119 120
f 94 120 121
f 94 121 122
f 94 122 123
f 94 123 95
f 95 123 124
f 95 124 96
f 97 125 98
f 98 125 126
f 98 126 102
f 101 104 127
f 101 127 128
f 102 126 129
f 102 129 103
f 103 129 104
f 104 129 144
f 104 144 147
f 104 147 130
f 104 130 131
f 104 131 128
f 104 128 127
f 106 128 108
f 106 108 107
f 108 128 131
f 108 131 132
f 108 132 133
f 108 133 109
f 112 134 113
f 113 134 135
f 113 135 114
f 114 135 136
f 114 136 116
f 115 137 138
f 115 138 117
f 116 136 137
f 117 139 120
f 117 120 118
f 117 138 140
f 117 140 139
f 118 120 119
f 120 139 121
f 121 139 140
f 121 140 141
f 121 141 142
f 121 142 143
f 121 143 122
f 122 143 144
f 122 144 129
f 122 129 145
f 122 145 123
f 123 145 146
f 123 146 124
f 125 146 145
f 125 145 126
f 126 145 129
f 130 147 148
f 130 148 131
f 131 148 149
f 131 149 132
f 134 150 151
f 134 151 152
f 134 152 135
f 135 152 136
f 136 153 154
f 136 154 137
f 136 152 151
f 136 151 153
f 137 154 155
f 137 155 138
f 138 155 156
f 138 156 157
f 138 157 140
f 140 157 158
f 140 158 141
f 141 158 159
f 141 159 142
f 142 159 160
f 142 160 162
f 142 162 161
f 142 161 147
f 142 147 143
f 143 147 144
f 147 161 162
f 147 162 163
f 147 163 149
f 147 149 148
f 149 163 164
f 150 165 151
f 151 165 166
f 151 166 167
f 151 167 156
f 151 156 168
f 151 168 153
f 153 168 155
f 153 155 154
f 155 168 156
f 156 167 166
f 156 166 169
f 156 169 170
f 156 170 157
f 157 170 159
f 157 159 158
f 159 170 160
f 160 170 171
f 160 171 162
f 162 171 164
f 162 164 163
f 164 171 172
f 166 173 170
f 166 170 169
f 170 174 172
f 170 172 171
f 170 173 175
f 170 175 176
f 170 176 177
f 170 177 178
f 170 178 174
f 173 176 175
