o piece_000
v 0.00101582 0.04122165 0.0164194
v -0.0010995 0.04122165 0.0164194
v 0.00148919 0.04122165 0.0163002
v 0.00105786 0.09521565 0.011637
v -0.00168233 0.04122165 0.0159531
v -0.00105745 0.09521565 0.011637
v -0.00246814 0.09521565 0.0109331
v 0.00191254 0.04122165 0.0156662
v 0.00246856 0.09556715 0.0109331
v 0.00141018 0.09662725 0.0109331
v 0.000704829 0.09592415 0.011285
v -0.00172945 0.04122165 0.0159107
v -0.00141049 0.09592415 0.011285
v -0.00185124 0.09574845 0.0111096
v -0.00198317 0.09627575 0.0108444
v -0.00290889 0.09680305 0.0100507
v -0.00352653 0.09204075 0.00987525
v 0.00207348 0.04122165 0.0150205
v 0.0031739 0.09521565 0.00952231
v 0.00264471 0.09680305 0.0100507
v 0.00105786 0.09733035 0.00952231
v -0.00070514 0.09662725 0.0109331
v -0.00211583 0.04232565 0.0148115
v -0.00211583 0.04122165 0.0148115
v -0.00396728 0.09257355 0.00899289
v -0.00423187 0.08781135 0.00846447
v -0.00246814 0.09697885 0.0102272
v -0.00282118 0.09697885 0.00952231
v -0.00317349 0.09627575 0.00952231
v 0.00211552 0.04122165 0.0148115
v 0.00211552 0.04232565 0.0148115
v 0.0031739 0.09627575 0.00846447
v 0.0031739 0.04122165 0.00952231
v 0.00282087 0.09697885 0.00811153
v 0.00211552 0.09733035 0.00846447
v -0.00211583 0.09733035 0.00952231
v -0.00317349 0.04122165 0.00952231
v -0.00317349 0.09627575 0.00846447
v -0.00317349 0.09521565 0.00740663
v -0.00282118 0.09556715 0.00670075
v -0.00387884 0.08816285 0.00775859
v -0.00352653 0.08745985 0.00705369
v -0.00317349 0.04122165 0.00846447
v -0.00282118 0.09697885 0.00846447
v 0.00246856 0.09627575 0.00705369
v 0.00264471 0.09680305 0.00767085
v 0.0031739 0.09310085 0.00740663
v 0.0031739 0.04122165 0.00846447
v 0.00211552 0.09706665 0.00727354
v 0.00105786 0.09733035 0.00740663
v -0.00211583 0.09733035 0.00846447
v -0.00290889 0.09640755 0.00740663
v -0.0026443 0.09653935 0.00687722
v -0.00211583 0.09640755 0.00661301
v -0.00211583 0.09521565 0.00634781
v -0.00211583 0.08781135 0.00634781
v -0.00105745 0.04122165 0.00634781
v -0.00215715 0.04122165 0.00689792
v -0.00246814 0.04122165 0.00705369
v -0.00282118 0.04122165 0.00775859
v -0.00315247 0.04122165 0.00842208
v -0.0026443 0.09706665 0.00793506
v 0.00158633 0.09680305 0.00661301
v 0.00282087 0.09310085 0.00670075
v 0.00264471 0.09362825 0.00661301
v 0.00290931 0.09257355 0.00687722
v 0.0031739 0.08781135 0.00740663
v 0.00246856 0.04122165 0.00705369
v 0.00290931 0.08728405 0.00687722
v 0.00105786 0.09697885 0.00670075
v -0.00105745 0.09733035 0.00740663
v -0.00158664 0.09706665 0.00687722
v -0.00105745 0.09697885 0.00670075
v -0.00105745 0.09627575 0.00634781
v 0.00105786 0.04122165 0.00634781
v 0.00105786 0.09627575 0.00634781
v 0.00211552 0.09310085 0.00634781
v 0.00282087 0.08781135 0.00670075
v 0.00211552 0.08781135 0.00634781
f 1 2 5
f 1 5 12
f 1 12 24
f 1 24 37
f 1 37 43
f 1 43 61
f 1 61 60
f 1 60 59
f 1 59 58
f 1 58 57
f 1 57 75
f 1 75 68
f 1 68 48
f 1 48 33
f 1 33 30
f 1 30 18
f 1 18 8
f 1 8 3
f 1 3 4
f 1 4 6
f 1 6 2
f 2 6 7
f 2 7 5
f 3 8 9
f 3 9 4
f 4 9 10
f 4 10 11
f 4 11 13
f 4 13 6
f 5 7 12
f 6 13 14
f 6 14 7
f 7 14 15
f 7 15 16
f 7 16 17
f 7 17 12
f 8 18 19
f 8 19 9
f 9 19 20
f 9 20 10
f 10 20 21
f 10 21 36
f 10 36 22
f 10 22 13
f 10 13 11
f 12 23 24
f 12 17 25
f 12 25 26
f 12 26 23
f 13 22 27
f 13 27 15
f 13 15 14
f 15 27 16
f 16 27 28
f 16 28 29
f 16 29 25
f 16 25 17
f 18 30 31
f 18 31 19
f 19 32 20
f 19 31 30
f 19 30 33
f 19 33 48
f 19 48 67
f 19 67 47
f 19 47 32
f 20 32 34
f 20 34 35
f 20 35 21
f 21 35 50
f 21 50 71
f 21 71 51
f 21 51 36
f 22 36 27
f 23 26 24
f 24 26 37
f 25 29 38
f 25 38 39
f 25 39 26
f 26 39 40
f 26 40 41
f 26 41 42
f 26 42 43
f 26 43 37
f 27 36 28
f 28 44 38
f 28 38 29
f 28 36 51
f 28 51 44
f 32 45 46
f 32 46 34
f 32 47 45
f 34 46 49
f 34 49 35
f 35 49 50
f 38 44 52
f 38 52 39
f 39 52 40
f 40 52 53
f 40 53 54
f 40 54 55
f 40 55 56
f 40 56 42
f 40 42 41
f 42 56 57
f 42 57 58
f 42 58 59
f 42 59 60
f 42 60 61
f 42 61 43
f 44 51 62
f 44 62 52
f 45 63 49
f 45 49 46
f 45 47 64
f 45 64 65
f 45 65 63
f 47 66 64
f 47 67 69
f 47 69 66
f 48 68 69
f 48 69 67
f 49 63 70
f 49 70 50
f 50 70 73
f 50 73 72
f 50 72 71
f 51 71 72
f 51 72 62
f 52 62 53
f 53 62 72
f 53 72 54
f 54 72 73
f 54 73 74
f 54 74 55
f 55 74 76
f 55 76 77
f 55 77 79
f 55 79 75
f 55 75 57
f 55 57 56
f 63 65 76
f 63 76 70
f 64 77 65
f 64 66 69
f 64 69 78
f 64 78 79
f 64 79 77
f 65 77 76
f 68 75 79
f 68 79 78
f 68 78 69
f 70 76 74
f 70 74 73
