o piece_007
v 0.0201012 0.02856745 -0.0323254
v 0.0190428 0.02962585 -0.03703
v 0.0169281 0.02856745 -0.0323254
v 0.0212735 0.02798135 -0.0323254
v 0.0216877 0.02803725 -0.033327
v 0.0211585 0.02856745 -0.034913
v 0.0190428 0.02962585 -0.0380873
v 0.0158697 0.02856745 -0.0359715
v 0.0158314 0.02801865 -0.0323254
v 0.0215117 0.02786115 -0.0323254
v 0.0216577 0.02773275 -0.0323254
v 0.0226167 0.02685045 -0.0323254
v 0.022569 0.02786115 -0.0356183
v 0.0211585 0.02856745 -0.0402019
v 0.0158697 0.02856745 -0.0380873
v 0.0163989 0.02830235 -0.0407317
v 0.0169281 0.02856745 -0.0402019
v 0.0144592 0.02786115 -0.0359715
v 0.0155176 0.02786115 -0.0323254
v 0.0229791 0.02632645 -0.0323254
v 0.022569 0.02786115 -0.0387914
v 0.0232753 0.02645075 -0.0359715
v 0.0229222 0.02715695 -0.0363247
v 0.0218638 0.02821335 -0.0405551
v 0.0216877 0.02803725 -0.0409961
v 0.0211585 0.02786115 -0.0416124
v 0.0153416 0.02830235 -0.0386148
v 0.0144592 0.02786115 -0.0380873
v 0.0169281 0.02786115 -0.0416124
v 0.0158697 0.02750905 -0.0412604
v 0.0155176 0.02786115 -0.0402019
v 0.0140181 0.02698095 -0.0343843
v 0.0144592 0.02680285 -0.0323254
v 0.0231396 0.02593295 -0.0323254
v 0.0229222 0.02715695 -0.0394966
v 0.0232753 0.02539235 -0.0323254
v 0.0232753 0.02645075 -0.0391446
v 0.0227461 0.02698095 -0.0404662
v 0.0219528 0.02750905 -0.041392
v 0.0216877 0.02698095 -0.0420534
v 0.0211585 0.02715695 -0.0419656
v 0.0142832 0.02671585 -0.0396732
v 0.0140181 0.02658325 -0.0391446
v 0.013754 0.02645075 -0.0380873
v 0.0126956 0.02433605 -0.03703
v 0.0169281 0.02715695 -0.0419656
v 0.0163989 0.02724395 -0.041789
v 0.0142832 0.02565745 -0.0407317
v 0.0162229 0.02680285 -0.0419656
v 0.0142832 0.02459905 -0.041789
v 0.013754 0.02539235 -0.0323254
v 0.0142635 0.02641345 -0.0323254
v 0.0126956 0.02433605 -0.0359715
v 0.0129607 0.02486415 -0.0354428
v 0.0230102 0.02645075 -0.0403346
v 0.0232753 0.02221925 -0.0323254
v 0.0232753 0.02433605 -0.0412604
v 0.0227461 0.02592255 -0.0415247
v 0.0211585 0.02645075 -0.0423177
v 0.0227461 0.02486415 -0.0420534
v 0.0216877 0.02169105 -0.0431119
v 0.0130488 0.02362975 -0.0398499
v 0.0126956 0.02327765 -0.0391446
v 0.0169281 0.02645075 -0.0423177
v 0.0151645 0.02151295 -0.043023
v 0.0148124 0.02446655 -0.0420534
v 0.0148124 0.01587315 -0.0444347
v 0.0141071 0.02362975 -0.0419656
v 0.0132248 0.02142595 -0.041789
v 0.0143805 0.01577575 -0.0442829
v 0.0132248 0.01507985 -0.0439048
v 0.0126956 0.02327765 -0.034913
v 0.013754 0.02116085 -0.0323254
v 0.0230102 0.02539235 -0.041392
v 0.0229957 0.02068865 -0.0323254
v 0.0232753 0.01481475 -0.0423177
v 0.0229222 0.02433605 -0.0419656
v 0.0232753 0.01587315 -0.0423177
v 0.0211585 0.02116085 -0.0433762
v 0.0201012 0.02221925 -0.0433762
v 0.022569 0.01375635 -0.0437282
v 0.0216877 0.01428655 -0.0441692
v 0.0211585 0.01375635 -0.0444347
v 0.0129607 0.02129345 -0.0412604
v 0.0126956 0.02010245 -0.0412604
v 0.0179855 0.02221925 -0.0433762
v 0.0157941 0.01685485 -0.0444347
v 0.013754 0.01375635 -0.0444347
v 0.0130488 0.02045665 -0.0419656
v 0.0130488 0.01411055 -0.0440814
v 0.0126956 0.01375635 -0.0402019
v 0.0145763 0.01951635 -0.0323254
v 0.0129607 0.01270005 -0.0400703
v 0.0130488 0.00987905 -0.0419656
v 0.0132248 0.01005515 -0.0415247
v 0.0229677 0.02057475 -0.0323254
v 0.0230102 0.01322815 -0.0428475
v 0.0229222 0.01587315 -0.043023
v 0.0226136 0.01270005 -0.0433762
v 0.0219528 0.01111145 -0.0439048
v 0.0218638 0.01164165 -0.0440814
v 0.0211585 0.01164165 -0.0444347
v 0.0126956 0.01693145 -0.0423177
v 0.013754 0.01270005 -0.0444347
v 0.0130488 0.01305215 -0.0440814
v 0.0126956 0.01375635 -0.0433762
v 0.0126956 0.01058325 -0.0423177
v 0.0152836 0.01810375 -0.0323254
v 0.0132248 0.01005515 -0.0428475
v 0.013754 0.00952488 -0.0423177
v 0.0151645 0.00882067 -0.0419656
v 0.0153416 0.00899672 -0.0415247
v 0.0169571 0.01696045 -0.0323254
v 0.0155642 0.01768335 -0.0323254
v 0.0219383 0.01857605 -0.0323254
v 0.0216877 0.01137655 -0.0407317
v 0.0219528 0.01150905 -0.0412604
v 0.0222169 0.01164165 -0.0423177
v 0.0215117 0.01023115 -0.0423177
v 0.021027 0.01031815 -0.0433762
v 0.0215117 0.01093535 -0.0440814
v 0.0169281 0.00952488 -0.0433762
v 0.0148124 0.01164165 -0.0444347
v 0.0139301 0.01181765 -0.0442581
v 0.0132248 0.01111145 -0.0439048
v 0.0126956 0.01270005 -0.0433762
v 0.0135779 0.01040725 -0.0435528
v 0.0144592 0.00917278 -0.0426709
v 0.0158697 0.0084665 -0.0423177
v 0.0158697 0.00882067 -0.0416124
v 0.0177504 0.01669535 -0.0323254
v 0.0173993 0.01681135 -0.0323254
v 0.0218659 0.01846005 -0.0323254
v 0.0206293 0.00978999 -0.041789
v 0.0213159 0.01783245 -0.0323254
v 0.020823 0.01743065 -0.0323254
v 0.0201012 0.00952488 -0.0423177
v 0.0208945 0.01005515 -0.0428475
v 0.0204533 0.00987905 -0.043023
v 0.0172802 0.00882067 -0.043023
v 0.0158697 0.00952488 -0.0433762
v 0.0144592 0.01023115 -0.0437282
v 0.0153416 0.00899672 -0.0428475
v 0.0169281 0.0084665 -0.0423177
v 0.0174573 0.00873161 -0.041789
v 0.0162229 0.00882067 -0.043023
v 0.0169281 0.00882067 -0.0416124
v 0.0188067 0.01669535 -0.0323254
v 0.0201012 0.01023115 -0.0409072
v 0.0201157 0.01696045 -0.0323254
v 0.019456 0.01681345 -0.0323254
f 1 2 3
f 1 3 9
f 1 9 19
f 1 19 33
f 1 33 52
f 1 52 51
f 1 51 73
f 1 73 92
f 1 92 108
f 1 108 114
f 1 114 113
f 1 113 132
f 1 132 131
f 1 131 148
f 1 148 151
f 1 151 150
f 1 150 136
f 1 136 135
f 1 135 133
f 1 133 115
f 1 115 96
f 1 96 75
f 1 75 56
f 1 56 36
f 1 36 34
f 1 34 20
f 1 20 12
f 1 12 11
f 1 11 10
f 1 10 4
f 1 4 5
f 1 5 6
f 1 6 2
f 2 6 14
f 2 14 7
f 2 7 15
f 2 15 8
f 2 8 3
f 3 8 9
f 4 10 5
f 5 10 11
f 5 11 12
f 5 12 13
f 5 13 6
f 6 13 21
f 6 21 14
f 7 14 16
f 7 16 17
f 7 17 15
f 8 15 28
f 8 28 18
f 8 18 9
f 9 18 19
f 12 20 13
f 13 20 22
f 13 22 23
f 13 23 35
f 13 35 21
f 14 21 24
f 14 24 25
f 14 25 26
f 14 26 16
f 15 17 16
f 15 16 27
f 15 27 28
f 16 26 29
f 16 29 30
f 16 30 31
f 16 31 28
f 16 28 27
f 18 28 32
f 18 32 19
f 19 32 33
f 20 34 22
f 21 35 24
f 22 34 36
f 22 36 56
f 22 56 76
f 22 76 78
f 22 78 57
f 22 57 37
f 22 37 35
f 22 35 23
f 24 35 38
f 24 38 39
f 24 39 25
f 25 39 26
f 26 39 40
f 26 40 41
f 26 41 46
f 26 46 29
f 28 31 42
f 28 42 43
f 28 43 44
f 28 44 45
f 28 45 32
f 29 46 47
f 29 47 30
f 30 48 42
f 30 42 31
f 30 47 49
f 30 49 50
f 30 50 48
f 32 51 52
f 32 52 33
f 32 45 53
f 32 53 54
f 32 54 51
f 35 37 55
f 35 55 38
f 37 57 55
f 38 55 58
f 38 58 39
f 39 58 40
f 40 59 41
f 40 58 60
f 40 60 61
f 40 61 79
f 40 79 59
f 41 59 64
f 41 64 46
f 42 48 62
f 42 62 43
f 43 62 63
f 43 63 45
f 43 45 44
f 45 63 85
f 45 85 103
f 45 103 106
f 45 106 126
f 45 126 107
f 45 107 91
f 45 91 72
f 45 72 53
f 46 64 49
f 46 49 47
f 48 50 62
f 49 65 66
f 49 66 50
f 49 64 67
f 49 67 65
f 50 68 89
f 50 89 69
f 50 69 62
f 50 66 70
f 50 70 71
f 50 71 90
f 50 90 68
f 51 54 53
f 51 53 72
f 51 72 73
f 55 57 74
f 55 74 58
f 56 75 76
f 57 77 74
f 57 78 98
f 57 98 77
f 58 74 60
f 59 79 80
f 59 80 86
f 59 86 64
f 60 74 77
f 60 77 81
f 60 81 82
f 60 82 61
f 61 82 83
f 61 83 79
f 62 69 84
f 62 84 63
f 63 84 85
f 64 86 87
f 64 87 67
f 65 67 70
f 65 70 66
f 67 87 83
f 67 83 102
f 67 102 123
f 67 123 104
f 67 104 88
f 67 88 70
f 68 90 89
f 69 89 84
f 70 88 90
f 70 90 71
f 72 91 73
f 73 91 93
f 73 93 94
f 73 94 95
f 73 95 92
f 75 96 97
f 75 97 76
f 76 97 78
f 77 98 81
f 78 97 98
f 79 83 80
f 80 83 87
f 80 87 86
f 81 98 97
f 81 97 99
f 81 99 100
f 81 100 101
f 81 101 102
f 81 102 83
f 81 83 82
f 84 89 85
f 85 89 103
f 88 104 105
f 88 105 90
f 89 90 103
f 90 105 126
f 90 126 106
f 90 106 103
f 91 107 93
f 92 95 108
f 93 107 94
f 94 107 109
f 94 109 110
f 94 110 129
f 94 129 111
f 94 111 95
f 95 111 112
f 95 112 113
f 95 113 114
f 95 114 108
f 96 115 116
f 96 116 117
f 96 117 97
f 97 117 118
f 97 118 100
f 97 100 99
f 100 118 119
f 100 119 120
f 100 120 121
f 100 121 102
f 100 102 101
f 102 121 122
f 102 122 141
f 102 141 123
f 104 123 124
f 104 124 125
f 104 125 105
f 105 125 126
f 107 125 109
f 107 126 125
f 109 125 127
f 109 127 128
f 109 128 110
f 110 128 129
f 111 129 112
f 112 129 130
f 112 130 131
f 112 131 132
f 112 132 113
f 115 133 116
f 116 134 119
f 116 119 117
f 116 133 135
f 116 135 136
f 116 136 134
f 117 119 118
f 119 134 137
f 119 137 138
f 119 138 120
f 120 138 139
f 120 139 121
f 121 139 140
f 121 140 122
f 122 140 146
f 122 146 141
f 123 125 124
f 123 141 142
f 123 142 125
f 125 142 127
f 127 142 146
f 127 146 143
f 127 143 128
f 128 143 129
f 129 144 145
f 129 145 130
f 129 143 146
f 129 146 140
f 129 140 144
f 130 145 147
f 130 147 148
f 130 148 131
f 134 149 145
f 134 145 137
f 134 136 150
f 134 150 149
f 137 145 144
f 137 144 140
f 137 140 139
f 137 139 138
f 141 146 142
f 145 149 150
f 145 150 151
f 145 151 148
f 145 148 147
