o piece_004
v -0.0285651 -0.04019665 -0.00127148
v -0.0285651 -0.04019665 0.0010602
v -0.0285651 -0.03407325 -0.00127148
v -0.0275026 -0.04337285 -0.00127148
v -0.0285651 -0.03914385 0.00423294
v -0.0275026 -0.04337285 -0.00105496
v -0.0275026 -0.04125655 0.0063481
v -0.0285651 -0.03385495 -0.00105496
v -0.0285092 -0.03382675 -0.00127148
v -0.0273964 -0.04359115 -0.00127148
v -0.0285651 -0.03597125 0.00740985
v -0.0275026 -0.04019665 0.00952501
v -0.0275026 -0.03914385 0.0105826
v -0.0271503 -0.04407705 -0.000705213
v -0.0264457 -0.04337285 0.00740985
v -0.0271503 -0.04090445 0.00987476
v -0.0285651 -0.03385495 0.00317536
v -0.0264457 -0.02644985 0.0063481
v -0.0264457 -0.02750625 0.00317536
v -0.0261828 -0.02737245 0.00211778
v -0.0275026 -0.03173875 -0.00127148
v -0.0268651 -0.04464745 -0.00127148
v -0.0285651 -0.03491135 0.0063481
v -0.0275026 -0.03702755 0.0116402
v -0.0275026 -0.03279505 0.0116402
v -0.0275026 -0.03067885 0.00952501
v -0.0272398 -0.04019665 0.0107158
v -0.0272398 -0.03808745 0.0117734
v -0.0246841 -0.04795745 0.00176386
v -0.0250364 -0.04724965 0.00247169
v -0.0260934 -0.04513695 0.00352927
v -0.0260934 -0.04407705 0.0077596
v -0.0250364 -0.04513695 0.0119941
v -0.0264457 -0.02750625 0.0105826
v -0.0232749 -0.02125955 0.0201008
v -0.0261828 -0.02591815 0.00687689
v -0.0260934 -0.02574205 0.0063481
v -0.0257411 -0.02609425 0.00317536
v -0.0265184 -0.02976685 -0.00127148
v -0.0268707 -0.03047105 -0.00127148
v -0.0257411 -0.02821045 -0.00105496
v -0.0246841 -0.04795745 -0.00127148
v -0.0264457 -0.03597125 0.0148129
v -0.0264457 -0.03385495 0.0148129
v -0.0232749 -0.02644985 0.0232736
v -0.0243318 -0.02750625 0.0201008
v -0.0232749 -0.02221735 0.0211584
v -0.0261828 -0.04125655 0.012831
v -0.0251259 -0.04442915 0.012831
v -0.0261828 -0.03914385 0.0138886
v -0.0261828 -0.03702755 0.0149462
v -0.0225647 -0.05007365 0.00917109
v -0.0229226 -0.04936595 0.00987476
v -0.0163461 -0.05723225 0.016824
v -0.0248575 -0.04496085 0.0129642
v -0.0158428 -0.05723225 0.0201133
v -0.0156023 -0.05723225 0.0211834
v -0.0230065 -0.02168565 0.0216872
v -0.0222124 -0.02125955 0.0243311
v -0.0233084 -0.02125955 0.0125937
v -0.0257411 -0.02503785 0.0063481
v -0.0246841 -0.02397795 0.00529052
v -0.0238006 -0.02353785 0.00370415
v -0.0258138 -0.02846395 -0.00127148
v -0.0238006 -0.02406955 0.00264657
v -0.0236272 -0.02609425 -0.00105496
v -0.0246114 -0.02722455 -0.00127148
v -0.0256684 -0.02828445 -0.00127148
v -0.0236272 -0.04901375 -0.00127148
v -0.0163461 -0.05723225 0.0136512
v -0.0211554 -0.03808745 0.0264463
v -0.0222124 -0.03491135 0.0253887
v -0.0232749 -0.02962245 0.0232736
v -0.0208031 -0.03279505 0.0282117
v -0.0229226 -0.02644985 0.0239772
v -0.0230065 -0.02591815 0.0238023
v -0.0198357 -0.04125655 0.0276371
v -0.0208926 -0.03914385 0.0265795
v -0.0187787 -0.04548905 0.0265795
v -0.0158652 -0.05723225 0.0199926
v -0.0185103 -0.04601725 0.0267128
v -0.015552 -0.05723225 0.0213166
v -0.0147803 -0.05723225 0.0232861
v -0.0174534 -0.05024975 0.0245976
v -0.0208031 -0.02125955 0.0271541
v -0.0231407 -0.02125955 0.0116402
v -0.0231015 -0.02125955 0.0114528
v -0.0221229 -0.02125955 0.00816764
v -0.021642 -0.02125955 0.00701846
v -0.0202607 -0.02125955 0.00423294
v -0.0222124 -0.02287585 0.00317536
v -0.0156862 -0.02125955 -0.00127148
v -0.0222124 -0.02499205 -0.00105496
v -0.0224305 -0.02526675 -0.00127148
v -0.0235545 -0.02616815 -0.00127148
v -0.0201936 -0.05099625 -0.00127148
v -0.01322 -0.05723225 0.00581931
v -0.0139638 -0.05723225 0.0071975
v -0.0150207 -0.05723225 0.00931266
v -0.015552 -0.05723225 0.0104785
v -0.0160777 -0.05723225 0.0124854
v -0.0208031 -0.03808745 0.0271541
v -0.0215077 -0.03491135 0.0268002
v -0.0208031 -0.03385495 0.0282117
v -0.0204508 -0.03279505 0.0289154
v -0.0215077 -0.02750625 0.0268002
v -0.0219495 -0.02697805 0.0259175
v -0.0193939 -0.02125955 0.029973
v -0.0194274 -0.02125955 0.0299063
v -0.0197462 -0.02125955 0.0292693
v -0.0195672 -0.04178475 0.0277704
v -0.0193939 -0.04019665 0.0289154
v -0.0204508 -0.03808745 0.0278578
v -0.0144671 -0.05723225 0.0239231
v -0.0134046 -0.05723225 0.0260383
v -0.0130802 -0.05723225 0.0266795
v -0.0130355 -0.05723225 0.0267503
v -0.01322 -0.04813345 0.0330583
v 0.0157589 -0.02125955 -0.00127148
v -0.0192597 -0.05146105 -0.00127148
v -0.0109776 -0.05723225 0.00277564
v -0.0204508 -0.03385495 0.0289154
v -0.01728 -0.02125955 0.0331457
v -0.0130467 -0.04654545 0.0342074
v -0.0186893 -0.03702755 0.0303269
v -0.0193939 -0.03491135 0.029973
v -0.01728 -0.04125655 0.0310305
v -0.0119898 -0.05723225 0.0278578
v -0.0121631 -0.04813345 0.0341158
v 0.0201992 -0.02125955 0.00418298
v 0.0238006 -0.02380195 0.00291305
v 0.0238006 -0.02486175 0.00079372
v 0.0227436 -0.02486175 -0.000263861
v 0.0217482 -0.02489345 -0.00127148
v -0.00591099 -0.05723225 -0.00127148
v -0.00751037 -0.05723225 -0.000476209
v -0.00775643 -0.05723225 -0.000351298
v -0.00992063 -0.05723225 0.0017139
v -0.01728 -0.02221735 0.0331457
v -0.0161839 -0.02125955 0.0342116
v -0.0119898 -0.04654545 0.035265
v -0.0141036 -0.04231295 0.0342074
v -0.0151606 -0.04231295 0.0331457
v -0.0130467 -0.04231295 0.035265
v -0.0109272 -0.05723225 0.0289154
v -0.00983674 -0.05723225 0.0299771
v -0.0116374 -0.04760535 0.0349111
v 0.0212617 -0.02125955 0.00629814
v 0.0239795 -0.02362585 0.00388319
v 0.02592 -0.02697805 0.00185546
v 0.0260263 -0.02878095 -0.00127148
v 0.0256013 -0.02835485 -0.00127148
v 0.0239124 -0.02666465 -0.00127148
v 0.0230568 -0.02580895 -0.00127148
v 0.0229561 -0.02571045 -0.00127148
v 0.0057656 -0.05723225 -0.00127148
v -0.015127 -0.02125955 0.0352276
v -0.0111062 -0.04707355 0.0357064
v -0.0116374 -0.04231295 0.0363642
v -0.0119898 -0.04125655 0.0363226
v -0.00856731 -0.05723225 0.0309431
v 0.021737 -0.02125955 0.00730575
v 0.0230065 -0.02125955 0.0103453
v 0.0230568 -0.02125955 0.0104743
v 0.0232973 -0.02125955 0.0115486
v 0.0246841 -0.02397795 0.00564444
v 0.0257411 -0.02609425 0.00352927
v 0.0260934 -0.02680195 0.00282144
v 0.028347 -0.03341835 -0.00127148
v 0.0189297 -0.05162655 -0.00127148
v 0.00881336 -0.05723225 0.000706282
v -0.013852 -0.02125955 0.0362352
v -0.00846105 -0.05712665 0.0310763
v -0.00899232 -0.04707355 0.036764
v -0.0100492 -0.04496085 0.036764
v -0.0105749 -0.04548905 0.0363642
v -0.0111062 -0.04178475 0.036764
v -0.0137513 -0.02125955 0.0362893
v -0.0083548 -0.05723225 0.0310514
v 0.0233252 -0.02125955 0.0116901
v 0.0246841 -0.02397795 0.00881718
v 0.0257411 -0.02609425 0.00987476
v 0.0264457 -0.02750625 0.00317536
v 0.0285651 -0.03385495 -0.00105496
v 0.0285148 -0.03385495 -0.00127148
v 0.0190751 -0.05155255 -0.00127148
v 0.0129572 -0.05723225 0.00518643
v 0.0119506 -0.05723225 0.0039165
v 0.0109328 -0.05723225 0.00285892
v 0.0098703 -0.05723225 0.00176386
v -0.00792979 -0.04496085 0.0378215
v -0.00644785 -0.05723225 0.0316842
v -0.00528466 -0.04760535 0.0374218
v -0.00475899 -0.04707355 0.0378215
v -0.00687286 -0.04601725 0.0378215
v -0.00899232 -0.04178475 0.0378215
v -0.0117045 -0.02125955 0.037351
v 0.0233252 -0.02125955 0.0147088
v 0.0243318 -0.02327375 0.0137553
v 0.0264457 -0.02750625 0.00952501
v 0.0285651 -0.03385495 0.00423294
v 0.0285651 -0.03407325 -0.00127148
v 0.02337 -0.04908775 -0.00127148
v 0.0236272 -0.04901375 -0.00105496
v 0.0140701 -0.05723225 0.00708924
v -0.00475899 -0.04072835 0.0399367
v -0.00687286 -0.04178475 0.0388791
v -0.00422773 -0.05723225 0.0320964
v -0.00211387 -0.04866165 0.0374218
v -0.0015826 -0.04813345 0.0378215
v -0.0015826 -0.04601725 0.0388791
v -0.00370206 -0.04496085 0.0388791
v -0.00263954 -0.04284465 0.0399367
v -0.00370206 -0.04178475 0.0399367
v -0.00958509 -0.02125955 0.0384086
v 0.0232749 -0.02125955 0.0201008
v 0.0275026 -0.03067885 0.00952501
v 0.0285651 -0.03491135 0.0063481
v 0.0285651 -0.04019665 -0.00127148
v 0.0235265 -0.04899615 -0.00127148
v 0.0246841 -0.04795745 -0.00127148
v 0.0163461 -0.05723225 0.0137553
v 0.0162231 -0.05723225 0.0126978
v 0.0151661 -0.05723225 0.00952501
v 0.0147579 -0.05723225 0.00835917
v 0.0144727 -0.05723225 0.00779707
v -0.00422773 -0.04019665 0.040199
v -0.00951799 -0.02125955 0.0384419
v -2.77556e-18 -0.04019665 0.0412608
v -0.0031708 -0.05723225 0.032213
v -0.00105693 -0.04901375 0.0373802
v -0.00105693 -0.04830955 0.0377341
v -0.00105693 -0.04619325 0.0387917
v -0.00052567 -0.04390095 0.0399367
v 0.0231686 -0.02125955 0.020613
v 0.0232749 -0.02221735 0.0211584
v 0.0275026 -0.03173875 0.0105826
v 0.0285651 -0.03597125 0.00740985
v 0.0285651 -0.04019665 0.0010602
v 0.0275026 -0.04337285 -0.00127148
v 0.026798 -0.04478125 -0.00127148
v 0.0246841 -0.04795745 2.61648e-06
v 0.0163461 -0.05723225 0.0169281
v -0.00422773 -0.03914385 0.040199
v -0.00750478 -0.02125955 0.0390915
v -2.77556e-18 -0.04337285 0.040199
v 0.00105693 -0.04019665 0.0412608
v -2.77556e-18 -0.03808745 0.0412608
v 0.00528466 -0.05723225 0.032213
v 0.00211387 -0.04901375 0.0373802
v 0.00211387 -0.04830955 0.0377341
v -2.77556e-18 -0.04407705 0.0398493
v 0.0230792 -0.02125955 0.0209669
v 0.0230959 -0.02133355 0.0209794
v 0.0232749 -0.02644985 0.0232736
v 0.0243318 -0.02538995 0.0190474
v 0.0222124 -0.02125955 0.0243311
v 0.0275026 -0.03385495 0.0116402
v 0.0253888 -0.02856255 0.0169281
v 0.0275026 -0.03702755 0.0116402
v 0.0275026 -0.03914385 0.0105826
v 0.0285651 -0.03914385 0.00423294
v 0.0275026 -0.04337285 -0.00105496
v 0.0264457 -0.04337285 0.00952501
v 0.0264457 -0.04442915 0.00529052
v 0.026798 -0.04478125 -0.00105496
v 0.0257411 -0.04584115 0.00529052
v 0.0236272 -0.04901375 0.00529052
v 0.0158652 -0.05723225 0.0199926
v 0.0225647 -0.05007365 0.00952501
v -0.00327146 -0.02125955 0.0401491
v 0.00105693 -0.04337285 0.040199
v 0.00105693 -0.03808745 0.0412608
v 0.0031708 -0.04231295 0.040199
v 0.00422773 -0.04019665 0.040199
v 0.00846105 -0.02125955 0.0388833
v -0.00211387 -0.02125955 0.040199
v -0.0031708 -0.02125955 0.0401615
v 0.00740412 -0.05723225 0.0317134
v 0.00634719 -0.05620055 0.0325295
v 0.0031708 -0.04773555 0.0378215
v 0.00211387 -0.04619325 0.0387917
v 0.00105693 -0.04407705 0.0398493
v 0.0230568 -0.02125955 0.0210543
v 0.0225647 -0.02609425 0.0246851
v 0.0229226 -0.02680195 0.0239772
v 0.0204508 -0.03244295 0.0289154
v 0.0208031 -0.03314725 0.0282117
v 0.0232749 -0.03279505 0.0232736
v 0.0264457 -0.03279505 0.0148129
v 0.0221117 -0.02125955 0.0245352
v 0.0264457 -0.03597125 0.0148129
v 0.0260934 -0.03632335 0.0155207
v 0.0272398 -0.04033045 0.0105826
v 0.0275026 -0.04019665 0.00952501
v 0.0250364 -0.03949245 0.0165783
v 0.0260934 -0.04055235 0.0134014
v 0.0261828 -0.04138685 0.0126978
v 0.0260934 -0.04513695 0.00529052
v 0.0261828 -0.04350305 0.0105826
v 0.0253888 -0.04548905 0.00952501
v 0.0246841 -0.04689755 0.00952501
v 0.0158428 -0.05723225 0.0201008
v 0.00211387 -0.04548905 0.0391414
v 0.00211387 -0.04350305 0.0399367
v 0.00105693 -0.02125955 0.040199
v 0.00822618 -0.02125955 0.0389374
v 0.00740412 -0.02125955 0.0391206
v 0.00729787 -0.02125955 0.0391414
v 0.0031708 -0.04561935 0.0388791
v 0.00387542 -0.04266855 0.0398493
v 0.00493235 -0.04055235 0.0398493
v 0.00848342 -0.02125955 0.038875
v 0.00761103 -0.05723225 0.0316343
v 0.0112795 -0.04689755 0.0356148
v 0.00846105 -0.04667925 0.036764
v 0.00528466 -0.04667925 0.0378215
v 0.0210548 -0.02125955 0.0266545
v 0.0199978 -0.02125955 0.0287696
v 0.0196232 -0.02125955 0.0295191
v 0.0193939 -0.02125955 0.029973
v 0.0215077 -0.02821045 0.0268002
v 0.0204508 -0.03350285 0.0289154
v 0.01728 -0.02125955 0.0331457
v 0.0208031 -0.03420705 0.0282117
v 0.0229226 -0.03314725 0.0239772
v 0.0222124 -0.03491135 0.0253887
v 0.0250364 -0.03737975 0.0176359
v 0.0261828 -0.04244675 0.0116402
v 0.0251259 -0.04033045 0.0158705
v 0.0208031 -0.03843955 0.0271541
v 0.0208031 -0.04055235 0.0260924
v 0.0208926 -0.04138685 0.0253887
v 0.02592 -0.04152065 0.0132265
v 0.0250364 -0.04478125 0.0123438
v 0.0251259 -0.04561935 0.0105826
v 0.0156023 -0.05723225 0.0211834
v 0.0156583 -0.05723225 0.0209377
v 0.00634719 -0.04244675 0.0388791
v 0.00705181 -0.04160865 0.0387917
v 0.0106029 -0.02125955 0.0378174
v 0.00810874 -0.05723225 0.0313845
v 0.0119898 -0.04619325 0.035265
v 0.0112795 -0.04160865 0.0366724
v 0.00916567 -0.04160865 0.0377341
v 0.0083548 -0.05723225 0.0312595
v 0.0121631 -0.04786935 0.0343823
v 0.01728 -0.02186525 0.0331457
v 0.0193939 -0.03455925 0.029973
v 0.0186893 -0.03737975 0.0303269
v 0.0193939 -0.03984455 0.0289154
v 0.0197462 -0.04055235 0.0282117
v 0.0147076 -0.02125955 0.0354899
v 0.02186 -0.03526345 0.0260924
v 0.0206298 -0.04152065 0.0259175
v 0.0248575 -0.04522495 0.012169
v 0.0185103 -0.04575315 0.0269751
v 0.0185103 -0.04786935 0.0248599
v 0.0144727 -0.05723225 0.024048
v 0.014702 -0.05723225 0.0234817
v 0.0147859 -0.05723225 0.0232736
v 0.0246841 -0.04584115 0.0116402
v 0.0127167 -0.02125955 0.0367598
v 0.0119898 -0.04090445 0.0363226
v 0.0130467 -0.04619325 0.0342074
v 0.0141036 -0.04302065 0.0342074
v 0.0134381 -0.02125955 0.0363892
v 0.01322 -0.02142155 0.0364975
v 0.00868474 -0.05723225 0.0310014
v 0.01322 -0.04786935 0.0333247
v 0.0098703 -0.05723225 0.029973
v 0.0119898 -0.05723225 0.0278578
v 0.0195672 -0.04152065 0.0280327
v 0.0144559 -0.04372495 0.0334996
v 0.0142826 -0.04469325 0.0333247
v 0.0140924 -0.02125955 0.0359354
v 0.013276 -0.05723225 0.0263422
v 0.0130131 -0.05723225 0.0266753
f 1 2 5
f 1 5 11
f 1 11 23
f 1 23 17
f 1 17 8
f 1 8 3
f 1 3 9
f 1 9 21
f 1 21 40
f 1 40 39
f 1 39 64
f 1 64 68
f 1 68 67
f 1 67 95
f 1 95 94
f 1 94 92
f 1 92 119
f 1 119 134
f 1 134 155
f 1 155 154
f 1 154 153
f 1 153 152
f 1 152 151
f 1 151 169
f 1 169 185
f 1 185 202
f 1 202 219
f 1 219 240
f 1 240 241
f 1 241 221
f 1 221 220
f 1 220 203
f 1 203 186
f 1 186 170
f 1 170 156
f 1 156 135
f 1 135 120
f 1 120 96
f 1 96 69
f 1 69 42
f 1 42 22
f 1 22 10
f 1 10 4
f 1 4 6
f 1 6 2
f 2 6 7
f 2 7 5
f 3 8 9
f 4 10 6
f 5 7 12
f 5 12 13
f 5 13 11
f 6 10 14
f 6 14 32
f 6 32 15
f 6 15 7
f 7 15 16
f 7 16 12
f 8 17 18
f 8 18 19
f 8 19 20
f 8 20 9
f 9 20 21
f 10 22 14
f 11 13 24
f 11 24 25
f 11 25 26
f 11 26 23
f 12 16 27
f 12 27 13
f 13 27 28
f 13 28 24
f 14 22 29
f 14 29 30
f 14 30 31
f 14 31 33
f 14 33 32
f 15 32 33
f 15 33 16
f 16 33 27
f 17 23 26
f 17 26 18
f 18 34 35
f 18 35 36
f 18 36 37
f 18 37 19
f 18 26 34
f 19 37 38
f 19 38 20
f 20 39 40
f 20 40 21
f 20 38 41
f 20 41 39
f 22 42 29
f 24 28 43
f 24 43 44
f 24 44 25
f 25 44 45
f 25 45 46
f 25 46 47
f 25 47 26
f 26 47 35
f 26 35 34
f 27 48 28
f 27 33 49
f 27 49 48
f 28 48 50
f 28 50 51
f 28 51 43
f 29 52 53
f 29 53 30
f 29 42 70
f 29 70 54
f 29 54 52
f 30 53 31
f 31 53 33
f 33 55 49
f 33 53 56
f 33 56 57
f 33 57 55
f 35 47 58
f 35 58 59
f 35 59 85
f 35 85 110
f 35 110 109
f 35 109 108
f 35 108 123
f 35 123 140
f 35 140 157
f 35 157 172
f 35 172 178
f 35 178 197
f 35 197 215
f 35 215 228
f 35 228 245
f 35 245 271
f 35 271 278
f 35 278 277
f 35 277 306
f 35 306 309
f 35 309 308
f 35 308 307
f 35 307 276
f 35 276 313
f 35 313 341
f 35 341 363
f 35 363 367
f 35 367 376
f 35 376 353
f 35 353 324
f 35 324 321
f 35 321 320
f 35 320 319
f 35 319 318
f 35 318 291
f 35 291 257
f 35 257 284
f 35 284 253
f 35 253 235
f 35 235 216
f 35 216 198
f 35 198 180
f 35 180 165
f 35 165 164
f 35 164 163
f 35 163 162
f 35 162 148
f 35 148 130
f 35 130 119
f 35 119 92
f 35 92 90
f 35 90 89
f 35 89 88
f 35 88 87
f 35 87 86
f 35 86 60
f 35 60 61
f 35 61 36
f 36 61 37
f 37 61 38
f 38 61 62
f 38 62 63
f 38 63 41
f 39 41 64
f 41 63 65
f 41 65 66
f 41 66 67
f 41 67 68
f 41 68 64
f 42 69 70
f 43 51 78
f 43 78 71
f 43 71 72
f 43 72 73
f 43 73 45
f 43 45 44
f 45 73 104
f 45 104 74
f 45 74 105
f 45 105 75
f 45 75 76
f 45 76 59
f 45 59 47
f 45 47 46
f 47 59 58
f 48 49 77
f 48 77 78
f 48 78 50
f 49 55 79
f 49 79 77
f 50 78 51
f 52 54 80
f 52 80 53
f 53 80 56
f 54 70 101
f 54 101 100
f 54 100 99
f 54 99 98
f 54 98 97
f 54 97 121
f 54 121 138
f 54 138 137
f 54 137 136
f 54 136 135
f 54 135 156
f 54 156 171
f 54 171 190
f 54 190 189
f 54 189 188
f 54 188 187
f 54 187 205
f 54 205 226
f 54 226 225
f 54 225 224
f 54 224 223
f 54 223 222
f 54 222 243
f 54 243 269
f 54 269 303
f 54 303 338
f 54 338 337
f 54 337 361
f 54 361 360
f 54 360 359
f 54 359 377
f 54 377 378
f 54 378 372
f 54 372 371
f 54 371 369
f 54 369 346
f 54 346 342
f 54 342 314
f 54 314 279
f 54 279 249
f 54 249 230
f 54 230 208
f 54 208 192
f 54 192 179
f 54 179 161
f 54 161 146
f 54 146 145
f 54 145 128
f 54 128 117
f 54 117 116
f 54 116 115
f 54 115 114
f 54 114 83
f 54 83 82
f 54 82 57
f 54 57 56
f 54 56 80
f 55 81 79
f 55 57 82
f 55 82 83
f 55 83 84
f 55 84 81
f 59 76 85
f 60 62 61
f 60 86 62
f 62 86 87
f 62 87 63
f 63 87 88
f 63 88 89
f 63 89 90
f 63 90 91
f 63 91 92
f 63 92 93
f 63 93 65
f 65 93 94
f 65 94 66
f 66 94 95
f 66 95 67
f 69 96 97
f 69 97 98
f 69 98 99
f 69 99 100
f 69 100 101
f 69 101 70
f 71 78 102
f 71 102 72
f 72 102 103
f 72 103 73
f 73 103 104
f 74 104 122
f 74 122 105
f 75 106 107
f 75 107 76
f 75 105 106
f 76 107 108
f 76 108 109
f 76 109 110
f 76 110 85
f 77 79 81
f 77 81 111
f 77 111 112
f 77 112 113
f 77 113 78
f 78 113 102
f 81 84 83
f 81 83 114
f 81 114 115
f 81 115 116
f 81 116 117
f 81 117 118
f 81 118 111
f 90 92 91
f 92 94 93
f 96 120 121
f 96 121 97
f 102 113 103
f 103 113 122
f 103 122 104
f 105 108 106
f 105 122 139
f 105 139 123
f 105 123 108
f 106 108 107
f 111 118 124
f 111 124 112
f 112 125 126
f 112 126 122
f 112 122 113
f 112 124 127
f 112 127 125
f 117 128 118
f 118 128 129
f 118 129 141
f 118 141 124
f 119 130 131
f 119 131 132
f 119 132 133
f 119 133 134
f 120 135 136
f 120 136 137
f 120 137 138
f 120 138 121
f 122 126 139
f 123 139 140
f 124 141 144
f 124 144 142
f 124 142 143
f 124 143 127
f 125 127 143
f 125 143 126
f 126 143 142
f 126 142 144
f 126 144 139
f 128 145 129
f 129 145 146
f 129 146 147
f 129 147 141
f 130 148 131
f 131 149 150
f 131 150 132
f 131 148 149
f 132 150 151
f 132 151 152
f 132 152 153
f 132 153 154
f 132 154 155
f 132 155 133
f 133 155 134
f 139 144 157
f 139 157 140
f 141 147 158
f 141 158 159
f 141 159 160
f 141 160 144
f 144 160 157
f 146 158 147
f 146 161 158
f 148 162 149
f 149 162 163
f 149 163 164
f 149 164 165
f 149 165 166
f 149 166 167
f 149 167 168
f 149 168 150
f 150 168 151
f 151 168 169
f 156 170 171
f 157 160 172
f 158 161 173
f 158 173 174
f 158 174 175
f 158 175 176
f 158 176 159
f 159 176 175
f 159 175 177
f 159 177 160
f 160 177 178
f 160 178 172
f 161 179 173
f 165 180 166
f 166 181 182
f 166 182 167
f 166 180 198
f 166 198 181
f 167 182 200
f 167 200 183
f 167 183 168
f 168 183 184
f 168 184 169
f 169 184 185
f 170 186 187
f 170 187 188
f 170 188 189
f 170 189 190
f 170 190 171
f 173 179 174
f 174 191 175
f 174 179 192
f 174 192 193
f 174 193 194
f 174 194 195
f 174 195 191
f 175 191 207
f 175 207 196
f 175 196 177
f 177 197 178
f 177 196 197
f 181 198 199
f 181 199 182
f 182 199 200
f 183 200 201
f 183 201 184
f 184 201 218
f 184 218 238
f 184 238 262
f 184 262 239
f 184 239 219
f 184 219 202
f 184 202 185
f 186 203 204
f 186 204 187
f 187 204 205
f 191 195 214
f 191 214 206
f 191 206 207
f 192 208 209
f 192 209 193
f 193 209 210
f 193 210 194
f 194 210 211
f 194 211 212
f 194 212 195
f 195 212 213
f 195 213 214
f 196 207 215
f 196 215 197
f 198 216 199
f 199 216 200
f 200 217 201
f 200 216 217
f 201 217 218
f 203 220 204
f 204 220 221
f 204 221 222
f 204 222 223
f 204 223 224
f 204 224 225
f 204 225 226
f 204 226 205
f 206 227 228
f 206 228 207
f 206 214 229
f 206 229 227
f 207 228 215
f 208 230 231
f 208 231 210
f 208 210 209
f 210 231 232
f 210 232 233
f 210 233 211
f 211 233 252
f 211 252 234
f 211 234 212
f 212 234 213
f 213 234 229
f 213 229 214
f 216 235 236
f 216 236 217
f 217 237 238
f 217 238 218
f 217 236 237
f 219 239 263
f 219 263 240
f 221 241 266
f 221 266 242
f 221 242 243
f 221 243 222
f 227 244 228
f 227 229 248
f 227 248 244
f 228 244 245
f 229 234 246
f 229 246 272
f 229 272 247
f 229 247 273
f 229 273 248
f 230 249 250
f 230 250 231
f 231 250 251
f 231 251 232
f 232 251 282
f 232 282 283
f 232 283 252
f 232 252 233
f 234 252 283
f 234 283 272
f 234 272 246
f 235 253 254
f 235 254 236
f 236 255 256
f 236 256 237
f 236 254 257
f 236 257 255
f 237 258 238
f 237 256 259
f 237 259 258
f 238 260 261
f 238 261 262
f 238 258 260
f 239 262 264
f 239 264 265
f 239 265 263
f 240 263 266
f 240 266 241
f 242 266 267
f 242 267 268
f 242 268 243
f 243 268 270
f 243 270 269
f 244 248 245
f 245 248 271
f 247 272 274
f 247 274 275
f 247 275 276
f 247 276 273
f 248 273 306
f 248 306 277
f 248 277 278
f 248 278 271
f 249 279 280
f 249 280 250
f 250 280 281
f 250 281 251
f 251 281 310
f 251 310 282
f 253 284 254
f 254 284 257
f 255 285 286
f 255 286 287
f 255 287 288
f 255 288 325
f 255 325 289
f 255 289 292
f 255 292 290
f 255 290 259
f 255 259 256
f 255 257 285
f 257 291 285
f 258 259 290
f 258 290 292
f 258 292 260
f 260 292 293
f 260 293 261
f 261 294 295
f 261 295 262
f 261 293 296
f 261 296 297
f 261 297 298
f 261 298 294
f 262 295 264
f 263 265 299
f 263 299 267
f 263 267 266
f 264 299 265
f 264 295 294
f 264 294 300
f 264 300 336
f 264 336 301
f 264 301 299
f 267 302 268
f 267 299 301
f 267 301 302
f 268 302 270
f 269 270 302
f 269 302 303
f 272 283 282
f 272 282 304
f 272 304 310
f 272 310 305
f 272 305 274
f 273 276 307
f 273 307 308
f 273 308 309
f 273 309 306
f 274 305 310
f 274 310 311
f 274 311 312
f 274 312 275
f 275 312 313
f 275 313 276
f 279 314 315
f 279 315 316
f 279 316 317
f 279 317 281
f 279 281 280
f 281 317 310
f 282 310 304
f 285 291 318
f 285 318 319
f 285 319 320
f 285 320 321
f 285 321 322
f 285 322 286
f 286 322 287
f 287 323 325
f 287 325 288
f 287 322 321
f 287 321 324
f 287 324 348
f 287 348 323
f 289 325 326
f 289 326 354
f 289 354 327
f 289 327 292
f 292 327 293
f 293 328 296
f 293 327 328
f 294 298 329
f 294 329 300
f 296 330 298
f 296 298 297
f 296 328 331
f 296 331 332
f 296 332 333
f 296 333 330
f 298 330 333
f 298 333 355
f 298 355 334
f 298 334 335
f 298 335 329
f 300 329 335
f 300 335 336
f 301 336 302
f 302 336 337
f 302 337 338
f 302 338 303
f 310 317 311
f 311 339 340
f 311 340 312
f 311 317 316
f 311 316 315
f 311 315 339
f 312 340 313
f 313 340 341
f 314 342 315
f 315 343 364
f 315 364 344
f 315 344 345
f 315 345 340
f 315 340 339
f 315 342 346
f 315 346 347
f 315 347 343
f 323 348 349
f 323 349 350
f 323 350 351
f 323 351 352
f 323 352 325
f 324 353 348
f 325 352 331
f 325 331 354
f 325 354 326
f 327 354 328
f 328 354 331
f 331 352 332
f 332 352 355
f 332 355 333
f 334 355 335
f 335 356 336
f 335 355 357
f 335 357 358
f 335 358 359
f 335 359 360
f 335 360 361
f 335 361 337
f 335 337 356
f 336 356 362
f 336 362 337
f 337 362 356
f 340 345 363
f 340 363 341
f 343 347 370
f 343 370 365
f 343 365 366
f 343 366 364
f 344 364 367
f 344 367 368
f 344 368 363
f 344 363 345
f 346 369 347
f 347 369 371
f 347 371 372
f 347 372 370
f 348 353 364
f 348 364 366
f 348 366 349
f 349 366 350
f 350 366 351
f 351 366 352
f 352 373 355
f 352 366 374
f 352 374 375
f 352 375 373
f 353 376 364
f 355 373 357
f 357 373 370
f 357 370 377
f 357 377 359
f 357 359 358
f 363 368 367
f 364 376 367
f 365 370 375
f 365 375 366
f 366 375 374
f 370 372 378
f 370 378 377
f 370 373 375
