o piece_012
v -0.014812 -0.02538845 -0.0127167
v -0.014812 -0.02538845 -0.0137543
v -0.01587 -0.02539805 -0.0127167
v -0.0116595 -0.02696525 -0.0127167
v -0.0126959 -0.02671285 -0.0160035
v -0.014812 -0.02565525 -0.0149439
v -0.015341 -0.02565525 -0.0153417
v -0.0158917 -0.02540035 -0.0127167
v -0.0112859 -0.02715345 -0.0144601
v -0.0119919 -0.02680095 -0.0151658
v -0.0112859 -0.02715345 -0.0127167
v -0.014812 -0.02644845 -0.0179868
v -0.0121669 -0.02697725 -0.0161355
v -0.014108 -0.02680095 -0.0183386
v -0.0169281 -0.02644845 -0.0179868
v -0.0165682 -0.02573865 -0.0127167
v -0.0179841 -0.02644845 -0.0158696
v -0.0185132 -0.02671285 -0.0163994
v -0.0186902 -0.02680095 -0.0158696
v -0.0102279 -0.02821105 -0.0155177
v -0.0109339 -0.02785845 -0.0162234
v -0.0102279 -0.02821105 -0.0127167
v -0.01587 -0.03287235 -0.0331411
v -0.0162142 -0.03279615 -0.0331411
v -0.0111089 -0.02803475 -0.0171931
v -0.0121669 -0.02803475 -0.0193083
v -0.013225 -0.02803475 -0.0203679
v -0.013754 -0.02777035 -0.0202339
v -0.0174551 -0.02671285 -0.0185146
v -0.0169281 -0.03279615 -0.0331411
v -0.0208062 -0.02785845 -0.0137543
v -0.0208062 -0.02785845 -0.0127167
v -0.0190422 -0.02710825 -0.0169292
v -0.0193942 -0.02715345 -0.0158696
v -0.0206292 -0.02777035 -0.0142841
v -0.00987583 -0.02891605 -0.0162234
v -0.0100509 -0.02909235 -0.0171931
v -0.00952184 -0.02962105 -0.0158696
v -0.00952184 -0.02962105 -0.0127167
v -0.0151817 -0.03313915 -0.0331411
v -0.0121669 -0.02909235 -0.0214255
v -0.0151562 -0.03315345 -0.0331411
v -0.0179841 -0.02710825 -0.0190444
v -0.0179841 -0.03292475 -0.0331411
v -0.0183283 -0.03296765 -0.0331411
v -0.0215083 -0.02822055 -0.0127167
v -0.0195712 -0.02777035 -0.017457
v -0.0192801 -0.03348685 -0.0331411
v -0.0195102 -0.03372985 -0.0331411
v -0.0088178 -0.03103115 -0.0162234
v -0.00987583 -0.03103115 -0.0204558
v -0.0100509 -0.03120745 -0.0214255
v -0.00846381 -0.03173855 -0.0158696
v -0.00846381 -0.03173855 -0.0127167
v -0.013402 -0.03455875 -0.0331411
v -0.0146527 -0.03354885 -0.0331411
v -0.0185741 -0.03309145 -0.0331411
v -0.024057 -0.03160045 -0.0127167
v -0.0204522 -0.03350115 -0.0296224
v -0.0204522 -0.03455875 -0.0317376
v -0.0202792 -0.03500175 -0.0331411
v -0.0208947 -0.03583775 -0.0327952
v -0.00846381 -0.03279615 -0.0179868
v -0.0088178 -0.03209105 -0.0183386
v -0.00899283 -0.03226735 -0.0193083
v -0.0087293 -0.03279615 -0.0191763
v -0.00978734 -0.03173855 -0.0212935
v -0.0088178 -0.03420625 -0.0215134
v -0.0111089 -0.03649755 -0.0309439
v -0.0119821 -0.03633795 -0.0331411
v -0.0119958 -0.03631415 -0.0331411
v -0.0123911 -0.03580925 -0.0331411
v -0.00740578 -0.03491125 -0.0169292
v -0.00740578 -0.03491125 -0.0127167
v -0.0246922 -0.03246745 -0.0127167
v -0.0208947 -0.03478025 -0.03068
v -0.0261731 -0.03477305 -0.0127167
v -0.0208652 -0.03599495 -0.0331411
v -0.0209793 -0.03622365 -0.0331411
v -0.0251249 -0.03689535 -0.020102
v -0.00767127 -0.03491125 -0.0181187
v -0.00846381 -0.03491125 -0.0211596
v -0.0108454 -0.03702635 -0.030812
v -0.0117146 -0.03702635 -0.0331411
v -0.00740578 -0.03596875 -0.0179868
v -0.00740578 -0.04019905 -0.0127167
v -0.0272311 -0.03689055 -0.0127167
v -0.0211583 -0.03702635 -0.0331411
v -0.0219528 -0.03689535 -0.03068
v -0.0264484 -0.03808395 -0.0169292
v -0.0105799 -0.04054195 -0.0331411
v -0.0108454 -0.03935345 -0.0331411
v -0.0108454 -0.03914145 -0.0329292
v -0.00740578 -0.03702635 -0.0179868
v -0.00741561 -0.04125655 -0.0127167
v -0.00740578 -0.04019905 -0.0137543
v -0.0274966 -0.03807195 -0.0127167
v -0.0211583 -0.04125655 -0.0331411
v -0.0222163 -0.03808395 -0.03068
v -0.0232743 -0.03914145 -0.0275052
v -0.0264484 -0.03914145 -0.0169292
v -0.0105799 -0.04125655 -0.0331411
v -0.00740578 -0.03808395 -0.0169292
v -0.00741758 -0.04127795 -0.0127167
v -0.00740578 -0.03914145 -0.0158696
v -0.0274966 -0.04018945 -0.0127167
v -0.0209872 -0.04160195 -0.0331411
v -0.0269774 -0.04178535 -0.0132265
v -0.0222163 -0.04019905 -0.03068
v -0.00846381 -0.04125655 -0.020102
v -0.00846381 -0.04231415 -0.0179868
v -0.00846381 -0.04337165 -0.0158696
v -0.0087293 -0.04390285 -0.0163994
v -0.0117244 -0.04375995 -0.0331411
v -0.00847561 -0.04445065 -0.0127167
v -0.0272311 -0.04127795 -0.0127167
v -0.0204542 -0.04266905 -0.0331411
v -0.0206292 -0.04284285 -0.0322674
v -0.0204522 -0.04372655 -0.0310319
v -0.0266549 -0.04252135 -0.0127167
v -0.0087293 -0.04496035 -0.0132265
v -0.0122299 -0.04472695 -0.0331411
v -0.0119624 -0.04423625 -0.0331411
v -0.00881387 -0.04512945 -0.0127167
v -0.0193962 -0.04372655 -0.0331411
v -0.0258093 -0.04379085 -0.0127167
v -0.0183421 -0.04477455 -0.0331411
v -0.0183283 -0.04478655 -0.0331411
v -0.0178249 -0.04518425 -0.0331411
v -0.0215103 -0.04795675 -0.0130486
v -0.0226352 -0.04696595 -0.0127167
v -0.0247512 -0.04485085 -0.0127167
v -0.00916982 -0.04583455 -0.0127167
v -0.00912656 -0.04548915 -0.0137543
v -0.0136399 -0.04587025 -0.0331411
v -0.0102279 -0.04689925 -0.0148119
v -0.0115002 -0.04838795 -0.0127167
v -0.0167983 -0.04591555 -0.0331411
v -0.0162712 -0.04623235 -0.0331411
v -0.0194611 -0.04908105 -0.0127167
v -0.0215103 -0.04795675 -0.0127167
v -0.01057 -0.04758285 -0.0127167
v -0.0140981 -0.04614415 -0.0331411
v -0.011516 -0.04839745 -0.0127167
v -0.0105956 -0.04761145 -0.0127167
v -0.0106113 -0.04762575 -0.0127167
v -0.01587 -0.04638715 -0.0331411
v -0.0179802 -0.04971695 -0.0127167
v -0.0185132 -0.04919065 -0.0142841
v -0.0136163 -0.04944545 -0.0127167
v -0.0136438 -0.04945495 -0.0127167
v -0.0144679 -0.04623705 -0.0331411
v -0.014812 -0.04627995 -0.0331411
v -0.01587 -0.04972175 -0.0137543
v -0.0169281 -0.04972175 -0.0137543
v -0.0169281 -0.04972175 -0.0127167
v -0.0148336 -0.04972175 -0.0127167
f 1 2 3
f 1 3 8
f 1 8 16
f 1 16 32
f 1 32 46
f 1 46 58
f 1 58 75
f 1 75 77
f 1 77 87
f 1 87 97
f 1 97 106
f 1 106 116
f 1 116 120
f 1 120 126
f 1 126 132
f 1 132 131
f 1 131 141
f 1 141 140
f 1 140 148
f 1 148 156
f 1 156 157
f 1 157 151
f 1 151 150
f 1 150 144
f 1 144 137
f 1 137 146
f 1 146 145
f 1 145 142
f 1 142 133
f 1 133 124
f 1 124 115
f 1 115 104
f 1 104 95
f 1 95 86
f 1 86 74
f 1 74 54
f 1 54 39
f 1 39 22
f 1 22 11
f 1 11 4
f 1 4 2
f 2 5 6
f 2 6 7
f 2 7 8
f 2 8 3
f 2 4 9
f 2 9 10
f 2 10 5
f 4 11 9
f 5 12 6
f 5 10 13
f 5 13 14
f 5 14 12
f 6 12 7
f 7 12 15
f 7 15 8
f 8 15 17
f 8 17 18
f 8 18 19
f 8 19 16
f 9 11 22
f 9 22 20
f 9 20 21
f 9 21 10
f 10 21 25
f 10 25 13
f 12 14 23
f 12 23 24
f 12 24 30
f 12 30 15
f 13 25 26
f 13 26 14
f 14 26 27
f 14 27 28
f 14 28 23
f 15 29 18
f 15 18 17
f 15 30 29
f 16 19 31
f 16 31 32
f 18 29 43
f 18 43 33
f 18 33 34
f 18 34 35
f 18 35 31
f 18 31 19
f 20 36 37
f 20 37 25
f 20 25 21
f 20 22 39
f 20 39 38
f 20 38 36
f 23 40 42
f 23 42 56
f 23 56 55
f 23 55 72
f 23 72 71
f 23 71 70
f 23 70 84
f 23 84 92
f 23 92 91
f 23 91 102
f 23 102 114
f 23 114 123
f 23 123 122
f 23 122 135
f 23 135 143
f 23 143 152
f 23 152 153
f 23 153 147
f 23 147 139
f 23 139 138
f 23 138 129
f 23 129 128
f 23 128 127
f 23 127 125
f 23 125 117
f 23 117 107
f 23 107 98
f 23 98 88
f 23 88 79
f 23 79 78
f 23 78 61
f 23 61 49
f 23 49 48
f 23 48 57
f 23 57 45
f 23 45 44
f 23 44 30
f 23 30 24
f 23 28 27
f 23 27 40
f 25 37 52
f 25 52 41
f 25 41 26
f 26 41 42
f 26 42 40
f 26 40 27
f 29 30 44
f 29 44 45
f 29 45 43
f 31 46 32
f 31 35 46
f 33 47 35
f 33 35 34
f 33 43 48
f 33 48 47
f 35 47 49
f 35 49 46
f 36 38 50
f 36 50 51
f 36 51 52
f 36 52 37
f 38 39 54
f 38 54 53
f 38 53 50
f 41 52 55
f 41 55 56
f 41 56 42
f 43 45 57
f 43 57 48
f 46 49 59
f 46 59 58
f 47 48 49
f 49 60 59
f 49 61 62
f 49 62 60
f 50 53 63
f 50 63 64
f 50 64 51
f 51 64 65
f 51 65 52
f 52 65 66
f 52 66 67
f 52 67 68
f 52 68 69
f 52 69 70
f 52 70 71
f 52 71 72
f 52 72 55
f 53 54 74
f 53 74 73
f 53 73 63
f 58 59 75
f 59 60 62
f 59 62 76
f 59 76 77
f 59 77 75
f 61 78 62
f 62 78 79
f 62 79 80
f 62 80 77
f 62 77 76
f 63 73 81
f 63 81 66
f 63 66 64
f 64 66 65
f 66 81 82
f 66 82 68
f 66 68 67
f 68 82 83
f 68 83 69
f 69 83 70
f 70 83 84
f 73 74 86
f 73 86 96
f 73 96 105
f 73 105 103
f 73 103 94
f 73 94 85
f 73 85 81
f 77 80 87
f 79 88 89
f 79 89 80
f 80 89 90
f 80 90 87
f 81 85 82
f 82 85 91
f 82 91 92
f 82 92 93
f 82 93 83
f 83 93 84
f 84 93 92
f 85 94 102
f 85 102 91
f 86 95 96
f 87 90 97
f 88 98 109
f 88 109 99
f 88 99 89
f 89 99 90
f 90 99 100
f 90 100 101
f 90 101 106
f 90 106 97
f 94 103 102
f 95 104 105
f 95 105 96
f 98 107 108
f 98 108 109
f 99 109 100
f 100 109 101
f 101 109 106
f 102 105 110
f 102 110 111
f 102 111 112
f 102 112 113
f 102 113 114
f 102 103 105
f 104 112 111
f 104 111 110
f 104 110 105
f 104 115 112
f 106 109 108
f 106 108 116
f 107 117 108
f 108 117 118
f 108 118 119
f 108 119 120
f 108 120 116
f 112 115 121
f 112 121 113
f 113 121 122
f 113 122 123
f 113 123 114
f 115 124 121
f 117 125 119
f 117 119 118
f 119 126 120
f 119 125 127
f 119 127 128
f 119 128 129
f 119 129 130
f 119 130 131
f 119 131 132
f 119 132 126
f 121 124 133
f 121 133 134
f 121 134 122
f 122 134 136
f 122 136 137
f 122 137 135
f 129 138 130
f 130 138 139
f 130 139 140
f 130 140 141
f 130 141 131
f 133 142 136
f 133 136 134
f 135 137 144
f 135 144 143
f 136 142 145
f 136 145 146
f 136 146 137
f 139 147 148
f 139 148 149
f 139 149 140
f 140 149 148
f 143 144 150
f 143 150 151
f 143 151 152
f 147 153 154
f 147 154 155
f 147 155 148
f 148 155 156
f 151 157 152
f 152 157 154
f 152 154 153
f 154 157 156
f 154 156 155
