o piece_013
v -0.0222173 -0.05077755 -0.0423177
v -0.0215115 -0.05113095 -0.0437283
v -0.021335 -0.05201205 -0.0435525
v -0.0215115 -0.05218875 -0.0426703
v -0.0218644 -0.05148435 -0.041965
v -0.0222173 -0.05077755 -0.0412597
v -0.0222173 -0.04760405 -0.0423177
v -0.0208056 -0.05042645 -0.0440809
v -0.020101 -0.05077755 -0.0444347
v -0.020101 -0.05183535 -0.0444347
v -0.0218644 -0.04725295 -0.043023
v -0.0206291 -0.05236545 -0.0439051
v -0.0202774 -0.05306985 -0.0435525
v -0.018514 -0.05553895 -0.0428472
v -0.0215115 -0.05218875 -0.0416124
v -0.0186905 -0.05571565 -0.041965
v -0.0218644 -0.05148435 -0.0409071
v -0.0222173 -0.04654615 -0.0412597
v -0.0211585 -0.04125935 -0.0331411
v -0.0211585 -0.03808585 -0.038087
v -0.0211585 -0.04020145 -0.0402018
v -0.0219526 -0.04641425 -0.0423177
v -0.0197481 -0.04725295 -0.0440809
v -0.0190422 -0.04760405 -0.0444347
v -0.0169271 -0.05395335 -0.0444347
v -0.018514 -0.05448115 -0.0439051
v -0.0216879 -0.04628225 -0.0428472
v -0.0197481 -0.04090595 -0.043023
v -0.0181611 -0.05518555 -0.0435525
v -0.01728 -0.05536225 -0.0437283
v -0.0179846 -0.05606905 -0.0423177
v -0.0142826 -0.05686305 -0.0417893
v -0.018514 -0.05553895 -0.0415251
v -0.0216879 -0.05130765 -0.0404671
v -0.0211585 -0.03702795 -0.0331411
v -0.0211585 -0.03702795 -0.0338553
v -0.0204552 -0.04267055 -0.0331411
v -0.0209808 -0.03622455 -0.0331411
v -0.020101 -0.03491225 -0.0359711
v -0.0198363 -0.03477805 -0.0370291
v -0.0208938 -0.03795385 -0.0391439
v -0.0208938 -0.03901175 -0.0402018
v -0.0179846 -0.04548835 -0.0444347
v -0.0190422 -0.04125935 -0.0433756
v -0.0137544 -0.05395335 -0.0444347
v -0.0206291 -0.03887975 -0.0407313
v -0.0195716 -0.03993765 -0.0428472
v -0.0190422 -0.04006955 -0.0431114
v -0.0141073 -0.05536225 -0.0437283
v -0.0142826 -0.05659685 -0.0428472
v -0.0141073 -0.05677355 -0.0423177
v -0.0134015 -0.05642015 -0.0423177
v -0.0126956 -0.05540705 -0.0412597
v -0.0121675 -0.05474505 -0.0407313
v -0.0137544 -0.05606905 -0.0412597
v -0.0142826 -0.05580285 -0.0407313
v -0.014812 -0.05571565 -0.0405544
v -0.0153414 -0.05553895 -0.0404671
v -0.0162697 -0.04623285 -0.0331411
v -0.0167966 -0.04591715 -0.0331411
v -0.0178243 -0.04518445 -0.0331411
v -0.0183289 -0.04479095 -0.0331411
v -0.0206291 -0.05236545 -0.0404671
v -0.0193976 -0.04372845 -0.0331411
v -0.0208653 -0.03599365 -0.0331411
v -0.0197481 -0.03420555 -0.0359711
v -0.0195716 -0.03411835 -0.0365007
v -0.0195716 -0.03464605 -0.0375586
v -0.0195716 -0.03517615 -0.0386165
v -0.0198363 -0.03583825 -0.0391439
v -0.0206291 -0.03782195 -0.0396734
v -0.0158695 -0.04125935 -0.0444347
v -0.0126956 -0.05289555 -0.0444347
v -0.0125639 -0.05395335 -0.0441694
v -0.0134015 -0.05465785 -0.0440809
v -0.0198363 -0.03795385 -0.0412597
v -0.0197481 -0.03879025 -0.041965
v -0.0195716 -0.03834965 -0.0417893
v -0.018514 -0.03887975 -0.0428472
v -0.0179846 -0.03901175 -0.0431114
v -0.0140191 -0.05659685 -0.0428472
v -0.0136214 -0.05606905 -0.0431114
v -0.0124322 -0.05448115 -0.0439051
v -0.0113734 -0.05342325 -0.0439051
v -0.0112851 -0.05430445 -0.0423177
v -0.0112851 -0.05430445 -0.0412597
v -0.013225 -0.05527515 -0.0407313
v -0.0116381 -0.05408535 -0.0404671
v -0.0136401 -0.04586995 -0.0331411
v -0.0140987 -0.04614325 -0.0331411
v -0.0144677 -0.04623515 -0.0331411
v -0.014812 -0.04627995 -0.0331411
v -0.0158695 -0.04638835 -0.0331411
v -0.0207223 -0.03575105 -0.0331411
v -0.0195107 -0.03372955 -0.0331411
v -0.0192808 -0.03348695 -0.0331411
v -0.0202787 -0.03499945 -0.0331411
v -0.018514 -0.03411835 -0.0375586
v -0.0190422 -0.03451415 -0.038087
v -0.018514 -0.03306045 -0.0333268
v -0.0190422 -0.03561675 -0.0394965
v -0.0169271 -0.03914365 -0.0433756
v -0.0169271 -0.03843685 -0.043023
v -0.0142826 -0.03861355 -0.0431114
v -0.014812 -0.04125935 -0.0444347
v -0.0115063 -0.05289555 -0.0441694
v -0.0116381 -0.05183535 -0.0444347
v -0.0190422 -0.03773245 -0.0416124
v -0.0169271 -0.03773245 -0.0426703
v -0.0108452 -0.05342325 -0.0428472
v -0.0108452 -0.05236545 -0.0439051
v -0.0105805 -0.05289555 -0.0423177
v -0.0105805 -0.05289555 -0.0412597
v -0.0111087 -0.05368715 -0.0407313
v -0.0109334 -0.05324655 -0.0405544
v -0.0122284 -0.04472735 -0.0331411
v -0.0185749 -0.03309115 -0.0331411
v -0.0179846 -0.03385445 -0.0370291
v -0.0179846 -0.03420555 -0.0377344
v -0.0179846 -0.03455895 -0.0384397
v -0.0174552 -0.03306045 -0.0343848
v -0.0169271 -0.03279665 -0.0338553
v -0.0183289 -0.03296865 -0.0331411
v -0.014812 -0.03843685 -0.043023
v -0.014812 -0.03773245 -0.0426703
v -0.013225 -0.03861355 -0.042583
v -0.0137544 -0.04020145 -0.0437725
v -0.0142826 -0.04072925 -0.0441694
v -0.0137544 -0.04443285 -0.0444347
v -0.0109334 -0.05183535 -0.0440809
v -0.0111087 -0.05130765 -0.0441694
v -0.0158695 -0.03667455 -0.0416124
v -0.00978641 -0.04919195 -0.0417893
v -0.0105805 -0.05183535 -0.0433756
v -0.00978641 -0.04707625 -0.0396734
v -0.0105805 -0.04125935 -0.0331411
v -0.0117238 -0.04376135 -0.0331411
v -0.0119624 -0.04423725 -0.0331411
v -0.0169271 -0.03385445 -0.0370291
v -0.0169271 -0.03420555 -0.0377344
v -0.0169271 -0.03455895 -0.0384397
v -0.0179846 -0.03292385 -0.0331411
v -0.0169271 -0.03279665 -0.0331411
v -0.0162125 -0.03279665 -0.0331411
v -0.0158695 -0.03287205 -0.0331411
v -0.0158695 -0.03306045 -0.0339879
v -0.013225 -0.03755575 -0.0415251
v -0.0121675 -0.03861355 -0.0415251
v -0.0112851 -0.04020145 -0.0416124
v -0.0123439 -0.04020145 -0.0426703
v -0.013225 -0.03967135 -0.0431114
v -0.0112851 -0.04231715 -0.0426703
v -0.0121675 -0.04178705 -0.0431114
v -0.0126956 -0.04337505 -0.0437725
v -0.013225 -0.04390515 -0.0441694
v -0.0109334 -0.04548835 -0.043023
v -0.0102276 -0.04337505 -0.0416124
v -0.0111087 -0.04496055 -0.0431114
v -0.0142826 -0.03649785 -0.0404671
v -0.014812 -0.03623405 -0.0403345
v -0.00952171 -0.04548835 -0.0402018
v -0.00952171 -0.04443285 -0.0391439
v -0.00952171 -0.04337505 -0.0402018
v -0.0105805 -0.04054545 -0.0331411
v -0.0158695 -0.03411835 -0.0371617
v -0.0151823 -0.03314055 -0.0331411
v -0.0151649 -0.03314765 -0.03315
v -0.0153414 -0.03332435 -0.0341206
v -0.0121675 -0.03755575 -0.0394092
v -0.0142826 -0.03544005 -0.0383523
v -0.0109334 -0.03949705 -0.0405544
v -0.0111087 -0.03967135 -0.0409955
v -0.0100511 -0.04284725 -0.0409955
v -0.00987465 -0.04267055 -0.0405544
v -0.0153414 -0.03438225 -0.0372944
v -0.00952171 -0.04337505 -0.0391439
v -0.0105805 -0.04020145 -0.0402018
v -0.0108452 -0.03935565 -0.0331411
v -0.0106563 -0.04020145 -0.0331411
v -0.0151562 -0.03315235 -0.0331411
v -0.0134015 -0.03455895 -0.0335026
v -0.0141073 -0.03420555 -0.0342079
v -0.0142826 -0.03438225 -0.0351785
v -0.011991 -0.03737905 -0.0384397
v -0.0112851 -0.03879025 -0.0398492
v -0.011991 -0.03632115 -0.03315
v -0.0119823 -0.03634005 -0.0331411
v -0.0117151 -0.03702795 -0.0331411
v -0.0146517 -0.03354815 -0.0331411
v -0.0134015 -0.03455895 -0.0331411
v -0.0123912 -0.03580995 -0.0331411
v -0.0119947 -0.03631415 -0.0331411
f 1 2 3
f 1 3 4
f 1 4 5
f 1 5 17
f 1 17 6
f 1 6 18
f 1 18 7
f 1 7 11
f 1 11 2
f 2 8 9
f 2 9 10
f 2 10 3
f 2 11 8
f 3 10 12
f 3 12 26
f 3 26 13
f 3 13 14
f 3 14 16
f 3 16 4
f 4 15 17
f 4 17 5
f 4 16 15
f 6 17 19
f 6 19 35
f 6 35 18
f 7 18 20
f 7 20 21
f 7 21 42
f 7 42 22
f 7 22 11
f 8 11 23
f 8 23 9
f 9 23 24
f 9 24 43
f 9 43 72
f 9 72 105
f 9 105 129
f 9 129 107
f 9 107 73
f 9 73 45
f 9 45 25
f 9 25 10
f 10 25 26
f 10 26 12
f 11 22 27
f 11 27 28
f 11 28 23
f 13 26 14
f 14 26 29
f 14 29 30
f 14 30 31
f 14 31 16
f 15 16 17
f 16 31 32
f 16 32 33
f 16 33 34
f 16 34 17
f 17 34 19
f 18 35 36
f 18 36 20
f 19 37 64
f 19 64 62
f 19 62 61
f 19 61 60
f 19 60 59
f 19 59 93
f 19 93 92
f 19 92 91
f 19 91 90
f 19 90 89
f 19 89 116
f 19 116 138
f 19 138 137
f 19 137 136
f 19 136 164
f 19 164 179
f 19 179 178
f 19 178 188
f 19 188 187
f 19 187 192
f 19 192 191
f 19 191 190
f 19 190 189
f 19 189 180
f 19 180 166
f 19 166 145
f 19 145 144
f 19 144 143
f 19 143 142
f 19 142 123
f 19 123 117
f 19 117 96
f 19 96 95
f 19 95 97
f 19 97 94
f 19 94 65
f 19 65 38
f 19 38 35
f 19 34 37
f 20 36 38
f 20 38 39
f 20 39 40
f 20 40 41
f 20 41 42
f 20 42 21
f 22 42 46
f 22 46 27
f 23 28 24
f 24 28 44
f 24 44 43
f 25 45 49
f 25 49 30
f 25 30 26
f 26 30 29
f 27 46 47
f 27 47 28
f 28 47 48
f 28 48 44
f 30 49 81
f 30 81 50
f 30 50 31
f 31 50 51
f 31 51 32
f 32 51 52
f 32 52 53
f 32 53 54
f 32 54 55
f 32 55 56
f 32 56 57
f 32 57 58
f 32 58 33
f 33 58 59
f 33 59 60
f 33 60 61
f 33 61 62
f 33 62 63
f 33 63 34
f 34 63 64
f 34 64 37
f 35 38 36
f 38 65 66
f 38 66 39
f 39 66 40
f 40 66 67
f 40 67 68
f 40 68 69
f 40 69 70
f 40 70 41
f 41 71 46
f 41 46 42
f 41 70 71
f 43 44 72
f 44 48 72
f 45 73 74
f 45 74 75
f 45 75 49
f 46 71 70
f 46 70 76
f 46 76 77
f 46 77 47
f 47 77 78
f 47 78 79
f 47 79 80
f 47 80 48
f 48 80 72
f 49 75 81
f 50 81 51
f 51 81 52
f 52 81 82
f 52 82 83
f 52 83 84
f 52 84 85
f 52 85 86
f 52 86 53
f 53 86 54
f 54 87 55
f 54 86 88
f 54 88 89
f 54 89 90
f 54 90 87
f 55 87 56
f 56 87 90
f 56 90 57
f 57 90 91
f 57 91 92
f 57 92 93
f 57 93 58
f 58 93 59
f 62 64 63
f 65 94 66
f 66 95 96
f 66 96 67
f 66 94 97
f 66 97 95
f 67 98 99
f 67 99 68
f 67 96 100
f 67 100 98
f 68 99 69
f 69 101 70
f 69 99 101
f 70 101 108
f 70 108 76
f 72 80 102
f 72 102 103
f 72 103 104
f 72 104 105
f 73 106 74
f 73 107 106
f 74 83 75
f 74 106 84
f 74 84 83
f 75 82 81
f 75 83 82
f 76 108 78
f 76 78 77
f 78 108 79
f 79 108 109
f 79 109 80
f 80 109 103
f 80 103 102
f 84 110 85
f 84 106 111
f 84 111 110
f 85 110 112
f 85 112 113
f 85 113 86
f 86 113 114
f 86 114 88
f 88 114 115
f 88 115 116
f 88 116 89
f 96 117 100
f 98 118 119
f 98 119 120
f 98 120 99
f 98 100 121
f 98 121 122
f 98 122 118
f 99 120 101
f 100 117 123
f 100 123 122
f 100 122 121
f 101 120 109
f 101 109 108
f 103 124 104
f 103 109 125
f 103 125 124
f 104 124 125
f 104 125 126
f 104 126 127
f 104 127 128
f 104 128 105
f 105 128 129
f 106 107 130
f 106 130 111
f 107 131 130
f 107 129 155
f 107 155 131
f 109 132 125
f 109 120 132
f 110 111 112
f 111 130 133
f 111 133 134
f 111 134 112
f 112 134 133
f 112 133 113
f 113 115 114
f 113 133 135
f 113 135 136
f 113 136 115
f 115 136 137
f 115 137 138
f 115 138 116
f 118 139 140
f 118 140 119
f 118 122 139
f 119 140 141
f 119 141 120
f 120 141 132
f 122 123 142
f 122 142 143
f 122 143 144
f 122 144 145
f 122 145 146
f 122 146 165
f 122 165 139
f 125 147 126
f 125 132 159
f 125 159 147
f 126 147 148
f 126 148 149
f 126 149 150
f 126 150 151
f 126 151 127
f 127 151 150
f 127 150 152
f 127 152 153
f 127 153 158
f 127 158 154
f 127 154 128
f 128 154 155
f 128 155 129
f 130 131 158
f 130 158 156
f 130 156 157
f 130 157 133
f 131 155 154
f 131 154 158
f 132 141 165
f 132 165 160
f 132 160 159
f 133 161 162
f 133 162 135
f 133 157 163
f 133 163 161
f 135 162 136
f 136 162 176
f 136 176 164
f 139 165 140
f 140 165 141
f 145 166 167
f 145 167 146
f 146 167 168
f 146 168 175
f 146 175 165
f 147 169 148
f 147 159 170
f 147 170 169
f 148 169 171
f 148 171 172
f 148 172 149
f 149 172 157
f 149 157 152
f 149 152 150
f 152 157 158
f 152 158 153
f 156 158 157
f 157 172 173
f 157 173 174
f 157 174 163
f 159 160 165
f 159 165 175
f 159 175 170
f 161 163 176
f 161 176 162
f 163 174 171
f 163 171 177
f 163 177 178
f 163 178 176
f 164 176 179
f 166 180 167
f 167 180 181
f 167 181 182
f 167 182 183
f 167 183 168
f 168 183 170
f 168 170 175
f 169 184 185
f 169 185 171
f 169 170 184
f 170 183 184
f 171 174 172
f 171 185 186
f 171 186 177
f 172 174 173
f 176 178 179
f 177 186 187
f 177 187 188
f 177 188 178
f 180 189 181
f 181 183 182
f 181 189 190
f 181 190 191
f 181 191 192
f 181 192 184
f 181 184 183
f 184 192 186
f 184 186 185
f 186 192 187
