o piece_005
v 0.00528977 -0.05723225 0.0322124
v 0.00740504 -0.05723225 0.0317141
v -0.0031713 -0.05723225 0.0322124
v 0.0100483 -0.07458485 0.029357
v 0.00761305 -0.05723225 0.0316321
v -0.00423054 -0.05723225 0.0320944
v -0.0100483 -0.07458485 0.029357
v -2.77556e-18 -0.07617445 0.0285636
v -2.77556e-18 -0.07757965 0.0278588
v 0.00423054 -0.08181075 0.0246854
v 0.0063458 -0.08287055 0.0236265
v 0.00740504 -0.08216405 0.0239805
v 0.00793306 -0.08225035 0.0238035
v 0.00899229 -0.08172445 0.0238035
v 0.0105795 -0.07511475 0.0285636
v 0.0119876 -0.07370565 0.0278588
v 0.00835867 -0.05723225 0.0312617
v 0.00810906 -0.05748345 0.0313862
v 0.00810906 -0.05723225 0.0313862
v -0.00645141 -0.05723225 0.0316846
v -0.0119876 -0.07405885 0.0278588
v -0.0105795 -0.07511475 0.0285636
v -0.00899229 -0.08198745 0.0235379
v -0.00793306 -0.08198745 0.0240658
v -0.0063458 -0.08287055 0.0236265
v -0.00423054 -0.08181075 0.0246854
v -0.00835867 -0.05723225 0.0310486
v -0.00856668 -0.05723225 0.0309437
v -0.00983712 -0.05723225 0.0299798
v 0.00105603 -0.09556405 0.0141095
v 0.00264329 -0.09547775 0.0132276
v 0.0100483 -0.08172445 0.0227446
v 0.0121636 -0.07485175 0.0269769
v 0.0123428 -0.07440815 0.0271539
v 0.0142821 -0.06956075 0.0238035
v 0.013274 -0.05723225 0.0263442
v 0.0130148 -0.05723225 0.0266753
v 0.0119876 -0.05723225 0.0278588
v 0.0109316 -0.05889255 0.0289177
v 0.00987232 -0.05783675 0.0299733
v 0.00868828 -0.05723225 0.0309994
v -0.0123428 -0.07405885 0.0271539
v -0.0123428 -0.07476145 0.0267999
v -0.0121636 -0.07458485 0.0272424
v -0.0116356 -0.07485175 0.0276391
v -0.0109316 -0.05818605 0.0289177
v -0.0119876 -0.05723225 0.0278588
v -0.0130372 -0.05723225 0.0267507
v -0.013082 -0.05723225 0.0266786
v -0.0145445 -0.06929785 0.0238035
v -0.0100483 -0.08198745 0.022479
v -0.00264329 -0.09574065 0.0129621
v -0.00158405 -0.09574065 0.0134899
v -0.00105603 -0.09521085 0.0141521
v -2.77556e-18 -0.09556405 0.0141095
v -0.0109316 -0.05723225 0.0289177
v -2.77556e-18 -0.09662385 0.0130506
v 0.00105603 -0.09666705 0.0126965
v 0.00158405 -0.09600755 0.0132276
v 0.00264329 -0.09600755 0.0121687
v 0.0109316 -0.08181075 0.0211579
v 0.0105795 -0.08145755 0.0222168
v 0.0111076 -0.08119455 0.0216857
v 0.0126948 -0.07405885 0.0264491
v 0.0112836 -0.08075495 0.0218627
v 0.0134884 -0.07841565 0.0190434
v 0.0146341 -0.06894455 0.0230987
v 0.0144741 -0.05723225 0.0240461
v 0.0133988 -0.05748345 0.026095
v 0.0109316 -0.05723225 0.0289177
v 0.00987232 -0.05723225 0.0299733
v -0.0126948 -0.07405885 0.0264491
v -0.0145445 -0.07723025 0.0170567
v -0.0134884 -0.07828615 0.0191745
v -0.0132228 -0.07881205 0.0193056
v -0.0111076 -0.08093155 0.0214234
v -0.0134084 -0.05723225 0.0260393
v -0.0147845 -0.05723225 0.0232855
v -0.0156037 -0.05723225 0.0211841
v -0.0158693 -0.05723225 0.0199941
v -0.0158693 -0.06770815 0.0169256
v -0.0148101 -0.07617445 0.0169256
v -0.0102243 -0.08216405 0.0215119
v -0.0132228 -0.07987185 0.0171911
v -0.00281929 -0.09591735 0.0119917
v -0.000704023 -0.09697705 0.0119917
v -0.00211527 -0.09600755 0.012831
v -0.000528017 -0.09680045 0.0124343
v -2.77556e-18 -0.09697705 0.0123458
v 0.000528017 -0.09706345 0.0121687
v -2.77556e-18 -0.09733035 0.0116377
v 0.00211527 -0.09627055 0.010582
v 0.00281929 -0.09591735 0.010582
v 0.00281929 -0.09591735 0.0116377
v 0.0133988 -0.08004845 0.0158667
v 0.0132228 -0.08013485 0.0163978
v 0.0134884 -0.07947545 0.0169256
v 0.0145445 -0.07735985 0.0169256
v 0.0148101 -0.07617445 0.0169256
v 0.0158693 -0.06770815 0.0169256
v 0.0158693 -0.05723225 0.0199941
v 0.0156101 -0.05723225 0.0211579
v 0.0156037 -0.05723225 0.0211841
v 0.0147877 -0.05723225 0.0232724
v 0.0147045 -0.05723225 0.0234822
v -0.0148101 -0.07723025 0.0158667
v -0.0144581 -0.07793285 0.0162207
v -0.0142821 -0.07775625 0.0171911
v -0.0133988 -0.07898865 0.0183353
v -0.0163461 -0.05723225 0.0168207
v -0.0158693 -0.06770815 0.0137554
v -0.0141061 -0.07863935 0.0155159
v -0.00281929 -0.09591735 0.0109328
v -0.00211527 -0.09627055 0.0116377
v -2.77556e-18 -0.09627055 0.00846424
v 0.00118724 -0.09600755 0.00846424
v 0.00224647 -0.09600755 0.00952314
v -0.00211527 -0.09627055 0.010582
v -0.00264329 -0.09574065 0.00899533
v -0.00158405 -0.09574065 0.00793643
v 0.00290889 -0.09574065 0.0100509
v 0.0134884 -0.07987185 0.0153422
v 0.0141061 -0.07863935 0.0158667
v 0.0148101 -0.07723025 0.0158667
v 0.0158693 -0.06770815 0.0137554
v 0.0163461 -0.05723225 0.0169256
v -0.0148101 -0.07723025 0.0137554
v -0.0163461 -0.05723225 0.0136505
v -0.0158693 -0.06665235 0.0126965
v -0.0148101 -0.07617445 0.0116377
v -0.0141061 -0.07863935 0.0134014
v -0.00352651 -0.09450825 0.00916908
v 0.000352011 -0.09591735 0.0077594
v -0.000352011 -0.09556405 0.00705456
v 0.00132164 -0.09574065 0.00793643
v 0.00237768 -0.09574065 0.00899533
v -0.00264329 -0.09468485 0.00687753
v 0.00237768 -0.09468485 0.00687753
v 0.00290889 -0.09468485 0.00793643
v 0.00356812 -0.09415495 0.00846424
v 0.0141477 -0.07828615 0.0126965
v 0.0141061 -0.07863935 0.0137554
v 0.0148101 -0.07723025 0.0137554
v 0.0158693 -0.06665235 0.0126965
v 0.0163461 -0.05723225 0.0137554
v -0.0142821 -0.07775625 0.0121687
v -0.0160805 -0.05723225 0.0124867
v -0.0148101 -0.06770815 0.00740862
v -0.0142821 -0.07564455 0.0100509
v -0.0141061 -0.07652375 0.010228
v -0.0132228 -0.07775625 0.00899533
v -0.0139268 -0.07740295 0.010405
v -0.0141061 -0.07757965 0.0112869
v -0.0142821 -0.06929785 0.00687753
v -0.00370252 -0.09362515 0.00793643
v 0.00140805 -0.09486145 0.00670051
v -0.000704023 -0.09486145 0.00670051
v -0.00370252 -0.09150955 0.00582192
v -0.00370252 -0.08939395 0.00476302
v -0.00264329 -0.09044975 0.00476302
v -0.00140805 -0.09344845 0.00599567
v 0.00237768 -0.09044975 0.00476302
v 0.00343691 -0.08939395 0.00476302
v 0.00343691 -0.09150955 0.00582192
v 0.0130916 -0.07828615 0.00952314
v 0.0134884 -0.07881205 0.0111098
v 0.0145445 -0.07775625 0.0132276
v 0.0148101 -0.07617445 0.0126965
v 0.0148101 -0.06770815 0.00740862
v 0.0162245 -0.05723225 0.0126965
v 0.0148101 -0.07405885 0.010582
v -0.0155525 -0.05723225 0.0104771
v -0.0148101 -0.06665235 0.00740862
v -0.0144581 -0.06735495 0.00670051
v -0.0141061 -0.06806145 0.00599567
v -0.0132228 -0.07352895 0.00687753
v -0.0132228 -0.07564455 0.00793643
v -0.0111076 -0.07564455 0.00476302
v -0.00899229 -0.07881205 0.00370412
v -0.00793306 -0.08093155 0.00370412
v -0.0132228 -0.06929785 0.00476302
v 0.00105603 -0.08992385 0.00423193
v 0.00140805 -0.09062635 0.00458599
v -0.00105603 -0.08992385 0.00423193
v -0.00687382 -0.08093155 0.00264523
v -0.00140805 -0.09133285 0.00494005
v -0.00370252 -0.08093155 0.00158961
v 0.00224647 -0.08992385 0.00449748
v 0.00449614 -0.08093155 0.00158961
v 0.00661141 -0.08093155 0.00264523
v 0.00775705 -0.07934195 0.00282226
v 0.00766745 -0.08093155 0.00370412
v 0.00885789 -0.07934195 0.00423193
v 0.00991712 -0.07723025 0.00423193
v 0.0134884 -0.07670045 0.00899533
v 0.0134884 -0.07775625 0.0100509
v 0.0145445 -0.07564455 0.0111098
v 0.0145445 -0.06823805 0.00687753
v 0.0144581 -0.06770815 0.00670051
v 0.0148101 -0.06665235 0.00740862
v 0.0151685 -0.05723225 0.00952314
v 0.0145445 -0.07458485 0.0100509
v -0.0150213 -0.05723225 0.00931005
v -0.0144581 -0.06629915 0.00670051
v -0.0141061 -0.06700565 0.00599567
v -0.0130468 -0.06806145 0.00388115
v -0.0128708 -0.07106015 0.0051138
v -0.0111076 -0.07141345 0.00264523
v -0.0109316 -0.07440815 0.00388115
v -0.00881628 -0.07757965 0.00282226
v -0.00775705 -0.07969525 0.00282226
v 0.0031713 -0.08040175 0.00105852
v -0.00211527 -0.08040175 0.00105852
v -0.00581779 -0.07881205 0.00158961
v -0.00793306 -0.07881205 0.00264523
v -0.00899229 -0.07246925 0.00158961
v -0.00528977 -0.07723025 0.00105852
v 0.00436174 -0.08040175 0.00132406
v 0.00647701 -0.08040175 0.00238296
v 0.00881628 -0.07723025 0.00282226
v 0.00819866 -0.07987185 0.00370412
v 0.0134884 -0.07352895 0.00687753
v 0.0092547 -0.07775625 0.00370412
v 0.0119876 -0.07193935 0.00388115
v 0.0124292 -0.07246925 0.00476302
v 0.0134884 -0.06823805 0.00476302
v 0.0141061 -0.06770815 0.00599567
v 0.0144581 -0.06665235 0.00670051
v 0.0147589 -0.05723225 0.00835933
v -0.0139653 -0.05723225 0.00719553
v -0.0133988 -0.06523935 0.00458599
v -0.0130468 -0.06594585 0.00388115
v -0.0109316 -0.06912115 0.00176336
v -0.0119876 -0.06912115 0.00282226
v -0.0109316 -0.07229265 0.00282226
v 0.00105603 -0.06453675 -0.00105599
v 0.0031713 -0.06347705 -0.00105599
v 0.00423054 -0.07934195 0.00105852
v -0.0063458 -0.06876795 2.9022e-06
v -0.00211527 -0.06347705 -0.00105599
v -2.77556e-18 -0.06453675 -0.00105599
v -0.0100483 -0.07035365 0.00158961
v -0.00952031 -0.06876795 0.00105852
v -0.00793306 -0.06929785 0.000530711
v -0.00740504 -0.06770815 2.9022e-06
v 0.00528977 -0.07723025 0.00105852
v 0.00542097 -0.07828615 0.00132406
v 0.00753624 -0.07828615 0.00238296
v 0.0109316 -0.06876795 0.00176336
v 0.0119876 -0.06982375 0.00282226
v 0.0124292 -0.07035365 0.00370412
v 0.0130916 -0.06876795 0.00423193
v 0.0130468 -0.06770815 0.00388115
v 0.0141061 -0.06665235 0.00599567
v 0.0144741 -0.05723225 0.00779546
v 0.0130468 -0.06665235 0.00388115
v -0.0132228 -0.05723225 0.00582192
v -0.0109316 -0.06594585 0.00176336
v -0.0109796 -0.05723225 0.00277308
v -0.00992352 -0.05723225 0.00171418
v -0.00775705 -0.05748345 -0.000351156
v -0.00591059 -0.05734615 -0.00127236
v 0.0029537 -0.06092575 -0.00127236
v 0.00412173 -0.06049005 -0.00127236
v 0.00430734 -0.06030165 -0.00127236
v 0.00740504 -0.06770815 2.9022e-06
v 0.00753624 -0.06876795 0.000265168
v -0.00401293 -0.06008575 -0.00127236
v -0.00273609 -0.06092575 -0.00127236
v -0.00550738 -0.05815855 -0.00127236
v -0.00507216 -0.05902605 -0.00127236
v 0.00753624 -0.07405885 0.00132406
v 0.00952031 -0.06876795 0.00105852
v 0.00859548 -0.07193935 0.00132406
v 0.00965151 -0.06982375 0.00132406
v 0.00576339 -0.05723225 -0.00127236
v 0.0109316 -0.06559255 0.00176336
v 0.0140709 -0.05723225 0.00709063
v 0.0119876 -0.06559255 0.00282226
v 0.0119524 -0.05723225 0.00391721
v 0.0129604 -0.05723225 0.00518592
v -0.00775705 -0.05723225 -0.000351156
v -0.0061378 -0.05723225 -0.0011609
v -0.00591059 -0.05723225 -0.00127236
v 0.00485136 -0.05924585 -0.00127236
v 0.00881628 -0.05723225 0.000707741
v 0.00987232 -0.05723225 0.00176336
v 0.0109348 -0.05723225 0.00285832
f 1 2 5
f 1 5 19
f 1 19 17
f 1 17 41
f 1 41 71
f 1 71 70
f 1 70 38
f 1 38 37
f 1 37 36
f 1 36 68
f 1 68 105
f 1 105 104
f 1 104 103
f 1 103 102
f 1 102 101
f 1 101 126
f 1 126 145
f 1 145 170
f 1 170 201
f 1 201 229
f 1 229 255
f 1 255 278
f 1 278 281
f 1 281 280
f 1 280 288
f 1 288 287
f 1 287 286
f 1 286 276
f 1 276 284
f 1 284 283
f 1 283 282
f 1 282 260
f 1 260 259
f 1 259 257
f 1 257 230
f 1 230 203
f 1 203 172
f 1 172 147
f 1 147 128
f 1 128 110
f 1 110 80
f 1 80 79
f 1 79 78
f 1 78 77
f 1 77 49
f 1 49 48
f 1 48 47
f 1 47 56
f 1 56 29
f 1 29 28
f 1 28 27
f 1 27 20
f 1 20 6
f 1 6 3
f 1 3 7
f 1 7 4
f 1 4 2
f 2 4 5
f 3 6 7
f 4 7 8
f 4 8 9
f 4 9 10
f 4 10 11
f 4 11 12
f 4 12 13
f 4 13 14
f 4 14 15
f 4 15 16
f 4 16 17
f 4 17 18
f 4 18 5
f 5 18 19
f 6 20 7
f 7 21 22
f 7 22 23
f 7 23 24
f 7 24 25
f 7 25 26
f 7 26 9
f 7 9 8
f 7 20 27
f 7 27 28
f 7 28 29
f 7 29 21
f 9 26 10
f 10 26 55
f 10 55 30
f 10 30 11
f 11 13 12
f 11 30 13
f 13 30 14
f 14 30 31
f 14 31 32
f 14 32 15
f 15 33 34
f 15 34 16
f 15 32 33
f 16 34 35
f 16 35 36
f 16 36 37
f 16 37 38
f 16 38 70
f 16 70 39
f 16 39 40
f 16 40 41
f 16 41 17
f 17 19 18
f 21 42 43
f 21 43 44
f 21 44 45
f 21 45 22
f 21 29 46
f 21 46 56
f 21 56 47
f 21 47 48
f 21 48 49
f 21 49 50
f 21 50 42
f 22 45 51
f 22 51 23
f 23 51 52
f 23 52 53
f 23 53 24
f 24 53 54
f 24 54 55
f 24 55 25
f 25 55 26
f 29 56 46
f 30 55 57
f 30 57 58
f 30 58 59
f 30 59 31
f 31 59 58
f 31 58 60
f 31 60 61
f 31 61 32
f 32 61 62
f 32 62 33
f 33 62 63
f 33 63 34
f 34 64 35
f 34 63 65
f 34 65 66
f 34 66 64
f 35 67 68
f 35 68 69
f 35 69 36
f 35 64 67
f 36 69 68
f 39 70 71
f 39 71 40
f 40 71 41
f 42 72 43
f 42 50 72
f 43 72 73
f 43 73 74
f 43 74 75
f 43 75 76
f 43 76 51
f 43 51 44
f 44 51 45
f 49 77 50
f 50 77 78
f 50 78 79
f 50 79 80
f 50 80 81
f 50 81 82
f 50 82 73
f 50 73 72
f 51 83 52
f 51 76 84
f 51 84 83
f 52 85 86
f 52 86 87
f 52 87 57
f 52 57 53
f 52 83 85
f 53 57 55
f 53 55 54
f 57 87 88
f 57 88 89
f 57 89 90
f 57 90 58
f 58 90 60
f 60 90 91
f 60 91 92
f 60 92 93
f 60 93 94
f 60 94 95
f 60 95 96
f 60 96 61
f 61 96 97
f 61 97 66
f 61 66 63
f 61 63 62
f 63 66 65
f 64 66 98
f 64 98 99
f 64 99 67
f 66 97 98
f 67 100 101
f 67 101 102
f 67 102 103
f 67 103 104
f 67 104 105
f 67 105 68
f 67 99 100
f 73 106 107
f 73 107 108
f 73 108 74
f 73 82 106
f 74 108 75
f 75 108 107
f 75 107 109
f 75 109 84
f 75 84 76
f 80 110 81
f 81 110 128
f 81 128 111
f 81 111 127
f 81 127 106
f 81 106 82
f 83 84 85
f 84 109 107
f 84 107 112
f 84 112 85
f 85 113 118
f 85 118 114
f 85 114 91
f 85 91 86
f 85 112 131
f 85 131 113
f 86 91 89
f 86 89 88
f 86 88 87
f 89 91 90
f 91 115 116
f 91 116 117
f 91 117 92
f 91 114 118
f 91 118 119
f 91 119 120
f 91 120 115
f 92 117 93
f 93 117 121
f 93 121 95
f 93 95 94
f 95 122 123
f 95 123 97
f 95 97 96
f 95 121 122
f 97 123 124
f 97 124 98
f 98 124 99
f 99 124 100
f 100 125 145
f 100 145 126
f 100 126 101
f 100 124 143
f 100 143 125
f 106 127 131
f 106 131 112
f 106 112 107
f 111 128 129
f 111 129 130
f 111 130 127
f 113 132 119
f 113 119 118
f 113 131 132
f 115 133 116
f 115 120 134
f 115 134 133
f 116 133 135
f 116 135 117
f 117 135 136
f 117 136 121
f 119 132 137
f 119 137 120
f 120 137 134
f 121 136 138
f 121 138 139
f 121 139 140
f 121 140 141
f 121 141 142
f 121 142 122
f 122 142 123
f 123 142 143
f 123 143 124
f 125 144 145
f 125 143 168
f 125 168 144
f 127 146 131
f 127 130 146
f 128 147 148
f 128 148 129
f 129 148 130
f 130 149 150
f 130 150 151
f 130 151 152
f 130 152 153
f 130 153 146
f 130 148 154
f 130 154 149
f 131 146 155
f 131 155 132
f 132 155 137
f 133 134 156
f 133 156 138
f 133 138 135
f 134 137 157
f 134 157 156
f 135 138 136
f 137 158 159
f 137 159 160
f 137 160 161
f 137 161 157
f 137 155 151
f 137 151 158
f 138 140 139
f 138 156 183
f 138 183 162
f 138 162 163
f 138 163 164
f 138 164 165
f 138 165 140
f 140 165 166
f 140 166 141
f 141 166 167
f 141 167 142
f 142 167 143
f 143 167 197
f 143 197 168
f 144 169 170
f 144 170 145
f 144 168 171
f 144 171 169
f 146 153 155
f 147 172 173
f 147 173 148
f 148 173 204
f 148 204 174
f 148 174 175
f 148 175 154
f 149 176 177
f 149 177 151
f 149 151 150
f 149 154 176
f 151 177 178
f 151 178 179
f 151 179 180
f 151 180 158
f 151 155 152
f 152 155 153
f 154 175 206
f 154 206 181
f 154 181 176
f 156 182 183
f 156 157 184
f 156 184 182
f 157 161 184
f 158 180 185
f 158 185 159
f 159 185 160
f 160 184 186
f 160 186 161
f 160 185 187
f 160 187 184
f 161 186 184
f 162 183 188
f 162 188 189
f 162 189 163
f 163 189 190
f 163 190 164
f 164 190 191
f 164 191 192
f 164 192 165
f 165 192 193
f 165 193 194
f 165 194 195
f 165 195 196
f 165 196 166
f 166 196 197
f 166 197 167
f 168 197 171
f 169 198 199
f 169 199 228
f 169 228 200
f 169 200 170
f 169 171 198
f 170 200 201
f 171 197 202
f 171 202 198
f 172 203 173
f 173 203 204
f 174 204 205
f 174 205 175
f 175 205 232
f 175 232 206
f 176 181 207
f 176 207 208
f 176 208 178
f 176 178 177
f 178 209 210
f 178 210 179
f 178 208 235
f 178 235 209
f 179 210 180
f 180 210 211
f 180 211 185
f 181 206 207
f 182 212 218
f 182 218 188
f 182 188 183
f 182 184 213
f 182 213 212
f 184 187 213
f 185 214 187
f 185 211 210
f 185 210 215
f 185 215 216
f 185 216 214
f 187 214 217
f 187 217 213
f 188 218 189
f 189 218 190
f 190 218 219
f 190 219 191
f 191 219 220
f 191 220 192
f 192 220 221
f 192 221 194
f 192 194 193
f 194 222 195
f 194 221 223
f 194 223 220
f 194 220 224
f 194 224 225
f 194 225 222
f 195 222 202
f 195 202 197
f 195 197 196
f 198 226 227
f 198 227 199
f 198 202 222
f 198 222 226
f 199 227 254
f 199 254 228
f 200 228 229
f 200 229 201
f 203 230 231
f 203 231 204
f 204 231 232
f 204 232 205
f 206 232 258
f 206 258 233
f 206 233 234
f 206 234 208
f 206 208 207
f 208 234 233
f 208 233 210
f 208 210 235
f 209 235 210
f 210 233 215
f 212 236 237
f 212 237 238
f 212 238 218
f 212 213 241
f 212 241 236
f 213 217 239
f 213 239 240
f 213 240 241
f 214 216 217
f 215 233 242
f 215 242 216
f 216 242 243
f 216 243 217
f 217 243 244
f 217 244 245
f 217 245 239
f 218 238 246
f 218 246 247
f 218 247 248
f 218 248 219
f 219 248 220
f 220 223 221
f 220 248 275
f 220 275 249
f 220 249 250
f 220 250 224
f 222 225 251
f 222 251 252
f 222 252 226
f 224 250 251
f 224 251 225
f 226 253 227
f 226 252 253
f 227 253 256
f 227 256 254
f 228 254 229
f 229 254 256
f 229 256 255
f 230 257 231
f 231 257 232
f 232 257 259
f 232 259 260
f 232 260 258
f 233 258 282
f 233 282 261
f 233 261 262
f 233 262 243
f 233 243 242
f 236 241 269
f 236 269 263
f 236 263 264
f 236 264 237
f 237 264 265
f 237 265 266
f 237 266 238
f 238 266 267
f 238 267 246
f 239 245 271
f 239 271 268
f 239 268 240
f 240 268 269
f 240 269 241
f 243 262 245
f 243 245 244
f 245 262 270
f 245 270 271
f 246 272 247
f 246 267 273
f 246 273 272
f 247 272 248
f 248 272 274
f 248 274 275
f 249 275 273
f 249 273 276
f 249 276 277
f 249 277 256
f 249 256 253
f 249 253 250
f 250 253 252
f 250 252 251
f 255 256 278
f 256 277 279
f 256 279 280
f 256 280 281
f 256 281 278
f 258 260 282
f 261 282 283
f 261 283 262
f 262 283 284
f 262 284 276
f 262 276 285
f 262 285 265
f 262 265 264
f 262 264 263
f 262 263 269
f 262 269 268
f 262 268 271
f 262 271 270
f 265 285 266
f 266 285 276
f 266 276 273
f 266 273 267
f 272 273 274
f 273 275 274
f 276 286 277
f 277 286 287
f 277 287 279
f 279 287 288
f 279 288 280
