o piece_008
v -0.0116387 0.03437615 -0.0127167
v -0.0148125 0.03437615 -0.0127167
v -0.0113542 0.03430355 -0.0127167
v -0.0170203 0.02847325 -0.0323254
v -0.0179846 0.02856735 -0.0323254
v -0.0158066 0.03424975 -0.0127167
v -0.020101 0.02856735 -0.0323254
v -0.0106446 0.03387845 -0.0127167
v -0.0155414 0.02783825 -0.0323254
v -0.0180056 0.03384615 -0.0127167
v -0.0215114 0.02786245 -0.0323254
v -0.021687 0.02830105 -0.0301508
v -0.0185132 0.03359325 -0.0132254
v -0.0105375 0.03381385 -0.0127167
v -0.010051 0.03332685 -0.0129605
v -0.0144595 0.02680245 -0.0323254
v -0.0186836 0.03350715 -0.0127167
v -0.0222157 0.02790555 -0.0306805
v -0.0227268 0.02672445 -0.0323254
v -0.0227461 0.02724365 -0.0312084
v -0.0193879 0.03314395 -0.0127167
v -0.00948013 0.03275645 -0.0127167
v -0.00899361 0.03226955 -0.0129605
v -0.0143401 0.02656565 -0.0323254
v -0.0225687 0.02786245 -0.0296229
v -0.0229604 0.02631275 -0.0323254
v -0.0230096 0.02658185 -0.0317381
v -0.0229218 0.02715485 -0.0306805
v -0.0215114 0.03103455 -0.0137551
v -0.020447 0.03209465 -0.0127167
v -0.00899361 0.03226955 -0.0127167
v -0.00870381 0.03183905 -0.0127167
v -0.0086476 0.03173945 -0.0127167
v -0.0137552 0.02539265 -0.0323254
v -0.0141065 0.02609755 -0.0323254
v -0.0225687 0.02997725 -0.0137551
v -0.0231571 0.02592265 -0.0323254
v -0.0232748 0.02644995 -0.0306805
v -0.0236278 0.02786245 -0.0148127
v -0.0215114 0.03103455 -0.0127167
v -0.00801706 0.02990995 -0.0127167
v -0.0079468 0.02962475 -0.0127167
v -0.00744799 0.02539265 -0.0127167
v -0.0137552 0.02116045 -0.0323254
v -0.0225758 0.02996375 -0.0127167
v -0.0225687 0.02997725 -0.0127167
v -0.0232748 0.02539265 -0.0323254
v -0.0243321 0.02433525 -0.0285634
v -0.0243321 0.02644995 -0.0148127
v -0.0236278 0.02786245 -0.0127167
v -0.0229288 0.02925885 -0.0127167
v -0.00744799 0.02532805 -0.0127167
v -0.00766227 0.02384555 -0.0127167
v -0.0079468 0.02221785 -0.0127167
v -0.00952228 0.01904845 -0.0158703
v -0.0097875 0.01851845 -0.0164001
v -0.0101844 0.01798835 -0.0169279
v -0.0108448 0.01534365 -0.0153406
v -0.0139501 0.02077035 -0.0323254
v -0.0232748 0.02221785 -0.0323254
v -0.0243321 0.02221785 -0.0285634
v -0.0253912 0.02116045 -0.0169279
v -0.0253912 0.02221785 -0.0158703
v -0.0253912 0.02325635 -0.0127167
v -0.025126 0.02444555 -0.0127167
v -0.0251155 0.02447245 -0.0127167
v -0.0243321 0.02644995 -0.0127167
v -0.0105919 0.01479475 -0.0127167
v -0.0108448 0.01428625 -0.0132254
v -0.0150777 0.01851845 -0.0322679
v -0.0144595 0.01975335 -0.0323254
v -0.0119022 0.01217155 -0.0132254
v -0.0231571 0.02127885 -0.0323254
v -0.0232748 0.02116045 -0.0317381
v -0.0227461 0.01957575 -0.0322679
v -0.0232748 0.02010575 -0.0306805
v -0.0243321 0.01904845 -0.024333
v -0.0253912 0.01904845 -0.0169279
v -0.0253912 0.01798835 -0.0127167
v -0.0109291 0.01411675 -0.0127167
v -0.0157135 0.01783235 -0.0323254
v -0.0151638 0.01846195 -0.0323254
v -0.0150918 0.01857495 -0.0323254
v -0.0155186 0.01763595 -0.0317381
v -0.0116493 0.01267735 -0.0127167
v -0.0119883 0.01200205 -0.0127167
v -0.0123501 0.01129715 -0.0127167
v -0.01349 0.01005415 -0.0132254
v -0.0227163 0.01960535 -0.0323254
v -0.0213937 0.01775435 -0.0323254
v -0.0215114 0.01763595 -0.0320913
v -0.021687 0.01217155 -0.0238033
v -0.0227461 0.01746105 -0.0290932
v -0.0232748 0.01798835 -0.0275058
v -0.0243321 0.01693105 -0.0211602
v -0.0253912 0.01798835 -0.0148127
v -0.025386 0.01693635 -0.0127167
v -0.0162071 0.01743145 -0.0323254
v -0.0176315 0.01023165 -0.0211602
v -0.0177193 0.01217155 -0.0248609
v -0.0136164 0.00980121 -0.0127167
v -0.0155186 0.00917433 -0.0148127
v -0.0165742 0.00917433 -0.0169279
v -0.0200711 0.01696065 -0.0323254
v -0.0206297 0.01640365 -0.0312084
v -0.0206297 0.01005415 -0.02169
v -0.0215114 0.01128905 -0.0225691
v -0.021687 0.01111145 -0.02169
v -0.0238035 0.01640365 -0.0227457
v -0.0238035 0.01534365 -0.0206305
v -0.0243321 0.01587365 -0.019045
v -0.0243321 0.01375895 -0.0137551
v -0.0240581 0.01267735 -0.0127167
v -0.0169114 0.01696065 -0.0323254
v -0.0177193 0.00899675 -0.0185153
v -0.0182498 0.01005415 -0.02169
v -0.0186906 0.00987923 -0.0218666
v -0.0167885 0.00768379 -0.0127167
v -0.0165742 0.00811427 -0.0137551
v -0.0178528 0.00873309 -0.0179855
v -0.0196285 0.01681265 -0.0323254
v -0.0193949 0.01234645 -0.0257438
v -0.0202766 0.01040655 -0.0223944
v -0.0193949 0.01023165 -0.0225691
v -0.0206297 0.00899675 -0.0195729
v -0.0215114 0.01023165 -0.0204558
v -0.0193949 0.01657855 -0.0320913
v -0.0227461 0.01111145 -0.0164001
v -0.0238035 0.01217155 -0.0132254
v -0.023482 0.01143435 -0.0127167
v -0.0175718 0.01681265 -0.0323254
v -0.0189102 0.00873309 -0.019045
v -0.0190419 0.00952678 -0.0211602
v -0.0182199 0.01669695 -0.0323254
v -0.0168043 0.00767572 -0.0127167
v -0.0178528 0.00767303 -0.0148127
v -0.019279 0.01669695 -0.0323254
v -0.0199236 0.0086443 -0.0188684
v -0.0203539 0.00715646 -0.0127167
v -0.0206297 0.00793939 -0.0153406
v -0.0215114 0.00811427 -0.0141064
v -0.0225687 0.01023165 -0.0151659
v -0.0227461 0.01005415 -0.0132254
v -0.0224247 0.00931961 -0.0127167
v -0.0189102 0.00767303 -0.0158703
v -0.0179846 0.00740936 -0.0137551
v -0.0181145 0.00715108 -0.0127167
v -0.019063 0.0068901 -0.0127167
v -0.0190419 0.00740936 -0.0148127
v -0.0215781 0.0080497 -0.0127167
f 1 2 6
f 1 6 10
f 1 10 17
f 1 17 21
f 1 21 30
f 1 30 40
f 1 40 46
f 1 46 45
f 1 45 51
f 1 51 50
f 1 50 67
f 1 67 66
f 1 66 65
f 1 65 64
f 1 64 79
f 1 79 97
f 1 97 113
f 1 113 130
f 1 130 144
f 1 144 150
f 1 150 139
f 1 139 148
f 1 148 147
f 1 147 135
f 1 135 118
f 1 118 101
f 1 101 87
f 1 87 86
f 1 86 85
f 1 85 80
f 1 80 68
f 1 68 54
f 1 54 53
f 1 53 52
f 1 52 43
f 1 43 42
f 1 42 41
f 1 41 33
f 1 33 32
f 1 32 31
f 1 31 22
f 1 22 14
f 1 14 8
f 1 8 3
f 1 3 4
f 1 4 5
f 1 5 7
f 1 7 2
f 2 7 6
f 3 8 9
f 3 9 4
f 4 9 16
f 4 16 24
f 4 24 35
f 4 35 34
f 4 34 44
f 4 44 59
f 4 59 71
f 4 71 83
f 4 83 82
f 4 82 81
f 4 81 98
f 4 98 114
f 4 114 131
f 4 131 134
f 4 134 137
f 4 137 121
f 4 121 104
f 4 104 90
f 4 90 89
f 4 89 73
f 4 73 60
f 4 60 47
f 4 47 37
f 4 37 26
f 4 26 19
f 4 19 11
f 4 11 7
f 4 7 5
f 6 7 10
f 7 11 12
f 7 12 13
f 7 13 10
f 8 14 9
f 9 14 15
f 9 15 16
f 10 13 17
f 11 18 12
f 11 19 20
f 11 20 18
f 12 18 13
f 13 21 17
f 13 18 21
f 14 22 23
f 14 23 15
f 15 23 16
f 16 23 24
f 18 20 25
f 18 25 21
f 19 26 27
f 19 27 20
f 20 27 28
f 20 28 25
f 21 29 30
f 21 25 29
f 22 31 23
f 23 31 32
f 23 32 33
f 23 33 34
f 23 34 35
f 23 35 24
f 25 36 29
f 25 28 36
f 26 37 27
f 27 37 38
f 27 38 28
f 28 38 39
f 28 39 36
f 29 36 46
f 29 46 40
f 29 40 30
f 33 41 34
f 34 41 42
f 34 42 43
f 34 43 52
f 34 52 44
f 36 45 46
f 36 39 45
f 37 47 48
f 37 48 38
f 38 49 39
f 38 48 49
f 39 50 51
f 39 51 45
f 39 49 67
f 39 67 50
f 44 52 53
f 44 53 54
f 44 54 55
f 44 55 56
f 44 56 57
f 44 57 58
f 44 58 59
f 47 60 61
f 47 61 48
f 48 61 78
f 48 78 62
f 48 62 63
f 48 63 64
f 48 64 65
f 48 65 49
f 49 65 66
f 49 66 67
f 54 68 69
f 54 69 55
f 55 69 56
f 56 69 58
f 56 58 57
f 58 70 71
f 58 71 59
f 58 69 72
f 58 72 70
f 60 73 61
f 61 73 74
f 61 74 75
f 61 75 76
f 61 76 77
f 61 77 78
f 62 78 96
f 62 96 79
f 62 79 64
f 62 64 63
f 68 80 69
f 69 80 72
f 70 81 82
f 70 82 83
f 70 83 71
f 70 72 84
f 70 84 81
f 72 80 85
f 72 85 86
f 72 86 87
f 72 87 88
f 72 88 84
f 73 89 75
f 73 75 74
f 75 89 90
f 75 90 91
f 75 91 92
f 75 92 93
f 75 93 94
f 75 94 95
f 75 95 77
f 75 77 76
f 77 95 78
f 78 95 96
f 79 96 97
f 81 84 98
f 84 88 99
f 84 99 100
f 84 100 98
f 87 101 88
f 88 101 102
f 88 102 103
f 88 103 99
f 90 104 91
f 91 104 105
f 91 105 92
f 92 106 107
f 92 107 108
f 92 108 109
f 92 109 93
f 92 105 106
f 93 109 95
f 93 95 94
f 95 109 110
f 95 110 111
f 95 111 96
f 96 111 97
f 97 111 112
f 97 112 113
f 98 100 114
f 99 103 115
f 99 115 116
f 99 116 100
f 100 116 117
f 100 117 114
f 101 118 119
f 101 119 102
f 102 119 103
f 103 119 136
f 103 136 120
f 103 120 115
f 104 121 106
f 104 106 105
f 106 122 123
f 106 123 124
f 106 124 125
f 106 125 126
f 106 126 107
f 106 121 127
f 106 127 122
f 107 126 108
f 108 126 128
f 108 128 110
f 108 110 109
f 110 128 111
f 111 128 129
f 111 129 112
f 112 129 113
f 113 129 130
f 114 117 131
f 115 120 117
f 115 117 116
f 117 120 132
f 117 132 133
f 117 133 124
f 117 124 134
f 117 134 131
f 118 135 136
f 118 136 119
f 120 136 132
f 121 137 127
f 122 124 123
f 122 127 137
f 122 137 124
f 124 137 134
f 124 133 125
f 125 133 138
f 125 138 139
f 125 139 140
f 125 140 141
f 125 141 126
f 126 142 128
f 126 141 142
f 128 142 129
f 129 142 143
f 129 143 130
f 130 143 144
f 132 136 145
f 132 145 138
f 132 138 133
f 135 146 136
f 135 147 146
f 136 146 148
f 136 148 145
f 138 145 149
f 138 149 139
f 139 149 148
f 139 150 141
f 139 141 140
f 141 150 144
f 141 144 142
f 142 144 143
f 145 148 149
f 146 147 148
