o piece_010
v 0.01587 -0.02538845 -0.0127167
v 0.01587 -0.02538845 -0.0137545
v 0.014812 -0.02538845 -0.0127167
v 0.0159133 -0.02540995 -0.0127167
v 0.0179841 -0.02644845 -0.0158714
v 0.0169281 -0.02644845 -0.0179862
v 0.015341 -0.02565525 -0.0153421
v 0.014812 -0.02538845 -0.0137545
v 0.0200786 -0.02749405 -0.0127167
v 0.0186902 -0.02680095 -0.0162228
v 0.0112859 -0.02715345 -0.0127167
v 0.014812 -0.02644845 -0.0179862
v 0.0176321 -0.02680095 -0.0183397
v 0.0179841 -0.03302715 -0.0338358
v 0.0169477 -0.03279615 -0.0338358
v 0.014283 -0.02671285 -0.0185154
v 0.014283 -0.02565525 -0.0142837
v 0.0121669 -0.02671285 -0.0153421
v 0.0112859 -0.02715345 -0.0148129
v 0.0208062 -0.02785845 -0.0127167
v 0.0208062 -0.02785845 -0.0130496
v 0.0185132 -0.02697725 -0.0171923
v 0.0193942 -0.02715345 -0.0155179
v 0.0197482 -0.02785845 -0.0172812
v 0.0102279 -0.02821105 -0.0127167
v 0.0169281 -0.03279615 -0.0338358
v 0.0185132 -0.02803475 -0.0203676
v 0.018112 -0.03307485 -0.0338358
v 0.013754 -0.02710825 -0.0190446
v 0.0116379 -0.02710825 -0.0158714
v 0.0102279 -0.02821105 -0.0158714
v 0.0211366 -0.02802525 -0.0127167
v 0.0195712 -0.02803475 -0.0182508
v 0.0214178 -0.02830395 -0.0127167
v 0.0216971 -0.02858495 -0.0127167
v 0.0238033 -0.03120745 -0.0129607
v 0.0197482 -0.03420625 -0.0338358
v 0.00952184 -0.02962105 -0.0127167
v 0.0148317 -0.03344165 -0.0338358
v 0.0192074 -0.03373225 -0.0338358
v 0.0190422 -0.03361315 -0.0338358
v 0.0188908 -0.03351305 -0.0338358
v 0.0121669 -0.02777035 -0.0185154
v 0.0112859 -0.02821105 -0.0179862
v 0.00978734 -0.02949005 -0.0169277
v 0.00952184 -0.02962105 -0.0158714
v 0.0102279 -0.03032615 -0.020103
v 0.00978734 -0.03054765 -0.0190446
v 0.0238033 -0.03120745 -0.0127167
v 0.0257562 -0.03405855 -0.0127167
v 0.0259194 -0.03438245 -0.0129607
v 0.0218643 -0.03526375 -0.0289158
v 0.0216873 -0.03544005 -0.0298874
v 0.0208318 -0.03621885 -0.0338358
v 0.00880993 -0.03104545 -0.0127167
v 0.0148061 -0.03345825 -0.0338358
v 0.0121669 -0.02829915 -0.0195738
v 0.0087293 -0.03160515 -0.0169277
v 0.00846381 -0.03173855 -0.0158714
v 0.0100509 -0.03147185 -0.0216886
v 0.00978734 -0.03160515 -0.0211594
v 0.0141139 -0.03419425 -0.0338358
v 0.0087293 -0.03266275 -0.0190446
v 0.0261711 -0.03481835 -0.0127167
v 0.0269774 -0.03649755 -0.0129607
v 0.0219528 -0.03596875 -0.0297551
v 0.0211524 -0.03700495 -0.0338358
v 0.00846381 -0.03173855 -0.0127167
v 0.00846381 -0.03279615 -0.0179862
v 0.00740578 -0.03491125 -0.0158714
v 0.0123439 -0.03561625 -0.032796
v 0.0119132 -0.03687155 -0.0338358
v 0.0118975 -0.03689775 -0.0338358
v 0.0108454 -0.03689535 -0.0306791
v 0.0108454 -0.03795055 -0.0317376
v 0.0087293 -0.03372025 -0.020103
v 0.00767127 -0.03478025 -0.0169277
v 0.0272292 -0.03693345 -0.0127167
v 0.027241 -0.03702635 -0.0128284
v 0.0260964 -0.03737885 -0.0172812
v 0.0264484 -0.03808395 -0.0169277
v 0.0211583 -0.03702635 -0.0338358
v 0.00740578 -0.03491125 -0.0127167
v 0.00740578 -0.03596875 -0.0169277
v 0.011101 -0.04017995 -0.0338358
v 0.0109339 -0.03984645 -0.0335009
v 0.0111089 -0.03887705 -0.0333252
v 0.0108454 -0.03900805 -0.032796
v 0.0087293 -0.03583775 -0.0222178
v 0.0272665 -0.03702635 -0.0127167
v 0.0274632 -0.03791475 -0.0127167
v 0.0274966 -0.03808395 -0.0127167
v 0.0264484 -0.03914145 -0.0169277
v 0.0222163 -0.03808395 -0.0306791
v 0.0211583 -0.04125655 -0.0338358
v 0.00740578 -0.04019905 -0.0127167
v 0.0105799 -0.04019905 -0.032796
v 0.00740578 -0.03808395 -0.0169277
v 0.011101 -0.04123755 -0.0338358
v 0.0274966 -0.04022045 -0.0127167
v 0.0222163 -0.04019905 -0.0306791
v 0.027241 -0.04072775 -0.0132253
v 0.0268398 -0.04229265 -0.0127167
v 0.0268299 -0.04231415 -0.0127167
v 0.0208062 -0.04196155 -0.0338358
v 0.00740578 -0.04019905 -0.0148129
v 0.00741168 -0.04125175 -0.0127167
v 0.0105799 -0.04125655 -0.032796
v 0.00740578 -0.03914145 -0.0158714
v 0.0118778 -0.04443165 -0.0338358
v 0.0268181 -0.04233555 -0.0127167
v 0.0204601 -0.04265475 -0.0338358
v 0.00846381 -0.04125655 -0.020103
v 0.00846381 -0.04337165 -0.0158714
v 0.00846971 -0.04442685 -0.0127167
v 0.0119152 -0.04452685 -0.0338358
v 0.0204522 -0.04266665 -0.0338358
v 0.0257365 -0.04371945 -0.0127167
v 0.00916982 -0.04478415 -0.0162228
v 0.00916982 -0.04584165 -0.0130496
v 0.00900463 -0.04551055 -0.0127167
v 0.0121669 -0.04496035 -0.0338358
v 0.0204522 -0.04372655 -0.0306791
v 0.0193942 -0.04372655 -0.0338358
v 0.0225624 -0.04689205 -0.0127167
v 0.00916982 -0.04584165 -0.0127167
v 0.0102279 -0.04689925 -0.0151644
v 0.0100509 -0.04707545 -0.0132253
v 0.0140234 -0.04627755 -0.0338358
v 0.0111089 -0.04813305 -0.0132253
v 0.017288 -0.04582975 -0.0338358
v 0.0183362 -0.04478415 -0.0338358
v 0.0225447 -0.04690635 -0.0127167
v 0.0172742 -0.04584165 -0.0338358
v 0.0100509 -0.04707545 -0.0127167
v 0.014812 -0.04654195 -0.0338358
v 0.0137343 -0.04944545 -0.0127167
v 0.013225 -0.04919065 -0.0132253
v 0.0124895 -0.04886905 -0.0127167
v 0.0111089 -0.04813305 -0.0127167
v 0.0193863 -0.04901435 -0.0127167
v 0.0181159 -0.04945495 -0.0137545
v 0.0165702 -0.04619655 -0.0338358
v 0.01587 -0.04653955 -0.0338358
v 0.0169281 -0.04972175 -0.0137545
v 0.01587 -0.04972175 -0.0137545
v 0.0148159 -0.04971695 -0.0127167
v 0.0186784 -0.04936925 -0.0127167
v 0.0179881 -0.04971465 -0.0127167
v 0.0158897 -0.04653715 -0.0338358
v 0.0179625 -0.04972175 -0.0127167
v 0.01587 -0.04972175 -0.0127167
f 1 2 8
f 1 8 3
f 1 3 11
f 1 11 25
f 1 25 38
f 1 38 55
f 1 55 68
f 1 68 83
f 1 83 96
f 1 96 107
f 1 107 115
f 1 115 121
f 1 121 126
f 1 126 135
f 1 135 140
f 1 140 139
f 1 139 137
f 1 137 147
f 1 147 152
f 1 152 151
f 1 151 149
f 1 149 148
f 1 148 141
f 1 141 133
f 1 133 125
f 1 125 118
f 1 118 111
f 1 111 104
f 1 104 103
f 1 103 100
f 1 100 92
f 1 92 91
f 1 91 90
f 1 90 78
f 1 78 64
f 1 64 50
f 1 50 49
f 1 49 35
f 1 35 34
f 1 34 32
f 1 32 20
f 1 20 9
f 1 9 4
f 1 4 2
f 2 5 6
f 2 6 7
f 2 7 8
f 2 4 9
f 2 9 10
f 2 10 5
f 3 8 19
f 3 19 11
f 5 10 6
f 6 12 7
f 6 10 13
f 6 13 14
f 6 14 15
f 6 15 26
f 6 26 12
f 7 12 8
f 8 12 16
f 8 16 17
f 8 17 18
f 8 18 19
f 9 20 21
f 9 21 10
f 10 22 13
f 10 21 23
f 10 23 24
f 10 24 33
f 10 33 22
f 11 19 31
f 11 31 25
f 12 26 16
f 13 22 27
f 13 27 28
f 13 28 14
f 14 28 42
f 14 42 41
f 14 41 40
f 14 40 37
f 14 37 54
f 14 54 67
f 14 67 82
f 14 82 95
f 14 95 105
f 14 105 112
f 14 112 117
f 14 117 124
f 14 124 132
f 14 132 131
f 14 131 134
f 14 134 143
f 14 143 150
f 14 150 144
f 14 144 136
f 14 136 129
f 14 129 122
f 14 122 116
f 14 116 110
f 14 110 99
f 14 99 85
f 14 85 73
f 14 73 72
f 14 72 62
f 14 62 56
f 14 56 39
f 14 39 26
f 14 26 15
f 16 29 30
f 16 30 18
f 16 18 17
f 16 26 29
f 18 30 19
f 19 30 31
f 20 32 21
f 21 32 23
f 22 33 27
f 23 32 24
f 24 32 34
f 24 34 35
f 24 35 36
f 24 36 37
f 24 37 33
f 25 31 46
f 25 46 38
f 26 39 29
f 27 33 40
f 27 40 41
f 27 41 42
f 27 42 28
f 29 43 30
f 29 39 43
f 30 43 44
f 30 44 31
f 31 45 46
f 31 44 47
f 31 47 48
f 31 48 45
f 33 37 40
f 35 49 36
f 36 49 50
f 36 50 51
f 36 51 37
f 37 51 52
f 37 52 53
f 37 53 54
f 38 46 55
f 39 56 43
f 43 56 57
f 43 57 44
f 44 57 56
f 44 56 47
f 45 48 63
f 45 63 58
f 45 58 46
f 46 58 59
f 46 59 55
f 47 60 61
f 47 61 48
f 47 56 62
f 47 62 60
f 48 61 63
f 50 64 51
f 51 64 78
f 51 78 65
f 51 65 53
f 51 53 52
f 53 65 66
f 53 66 54
f 54 66 67
f 55 59 68
f 58 63 59
f 59 63 69
f 59 69 70
f 59 70 83
f 59 83 68
f 60 62 71
f 60 71 72
f 60 72 73
f 60 73 61
f 61 73 74
f 61 74 63
f 62 72 71
f 63 74 75
f 63 75 88
f 63 88 76
f 63 76 77
f 63 77 70
f 63 70 69
f 65 78 79
f 65 79 66
f 66 79 80
f 66 80 67
f 67 80 81
f 67 81 82
f 70 84 98
f 70 98 109
f 70 109 106
f 70 106 96
f 70 96 83
f 70 77 84
f 73 75 74
f 73 85 86
f 73 86 87
f 73 87 88
f 73 88 75
f 76 89 77
f 76 88 89
f 77 89 84
f 78 90 79
f 79 90 91
f 79 91 81
f 79 81 80
f 81 91 92
f 81 92 100
f 81 100 93
f 81 93 101
f 81 101 94
f 81 94 82
f 82 94 101
f 82 101 95
f 84 89 97
f 84 97 108
f 84 108 98
f 85 99 108
f 85 108 97
f 85 97 86
f 86 97 88
f 86 88 87
f 88 97 89
f 93 100 95
f 93 95 101
f 95 100 102
f 95 102 103
f 95 103 104
f 95 104 105
f 96 106 107
f 98 108 109
f 99 110 108
f 100 103 102
f 104 111 112
f 104 112 105
f 106 113 114
f 106 114 107
f 106 109 113
f 107 114 115
f 108 114 113
f 108 113 109
f 108 110 114
f 110 116 114
f 111 117 112
f 111 118 117
f 114 116 119
f 114 119 120
f 114 120 115
f 115 120 121
f 116 122 120
f 116 120 119
f 117 118 123
f 117 123 124
f 118 125 123
f 120 126 121
f 120 122 127
f 120 127 128
f 120 128 135
f 120 135 126
f 122 129 130
f 122 130 127
f 123 125 131
f 123 131 132
f 123 132 124
f 125 133 134
f 125 134 131
f 127 130 128
f 128 130 140
f 128 140 135
f 129 136 137
f 129 137 138
f 129 138 130
f 130 138 139
f 130 139 140
f 133 141 134
f 134 141 142
f 134 142 143
f 136 144 145
f 136 145 146
f 136 146 147
f 136 147 137
f 137 139 138
f 141 148 142
f 142 148 149
f 142 149 150
f 142 150 143
f 144 150 145
f 145 150 151
f 145 151 152
f 145 152 146
f 146 152 147
f 149 151 150
