o piece_006
v 0.014812 0.03437615 -0.0127167
v 0.0116391 0.03437615 -0.0127167
v 0.0179849 0.03363625 -0.0127167
v 0.0201008 0.02856735 -0.0323254
v 0.0106435 0.03387845 -0.0127167
v 0.0169261 0.02856735 -0.0323254
v 0.0188388 0.03316545 -0.0127167
v 0.0185143 0.03332685 -0.0129605
v 0.0218631 0.02821495 -0.0299742
v 0.0215113 0.02786245 -0.0323254
v 0.0105598 0.03382465 -0.0127167
v 0.0155173 0.02786245 -0.0323254
v 0.0198395 0.03246865 -0.0127167
v 0.0225684 0.02786245 -0.0292697
v 0.0229219 0.02715485 -0.0310337
v 0.022746 0.02698005 -0.032003
v 0.0216582 0.02773335 -0.0323254
v 0.0100509 0.03306325 -0.0132254
v 0.00954373 0.03281025 -0.0127167
v 0.00899385 0.03200585 -0.0132254
v 0.0144602 0.02680245 -0.0323254
v 0.0200803 0.03228025 -0.0127167
v 0.0203501 0.03206775 -0.0127167
v 0.0215113 0.03103455 -0.013402
v 0.0225684 0.02997725 -0.013402
v 0.023979 0.02715485 -0.0151659
v 0.0243325 0.02644995 -0.0148127
v 0.0232737 0.02644995 -0.0306805
v 0.0231405 0.02593075 -0.0323254
v 0.0229783 0.02632625 -0.0323254
v 0.0229219 0.02927235 -0.0141064
v 0.0226162 0.02685085 -0.0323254
v 0.00950104 0.03276725 -0.0127167
v 0.0087394 0.03187665 -0.0127167
v 0.0142638 0.02641235 -0.0323254
v 0.0141067 0.02609755 -0.0323254
v 0.0137549 0.02539265 -0.0323254
v 0.0215113 0.03103455 -0.0127167
v 0.0225684 0.02997725 -0.0127167
v 0.0240029 0.02724635 -0.0127167
v 0.0243325 0.02644995 -0.0127167
v 0.0253861 0.02327785 -0.0127167
v 0.0243325 0.02433525 -0.0275058
v 0.0232737 0.02539265 -0.0323254
v 0.00821855 0.03056375 -0.0127167
v 0.0137549 0.02116045 -0.0323254
v 0.00846446 0.02644995 -0.0148127
v 0.00794532 0.02960325 -0.0127167
v 0.00821001 0.03053415 -0.0127167
v 0.0253912 0.02325635 -0.0127167
v 0.0253912 0.02221785 -0.0158703
v 0.0243325 0.02327785 -0.0285634
v 0.0232737 0.02221785 -0.0323254
v 0.00794532 0.02325635 -0.0127167
v 0.00846446 0.02539265 -0.0148127
v 0.0152833 0.01810405 -0.0323254
v 0.0111097 0.01428625 -0.0153406
v 0.0100509 0.01746105 -0.0164001
v 0.0100509 0.01851845 -0.0174577
v 0.00952324 0.02010575 -0.0169279
v 0.0253912 0.01904845 -0.0127167
v 0.0253912 0.02116045 -0.0158703
v 0.0243325 0.02221785 -0.0285634
v 0.0232737 0.02116045 -0.0317381
v 0.0230107 0.02063315 -0.0322679
v 0.0229953 0.02068965 -0.0323254
v 0.00821001 0.02196495 -0.0127167
v 0.0155651 0.01768435 -0.0323254
v 0.0121668 0.01217155 -0.014283
v 0.0112856 0.01340375 -0.0141064
v 0.0105803 0.01481625 -0.0137551
v 0.00952324 0.01798835 -0.0148127
v 0.0253827 0.01798835 -0.0127167
v 0.0253912 0.01904845 -0.0137551
v 0.0240678 0.02169045 -0.0290932
v 0.0243325 0.01904845 -0.024333
v 0.0240678 0.01851845 -0.0248609
v 0.0240678 0.01640365 -0.02169
v 0.0230107 0.01640365 -0.0259184
v 0.0226128 0.01798835 -0.0296229
v 0.0229663 0.02057665 -0.0323254
v 0.00952324 0.01798835 -0.0127167
v 0.0169552 0.01696065 -0.0323254
v 0.0167502 0.01675615 -0.0319147
v 0.0164002 0.01640365 -0.0312084
v 0.0174555 0.01005415 -0.02169
v 0.0123444 0.01128905 -0.0130488
v 0.0122778 0.01122175 -0.0127167
v 0.011219 0.01333925 -0.0127167
v 0.0105803 0.01481625 -0.0127167
v 0.0253793 0.01796955 -0.0127167
v 0.0243325 0.01693105 -0.0211602
v 0.0240678 0.01428625 -0.0164001
v 0.0230107 0.01217155 -0.0174577
v 0.0219519 0.01111145 -0.0206305
v 0.0219519 0.01217155 -0.0227457
v 0.0219519 0.01851845 -0.0322679
v 0.0219383 0.01857495 -0.0323254
v 0.0173975 0.01681265 -0.0323254
v 0.0176314 0.01657855 -0.0320913
v 0.0186902 0.01023165 -0.0225691
v 0.0186902 0.00917433 -0.0204558
v 0.019042 0.00846673 -0.019045
v 0.017809 0.00934921 -0.0202792
v 0.0164002 0.00793939 -0.014283
v 0.0155173 0.00811427 -0.0130488
v 0.0133348 0.01016445 -0.0127167
v 0.0243222 0.01373745 -0.0127167
v 0.0243325 0.01481625 -0.0158703
v 0.0240678 0.01322885 -0.0132254
v 0.0230107 0.01111145 -0.014283
v 0.0219519 0.00899675 -0.0132254
v 0.0215113 0.01023165 -0.0201026
v 0.0215113 0.01128905 -0.0222178
v 0.0214225 0.01217155 -0.0238033
v 0.0215113 0.01763595 -0.0317381
v 0.0218665 0.01846195 -0.0323254
v 0.0177493 0.01669695 -0.0323254
v 0.0188063 0.01669695 -0.0323254
v 0.0193955 0.00987923 -0.0218666
v 0.0193955 0.00881918 -0.0197495
v 0.0199744 0.00715646 -0.0127167
v 0.0191752 0.00767303 -0.0158703
v 0.019042 0.00740936 -0.0148127
v 0.0177305 0.00715646 -0.0127167
v 0.017809 0.00829184 -0.0171045
v 0.0154507 0.0080497 -0.0127167
v 0.0169313 0.00741474 -0.0127167
v 0.0239841 0.01305935 -0.0127167
v 0.0222064 0.00950526 -0.0127167
v 0.0218665 0.00882725 -0.0127167
v 0.0215045 0.00812234 -0.0127167
v 0.0203655 0.01005415 -0.02169
v 0.0208948 0.00899675 -0.0174577
v 0.0204526 0.00917433 -0.019045
v 0.0208948 0.01111145 -0.0227457
v 0.0208214 0.01743145 -0.0323254
v 0.0213149 0.01783235 -0.0323254
v 0.0194553 0.01681265 -0.0323254
v 0.0201144 0.01696065 -0.0323254
v 0.0199676 0.00926042 -0.0201026
v 0.0198361 0.00899675 -0.0195729
v 0.0202323 0.00873309 -0.0179855
v 0.0214857 0.00810889 -0.0127167
v 0.0190215 0.0068901 -0.0127167
f 1 2 5
f 1 5 11
f 1 11 19
f 1 19 33
f 1 33 34
f 1 34 45
f 1 45 49
f 1 49 48
f 1 48 54
f 1 54 67
f 1 67 82
f 1 82 90
f 1 90 89
f 1 89 88
f 1 88 107
f 1 107 127
f 1 127 128
f 1 128 125
f 1 125 145
f 1 145 122
f 1 122 144
f 1 144 132
f 1 132 131
f 1 131 130
f 1 130 129
f 1 129 108
f 1 108 91
f 1 91 73
f 1 73 61
f 1 61 50
f 1 50 42
f 1 42 41
f 1 41 40
f 1 40 39
f 1 39 38
f 1 38 23
f 1 23 22
f 1 22 13
f 1 13 7
f 1 7 3
f 1 3 4
f 1 4 6
f 1 6 2
f 2 6 5
f 3 7 8
f 3 8 9
f 3 9 4
f 4 9 10
f 4 10 17
f 4 17 32
f 4 32 30
f 4 30 29
f 4 29 44
f 4 44 53
f 4 53 66
f 4 66 81
f 4 81 98
f 4 98 117
f 4 117 138
f 4 138 137
f 4 137 140
f 4 140 139
f 4 139 119
f 4 119 118
f 4 118 99
f 4 99 83
f 4 83 68
f 4 68 56
f 4 56 46
f 4 46 37
f 4 37 36
f 4 36 35
f 4 35 21
f 4 21 12
f 4 12 6
f 5 6 12
f 5 12 11
f 7 13 14
f 7 14 9
f 7 9 8
f 9 14 15
f 9 15 10
f 10 15 16
f 10 16 17
f 11 18 19
f 11 12 18
f 12 20 18
f 12 21 20
f 13 22 14
f 14 22 23
f 14 23 24
f 14 24 25
f 14 25 15
f 15 26 27
f 15 27 28
f 15 28 29
f 15 29 30
f 15 30 16
f 15 25 31
f 15 31 26
f 16 32 17
f 16 30 32
f 18 20 19
f 19 20 33
f 20 34 33
f 20 21 35
f 20 35 36
f 20 36 37
f 20 37 34
f 23 38 24
f 24 38 39
f 24 39 25
f 25 39 40
f 25 40 31
f 26 40 27
f 26 31 40
f 27 40 41
f 27 41 42
f 27 42 43
f 27 43 28
f 28 43 29
f 29 43 44
f 34 37 45
f 37 46 55
f 37 55 47
f 37 47 48
f 37 48 49
f 37 49 45
f 42 50 43
f 43 50 51
f 43 51 52
f 43 52 44
f 44 52 63
f 44 63 53
f 46 54 55
f 46 56 57
f 46 57 58
f 46 58 59
f 46 59 60
f 46 60 54
f 47 55 54
f 47 54 48
f 50 61 74
f 50 74 62
f 50 62 51
f 51 62 63
f 51 63 52
f 53 63 64
f 53 64 65
f 53 65 66
f 54 60 67
f 56 68 57
f 57 68 69
f 57 69 70
f 57 70 71
f 57 71 58
f 58 71 72
f 58 72 59
f 59 72 60
f 60 72 67
f 61 73 74
f 62 74 63
f 63 75 65
f 63 65 64
f 63 74 73
f 63 73 76
f 63 76 77
f 63 77 75
f 65 77 78
f 65 78 79
f 65 79 80
f 65 80 81
f 65 81 66
f 65 75 77
f 67 72 82
f 68 83 84
f 68 84 85
f 68 85 86
f 68 86 87
f 68 87 69
f 69 87 88
f 69 88 70
f 70 89 71
f 70 88 89
f 71 89 90
f 71 90 82
f 71 82 72
f 73 91 92
f 73 92 76
f 76 92 77
f 77 92 78
f 78 92 93
f 78 93 94
f 78 94 95
f 78 95 96
f 78 96 79
f 79 96 80
f 80 97 81
f 80 96 97
f 81 97 98
f 83 99 100
f 83 100 85
f 83 85 84
f 85 100 86
f 86 101 102
f 86 102 103
f 86 103 104
f 86 104 105
f 86 105 106
f 86 106 87
f 86 100 101
f 87 106 88
f 88 106 107
f 91 108 109
f 91 109 92
f 92 109 93
f 93 109 108
f 93 108 110
f 93 110 111
f 93 111 94
f 94 111 95
f 95 111 112
f 95 112 113
f 95 113 114
f 95 114 96
f 96 114 115
f 96 115 97
f 97 116 117
f 97 117 98
f 97 115 116
f 99 118 100
f 100 118 101
f 101 119 120
f 101 120 103
f 101 103 102
f 101 118 119
f 103 121 122
f 103 122 123
f 103 123 124
f 103 124 125
f 103 125 126
f 103 126 104
f 103 120 121
f 104 126 105
f 105 127 106
f 105 126 125
f 105 125 128
f 105 128 127
f 106 127 107
f 108 129 111
f 108 111 110
f 111 130 112
f 111 129 130
f 112 130 131
f 112 131 132
f 112 132 113
f 113 133 114
f 113 132 134
f 113 134 135
f 113 135 133
f 114 133 136
f 114 136 115
f 115 136 137
f 115 137 138
f 115 138 116
f 116 138 117
f 119 139 120
f 120 133 121
f 120 139 140
f 120 140 133
f 121 133 141
f 121 141 142
f 121 142 143
f 121 143 122
f 122 145 123
f 122 143 134
f 122 134 144
f 123 145 124
f 124 145 125
f 132 144 134
f 133 135 141
f 133 140 137
f 133 137 136
f 134 143 135
f 135 143 142
f 135 142 141
