o piece_003
v 0.0169221 -0.01010095 -0.00127564
v 0.028347 -0.03342035 -0.00127564
v 0.0169221 -0.01010095 -0.0021167
v -0.0169221 -0.01010095 -0.00127564
v 0.0285148 -0.03385325 -0.00127564
v 0.0285651 -0.03491295 -0.00423222
v 0.0282072 -0.03420645 -0.004585
v 0.0282072 -0.03315165 -0.00141115
v 0.016732 -0.01010095 -0.00250083
v 0.0282072 -0.03526625 -0.00670052
v 0.0271503 -0.03420645 -0.00881605
v 0.0269769 -0.03438555 -0.0097859
v 0.0261717 -0.03481845 -0.0127167
v 0.0257578 -0.03405725 -0.0127167
v -0.0169221 -0.01010095 -0.0021167
v -0.0275026 -0.03173875 -0.00127564
v 0.0285651 -0.03407215 -0.00127564
v 0.0285651 -0.03596775 -0.00634887
v 0.015675 -0.01010095 -0.00461748
v 0.0282967 -0.03596775 -0.0075371
v 0.0280339 -0.03544035 -0.00766925
v 0.0272286 -0.03692795 -0.0127167
v 0.0238006 -0.03121135 -0.0127167
v 0.0141036 -0.01010095 -0.00775773
v 0.0142658 -0.01010095 -0.00743743
v 0.0146181 -0.01010095 -0.006733
v -0.0166369 -0.01010095 -0.00269346
v -0.0261717 -0.03477365 -0.0127167
v -0.0261828 -0.03477865 -0.0126954
v -0.0272398 -0.03477865 -0.0095216
v -0.0282967 -0.03477865 -0.00529055
v -0.0272398 -0.03160435 -0.00317502
v -0.0275026 -0.03173875 -0.0021167
v -0.0285092 -0.03382835 -0.00127564
v 0.0285651 -0.04019675 -0.00127564
v 0.0285651 -0.03702255 -0.00740495
v 0.0282967 -0.03702255 -0.00859542
v 0.0272621 -0.03702255 -0.0127167
v 0.0216979 -0.02858435 -0.0127167
v 0.0119898 -0.01010095 -0.00987325
v 0.0130467 -0.01010095 -0.00881605
v -0.01558 -0.01010095 -0.00480898
v -0.0246785 -0.03245015 -0.0127167
v -0.0272286 -0.03688815 -0.0127167
v -0.0151606 -0.01010095 -0.00564332
v -0.0130467 -0.01010095 -0.00881605
v -0.0272398 -0.03689315 -0.0126954
v -0.0285651 -0.03491295 -0.00423222
v -0.0285651 -0.03407215 -0.00127564
v 0.0285651 -0.04019675 -0.00740495
v 0.0275026 -0.04337105 -0.00127564
v 0.0285651 -0.03808225 -0.00846327
v 0.0274635 -0.03791315 -0.0127167
v 0.0214183 -0.02830575 -0.0127167
v 0.00422773 -0.01010095 -0.0126954
v 0.00846105 -0.01010095 -0.0116371
v 0.0101946 -0.01010095 -0.0107714
v -0.0240578 -0.03159935 -0.0127167
v -0.0119898 -0.01010095 -0.00987325
v -0.0274914 -0.03807235 -0.0127167
v -0.0275026 -0.03808225 -0.0126954
v -0.0275026 -0.03702255 -0.0116371
v -0.0285651 -0.03702255 -0.00634887
v -0.0285651 -0.04019675 -0.00127564
v 0.0275026 -0.04125655 -0.0116371
v 0.0285651 -0.03914205 -0.00846327
v 0.0275026 -0.04337105 -0.00634887
v 0.0272398 -0.04389845 -0.00687747
v 0.0272398 -0.04284365 -0.0100502
v 0.0272398 -0.04178395 -0.0121657
v 0.026798 -0.04478405 -0.00127564
v 0.0275026 -0.03808225 -0.0126954
v 0.0274914 -0.03808225 -0.0127167
v 0.0211331 -0.02802705 -0.0127167
v 0.0208031 -0.02785795 -0.0127167
v 0.0169053 -0.02590765 -0.0127167
v 0.0159099 -0.02541005 -0.0127167
v 0.0158652 -0.02539015 -0.0127167
v -0.0031708 -0.01010095 -0.0126954
v -0.0215077 -0.02822115 -0.0127167
v -0.0111565 -0.01010095 -0.010291
v -0.0274914 -0.04018685 -0.0127167
v -0.0275026 -0.04019675 -0.0126954
v -0.0285651 -0.03914205 -0.00846327
v -0.0275026 -0.04337105 -0.00127564
v -0.0285651 -0.04019675 -0.00740495
v 0.0275026 -0.04019675 -0.0126954
v 0.0268427 -0.04443085 -0.00740495
v 0.026798 -0.04478405 -0.00634887
v 0.026798 -0.04372435 -0.0095216
v 0.0268427 -0.04231135 -0.0126954
v 0.0274914 -0.04021665 -0.0127167
v 0.0246841 -0.04795835 -0.00127564
v -0.0148082 -0.02539015 -0.0127167
v -0.0158875 -0.02540015 -0.0127167
v -0.0200985 -0.02750465 -0.0127167
v -0.0208031 -0.02785795 -0.0127167
v -0.00798012 -0.01010095 -0.0116371
v -0.0105749 -0.01010095 -0.0105788
v -0.00905942 -0.01010095 -0.0112978
v -0.00846105 -0.01010095 -0.0115307
v -0.0274858 -0.04021665 -0.0127167
v -0.0272286 -0.04127645 -0.0127167
v -0.0273293 -0.04107745 -0.0125185
v -0.0275026 -0.04125655 -0.0116371
v -0.0273964 -0.04358995 -0.00127564
v -0.0275026 -0.04337105 -0.00529055
v -0.0275026 -0.04231135 -0.0095216
v 0.0257411 -0.04583885 -0.00740495
v 0.0246841 -0.04795835 -0.00317502
v 0.0257411 -0.04372435 -0.0126954
v 0.0268371 -0.04229145 -0.0127167
v 0.0268148 -0.04233615 -0.0127167
v 0.0235265 -0.04899815 -0.00127564
v -0.0269769 -0.04284365 -0.0111085
v -0.0266526 -0.04252025 -0.0127167
v -0.026798 -0.04478405 -0.00564332
v -0.026798 -0.04478405 -0.00141115
v -0.0268651 -0.04464475 -0.00127564
v -0.026798 -0.04372435 -0.00987325
v 0.0246841 -0.04583885 -0.0105788
v 0.0236272 -0.04795835 -0.00634887
v 0.0215077 -0.05007285 -0.00317502
v 0.0257355 -0.04371935 -0.0127167
v 0.00412148 -0.06048625 -0.00127564
v -0.0258082 -0.04378895 -0.0127167
v -0.02592 -0.04389845 -0.0121657
v -0.0266246 -0.04355015 -0.0107557
v -0.0257411 -0.04583885 -0.00775773
v -0.0246841 -0.04795835 -0.00246947
v -0.0246841 -0.04795835 -0.00127564
v -0.0257411 -0.04478405 -0.0109316
v 0.0246841 -0.04478405 -0.0126954
v 0.0225647 -0.04795835 -0.0095216
v 0.0225647 -0.04689855 -0.0126954
v 0.0236272 -0.04583885 -0.0126954
v 0.0246785 -0.04477415 -0.0127167
v 0.0029527 -0.06091905 -0.00127564
v 0.0179846 -0.04971465 -0.0127167
v 0.0193659 -0.04902305 -0.0127167
v 0.0193939 -0.04901305 -0.0126954
v -0.0247512 -0.04484875 -0.0127167
v -0.0246841 -0.04689855 -0.00775773
v -0.0236272 -0.04795835 -0.00670052
v -0.0236272 -0.04901305 -0.00141115
v -0.0236272 -0.04901305 -0.00127564
v -0.0236272 -0.04689855 -0.0109316
v 0.0215077 -0.04795835 -0.0116371
v 0.0225423 -0.04690355 -0.0127167
v 0.0225591 -0.04688865 -0.0127167
v 0.0193827 -0.04901305 -0.0127167
v 0.0179623 -0.04971955 -0.0127167
v -0.0027346 -0.06091905 -0.00127564
v -0.0226318 -0.04696325 -0.0127167
v -0.0225647 -0.04795835 -0.00987325
v -0.0215077 -0.04901305 -0.00881605
v -0.0225647 -0.04901305 -0.00564332
v -0.0204508 -0.05007285 -0.00670052
v -0.0215077 -0.05007285 -0.00246947
v -0.0195672 -0.05130675 -0.00158698
v -0.0201936 -0.05099325 -0.00127564
v -0.0215077 -0.04795835 -0.0127167
v -0.0169221 -0.04971955 -0.0127167
v -0.0206298 -0.04919225 -0.0100502
v -0.0195672 -0.04919225 -0.0121657
v -0.019461 -0.04908275 -0.0127167
v -0.017979 -0.04971465 -0.0127167
f 1 2 3
f 1 3 9
f 1 9 19
f 1 19 26
f 1 26 25
f 1 25 24
f 1 24 41
f 1 41 40
f 1 40 57
f 1 57 56
f 1 56 55
f 1 55 79
f 1 79 98
f 1 98 101
f 1 101 100
f 1 100 99
f 1 99 81
f 1 81 59
f 1 59 46
f 1 46 45
f 1 45 42
f 1 42 27
f 1 27 15
f 1 15 4
f 1 4 16
f 1 16 34
f 1 34 49
f 1 49 64
f 1 64 85
f 1 85 106
f 1 106 119
f 1 119 131
f 1 131 146
f 1 146 161
f 1 161 153
f 1 153 138
f 1 138 125
f 1 125 114
f 1 114 93
f 1 93 71
f 1 71 51
f 1 51 35
f 1 35 17
f 1 17 5
f 1 5 2
f 2 5 6
f 2 6 7
f 2 7 8
f 2 8 3
f 3 8 7
f 3 7 10
f 3 10 11
f 3 11 12
f 3 12 13
f 3 13 14
f 3 14 9
f 4 15 33
f 4 33 16
f 5 17 6
f 6 17 35
f 6 35 50
f 6 50 66
f 6 66 52
f 6 52 36
f 6 36 18
f 6 18 7
f 7 18 10
f 9 14 19
f 10 18 20
f 10 20 21
f 10 21 11
f 11 21 12
f 12 21 22
f 12 22 13
f 13 22 38
f 13 38 53
f 13 53 73
f 13 73 92
f 13 92 112
f 13 112 113
f 13 113 124
f 13 124 137
f 13 137 150
f 13 150 149
f 13 149 151
f 13 151 140
f 13 140 139
f 13 139 152
f 13 152 163
f 13 163 167
f 13 167 166
f 13 166 162
f 13 162 154
f 13 154 142
f 13 142 126
f 13 126 116
f 13 116 103
f 13 103 102
f 13 102 82
f 13 82 60
f 13 60 44
f 13 44 28
f 13 28 43
f 13 43 58
f 13 58 80
f 13 80 97
f 13 97 96
f 13 96 95
f 13 95 94
f 13 94 78
f 13 78 77
f 13 77 76
f 13 76 75
f 13 75 74
f 13 74 54
f 13 54 39
f 13 39 23
f 13 23 14
f 14 23 24
f 14 24 25
f 14 25 26
f 14 26 19
f 15 27 28
f 15 28 29
f 15 29 30
f 15 30 31
f 15 31 32
f 15 32 33
f 16 33 34
f 18 36 37
f 18 37 20
f 20 37 38
f 20 38 22
f 20 22 21
f 23 39 40
f 23 40 41
f 23 41 24
f 27 42 28
f 28 44 47
f 28 47 29
f 28 42 45
f 28 45 46
f 28 46 43
f 29 47 30
f 30 47 31
f 31 48 32
f 31 47 48
f 32 48 33
f 33 48 34
f 34 48 49
f 35 51 67
f 35 67 50
f 36 52 37
f 37 52 53
f 37 53 38
f 39 54 55
f 39 55 56
f 39 56 57
f 39 57 40
f 43 46 59
f 43 59 58
f 44 60 47
f 47 60 61
f 47 61 62
f 47 62 48
f 48 62 63
f 48 63 84
f 48 84 86
f 48 86 64
f 48 64 49
f 50 65 66
f 50 67 68
f 50 68 69
f 50 69 70
f 50 70 65
f 51 71 68
f 51 68 67
f 52 66 87
f 52 87 72
f 52 72 53
f 53 72 73
f 54 74 55
f 55 74 75
f 55 75 76
f 55 76 77
f 55 77 78
f 55 78 94
f 55 94 79
f 58 59 80
f 59 81 80
f 60 82 83
f 60 83 61
f 61 83 84
f 61 84 63
f 61 63 62
f 64 86 107
f 64 107 85
f 65 87 66
f 65 70 87
f 68 88 69
f 68 71 89
f 68 89 88
f 69 88 90
f 69 90 91
f 69 91 70
f 70 91 92
f 70 92 87
f 71 93 110
f 71 110 89
f 72 87 92
f 72 92 73
f 79 94 95
f 79 95 96
f 79 96 97
f 79 97 80
f 79 80 98
f 80 81 99
f 80 99 100
f 80 100 101
f 80 101 98
f 82 102 83
f 83 102 103
f 83 103 104
f 83 104 105
f 83 105 84
f 84 105 86
f 85 107 106
f 86 105 108
f 86 108 107
f 88 89 109
f 88 109 90
f 89 110 109
f 90 109 121
f 90 121 111
f 90 111 91
f 91 112 92
f 91 111 113
f 91 113 112
f 93 114 110
f 103 115 105
f 103 105 104
f 103 116 115
f 105 115 108
f 106 117 118
f 106 118 119
f 106 107 117
f 107 108 117
f 108 115 120
f 108 120 117
f 109 110 122
f 109 122 121
f 110 114 123
f 110 123 122
f 111 121 124
f 111 124 113
f 114 125 123
f 115 116 126
f 115 126 127
f 115 127 128
f 115 128 120
f 117 120 129
f 117 129 130
f 117 130 131
f 117 131 118
f 118 131 119
f 120 128 132
f 120 132 129
f 121 133 124
f 121 122 134
f 121 134 135
f 121 135 136
f 121 136 133
f 122 123 134
f 123 125 134
f 124 133 136
f 124 136 137
f 125 138 139
f 125 139 140
f 125 140 141
f 125 141 134
f 126 142 132
f 126 132 127
f 127 132 128
f 129 132 143
f 129 143 130
f 130 143 144
f 130 144 145
f 130 145 146
f 130 146 131
f 132 142 147
f 132 147 143
f 134 141 148
f 134 148 135
f 135 149 150
f 135 150 136
f 135 148 141
f 135 141 151
f 135 151 149
f 136 150 137
f 138 152 139
f 138 153 163
f 138 163 152
f 140 151 141
f 142 154 147
f 143 147 144
f 144 147 155
f 144 155 156
f 144 156 157
f 144 157 145
f 145 157 158
f 145 158 159
f 145 159 160
f 145 160 161
f 145 161 146
f 147 154 162
f 147 162 155
f 153 161 160
f 153 160 158
f 153 158 156
f 153 156 164
f 153 164 165
f 153 165 166
f 153 166 167
f 153 167 163
f 155 162 156
f 156 162 164
f 156 158 157
f 158 160 159
f 162 166 165
f 162 165 164
