o piece_001
v -0.0264492 0.01481265 0.00105999
v -0.0264492 0.01481265 0.00740914
v -0.0264492 0.01587075 -0.00127117
v -0.0243314 -0.01480715 0.020103
v -0.0264492 0.01692885 0.00952552
v -0.0243314 -0.01374915 0.0211634
v -0.0264492 0.02411515 -0.00127117
v -0.0157566 -0.02104555 -0.00127117
v -0.0202615 -0.02125955 0.00423233
v -0.0216388 -0.02125955 0.00701539
v -0.0221256 -0.02125955 0.00816978
v -0.0231042 -0.02125955 0.0114495
v -0.0231405 -0.02125955 0.0116419
v -0.0233113 -0.02125955 0.012595
v -0.0232751 -0.02125955 0.020103
v -0.0264492 0.02010305 0.0105815
v -0.0232751 -0.01586525 0.0243313
v -0.0232751 -0.01057495 0.0253872
v -0.0243314 -0.00845877 0.0211634
v -0.0264492 0.02433535 -0.0010564
v -0.0263922 0.02435975 -0.00127117
v -0.0156893 -0.02125955 -0.00127117
v -0.0222136 -0.02125955 0.0243313
v -0.0264492 0.02327725 0.0105815
v -0.0218977 -0.02125955 0.0249666
v -0.0219495 -0.01692335 0.0265774
v -0.0215094 -0.01586525 0.0278571
v -0.0225657 -0.01057495 0.0268011
v -0.0215094 5.80014e-06 0.0299735
v -0.0222136 5.80014e-06 0.028564
v -0.0232751 0.01058035 0.0253872
v -0.0264492 0.02539335 0.00211594
v -0.0253877 0.02750955 0.00105999
v -0.0251236 0.02763795 4.0335e-06
v -0.0253877 0.02645145 -0.00127117
v 0.0157566 -0.02125955 -0.00127117
v -0.0243314 0.02539335 0.0169306
v -0.0264492 0.02433535 0.00952552
v -0.0211935 -0.02125955 0.0263805
v -0.020101 -0.02125955 0.028564
v -0.0194278 -0.02125955 0.0299063
v -0.0193916 -0.02125955 0.0299735
v -0.0193916 -0.01798145 0.0310294
v -0.0204531 -0.01374915 0.0299735
v -0.0193916 0.00529615 0.0342062
v -0.0204531 0.00318001 0.0320898
v -0.020101 0.00529615 0.0327968
v -0.0222136 0.00952844 0.028564
v -0.0219495 0.01004825 0.029092
v -0.0230058 0.01110635 0.0259197
v -0.0240673 0.02591935 0.0174586
v -0.0264492 0.02539335 0.00846509
v -0.0243314 0.02962565 0.00317637
v -0.0236272 0.03103235 0.00317637
v -0.0246835 0.02891625 0.00105999
v -0.0236272 0.02997425 -0.00127117
v -0.0243314 0.02856755 -0.00127117
v 0.0201994 -0.02125955 0.00418311
v 0.0263353 0.01565055 -0.00127117
v -0.0240673 0.02697745 0.0164027
v -0.0240673 0.02909355 0.0142863
v -0.017279 -0.02125955 0.0331458
v -0.0183353 -0.02009755 0.0320898
v -0.0183353 -0.01480715 0.0331458
v -0.0183353 -0.0074007 0.0342062
v -0.0183353 5.80014e-06 0.0352622
v -0.0183353 0.00847037 0.0363226
v -0.0198369 0.01110635 0.0333248
v -0.020101 0.01058035 0.0327968
v -0.0211573 0.01058035 0.0306804
v -0.0208932 0.01110635 0.0312084
v -0.0226123 0.02433535 0.0211634
v -0.0226123 0.02645145 0.020103
v -0.0236686 0.02645145 0.0179866
v -0.0230058 0.03015165 0.0164027
v -0.0261799 0.02591935 0.00899307
v -0.0251236 0.02803555 0.0100535
v -0.0240673 0.03015165 0.0100535
v -0.0243314 0.02962565 0.00952552
v -0.0236272 0.03103235 0.00952552
v -0.0215094 0.03420655 0.00952552
v -0.0225657 0.03209045 4.0335e-06
v -0.0215094 0.03314845 -0.00127117
v 0.0212609 -0.02125955 0.00629949
v 0.0263664 0.01587075 -0.00127117
v 0.0264492 0.01587075 -0.0010564
v 0.0230576 -0.02125955 0.0104741
v 0.0230058 -0.02125955 0.0103488
v 0.0217372 -0.02125955 0.00730623
v -0.0236686 0.02962565 0.0148142
v -0.0230058 0.03120975 0.0142863
v -0.0161864 -0.02125955 0.0342107
v -0.0151612 -0.02115565 0.0352622
v -0.0151612 -0.01692335 0.0363226
v -0.017279 -0.01692335 0.0342062
v -0.017279 -0.01057495 0.0352622
v -0.017279 0.00529615 0.0373786
v -0.0183353 0.00952844 0.0363226
v -0.0187754 0.01004825 0.0354412
v -0.0194382 0.01163845 0.0338527
v -0.0183819 0.01587075 0.0338527
v -0.0183819 0.01798685 0.0327968
v -0.021556 0.02856755 0.020103
v -0.0203651 0.03015165 0.0206309
v -0.0203651 0.03120975 0.019575
v -0.0203651 0.03226775 0.0185146
v -0.021556 0.03173565 0.0169306
v -0.0225657 0.03103235 0.0158702
v -0.0225657 0.03209045 0.0137538
v -0.0215094 0.03420655 0.0116419
v -0.0204531 0.03526465 0.00952552
v -0.0208052 0.03456125 0.00423233
v -0.0204531 0.03420655 -0.00127117
v 0.0264492 0.01692885 -0.00127117
v 0.0264492 0.01481265 0.00211594
v 0.0243314 -0.01480715 0.020103
v 0.0233217 -0.02125955 0.0116911
v 0.023301 -0.02125955 0.0115479
v -0.0151249 -0.02125955 0.0352309
v -0.0138563 -0.02125955 0.0362376
v -0.0137528 -0.02115565 0.0363674
v -0.0148091 -0.01798145 0.0363674
v -0.0130434 -0.01480715 0.038439
v -0.0141049 -0.00951684 0.038439
v -0.0162175 -0.01163295 0.0363226
v -0.0151612 0.00635423 0.0394949
v -0.017279 0.00952844 0.0373786
v -0.0151612 0.01269655 0.038439
v -0.017279 0.01587075 0.0352622
v -0.0183353 0.01269655 0.0352622
v -0.0187754 0.01322255 0.0343807
v -0.017279 0.01798685 0.0342062
v -0.0177191 0.01851285 0.0333248
v -0.0171909 0.01957095 0.0333248
v -0.0183819 0.02221915 0.02962
v -0.0171909 0.02380325 0.030148
v -0.0140168 0.03120975 0.0259197
v -0.0171909 0.02591935 0.0280361
v -0.0140168 0.02380325 0.0333248
v -0.0108427 0.02697745 0.0333248
v -0.0182473 0.03438395 0.0174586
v -0.0193036 0.03438395 0.0164027
v -0.0204531 0.03420655 0.0148142
v -0.0208932 0.03226775 0.0174586
v -0.0129553 0.03120975 0.0269756
v -0.0193916 0.03526465 0.0137538
v -0.0183353 0.03632275 0.0116419
v -0.017279 0.03738075 0.00952552
v -0.0162175 0.03843885 0.00423233
v -0.0162175 0.03843885 0.00317637
v -0.017279 0.03738075 -0.0010564
v -0.0183353 0.03632275 -0.00127117
v 0.0264492 0.02327725 -0.00127117
v 0.0264492 0.01481265 0.00740914
v 0.0243314 -0.01480715 0.0211634
v 0.0233217 -0.02125955 0.0147113
v -0.0117023 -0.02125955 0.0373517
v -0.0126913 -0.02009755 0.0374233
v -0.0137528 -0.01692335 0.0374233
v -0.0126913 -0.01586525 0.0384793
v -0.0121631 -0.01533315 0.0388775
v -0.0121631 -0.00792667 0.0399379
v -0.0130434 -0.0074007 0.0394949
v -0.0141049 -0.00105227 0.0394949
v -0.0151612 -0.00211034 0.038439
v -0.0130434 0.00423808 0.0405554
v -0.0142809 0.00582213 0.0399379
v -0.0151612 0.0074123 0.0394949
v -0.0162175 0.00847037 0.038439
v -0.0141049 0.01163845 0.0394949
v -0.0141049 0.01481265 0.038439
v -0.0151612 0.01587075 0.0373786
v -0.0162175 0.01798685 0.0352622
v -0.0150731 0.01957095 0.0354412
v -0.0150731 0.02274515 0.0333248
v -0.0161295 0.02274515 0.0322643
v -0.0108427 0.02909355 0.0312084
v -0.0108427 0.03015165 0.030148
v -0.011899 0.02486125 0.0343807
v -0.00978123 0.02486125 0.0354412
v -0.00872492 0.02697745 0.0343807
v -0.0066123 0.02909355 0.0333248
v -0.0140168 0.03544205 0.019575
v -0.0171909 0.03544205 0.0164027
v -0.011899 0.03332585 0.0248592
v -0.0182473 0.03544205 0.0153422
v -0.00978123 0.03226775 0.0280361
v -0.0181126 0.03570495 0.0148142
v -0.0141049 0.03843885 0.0126979
v -0.0165748 0.03773555 0.00952552
v -0.0155133 0.03879355 0.00423233
v -0.0155133 0.03879355 0.00317637
v -0.0153372 0.03887925 0.00264839
v -0.0165023 0.03777225 -0.00127117
v -0.0172065 0.03739305 -0.00127117
v 0.0262058 0.02423745 -0.00127117
v 0.0264492 0.02433535 4.0335e-06
v 0.0264492 0.01692885 0.00952552
v 0.0243314 -0.01163295 0.0222149
v 0.0232751 -0.01586525 0.0243313
v 0.0222136 -0.02125955 0.0243313
v 0.0230835 -0.02125955 0.020971
v 0.0231715 -0.02125955 0.0206175
v 0.0232751 -0.02125955 0.020103
v 0.0264492 0.02010305 0.0105815
v -0.00958965 -0.02125955 0.0384077
v -0.00951716 -0.02125955 0.0384435
v -0.00951716 -0.02115565 0.0384793
v -0.0121631 -0.01956545 0.0378215
v -0.008989 -0.02062355 0.0388775
v -0.0111068 -0.01215895 0.0399379
v -0.0100505 -0.00792667 0.0409939
v -0.008989 -0.00369439 0.0420498
v -0.0132246 -0.00157825 0.0399379
v -0.0121631 0.00370599 0.0409939
v -0.0102265 0.00423808 0.0419648
v -0.0102265 0.00635423 0.0419648
v -0.0137528 0.0074123 0.0402019
v -0.0130434 0.00847037 0.0405554
v -0.0134007 0.01163845 0.0398484
v -0.0128259 0.01269655 0.0399379
v -0.0117696 0.01481265 0.0399379
v -0.0130434 0.01375465 0.0394949
v -0.011899 0.01533865 0.0396694
v -0.0140168 0.01745475 0.0375575
v -0.0129553 0.02062905 0.0364971
v -0.00872492 0.03015165 0.0312084
v -0.00978123 0.02168705 0.0375575
v -0.0066123 0.02380325 0.0375575
v -0.00555081 0.02591935 0.0364971
v -0.00493463 0.02997425 0.0331458
v -0.0066123 0.03015165 0.0322643
v -0.00387832 0.02680005 0.0363226
v -0.011899 0.03650005 0.019575
v -0.0108427 0.03755815 0.0185146
v -0.0140168 0.03755815 0.0153422
v -0.0129553 0.03861625 0.0142863
v -0.0128259 0.03887925 0.0137538
v -0.00563884 0.03032905 0.0324433
v -0.00881295 0.03244515 0.0282106
v -0.00881295 0.03561935 0.0229218
v -0.00978123 0.03544205 0.0227429
v -0.0134007 0.03879355 0.0126979
v -0.0123392 0.03985165 0.00952552
v -0.0148091 0.03914215 0.00423233
v -0.0148091 0.03914215 0.00317637
v -0.011635 0.04020025 -0.00127117
v -0.0117799 0.04013295 -0.00127117
v -0.0138977 0.03907495 -0.00127117
v 0.0251495 0.02741165 -0.00127117
v 0.0253877 0.02750955 4.0335e-06
v 0.0264492 0.02539335 0.00529276
v 0.0243314 -0.01057495 0.0222149
v 0.0232751 -0.00951684 0.0253872
v 0.0229178 -0.01621385 0.0250382
v 0.0229178 -0.00987157 0.0260942
v 0.0218615 -0.02125955 0.0250382
v 0.0264492 0.02221915 0.0105815
v -0.00750809 -0.02125955 0.0390923
v -0.00687638 -0.01850735 0.0399379
v -0.00793269 -0.01215895 0.0409939
v -0.0105786 -0.01163295 0.0402019
v -0.00846085 -0.00316841 0.0423183
v -0.0100505 0.00370599 0.0420498
v -0.00951716 0.00423808 0.0423183
v -0.00951716 0.00635423 0.0423183
v -0.011635 0.00847037 0.0412579
v -0.0119871 0.01163845 0.0405554
v -0.0105786 0.01163845 0.0412579
v -0.0107081 0.01269655 0.0409939
v -0.00859547 0.01163845 0.0420498
v -0.00435987 0.01269655 0.0431102
v -0.00859547 0.01798685 0.0399379
v -0.0108427 0.01639675 0.0396694
v -0.0108427 0.02062905 0.0375575
v -0.00766861 0.01957095 0.0396694
v -0.00555081 0.02274515 0.0386135
v -0.00343819 0.02380325 0.0386135
v -0.0044945 0.02486125 0.0375575
v -0.00458253 0.02609675 0.0366761
v -0.00246473 0.03032905 0.0334993
v -0.000704207 0.02785815 0.0363226
v -0.00986926 0.03773555 0.0186935
v -0.00109774 0.04122165 0.0164205
v -0.0117696 0.03887925 0.0148142
v -0.011899 0.03861625 0.0153422
v -0.00172945 0.04122165 0.0159149
v -0.0117696 0.03993725 0.0105815
v -0.0126913 0.03914215 0.0126979
v -0.00458253 0.03138705 0.0313829
v -0.011635 0.04020025 0.00952552
v -0.00316893 0.04122165 0.00846509
v -0.00262007 0.04122165 0.0073644
v -0.00246473 0.04122165 0.00705566
v -0.00215405 0.04122165 0.00689906
v -0.00105631 0.04122165 0.00634871
v 0.011635 0.04020025 -0.00127117
v 0.0251185 0.02748505 -0.00127117
v 0.0250356 0.02821285 -0.000349443
v 0.0243314 0.02962565 0.00317637
v 0.0264492 0.02539335 0.00846509
v 0.0232751 0.00847037 0.0253872
v 0.0222136 5.80014e-06 0.028564
v 0.0218615 -0.000348929 0.0292665
v 0.0218615 -0.01621385 0.0271501
v 0.0201528 -0.02125955 0.0284611
v 0.0264492 0.02433535 0.00952552
v 0.0253877 0.02539335 0.0137538
v -0.00327249 -0.02125955 0.0401482
v -0.00316893 -0.02115565 0.0402019
v -0.00423042 -0.02009755 0.0402019
v -0.00370227 -0.01744935 0.0409939
v -0.00634305 -0.01798145 0.0402019
v -0.00740453 -0.01163295 0.0412579
v -0.00634305 -0.0074007 0.0423183
v -0.00740453 -0.00528456 0.0423183
v -0.00528673 -0.00211034 0.0433742
v -0.00634305 0.00106387 0.0433742
v -0.00316893 0.00318001 0.0444347
v -0.00316893 0.00529615 0.0444347
v -0.00634305 0.00635423 0.0433742
v -0.00846085 0.01058035 0.0423183
v -0.00423042 0.01163845 0.0433742
v -0.00211262 0.00952844 0.0444347
v -0.00316893 0.01269655 0.0433742
v -0.00211262 0.01692885 0.0423183
v -0.00330356 0.01692885 0.0420498
v -0.00542136 0.01798685 0.0409939
v -0.00753398 0.01904495 0.0399379
v -0.00555081 0.01851285 0.0407299
v -0.00670033 0.01974835 0.0398484
v -0.00458253 0.02292255 0.038788
v -0.00246473 0.02398055 0.038788
v -0.00352622 0.02503865 0.037732
v -0.00176052 0.02468395 0.038439
v -0.00140841 0.02715475 0.0366761
v -0.000704207 0.02997425 0.0342062
v -0.000704207 0.03209045 0.0310294
v 0.00140841 0.02785815 0.0363226
v 0.00101489 0.04122165 0.0164205
v -0.00211262 0.04122165 0.0148142
v -0.00316893 0.04122165 0.00952552
v 0.00105631 0.04122165 0.00634871
v 0.0120699 0.03998625 -0.00127117
v 0.00173463 0.04122165 0.00668876
v 0.00243884 0.04122165 0.00704224
v 0.00246473 0.04122165 0.00705566
v 0.00280647 0.04122165 0.00773129
v 0.00315858 0.04122165 0.00843825
v 0.00316893 0.04122165 0.00846509
v 0.011635 0.04020025 0.00846509
v 0.0249528 0.02784595 -0.00127117
v 0.0248596 0.02803555 -0.00127117
v 0.0248285 0.02809665 -0.00127117
v 0.0236272 0.02997425 -0.00127117
v 0.0229178 0.03138705 -0.000349443
v 0.0246835 0.02891625 0.000353035
v 0.0239793 0.03032905 0.0028229
v 0.0243314 0.02962565 0.00952552
v 0.0253877 0.02750955 0.00952552
v 0.0243314 0.02856755 0.0137538
v 0.0222136 0.00952844 0.028564
v 0.0243314 0.02327725 0.0179866
v 0.020101 0.00423808 0.0327968
v 0.0215094 0.000360529 0.0299735
v 0.0215094 -0.01551055 0.0278571
v 0.0197437 -0.01833005 0.0303269
v 0.0193916 -0.02125955 0.0299735
v 0.0199974 -0.02125955 0.0287698
v 0.0238032 0.02909355 0.0153422
v 0.0238032 0.02803555 0.0164027
v 0.0238032 0.02697745 0.0174586
v 0.0243314 0.02539335 0.0169306
v -0.00316893 -0.02125955 0.0401616
v -0.00211262 -0.02125955 0.0402019
v -0.00105631 -0.01798145 0.0412579
v -2.77556e-18 -0.01057495 0.0433742
v -0.00316893 -0.01692335 0.0412579
v -0.00423042 -0.01057495 0.0423183
v -0.00105631 -0.00951684 0.0433742
v -2.77556e-18 -0.00422648 0.0444347
v -0.00211262 5.80014e-06 0.0444347
v 0.00211262 0.00952844 0.0444347
v -0.00105631 0.01375465 0.0433742
v -0.00246473 0.01763215 0.0419648
v 0.00211262 0.01692885 0.0423183
v -0.00211262 0.02116115 0.0402019
v -0.00343819 0.01745475 0.0417858
v -0.00246473 0.02186445 0.0398484
v 0.00246473 0.02468395 0.038439
v 0.00140841 0.02997425 0.0342062
v 0.00458253 0.02680005 0.0363226
v 0.00563884 0.02997425 0.0331458
v 0.00148608 0.04122165 0.0163042
v 0.00458253 0.03103235 0.0320898
v 0.0141877 0.03892815 -0.00127117
v 0.0123392 0.03985165 0.00811162
v 0.014457 0.03879355 0.00917205
v 0.00316893 0.04122165 0.00952552
v 0.0020712 0.04122165 0.0150245
v 0.00191068 0.04122165 0.0156689
v 0.0105786 0.04020025 0.0105815
v 0.0121631 0.03967425 0.0100535
v 0.0137528 0.03914215 0.00952552
v 0.0215094 0.03314845 -0.00127117
v 0.0225657 0.03209045 0.000353035
v 0.0236272 0.03103235 0.00352985
v 0.0236272 0.03103235 0.00987452
v 0.0246835 0.02891625 0.00987452
v 0.0236272 0.02997425 0.0141073
v 0.0211573 0.01058035 0.0306804
v 0.0238032 0.02486125 0.0185146
v 0.020101 0.01058035 0.0327968
v 0.0193916 0.00459281 0.0342062
v 0.0204531 0.00247667 0.0320898
v 0.0204531 -0.01339435 0.0299735
v 0.0193916 -0.01762665 0.0310294
v 0.0183353 -0.01974285 0.0320898
v 0.0186874 -0.02044615 0.0313829
v 0.017279 -0.02125955 0.0331458
v 0.0227418 0.03120975 0.0153422
v 0.0227418 0.03015165 0.0174586
v 0.0185113 0.01851285 0.0322643
v 0.0185113 0.01639675 0.0333248
v 0.0206291 0.01851285 0.0280361
v 0.0206291 0.01216445 0.0312084
v 0.0227418 0.02909355 0.0185146
v 0.00105631 -0.02125955 0.0402019
v -2.77556e-18 -0.01798145 0.0412579
v 0.00105631 -0.01374915 0.0423183
v 0.00730097 -0.02125955 0.0391415
v 0.00740453 -0.02125955 0.0391191
v 0.00105631 -0.01070335 0.0431102
v 0.00105631 -0.00951684 0.0433742
v 0.00211262 -0.00211034 0.0444347
v 0.00634305 0.0074123 0.0433742
v 0.00528673 0.01058035 0.0433742
v 0.00511068 0.01146105 0.0431997
v 0.00405437 0.01251915 0.0431997
v 0.00316893 0.01269655 0.0433742
v 0.00105631 0.01375465 0.0433742
v 0.00475858 0.01322255 0.0428463
v 0.00370227 0.01745475 0.0417858
v 0.00246473 0.01833555 0.0416113
v 0.00246473 0.02045165 0.0405554
v 0.00211262 0.02116115 0.0402019
v 0.00475858 0.02486125 0.0375575
v 0.00370227 0.02380325 0.0386135
v 0.00458253 0.02362585 0.038439
v 0.00775664 0.02785815 0.0342062
v 0.00687638 0.02380325 0.0375575
v 0.00581489 0.02591935 0.0364971
v 0.00775664 0.02997425 0.0320898
v 0.00775664 0.03103235 0.0310294
v 0.00986926 0.03738075 0.0194005
v 0.0111068 0.03755815 0.0185146
v 0.0121631 0.03861625 0.0153422
v 0.0111068 0.03967425 0.0121699
v 0.00881295 0.03209045 0.0289175
v 0.00881295 0.03526465 0.0236243
v 0.0165748 0.03773555 -0.00127117
v 0.0165748 0.03773555 0.00917205
v 0.0151612 0.03843885 0.00987452
v 0.0142809 0.03861625 0.0111095
v 0.0204531 0.03420655 -0.00127117
v 0.0215094 0.03420655 0.00670219
v 0.0215094 0.03420655 0.0119909
v 0.0225657 0.03209045 0.0141073
v 0.0204531 0.01092905 0.0320898
v 0.0193916 0.01092905 0.0342062
v 0.017279 0.00565088 0.0373786
v 0.0183353 -0.00704597 0.0342062
v 0.0183353 -0.01445245 0.0331458
v 0.0162175 -0.01656865 0.0352622
v 0.0155133 -0.01833005 0.0356157
v 0.0151612 -0.02080085 0.0352622
v 0.0147055 -0.02125955 0.0354904
v 0.0162175 -0.01127825 0.0363226
v 0.0206291 0.03120975 0.019575
v 0.0225657 0.03103235 0.0162237
v 0.0206291 0.03226775 0.0185146
v 0.017455 0.01957095 0.0333248
v 0.0181592 0.01816425 0.0329713
v 0.0183353 0.01516125 0.0342062
v 0.0195676 0.01216445 0.0333248
v 0.0206291 0.03015165 0.0206309
v 0.017455 0.02380325 0.030148
v 0.00316893 -0.02009755 0.0402019
v 0.00846085 -0.02125955 0.0388864
v 0.00846085 -0.02009755 0.0391415
v 0.00846085 -0.01480715 0.0402019
v 0.0105786 -0.01163295 0.0402019
v 0.00846085 -0.00316841 0.0423183
v 0.00634305 0.00212194 0.0433742
v 0.00951716 0.00635423 0.0423183
v 0.00846085 0.01058035 0.0423183
v 0.00581489 0.01216445 0.0428463
v 0.0100505 0.01428055 0.0407299
v 0.00687638 0.01745475 0.0407299
v 0.00581489 0.01851285 0.0407299
v 0.00370227 0.01957095 0.0407299
v 0.00581489 0.02274515 0.0386135
v 0.008989 0.02697745 0.0343807
v 0.0111068 0.02697745 0.0333248
v 0.00986926 0.02785815 0.0331458
v 0.00986926 0.02891625 0.0320898
v 0.00793269 0.01957095 0.0396694
v 0.0100505 0.02168705 0.0375575
v 0.0100505 0.02486125 0.0354412
v 0.00986926 0.03103235 0.0299735
v 0.0111068 0.03120975 0.029092
v 0.0100505 0.03226775 0.0280361
v 0.0100505 0.03544205 0.0227429
v 0.0121631 0.03650005 0.019575
v 0.0132246 0.03755815 0.0164027
v 0.0142809 0.03755815 0.0153422
v 0.0132246 0.03861625 0.0132258
v 0.0167094 0.03766825 -0.00127117
v 0.017279 0.03738075 0.00987452
v 0.017455 0.03650005 0.0132258
v 0.0163935 0.03755815 0.0111095
v 0.0183353 0.03632275 -0.00127117
v 0.017279 0.03738075 -0.000702919
v 0.0193916 0.03526465 0.0141073
v 0.0204531 0.03420655 0.0151677
v 0.017279 0.0088251 0.0373786
v 0.0183353 0.01198705 0.0352622
v 0.0151612 0.00670895 0.0394949
v 0.0162175 0.00565088 0.038439
v 0.0151612 -0.01127825 0.0373786
v 0.017279 -0.00916211 0.0352622
v 0.0151612 -0.01656865 0.0363226
v 0.0140945 -0.02125955 0.0359333
v 0.0141049 -0.01974285 0.0363226
v 0.0134007 -0.02044615 0.0366761
v 0.0155133 -0.01303965 0.0366761
v 0.0142809 0.02909355 0.029092
v 0.0195676 0.03438395 0.0164027
v 0.017455 0.03438395 0.0185146
v 0.0195676 0.03226775 0.019575
v 0.0163935 0.02274515 0.0322643
v 0.0153372 0.02274515 0.0333248
v 0.0132246 0.02274515 0.0354412
v 0.0153372 0.01957095 0.0354412
v 0.017279 0.01833555 0.0342062
v 0.017279 0.01621935 0.0352622
v 0.0127172 -0.02125955 0.0367611
v 0.00916505 -0.02044615 0.038788
v 0.0121631 -0.01612825 0.0386135
v 0.011635 -0.01599375 0.0388775
v 0.011635 -0.01480715 0.0391415
v 0.0112829 -0.01198155 0.0398484
v 0.0123392 -0.0088135 0.0398484
v 0.011635 -0.00845877 0.0402019
v 0.00916505 -0.00352314 0.0419648
v 0.0102265 0.00388335 0.0419648
v 0.00951716 0.00423808 0.0423183
v 0.0102265 0.0059995 0.0419648
v 0.0130434 0.0088251 0.0405554
v 0.011635 0.00847037 0.0412579
v 0.0105786 0.01163845 0.0412579
v 0.0111068 0.01322255 0.0407299
v 0.008989 0.01216445 0.0417858
v 0.0100505 0.01745475 0.0396694
v 0.0132246 0.01851285 0.0375575
v 0.0142809 0.03544205 0.019575
v 0.017455 0.03544205 0.0164027
v 0.0185113 0.03544205 0.0153422
v 0.0171185 0.03734405 -0.00127117
v 0.0151612 0.0088251 0.0394949
v 0.0151612 0.01304515 0.038439
v 0.014457 0.0059995 0.0398484
v 0.0130434 0.00353474 0.0405554
v 0.0141049 -0.00175561 0.0394949
v 0.0130434 -0.00810404 0.0394949
v 0.0130434 -0.01445245 0.038439
v 0.014457 -0.01727195 0.0366761
v 0.0134369 -0.02125955 0.0363897
v 0.0134007 -0.01621385 0.037732
v 0.0123392 -0.01515585 0.038788
v 0.0142809 0.01745475 0.0375575
v 0.0162175 0.01833555 0.0352622
v 0.0151612 0.01621935 0.0373786
v 0.0142809 0.01533865 0.0386135
v 0.0134007 -0.00246507 0.0398484
v 0.0112829 -0.00352314 0.0409044
v 0.0123392 0.00282528 0.0409044
v 0.0137528 0.00635423 0.0402019
v 0.0137528 0.00847037 0.0402019
v 0.0119871 0.01198705 0.0405554
v 0.0132246 0.01322255 0.0396694
v 0.0121631 0.01533865 0.0396694
v 0.0132246 0.01639675 0.0386135
v 0.0141049 0.01198705 0.0394949
f 1 2 5
f 1 5 16
f 1 16 24
f 1 24 38
f 1 38 52
f 1 52 32
f 1 32 20
f 1 20 7
f 1 7 3
f 1 3 4
f 1 4 2
f 2 4 6
f 2 6 5
f 3 7 21
f 3 21 35
f 3 35 57
f 3 57 56
f 3 56 83
f 3 83 113
f 3 113 152
f 3 152 195
f 3 195 194
f 3 194 249
f 3 249 248
f 3 248 247
f 3 247 297
f 3 297 344
f 3 344 396
f 3 396 461
f 3 461 518
f 3 518 569
f 3 569 522
f 3 522 465
f 3 465 405
f 3 405 355
f 3 355 354
f 3 354 353
f 3 353 352
f 3 352 298
f 3 298 250
f 3 250 196
f 3 196 153
f 3 153 114
f 3 114 85
f 3 85 59
f 3 59 36
f 3 36 22
f 3 22 8
f 3 8 9
f 3 9 10
f 3 10 11
f 3 11 12
f 3 12 13
f 3 13 14
f 3 14 4
f 4 14 15
f 4 15 6
f 5 6 16
f 6 15 17
f 6 17 18
f 6 18 31
f 6 31 19
f 6 19 24
f 6 24 16
f 7 20 21
f 8 22 9
f 9 22 36
f 9 36 58
f 9 58 84
f 9 84 89
f 9 89 88
f 9 88 87
f 9 87 118
f 9 118 117
f 9 117 156
f 9 156 204
f 9 204 203
f 9 203 202
f 9 202 201
f 9 201 257
f 9 257 306
f 9 306 369
f 9 369 368
f 9 368 420
f 9 420 477
f 9 477 533
f 9 533 578
f 9 578 547
f 9 547 489
f 9 489 432
f 9 432 431
f 9 431 428
f 9 428 375
f 9 375 374
f 9 374 309
f 9 309 259
f 9 259 207
f 9 207 206
f 9 206 157
f 9 157 120
f 9 120 119
f 9 119 92
f 9 92 62
f 9 62 42
f 9 42 41
f 9 41 40
f 9 40 39
f 9 39 25
f 9 25 23
f 9 23 15
f 9 15 14
f 9 14 13
f 9 13 12
f 9 12 11
f 9 11 10
f 15 23 17
f 17 23 25
f 17 25 26
f 17 26 27
f 17 27 18
f 18 27 28
f 18 28 29
f 18 29 30
f 18 30 48
f 18 48 31
f 19 31 24
f 20 32 33
f 20 33 34
f 20 34 21
f 21 34 35
f 24 37 38
f 24 31 37
f 25 39 26
f 26 39 40
f 26 40 41
f 26 41 27
f 27 41 42
f 27 42 43
f 27 43 44
f 27 44 28
f 28 44 29
f 29 45 67
f 29 67 46
f 29 46 47
f 29 47 30
f 29 44 45
f 30 47 69
f 30 69 70
f 30 70 48
f 31 48 49
f 31 49 50
f 31 50 51
f 31 51 37
f 32 52 79
f 32 79 53
f 32 53 54
f 32 54 55
f 32 55 33
f 33 55 34
f 34 55 56
f 34 56 57
f 34 57 35
f 36 59 58
f 37 51 60
f 37 60 38
f 38 60 61
f 38 61 52
f 42 62 63
f 42 63 43
f 43 64 44
f 43 63 95
f 43 95 64
f 44 65 66
f 44 66 45
f 44 64 65
f 45 66 67
f 46 67 47
f 47 67 68
f 47 68 69
f 48 70 71
f 48 71 49
f 49 71 51
f 49 51 50
f 51 72 73
f 51 73 74
f 51 74 75
f 51 75 60
f 51 71 68
f 51 68 72
f 52 76 77
f 52 77 78
f 52 78 79
f 52 61 76
f 53 79 80
f 53 80 54
f 54 80 110
f 54 110 81
f 54 81 82
f 54 82 55
f 55 82 56
f 56 82 83
f 58 59 84
f 59 85 86
f 59 86 87
f 59 87 88
f 59 88 89
f 59 89 84
f 60 75 61
f 61 75 90
f 61 90 91
f 61 91 78
f 61 78 77
f 61 77 76
f 62 92 93
f 62 93 94
f 62 94 95
f 62 95 63
f 64 95 96
f 64 96 65
f 65 96 66
f 66 97 67
f 66 96 97
f 67 98 68
f 67 97 127
f 67 127 98
f 68 71 70
f 68 70 69
f 68 98 99
f 68 99 100
f 68 100 101
f 68 101 102
f 68 102 72
f 72 102 73
f 73 102 103
f 73 103 75
f 73 75 74
f 75 103 104
f 75 104 105
f 75 105 106
f 75 106 107
f 75 107 108
f 75 108 109
f 75 109 91
f 75 91 90
f 78 91 80
f 78 80 79
f 80 91 109
f 80 109 110
f 81 110 111
f 81 111 112
f 81 112 82
f 82 112 83
f 83 112 113
f 85 114 86
f 86 114 153
f 86 153 197
f 86 197 252
f 86 252 301
f 86 301 307
f 86 307 258
f 86 258 205
f 86 205 198
f 86 198 154
f 86 154 115
f 86 115 116
f 86 116 117
f 86 117 118
f 86 118 87
f 92 119 93
f 93 119 120
f 93 120 121
f 93 121 122
f 93 122 94
f 94 122 123
f 94 123 124
f 94 124 125
f 94 125 95
f 95 125 96
f 96 125 97
f 97 126 168
f 97 168 127
f 97 125 126
f 98 127 128
f 98 128 129
f 98 129 130
f 98 130 100
f 98 100 99
f 100 130 131
f 100 131 101
f 101 129 132
f 101 132 102
f 101 131 130
f 101 130 129
f 102 132 133
f 102 133 134
f 102 134 136
f 102 136 135
f 102 135 103
f 103 135 136
f 103 136 104
f 104 136 138
f 104 138 105
f 105 137 106
f 105 138 139
f 105 139 140
f 105 140 177
f 105 177 137
f 106 141 142
f 106 142 143
f 106 143 144
f 106 144 107
f 106 137 145
f 106 145 141
f 107 144 143
f 107 143 108
f 108 143 109
f 109 143 110
f 110 143 146
f 110 146 147
f 110 147 148
f 110 148 111
f 111 148 149
f 111 149 150
f 111 150 151
f 111 151 112
f 112 151 152
f 112 152 113
f 115 154 155
f 115 155 116
f 116 155 156
f 116 156 117
f 120 157 121
f 121 157 158
f 121 158 160
f 121 160 159
f 121 159 122
f 122 159 123
f 123 159 160
f 123 160 161
f 123 161 162
f 123 162 163
f 123 163 124
f 124 163 164
f 124 164 126
f 124 126 165
f 124 165 125
f 125 165 126
f 126 164 166
f 126 166 167
f 126 167 168
f 127 168 169
f 127 169 128
f 128 170 171
f 128 171 172
f 128 172 129
f 128 169 168
f 128 168 170
f 129 172 132
f 132 173 174
f 132 174 134
f 132 134 133
f 132 172 173
f 134 174 175
f 134 175 176
f 134 176 136
f 136 176 175
f 136 175 138
f 137 177 178
f 137 178 145
f 138 175 139
f 139 175 179
f 139 179 140
f 140 179 180
f 140 180 181
f 140 181 182
f 140 182 177
f 141 183 184
f 141 184 142
f 141 145 185
f 141 185 183
f 142 184 186
f 142 186 143
f 143 186 146
f 145 178 187
f 145 187 185
f 146 186 188
f 146 188 189
f 146 189 147
f 147 189 148
f 148 189 243
f 148 243 190
f 148 190 191
f 148 191 149
f 149 191 192
f 149 192 150
f 150 192 193
f 150 193 151
f 151 193 194
f 151 194 195
f 151 195 152
f 153 196 197
f 154 198 155
f 155 199 200
f 155 200 201
f 155 201 202
f 155 202 203
f 155 203 204
f 155 204 156
f 155 198 205
f 155 205 199
f 157 206 158
f 158 206 207
f 158 207 208
f 158 208 210
f 158 210 209
f 158 209 161
f 158 161 160
f 161 209 210
f 161 210 211
f 161 211 162
f 162 211 212
f 162 212 213
f 162 213 214
f 162 214 164
f 162 164 163
f 164 214 166
f 166 215 216
f 166 216 167
f 166 214 215
f 167 216 217
f 167 217 218
f 167 218 168
f 168 218 219
f 168 219 170
f 170 220 221
f 170 221 222
f 170 222 223
f 170 223 171
f 170 219 220
f 171 223 224
f 171 224 225
f 171 225 172
f 172 225 174
f 172 174 173
f 174 225 226
f 174 226 175
f 175 226 179
f 177 182 227
f 177 227 178
f 178 227 187
f 179 226 228
f 179 228 180
f 180 228 229
f 180 229 181
f 181 229 230
f 181 230 182
f 182 231 232
f 182 232 227
f 182 230 233
f 182 233 231
f 183 185 234
f 183 234 235
f 183 235 236
f 183 236 184
f 184 236 237
f 184 237 186
f 185 187 234
f 186 237 238
f 186 238 188
f 187 227 232
f 187 232 239
f 187 239 240
f 187 240 241
f 187 241 242
f 187 242 235
f 187 235 234
f 188 238 189
f 189 238 243
f 190 243 244
f 190 244 191
f 191 244 291
f 191 291 245
f 191 245 246
f 191 246 192
f 192 246 193
f 193 246 247
f 193 247 248
f 193 248 249
f 193 249 194
f 196 250 197
f 197 250 251
f 197 251 252
f 199 253 302
f 199 302 254
f 199 254 200
f 199 205 258
f 199 258 253
f 200 255 201
f 200 254 256
f 200 256 255
f 201 255 257
f 207 259 210
f 207 210 208
f 210 259 260
f 210 260 261
f 210 261 211
f 211 261 314
f 211 314 262
f 211 262 263
f 211 263 212
f 212 263 213
f 213 263 264
f 213 264 215
f 213 215 214
f 215 264 216
f 216 264 265
f 216 265 266
f 216 266 217
f 217 266 267
f 217 267 219
f 217 219 218
f 219 267 269
f 219 269 268
f 219 268 220
f 220 268 221
f 221 268 269
f 221 269 270
f 221 270 222
f 222 224 223
f 222 270 271
f 222 271 272
f 222 272 273
f 222 273 276
f 222 276 274
f 222 274 224
f 224 274 225
f 225 274 276
f 225 276 275
f 225 275 226
f 226 275 228
f 228 275 276
f 228 276 229
f 229 277 278
f 229 278 279
f 229 279 230
f 229 276 277
f 230 279 280
f 230 280 233
f 231 281 239
f 231 239 232
f 231 233 282
f 231 282 281
f 233 280 336
f 233 336 282
f 235 283 284
f 235 284 285
f 235 285 286
f 235 286 236
f 235 242 241
f 235 241 283
f 236 286 237
f 237 286 285
f 237 285 238
f 238 285 287
f 238 287 288
f 238 288 291
f 238 291 289
f 238 289 243
f 239 281 290
f 239 290 240
f 240 290 284
f 240 284 241
f 241 284 283
f 243 289 291
f 243 291 244
f 245 291 247
f 245 247 246
f 247 291 342
f 247 342 292
f 247 292 293
f 247 293 294
f 247 294 295
f 247 295 296
f 247 296 343
f 247 343 297
f 250 298 299
f 250 299 251
f 251 299 358
f 251 358 300
f 251 300 252
f 252 300 359
f 252 359 301
f 253 258 302
f 254 302 362
f 254 362 303
f 254 303 304
f 254 304 256
f 255 256 305
f 255 305 306
f 255 306 257
f 256 304 305
f 258 307 308
f 258 308 302
f 259 309 310
f 259 310 311
f 259 311 260
f 260 311 312
f 260 312 378
f 260 378 313
f 260 313 314
f 260 314 261
f 262 314 315
f 262 315 316
f 262 316 263
f 263 316 317
f 263 317 318
f 263 318 265
f 263 265 264
f 265 318 319
f 265 319 320
f 265 320 266
f 266 320 321
f 266 321 322
f 266 322 267
f 267 322 269
f 269 322 270
f 270 322 271
f 271 322 272
f 272 322 323
f 272 323 324
f 272 324 325
f 272 325 326
f 272 326 327
f 272 327 328
f 272 328 273
f 273 328 329
f 273 329 276
f 276 329 330
f 276 330 331
f 276 331 277
f 277 332 278
f 277 331 332
f 278 333 334
f 278 334 280
f 278 280 279
f 278 332 333
f 280 334 335
f 280 335 336
f 281 337 338
f 281 338 284
f 281 284 290
f 281 282 337
f 282 336 335
f 282 335 390
f 282 390 339
f 282 339 391
f 282 391 337
f 284 340 394
f 284 394 401
f 284 401 400
f 284 400 399
f 284 399 350
f 284 350 349
f 284 349 348
f 284 348 347
f 284 347 346
f 284 346 345
f 284 345 343
f 284 343 296
f 284 296 295
f 284 295 294
f 284 294 293
f 284 293 292
f 284 292 342
f 284 342 341
f 284 341 287
f 284 287 285
f 284 338 340
f 287 341 291
f 287 291 288
f 291 341 342
f 297 343 345
f 297 345 346
f 297 346 347
f 297 347 348
f 297 348 349
f 297 349 350
f 297 350 399
f 297 399 351
f 297 351 344
f 298 352 299
f 299 352 353
f 299 353 354
f 299 354 355
f 299 355 405
f 299 405 356
f 299 356 406
f 299 406 357
f 299 357 358
f 300 358 407
f 300 407 408
f 300 408 359
f 301 360 361
f 301 361 308
f 301 308 307
f 301 359 360
f 302 308 363
f 302 363 362
f 303 362 411
f 303 411 413
f 303 413 364
f 303 364 415
f 303 415 365
f 303 365 304
f 304 365 366
f 304 366 305
f 305 366 367
f 305 367 368
f 305 368 369
f 305 369 306
f 308 361 370
f 308 370 371
f 308 371 372
f 308 372 373
f 308 373 363
f 309 374 310
f 310 374 375
f 310 375 376
f 310 376 377
f 310 377 378
f 310 378 311
f 311 378 312
f 313 378 380
f 313 380 379
f 313 379 314
f 314 379 315
f 315 379 380
f 315 380 381
f 315 381 317
f 315 317 316
f 317 381 382
f 317 382 319
f 317 319 318
f 319 382 381
f 319 381 435
f 319 435 383
f 319 383 324
f 319 324 320
f 320 324 321
f 321 324 322
f 322 324 323
f 324 383 441
f 324 441 384
f 324 384 326
f 324 326 325
f 326 385 327
f 326 384 441
f 326 441 386
f 326 386 446
f 326 446 387
f 326 387 389
f 326 389 385
f 327 385 388
f 327 388 328
f 328 388 330
f 328 330 329
f 330 388 385
f 330 385 331
f 331 385 389
f 331 389 333
f 331 333 332
f 333 389 335
f 333 335 334
f 335 389 387
f 335 387 446
f 335 446 390
f 337 391 338
f 338 391 340
f 339 390 392
f 339 392 393
f 339 393 391
f 340 391 395
f 340 395 394
f 344 351 397
f 344 397 398
f 344 398 462
f 344 462 396
f 351 399 400
f 351 400 401
f 351 401 402
f 351 402 458
f 351 458 403
f 351 403 404
f 351 404 398
f 351 398 397
f 356 405 406
f 357 406 407
f 357 407 358
f 359 408 409
f 359 409 360
f 360 409 410
f 360 410 361
f 361 410 370
f 362 363 411
f 363 373 372
f 363 372 412
f 363 412 426
f 363 426 411
f 364 413 470
f 364 470 414
f 364 414 415
f 365 415 416
f 365 416 366
f 366 416 367
f 367 416 417
f 367 417 418
f 367 418 419
f 367 419 368
f 368 419 420
f 370 410 468
f 370 468 421
f 370 421 422
f 370 422 371
f 371 422 427
f 371 427 372
f 372 423 424
f 372 424 425
f 372 425 426
f 372 426 412
f 372 427 423
f 375 428 429
f 375 429 376
f 376 429 377
f 377 380 378
f 377 429 428
f 377 428 430
f 377 430 431
f 377 431 432
f 377 432 433
f 377 433 434
f 377 434 435
f 377 435 381
f 377 381 380
f 383 435 494
f 383 494 436
f 383 436 437
f 383 437 438
f 383 438 439
f 383 439 440
f 383 440 386
f 383 386 441
f 386 440 442
f 386 442 443
f 386 443 444
f 386 444 445
f 386 445 390
f 386 390 446
f 390 447 392
f 390 445 501
f 390 501 448
f 390 448 449
f 390 449 451
f 390 451 447
f 391 393 395
f 392 450 393
f 392 447 451
f 392 451 452
f 392 452 503
f 392 503 450
f 393 453 454
f 393 454 395
f 393 450 453
f 394 455 456
f 394 456 457
f 394 457 458
f 394 458 402
f 394 402 401
f 394 395 454
f 394 454 459
f 394 459 460
f 394 460 455
f 396 462 461
f 398 404 463
f 398 463 519
f 398 519 462
f 403 458 517
f 403 517 464
f 403 464 404
f 404 464 463
f 405 465 466
f 405 466 406
f 406 466 407
f 407 466 467
f 407 467 408
f 408 410 409
f 408 467 468
f 408 468 410
f 411 469 413
f 411 426 469
f 413 469 470
f 414 470 526
f 414 526 471
f 414 471 472
f 414 472 416
f 414 416 415
f 416 472 473
f 416 473 417
f 417 473 418
f 418 420 419
f 418 473 420
f 420 474 475
f 420 475 476
f 420 476 477
f 420 473 478
f 420 478 474
f 421 468 480
f 421 480 422
f 422 479 486
f 422 486 427
f 422 480 481
f 422 481 479
f 423 482 483
f 423 483 424
f 423 427 482
f 424 483 484
f 424 484 470
f 424 470 485
f 424 485 426
f 424 426 425
f 426 485 470
f 426 470 469
f 427 486 487
f 427 487 482
f 428 431 488
f 428 488 430
f 430 488 431
f 432 489 433
f 433 489 434
f 434 489 490
f 434 490 491
f 434 491 492
f 434 492 435
f 435 493 494
f 435 492 493
f 436 495 496
f 436 496 437
f 436 494 557
f 436 557 495
f 437 496 497
f 437 497 438
f 438 497 442
f 438 442 439
f 439 442 440
f 442 497 562
f 442 562 498
f 442 498 499
f 442 499 443
f 443 499 500
f 443 500 501
f 443 501 445
f 443 445 444
f 448 502 449
f 448 501 500
f 448 500 502
f 449 502 451
f 450 503 504
f 450 504 505
f 450 505 506
f 450 506 510
f 450 510 453
f 451 502 507
f 451 507 508
f 451 508 543
f 451 543 509
f 451 509 503
f 451 503 452
f 453 510 454
f 454 510 511
f 454 511 512
f 454 512 459
f 455 460 513
f 455 513 456
f 456 513 512
f 456 512 514
f 456 514 515
f 456 515 457
f 457 515 516
f 457 516 517
f 457 517 458
f 459 512 513
f 459 513 460
f 461 462 518
f 462 519 518
f 463 464 519
f 464 517 520
f 464 520 521
f 464 521 519
f 465 522 466
f 466 522 523
f 466 523 519
f 466 519 467
f 467 524 525
f 467 525 468
f 467 519 524
f 468 525 480
f 470 484 546
f 470 546 527
f 470 527 526
f 471 526 570
f 471 570 528
f 471 528 529
f 471 529 530
f 471 530 478
f 471 478 531
f 471 531 472
f 472 531 473
f 473 531 478
f 474 532 475
f 474 478 532
f 475 532 476
f 476 532 477
f 477 532 534
f 477 534 535
f 477 535 533
f 478 530 536
f 478 536 532
f 479 537 486
f 479 481 537
f 480 525 481
f 481 525 538
f 481 538 539
f 481 539 540
f 481 540 537
f 482 487 541
f 482 541 542
f 482 542 543
f 482 543 544
f 482 544 545
f 482 545 483
f 483 545 484
f 484 545 546
f 486 537 487
f 487 537 541
f 489 547 535
f 489 535 548
f 489 548 549
f 489 549 550
f 489 550 551
f 489 551 490
f 490 551 492
f 490 492 491
f 492 551 580
f 492 580 552
f 492 552 553
f 492 553 554
f 492 554 493
f 493 555 556
f 493 556 557
f 493 557 494
f 493 554 553
f 493 553 555
f 495 557 556
f 495 556 558
f 495 558 589
f 495 589 559
f 495 559 560
f 495 560 496
f 496 560 561
f 496 561 562
f 496 562 563
f 496 563 497
f 497 563 562
f 498 562 592
f 498 592 564
f 498 564 499
f 499 564 507
f 499 507 500
f 500 507 502
f 503 509 504
f 504 509 543
f 504 543 537
f 504 537 511
f 504 511 510
f 504 510 506
f 504 506 505
f 507 564 508
f 508 564 593
f 508 593 565
f 508 565 543
f 511 537 540
f 511 540 539
f 511 539 566
f 511 566 514
f 511 514 512
f 514 566 515
f 515 566 567
f 515 567 568
f 515 568 516
f 516 568 520
f 516 520 517
f 518 523 569
f 518 519 523
f 519 521 520
f 519 520 568
f 519 568 524
f 522 569 523
f 524 568 525
f 525 568 538
f 526 527 546
f 526 546 571
f 526 571 570
f 528 572 573
f 528 573 574
f 528 574 529
f 528 570 589
f 528 589 588
f 528 588 572
f 529 574 530
f 530 575 576
f 530 576 532
f 530 532 536
f 530 574 575
f 532 577 535
f 532 535 534
f 532 576 577
f 533 535 578
f 535 547 578
f 535 577 579
f 535 579 576
f 535 576 580
f 535 580 549
f 535 549 548
f 537 543 542
f 537 542 541
f 538 568 567
f 538 567 539
f 539 567 566
f 543 565 581
f 543 581 544
f 544 581 583
f 544 583 582
f 544 582 545
f 545 582 583
f 545 583 546
f 546 583 584
f 546 584 571
f 549 580 550
f 550 580 551
f 552 580 553
f 553 575 574
f 553 574 585
f 553 585 586
f 553 586 555
f 553 580 576
f 553 576 575
f 555 586 587
f 555 587 556
f 556 588 589
f 556 589 558
f 556 587 573
f 556 573 588
f 559 589 570
f 559 570 594
f 559 594 590
f 559 590 561
f 559 561 560
f 561 590 562
f 562 590 594
f 562 594 591
f 562 591 584
f 562 584 592
f 564 592 584
f 564 584 593
f 565 593 584
f 565 584 581
f 570 571 584
f 570 584 594
f 572 588 573
f 573 587 585
f 573 585 574
f 576 579 577
f 581 584 583
f 584 591 594
f 585 587 586
