o piece_001
v -0.0746948 0.0277014 0.0126405
v -0.0724377 0.0260647 0.0159108
v -0.0724377 0.0270807 0.0138795
v -0.0721007 0.0274176 0.0132024
v -0.0711776 0.0273274 0.0126405
v -0.077912 0.0277014 0.0126405
v -0.0717638 0.0257251 0.0165878
v -0.080566 0.0260647 0.0159108
v -0.0717638 0.0267411 0.0145566
v -0.0705775 0.0269109 0.0137102
v -0.0685512 0.0269109 0.0126946
v -0.0686066 0.0269374 0.0126405
v -0.0926363 0.0271921 0.0126405
v -0.0802245 0.0274176 0.0132024
v -0.080566 0.0270807 0.0138795
v -0.0758256 0.0236958 0.0196347
v -0.0727792 0.0226798 0.0206504
v -0.0707483 0.0216639 0.0216642
v -0.066691 0.0247092 0.0165878
v -0.068722 0.0257251 0.0155722
v -0.0798875 0.0257251 0.0165878
v -0.0927517 0.0250487 0.0169264
v -0.0675357 0.0258949 0.0147259
v -0.0655048 0.0258949 0.0137102
v -0.0675911 0.0266854 0.0126405
v -0.0682742 0.0268552 0.0126405
v -0.0685419 0.0269215 0.0126405
v -0.0928625 0.0270807 0.0126405
v -0.0927517 0.0270807 0.0128639
v -0.0920732 0.0247092 0.0176035
v -0.0788721 0.0226798 0.0206504
v -0.0758256 0.0196319 0.0236955
v -0.0727792 0.0206479 0.0226799
v -0.0717638 0.0165866 0.0257268
v -0.066691 0.0165866 0.0247111
v -0.0646601 0.0196319 0.0216642
v -0.0655048 0.0208177 0.0208196
v -0.0677065 0.0216639 0.0206504
v -0.0646601 0.0216639 0.0196347
v -0.0646601 0.0247092 0.0155722
v -0.0655048 0.0248789 0.0157415
v -0.0931717 0.0248789 0.0167571
v -0.0931717 0.0228496 0.0187884
v -0.0927517 0.0220034 0.0199733
v -0.0920732 0.0236958 0.0186191
v -0.0634738 0.0248789 0.0147259
v -0.0642123 0.0258392 0.0126405
v -0.0645447 0.0259241 0.0126405
v -0.0931625 0.0269295 0.0126405
v -0.0931717 0.0269109 0.0126946
v -0.080903 0.0216639 0.0216642
v -0.0788721 0.0206479 0.0226799
v -0.0920732 0.0176026 0.0247111
v -0.0798875 0.0165866 0.0257268
v -0.0721007 0.0132044 0.0274195
v -0.0717638 0.0145546 0.0267424
v -0.068722 0.0155706 0.0257268
v -0.0655048 0.0157404 0.0248804
v -0.0646601 0.0155706 0.0247111
v -0.0626291 0.0186159 0.0216642
v -0.0604274 0.0198017 0.019804
v -0.0626291 0.0216639 0.0186191
v -0.093204 0.0268552 0.0126405
v -0.0934302 0.0243723 0.0162493
v -0.0934302 0.019295 0.0213275
v -0.0931717 0.0167564 0.0248804
v -0.0927517 0.0209874 0.0209889
v -0.0629384 0.0254148 0.0126405
v -0.0637 0.0256694 0.0126405
v -0.0614429 0.0218336 0.0177727
v -0.0604274 0.0228496 0.0157415
v -0.0594119 0.023863 0.0137102
v -0.0927517 0.0169235 0.0250497
v -0.080566 0.0159102 0.0260653
v -0.0751471 0.0111724 0.0284351
v -0.0721007 0.00812448 0.0294507
v -0.0700698 0.00711115 0.0294507
v -0.0700698 0.0121884 0.0274195
v -0.0644893 0.0106658 0.0269117
v -0.067028 0.0132044 0.0264039
v -0.0705775 0.0137111 0.0269117
v -0.0802245 0.0132044 0.0274195
v -0.0675357 0.0147244 0.025896
v -0.0655048 0.0137111 0.025896
v -0.0634738 0.0147244 0.0248804
v -0.0614429 0.0177697 0.0218335
v -0.0594119 0.0137111 0.0238648
v -0.057381 0.0137111 0.0228491
v -0.0563655 0.0167564 0.019804
v -0.057381 0.0187857 0.0187884
v -0.057381 0.0228496 0.0137102
v -0.0934302 0.0253883 0.0126405
v -0.0934302 0.0253883 0.014218
v -0.0934302 0.016247 0.0243726
v -0.0934302 0.0121884 0.0264039
v -0.0931717 0.0106658 0.0279273
v -0.0927517 0.0128649 0.0270809
v -0.0614983 0.0249081 0.0126405
v -0.0614429 0.0248789 0.0126946
v -0.0585903 0.023672 0.0126405
v -0.060012 0.0242821 0.0126405
v -0.080566 0.0138808 0.0270809
v -0.0781935 0.0111724 0.0284351
v -0.0741316 0.00304722 0.0304646
v -0.0802245 0.00812448 0.0294507
v -0.0721007 0.0010179 0.0304646
v -0.0690589 0.00609517 0.0294507
v -0.064997 0.00609517 0.0284351
v -0.0644893 0.00761782 0.0279273
v -0.0655048 0.0086338 0.0279273
v -0.0614429 0.0106658 0.025896
v -0.0624583 0.0116791 0.025896
v -0.0924101 0.0101565 0.0284351
v -0.0594119 0.0086338 0.025896
v -0.057381 0.0086338 0.0248804
v -0.05535 0.0106658 0.0228491
v -0.0543346 0.0116791 0.0218335
v -0.0543346 0.0137111 0.0208196
v -0.0523036 0.0167564 0.0167571
v -0.0563655 0.0198017 0.0167571
v -0.0543346 0.0208177 0.0137102
v -0.0552393 0.0217779 0.0126405
v -0.0565917 0.0226215 0.0126405
v -0.0934302 0.0233563 0.0126405
v -0.0934302 0.0101565 0.0274195
v -0.0934302 0.00711115 0.0284351
v -0.0931717 0.00761782 0.0289429
v -0.0927517 0.00778759 0.0291122
v -0.0927517 0.0108329 0.0280966
v -0.0781935 0.00304722 0.0304646
v -0.0924101 0.00711115 0.0294507
v -0.0721007 0.000601427 0.0304646
v -0.0712052 0.000601427 0.030346
v -0.0660125 0.0010179 0.0294507
v -0.067028 0.00304722 0.0294507
v -0.0639816 0.0040632 0.0284351
v -0.0619506 0.00609517 0.0274195
v -0.0614429 0.00761782 0.0269117
v -0.0599197 0.00711115 0.0264039
v -0.0585672 0.00744804 0.0257268
v -0.0565363 0.00744804 0.0247111
v -0.0567025 0.00829426 0.0245419
v -0.0546715 0.0103262 0.0225106
v -0.0504389 0.00744804 0.0206504
v -0.0512882 0.0086338 0.0208196
v -0.0523036 0.0126951 0.019804
v -0.0492572 0.0116791 0.0177727
v -0.0462754 0.0135413 0.013541
v -0.0523036 0.0198017 0.0126946
v -0.0523036 0.0198017 0.0126405
v -0.0933148 0.0224544 0.0126405
v -0.0934302 0.0223403 0.0132024
v -0.0934302 0.000601427 0.0284351
v -0.0931487 0.000601427 0.0298643
v -0.0930886 0.00711115 0.0291122
v -0.0927148 0.000601427 0.0301645
v -0.0802245 0.00203123 0.0304646
v -0.0927886 0.000601427 0.0301278
v -0.0816554 0.000601427 0.0304646
v -0.0660125 0.000601427 0.0294507
v -0.0629661 0.0010179 0.0284351
v -0.0609351 0.00304722 0.0274195
v -0.0578887 0.0010179 0.0264039
v -0.0575518 0.00440275 0.0257268
v -0.0555208 0.00440275 0.0247111
v -0.0524744 0.00541873 0.0226799
v -0.0526406 0.00626494 0.0225106
v -0.0514543 0.00643206 0.0216642
v -0.0462754 0.00507918 0.0182806
v -0.0462754 0.00551953 0.0180607
v -0.0462754 0.00653552 0.0175529
v -0.0462754 0.00981956 0.0159108
v -0.0462754 0.010496 0.0155722
v -0.0462754 0.0138808 0.0128639
v -0.0462754 0.0139923 0.0126405
v -0.093144 0.000601427 0.0256744
v -0.0934302 0.00203123 0.0253882
v -0.0863496 0.000601427 0.0126405
v -0.0934302 0.000601427 0.0264039
v -0.0929409 0.000601427 0.030051
v -0.0812399 0.0010179 0.0304646
v -0.0629661 0.000601427 0.0284351
v -0.0600397 0.000601427 0.0272991
v -0.0583041 0.000601427 0.0266098
v -0.0578887 0.000601427 0.0264039
v -0.0572102 0.000678356 0.0260653
v -0.0565363 0.00135479 0.0257268
v -0.0534899 0.00338676 0.0236955
v -0.0494234 0.00440275 0.0206504
v -0.0504389 0.00237078 0.0216642
v -0.0515097 0.000601427 0.0226275
v -0.0462754 0.000601427 0.0182806
v -0.0462754 0.000601427 0.0126405
v -0.0572102 0.000601427 0.0260653
v -0.0565363 0.000601427 0.0257268
v -0.0545561 0.000601427 0.0246588
f 1 2 3
f 1 3 4
f 1 4 5
f 1 5 12
f 1 12 27
f 1 27 26
f 1 26 25
f 1 25 48
f 1 48 47
f 1 47 69
f 1 69 68
f 1 68 98
f 1 98 101
f 1 101 100
f 1 100 123
f 1 123 122
f 1 122 150
f 1 150 175
f 1 175 193
f 1 193 178
f 1 178 151
f 1 151 124
f 1 124 92
f 1 92 63
f 1 63 49
f 1 49 28
f 1 28 13
f 1 13 6
f 1 6 8
f 1 8 2
f 2 7 9
f 2 9 3
f 2 8 21
f 2 21 7
f 3 9 4
f 4 9 10
f 4 10 11
f 4 11 12
f 4 12 5
f 6 13 14
f 6 14 15
f 6 15 8
f 7 16 17
f 7 17 18
f 7 18 19
f 7 19 20
f 7 20 9
f 7 21 16
f 8 15 29
f 8 29 22
f 8 22 30
f 8 30 21
f 9 20 23
f 9 23 10
f 10 23 24
f 10 24 11
f 11 24 25
f 11 25 26
f 11 26 27
f 11 27 12
f 13 28 29
f 13 29 15
f 13 15 14
f 16 21 30
f 16 30 31
f 16 31 17
f 17 32 33
f 17 33 18
f 17 31 32
f 18 33 34
f 18 34 35
f 18 35 36
f 18 36 37
f 18 37 38
f 18 38 19
f 19 38 39
f 19 39 62
f 19 62 40
f 19 40 46
f 19 46 41
f 19 41 23
f 19 23 20
f 22 29 50
f 22 50 42
f 22 42 43
f 22 43 44
f 22 44 45
f 22 45 30
f 23 41 46
f 23 46 24
f 24 46 47
f 24 47 48
f 24 48 25
f 28 49 29
f 29 49 50
f 30 45 51
f 30 51 31
f 31 51 52
f 31 52 32
f 32 34 33
f 32 52 53
f 32 53 54
f 32 54 34
f 34 55 56
f 34 56 57
f 34 57 35
f 34 54 74
f 34 74 102
f 34 102 82
f 34 82 55
f 35 57 83
f 35 83 58
f 35 58 85
f 35 85 59
f 35 59 60
f 35 60 36
f 36 60 61
f 36 61 37
f 37 39 38
f 37 61 39
f 39 61 62
f 40 62 70
f 40 70 46
f 42 50 63
f 42 63 64
f 42 64 43
f 43 64 65
f 43 65 66
f 43 66 44
f 44 67 53
f 44 53 45
f 44 66 67
f 45 53 51
f 46 68 69
f 46 69 47
f 46 70 71
f 46 71 72
f 46 72 68
f 49 63 50
f 51 53 52
f 53 67 73
f 53 73 74
f 53 74 54
f 55 75 76
f 55 76 77
f 55 77 78
f 55 78 79
f 55 79 80
f 55 80 84
f 55 84 81
f 55 81 57
f 55 57 56
f 55 82 103
f 55 103 75
f 57 81 83
f 58 83 84
f 58 84 85
f 59 85 86
f 59 86 60
f 60 86 61
f 61 86 87
f 61 87 88
f 61 88 89
f 61 89 90
f 61 90 120
f 61 120 91
f 61 91 71
f 61 71 70
f 61 70 62
f 63 92 93
f 63 93 64
f 64 93 92
f 64 92 124
f 64 124 152
f 64 152 177
f 64 177 179
f 64 179 153
f 64 153 126
f 64 126 125
f 64 125 95
f 64 95 94
f 64 94 65
f 65 94 66
f 66 94 95
f 66 95 96
f 66 96 97
f 66 97 73
f 66 73 67
f 68 72 99
f 68 99 98
f 71 91 72
f 72 91 100
f 72 100 101
f 72 101 99
f 73 97 102
f 73 102 74
f 75 103 105
f 75 105 76
f 76 104 77
f 76 105 130
f 76 130 104
f 77 104 106
f 77 106 107
f 77 107 108
f 77 108 109
f 77 109 110
f 77 110 79
f 77 79 78
f 79 110 109
f 79 109 138
f 79 138 114
f 79 114 111
f 79 111 112
f 79 112 85
f 79 85 84
f 79 84 80
f 81 84 83
f 82 102 129
f 82 129 113
f 82 113 103
f 85 112 87
f 85 87 86
f 87 114 115
f 87 115 88
f 87 112 111
f 87 111 114
f 88 115 116
f 88 116 117
f 88 117 118
f 88 118 89
f 89 118 119
f 89 119 90
f 90 119 120
f 91 120 121
f 91 121 122
f 91 122 123
f 91 123 100
f 95 125 96
f 96 125 126
f 96 126 127
f 96 127 128
f 96 128 129
f 96 129 97
f 97 129 102
f 98 99 101
f 103 113 105
f 104 130 157
f 104 157 181
f 104 181 159
f 104 159 132
f 104 132 106
f 105 113 131
f 105 131 130
f 106 132 133
f 106 133 134
f 106 134 135
f 106 135 107
f 107 135 108
f 108 135 134
f 108 134 136
f 108 136 137
f 108 137 138
f 108 138 109
f 113 129 128
f 113 128 131
f 114 139 140
f 114 140 141
f 114 141 115
f 114 138 137
f 114 137 139
f 115 141 142
f 115 142 143
f 115 143 116
f 116 143 117
f 117 143 144
f 117 144 145
f 117 145 146
f 117 146 118
f 118 146 119
f 119 146 147
f 119 147 148
f 119 148 149
f 119 149 121
f 119 121 120
f 121 149 122
f 122 149 150
f 124 151 152
f 126 153 154
f 126 154 127
f 127 154 155
f 127 155 128
f 128 155 131
f 130 131 156
f 130 156 157
f 131 155 158
f 131 158 156
f 132 159 156
f 132 156 158
f 132 158 180
f 132 180 154
f 132 154 153
f 132 153 179
f 132 179 176
f 132 176 178
f 132 178 193
f 132 193 192
f 132 192 191
f 132 191 196
f 132 196 195
f 132 195 194
f 132 194 185
f 132 185 184
f 132 184 183
f 132 183 182
f 132 182 160
f 132 160 133
f 133 160 134
f 134 160 182
f 134 182 161
f 134 161 136
f 136 161 137
f 137 161 162
f 137 162 163
f 137 163 139
f 139 163 164
f 139 164 140
f 140 164 165
f 140 165 141
f 141 165 166
f 141 166 167
f 141 167 142
f 142 167 144
f 142 144 143
f 144 167 168
f 144 168 169
f 144 169 145
f 145 169 147
f 145 147 146
f 147 169 170
f 147 170 171
f 147 171 172
f 147 172 173
f 147 173 148
f 148 173 172
f 148 172 171
f 148 171 170
f 148 170 169
f 148 169 192
f 148 192 193
f 148 193 175
f 148 175 174
f 148 174 149
f 149 174 175
f 149 175 150
f 151 176 177
f 151 177 152
f 151 178 176
f 154 180 155
f 155 180 158
f 156 159 181
f 156 181 157
f 161 182 183
f 161 183 184
f 161 184 163
f 161 163 162
f 163 184 185
f 163 185 194
f 163 194 186
f 163 186 187
f 163 187 164
f 164 187 165
f 165 187 188
f 165 188 166
f 166 188 189
f 166 189 169
f 166 169 168
f 166 168 167
f 169 189 190
f 169 190 191
f 169 191 192
f 176 179 177
f 186 194 195
f 186 195 187
f 187 195 196
f 187 196 188
f 188 191 190
f 188 190 189
f 188 196 191
