o piece_005
v -0.0541789 0.0176918 -0.0169762
v -0.0822556 0.000601426 -0.0188512
v -0.0825353 0.0176918 -0.0169762
v -0.0866565 -0.000339885 -0.0135405
v -0.088014 0.00236968 -0.0108306
v -0.0866565 -0.00237072 -0.0135405
v -0.08869 -0.00440155 -0.00947717
v -0.0825411 -0.0154986 -0.0188512
v -0.047861 0.000601426 -0.0188512
v -0.0545326 -0.0155065 -0.0188512
v -0.0846581 -0.0155065 -0.00433488
v -0.0856419 -0.0145557 -0.00440037
v -0.0876711 -0.0125249 -0.00237027
v -0.0866565 -0.0135403 0.00168992
v -0.0880137 -0.0118469 -0.00169357
v -0.08869 -0.0104925 -0.00237027
v -0.0888569 -0.00964735 -0.00355216
v -0.0893664 -0.00913964 -0.00203348
v -0.0893664 -0.00913964 -0.00101687
v -0.0890282 -0.00981606 -0.000680083
v -0.0880137 -0.0108315 0.00439984
v -0.0856419 -0.0145557 0.00270653
v -0.0849655 -0.0148932 0.00439984
v -0.0822556 -0.0155065 0.0130067
v -0.0846581 -0.0155065 0.00277202
v -0.0462754 -0.0155065 -0.010525
v -0.051546 -0.0155065 -0.0164936
v -0.0462754 -0.0135403 -0.0135405
v -0.0515723 -0.0126305 -0.0188512
v -0.049508 -0.0116782 -0.0177691
v -0.0462754 -0.0104925 -0.0155706
v -0.0462754 -0.00971515 -0.0159604
v -0.0462754 -0.00507797 -0.0182774
v -0.0502591 -0.0101551 -0.0188512
v -0.0480806 -0.00565033 -0.0188512
v -0.0536059 -0.0146614 -0.0188512
v -0.0535707 -0.0147244 -0.0187857
v -0.047861 -0.00507797 -0.0188512
v -0.0462754 0.000601426 -0.0182774
v -0.0462754 -0.0138068 0.0130067
v -0.0462754 -0.0155065 0.0105244
v -0.0482519 -0.0155065 0.0126793
v -0.0485549 -0.0153299 0.0130067
v -0.0489063 -0.0155065 0.0130067
v -0.0462754 0.000601426 0.0130067
v -0.0859098 0.000601426 0.0130067
v -0.0859098 -0.00406256 0.0130067
v -0.0857956 -0.00452139 0.0130067
v -0.0856419 -0.00609339 0.0125233
v -0.0876711 -0.00406256 0.0104932
v -0.0866565 -0.00203172 0.0125233
v -0.08869 -0.0010163 0.00947664
v -0.0893664 -0.00406256 0.00710663
v -0.0880971 -0.00507797 0.00926459
v -0.0880971 -0.00711039 0.0082511
v -0.0891117 -0.00507797 0.00723449
v -0.0893664 -0.00609339 0.00609314
v -0.090381 -0.00609339 0.00304644
v -0.0890282 -0.00677139 0.00642993
v -0.0878424 -0.00761652 0.00837583
v -0.0878424 -0.0106628 0.00532913
v -0.0880971 -0.0101551 0.00520439
v -0.0900428 -0.00677139 0.00338323
v -0.090381 -0.00609339 -0.00304385
v -0.0911408 -0.000508596 -0.00152518
v -0.090381 -0.00406256 0.00405993
v -0.090381 -0.0010163 0.00507654
v -0.0893664 -0.0010163 0.00812324
v -0.090381 -8.86843e-07 0.00507654
v -0.0903824 0.00406266 0.00304635
v -0.0891114 0.00254032 0.00761499
v -0.0891114 0.00457122 0.00660038
v -0.0880964 0.00254032 0.0096471
v -0.0891117 -0.000508596 0.00863155
v -0.0876713 0.00203176 0.0104936
v -0.0877147 0.00304721 0.0101544
v -0.0866565 -8.86843e-07 0.0125233
v -0.0860923 0.00248344 0.0126388
v -0.0822577 0.0176918 0.0126388
v -0.0502142 0.0176918 0.0126388
v -0.0462754 0.0139913 0.0126388
v -0.0492555 0.0176918 0.0116763
v -0.0462754 0.0176918 0.00625251
v -0.0462754 0.0155705 0.0104936
v -0.0462754 0.0176918 -0.00625327
v -0.0492165 0.0176918 -0.0114046
v -0.0523007 0.0167549 -0.0165008
v -0.0539707 0.0175512 -0.0169762
v -0.0534979 0.0171815 -0.0169762
v -0.052279 0.0157629 -0.0169762
v -0.0489085 0.0115388 -0.0169762
v -0.0462754 0.0104933 -0.0155703
v -0.0462754 0.0135396 -0.0135382
v -0.0462754 0.0155705 -0.0104914
v -0.0462754 0.00768616 -0.0169762
v -0.0876713 0.0104933 0.00202884
v -0.0880964 0.0096468 0.00253614
v -0.0880964 0.00863302 0.00456826
v -0.0901265 0.00457122 0.00355365
v -0.0891114 0.00558667 0.00558287
v -0.0893674 0.00710901 0.00101423
v -0.0891114 0.00761757 0.00152153
v -0.0883523 0.00914158 -0.00304421
v -0.0893674 0.00710901 -0.0020325
v -0.0876713 0.0104933 -0.00304421
v -0.0903824 0.00406266 -0.00304421
v -0.0910574 -0.000339885 -0.00203348
v -0.090381 -0.00203172 -0.00609056
v -0.090381 -8.86843e-07 -0.00609056
v -0.0893674 0.00203176 -0.00812305
v -0.089029 0.00236968 -0.00880139
v -0.0893674 0.00406266 -0.00710844
v -0.0903824 0.00203176 -0.00507633
v -0.0901265 0.0041898 -0.00406172
v -0.0901265 0.00317435 -0.00507633
v -0.0891114 0.00520525 -0.00710844
v -0.0893664 -0.00406256 -0.00812377
v -0.0893664 -0.00609339 -0.00710716
v -0.0888569 -0.00558568 -0.00863208
v -0.0888569 -0.00863194 -0.00558537
v -0.0898715 -0.0066011 -0.00456876
v -0.090381 -0.00507797 -0.00406046
v -0.0887297 0.00507811 0.00710768
v -0.0877147 0.00507811 0.0091398
v -0.0876711 -0.00609339 0.00947664
f 2 3 1
f 4 3 2
f 4 5 3
f 6 5 4
f 6 7 5
f 6 8 7
f 6 4 8
f 4 2 8
f 9 8 2
f 10 8 9
f 11 8 10
f 12 8 11
f 12 13 8
f 14 13 12
f 15 13 14
f 16 13 15
f 16 17 13
f 16 18 17
f 16 15 18
f 15 19 18
f 15 20 19
f 15 21 20
f 15 14 21
f 22 21 14
f 23 21 22
f 23 24 21
f 23 25 24
f 23 22 25
f 22 12 25
f 22 14 12
f 12 11 25
f 11 10 25
f 10 26 25
f 27 26 10
f 27 28 26
f 29 28 27
f 30 28 29
f 30 31 28
f 30 32 31
f 30 33 32
f 30 29 33
f 34 33 29
f 34 35 33
f 34 29 35
f 29 10 35
f 36 10 29
f 36 37 10
f 36 29 37
f 37 29 27
f 37 27 10
f 35 10 9
f 38 35 9
f 38 33 35
f 38 9 33
f 33 9 39
f 33 39 32
f 32 39 26
f 28 32 26
f 31 32 28
f 26 39 40
f 41 26 40
f 41 42 26
f 41 40 42
f 43 42 40
f 43 44 42
f 43 40 44
f 44 40 24
f 44 24 42
f 42 24 26
f 25 26 24
f 45 24 40
f 46 24 45
f 47 24 46
f 48 24 47
f 48 49 24
f 48 50 49
f 48 47 50
f 50 47 51
f 50 51 52
f 50 52 53
f 54 50 53
f 54 55 50
f 56 55 54
f 56 57 55
f 56 53 57
f 56 54 53
f 57 53 58
f 59 57 58
f 59 55 57
f 59 60 55
f 59 61 60
f 59 62 61
f 59 63 62
f 59 58 63
f 58 19 63
f 58 64 19
f 58 65 64
f 66 65 58
f 66 67 65
f 66 53 67
f 66 58 53
f 68 67 53
f 69 67 68
f 69 65 67
f 69 70 65
f 71 70 69
f 71 72 70
f 71 73 72
f 71 74 73
f 71 68 74
f 71 69 68
f 68 52 74
f 68 53 52
f 73 74 52
f 75 73 52
f 75 76 73
f 75 77 76
f 75 52 77
f 77 52 51
f 77 51 46
f 77 46 78
f 77 78 76
f 78 79 76
f 78 46 79
f 46 45 79
f 45 80 79
f 81 80 45
f 82 80 81
f 82 83 80
f 84 83 82
f 84 81 83
f 84 82 81
f 83 81 85
f 83 85 80
f 85 1 80
f 86 1 85
f 87 1 86
f 88 1 87
f 88 9 1
f 88 89 9
f 88 87 89
f 87 90 89
f 87 91 90
f 87 92 91
f 87 93 92
f 87 86 93
f 94 93 86
f 94 85 93
f 94 86 85
f 93 85 39
f 95 93 39
f 92 93 95
f 92 95 91
f 91 95 9
f 90 91 9
f 89 90 9
f 95 39 9
f 85 40 39
f 45 40 85
f 81 45 85
f 9 2 1
f 1 3 80
f 79 80 3
f 96 79 3
f 97 79 96
f 97 98 79
f 99 98 97
f 99 79 98
f 100 79 99
f 100 72 79
f 100 99 72
f 99 70 72
f 99 101 70
f 102 101 99
f 102 97 101
f 102 99 97
f 103 101 97
f 103 104 101
f 103 3 104
f 103 105 3
f 103 96 105
f 103 97 96
f 105 96 3
f 104 3 106
f 104 106 101
f 70 101 106
f 70 106 65
f 107 65 106
f 107 108 65
f 109 108 107
f 110 108 109
f 110 111 108
f 110 112 111
f 110 113 112
f 110 109 113
f 109 107 113
f 113 107 106
f 114 113 106
f 115 113 114
f 115 116 113
f 115 114 116
f 114 3 116
f 114 106 3
f 116 3 112
f 113 116 112
f 111 112 3
f 111 3 5
f 111 5 7
f 117 111 7
f 117 108 111
f 117 118 108
f 117 119 118
f 117 8 119
f 117 7 8
f 119 8 118
f 120 118 8
f 121 118 120
f 121 64 118
f 121 120 64
f 18 64 120
f 18 19 64
f 18 120 17
f 17 120 8
f 17 8 13
f 122 118 64
f 122 108 118
f 122 65 108
f 122 64 65
f 123 79 72
f 123 124 79
f 123 72 124
f 73 124 72
f 73 76 124
f 124 76 79
f 51 47 46
f 20 63 19
f 20 21 63
f 62 63 21
f 62 21 61
f 61 21 24
f 60 61 24
f 60 24 55
f 125 55 24
f 125 50 55
f 125 24 50
f 50 24 49
