o piece_002
v -0.0462754 0.000598675 0.0182808
v -0.0462754 -0.0050796 0.0182808
v -0.0462754 0.000598675 0.0130067
v -0.0515097 0.000598675 0.022627
v -0.0514543 0.000337194 0.0226799
v -0.0492572 -0.0114267 0.0177732
v -0.0462754 -0.00846509 0.0165889
v -0.0534899 -0.00270975 0.0236951
v -0.0524744 -0.00474105 0.0226799
v -0.0531483 -0.00541814 0.0230183
v -0.0511174 -0.00744944 0.020988
v -0.0512882 -0.00837976 0.0208188
v -0.0523036 -0.0124424 0.0198036
v -0.0462754 -0.0138076 0.0130067
v -0.0859111 0.000598675 0.0130067
v -0.0545561 0.000598675 0.024659
v -0.0545054 0.000337194 0.0247103
v -0.0462754 -0.0135406 0.0135416
v -0.0462754 -0.0104964 0.015572
v -0.0541638 -0.00338685 0.0240335
v -0.0533191 -0.00634847 0.0228491
v -0.0572102 -0.00744944 0.0250487
v -0.0543346 -0.0114267 0.021834
v -0.0523036 -0.0165022 0.0167581
v -0.0543346 -0.013458 0.0208188
v -0.0543346 -0.0205648 0.0137108
v -0.0526175 -0.0193923 0.0130067
v -0.0931717 -0.0213933 0.0130067
v -0.093144 0.000598675 0.0256742
v -0.0565363 0.000598675 0.0257255
v -0.0572102 0.000598675 0.0260656
v -0.0551793 -0.000339905 0.0250487
v -0.0572102 -0.00135555 0.0260656
v -0.0561947 -0.0044025 0.0250487
v -0.057381 -0.00837976 0.0248795
v -0.0592412 -0.00744944 0.0260656
v -0.057381 -0.013458 0.0228491
v -0.0538268 -0.0172619 0.0172657
v -0.0563655 -0.0165022 0.0198036
v -0.0563655 -0.0195491 0.0167581
v -0.057381 -0.0225933 0.0137108
v -0.0570671 -0.0226346 0.0130067
v -0.0540207 -0.0206033 0.0130067
v -0.0934302 -0.0225355 0.0130067
v -0.0934302 0.000598675 0.026404
v -0.0578887 0.000598675 0.026404
v -0.0599197 -1.35602e-06 0.0274191
v -0.0592412 -0.000339905 0.0270807
v -0.0594119 -0.00837976 0.0258964
v -0.0612721 -0.00643379 0.0270807
v -0.0599197 -0.00825315 0.0261493
v -0.057381 -0.0185335 0.0187884
v -0.0594119 -0.013458 0.0238643
v -0.0604274 -0.0195491 0.0198036
v -0.0594119 -0.0205648 0.0177732
v -0.0589042 -0.0237383 0.0132032
v -0.0576949 -0.0230255 0.0130067
v -0.0934302 -0.0255825 0.0130067
v -0.0934302 0.000598675 0.0284343
v -0.0583041 0.000598675 0.0266108
v -0.0600397 0.000598675 0.0272978
v -0.0629661 0.000598675 0.0284343
v -0.0629661 -0.001017 0.0284343
v -0.0619506 -0.00609524 0.0274191
v -0.0599197 -0.0133314 0.024119
v -0.0624583 -0.0114267 0.0258964
v -0.0619506 -0.0072375 0.0271645
v -0.064997 -0.0072375 0.0281814
v -0.0629661 -0.0113001 0.0261493
v -0.0614429 -0.0175178 0.021834
v -0.0634738 -0.0144709 0.0248795
v -0.0629661 -0.0186161 0.0216665
v -0.064997 -0.0196317 0.0216665
v -0.0614429 -0.0200556 0.0198036
v -0.0619506 -0.0206914 0.019296
v -0.0629661 -0.0227227 0.0172657
v -0.0604274 -0.0241182 0.0137108
v -0.0590981 -0.0238842 0.0130067
v -0.0588396 -0.0237301 0.0130067
v -0.0619506 -0.0237383 0.0152336
v -0.0934302 -0.025387 0.0142184
v -0.0932456 -0.0264027 0.0130067
v -0.0934302 -1.35602e-06 0.0294495
v -0.0931717 0.000505093 0.0299571
v -0.0931487 0.000598675 0.0298648
v -0.0660125 0.000598675 0.0294495
v -0.0660125 -0.001017 0.0294495
v -0.0639816 -0.00406395 0.0284343
v -0.064997 -0.00609524 0.0284343
v -0.0639816 -0.0143443 0.0251341
v -0.0690589 -0.0072375 0.0291965
v -0.0660125 -0.00825315 0.0281814
v -0.064997 -0.0102844 0.0271645
v -0.0660125 -0.0133314 0.0261493
v -0.064997 -0.0155691 0.0247103
v -0.0665202 -0.0210712 0.0208188
v -0.064997 -0.021663 0.0196344
v -0.067028 -0.0165848 0.0247103
v -0.0710852 -0.021663 0.0216665
v -0.0629661 -0.021663 0.0186192
v -0.064997 -0.0227227 0.0182808
v -0.067028 -0.02471 0.0165889
v -0.064997 -0.02471 0.015572
v -0.0644893 -0.0251338 0.014726
v -0.0665202 -0.0261495 0.0137108
v -0.0651909 -0.0259155 0.0130067
v -0.0934302 -0.0243714 0.0162488
v -0.0931394 -0.0266752 0.0130067
v -0.0930886 -0.0260641 0.0145568
v -0.0930886 -0.0250485 0.0165889
v -0.0930886 -1.35602e-06 0.0301263
v -0.0934302 -0.00711089 0.0284343
v -0.0929409 0.000598675 0.0300511
v -0.0712052 0.000598675 0.030345
v -0.0710852 -1.35602e-06 0.0304664
v -0.067028 -0.0030483 0.0294495
v -0.0690589 -0.00609524 0.0294495
v -0.0660125 -0.0153599 0.0251341
v -0.0700698 -0.00711089 0.0294495
v -0.067028 -0.0132048 0.026404
v -0.0710852 -0.00825315 0.0291965
v -0.0700698 -0.0102844 0.0281814
v -0.0680434 -0.0143443 0.0261493
v -0.067028 -0.021707 0.0203112
v -0.0690589 -0.0155691 0.0257255
v -0.0721007 -0.0165848 0.0257255
v -0.0761626 -0.0236943 0.0196344
v -0.0731162 -0.0226787 0.0206496
v -0.0721007 -0.0257256 0.0165889
v -0.0731162 -0.0206474 0.0226799
v -0.0761626 -0.0196317 0.0236951
v -0.0812399 -0.021663 0.0216665
v -0.0665202 -0.0251338 0.0157412
v -0.0710852 -0.0257669 0.0162488
v -0.0685512 -0.0261495 0.014726
v -0.071593 -0.0271651 0.0137108
v -0.0692528 -0.0269312 0.0130067
v -0.067028 -0.026477 0.0130067
v -0.0934302 -0.0233558 0.0172657
v -0.0931717 -0.0243714 0.0173921
v -0.0929594 -0.0268321 0.0130067
v -0.0928717 -0.0268926 0.0130067
v -0.0929179 -0.0258963 0.0149807
v -0.0929179 -0.0248806 0.017011
v -0.0930886 -0.00711089 0.0291111
v -0.0929179 -0.000507803 0.0302117
v -0.0924101 -1.35602e-06 0.0304664
v -0.0927148 0.000598675 0.0301656
v -0.0934302 -0.0101578 0.0274191
v -0.0721007 0.000598675 0.0304664
v -0.0741316 -0.0030483 0.0304664
v -0.0721007 -0.00812654 0.0294495
v -0.0721007 -0.0132048 0.0274191
v -0.0690589 -0.0142149 0.026404
v -0.0690589 -0.014892 0.0260656
v -0.0721007 -0.0159077 0.0260656
v -0.0802245 -0.0165848 0.0257255
v -0.079209 -0.0226787 0.0206496
v -0.0924101 -0.02471 0.017604
v -0.0802245 -0.0257256 0.0165889
v -0.0744271 -0.0275174 0.0130067
v -0.071593 -0.0261495 0.0157412
v -0.0924101 -0.0176004 0.0247103
v -0.079209 -0.0206474 0.0226799
v -0.0924101 -0.0206474 0.0216665
v -0.0680434 -0.0257669 0.0152336
v -0.0721007 -0.0274183 0.0132032
v -0.0721007 -0.0274183 0.0130067
v -0.0934302 -0.0192932 0.0213281
v -0.0931717 -0.0213245 0.0204394
v -0.0924101 -0.0270082 0.0130067
v -0.0924101 -0.0267412 0.0135416
v -0.0924101 -0.0250485 0.0169273
v -0.0930886 -0.0101578 0.0280959
v -0.0929179 -0.00761734 0.0291965
v -0.0924101 -0.00711089 0.0294495
v -0.0781935 -0.0030483 0.0304664
v -0.0816554 0.000598675 0.0304664
v -0.0934302 -0.0121891 0.026404
v -0.0931717 -0.0111735 0.0275456
v -0.0751471 -0.0111735 0.0284343
v -0.0802245 -0.00812654 0.0294495
v -0.0787013 -0.0116799 0.0281814
v -0.0802245 -0.0132048 0.0274191
v -0.0802245 -0.0159077 0.0260656
v -0.0807322 -0.0157398 0.0261493
v -0.0802245 -0.0274183 0.0132032
v -0.0781935 -0.0275174 0.0130067
v -0.0733147 -0.0274927 0.0130067
v -0.0929179 -0.0167554 0.0251341
v -0.0931717 -0.0172619 0.0244984
v -0.0931717 -0.0203088 0.0214545
v -0.0934302 -0.0162462 0.0243719
v -0.0929179 -0.0106643 0.0281814
v -0.0924101 -0.0101578 0.0284343
v -0.0931717 -0.0132048 0.0265304
v -0.0781935 -0.0111735 0.0284343
v -0.0807322 -0.0137085 0.0271645
f 1 2 7
f 1 7 19
f 1 19 18
f 1 18 14
f 1 14 3
f 1 3 15
f 1 15 29
f 1 29 45
f 1 45 59
f 1 59 85
f 1 85 113
f 1 113 148
f 1 148 178
f 1 178 150
f 1 150 114
f 1 114 86
f 1 86 62
f 1 62 61
f 1 61 60
f 1 60 46
f 1 46 31
f 1 31 30
f 1 30 16
f 1 16 4
f 1 4 5
f 1 5 2
f 2 6 7
f 2 5 8
f 2 8 9
f 2 9 10
f 2 10 11
f 2 11 12
f 2 12 13
f 2 13 6
f 3 14 27
f 3 27 43
f 3 43 42
f 3 42 57
f 3 57 79
f 3 79 78
f 3 78 106
f 3 106 138
f 3 138 137
f 3 137 168
f 3 168 189
f 3 189 161
f 3 161 188
f 3 188 171
f 3 171 142
f 3 142 141
f 3 141 108
f 3 108 82
f 3 82 58
f 3 58 44
f 3 44 28
f 3 28 15
f 4 16 5
f 5 16 17
f 5 17 8
f 6 18 19
f 6 19 7
f 6 13 18
f 8 17 32
f 8 32 20
f 8 20 10
f 8 10 9
f 10 21 12
f 10 12 11
f 10 20 34
f 10 34 22
f 10 22 35
f 10 35 21
f 12 21 35
f 12 35 23
f 12 23 13
f 13 24 18
f 13 23 25
f 13 25 24
f 14 18 26
f 14 26 27
f 15 28 29
f 16 30 17
f 17 30 31
f 17 31 32
f 18 24 26
f 20 32 33
f 20 33 34
f 22 34 33
f 22 33 36
f 22 36 49
f 22 49 35
f 23 35 37
f 23 37 25
f 24 38 26
f 24 25 39
f 24 39 38
f 25 37 39
f 26 40 41
f 26 41 42
f 26 42 43
f 26 43 27
f 26 38 40
f 28 44 45
f 28 45 29
f 31 46 47
f 31 47 48
f 31 48 33
f 31 33 32
f 33 48 50
f 33 50 36
f 35 49 37
f 36 50 67
f 36 67 51
f 36 51 49
f 37 52 39
f 37 49 53
f 37 53 54
f 37 54 52
f 38 39 52
f 38 52 40
f 40 52 54
f 40 54 55
f 40 55 41
f 41 55 56
f 41 56 42
f 42 56 57
f 44 58 81
f 44 81 107
f 44 107 139
f 44 139 169
f 44 169 193
f 44 193 179
f 44 179 149
f 44 149 112
f 44 112 83
f 44 83 59
f 44 59 45
f 46 60 47
f 47 60 61
f 47 61 62
f 47 62 86
f 47 86 87
f 47 87 63
f 47 63 88
f 47 88 64
f 47 64 50
f 47 50 48
f 49 65 53
f 49 51 69
f 49 69 66
f 49 66 65
f 50 64 67
f 51 67 68
f 51 68 92
f 51 92 69
f 53 70 54
f 53 65 90
f 53 90 71
f 53 71 70
f 54 70 72
f 54 72 73
f 54 73 74
f 54 74 75
f 54 75 76
f 54 76 55
f 55 76 56
f 56 77 78
f 56 78 79
f 56 79 57
f 56 76 80
f 56 80 77
f 58 82 81
f 59 83 84
f 59 84 85
f 63 87 88
f 64 88 89
f 64 89 68
f 64 68 67
f 65 66 69
f 65 69 90
f 68 89 117
f 68 117 91
f 68 91 92
f 69 92 93
f 69 93 94
f 69 94 90
f 70 71 72
f 71 90 95
f 71 95 72
f 72 95 98
f 72 98 73
f 73 96 97
f 73 97 74
f 73 98 99
f 73 99 96
f 74 97 75
f 75 97 100
f 75 100 76
f 76 100 97
f 76 97 101
f 76 101 102
f 76 102 103
f 76 103 104
f 76 104 80
f 77 80 104
f 77 104 105
f 77 105 106
f 77 106 78
f 81 82 108
f 81 108 109
f 81 109 110
f 81 110 107
f 83 111 84
f 83 112 145
f 83 145 111
f 84 111 113
f 84 113 85
f 86 114 115
f 86 115 87
f 87 116 89
f 87 89 88
f 87 115 116
f 89 116 117
f 90 94 118
f 90 118 98
f 90 98 95
f 91 117 119
f 91 119 92
f 92 120 94
f 92 94 93
f 92 119 121
f 92 121 122
f 92 122 120
f 94 120 123
f 94 123 118
f 96 124 97
f 96 99 124
f 97 124 102
f 97 102 101
f 98 118 123
f 98 123 125
f 98 125 126
f 98 126 99
f 99 127 128
f 99 128 129
f 99 129 102
f 99 102 124
f 99 126 130
f 99 130 131
f 99 131 132
f 99 132 127
f 102 133 104
f 102 104 103
f 102 129 134
f 102 134 133
f 104 133 135
f 104 135 105
f 105 135 136
f 105 136 137
f 105 137 138
f 105 138 106
f 107 110 140
f 107 140 139
f 108 141 109
f 109 141 142
f 109 142 143
f 109 143 110
f 110 143 144
f 110 144 140
f 111 145 175
f 111 175 146
f 111 146 147
f 111 147 148
f 111 148 113
f 112 149 174
f 112 174 145
f 114 150 115
f 115 150 178
f 115 178 147
f 115 147 177
f 115 177 151
f 115 151 119
f 115 119 117
f 115 117 116
f 119 151 152
f 119 152 121
f 120 122 153
f 120 153 123
f 121 152 153
f 121 153 122
f 123 154 155
f 123 155 125
f 123 153 154
f 125 155 156
f 125 156 126
f 126 131 130
f 126 156 185
f 126 185 157
f 126 157 131
f 127 129 128
f 127 132 158
f 127 158 159
f 127 159 160
f 127 160 129
f 129 161 136
f 129 136 162
f 129 162 134
f 129 160 188
f 129 188 161
f 131 157 163
f 131 163 164
f 131 164 132
f 132 164 163
f 132 163 165
f 132 165 159
f 132 159 158
f 133 134 166
f 133 166 135
f 134 162 135
f 134 135 166
f 135 162 136
f 136 161 167
f 136 167 137
f 137 167 168
f 139 140 170
f 139 170 169
f 140 144 159
f 140 159 170
f 142 171 143
f 143 171 172
f 143 172 173
f 143 173 159
f 143 159 144
f 145 174 194
f 145 194 175
f 146 175 147
f 147 175 176
f 147 176 177
f 147 178 148
f 149 179 196
f 149 196 180
f 149 180 174
f 151 177 182
f 151 182 152
f 152 181 153
f 152 182 197
f 152 197 181
f 153 156 155
f 153 155 154
f 153 181 183
f 153 183 184
f 153 184 185
f 153 185 156
f 157 185 186
f 157 186 190
f 157 190 163
f 159 165 170
f 159 173 160
f 160 173 172
f 160 172 187
f 160 187 188
f 161 189 167
f 163 190 191
f 163 191 192
f 163 192 165
f 165 192 170
f 167 189 168
f 169 170 192
f 169 192 191
f 169 191 193
f 171 188 187
f 171 187 172
f 174 180 194
f 175 194 195
f 175 195 176
f 176 195 182
f 176 182 177
f 179 193 191
f 179 191 196
f 180 196 194
f 181 197 183
f 182 195 197
f 183 197 195
f 183 195 194
f 183 194 184
f 184 194 198
f 184 198 186
f 184 186 185
f 186 198 194
f 186 194 190
f 190 194 196
f 190 196 191
