o piece_006
v -0.0541776 0.0176918 -0.0169776
v -0.0539699 0.0175512 -0.0169776
v -0.0538268 0.0172635 -0.0172654
v -0.0542515 0.0176918 -0.0170515
v -0.082537 0.0176918 -0.0169776
v -0.0534991 0.0171815 -0.0169776
v -0.0543346 0.0137086 -0.0205653
v -0.0563655 0.0167549 -0.0195499
v -0.056444 0.0176918 -0.0186546
v -0.0548423 0.0176014 -0.0176035
v -0.0522806 0.0157629 -0.0169776
v -0.0492572 0.0116777 -0.017519
v -0.0523036 0.0126931 -0.0195499
v -0.0545746 0.0176918 -0.0172918
v -0.0924101 0.0176918 -0.0174252
v -0.0824631 0.000603099 -0.0169776
v -0.0543346 0.0126931 -0.0210737
v -0.0548423 0.0121863 -0.0217076
v -0.057381 0.0137086 -0.0225963
v -0.0583965 0.0157395 -0.0215808
v -0.0594904 0.0176918 -0.0206261
v -0.0593335 0.0176918 -0.0205257
v -0.0495711 0.012377 -0.0169776
v -0.048911 0.0115388 -0.0169776
v -0.0462754 0.00768616 -0.0169776
v -0.0462754 0.00740344 -0.0171189
v -0.0462754 0.00507811 -0.0182809
v -0.0492572 0.0106622 -0.018026
v -0.0514543 0.0111708 -0.0196344
v -0.0523036 0.0116777 -0.0200583
v -0.0929594 0.0176918 -0.0176193
v -0.0462754 0.000603099 -0.0169776
v -0.0931717 0.0176918 -0.0177263
v -0.0929179 0.00152487 -0.0246258
v -0.0931394 0.000603099 -0.0254512
v -0.0543346 0.0106622 -0.0220892
v -0.0548423 0.0101554 -0.022723
v -0.057381 0.0126931 -0.0231046
v -0.0589042 0.0132017 -0.0237372
v -0.0583965 0.0137086 -0.0231046
v -0.0605059 0.0176918 -0.0211741
v -0.0462754 0.000603099 -0.0182809
v -0.0516574 0.000603099 -0.0227059
v -0.0504389 0.00203176 -0.0216653
v -0.0534899 0.00304721 -0.0236962
v -0.0524744 0.00507811 -0.0226808
v -0.0528114 0.00609356 -0.022723
v -0.0517959 0.00710901 -0.0217076
v -0.0504389 0.00710901 -0.0206498
v -0.0528114 0.0111708 -0.0206921
v -0.0931717 0.00101631 -0.025261
v -0.0932825 0.0176918 -0.0182069
v -0.0934302 0.00203176 -0.0253878
v -0.0932779 0.000603099 -0.0257271
v -0.0568733 0.00812446 -0.0247526
v -0.0558578 0.00914158 -0.0237372
v -0.0589042 0.00812446 -0.0257694
v -0.0599197 0.00914158 -0.0257694
v -0.0629661 0.0121863 -0.0257694
v -0.0604274 0.0137086 -0.0241188
v -0.0625368 0.0176918 -0.0221895
v -0.0547038 0.000603099 -0.0247354
v -0.0552577 0.000603099 -0.0250642
v -0.0543346 0.00355577 -0.0241188
v -0.0538268 0.00406266 -0.0237372
v -0.0558578 0.00507811 -0.0247526
v -0.0934302 0.0176918 -0.0188685
v -0.0934302 0.000603099 -0.0264032
v -0.057381 0.00761757 -0.0251342
v -0.0594119 0.00761757 -0.0261497
v -0.0604274 0.00863302 -0.0261497
v -0.0634738 0.0116777 -0.0261497
v -0.0644893 0.014724 -0.0251342
v -0.0619506 0.0152326 -0.0237372
v -0.0629661 0.0172635 -0.022723
v -0.067028 0.016586 -0.0247104
v -0.0655832 0.0176918 -0.023205
v -0.0565363 0.000603099 -0.0257271
v -0.0565363 0.00101631 -0.0257271
v -0.057381 0.00152487 -0.0261497
v -0.0563655 0.00457122 -0.0251342
v -0.0934302 0.0176918 -0.0229303
v -0.0934302 0.000603099 -0.0288488
v -0.0614429 0.00660212 -0.0271651
v -0.0665202 0.00863302 -0.0281806
v -0.0655048 0.0106622 -0.0271651
v -0.0665202 0.0137086 -0.0261497
v -0.0660125 0.0142172 -0.0257694
v -0.0665202 0.0157395 -0.0251342
v -0.064997 0.0155705 -0.0247104
v -0.067028 0.0176014 -0.0236962
v -0.0710852 0.0162481 -0.0257694
v -0.0721007 0.016586 -0.0257271
v -0.0710852 0.0176014 -0.0247104
v -0.0667603 0.0176918 -0.0235193
v -0.0568086 0.000603099 -0.0258645
v -0.0572102 0.00101631 -0.0260652
v -0.0581657 0.000603099 -0.0265419
v -0.0578887 0.00101631 -0.0264032
v -0.0593196 0.000603099 -0.0270952
v -0.0604274 0.00355577 -0.0271651
v -0.0934302 0.0172635 -0.0233582
v -0.0931717 0.0176918 -0.0240712
v -0.0931717 0.0173907 -0.0243723
v -0.0934302 0.00710901 -0.0284341
v -0.0932964 0.000603099 -0.0294496
v -0.0634738 0.00457122 -0.0281806
v -0.0644893 0.00660212 -0.0281806
v -0.0700698 0.00710901 -0.0294496
v -0.0695666 0.00761757 -0.0291961
v -0.071593 0.00863302 -0.0291961
v -0.071593 0.0137086 -0.0271651
v -0.0685512 0.014724 -0.0261497
v -0.0680434 0.0152326 -0.0257694
v -0.071593 0.0157395 -0.0261497
v -0.0761626 0.0176918 -0.0246668
v -0.0721007 0.0159101 -0.0260652
v -0.0802245 0.016586 -0.0257271
v -0.0708175 0.0176918 -0.0245334
v -0.0572102 0.000603099 -0.0260652
v -0.0629661 0.000603099 -0.0284341
v -0.0629661 0.00101631 -0.0284341
v -0.0624583 0.00152487 -0.0281806
v -0.0934302 0.0162481 -0.0243723
v -0.0924101 0.0176918 -0.0245334
v -0.0924101 0.0176014 -0.0247104
v -0.0930886 0.016586 -0.0250497
v -0.0929179 0.0170092 -0.0248807
v -0.0934302 0.0101554 -0.0274187
v -0.0930886 0.00744861 -0.0291116
v -0.0931163 0.000603099 -0.0299052
v -0.0639816 0.00406266 -0.0284341
v -0.064997 0.00609356 -0.0284341
v -0.0690589 0.00609356 -0.0294496
v -0.0721007 0.00101631 -0.0304664
v -0.0741316 0.00304721 -0.0304664
v -0.0721007 0.00812446 -0.0294496
v -0.0721007 0.0132017 -0.0274187
v -0.0721007 0.0145551 -0.0267426
v -0.0770442 0.0176918 -0.0246668
v -0.0751471 0.0125242 -0.027758
v -0.0802245 0.0159101 -0.0260652
v -0.0924101 0.0169256 -0.0250497
v -0.0660125 0.000603099 -0.0294496
v -0.0660125 0.00101631 -0.0294496
v -0.0930886 0.0104933 -0.0280961
v -0.0929825 0.000603099 -0.0300227
v -0.0924101 0.0101554 -0.0284341
v -0.0924101 0.00710901 -0.0294496
v -0.067028 0.00304721 -0.0294496
v -0.0721007 0.000603099 -0.0304664
v -0.0781935 0.00304721 -0.0304664
v -0.0751471 0.0111708 -0.0284341
v -0.0802245 0.00812446 -0.0294496
v -0.0781935 0.0125242 -0.027758
v -0.0802245 0.0145551 -0.0267426
v -0.0924101 0.0115087 -0.027758
v -0.0924101 0.000603099 -0.0301653
v -0.0802245 0.0132017 -0.0274187
v -0.0781935 0.0111708 -0.0284341
v -0.0816554 0.000603099 -0.0304664
v -0.0802245 0.00203176 -0.0304664
f 1 2 3
f 1 3 4
f 1 4 14
f 1 14 9
f 1 9 22
f 1 22 21
f 1 21 41
f 1 41 61
f 1 61 77
f 1 77 95
f 1 95 119
f 1 119 116
f 1 116 140
f 1 140 125
f 1 125 103
f 1 103 82
f 1 82 67
f 1 67 52
f 1 52 33
f 1 33 31
f 1 31 15
f 1 15 5
f 1 5 16
f 1 16 32
f 1 32 25
f 1 25 24
f 1 24 23
f 1 23 11
f 1 11 6
f 1 6 2
f 2 6 3
f 3 7 8
f 3 8 9
f 3 9 10
f 3 10 4
f 3 6 11
f 3 11 12
f 3 12 13
f 3 13 7
f 4 10 14
f 5 15 16
f 7 17 18
f 7 18 19
f 7 19 8
f 7 13 30
f 7 30 17
f 8 19 20
f 8 20 21
f 8 21 22
f 8 22 9
f 9 14 10
f 11 23 12
f 12 23 24
f 12 24 25
f 12 25 26
f 12 26 27
f 12 27 28
f 12 28 29
f 12 29 13
f 13 29 30
f 15 31 16
f 16 31 33
f 16 33 34
f 16 34 35
f 16 35 54
f 16 54 68
f 16 68 83
f 16 83 106
f 16 106 131
f 16 131 147
f 16 147 158
f 16 158 161
f 16 161 151
f 16 151 144
f 16 144 121
f 16 121 100
f 16 100 98
f 16 98 120
f 16 120 96
f 16 96 78
f 16 78 63
f 16 63 62
f 16 62 43
f 16 43 42
f 16 42 32
f 17 36 37
f 17 37 18
f 17 30 36
f 18 37 38
f 18 38 19
f 19 38 39
f 19 39 40
f 19 40 41
f 19 41 20
f 20 41 21
f 25 32 42
f 25 42 27
f 25 27 26
f 27 42 43
f 27 43 44
f 27 44 45
f 27 45 46
f 27 46 47
f 27 47 48
f 27 48 49
f 27 49 29
f 27 29 28
f 29 49 48
f 29 48 50
f 29 50 30
f 30 50 37
f 30 37 36
f 33 51 34
f 33 52 53
f 33 53 51
f 34 51 35
f 35 51 54
f 37 55 56
f 37 56 38
f 37 50 48
f 37 48 47
f 37 47 55
f 38 55 39
f 38 56 55
f 39 55 57
f 39 57 58
f 39 58 59
f 39 59 60
f 39 60 40
f 40 60 61
f 40 61 41
f 43 62 45
f 43 45 44
f 45 62 63
f 45 63 64
f 45 64 65
f 45 65 47
f 45 47 46
f 47 65 66
f 47 66 55
f 51 53 54
f 52 67 53
f 53 68 54
f 53 67 82
f 53 82 102
f 53 102 124
f 53 124 129
f 53 129 105
f 53 105 83
f 53 83 68
f 55 66 81
f 55 81 69
f 55 69 57
f 57 69 70
f 57 70 58
f 58 71 72
f 58 72 59
f 58 70 71
f 59 72 73
f 59 73 60
f 60 73 74
f 60 74 61
f 61 74 75
f 61 75 76
f 61 76 77
f 63 78 79
f 63 79 80
f 63 80 64
f 64 80 81
f 64 81 66
f 64 66 65
f 69 81 80
f 69 80 70
f 70 80 101
f 70 101 84
f 70 84 108
f 70 108 85
f 70 85 71
f 71 85 72
f 72 85 86
f 72 86 87
f 72 87 73
f 73 87 88
f 73 88 114
f 73 114 89
f 73 89 76
f 73 76 90
f 73 90 75
f 73 75 74
f 75 90 76
f 76 91 77
f 76 89 92
f 76 92 93
f 76 93 94
f 76 94 91
f 77 91 95
f 78 96 79
f 79 96 97
f 79 97 80
f 80 97 98
f 80 98 99
f 80 99 100
f 80 100 101
f 82 103 104
f 82 104 102
f 83 105 106
f 84 101 123
f 84 123 107
f 84 107 108
f 85 87 86
f 85 108 109
f 85 109 110
f 85 110 111
f 85 111 112
f 85 112 87
f 87 112 113
f 87 113 114
f 87 114 88
f 89 114 92
f 91 94 119
f 91 119 95
f 92 114 113
f 92 113 115
f 92 115 93
f 93 116 94
f 93 115 117
f 93 117 142
f 93 142 118
f 93 118 140
f 93 140 116
f 94 116 119
f 96 120 97
f 97 120 98
f 98 100 99
f 100 121 122
f 100 122 123
f 100 123 101
f 102 104 124
f 103 125 126
f 103 126 104
f 104 127 124
f 104 126 128
f 104 128 127
f 105 129 130
f 105 130 131
f 105 131 106
f 107 132 133
f 107 133 108
f 107 123 122
f 107 122 132
f 108 133 109
f 109 134 135
f 109 135 136
f 109 136 137
f 109 137 111
f 109 111 110
f 109 133 134
f 111 137 138
f 111 138 112
f 112 115 113
f 112 138 139
f 112 139 117
f 112 117 115
f 117 139 141
f 117 141 155
f 117 155 142
f 118 142 143
f 118 143 126
f 118 126 140
f 121 144 145
f 121 145 122
f 122 145 132
f 124 127 146
f 124 146 129
f 125 140 126
f 126 143 128
f 127 128 143
f 127 143 146
f 129 146 130
f 130 147 131
f 130 146 148
f 130 148 149
f 130 149 147
f 132 145 150
f 132 150 133
f 133 150 134
f 134 150 135
f 135 151 161
f 135 161 162
f 135 162 152
f 135 152 136
f 135 150 145
f 135 145 144
f 135 144 151
f 136 152 154
f 136 154 137
f 137 153 138
f 137 154 160
f 137 160 153
f 138 153 141
f 138 141 139
f 141 153 160
f 141 160 155
f 142 155 156
f 142 156 157
f 142 157 143
f 143 157 146
f 146 157 148
f 147 149 158
f 148 157 156
f 148 156 159
f 148 159 160
f 148 160 154
f 148 154 149
f 149 154 152
f 149 152 158
f 152 162 158
f 155 160 159
f 155 159 156
f 158 162 161
