o piece_004
v -0.0800906 -0.0155065 -0.0262675
v -0.080566 -0.0165887 -0.0257255
v -0.0927517 -0.0155724 -0.0257255
v -0.0926871 -0.0155065 -0.0257562
v -0.0719669 -0.0155065 -0.0262675
v -0.0927517 -0.0176035 -0.0247106
v -0.0724377 -0.0165887 -0.0257255
v -0.0765042 -0.0196345 -0.0236956
v -0.0934302 -0.0162489 -0.0243723
v -0.0931717 -0.0155065 -0.0251296
v -0.0927655 -0.0155065 -0.025737
v -0.0693312 -0.0155065 -0.0257562
v -0.0717638 -0.0159107 -0.0260638
v -0.0927517 -0.0186197 -0.0236956
v -0.0932594 -0.0170953 -0.0242031
v -0.0795506 -0.0206508 -0.0226769
v -0.0815815 -0.0216656 -0.021662
v -0.0673649 -0.0165887 -0.0247106
v -0.0714222 -0.0216656 -0.021662
v -0.0734577 -0.0206508 -0.0226769
v -0.0734577 -0.0226819 -0.020647
v -0.0795506 -0.0226819 -0.020647
v -0.0934302 -0.0155065 -0.0243723
v -0.0934302 -0.0172652 -0.0233573
v -0.0668895 -0.0155065 -0.0252488
v -0.066691 -0.0159107 -0.0250489
v -0.0927517 -0.0247114 -0.0176023
v -0.0932594 -0.0181116 -0.0231882
v -0.0646601 -0.018958 -0.0220003
v -0.065334 -0.0196345 -0.021662
v -0.066691 -0.0209891 -0.0209853
v -0.0724377 -0.0257262 -0.0165835
v -0.0673649 -0.0247114 -0.0165835
v -0.0765042 -0.0236952 -0.0196321
v -0.0934302 -0.0155065 -0.0203087
v -0.0934302 -0.0233569 -0.017264
v -0.066211 -0.0155065 -0.0250988
v -0.0657586 -0.0157423 -0.0248797
v -0.0927517 -0.0277573 -0.0115089
v -0.0934302 -0.0264028 -0.0121856
v -0.0934302 -0.025388 -0.0142154
v -0.0932594 -0.0242033 -0.0170948
v -0.080566 -0.0257262 -0.0165835
v -0.080566 -0.0267425 -0.0145537
v -0.0637277 -0.0187881 -0.0218311
v -0.0657586 -0.0208192 -0.0208162
v -0.065334 -0.0216656 -0.0196321
v -0.0717638 -0.0260645 -0.0159069
v -0.0724377 -0.0267425 -0.0145537
v -0.066691 -0.0250497 -0.0159069
v -0.0934302 -0.0225383 0.0130067
v -0.0931717 -0.0213961 0.0130067
v -0.0927332 -0.0210784 0.0130067
v -0.0822554 -0.0155065 0.0130067
v -0.0934302 -0.0243717 -0.0162452
v -0.0658186 -0.0155065 -0.024995
v -0.0607413 -0.0155065 -0.0229652
v -0.0606813 -0.0157423 -0.022846
v -0.0616967 -0.0177733 -0.0218311
v -0.0924101 -0.0284338 -0.0101519
v -0.0924101 -0.0294501 -0.00710712
v -0.0927517 -0.0287736 -0.00846034
v -0.0930886 -0.0291118 -0.00676881
v -0.0930886 -0.0280956 -0.00981357
v -0.0934302 -0.027419 -0.0101519
v -0.0802245 -0.027419 -0.0132005
v -0.0606813 -0.0198044 -0.0198013
v -0.0637277 -0.0218355 -0.0187864
v -0.0646601 -0.0220039 -0.0189555
v -0.068722 -0.0260645 -0.014892
v -0.0717638 -0.0270808 -0.0138771
v -0.0657586 -0.0248799 -0.0157378
v -0.0646601 -0.0250497 -0.014892
v -0.0934302 -0.0255827 0.0130067
v -0.0489064 -0.0155065 0.0130067
v -0.0587103 -0.0155065 -0.0219503
v -0.0586503 -0.0157423 -0.0218311
v -0.0781935 -0.0284338 -0.0111706
v -0.0802245 -0.0294501 -0.00812204
v -0.0924101 -0.0304664 -2.69742e-06
v -0.0781935 -0.0304664 -0.00304745
v -0.0930886 -0.0301266 0.000335608
v -0.0934302 -0.0294501 -2.69742e-06
v -0.0934302 -0.0284338 -0.00710712
v -0.0616967 -0.0218355 -0.0177714
v -0.0576349 -0.0187881 -0.0187864
v -0.0596658 -0.0208192 -0.0177714
v -0.066691 -0.0260645 -0.0138771
v -0.0721007 -0.027419 -0.0132005
v -0.0700698 -0.027419 -0.0121856
v -0.0637277 -0.0248799 -0.0147228
v -0.0657586 -0.0258961 -0.0137079
v -0.0934302 -0.0264028 0.012184
v -0.0932456 -0.0264028 0.0130067
v -0.0495665 -0.016347 0.0130067
v -0.0482556 -0.0155065 0.0126799
v -0.0556639 -0.0155065 -0.0199166
v -0.0556039 -0.0157423 -0.0198013
v -0.0566194 -0.0167571 -0.0198013
v -0.0751471 -0.0284338 -0.0111706
v -0.0721007 -0.0294501 -0.00812204
v -0.0924101 -0.0294501 0.00710557
v -0.0930886 -0.0291118 0.00744388
v -0.0781935 -0.0304664 0.0030459
v -0.0741316 -0.0304664 -0.00304745
v -0.0934302 -0.0284338 0.00710557
v -0.0576349 -0.0228503 -0.0137079
v -0.0596658 -0.0238651 -0.0137079
v -0.0538268 -0.0172652 -0.017264
v -0.0566194 -0.0198044 -0.0167527
v -0.0658879 -0.0261495 -0.0132005
v -0.0656755 -0.0270808 -0.0108323
v -0.0700698 -0.0294501 -0.00710712
v -0.0627122 -0.0258961 -0.0116781
v -0.0638569 -0.0251347 -0.0142154
v -0.0647432 -0.0269109 -0.0106632
v -0.0934302 -0.027419 0.0101542
v -0.0930886 -0.0270808 0.0125223
v -0.0931394 -0.0266752 0.0130067
v -0.050582 -0.0173633 0.0130067
v -0.0492572 -0.0165037 0.0126915
v -0.0492572 -0.0175185 0.0116765
v -0.0462754 -0.0155724 0.0104925
v -0.0462754 -0.0155065 0.0105232
v -0.0515467 -0.0155065 -0.0164951
v -0.0525575 -0.0167571 -0.0167527
v -0.0924101 -0.0284338 0.0101542
v -0.0802245 -0.0294501 0.00812433
v -0.0930886 -0.0280956 0.0104925
v -0.0741316 -0.0304664 0.0030459
v -0.0700698 -0.0304664 -2.69742e-06
v -0.0576349 -0.0248799 -0.0086295
v -0.0596658 -0.0258961 -0.0086295
v -0.0545884 -0.0208192 -0.0137079
v -0.0545884 -0.0218355 -0.0116781
v -0.0556039 -0.0228503 -0.0106632
v -0.0597904 -0.0241184 -0.0132005
v -0.0648724 -0.0271657 -0.0101519
v -0.0658879 -0.0281805 -0.00812204
v -0.067028 -0.0284338 -0.00812204
v -0.0689343 -0.0291968 -0.00710712
v -0.0690589 -0.0294501 -0.00609605
v -0.0616967 -0.0258961 -0.0106632
v -0.0618214 -0.0261495 -0.0101519
v -0.0628415 -0.0261495 -0.0111706
v -0.0928717 -0.0268948 0.0130067
v -0.0929179 -0.0269109 0.0129452
v -0.0929594 -0.0268333 0.0130067
v -0.0526175 -0.0193944 0.0130067
v -0.0523036 -0.0195496 0.0126915
v -0.0512882 -0.0185348 0.0126915
v -0.0492572 -0.0180267 0.0106616
v -0.0514543 -0.0196345 0.0111691
v -0.0462754 -0.0165887 0.00846264
v -0.0462754 -0.0155065 -0.0105248
v -0.0462754 -0.0155724 -0.0104902
v -0.0495111 -0.0177733 -0.0116781
v -0.0525575 -0.0198044 -0.012693
v -0.0924101 -0.027009 0.0130067
v -0.0929179 -0.0279272 0.0109154
v -0.0781935 -0.0284338 0.0111691
v -0.0781935 -0.0275172 0.0130067
v -0.0721007 -0.0294501 0.00812433
v -0.0700698 -0.0294501 0.00710557
v -0.0690589 -0.0294501 0.00609065
v -0.067028 -0.0294501 -0.00304745
v -0.0660125 -0.0294501 -0.00101762
v -0.0660125 -0.0294501 0.00101222
v -0.067028 -0.0294501 0.0030459
v -0.0577595 -0.0251347 -0.00812204
v -0.0565363 -0.0247114 -0.00710712
v -0.0597904 -0.0261495 -0.00812204
v -0.0534899 -0.0216656 -0.0101519
v -0.0545054 -0.0226819 -0.00913696
v -0.0514543 -0.0196345 -0.0111706
v -0.0618214 -0.0271657 -0.00710712
v -0.0648724 -0.0281805 -0.00710712
v -0.064997 -0.0284338 -0.00609605
v -0.0540207 -0.0206054 0.0130067
v -0.0523036 -0.0200577 0.0116765
v -0.0543346 -0.021074 0.0126915
v -0.0462754 -0.01828 0.00507573
v -0.0462754 -0.0171188 0.00740159
v -0.0528114 -0.0206918 0.0111691
v -0.0504389 -0.0206508 0.00710557
v -0.0462754 -0.0158096 -0.0100173
v -0.0462754 -0.0159619 -0.00971361
v -0.0462754 -0.0176035 -0.00643435
v -0.0462754 -0.01828 -0.00508113
v -0.0751471 -0.0284338 0.0111691
v -0.0744271 -0.0275172 0.0130067
v -0.071593 -0.0291968 0.00863179
v -0.0721007 -0.027419 0.0130067
v -0.0685512 -0.0291968 0.00659811
v -0.0644893 -0.0281805 0.00659811
v -0.0665202 -0.0281805 0.00863179
v -0.0695666 -0.0291968 0.00761303
v -0.064997 -0.0284338 0.00609065
v -0.0639816 -0.0284338 -0.00406237
v -0.0629661 -0.0284338 -0.00101762
v -0.0599197 -0.027419 -2.69742e-06
v -0.0629661 -0.0284338 0.00101222
v -0.0639816 -0.0284338 0.00406082
v -0.0572102 -0.0250497 -0.00710712
v -0.0555208 -0.0247114 -0.00406237
v -0.0514543 -0.0216656 -0.00609605
v -0.0524744 -0.0226819 -0.00508113
v -0.0592412 -0.0260645 -0.00710712
v -0.0599197 -0.0264028 -0.00710712
v -0.0619506 -0.027419 -0.00609605
v -0.0504389 -0.0206508 -0.00710712
v -0.0570671 -0.0226365 0.0130067
v -0.0543346 -0.0220888 0.0106616
v -0.057381 -0.0231036 0.0126915
v -0.0548423 -0.0217081 0.012184
v -0.0517959 -0.0217081 0.00710557
v -0.0528114 -0.0227229 0.00609065
v -0.0524744 -0.0226819 0.00507573
v -0.0534899 -0.0236952 0.0030459
v -0.0514543 -0.0226819 -2.69742e-06
v -0.0548423 -0.0227229 0.0101542
v -0.0534899 -0.0236952 -0.00304745
v -0.0746394 -0.0281805 0.0116765
v -0.0733147 -0.0274923 0.0130067
v -0.0695666 -0.0271657 0.0126915
v -0.0655048 -0.0271657 0.0106616
v -0.0692528 -0.0269314 0.0130067
v -0.0634738 -0.0281805 0.00456828
v -0.0614429 -0.0271657 0.00659811
v -0.0634738 -0.0271657 0.00863179
v -0.0578887 -0.0264028 -0.00101762
v -0.0592412 -0.0270808 -2.69742e-06
v -0.0594119 -0.0271657 0.000504761
v -0.0624583 -0.0281805 0.00151968
v -0.0561947 -0.0250497 -0.00406237
v -0.0545054 -0.0247114 -2.69742e-06
v -0.0565363 -0.0257262 -0.00101762
v -0.0572102 -0.0260645 -0.00101762
v -0.0576949 -0.0230245 0.0130067
v -0.0588396 -0.0237289 0.0130067
v -0.0590981 -0.0238841 0.0130067
v -0.0568733 -0.0247539 0.00812433
v -0.0538268 -0.0227229 0.00812433
v -0.0558578 -0.0247539 0.00507573
v -0.0538268 -0.0237377 0.00406082
v -0.0543346 -0.0241184 0.00355336
v -0.067028 -0.026476 0.0130067
v -0.0634738 -0.0261495 0.0116765
v -0.0604274 -0.0271657 0.00355336
v -0.0594119 -0.0261495 0.00761303
v -0.0604274 -0.0261495 0.00863179
v -0.0551793 -0.0250497 -2.69742e-06
v -0.0572102 -0.0260645 0.00101222
v -0.057381 -0.0261495 0.00151968
v -0.05535 -0.0251347 0.000504761
v -0.0621445 -0.0249004 0.0130067
v -0.0629661 -0.0257687 0.012184
v -0.0589042 -0.0257687 0.00812433
v -0.057381 -0.0251347 0.00761303
v -0.0563655 -0.0251347 0.00456828
v -0.0651909 -0.0259152 0.0130067
v -0.0583965 -0.0261495 0.00456828
f 1 2 3
f 1 3 4
f 1 4 11
f 1 11 10
f 1 10 23
f 1 23 35
f 1 35 54
f 1 54 75
f 1 75 96
f 1 96 124
f 1 124 155
f 1 155 125
f 1 125 97
f 1 97 76
f 1 76 57
f 1 57 56
f 1 56 37
f 1 37 25
f 1 25 12
f 1 12 5
f 1 5 7
f 1 7 2
f 2 6 3
f 2 7 8
f 2 8 6
f 3 6 9
f 3 9 10
f 3 10 11
f 3 11 4
f 5 12 13
f 5 13 7
f 6 14 28
f 6 28 15
f 6 15 9
f 6 8 16
f 6 16 17
f 6 17 14
f 7 13 26
f 7 26 18
f 7 18 19
f 7 19 20
f 7 20 8
f 8 20 19
f 8 19 21
f 8 21 22
f 8 22 17
f 8 17 16
f 9 23 10
f 9 15 28
f 9 28 24
f 9 24 36
f 9 36 55
f 9 55 41
f 9 41 40
f 9 40 65
f 9 65 84
f 9 84 83
f 9 83 106
f 9 106 117
f 9 117 93
f 9 93 74
f 9 74 51
f 9 51 35
f 9 35 23
f 12 25 26
f 12 26 13
f 14 27 42
f 14 42 28
f 14 17 27
f 17 22 27
f 18 26 29
f 18 29 30
f 18 30 31
f 18 31 19
f 19 32 21
f 19 31 33
f 19 33 32
f 21 32 34
f 21 34 22
f 22 34 27
f 24 28 42
f 24 42 36
f 25 37 26
f 26 37 38
f 26 38 29
f 27 39 40
f 27 40 41
f 27 41 42
f 27 34 43
f 27 43 44
f 27 44 39
f 29 38 45
f 29 45 30
f 30 45 46
f 30 46 31
f 31 46 47
f 31 47 33
f 32 33 50
f 32 50 48
f 32 48 71
f 32 71 49
f 32 49 44
f 32 44 43
f 32 43 34
f 33 47 69
f 33 69 50
f 35 51 52
f 35 52 53
f 35 53 54
f 36 42 55
f 37 56 38
f 38 56 57
f 38 57 58
f 38 58 59
f 38 59 45
f 39 60 61
f 39 61 62
f 39 62 63
f 39 63 64
f 39 64 65
f 39 65 40
f 39 44 66
f 39 66 60
f 41 55 42
f 44 49 71
f 44 71 89
f 44 89 100
f 44 100 78
f 44 78 66
f 45 59 67
f 45 67 46
f 46 67 68
f 46 68 47
f 47 68 69
f 48 70 71
f 48 50 70
f 50 69 68
f 50 68 72
f 50 72 91
f 50 91 73
f 50 73 88
f 50 88 70
f 51 74 94
f 51 94 119
f 51 119 148
f 51 148 146
f 51 146 159
f 51 159 162
f 51 162 191
f 51 191 224
f 51 224 193
f 51 193 227
f 51 227 247
f 51 247 261
f 51 261 256
f 51 256 241
f 51 241 240
f 51 240 239
f 51 239 212
f 51 212 179
f 51 179 149
f 51 149 120
f 51 120 95
f 51 95 75
f 51 75 54
f 51 54 53
f 51 53 52
f 57 76 77
f 57 77 58
f 58 77 67
f 58 67 59
f 60 66 78
f 60 78 79
f 60 79 61
f 61 80 63
f 61 63 62
f 61 79 81
f 61 81 80
f 63 82 83
f 63 83 84
f 63 84 65
f 63 65 64
f 63 80 82
f 67 85 68
f 67 77 99
f 67 99 86
f 67 86 87
f 67 87 85
f 68 85 91
f 68 91 72
f 70 88 71
f 71 88 90
f 71 90 89
f 73 92 88
f 73 91 92
f 74 93 94
f 75 95 96
f 76 97 98
f 76 98 77
f 77 98 99
f 78 100 101
f 78 101 79
f 79 101 105
f 79 105 81
f 80 102 103
f 80 103 82
f 80 81 105
f 80 105 131
f 80 131 130
f 80 130 104
f 80 104 102
f 82 103 83
f 83 103 106
f 85 87 107
f 85 107 108
f 85 108 91
f 86 99 109
f 86 109 110
f 86 110 107
f 86 107 87
f 88 92 111
f 88 111 112
f 88 112 90
f 89 90 113
f 89 113 101
f 89 101 100
f 90 112 113
f 91 114 115
f 91 115 92
f 91 108 114
f 92 115 114
f 92 114 116
f 92 116 111
f 93 117 118
f 93 118 119
f 93 119 94
f 95 120 121
f 95 121 96
f 96 121 122
f 96 122 123
f 96 123 124
f 97 125 98
f 98 125 126
f 98 126 99
f 99 126 109
f 101 113 105
f 102 127 129
f 102 129 103
f 102 104 128
f 102 128 127
f 103 129 117
f 103 117 106
f 104 130 163
f 104 163 128
f 105 113 131
f 107 132 133
f 107 133 108
f 107 110 134
f 107 134 135
f 107 135 136
f 107 136 132
f 108 133 172
f 108 172 137
f 108 137 114
f 109 126 110
f 110 126 134
f 111 116 138
f 111 138 112
f 112 138 139
f 112 139 140
f 112 140 113
f 113 141 142
f 113 142 131
f 113 140 139
f 113 139 141
f 114 143 172
f 114 172 144
f 114 144 145
f 114 145 116
f 114 137 143
f 116 145 138
f 117 129 118
f 118 129 146
f 118 146 147
f 118 147 148
f 118 148 119
f 120 149 150
f 120 150 151
f 120 151 121
f 121 151 122
f 122 152 154
f 122 154 123
f 122 151 150
f 122 150 153
f 122 153 152
f 123 154 183
f 123 183 182
f 123 182 189
f 123 189 188
f 123 188 187
f 123 187 186
f 123 186 156
f 123 156 155
f 123 155 124
f 125 155 156
f 125 156 126
f 126 156 157
f 126 157 158
f 126 158 134
f 127 159 146
f 127 146 160
f 127 160 129
f 127 128 161
f 127 161 162
f 127 162 159
f 128 163 190
f 128 190 161
f 129 160 146
f 130 131 164
f 130 164 163
f 131 165 164
f 131 142 166
f 131 166 167
f 131 167 168
f 131 168 169
f 131 169 165
f 132 170 133
f 132 136 171
f 132 171 170
f 133 170 172
f 134 158 135
f 135 173 174
f 135 174 171
f 135 171 136
f 135 158 175
f 135 175 173
f 137 172 143
f 138 145 176
f 138 176 139
f 139 176 177
f 139 177 141
f 141 177 178
f 141 178 142
f 142 178 166
f 144 176 145
f 144 172 176
f 146 148 147
f 149 179 150
f 150 180 153
f 150 179 181
f 150 181 180
f 152 182 183
f 152 183 154
f 152 153 182
f 153 180 184
f 153 184 216
f 153 216 185
f 153 185 182
f 156 186 157
f 157 175 158
f 157 186 187
f 157 187 188
f 157 188 189
f 157 189 175
f 161 190 191
f 161 191 162
f 163 164 192
f 163 192 193
f 163 193 190
f 164 165 194
f 164 194 195
f 164 195 196
f 164 196 197
f 164 197 192
f 165 169 198
f 165 198 195
f 165 195 194
f 166 178 167
f 167 178 199
f 167 199 200
f 167 200 201
f 167 201 168
f 168 201 202
f 168 202 203
f 168 203 169
f 169 203 198
f 170 204 208
f 170 208 172
f 170 171 204
f 171 205 235
f 171 235 204
f 171 174 206
f 171 206 207
f 171 207 205
f 172 208 209
f 172 209 210
f 172 210 176
f 173 175 211
f 173 211 174
f 174 211 206
f 175 189 211
f 176 210 178
f 176 178 177
f 178 210 199
f 179 212 181
f 180 181 213
f 180 213 221
f 180 221 184
f 181 212 214
f 181 214 215
f 181 215 221
f 181 221 213
f 182 185 216
f 182 216 217
f 182 217 218
f 182 218 219
f 182 219 220
f 182 220 189
f 184 221 216
f 189 220 222
f 189 222 207
f 189 207 206
f 189 206 211
f 190 193 223
f 190 223 191
f 191 223 224
f 192 225 193
f 192 197 196
f 192 196 226
f 192 226 225
f 193 224 223
f 193 225 227
f 195 198 203
f 195 203 228
f 195 228 229
f 195 229 230
f 195 230 196
f 196 230 226
f 199 210 200
f 200 210 201
f 201 231 238
f 201 238 232
f 201 232 233
f 201 233 234
f 201 234 202
f 201 210 231
f 202 234 228
f 202 228 203
f 204 235 238
f 204 238 208
f 205 222 236
f 205 236 237
f 205 237 238
f 205 238 235
f 205 207 222
f 208 238 231
f 208 231 209
f 209 231 210
f 212 239 214
f 214 239 240
f 214 240 241
f 214 241 242
f 214 242 221
f 214 221 215
f 216 221 243
f 216 243 242
f 216 242 217
f 217 242 244
f 217 244 245
f 217 245 218
f 218 245 219
f 219 245 246
f 219 246 255
f 219 255 236
f 219 236 220
f 220 236 222
f 221 242 243
f 225 226 247
f 225 247 227
f 226 230 251
f 226 251 248
f 226 248 247
f 228 234 233
f 228 233 249
f 228 249 229
f 229 249 262
f 229 262 250
f 229 250 251
f 229 251 230
f 232 238 252
f 232 252 253
f 232 253 254
f 232 254 233
f 233 254 262
f 233 262 249
f 236 255 252
f 236 252 238
f 236 238 237
f 241 256 257
f 241 257 258
f 241 258 242
f 242 258 250
f 242 250 259
f 242 259 260
f 242 260 244
f 244 260 246
f 244 246 245
f 246 260 255
f 247 248 257
f 247 257 261
f 248 251 258
f 248 258 257
f 250 262 260
f 250 260 259
f 250 258 251
f 252 255 254
f 252 254 253
f 254 255 260
f 254 260 262
f 256 261 257
