o piece_007
v -0.0478578 0.000601426 -0.0188512
v -0.0478578 -0.00507797 -0.0188512
v -0.0484109 0.000601426 -0.0196345
v -0.0822557 0.000601426 -0.0188512
v -0.0480808 -0.00565033 -0.0188512
v -0.0484109 -0.00507797 -0.0196345
v -0.0494236 0.000601426 -0.0206498
v -0.0931403 0.000601426 -0.0254512
v -0.0931759 -0.0147244 -0.0198039
v -0.0927522 -0.0145557 -0.0196345
v -0.0925826 -0.0155065 -0.0192957
v -0.0922748 -0.0155065 -0.0191593
v -0.0825412 -0.0150745 -0.0188512
v -0.0502622 -0.0101551 -0.0188512
v -0.0494236 -0.00711039 -0.0196345
v -0.0504406 -0.00711039 -0.0206498
v -0.0494236 -0.00406256 -0.0206498
v -0.0514577 -8.86843e-07 -0.0226816
v -0.0504406 0.000601426 -0.0216651
v -0.0932785 0.000601426 -0.0257275
v -0.0934258 -0.0152321 -0.020311
v -0.0930778 -0.0155065 -0.0195436
v -0.0822245 -0.0155065 -0.0188512
v -0.0825412 -0.0154986 -0.0188512
v -0.0515737 -0.0126305 -0.0188512
v -0.0514577 -0.0111705 -0.0196345
v -0.0534874 -0.0101551 -0.0216651
v -0.0524703 -0.00812423 -0.0216651
v -0.0524703 -0.00507797 -0.0226816
v -0.0534874 -0.00304714 -0.0236969
v -0.0545045 -8.86843e-07 -0.0247111
v -0.0516585 0.000601426 -0.0227066
v -0.0934258 0.000601426 -0.026404
v -0.0934258 -0.00203172 -0.0253876
v -0.0934258 -0.0155065 -0.020311
v -0.0545357 -0.0155065 -0.0188512
v -0.0525863 -0.013646 -0.0188512
v -0.0525551 -0.0126936 -0.0198039
v -0.0545893 -0.0116782 -0.0218346
v -0.0556019 -0.0106628 -0.0228499
v -0.0555171 -0.00812423 -0.0236969
v -0.0565342 -0.00711039 -0.0247111
v -0.0555171 -0.00406256 -0.0247111
v -0.0565342 -0.0010163 -0.0257264
v -0.0551781 -8.86843e-07 -0.0250499
v -0.0553476 0.000506822 -0.025134
v -0.0552539 0.000601426 -0.0250635
v -0.0547053 0.000601426 -0.0247361
v -0.0934258 0.000601426 -0.0288485
v -0.0934258 -0.0155065 -0.0243734
v -0.0547053 -0.0155065 -0.0190228
v -0.0545893 -0.0147244 -0.0198039
v -0.0536034 -0.0146614 -0.0188512
v -0.0545893 -0.013709 -0.0208192
v -0.0576361 -0.013709 -0.0228499
v -0.056619 -0.00964735 -0.0238663
v -0.0576361 -0.00863194 -0.0248805
v -0.057761 -0.00812423 -0.025134
v -0.0585639 -0.00711039 -0.0257264
v -0.0582249 -0.00406256 -0.0260652
v -0.0578903 -0.0010163 -0.026404
v -0.0594115 0.000506822 -0.0271658
v -0.0581624 0.000601426 -0.0265416
v -0.0568108 0.000601426 -0.0258651
v -0.0565342 0.000601426 -0.0257264
v -0.0932964 0.000601426 -0.0294499
v -0.0934258 -8.86843e-07 -0.0294499
v -0.0934258 -0.0142167 -0.0253876
v -0.0932607 -0.0150634 -0.0252193
v -0.0931715 -0.0155065 -0.0251306
v -0.0552495 -0.0155065 -0.0195697
v -0.0556599 -0.0155065 -0.019921
v -0.0587067 -0.0155065 -0.0219517
v -0.0596658 -0.013709 -0.0238663
v -0.0596658 -0.00863194 -0.0258958
v -0.0597907 -0.00812423 -0.0261493
v -0.05992 -0.00711039 -0.026404
v -0.058903 -0.00406256 -0.026404
v -0.05992 -8.86843e-07 -0.0274193
v -0.0593178 0.000601426 -0.0270953
v -0.0629668 0.000601426 -0.0284346
v -0.093118 0.000601426 -0.0299059
v -0.0930912 0.000338111 -0.0301276
v -0.0934258 -0.00711039 -0.0284346
v -0.0934258 -0.0121859 -0.026404
v -0.0932607 -0.0130326 -0.0262346
v -0.0927655 -0.0155065 -0.02574
v -0.0607408 -0.0155065 -0.0229681
v -0.0597907 -0.0132013 -0.0241199
v -0.0637296 -0.0147244 -0.0248805
v -0.0627125 -0.0116782 -0.0258958
v -0.0628375 -0.0111705 -0.0261493
v -0.0628375 -0.00812423 -0.0271658
v -0.0618248 -0.00711039 -0.0271658
v -0.0619497 -0.00609339 -0.0274193
v -0.0639794 -0.00406256 -0.0284346
v -0.0629668 -0.0010163 -0.0284346
v -0.0660136 0.000601426 -0.0294499
v -0.0929841 0.000601426 -0.0300218
v -0.0925648 0.000601426 -0.0301276
v -0.0924131 -8.86843e-07 -0.0304652
v -0.0930912 -0.00677139 -0.0291123
v -0.0934258 -0.0101551 -0.0274193
v -0.0932607 -0.0110002 -0.0272499
v -0.0930912 -0.00981606 -0.0280958
v -0.0927522 -0.0115095 -0.0277581
v -0.0927522 -0.0135403 -0.0267417
v -0.0926852 -0.0155065 -0.0257594
v -0.0658173 -0.0155065 -0.0249976
v -0.0646575 -0.0148932 -0.0250499
v -0.0657593 -0.013709 -0.0258958
v -0.0638545 -0.0142167 -0.025134
v -0.0658842 -0.0132013 -0.0261493
v -0.0648716 -0.0101551 -0.0271658
v -0.0658842 -0.00812423 -0.0281811
v -0.0648716 -0.00711039 -0.0281811
v -0.0649965 -0.00609339 -0.0284346
v -0.0670262 -0.00304714 -0.0294499
v -0.0660136 -0.0010163 -0.0294499
v -0.0695689 -0.000508596 -0.0302117
v -0.0710856 -8.86843e-07 -0.0304652
v -0.0721027 0.000601426 -0.0304652
v -0.0924131 0.000601426 -0.0301651
v -0.0924131 -0.00711039 -0.0294499
v -0.0816535 0.000601426 -0.0304652
v -0.0781963 -0.00304714 -0.0304652
v -0.0924131 -0.0101551 -0.0284346
v -0.080226 -0.0132013 -0.0274193
v -0.080565 -0.0145557 -0.0267417
v -0.080226 -0.0152321 -0.026404
v -0.0800877 -0.0155065 -0.0262664
v -0.0662099 -0.0155065 -0.0250999
v -0.0687214 -0.0148932 -0.0260652
v -0.0666917 -0.0138777 -0.0260652
v -0.0656746 -0.0108315 -0.0270805
v -0.0660136 -0.0101551 -0.0274193
v -0.0670262 -0.00812423 -0.0284346
v -0.068931 -0.00711039 -0.0291964
v -0.0690604 -0.00609339 -0.0294499
v -0.070073 -0.00711039 -0.0294499
v -0.0731153 -0.00203172 -0.0304652
v -0.080226 -0.00812423 -0.0294499
v -0.0741324 -0.00304714 -0.0304652
v -0.0781963 -0.0111705 -0.0284346
v -0.0785353 -0.0125249 -0.0277581
v -0.0721027 -0.0152321 -0.026404
v -0.0719644 -0.0155065 -0.0262664
v -0.0668924 -0.0155065 -0.0252511
v -0.0670262 -0.0132013 -0.026404
v -0.0693325 -0.0155065 -0.0257594
v -0.0717637 -0.0138777 -0.0270805
v -0.0717637 -0.00880065 -0.0291123
v -0.0721027 -0.00812423 -0.0294499
v -0.0751495 -0.0111705 -0.0284346
v -0.0754885 -0.0125249 -0.0277581
v -0.0721027 -0.0132013 -0.0274193
f 1 2 6
f 1 6 3
f 1 3 7
f 1 7 19
f 1 19 32
f 1 32 48
f 1 48 47
f 1 47 65
f 1 65 64
f 1 64 63
f 1 63 80
f 1 80 81
f 1 81 98
f 1 98 122
f 1 122 125
f 1 125 123
f 1 123 100
f 1 100 99
f 1 99 82
f 1 82 66
f 1 66 49
f 1 49 33
f 1 33 20
f 1 20 8
f 1 8 4
f 1 4 13
f 1 13 24
f 1 24 23
f 1 23 36
f 1 36 53
f 1 53 37
f 1 37 25
f 1 25 14
f 1 14 5
f 1 5 2
f 2 5 6
f 3 6 17
f 3 17 7
f 4 8 9
f 4 9 10
f 4 10 11
f 4 11 12
f 4 12 13
f 5 14 6
f 6 14 15
f 6 15 16
f 6 16 17
f 7 17 18
f 7 18 19
f 8 20 9
f 9 20 21
f 9 21 22
f 9 22 10
f 10 22 11
f 11 22 35
f 11 35 50
f 11 50 70
f 11 70 87
f 11 87 108
f 11 108 131
f 11 131 147
f 11 147 150
f 11 150 148
f 11 148 132
f 11 132 109
f 11 109 88
f 11 88 73
f 11 73 72
f 11 72 71
f 11 71 51
f 11 51 36
f 11 36 23
f 11 23 12
f 12 23 24
f 12 24 13
f 14 25 26
f 14 26 15
f 15 26 16
f 16 26 27
f 16 27 28
f 16 28 29
f 16 29 17
f 17 29 18
f 18 29 30
f 18 30 31
f 18 31 48
f 18 48 32
f 18 32 19
f 20 33 34
f 20 34 21
f 21 35 22
f 21 34 33
f 21 33 49
f 21 49 67
f 21 67 84
f 21 84 103
f 21 103 85
f 21 85 68
f 21 68 50
f 21 50 35
f 25 37 38
f 25 38 26
f 26 38 27
f 27 38 39
f 27 39 40
f 27 40 41
f 27 41 28
f 28 41 29
f 29 41 42
f 29 42 43
f 29 43 30
f 30 43 44
f 30 44 31
f 31 44 45
f 31 45 46
f 31 46 47
f 31 47 48
f 36 51 52
f 36 52 53
f 37 53 52
f 37 52 38
f 38 52 54
f 38 54 39
f 39 54 55
f 39 55 40
f 40 55 56
f 40 56 41
f 41 56 42
f 42 56 57
f 42 57 58
f 42 58 76
f 42 76 59
f 42 59 43
f 43 59 60
f 43 60 44
f 44 60 78
f 44 78 61
f 44 61 45
f 45 61 62
f 45 62 63
f 45 63 46
f 46 63 64
f 46 64 65
f 46 65 47
f 49 66 67
f 50 68 69
f 50 69 70
f 51 71 52
f 52 71 72
f 52 72 54
f 54 72 73
f 54 73 55
f 55 57 56
f 55 73 74
f 55 74 57
f 57 74 75
f 57 75 76
f 57 76 58
f 59 76 77
f 59 77 78
f 59 78 60
f 61 78 79
f 61 79 62
f 62 80 63
f 62 79 81
f 62 81 80
f 66 82 83
f 66 83 67
f 67 83 102
f 67 102 84
f 68 85 69
f 69 85 103
f 69 103 86
f 69 86 87
f 69 87 70
f 73 88 74
f 74 89 76
f 74 76 75
f 74 88 90
f 74 90 91
f 74 91 92
f 74 92 89
f 76 89 92
f 76 92 93
f 76 93 94
f 76 94 95
f 76 95 77
f 77 95 78
f 78 95 79
f 79 95 96
f 79 96 97
f 79 97 119
f 79 119 98
f 79 98 81
f 82 99 83
f 83 99 100
f 83 100 101
f 83 101 124
f 83 124 102
f 84 102 103
f 86 104 105
f 86 105 106
f 86 106 87
f 86 103 104
f 87 106 107
f 87 107 108
f 88 109 90
f 90 109 110
f 90 110 111
f 90 111 113
f 90 113 112
f 90 112 92
f 90 92 91
f 92 112 113
f 92 113 114
f 92 114 115
f 92 115 93
f 93 115 116
f 93 116 94
f 94 116 117
f 94 117 95
f 95 117 96
f 96 117 118
f 96 118 119
f 96 119 97
f 98 119 120
f 98 120 121
f 98 121 122
f 100 123 101
f 101 123 125
f 101 125 122
f 101 122 121
f 101 121 141
f 101 141 143
f 101 143 126
f 101 126 124
f 102 105 103
f 102 124 106
f 102 106 105
f 103 105 104
f 106 124 127
f 106 127 128
f 106 128 129
f 106 129 107
f 107 129 108
f 108 129 130
f 108 130 131
f 109 132 110
f 110 132 133
f 110 133 134
f 110 134 111
f 111 134 113
f 113 134 114
f 114 134 135
f 114 135 136
f 114 136 137
f 114 137 115
f 115 137 140
f 115 140 138
f 115 138 116
f 116 138 117
f 117 138 139
f 117 139 118
f 118 139 120
f 118 120 119
f 120 139 140
f 120 140 121
f 121 140 141
f 124 126 142
f 124 142 127
f 126 143 153
f 126 153 142
f 127 142 144
f 127 144 128
f 128 144 145
f 128 145 130
f 128 130 129
f 130 145 155
f 130 155 146
f 130 146 147
f 130 147 131
f 132 148 133
f 133 149 134
f 133 148 150
f 133 150 147
f 133 147 151
f 133 151 149
f 134 149 135
f 135 149 136
f 136 149 137
f 137 149 140
f 138 140 139
f 140 152 153
f 140 153 143
f 140 143 141
f 140 149 152
f 142 153 154
f 142 154 144
f 144 154 155
f 144 155 145
f 146 155 156
f 146 156 151
f 146 151 147
f 149 151 156
f 149 156 152
f 152 156 153
f 153 156 154
f 154 156 155
