o piece_003
v -0.0770442 0.017693 -0.0246671
v -0.0761626 0.019635 -0.0236958
v -0.0761626 0.017693 -0.0246671
v -0.0924101 0.017693 -0.024532
v -0.079209 0.0206503 -0.0226769
v -0.0812399 0.0216657 -0.0216618
v -0.079209 0.0226811 -0.0206466
v -0.0761626 0.0236964 -0.0196314
v -0.0731162 0.0226811 -0.0206466
v -0.0710852 0.0216657 -0.0216618
v -0.0731162 0.0206503 -0.0226769
v -0.0708175 0.017693 -0.024532
v -0.0756549 0.0187884 -0.0241157
v -0.0931717 0.017693 -0.0240719
v -0.0924101 0.0186184 -0.0236958
v -0.0924101 0.0236964 -0.0186162
v -0.0924101 0.0247106 -0.0176011
v -0.0721007 0.0257259 -0.0165859
v -0.0802245 0.0257259 -0.0165859
v -0.0690589 0.0182807 -0.0237359
v -0.067028 0.0247106 -0.0165859
v -0.064997 0.0216657 -0.0196314
v -0.0665202 0.0208191 -0.0210702
v -0.067028 0.0203115 -0.0217056
v -0.064997 0.0182807 -0.0227208
v -0.0667603 0.017693 -0.0235168
v -0.0934302 0.017693 -0.0229289
v -0.0934302 0.0203115 -0.0203106
v -0.0931717 0.0214544 -0.0203106
v -0.0931717 0.0244992 -0.0172615
v -0.0929179 0.0251345 -0.0167539
v -0.0721007 0.0267425 -0.0145555
v -0.0690589 0.0257259 -0.0155707
v -0.0807322 0.0261498 -0.0157387
v -0.0802245 0.0267425 -0.0145555
v -0.0660125 0.0251345 -0.0153589
v -0.064997 0.0247106 -0.0155707
v -0.0629661 0.0216657 -0.0186162
v -0.0614429 0.0198038 -0.020055
v -0.064997 0.019635 -0.0216618
v -0.0629661 0.0186184 -0.0216618
v -0.0625368 0.017693 -0.0221876
v -0.0655832 0.017693 -0.0232028
v -0.0934302 0.017693 -0.0188646
v -0.0934302 0.0243729 -0.0162463
v -0.0931717 0.0275466 -0.0111704
v -0.0929179 0.0281805 -0.0106628
v -0.0751471 0.0284344 -0.0111704
v -0.0721007 0.027419 -0.0132008
v -0.0690589 0.0264037 -0.0142159
v -0.0680434 0.0261498 -0.0143437
v -0.0807322 0.0271652 -0.0137083
v -0.0781935 0.0284344 -0.0111704
v -0.0639816 0.0251345 -0.0143437
v -0.0634738 0.0248806 -0.0144679
v -0.0614429 0.0218345 -0.0175171
v -0.0604274 0.0198038 -0.0195474
v -0.0619506 0.0192961 -0.0206904
v -0.0605059 0.017693 -0.0211724
v -0.0932825 0.017693 -0.0182036
v -0.0922993 0.0214381 0.0126388
v -0.0929086 0.0218458 0.0126388
v -0.0929779 0.0219458 0.0126388
v -0.0933148 0.0224547 0.0126388
v -0.0934302 0.0233576 0.0126388
v -0.0934302 0.027419 -0.0101552
v -0.0930886 0.0280955 -0.0101552
v -0.0930886 0.0291121 -0.00710605
v -0.0929179 0.0291959 -0.00761363
v -0.0924101 0.0284344 -0.0101552
v -0.0721007 0.0294498 -0.00812122
v -0.0710852 0.0284344 -0.0101552
v -0.0710852 0.0271652 -0.0133286
v -0.0660125 0.0261498 -0.0133286
v -0.0802245 0.0294498 -0.00812122
v -0.0629661 0.0261498 -0.0112946
v -0.0599197 0.0241191 -0.0133286
v -0.0594119 0.0238665 -0.0134527
v -0.0604274 0.0228499 -0.0154867
v -0.0583965 0.0218345 -0.0154867
v -0.057381 0.0187884 -0.0185323
v -0.0594119 0.0177731 -0.0205626
v -0.0594904 0.017693 -0.0206247
v -0.0931717 0.017693 -0.0177252
v -0.0822554 0.017693 0.0126388
v -0.0934302 0.0253883 0.0126388
v -0.0934302 0.0284344 -0.00710605
v -0.0930886 0.0301275 -3.46941e-06
v -0.0929179 0.0302113 -0.000511057
v -0.0924101 0.0304664 -3.46941e-06
v -0.0924101 0.0294498 -0.00710605
v -0.0741316 0.0304664 -0.003049
v -0.0700698 0.0294498 -0.00710605
v -0.0660125 0.027419 -0.0101552
v -0.064997 0.0271652 -0.0102794
v -0.0781935 0.0304664 -0.003049
v -0.0624583 0.025896 -0.0114224
v -0.0599197 0.0261498 -0.00824903
v -0.0594119 0.025896 -0.00837684
v -0.057381 0.0248806 -0.00837684
v -0.057381 0.0228499 -0.0134527
v -0.0563655 0.0198038 -0.0165019
v -0.0542515 0.017693 -0.0170497
v -0.0545746 0.017693 -0.0172907
v -0.056444 0.017693 -0.0186528
v -0.0502173 0.017693 0.0126388
v -0.0934302 0.0264037 0.0121859
v -0.093204 0.0268563 0.0126388
v -0.0934302 0.0294498 -3.46941e-06
v -0.0931717 0.0299574 0.00050777
v -0.0930886 0.0291121 0.00710641
v -0.0924101 0.0294498 0.00710641
v -0.0781935 0.0304664 0.00304571
v -0.0700698 0.0304664 -3.46941e-06
v -0.0690589 0.0294498 -0.00609087
v -0.0690589 0.0291959 -0.00723386
v -0.0660125 0.0281805 -0.00824903
v -0.0592412 0.0260648 -0.00744566
v -0.0619506 0.0271652 -0.00723386
v -0.0572102 0.0250494 -0.00744566
v -0.05535 0.0238665 -0.00736167
v -0.0563655 0.0238665 -0.00939202
v -0.0543346 0.0218345 -0.0114224
v -0.0543346 0.0208191 -0.0134527
v -0.0540392 0.017693 -0.0168342
v -0.0501896 0.017693 0.0126132
v -0.0502173 0.0177168 0.0126388
v -0.0934302 0.027419 0.0101519
v -0.0931625 0.0269301 0.0126388
v -0.0931717 0.0279267 0.0106632
v -0.0934302 0.0284344 0.00710641
v -0.0931717 0.0289421 0.007614
v -0.0927517 0.0291121 0.00778563
v -0.0924101 0.0284344 0.0101519
v -0.0802245 0.0294498 0.00812159
v -0.0741316 0.0304664 0.00304571
v -0.0700698 0.0294498 0.00710641
v -0.0690589 0.0294498 0.00609124
v -0.067028 0.0294498 0.00304571
v -0.0660125 0.0294498 0.00101536
v -0.0660125 0.0294498 -0.00101865
v -0.067028 0.0294498 -0.003049
v -0.064997 0.0284344 -0.00609087
v -0.064997 0.0281805 -0.00723386
v -0.0582257 0.0260648 -0.00440378
v -0.0612721 0.0270802 -0.00643048
v -0.0619506 0.027419 -0.00609087
v -0.0561947 0.0250494 -0.00440378
v -0.0551793 0.0240353 -0.00643048
v -0.0531483 0.0230199 -0.00541896
v -0.0533191 0.0228499 -0.00634649
v -0.0512882 0.0208191 -0.00837684
v -0.0523036 0.0198038 -0.0124375
v -0.0492572 0.0177731 -0.0114224
v -0.0493357 0.017693 -0.0115429
v -0.0493357 0.017693 0.0117587
v -0.0492572 0.0177731 0.0116784
v -0.0502727 0.0177731 0.0126388
v -0.0928625 0.0270802 0.0126388
v -0.0927517 0.0280955 0.0108312
v -0.0781935 0.0284344 0.0111708
v -0.0721007 0.0294498 0.00812159
v -0.0700698 0.027419 0.0121859
v -0.0644893 0.0269113 0.0106632
v -0.0655048 0.0279267 0.00862917
v -0.0661833 0.0282656 0.00795361
v -0.0651678 0.0282656 0.00693843
v -0.064997 0.0284344 0.00609124
v -0.0639816 0.0284344 0.00406088
v -0.0629661 0.0284344 0.00101536
v -0.0629661 0.0284344 -0.00101865
v -0.0639816 0.0284344 -0.00406417
v -0.0602566 0.0270802 -0.00338861
v -0.0578887 0.0264037 -0.00101865
v -0.0572102 0.0260648 -0.0013546
v -0.0609351 0.027419 -0.003049
v -0.0541638 0.0240353 -0.00338861
v -0.0524744 0.0226811 -0.00473974
v -0.0462754 0.0182807 -0.00507935
v -0.0521329 0.0220046 -0.00643048
v -0.0511174 0.020988 -0.00744566
v -0.0462754 0.0177505 -0.00613834
v -0.0462754 0.017693 -0.00625155
v -0.0492157 0.017693 -0.0114041
v -0.0492572 0.017693 0.0116784
v -0.0462754 0.017693 0.00625191
v -0.0462754 0.0182807 0.00507606
v -0.0504389 0.0206503 0.00744602
v -0.0512882 0.0208191 0.00862917
v -0.0514543 0.019635 0.0115067
v -0.0523036 0.0198038 0.0126388
v -0.0522483 0.0197488 0.0126388
v -0.0926363 0.0271927 0.0126388
v -0.0785351 0.0280955 0.0118463
v -0.077912 0.0277004 0.0126388
v -0.0751471 0.0284344 0.0111708
v -0.0711776 0.027329 0.0126388
v -0.0686066 0.0269389 0.0126388
v -0.0665202 0.0269113 0.0116784
v -0.0624583 0.025896 0.0116784
v -0.0614429 0.025896 0.0106632
v -0.0644893 0.0279267 0.007614
v -0.0619506 0.027419 0.00609124
v -0.0609351 0.027419 0.00304571
v -0.0599197 0.027419 -3.46941e-06
v -0.0551793 0.0250494 -0.000339427
v -0.0592412 0.0270802 -0.000339427
v -0.0545054 0.0247106 0.000336139
v -0.0534899 0.0236964 -0.00270939
v -0.0514543 0.0226811 0.000336139
v -0.0494234 0.0206503 0.00440049
v -0.0524744 0.0226811 0.00541567
v -0.0514543 0.0216657 0.00643084
v -0.0546715 0.0225123 0.0103236
v -0.0543346 0.0218345 0.0116784
v -0.0552393 0.0217795 0.0126388
v -0.0746948 0.0277004 0.0126388
v -0.0682742 0.0268563 0.0126388
v -0.0645447 0.0259235 0.0126388
v -0.0644801 0.0259072 0.0126388
v -0.0642123 0.0258397 0.0126388
v -0.0635292 0.0256134 0.0126388
v -0.0629384 0.0254158 0.0126388
v -0.0614983 0.0249081 0.0126388
v -0.060012 0.0242816 0.0126388
v -0.0585903 0.0236739 0.0126388
v -0.0614429 0.0269113 0.007614
v -0.0594119 0.025896 0.00862917
v -0.0599197 0.0264037 0.00710641
v -0.0578887 0.0264037 0.00101536
v -0.0572102 0.0260648 0.000675748
v -0.0565363 0.0257259 0.00135132
v -0.0534899 0.0236964 0.00338167
v -0.0545054 0.0236964 0.00643084
v -0.0546715 0.0235276 0.00727804
v -0.055687 0.0235276 0.00930839
v -0.0563655 0.0238665 0.00964435
v -0.05535 0.0228499 0.0106632
v -0.0565363 0.0226811 0.0125219
v -0.0565917 0.0226248 0.0126388
v -0.057381 0.0248806 0.00862917
v -0.0585672 0.0257259 0.00744602
v -0.0575518 0.0257259 0.00440049
v -0.0555208 0.0247106 0.00440049
v -0.0565363 0.0247106 0.00744602
v -0.0567025 0.0245417 0.00829322
f 1 2 3
f 1 3 12
f 1 12 26
f 1 26 43
f 1 43 42
f 1 42 59
f 1 59 83
f 1 83 105
f 1 105 104
f 1 104 103
f 1 103 125
f 1 125 155
f 1 155 184
f 1 184 183
f 1 183 186
f 1 186 185
f 1 185 156
f 1 156 126
f 1 126 106
f 1 106 85
f 1 85 84
f 1 84 60
f 1 60 44
f 1 44 27
f 1 27 14
f 1 14 4
f 1 4 2
f 2 4 5
f 2 5 6
f 2 6 7
f 2 7 8
f 2 8 9
f 2 9 10
f 2 10 11
f 2 11 12
f 2 12 13
f 2 13 3
f 3 13 12
f 4 14 15
f 4 15 6
f 4 6 5
f 6 15 16
f 6 16 17
f 6 17 7
f 7 17 8
f 8 18 9
f 8 17 19
f 8 19 18
f 9 18 10
f 10 20 12
f 10 12 11
f 10 18 21
f 10 21 22
f 10 22 23
f 10 23 24
f 10 24 20
f 12 20 25
f 12 25 26
f 14 27 28
f 14 28 29
f 14 29 15
f 15 29 16
f 16 29 17
f 17 29 30
f 17 30 31
f 17 31 34
f 17 34 19
f 18 32 33
f 18 33 21
f 18 19 35
f 18 35 32
f 19 34 35
f 20 24 25
f 21 36 54
f 21 54 37
f 21 37 38
f 21 38 22
f 21 33 51
f 21 51 36
f 22 38 57
f 22 57 39
f 22 39 40
f 22 40 23
f 23 40 24
f 24 40 25
f 25 40 41
f 25 41 42
f 25 42 43
f 25 43 26
f 27 44 65
f 27 65 86
f 27 86 107
f 27 107 128
f 27 128 131
f 27 131 109
f 27 109 87
f 27 87 66
f 27 66 45
f 27 45 28
f 28 45 29
f 29 45 30
f 30 45 46
f 30 46 31
f 31 46 47
f 31 47 52
f 31 52 34
f 32 48 49
f 32 49 50
f 32 50 33
f 32 35 53
f 32 53 48
f 33 50 51
f 34 52 35
f 35 52 53
f 36 51 74
f 36 74 54
f 37 54 55
f 37 55 56
f 37 56 38
f 38 56 57
f 39 58 40
f 39 57 58
f 40 58 41
f 41 58 42
f 42 58 59
f 44 60 61
f 44 61 62
f 44 62 63
f 44 63 64
f 44 64 65
f 45 66 46
f 46 66 67
f 46 67 47
f 47 67 68
f 47 68 69
f 47 69 91
f 47 91 70
f 47 70 53
f 47 53 52
f 48 71 49
f 48 53 75
f 48 75 71
f 49 71 72
f 49 72 73
f 49 73 51
f 49 51 50
f 51 73 74
f 53 70 75
f 54 74 95
f 54 95 76
f 54 76 77
f 54 77 78
f 54 78 55
f 55 78 79
f 55 79 56
f 56 79 80
f 56 80 57
f 57 80 102
f 57 102 81
f 57 81 82
f 57 82 59
f 57 59 58
f 59 82 83
f 60 84 61
f 61 84 85
f 61 85 106
f 61 106 127
f 61 127 158
f 61 158 192
f 61 192 191
f 61 191 216
f 61 216 240
f 61 240 226
f 61 226 225
f 61 225 224
f 61 224 223
f 61 223 222
f 61 222 221
f 61 221 220
f 61 220 219
f 61 219 218
f 61 218 198
f 61 198 197
f 61 197 217
f 61 217 195
f 61 195 193
f 61 193 159
f 61 159 129
f 61 129 108
f 61 108 86
f 61 86 65
f 61 65 64
f 61 64 63
f 61 63 62
f 66 87 68
f 66 68 67
f 68 87 109
f 68 109 88
f 68 88 89
f 68 89 69
f 69 89 90
f 69 90 91
f 70 91 75
f 71 92 93
f 71 93 72
f 71 75 96
f 71 96 92
f 72 93 94
f 72 94 74
f 72 74 73
f 74 94 95
f 75 91 96
f 76 97 77
f 76 95 117
f 76 117 144
f 76 144 119
f 76 119 98
f 76 98 99
f 76 99 97
f 77 99 78
f 77 97 99
f 78 99 100
f 78 100 101
f 78 101 80
f 78 80 79
f 80 101 102
f 81 102 103
f 81 103 104
f 81 104 105
f 81 105 82
f 82 105 83
f 86 108 107
f 88 109 110
f 88 110 111
f 88 111 90
f 88 90 89
f 90 111 112
f 90 112 113
f 90 113 136
f 90 136 114
f 90 114 92
f 90 92 96
f 90 96 91
f 92 114 93
f 93 114 115
f 93 115 116
f 93 116 117
f 93 117 94
f 94 117 95
f 98 118 99
f 98 119 146
f 98 146 118
f 99 118 120
f 99 120 100
f 100 120 149
f 100 149 121
f 100 121 122
f 100 122 101
f 101 122 123
f 101 123 124
f 101 124 102
f 102 124 103
f 103 124 125
f 106 126 127
f 107 108 128
f 108 129 130
f 108 130 128
f 109 131 110
f 110 131 132
f 110 132 111
f 111 132 133
f 111 133 112
f 112 133 134
f 112 134 135
f 112 135 113
f 113 135 162
f 113 162 136
f 114 136 137
f 114 137 138
f 114 138 139
f 114 139 140
f 114 140 141
f 114 141 142
f 114 142 115
f 115 142 143
f 115 143 144
f 115 144 116
f 116 144 117
f 118 145 148
f 118 148 120
f 118 146 173
f 118 173 145
f 119 144 143
f 119 143 147
f 119 147 146
f 120 148 177
f 120 177 149
f 121 149 150
f 121 150 151
f 121 151 152
f 121 152 122
f 122 152 123
f 123 152 153
f 123 153 124
f 124 153 125
f 125 153 154
f 125 154 155
f 126 156 157
f 126 157 127
f 127 157 158
f 128 130 131
f 129 159 160
f 129 160 130
f 130 132 131
f 130 160 133
f 130 133 132
f 133 160 134
f 134 160 161
f 134 161 135
f 135 161 196
f 135 196 162
f 136 162 137
f 137 162 163
f 137 163 164
f 137 164 165
f 137 165 166
f 137 166 167
f 137 167 168
f 137 168 138
f 138 168 139
f 139 168 169
f 139 169 140
f 140 169 170
f 140 170 205
f 140 205 171
f 140 171 141
f 141 171 172
f 141 172 142
f 142 172 143
f 143 172 147
f 145 173 205
f 145 205 174
f 145 174 175
f 145 175 148
f 146 147 176
f 146 176 173
f 147 172 176
f 148 175 177
f 149 177 150
f 150 178 179
f 150 179 180
f 150 180 152
f 150 152 151
f 150 177 209
f 150 209 178
f 152 180 181
f 152 181 179
f 152 179 153
f 153 179 154
f 154 179 182
f 154 182 183
f 154 183 184
f 154 184 155
f 156 185 157
f 157 185 186
f 157 186 187
f 157 187 188
f 157 188 189
f 157 189 190
f 157 190 191
f 157 191 192
f 157 192 158
f 159 193 160
f 160 193 194
f 160 194 161
f 161 194 195
f 161 195 217
f 161 217 196
f 162 196 163
f 163 196 197
f 163 197 198
f 163 198 199
f 163 199 164
f 164 199 200
f 164 200 201
f 164 201 227
f 164 227 202
f 164 202 165
f 165 202 167
f 165 167 166
f 167 202 168
f 168 202 227
f 168 227 203
f 168 203 169
f 169 203 204
f 169 204 170
f 170 204 205
f 171 205 176
f 171 176 172
f 173 176 205
f 174 205 207
f 174 207 175
f 175 206 177
f 175 207 231
f 175 231 206
f 177 206 208
f 177 208 209
f 178 209 179
f 179 187 186
f 179 186 183
f 179 183 182
f 179 181 180
f 179 209 210
f 179 210 187
f 187 210 211
f 187 211 212
f 187 212 213
f 187 213 188
f 188 213 236
f 188 236 214
f 188 214 215
f 188 215 189
f 189 191 190
f 189 215 191
f 191 215 216
f 193 195 194
f 196 217 197
f 198 218 199
f 199 218 200
f 200 218 219
f 200 219 220
f 200 220 221
f 200 221 222
f 200 222 223
f 200 223 224
f 200 224 225
f 200 225 226
f 200 226 201
f 201 226 228
f 201 228 227
f 203 227 228
f 203 228 229
f 203 229 230
f 203 230 204
f 204 230 205
f 205 230 207
f 206 231 232
f 206 232 208
f 207 230 231
f 208 232 233
f 208 233 210
f 208 210 209
f 210 233 212
f 210 212 211
f 212 233 234
f 212 234 235
f 212 235 213
f 213 235 236
f 214 236 237
f 214 237 215
f 215 237 238
f 215 238 239
f 215 239 216
f 216 239 240
f 226 240 239
f 226 239 241
f 226 241 228
f 228 241 245
f 228 245 242
f 228 242 229
f 229 242 243
f 229 243 230
f 230 243 232
f 230 232 231
f 232 244 233
f 232 243 244
f 233 244 234
f 234 244 245
f 234 245 246
f 234 246 235
f 235 246 236
f 236 246 241
f 236 241 237
f 237 239 238
f 237 241 239
f 241 246 245
f 242 245 244
f 242 244 243
