o piece_005
v -0.0456411 9.80597e-06 -0.0623307
v -0.0437425 0.0114135 -0.0623307
v -0.0399383 9.80597e-06 -0.0623307
v -0.0456411 9.80597e-06 0.0836725
v -0.0418397 0.0171166 -0.0623307
v -0.0437425 0.0114135 0.0855791
v -0.0310581 0.0253585 -0.0623307
v -0.0399383 9.80597e-06 0.0855791
v -0.0443763 9.80597e-06 0.0862098
v -0.0451686 0.000952875 0.0846258
v -0.0391661 0.0224648 -0.0623307
v -0.0418397 0.0171166 0.0836725
v -0.0432672 0.012364 0.0865324
v -0.0367679 0.0253585 -0.0623307
v -0.0310581 0.0253585 0.0855791
v -0.0312522 0.0253585 0.0865911
v -0.0314578 0.0253585 0.0870017
v -0.0405721 9.80597e-06 0.0868404
v -0.0431087 9.80597e-06 0.0868404
v -0.0431087 0.0114135 0.0868404
v -0.0386708 0.023455 -0.0623307
v -0.0386708 0.023455 0.0855791
v -0.0413644 0.0180671 0.0846258
v -0.039463 0.0218692 0.0865324
v -0.0420781 0.0133121 0.0870017
v -0.0382753 0.0228222 0.0870017
v -0.0367679 0.0253585 0.0836725
v -0.0335975 0.0253585 0.0874711
v -0.0418397 9.80597e-06 0.0874711
v -0.0418397 0.0114135 0.0874711
v -0.0367694 0.0253561 0.0855791
v -0.0380384 0.0209187 0.0874711
v -0.0343141 0.0253585 0.0873244
v -0.036374 0.0247232 0.0870017
v -0.0367665 0.0253585 0.0855791
v -0.0342342 0.0247232 0.0874711
v -0.0357373 0.0253585 0.0870017
v -0.0361356 0.0228222 0.0874711
f 1 2 5
f 1 5 11
f 1 11 21
f 1 21 14
f 1 14 7
f 1 7 3
f 1 3 8
f 1 8 18
f 1 18 29
f 1 29 19
f 1 19 9
f 1 9 4
f 1 4 6
f 1 6 2
f 2 6 12
f 2 12 5
f 3 7 15
f 3 15 8
f 4 9 10
f 4 10 6
f 5 12 11
f 6 10 13
f 6 13 23
f 6 23 12
f 7 14 27
f 7 27 35
f 7 35 37
f 7 37 33
f 7 33 28
f 7 28 17
f 7 17 16
f 7 16 15
f 8 15 16
f 8 16 17
f 8 17 18
f 9 19 20
f 9 20 13
f 9 13 10
f 11 12 22
f 11 22 21
f 12 23 22
f 13 24 23
f 13 20 25
f 13 25 26
f 13 26 24
f 14 21 22
f 14 22 27
f 17 28 29
f 17 29 18
f 19 29 30
f 19 30 20
f 20 30 25
f 22 23 24
f 22 24 26
f 22 26 34
f 22 34 31
f 22 31 27
f 25 30 26
f 26 30 32
f 26 32 33
f 26 33 34
f 27 31 35
f 28 33 36
f 28 36 38
f 28 38 32
f 28 32 30
f 28 30 29
f 31 34 37
f 31 37 35
f 32 38 33
f 33 37 34
f 33 38 36
