o piece_011
v -0.00224894 -0.0418397 0.0874857
v -0.0338982 -0.024793 0.0874051
v -0.0342321 -0.024793 0.0874535
v -0.0323311 -0.0266276 0.0874857
v -0.0114133 -0.0418397 0.0874857
v -0.0123638 -0.0427918 0.0870019
v -0.00224894 -0.0431085 0.0868406
v -0.00224894 -0.0405729 0.0868406
v -0.0326479 -0.0250421 0.0871632
v -0.0327706 -0.024793 0.0870341
v -0.0343002 -0.024793 0.0874373
v -0.0323311 -0.0285299 0.0874857
v -0.0209183 -0.0380372 0.0874857
v -0.0218688 -0.0389873 0.0870019
v -0.0126806 -0.0431085 0.0862116
v -0.0114133 -0.043742 0.0855826
v -0.0114133 -0.0431085 0.0868406
v -0.00224894 -0.0441302 0.0853891
v -0.0323958 -0.024793 0.0869051
v -0.00224894 -0.0402851 0.0862761
v -0.0315543 -0.024793 0.0863568
v -0.0360684 -0.024793 0.0867761
v -0.0351826 -0.0256755 0.0870019
v -0.0285257 -0.0323324 0.0874857
v -0.0332816 -0.02948 0.0870019
v -0.0313806 -0.0313823 0.0870019
v -0.0294762 -0.0332845 0.0870019
v -0.0221856 -0.0393041 0.0862116
v -0.018387 -0.0412063 0.0843085
v -0.00224894 -0.0445203 0.0833247
v -0.0171197 -0.0418397 0.0836795
v -0.0114133 -0.043742 -0.0772799
v -0.00224894 -0.0399375 0.0855826
v -0.0313465 -0.024793 0.085502
v -0.0361161 -0.024793 0.0867277
v -0.0351826 -0.0275778 0.0860503
v -0.0335984 -0.0297967 0.0862116
v -0.0316974 -0.031699 0.0862116
v -0.029793 -0.0336012 0.0862116
v -0.0310638 -0.0329658 0.0849375
v -0.027892 -0.0354996 0.0843085
v -0.0234529 -0.0386706 0.0849375
v -0.0223117 -0.0392423 -0.0772799
v -0.018387 -0.0412063 -0.0772799
v -0.00224894 -0.0445203 -0.0772799
v -0.0171197 -0.0418397 -0.0772799
v -0.00224894 -0.039335 -0.0772799
v -0.0292241 -0.0254226 -0.0772799
v -0.0297317 -0.0251676 -0.0772799
v -0.0304812 -0.024793 -0.0772799
v -0.0370529 -0.024793 0.085502
v -0.0354994 -0.0278945 0.0843085
v -0.0329648 -0.0310655 0.0849375
v -0.0291593 -0.0348662 0.0830343
v -0.0310638 -0.0329658 -0.0772799
v -0.0234529 -0.0386706 -0.0772799
v -0.0370529 -0.024793 -0.0772799
v -0.0348658 -0.0291633 0.0830343
v -0.0354381 -0.02802 -0.0772799
v -0.0329648 -0.0310655 -0.0772799
v -0.0291593 -0.0348662 -0.0772799
v -0.0348658 -0.0291633 -0.0772799
f 1 2 3
f 1 3 4
f 1 4 12
f 1 12 24
f 1 24 13
f 1 13 5
f 1 5 6
f 1 6 7
f 1 7 18
f 1 18 30
f 1 30 45
f 1 45 47
f 1 47 33
f 1 33 20
f 1 20 8
f 1 8 2
f 2 9 10
f 2 10 19
f 2 19 21
f 2 21 34
f 2 34 50
f 2 50 57
f 2 57 51
f 2 51 35
f 2 35 22
f 2 22 11
f 2 11 3
f 2 8 9
f 3 11 12
f 3 12 4
f 5 13 6
f 6 13 14
f 6 14 28
f 6 28 15
f 6 15 16
f 6 16 17
f 6 17 7
f 7 17 18
f 8 19 9
f 8 20 21
f 8 21 19
f 9 19 10
f 11 22 23
f 11 23 12
f 12 23 25
f 12 25 26
f 12 26 24
f 13 24 27
f 13 27 14
f 14 27 39
f 14 39 28
f 15 28 29
f 15 29 31
f 15 31 16
f 16 30 18
f 16 18 17
f 16 31 46
f 16 46 32
f 16 32 45
f 16 45 30
f 20 33 21
f 21 33 34
f 22 35 25
f 22 25 23
f 24 26 27
f 25 35 36
f 25 36 37
f 25 37 38
f 25 38 26
f 26 38 39
f 26 39 27
f 28 39 40
f 28 40 41
f 28 41 54
f 28 54 42
f 28 42 29
f 29 42 43
f 29 43 44
f 29 44 46
f 29 46 31
f 32 46 44
f 32 44 43
f 32 43 56
f 32 56 61
f 32 61 55
f 32 55 60
f 32 60 62
f 32 62 59
f 32 59 57
f 32 57 50
f 32 50 49
f 32 49 48
f 32 48 47
f 32 47 45
f 33 47 34
f 34 47 48
f 34 48 49
f 34 49 50
f 35 51 36
f 36 51 52
f 36 52 37
f 37 53 38
f 37 52 58
f 37 58 53
f 38 53 40
f 38 40 39
f 40 54 41
f 40 53 60
f 40 60 55
f 40 55 61
f 40 61 54
f 42 54 61
f 42 61 56
f 42 56 43
f 51 58 52
f 51 57 59
f 51 59 58
f 53 58 62
f 53 62 60
f 58 59 62
