o piece_008
v 0.0273546 -0.0357712 -0.0773702
v 0.0273546 -0.0281013 -0.0773702
v 0.0282999 -0.0352984 -0.0773702
v 0.0273546 -0.0357712 0.0844036
v 0.0392496 -3.18218e-06 -0.0773702
v 0.0273546 -0.0289699 0.0855816
v 0.0291628 -0.0348641 -0.0773702
v 0.0291628 -0.0348641 0.0836774
v 0.0275784 -0.0356591 0.0846295
v 0.0273546 -0.035603 0.0848393
v 0.0393051 7.32384e-06 -0.0773379
v 0.0393445 7.32384e-06 -0.0773702
v 0.0399389 7.32384e-06 0.0855816
v 0.0273546 -0.0292746 0.0866305
v 0.0329673 -0.0310607 -0.0773702
v 0.0329673 -0.0310607 0.0855816
v 0.0310642 -0.0329624 0.0855816
v 0.0285291 -0.0349446 0.0855816
v 0.0275784 -0.0347065 0.0865336
v 0.0273546 -0.0352388 0.0855816
v 0.0438383 7.32384e-06 -0.0773702
v 0.0273546 -0.0294602 0.0870016
v 0.0405727 7.32384e-06 0.0868403
v 0.0348687 -0.029159 -0.0773702
v 0.0348687 -0.029159 0.0836774
v 0.0386696 -0.0234539 0.0855816
v 0.0332842 -0.029954 0.0865336
v 0.0323318 -0.0306649 0.0870016
v 0.0304304 -0.0325666 0.0870016
v 0.0294797 -0.0337574 0.0865336
v 0.0273546 -0.0348746 0.0863077
v 0.0273546 -0.0346505 0.0866305
v 0.0456447 -3.18218e-06 -0.0773702
v 0.0456394 7.32384e-06 -0.0760631
v 0.0273546 -0.0316 0.0874857
v 0.0418403 7.32384e-06 0.0874857
v 0.0386696 -0.0234539 -0.0773702
v 0.0393051 -0.0221861 0.0855816
v 0.0389864 -0.0223437 0.0865336
v 0.0388719 -0.0230512 -0.0773702
v 0.0380358 -0.0230582 0.0870016
v 0.0323318 -0.0285251 0.0874857
v 0.0285291 -0.0323285 0.0874857
v 0.0273546 -0.0336488 0.0871791
v 0.0273546 -0.0341356 0.0869371
v 0.0437416 -0.0114134 -0.0773702
v 0.0456447 -3.18218e-06 0.0836774
v 0.0456394 7.32384e-06 0.0836774
v 0.0273546 -0.0323285 0.0874857
v 0.0418403 -0.0114134 0.0874857
v 0.0437488 7.32384e-06 0.0865175
v 0.0418403 -0.0171184 0.0836774
v 0.0399389 -0.0209183 0.0855816
v 0.0393051 -0.0215522 0.0868403
v 0.0393051 -0.0221861 -0.0773702
v 0.0380358 -0.0209183 0.0874857
v 0.0418403 -0.0171184 -0.0773702
v 0.0437416 -0.0114134 0.0855816
v 0.0446887 7.32384e-06 0.0855816
v 0.0450092 -0.000637081 0.0849361
v 0.0431078 -0.0120472 0.0868403
v 0.0443324 7.32384e-06 0.0860334
v 0.041364 -0.0173566 0.0855816
f 1 2 5
f 1 5 12
f 1 12 21
f 1 21 33
f 1 33 46
f 1 46 57
f 1 57 55
f 1 55 40
f 1 40 37
f 1 37 24
f 1 24 15
f 1 15 7
f 1 7 3
f 1 3 4
f 1 4 10
f 1 10 20
f 1 20 31
f 1 31 32
f 1 32 45
f 1 45 44
f 1 44 49
f 1 49 35
f 1 35 22
f 1 22 14
f 1 14 6
f 1 6 2
f 2 6 5
f 3 7 8
f 3 8 9
f 3 9 4
f 4 9 10
f 5 11 12
f 5 6 13
f 5 13 11
f 6 14 13
f 7 15 16
f 7 16 8
f 8 16 17
f 8 17 18
f 8 18 9
f 9 18 19
f 9 19 20
f 9 20 10
f 11 13 23
f 11 23 36
f 11 36 51
f 11 51 62
f 11 62 59
f 11 59 48
f 11 48 34
f 11 34 21
f 11 21 12
f 13 14 22
f 13 22 23
f 15 24 25
f 15 25 16
f 16 25 26
f 16 26 27
f 16 27 28
f 16 28 29
f 16 29 17
f 17 29 30
f 17 30 18
f 18 30 19
f 19 31 20
f 19 30 29
f 19 29 32
f 19 32 31
f 21 34 33
f 22 35 36
f 22 36 23
f 24 37 26
f 24 26 25
f 26 38 39
f 26 39 27
f 26 37 40
f 26 40 38
f 27 39 41
f 27 41 28
f 28 41 56
f 28 56 42
f 28 42 43
f 28 43 29
f 29 43 44
f 29 44 45
f 29 45 32
f 33 34 48
f 33 48 47
f 33 47 58
f 33 58 46
f 35 49 43
f 35 43 42
f 35 42 56
f 35 56 50
f 35 50 36
f 36 50 51
f 38 52 53
f 38 53 54
f 38 54 39
f 38 40 55
f 38 55 57
f 38 57 52
f 39 54 41
f 41 54 56
f 43 49 44
f 46 58 52
f 46 52 57
f 47 48 59
f 47 59 60
f 47 60 61
f 47 61 58
f 50 56 54
f 50 54 61
f 50 61 51
f 51 61 62
f 52 58 63
f 52 63 53
f 53 63 54
f 54 63 61
f 58 61 63
f 59 62 61
f 59 61 60
