o piece_013
v 7.32384e-06 0.0456411 -0.0623453
v 7.32384e-06 0.0456411 -0.0760772
v 7.32384e-06 0.039938 -0.0623453
v 0.0114132 0.0437413 -0.0623453
v 9.82292e-06 0.0456392 -0.0779657
v 7.32384e-06 0.045602 -0.0779657
v 0.0114132 0.0437413 -0.0779657
v 7.32384e-06 0.0380549 -0.0779657
v 0.0247479 0.0266524 -0.0779657
v 0.0255324 0.030716 -0.0623453
v 0.0171148 0.0418396 -0.0623453
v 0.0171148 0.0418396 -0.0779657
v 0.0255324 0.0266524 -0.0779657
v 0.0255324 0.0366812 -0.0623453
v 0.0175321 0.0416314 -0.0623453
v 0.0171248 0.0418359 -0.0779657
v 0.0255324 0.0366812 -0.0779657
v 0.0234561 0.0386702 -0.0623453
v 0.0194335 0.0406815 -0.0623453
v 0.0200881 0.0403544 -0.0623453
v 0.0234561 0.0386702 -0.0779657
f 1 2 6
f 1 6 8
f 1 8 3
f 1 3 10
f 1 10 14
f 1 14 18
f 1 18 20
f 1 20 19
f 1 19 15
f 1 15 11
f 1 11 4
f 1 4 7
f 1 7 2
f 2 5 6
f 2 7 5
f 3 8 9
f 3 9 10
f 4 11 12
f 4 12 7
f 5 7 12
f 5 12 16
f 5 16 21
f 5 21 17
f 5 17 13
f 5 13 9
f 5 9 8
f 5 8 6
f 9 13 10
f 10 13 17
f 10 17 14
f 11 15 16
f 11 16 12
f 14 17 21
f 14 21 18
f 15 19 16
f 16 19 20
f 16 20 21
f 18 21 20
