o piece_002
v 0.0399391 1.09219e-05 -0.0623307
v 0.0253444 0.031068 -0.0623307
v 0.0456411 1.09219e-05 -0.0623307
v 0.0399391 1.09219e-05 0.0855791
v 0.0253444 0.0367763 -0.0623307
v 0.0253444 0.031068 0.0861951
v 0.0437417 0.011413 -0.0623307
v 0.0456411 1.09219e-05 0.0836725
v 0.0405729 1.09219e-05 0.0868404
v 0.0253444 0.0317087 0.0869137
v 0.0253444 0.0310896 0.0862244
v 0.027043 0.0359269 -0.0623307
v 0.0253444 0.0367763 0.0861951
v 0.0418404 0.0171177 -0.0623307
v 0.0437417 0.011413 0.0855791
v 0.0456371 1.09219e-05 0.0836872
v 0.0418404 1.09219e-05 0.0874711
v 0.0256762 0.0313775 0.0870017
v 0.0253444 0.0341093 0.0873537
v 0.0291629 0.0348651 -0.0623307
v 0.0291629 0.0348651 0.0843031
v 0.0253444 0.0367691 0.0862098
v 0.0253583 0.0367691 0.0862098
v 0.0412066 0.0183882 -0.0623307
v 0.0418404 0.0171177 0.0836725
v 0.0399391 0.0209184 0.0855791
v 0.0408887 0.0180679 0.0865324
v 0.0427901 0.0123632 0.0865324
v 0.043108 0.0107796 0.0868404
v 0.0443755 0.000637174 0.0862098
v 0.0446894 1.09219e-05 0.0855791
v 0.0418404 0.011413 0.0874711
v 0.0266278 0.0323313 0.0874711
v 0.043108 1.09219e-05 0.0868404
v 0.0253444 0.0367547 0.0862244
v 0.0285291 0.0323313 0.0874711
v 0.0275775 0.0351818 0.0865324
v 0.0310642 0.0329648 -0.0623307
v 0.0310642 0.0329648 0.0862098
v 0.0386695 0.0234558 -0.0623307
v 0.0412066 0.0183882 0.0830418
v 0.0386695 0.0234558 0.0862098
v 0.0389874 0.0218686 0.0865324
v 0.0377199 0.022502 0.0871631
v 0.0380358 0.0209184 0.0874711
v 0.0437497 1.09219e-05 0.0865178
v 0.0443318 1.09219e-05 0.0860338
v 0.0323318 0.028527 0.0874711
v 0.0301146 0.0320146 0.0871631
v 0.0348689 0.0291605 -0.0623307
v 0.0329675 0.0310608 0.0862098
v 0.0348689 0.0291605 0.0843031
v 0.0351848 0.0275768 0.0865324
v 0.0320159 0.0301106 0.0871631
f 1 2 5
f 1 5 12
f 1 12 20
f 1 20 38
f 1 38 50
f 1 50 40
f 1 40 24
f 1 24 14
f 1 14 7
f 1 7 3
f 1 3 8
f 1 8 16
f 1 16 31
f 1 31 47
f 1 47 46
f 1 46 34
f 1 34 17
f 1 17 9
f 1 9 4
f 1 4 6
f 1 6 2
f 2 6 11
f 2 11 10
f 2 10 19
f 2 19 35
f 2 35 22
f 2 22 13
f 2 13 5
f 3 7 15
f 3 15 8
f 4 9 10
f 4 10 11
f 4 11 6
f 5 13 12
f 7 14 25
f 7 25 15
f 8 15 16
f 9 17 18
f 9 18 10
f 10 18 19
f 12 13 21
f 12 21 20
f 13 22 23
f 13 23 21
f 14 24 41
f 14 41 25
f 15 25 26
f 15 26 27
f 15 27 28
f 15 28 29
f 15 29 30
f 15 30 16
f 16 30 31
f 17 32 45
f 17 45 48
f 17 48 36
f 17 36 33
f 17 33 19
f 17 19 18
f 17 34 30
f 17 30 29
f 17 29 32
f 19 33 36
f 19 36 37
f 19 37 35
f 20 21 39
f 20 39 38
f 21 23 39
f 22 35 23
f 23 35 37
f 23 37 39
f 24 40 42
f 24 42 41
f 25 41 26
f 26 42 27
f 26 41 42
f 27 42 43
f 27 43 44
f 27 44 45
f 27 45 32
f 27 32 29
f 27 29 28
f 30 46 47
f 30 47 31
f 30 34 46
f 36 48 49
f 36 49 37
f 37 49 39
f 38 39 52
f 38 52 50
f 39 49 51
f 39 51 52
f 40 50 52
f 40 52 42
f 42 52 51
f 42 51 53
f 42 53 44
f 42 44 43
f 44 54 48
f 44 48 45
f 44 53 54
f 48 54 49
f 49 54 51
f 51 54 53
