o piece_009
v 0.0273546 -0.0316038 0.0874857
v 0.0273546 -0.0323318 0.0874857
v 0.0273546 -0.0294642 0.0870016
v -0.00224894 -0.0418396 0.0874857
v 0.0209187 -0.0380361 0.0874857
v 0.0273546 -0.0336523 0.0871791
v 0.0273546 -0.0292771 0.0866305
v -0.00224894 -0.0402856 0.0862755
v -0.00224894 -0.0405723 0.0868403
v 0.011414 -0.0418396 0.0874857
v -0.00224894 -0.0431085 0.0868403
v 2.61771e-06 -0.0443758 0.0862109
v 0.0228196 -0.0382748 0.0870016
v 0.0273546 -0.0341383 0.0869371
v 0.0273546 -0.0289731 0.0855816
v -0.00224894 -0.0399387 0.0855816
v 0.011414 -0.0431085 0.0868403
v 0.013312 -0.0420783 0.0870016
v -0.00224894 -0.0441302 0.0853879
v 0.000953084 -0.0451691 0.0846295
v 0.0123645 -0.0432665 0.0865336
v -0.000950747 -0.0446934 0.0850975
v 2.61771e-06 -0.045643 0.0836774
v 0.0218691 -0.0394631 0.0865336
v 0.0273546 -0.0346551 0.0866305
v 0.0273546 -0.0281025 -0.0773702
v -0.00224894 -0.0392484 -0.0773702
v -0.0012666 -0.0450094 0.0843067
v -0.00224894 -0.04452 0.0833224
v 0.011414 -0.0437422 0.0855816
v 0.0180673 -0.0413639 0.0846295
v -0.00129558 -0.0449957 -0.0773702
v 2.61771e-06 -0.045643 -0.0773702
v 0.0221879 -0.0393051 0.0855816
v 0.0234542 -0.0386698 0.0855816
v 0.0273546 -0.0348766 0.0863077
v 0.0273546 -0.0357712 -0.0773702
v -0.00224894 -0.04452 -0.0773702
v 0.0171139 -0.0418396 0.0836774
v 0.011414 -0.0437422 -0.0773702
v 0.0196523 -0.0405723 0.0836774
v 0.0175196 -0.0416387 -0.0773702
v 0.0221879 -0.0393051 -0.0773702
v 0.0273546 -0.0357712 0.0844036
v 0.0273546 -0.0356047 0.0848393
v 0.0273546 -0.0352406 0.0855816
v 0.0234542 -0.0386698 -0.0773702
v 0.0171139 -0.0418396 -0.0773702
f 1 2 6
f 1 6 14
f 1 14 25
f 1 25 36
f 1 36 46
f 1 46 45
f 1 45 44
f 1 44 37
f 1 37 26
f 1 26 15
f 1 15 7
f 1 7 3
f 1 3 4
f 1 4 10
f 1 10 5
f 1 5 2
f 2 5 6
f 3 7 8
f 3 8 9
f 3 9 4
f 4 9 8
f 4 8 16
f 4 16 27
f 4 27 38
f 4 38 29
f 4 29 19
f 4 19 11
f 4 11 12
f 4 12 10
f 5 10 13
f 5 13 6
f 6 13 14
f 7 15 16
f 7 16 8
f 10 12 17
f 10 17 18
f 10 18 13
f 11 19 12
f 12 20 21
f 12 21 17
f 12 19 22
f 12 22 23
f 12 23 20
f 13 18 21
f 13 21 24
f 13 24 25
f 13 25 14
f 15 26 16
f 16 26 27
f 17 21 18
f 19 28 22
f 19 29 28
f 20 30 21
f 20 23 30
f 21 30 31
f 21 31 24
f 22 28 23
f 23 28 29
f 23 29 32
f 23 32 33
f 23 33 40
f 23 40 30
f 24 31 34
f 24 34 35
f 24 35 36
f 24 36 25
f 26 37 47
f 26 47 43
f 26 43 42
f 26 42 48
f 26 48 40
f 26 40 33
f 26 33 32
f 26 32 38
f 26 38 27
f 29 38 32
f 30 39 31
f 30 40 48
f 30 48 39
f 31 41 34
f 31 39 42
f 31 42 41
f 34 41 42
f 34 42 43
f 34 43 47
f 34 47 35
f 35 44 45
f 35 45 46
f 35 46 36
f 35 47 37
f 35 37 44
f 39 48 42
