o piece_010
v -0.0370536 -0.024791 -0.0772799
v -0.0386698 -0.023456 -0.0772799
v -0.0304838 -0.024791 -0.0772799
v -0.0370536 -0.024791 0.085502
v -0.0392426 -0.0223127 -0.0772799
v -0.0386698 -0.023456 0.0849375
v -0.0393361 7.32384e-06 -0.0772799
v -0.0399386 7.32384e-06 0.0855826
v -0.0313475 -0.024791 0.085502
v -0.0361202 -0.024791 0.0867277
v -0.0374039 -0.0240895 0.0862116
v -0.0393361 -0.0221258 -0.0772799
v -0.0393049 -0.0221864 0.0862116
v -0.043573 7.32384e-06 -0.0772799
v -0.0405723 7.32384e-06 0.0868406
v -0.0316978 -0.0240895 0.0862116
v -0.0315583 -0.024791 0.0863568
v -0.0360697 -0.024791 0.0867761
v -0.0370878 -0.0237715 0.0870019
v -0.0389873 -0.0218709 0.0870019
v -0.0402874 -0.0202227 -0.0772799
v -0.0399386 -0.0209193 0.0855826
v -0.0405723 -0.0196522 0.0830343
v -0.0431085 -0.0126783 0.0862116
v -0.0456447 -2.38566e-06 -0.0772799
v -0.0456403 7.32384e-06 -0.0760703
v -0.0418397 7.32384e-06 0.0874857
v -0.0323997 -0.024791 0.0869051
v -0.0343008 -0.024791 0.0874373
v -0.034234 -0.0247231 0.0874857
v -0.0380376 -0.0209193 0.0874857
v -0.0427909 -0.0123627 0.0870019
v -0.0412371 -0.018322 -0.0772799
v -0.0437422 -0.0114112 0.0855826
v -0.0418397 -0.0171156 0.0836795
v -0.0437422 -0.0114112 -0.0772799
v -0.0456447 -2.38566e-06 0.0836795
v -0.0456403 7.32384e-06 0.0836795
v -0.0443759 7.32384e-06 0.0862116
v -0.0418397 -0.0114112 0.0874857
v -0.0339001 -0.024791 0.0874051
v -0.0327752 -0.024791 0.0870341
v -0.034234 -0.024791 0.0874535
v -0.0443759 -2.38566e-06 0.0862116
v -0.0431085 -0.0114112 0.0868406
v -0.0418397 -0.0171156 -0.0772799
f 1 2 5
f 1 5 12
f 1 12 21
f 1 21 33
f 1 33 46
f 1 46 36
f 1 36 25
f 1 25 14
f 1 14 7
f 1 7 3
f 1 3 9
f 1 9 17
f 1 17 28
f 1 28 42
f 1 42 41
f 1 41 43
f 1 43 29
f 1 29 18
f 1 18 10
f 1 10 4
f 1 4 6
f 1 6 2
f 2 6 5
f 3 7 8
f 3 8 9
f 4 10 11
f 4 11 6
f 5 6 13
f 5 13 12
f 6 11 13
f 7 14 26
f 7 26 38
f 7 38 39
f 7 39 27
f 7 27 15
f 7 15 8
f 8 15 16
f 8 16 9
f 9 16 17
f 10 18 19
f 10 19 11
f 11 19 20
f 11 20 13
f 12 13 22
f 12 22 23
f 12 23 21
f 13 20 32
f 13 32 24
f 13 24 34
f 13 34 22
f 14 25 26
f 15 27 28
f 15 28 17
f 15 17 16
f 18 29 19
f 19 29 30
f 19 30 31
f 19 31 20
f 20 31 32
f 21 23 33
f 22 34 35
f 22 35 23
f 23 35 33
f 24 32 34
f 25 36 34
f 25 34 37
f 25 37 38
f 25 38 26
f 27 39 44
f 27 44 40
f 27 40 31
f 27 31 30
f 27 30 41
f 27 41 42
f 27 42 28
f 29 43 30
f 30 43 41
f 31 40 32
f 32 40 44
f 32 44 45
f 32 45 34
f 33 35 46
f 34 45 44
f 34 44 37
f 34 36 46
f 34 46 35
f 37 44 39
f 37 39 38
