o piece_000
v 0.04564 2.85758e-06 -0.0779693
v 0.0456447 -1.6113e-06 -0.0773702
v 0.04564 2.85758e-06 -0.0855866
v 0.0438351 2.85758e-06 -0.0773702
v 0.0456447 -1.6113e-06 -0.0855836
v 0.0437414 -0.0114146 -0.0773702
v 0.0450071 2.85758e-06 -0.0868481
v 0.0393439 2.85758e-06 -0.0773702
v 0.0451665 -0.000953441 -0.0865342
v 0.0450071 -1.6113e-06 -0.086851
v 0.0437414 -0.0114146 -0.0855836
v 0.041838 -0.0171211 -0.0773702
v 0.0437414 2.85758e-06 -0.0874828
v 0.0392455 -1.6113e-06 -0.0773702
v 0.0152189 2.85758e-06 -0.0779772
v 0.0432632 -0.0123665 -0.0865342
v 0.0431085 -0.0114146 -0.086851
v 0.0437414 -1.6113e-06 -0.0874847
v 0.041838 -0.0171211 -0.0855836
v 0.0413645 -0.0180685 -0.0865342
v 0.0407738 -0.0192527 -0.0773702
v 0.041838 2.85758e-06 -0.0874847
v -0.00224894 -0.0152175 -0.0779772
v -0.00224894 -0.0392456 -0.0773702
v -0.00189733 2.85758e-06 -0.0855836
v -0.00224894 -1.6113e-06 -0.0855836
v -0.00224894 -0.0136266 -0.0782881
v 0.0412051 -0.0171211 -0.086851
v 0.041838 -0.0114146 -0.0874847
v 0.0405722 -0.0196549 -0.0855836
v 0.0394611 -0.0218758 -0.0865342
v 0.0401737 -0.0190203 -0.0870095
v 0.0401409 -0.0205173 -0.0773702
v -0.00189733 2.85758e-06 -0.0874847
v -0.00224894 -0.0445186 -0.0773702
v -0.00224894 2.85758e-06 -0.0859302
v 0.0399346 -0.0171211 -0.0874847
v 0.0386688 -0.0234533 -0.0773702
v 0.0386688 -0.0234533 -0.0855836
v 0.0348668 -0.0291598 -0.0855836
v 0.0356591 -0.0275734 -0.0865342
v 0.0344683 -0.0285252 -0.0870095
v 0.0382703 -0.0228187 -0.0870095
v 0.0380359 -0.020924 -0.0874847
v -0.00224894 -1.6113e-06 -0.0874847
v -0.00224894 -0.0445186 -0.0859302
v 1.34666e-06 -0.0456447 -0.0773702
v 0.0348668 -0.0291598 -0.0773702
v 0.0306662 -0.0323281 -0.0870095
v 0.0291614 -0.0348663 -0.0855836
v 0.0323305 -0.0285252 -0.0874847
v 0.0342292 -0.026626 -0.0874847
v -0.00224894 -0.0418374 -0.0874847
v -0.00224894 -0.0444337 -0.0862748
v 1.34666e-06 -0.0456447 -0.0855836
v 0.0114122 -0.0437411 -0.0773702
v 0.0291614 -0.0348663 -0.0773702
v 0.0287629 -0.0342317 -0.0870095
v 0.0266251 -0.0342317 -0.0874847
v 0.0234559 -0.0386691 -0.0855836
v 0.0280503 -0.0351835 -0.0865342
v -0.00224894 -0.0432897 -0.0870352
v 1.34666e-06 -0.0437411 -0.0874847
v -0.00224894 -0.0440896 -0.0865045
v 0.000634241 -0.0450102 -0.086851
v 0.0120498 -0.0431065 -0.086851
v 0.0114122 -0.0437411 -0.0855836
v 0.0171176 -0.0418374 -0.0773702
v 0.0234559 -0.0386691 -0.0773702
v 0.027258 -0.0355008 -0.086851
v 0.0215572 -0.0393037 -0.086851
v 0.0230574 -0.0380346 -0.0870095
v 0.0209244 -0.0380346 -0.0874847
v 0.0209244 -0.0399382 -0.0855836
v 0.0223449 -0.0389864 -0.0865342
v -0.00158323 -0.0434238 -0.0871679
v 0.0114122 -0.0418374 -0.0874847
v 0.0171176 -0.0399382 -0.0874847
v 0.0177552 -0.0412029 -0.086851
v 0.0171176 -0.0418374 -0.0855836
v 0.0175255 -0.0416363 -0.0773702
v 0.0209244 -0.0399382 -0.0773702
v 0.0185475 -0.04089 -0.0865342
v 0.0196539 -0.0405728 -0.0855836
f 1 2 5
f 1 5 3
f 1 3 7
f 1 7 13
f 1 13 22
f 1 22 34
f 1 34 36
f 1 36 25
f 1 25 15
f 1 15 8
f 1 8 4
f 1 4 2
f 2 4 8
f 2 8 14
f 2 14 24
f 2 24 35
f 2 35 47
f 2 47 56
f 2 56 68
f 2 68 81
f 2 81 82
f 2 82 69
f 2 69 57
f 2 57 48
f 2 48 38
f 2 38 33
f 2 33 21
f 2 21 12
f 2 12 6
f 2 6 11
f 2 11 5
f 3 5 7
f 5 9 10
f 5 10 7
f 5 11 16
f 5 16 9
f 6 12 19
f 6 19 11
f 7 10 13
f 8 15 14
f 9 16 17
f 9 17 10
f 10 18 13
f 10 17 18
f 11 19 20
f 11 20 16
f 12 21 19
f 13 18 22
f 14 15 23
f 14 23 24
f 15 25 26
f 15 26 27
f 15 27 23
f 16 20 17
f 17 20 28
f 17 28 37
f 17 37 29
f 17 29 18
f 18 29 37
f 18 37 44
f 18 44 52
f 18 52 51
f 18 51 59
f 18 59 73
f 18 73 78
f 18 78 77
f 18 77 63
f 18 63 53
f 18 53 45
f 18 45 34
f 18 34 22
f 19 21 30
f 19 30 20
f 20 30 31
f 20 31 32
f 20 32 28
f 21 33 31
f 21 31 30
f 23 27 26
f 23 26 36
f 23 36 45
f 23 45 53
f 23 53 62
f 23 62 64
f 23 64 54
f 23 54 46
f 23 46 35
f 23 35 24
f 25 36 26
f 28 32 37
f 31 33 38
f 31 38 39
f 31 39 40
f 31 40 41
f 31 41 42
f 31 42 43
f 31 43 32
f 32 43 44
f 32 44 37
f 34 45 36
f 35 46 55
f 35 55 47
f 38 48 40
f 38 40 39
f 40 49 42
f 40 42 41
f 40 48 57
f 40 57 50
f 40 50 49
f 42 44 43
f 42 49 51
f 42 51 52
f 42 52 44
f 46 54 55
f 47 55 67
f 47 67 56
f 49 50 58
f 49 58 59
f 49 59 51
f 50 57 69
f 50 69 60
f 50 60 75
f 50 75 61
f 50 61 58
f 53 63 62
f 54 64 65
f 54 65 55
f 55 65 66
f 55 66 67
f 56 67 80
f 56 80 68
f 58 61 70
f 58 70 71
f 58 71 72
f 58 72 73
f 58 73 59
f 60 74 71
f 60 71 75
f 60 69 82
f 60 82 74
f 61 75 71
f 61 71 70
f 62 63 76
f 62 76 64
f 63 65 64
f 63 64 76
f 63 77 66
f 63 66 65
f 66 77 78
f 66 78 79
f 66 79 80
f 66 80 67
f 68 80 81
f 71 74 83
f 71 83 79
f 71 79 78
f 71 78 73
f 71 73 72
f 74 82 81
f 74 81 84
f 74 84 83
f 79 83 80
f 80 83 84
f 80 84 81
