o piece_003
v 0.0253417 0.0341107 0.0873537
v 0.0244071 0.0358198 0.0871631
v 0.0225029 0.0377214 0.0871631
v 0.0209202 0.0380381 0.0874711
v 0.0247231 0.0342349 0.0874711
v 0.0253417 0.0317126 0.0869137
v 0.0253417 0.0367556 0.0862244
v 0.0234537 0.0386701 0.0862098
v 0.0218709 0.0389868 0.0865324
v 0.0180652 0.0408899 0.0865324
v 0.0114128 0.04184 0.0874711
v -0.00224606 0.04184 0.0874711
v -0.00224606 0.0416089 0.0873684
v -0.00224606 0.0405718 0.0868404
v 0.0253417 0.0310921 0.0862244
v 0.0253417 0.0367728 0.0862098
v 0.0221869 0.039305 0.0849485
v 0.0209202 0.0399384 0.0855791
v 0.0253417 0.036777 0.0861951
v 0.0234537 0.0386701 -0.0623307
v 0.0232376 0.03878 -0.0623307
v 0.0114128 0.0437417 0.0855791
v 0.0123608 0.0427915 0.0865324
v 0.010778 0.0431082 0.0868404
v -0.00224606 0.0425348 0.0871337
v -0.00224606 0.0404562 0.0866204
v 0.0253417 0.0310721 0.0861951
v 0.018384 0.0412066 0.0830418
v 0.0194346 0.0406816 -0.0623307
v 0.0171145 0.04184 0.0836725
v 0.0253417 0.036777 -0.0623307
v 1.1446e-06 0.0456447 0.0836725
v 0.000635873 0.0443765 0.0862098
v 0.0114128 0.0437417 -0.0623307
v -0.00224606 0.0431082 0.0868404
v -0.00224606 0.0399384 0.0855791
v 0.0253417 0.0310721 -0.0623307
v 0.018384 0.0412066 -0.0623307
v 0.0171145 0.04184 -0.0623307
v -0.00224606 0.0445191 0.0836725
v -0.00224606 0.0440883 0.0855791
v -0.000633584 0.0450099 0.0849485
v 1.1446e-06 0.0456447 -0.0623307
v -0.000990112 0.0451483 -0.0623307
v -0.00224606 0.0434735 0.0864298
v -0.00224606 0.0399384 -0.0623307
v -0.00224606 0.0445191 -0.0623307
f 1 2 3
f 1 3 4
f 1 4 5
f 1 5 6
f 1 6 15
f 1 15 27
f 1 27 37
f 1 37 31
f 1 31 19
f 1 19 16
f 1 16 7
f 1 7 2
f 2 7 3
f 3 7 8
f 3 8 9
f 3 9 10
f 3 10 4
f 4 11 12
f 4 12 5
f 4 10 11
f 5 12 6
f 6 12 13
f 6 13 14
f 6 14 15
f 7 16 8
f 8 17 18
f 8 18 10
f 8 10 9
f 8 16 19
f 8 19 31
f 8 31 20
f 8 20 21
f 8 21 17
f 10 18 22
f 10 22 23
f 10 23 24
f 10 24 11
f 11 25 12
f 11 24 25
f 12 25 35
f 12 35 45
f 12 45 41
f 12 41 40
f 12 40 47
f 12 47 46
f 12 46 36
f 12 36 26
f 12 26 14
f 12 14 13
f 14 26 27
f 14 27 15
f 17 28 18
f 17 21 29
f 17 29 28
f 18 28 30
f 18 30 22
f 20 31 37
f 20 37 46
f 20 46 47
f 20 47 44
f 20 44 43
f 20 43 34
f 20 34 39
f 20 39 38
f 20 38 29
f 20 29 21
f 22 32 33
f 22 33 24
f 22 24 23
f 22 30 39
f 22 39 34
f 22 34 43
f 22 43 32
f 24 33 25
f 25 33 35
f 26 36 27
f 27 36 46
f 27 46 37
f 28 29 38
f 28 38 39
f 28 39 30
f 32 40 41
f 32 41 42
f 32 42 33
f 32 43 44
f 32 44 40
f 33 42 45
f 33 45 35
f 40 44 47
f 41 45 42
