o piece_007
v -1.60869e-06 0.0456447 -0.0775074
v 2.85758e-06 0.044251 -0.0775074
v 2.85758e-06 0.0456403 -0.0779694
v -1.60869e-06 0.0456447 -0.0855831
v -0.0114137 0.0437417 -0.0775074
v 2.85758e-06 0.039538 -0.0775074
v 2.85758e-06 0.0456403 -0.085587
v -1.60869e-06 0.0450104 -0.0868509
v -0.000953363 0.0451667 -0.0865344
v -0.0114137 0.0437417 -0.0855831
v -0.0171198 0.0418386 -0.0775074
v -1.60869e-06 0.0389751 -0.0775074
v 2.85758e-06 0.0152183 -0.0779772
v 2.85758e-06 0.0450059 -0.0868528
v -1.60869e-06 0.0437417 -0.0874848
v -0.0114137 0.0431073 -0.0868509
v -0.0123655 0.0432637 -0.0865344
v -0.0180715 0.0413651 -0.0865344
v -0.0171198 0.0418386 -0.0855831
v -0.0183888 0.0412043 -0.0775074
v -0.0389743 7.32645e-06 -0.0775074
v 2.85758e-06 0.0139541 -0.0786082
v -0.0152163 7.32645e-06 -0.0779772
v -0.013773 7.32645e-06 -0.0785662
v 2.85758e-06 0.0437417 -0.0874828
v 2.85758e-06 0.0418386 -0.0874848
v -0.0114137 0.0418386 -0.0874848
v -0.0171198 0.0412043 -0.0868509
v -0.0190188 0.0401768 -0.0870101
v -0.0218741 0.0394621 -0.0865344
v -0.0221913 0.0393012 -0.0775074
v -0.0456411 7.32645e-06 -0.0775074
v -1.60869e-06 7.32645e-06 -0.0855831
v 2.85758e-06 1.62616e-05 -0.0855831
v 2.85758e-06 7.32645e-06 -0.0874848
v -0.0171198 0.0399356 -0.0874848
v -0.0209223 0.038037 -0.0874848
v -0.0228213 0.0382738 -0.0870101
v -0.0285274 0.0344677 -0.0870101
v -0.0275756 0.035656 -0.0865344
v -0.0291619 0.0348653 -0.0855831
v -0.0234558 0.0386669 -0.0855831
v -0.0234558 0.0386669 -0.0775074
v -0.043742 0.0114122 -0.0775074
v -0.0456411 7.32645e-06 -0.0855831
v -0.0418385 7.32645e-06 -0.0874848
v -0.0266239 0.0342309 -0.0874848
v -0.0342334 0.028763 -0.0870101
v -0.0291619 0.0348653 -0.0775074
v -0.0329644 0.0310636 -0.0855831
v -0.043742 0.0114122 -0.0855831
v -0.0418385 0.0171169 -0.0775074
v -0.0456366 7.32645e-06 -0.0855977
v -0.043742 7.32645e-06 -0.0874838
v -0.0418385 0.0114122 -0.0874848
v -0.0342334 0.0266232 -0.0874848
v -0.038036 0.020923 -0.0874848
v -0.038036 0.0230583 -0.0870101
v -0.039305 0.0215573 -0.0868509
v -0.035498 0.0272575 -0.0868509
v -0.0351807 0.0280482 -0.0865344
v -0.0348635 0.0291606 -0.0855831
v -0.0329644 0.0310636 -0.0775074
v -0.0431075 0.0120466 -0.0868509
v -0.0418385 0.0171169 -0.0855831
v -0.039305 0.0221917 -0.0775074
v -0.0450066 0.000637208 -0.0868509
v -0.0448815 7.32645e-06 -0.0867258
v -0.0437554 7.32645e-06 -0.0874779
v -0.039935 0.0171169 -0.0874848
v -0.041204 0.0177512 -0.0868509
v -0.0408868 0.0185464 -0.0865344
v -0.039305 0.0221917 -0.0855831
v -0.0389877 0.022348 -0.0865344
v -0.0348635 0.0291606 -0.0775074
v -0.0386705 0.0234559 -0.0855831
v -0.0391486 0.0225044 -0.0775074
v -0.0386705 0.0234559 -0.0775074
f 1 2 3
f 1 3 7
f 1 7 4
f 1 4 10
f 1 10 5
f 1 5 11
f 1 11 20
f 1 20 31
f 1 31 43
f 1 43 49
f 1 49 63
f 1 63 75
f 1 75 78
f 1 78 77
f 1 77 66
f 1 66 52
f 1 52 44
f 1 44 32
f 1 32 21
f 1 21 12
f 1 12 6
f 1 6 2
f 2 6 13
f 2 13 22
f 2 22 34
f 2 34 35
f 2 35 26
f 2 26 25
f 2 25 14
f 2 14 7
f 2 7 3
f 4 7 8
f 4 8 9
f 4 9 17
f 4 17 10
f 5 10 19
f 5 19 11
f 6 12 13
f 7 14 8
f 8 14 15
f 8 15 27
f 8 27 16
f 8 16 17
f 8 17 9
f 10 17 18
f 10 18 19
f 11 19 18
f 11 18 20
f 12 21 13
f 13 21 23
f 13 23 24
f 13 24 22
f 14 25 15
f 15 25 26
f 15 26 35
f 15 35 46
f 15 46 55
f 15 55 70
f 15 70 57
f 15 57 56
f 15 56 47
f 15 47 37
f 15 37 36
f 15 36 27
f 16 27 36
f 16 36 28
f 16 28 18
f 16 18 17
f 18 28 29
f 18 29 38
f 18 38 30
f 18 30 31
f 18 31 20
f 21 32 45
f 21 45 53
f 21 53 68
f 21 68 69
f 21 69 54
f 21 54 46
f 21 46 35
f 21 35 33
f 21 33 24
f 21 24 23
f 22 33 34
f 22 24 33
f 28 36 29
f 29 36 37
f 29 37 38
f 30 38 39
f 30 39 40
f 30 40 41
f 30 41 42
f 30 42 43
f 30 43 31
f 32 44 51
f 32 51 45
f 33 35 34
f 37 47 39
f 37 39 38
f 39 41 40
f 39 47 56
f 39 56 48
f 39 48 50
f 39 50 41
f 41 49 43
f 41 43 42
f 41 50 63
f 41 63 49
f 44 52 65
f 44 65 51
f 45 51 53
f 46 54 55
f 48 56 57
f 48 57 58
f 48 58 59
f 48 59 60
f 48 60 61
f 48 61 62
f 48 62 50
f 50 62 75
f 50 75 63
f 51 64 53
f 51 65 71
f 51 71 64
f 52 66 73
f 52 73 65
f 53 67 68
f 53 64 67
f 54 69 55
f 55 69 64
f 55 64 71
f 55 71 70
f 57 70 71
f 57 71 59
f 57 59 58
f 59 71 72
f 59 72 65
f 59 65 73
f 59 73 74
f 59 74 61
f 59 61 60
f 61 74 62
f 62 74 76
f 62 76 78
f 62 78 75
f 64 69 67
f 65 72 71
f 66 77 73
f 67 69 68
f 73 77 76
f 73 76 74
f 76 77 78
