o piece_014
v -6.85714e-07 0.0456447 -0.0623468
v 7.32384e-06 0.0456396 -0.0623468
v -6.85714e-07 0.0456447 -0.0775059
v -0.0114112 0.0437414 -0.0623468
v 7.32384e-06 0.0456396 -0.0760782
v 7.32384e-06 0.0399382 -0.0623468
v 7.32384e-06 0.0442516 -0.0775059
v -0.0114112 0.0437414 -0.0775059
v -0.0171165 0.0418398 -0.0623468
v -6.85714e-07 0.0389745 -0.0775059
v 7.32384e-06 0.0393043 -0.0773412
v -0.0272589 0.0291624 -0.0623468
v -0.027267 0.0291487 -0.0623513
v -0.027267 0.0280957 -0.0775059
v 7.32384e-06 0.0395397 -0.0775059
v -0.0171165 0.0418398 -0.0775059
v -0.018107 0.0413451 -0.0623468
v -0.027267 0.0291659 -0.0623468
v -0.027267 0.0358155 -0.0775059
v -0.0183847 0.0412059 -0.0775059
v -0.0231422 0.0388268 -0.0775059
v -0.0231769 0.0388096 -0.0623468
v -0.027267 0.0358155 -0.0623468
v -0.0234545 0.0386705 -0.0775059
v -0.0234545 0.0386705 -0.0623468
f 1 2 5
f 1 5 3
f 1 3 8
f 1 8 4
f 1 4 9
f 1 9 17
f 1 17 22
f 1 22 25
f 1 25 23
f 1 23 18
f 1 18 12
f 1 12 6
f 1 6 2
f 2 6 11
f 2 11 15
f 2 15 7
f 2 7 5
f 3 5 7
f 3 7 15
f 3 15 10
f 3 10 14
f 3 14 19
f 3 19 24
f 3 24 21
f 3 21 20
f 3 20 16
f 3 16 8
f 4 8 16
f 4 16 9
f 6 10 11
f 6 12 13
f 6 13 14
f 6 14 10
f 9 16 17
f 10 15 11
f 12 18 13
f 13 18 23
f 13 23 19
f 13 19 14
f 16 20 17
f 17 20 21
f 17 21 22
f 19 23 25
f 19 25 24
f 21 24 22
f 22 24 25
