o piece_001
v -0.0456447 -1.39229e-06 -0.0855836
v -0.0456447 -1.39229e-06 -0.0772809
v -0.0456405 2.96708e-06 -0.0855836
v -0.0456362 2.96708e-06 -0.0855976
v -0.0431088 -0.0107802 -0.0868514
v -0.0437417 -0.0114122 -0.0855836
v -0.0435718 2.96708e-06 -0.0772809
v -0.0456405 2.96708e-06 -0.0779662
v -0.0437417 -0.0114122 -0.0772809
v -0.0448844 2.96708e-06 -0.0867255
v -0.0418387 -0.0114122 -0.0874857
v -0.0412058 -0.0164857 -0.0868514
v -0.0405728 -0.0196544 -0.086217
v -0.0437544 2.96708e-06 -0.0874777
v -0.0437417 -1.39229e-06 -0.0874857
v -0.0418387 -0.0171177 -0.0855836
v -0.0393325 2.96708e-06 -0.0772809
v -0.0418387 -0.0171177 -0.0772809
v -0.0399357 -0.0171177 -0.0874857
v -0.0380369 -0.0209227 -0.0874857
v -0.0386698 -0.0234551 -0.086217
v -0.0393027 -0.0221911 -0.0849493
v -0.0405728 -0.0196544 -0.0772809
v -0.0437417 2.96708e-06 -0.0874837
v -0.0418387 2.96708e-06 -0.0874857
v -0.0152176 2.96708e-06 -0.0779772
v -0.00224894 -0.0393335 -0.0772809
v -0.0342308 -0.0266238 -0.0874857
v -0.0339165 -0.0282103 -0.087168
v -0.0377183 -0.0225049 -0.087168
v -0.0386698 -0.0234551 -0.0772809
v -0.0348637 -0.0291605 -0.086217
v -0.0393027 -0.0221911 -0.0772809
v -0.0038079 2.96708e-06 -0.0874857
v -0.0137733 2.96708e-06 -0.0785666
v -0.0038079 -0.013317 -0.0779772
v -0.00224894 -0.0136264 -0.0782879
v -0.00224894 -0.0445203 -0.0772809
v -0.00224894 -0.0152173 -0.0779772
v -0.030429 -0.0304289 -0.0874857
v -0.0282074 -0.0339158 -0.087168
v -0.0310619 -0.0329656 -0.086217
v -0.0348637 -0.0291605 -0.0772809
v -0.00224894 2.96708e-06 -0.0859303
v -0.00224894 -1.39229e-06 -0.0874857
v -0.00224894 -1.39229e-06 -0.0855836
v -0.0114115 -0.0437401 -0.0772809
v -0.00224894 -0.0445203 -0.0859303
v -0.026623 -0.0342296 -0.0874857
v -0.0209224 -0.0380346 -0.0874857
v -0.0225068 -0.0377165 -0.087168
v -0.0234583 -0.038671 -0.086217
v -0.0291589 -0.0348659 -0.086217
v -0.0310619 -0.0329656 -0.0772809
v -0.00224894 -0.0418397 -0.0874857
v -0.0114115 -0.0437401 -0.0855836
v -0.0171206 -0.0418397 -0.0772809
v -0.00224894 -0.0444331 -0.0862749
v -0.0171206 -0.039935 -0.0874857
v -0.018705 -0.0396212 -0.087168
v -0.0234583 -0.038671 -0.0772809
v -0.0180678 -0.0408895 -0.0865347
v -0.0196565 -0.0405714 -0.086217
v -0.0171206 -0.0418397 -0.0855836
v -0.0291589 -0.0348659 -0.0772809
v -0.00224894 -0.0432911 -0.0870352
v -0.0114115 -0.0418397 -0.0874857
v -0.0107786 -0.0431081 -0.0868514
v -0.0164834 -0.0412034 -0.0868514
f 1 2 8
f 1 8 3
f 1 3 4
f 1 4 5
f 1 5 6
f 1 6 9
f 1 9 2
f 2 7 8
f 2 9 18
f 2 18 23
f 2 23 33
f 2 33 31
f 2 31 43
f 2 43 54
f 2 54 65
f 2 65 61
f 2 61 57
f 2 57 47
f 2 47 38
f 2 38 27
f 2 27 17
f 2 17 7
f 3 8 7
f 3 7 17
f 3 17 26
f 3 26 35
f 3 35 44
f 3 44 34
f 3 34 25
f 3 25 24
f 3 24 14
f 3 14 10
f 3 10 4
f 4 10 5
f 5 11 19
f 5 19 12
f 5 12 13
f 5 13 6
f 5 10 14
f 5 14 15
f 5 15 11
f 6 13 16
f 6 16 18
f 6 18 9
f 11 15 25
f 11 25 34
f 11 34 45
f 11 45 55
f 11 55 67
f 11 67 59
f 11 59 50
f 11 50 49
f 11 49 40
f 11 40 28
f 11 28 20
f 11 20 19
f 12 19 20
f 12 20 13
f 13 20 21
f 13 21 22
f 13 22 33
f 13 33 23
f 13 23 18
f 13 18 16
f 14 24 15
f 15 24 25
f 17 27 26
f 20 28 29
f 20 29 30
f 20 30 21
f 21 31 33
f 21 33 22
f 21 30 29
f 21 29 32
f 21 32 43
f 21 43 31
f 26 27 36
f 26 36 37
f 26 37 35
f 27 38 48
f 27 48 58
f 27 58 66
f 27 66 55
f 27 55 45
f 27 45 44
f 27 44 46
f 27 46 37
f 27 37 39
f 27 39 36
f 28 40 29
f 29 40 41
f 29 41 42
f 29 42 32
f 32 42 54
f 32 54 43
f 34 44 45
f 35 46 44
f 35 37 46
f 36 39 37
f 38 47 56
f 38 56 48
f 40 49 41
f 41 49 50
f 41 50 51
f 41 51 52
f 41 52 53
f 41 53 42
f 42 53 65
f 42 65 54
f 47 57 64
f 47 64 56
f 48 56 58
f 50 59 60
f 50 60 52
f 50 52 51
f 52 61 65
f 52 65 53
f 52 60 62
f 52 62 63
f 52 63 64
f 52 64 57
f 52 57 61
f 55 66 67
f 56 64 68
f 56 68 58
f 58 68 66
f 59 67 68
f 59 68 69
f 59 69 62
f 59 62 60
f 62 69 68
f 62 68 64
f 62 64 63
f 66 68 67
