o piece_015
v -0.0456393 1.0828e-05 -0.0775059
v -0.0389738 1.0828e-05 -0.0775059
v -0.0456393 1.0828e-05 -0.0623468
v -0.0437418 0.0114128 -0.0775059
v -0.0399378 1.0828e-05 -0.0623468
v -0.027267 0.0280933 -0.0775059
v -0.027267 0.0291449 -0.0623513
v -0.0437418 0.0114128 -0.0623468
v -0.0418407 0.017119 -0.0775059
v -0.027267 0.0291624 -0.0623468
v -0.027267 0.035815 -0.0775059
v -0.0418407 0.017119 -0.0623468
v -0.0417022 0.0173959 -0.0623468
v -0.0393047 0.0221873 -0.0775059
v -0.027267 0.035815 -0.0623468
v -0.0288497 0.0350228 -0.0775059
v -0.0288857 0.0350053 -0.0623468
v -0.0276177 0.0356397 -0.0623468
v -0.0391662 0.0224642 -0.0623468
v -0.0386698 0.0234562 -0.0775059
v -0.0291626 0.0348651 -0.0775059
v -0.0291626 0.0348651 -0.0623468
v -0.0386698 0.0234562 -0.0623468
v -0.0348677 0.0291589 -0.0775059
v -0.0310655 0.0329654 -0.0775059
v -0.0310655 0.0329654 -0.0623468
v -0.0348677 0.0291589 -0.0623468
f 1 2 5
f 1 5 3
f 1 3 8
f 1 8 4
f 1 4 9
f 1 9 14
f 1 14 20
f 1 20 24
f 1 24 25
f 1 25 21
f 1 21 16
f 1 16 11
f 1 11 6
f 1 6 2
f 2 6 7
f 2 7 5
f 3 5 10
f 3 10 15
f 3 15 18
f 3 18 17
f 3 17 22
f 3 22 26
f 3 26 27
f 3 27 23
f 3 23 19
f 3 19 13
f 3 13 12
f 3 12 8
f 4 8 12
f 4 12 9
f 5 7 10
f 6 11 15
f 6 15 10
f 6 10 7
f 9 12 13
f 9 13 19
f 9 19 14
f 11 16 17
f 11 17 18
f 11 18 15
f 14 19 20
f 16 21 17
f 17 21 22
f 19 23 20
f 20 23 27
f 20 27 24
f 21 25 26
f 21 26 22
f 24 27 26
f 24 26 25
