o piece_012
v 0.0255344 0.0266483 -0.0779657
v 0.0255344 0.0307122 -0.0623453
v 0.0255344 0.0366822 -0.0779657
v 0.0380551 1.09141e-05 -0.0779657
v 0.0399388 1.09141e-05 -0.0623453
v 0.0255344 0.0366822 -0.0623453
v 0.0278945 0.0355011 -0.0779657
v 0.0456411 1.09141e-05 -0.0779657
v 0.0456411 1.09141e-05 -0.0623453
v 0.0278945 0.0355011 -0.0623453
v 0.0291621 0.0348657 -0.0779657
v 0.0437416 0.0114126 -0.0779657
v 0.0437416 0.0114126 -0.0623453
v 0.0291621 0.0348657 -0.0623453
v 0.0310655 0.032963 -0.0779657
v 0.0418402 0.017117 -0.0779657
v 0.0418402 0.017117 -0.0623453
v 0.0310655 0.032963 -0.0623453
v 0.0348683 0.0291613 -0.0779657
v 0.0418363 0.0171278 -0.0779657
v 0.0387794 0.0232379 -0.0623453
v 0.0348683 0.0291613 -0.0623453
v 0.0386712 0.0234533 -0.0779657
v 0.0386712 0.0234533 -0.0623453
f 1 2 6
f 1 6 3
f 1 3 7
f 1 7 11
f 1 11 15
f 1 15 19
f 1 19 23
f 1 23 20
f 1 20 16
f 1 16 12
f 1 12 8
f 1 8 4
f 1 4 5
f 1 5 2
f 2 5 9
f 2 9 13
f 2 13 17
f 2 17 21
f 2 21 24
f 2 24 22
f 2 22 18
f 2 18 14
f 2 14 10
f 2 10 6
f 3 6 10
f 3 10 7
f 4 8 9
f 4 9 5
f 7 10 14
f 7 14 11
f 8 12 13
f 8 13 9
f 11 14 18
f 11 18 15
f 12 16 17
f 12 17 13
f 15 18 22
f 15 22 19
f 16 20 17
f 17 20 21
f 19 22 24
f 19 24 23
f 20 23 21
f 21 23 24
