o piece_006
v 7.32645e-06 0.0456411 -0.0779691
v 7.32645e-06 0.0456411 -0.0855869
v 7.32645e-06 0.0456009 -0.0779672
v 1.17927e-05 0.0456366 -0.0779672
v 0.0114113 0.0437426 -0.0779672
v 7.32645e-06 0.0450068 -0.0868522
v 0.0114113 0.0437426 -0.0855831
v 0.0114113 0.0431083 -0.0868512
v 7.32645e-06 0.0380518 -0.0779672
v 0.01712 0.0418397 -0.0779672
v 0.000954307 0.0446896 -0.0870096
v 7.32645e-06 0.0437426 -0.0874829
v 0.0123627 0.0427912 -0.0870096
v 0.01712 0.0418397 -0.0855831
v 0.0126799 0.0431083 -0.0862177
v 7.32645e-06 0.0152171 -0.0779766
v 0.0380518 7.32645e-06 -0.0779672
v 0.0190318 0.0408838 -0.0779672
v 0.0114113 0.0418397 -0.0874857
v 7.32645e-06 0.0418397 -0.0874857
v 0.0180714 0.0408883 -0.0870096
v 0.0183886 0.0412054 -0.0862177
v 7.32645e-06 0.013953 -0.0786083
v 0.0152171 7.32645e-06 -0.0779766
v 0.0456411 7.32645e-06 -0.0779672
v 0.0221899 0.0393026 -0.0779672
v 0.0221899 0.0393026 -0.0862177
v 0.01712 0.0399368 -0.0874857
v 7.32645e-06 7.32645e-06 -0.0874857
v 0.0218727 0.0389854 -0.0870096
v 7.32645e-06 1.6259e-05 -0.0855831
v 0.0139485 7.32645e-06 -0.0786111
v 0.0456411 7.32645e-06 -0.0855869
v 0.0437426 0.0114113 -0.0779672
v 0.023454 0.0386683 -0.0779672
v 0.023454 0.0386683 -0.0849496
v 0.0291582 0.0348669 -0.0849496
v 0.0278897 0.0355012 -0.0862177
v 0.027577 0.0351841 -0.0870096
v 0.0209213 0.038034 -0.0874857
v 0.00190575 7.32645e-06 -0.0855831
v 0.0418397 7.32645e-06 -0.0874857
v 0.0450068 7.32645e-06 -0.0868475
v 0.0431083 0.0114113 -0.0868512
v 0.0437426 0.0114113 -0.0855831
v 0.0418397 0.01712 -0.0779672
v 0.0291582 0.0348669 -0.0779672
v 0.0348669 0.0291582 -0.0849496
v 0.0355012 0.0278897 -0.0862177
v 0.0266255 0.0342326 -0.0874857
v 0.0351841 0.027577 -0.0870096
v 0.0418397 0.0114113 -0.0874857
v 0.0437426 7.32645e-06 -0.0874829
v 0.0446896 0.000954307 -0.0870096
v 0.0427912 0.0123627 -0.0870096
v 0.0431083 0.0126799 -0.0862177
v 0.0418397 0.01712 -0.0855831
v 0.0408838 0.0190318 -0.0779672
v 0.0348669 0.0291582 -0.0779672
v 0.0386683 0.023454 -0.0849496
v 0.0393026 0.0221899 -0.0862177
v 0.0342326 0.0266255 -0.0874857
v 0.0389854 0.0218727 -0.0870096
v 0.0399368 0.01712 -0.0874857
v 0.0408883 0.0180714 -0.0870096
v 0.0412054 0.0183886 -0.0862177
v 0.0393026 0.0221899 -0.0779672
v 0.0386683 0.023454 -0.0779672
v 0.038034 0.0209213 -0.0874857
f 1 2 6
f 1 6 12
f 1 12 20
f 1 20 29
f 1 29 31
f 1 31 23
f 1 23 16
f 1 16 9
f 1 9 3
f 1 3 4
f 1 4 5
f 1 5 7
f 1 7 2
f 2 7 8
f 2 8 6
f 3 9 17
f 3 17 25
f 3 25 34
f 3 34 46
f 3 46 58
f 3 58 67
f 3 67 68
f 3 68 59
f 3 59 47
f 3 47 35
f 3 35 26
f 3 26 18
f 3 18 10
f 3 10 5
f 3 5 4
f 5 10 14
f 5 14 7
f 6 11 12
f 6 8 13
f 6 13 11
f 7 14 22
f 7 22 15
f 7 15 8
f 8 15 13
f 9 16 24
f 9 24 17
f 10 18 22
f 10 22 14
f 11 13 19
f 11 19 12
f 12 19 20
f 13 15 22
f 13 22 21
f 13 21 28
f 13 28 19
f 16 23 24
f 17 24 32
f 17 32 41
f 17 41 29
f 17 29 42
f 17 42 53
f 17 53 43
f 17 43 33
f 17 33 25
f 18 26 27
f 18 27 22
f 19 28 40
f 19 40 50
f 19 50 62
f 19 62 69
f 19 69 64
f 19 64 52
f 19 52 42
f 19 42 29
f 19 29 20
f 21 22 27
f 21 27 30
f 21 30 40
f 21 40 28
f 23 31 32
f 23 32 24
f 25 33 45
f 25 45 34
f 26 35 36
f 26 36 27
f 27 36 37
f 27 37 38
f 27 38 39
f 27 39 30
f 29 41 31
f 30 39 50
f 30 50 40
f 31 41 32
f 33 43 44
f 33 44 45
f 34 45 57
f 34 57 46
f 35 47 37
f 35 37 36
f 37 47 59
f 37 59 48
f 37 48 49
f 37 49 38
f 38 49 51
f 38 51 39
f 39 51 62
f 39 62 50
f 42 52 53
f 43 54 44
f 43 53 54
f 44 55 56
f 44 56 45
f 44 54 55
f 45 56 66
f 45 66 57
f 46 57 66
f 46 66 58
f 48 59 68
f 48 68 60
f 48 60 61
f 48 61 49
f 49 61 51
f 51 61 63
f 51 63 69
f 51 69 62
f 52 64 65
f 52 65 55
f 52 55 54
f 52 54 53
f 55 65 66
f 55 66 56
f 58 66 61
f 58 61 67
f 60 68 67
f 60 67 61
f 61 66 65
f 61 65 63
f 63 65 64
f 63 64 69
