o piece_004
v -0.00224876 0.0418404 0.0874711
v -0.00224876 0.0416097 0.0873684
v -0.00224876 0.0425343 0.0871337
v -0.0114124 0.0418404 0.0874711
v -0.0335951 0.0253629 0.0874711
v -0.0314563 0.0253629 0.0870017
v -0.00224876 0.0405726 0.0868404
v -0.00224876 0.0431081 0.0868404
v -0.0120477 0.0431081 0.0868404
v -0.0209174 0.038037 0.0874711
v -0.0323314 0.0285286 0.0874711
v -0.0343115 0.0253629 0.0873244
v -0.0312501 0.0253629 0.0865911
v -0.00224876 0.0399387 0.0855791
v -0.00224876 0.0404563 0.0866204
v -0.00224876 0.0434739 0.0864298
v -0.0215526 0.0393048 0.0868404
v -0.00224876 0.0440871 0.0855791
v -0.0114124 0.043742 0.0855791
v -0.017356 0.041364 0.0855791
v -0.0230596 0.038037 0.0870017
v -0.0285267 0.032332 0.0874711
v -0.0325679 0.0304303 0.0870017
v -0.035734 0.0253629 0.0870017
v -0.0310575 0.0253629 0.0855791
v -0.0297938 0.025993 0.0855791
v -0.00224876 0.0399387 -0.0623307
v -0.0209174 0.0399387 0.0855791
v -0.0223467 0.0389878 0.0865324
v -0.00224876 0.0445203 0.0836725
v -0.0171194 0.0418404 0.0836725
v -0.0114124 0.043742 -0.0623307
v -0.0306656 0.032332 0.0870017
v -0.0329633 0.0310642 0.0855791
v -0.0337573 0.0294795 0.0865324
v -0.0367646 0.0253629 0.0855791
v -0.0310575 0.0253629 -0.0623307
v -0.0307839 0.0254979 -0.0623307
v -0.0297938 0.025993 -0.0623307
v -0.00224876 0.0445203 -0.0623307
v -0.0221878 0.0393048 0.0855791
v -0.0234549 0.0386709 0.0855791
v -0.0299526 0.0332828 0.0865324
v -0.0171194 0.0418404 -0.0623307
v -0.0181095 0.0413453 -0.0623307
v -0.0310609 0.0329659 0.0855791
v -0.0349467 0.0285286 0.0855791
v -0.0348656 0.0291625 0.0836725
v -0.0356597 0.0275778 0.0846258
v -0.0367679 0.0253629 0.0836725
v -0.0367679 0.0253629 -0.0623307
v -0.0291586 0.0348675 0.0836725
v -0.0231779 0.0388097 -0.0623307
v -0.0234549 0.0386709 -0.0623307
v -0.0348656 0.0291625 -0.0623307
v -0.0353623 0.0281723 -0.0623307
v -0.0291586 0.0348675 -0.0623307
f 1 2 7
f 1 7 15
f 1 15 14
f 1 14 27
f 1 27 40
f 1 40 30
f 1 30 18
f 1 18 16
f 1 16 8
f 1 8 3
f 1 3 4
f 1 4 10
f 1 10 22
f 1 22 11
f 1 11 5
f 1 5 6
f 1 6 2
f 2 6 7
f 3 8 9
f 3 9 4
f 4 9 17
f 4 17 10
f 5 11 12
f 5 12 24
f 5 24 36
f 5 36 50
f 5 50 51
f 5 51 37
f 5 37 25
f 5 25 13
f 5 13 6
f 6 13 14
f 6 14 15
f 6 15 7
f 8 16 9
f 9 16 18
f 9 18 19
f 9 19 20
f 9 20 17
f 10 17 21
f 10 21 22
f 11 22 33
f 11 33 23
f 11 23 24
f 11 24 12
f 13 25 26
f 13 26 14
f 14 26 39
f 14 39 27
f 17 20 28
f 17 28 29
f 17 29 21
f 18 30 19
f 19 31 20
f 19 30 40
f 19 40 32
f 19 32 44
f 19 44 31
f 20 31 28
f 21 29 43
f 21 43 33
f 21 33 22
f 23 33 46
f 23 46 34
f 23 34 35
f 23 35 24
f 24 35 36
f 25 37 38
f 25 38 26
f 26 38 39
f 27 39 38
f 27 38 37
f 27 37 51
f 27 51 56
f 27 56 55
f 27 55 57
f 27 57 54
f 27 54 53
f 27 53 45
f 27 45 44
f 27 44 32
f 27 32 40
f 28 41 29
f 28 31 41
f 29 41 42
f 29 42 46
f 29 46 43
f 31 44 45
f 31 45 41
f 33 43 46
f 34 47 35
f 34 46 52
f 34 52 57
f 34 57 55
f 34 55 48
f 34 48 47
f 35 47 36
f 36 47 49
f 36 49 50
f 41 45 53
f 41 53 42
f 42 52 46
f 42 53 54
f 42 54 57
f 42 57 52
f 47 48 49
f 48 55 56
f 48 56 49
f 49 56 50
f 50 56 51
