o piece_010
v 0.0374705 0.0481749 -0.0410388
v 0.0374705 0.0356876 -0.0410388
v 0.0374705 0.0481749 -0.0486156
v 0.0370288 0.0490583 -0.0486156
v 0.0368753 0.0493649 -0.0416327
v 0.0365777 0.0490678 -0.040145
v 0.0344965 0.0487707 -0.0333081
v 0.035685 0.0481749 -0.0356877
v 0.035685 0.0356876 -0.0356877
v 0.0368753 0.0350918 -0.039849
v 0.0365777 0.0343483 -0.040145
v 0.0368753 0.0344976 -0.0410388
v 0.0374705 0.0356876 -0.0486156
v 0.0368753 0.0493649 -0.0486156
v 0.0365684 0.0495189 -0.0486156
v 0.035685 0.0499591 -0.0410388
v 0.0339013 0.0499591 -0.0356877
v 0.0350898 0.0493649 -0.0362816
v 0.0344965 0.0362817 -0.0333081
v 0.0336037 0.049662 -0.0341999
v 0.0318201 0.049662 -0.0306325
v 0.032711 0.0487707 -0.0297386
v 0.0350898 0.0350918 -0.0344979
v 0.035685 0.0339019 -0.0410388
v 0.0365815 0.0343499 -0.0486156
v 0.0347922 0.0343483 -0.0347958
v 0.0339013 0.0339019 -0.0356877
v 0.0368753 0.0344976 -0.0486156
v 0.035685 0.0499591 -0.0486156
v 0.0321158 0.0499591 -0.0321182
v 0.0333061 0.0350918 -0.0309284
v 0.0285485 0.0499591 -0.0279123
v 0.0298474 0.0494749 -0.0279123
v 0.0308394 0.0488147 -0.0279123
v 0.0309273 0.0487707 -0.0279549
v 0.0309049 0.0487487 -0.0279123
v 0.032711 0.0362817 -0.0297386
v 0.035685 0.0339019 -0.0486156
v 0.0330086 0.0343483 -0.0312264
v 0.0321158 0.0339019 -0.0321182
v 0.0303322 0.0499591 -0.0486156
v 0.0303322 0.0349708 -0.0279123
v 0.0301188 0.0345448 -0.0279123
v 0.0214121 0.0499591 -0.0279123
v 0.0309049 0.0362597 -0.0279123
v 0.0303322 0.0339019 -0.0486156
v 0.0312249 0.0343483 -0.0294427
v 0.0285485 0.0339019 -0.0279123
v 0.0300383 0.0498129 -0.0486156
v 0.0276576 0.0495142 -0.0454981
v 0.0189902 0.0494498 -0.0279123
v 0.0285485 0.0499591 -0.0446063
v 0.0214121 0.0499591 -0.0285508
v 0.0291437 0.0344976 -0.0486156
v 0.0285485 0.0339019 -0.0446063
v 0.0198568 0.0341314 -0.0279123
v 0.0214121 0.0339019 -0.0279123
v 0.0291437 0.0493649 -0.0486156
v 0.02736 0.0487707 -0.0457961
v 0.018352 0.0486827 -0.0279123
v 0.0184175 0.0487895 -0.0279123
v 0.018483 0.0488807 -0.0279123
v 0.0279533 0.0350918 -0.0469859
v 0.0287694 0.0352459 -0.0486156
v 0.0187862 0.034845 -0.0279123
v 0.0190333 0.0350918 -0.0291447
v 0.0214121 0.0339019 -0.0285508
v 0.0289958 0.0490709 -0.0486156
v 0.0285485 0.0481749 -0.0486156
v 0.018352 0.0361937 -0.0279123
v 0.0285485 0.0356876 -0.0486156
f 1 2 13
f 1 13 3
f 1 3 4
f 1 4 5
f 1 5 6
f 1 6 7
f 1 7 8
f 1 8 9
f 1 9 2
f 2 9 23
f 2 23 10
f 2 10 11
f 2 11 12
f 2 12 28
f 2 28 13
f 3 13 28
f 3 28 25
f 3 25 38
f 3 38 46
f 3 46 54
f 3 54 64
f 3 64 71
f 3 71 69
f 3 69 68
f 3 68 58
f 3 58 49
f 3 49 41
f 3 41 29
f 3 29 15
f 3 15 14
f 3 14 4
f 4 14 5
f 5 14 15
f 5 15 16
f 5 16 17
f 5 17 18
f 5 18 7
f 5 7 6
f 7 19 9
f 7 9 8
f 7 18 17
f 7 17 20
f 7 20 21
f 7 21 22
f 7 22 37
f 7 37 31
f 7 31 19
f 9 19 23
f 10 23 11
f 11 24 25
f 11 25 12
f 11 23 26
f 11 26 27
f 11 27 24
f 12 25 28
f 15 29 16
f 16 29 41
f 16 41 52
f 16 52 53
f 16 53 44
f 16 44 32
f 16 32 30
f 16 30 17
f 17 30 21
f 17 21 20
f 19 31 23
f 21 30 32
f 21 32 33
f 21 33 22
f 22 33 34
f 22 34 35
f 22 35 36
f 22 36 45
f 22 45 37
f 23 31 39
f 23 39 26
f 24 38 25
f 24 27 40
f 24 40 48
f 24 48 57
f 24 57 67
f 24 67 55
f 24 55 46
f 24 46 38
f 26 39 27
f 27 39 40
f 31 37 42
f 31 42 43
f 31 43 39
f 32 44 51
f 32 51 62
f 32 62 61
f 32 61 60
f 32 60 70
f 32 70 65
f 32 65 56
f 32 56 57
f 32 57 48
f 32 48 43
f 32 43 42
f 32 42 45
f 32 45 36
f 32 36 34
f 32 34 33
f 34 36 35
f 37 45 42
f 39 43 47
f 39 47 48
f 39 48 40
f 41 49 50
f 41 50 51
f 41 51 52
f 43 48 47
f 44 53 51
f 46 55 56
f 46 56 54
f 49 58 50
f 50 58 59
f 50 59 60
f 50 60 61
f 50 61 62
f 50 62 51
f 51 53 52
f 54 63 64
f 54 56 65
f 54 65 66
f 54 66 63
f 55 67 56
f 56 67 57
f 58 68 59
f 59 68 69
f 59 69 60
f 60 69 71
f 60 71 70
f 63 71 64
f 63 66 71
f 65 70 66
f 66 70 71
