o piece_012
v 2.72155e-05 -0.0118025 0.0253893
v 2.72155e-05 -0.0214116 0.028549
v 2.72155e-05 -0.0118025 0.0406424
v 0.00576395 -0.0118025 0.0253893
v 2.72155e-05 -0.0226005 0.0291458
v 0.00535402 -0.0214116 0.028549
v 2.72155e-05 -0.0130694 0.0398697
v 0.00590208 -0.0118025 0.0481353
v 0.00606917 -0.0118025 0.0255029
v 0.00594886 -0.0226005 0.0291458
v 2.72155e-05 -0.0231681 0.0302792
v 2.72155e-05 -0.0184372 0.0362824
v 0.00594886 -0.0118962 0.0481353
v 0.00591767 -0.0118348 0.0481353
v 0.022787 -0.0118025 0.0481353
v 0.0096382 -0.0118025 0.0272865
v 0.00535402 -0.0231949 0.0303349
v 0.00951789 -0.0226005 0.0309294
v 2.72155e-05 -0.0231949 0.0303349
v 2.72155e-05 -0.0226005 0.0333075
v 0.0148692 -0.0226005 0.0481353
v 0.0196257 -0.0214116 0.0481353
v 0.022787 -0.0118025 0.0446059
v 0.013205 -0.0118025 0.0290701
v 0.00892305 -0.0231949 0.0321185
v 0.010262 -0.0223038 0.0312256
v 0.0109304 -0.0227499 0.0321185
v 2.72155e-05 -0.0231949 0.0321185
v 0.0160567 -0.0231949 0.0481353
v 0.0190308 -0.0226005 0.0481353
v 0.0191801 -0.0223038 0.0437152
v 0.0196257 -0.0214116 0.0446059
v 0.0210025 -0.0118025 0.0392529
v 0.0146175 -0.0118025 0.0298517
v 0.0107076 -0.0231949 0.0339021
v 0.0113024 -0.0214116 0.0315239
v 0.0162817 -0.0227499 0.0374693
v 0.0178412 -0.0231949 0.0481353
v 0.0190063 -0.0226138 0.0481353
v 0.0190308 -0.0226005 0.0446059
v 0.0173956 -0.0223038 0.0383622
v 0.0204522 -0.0118025 0.0379525
v 0.0181865 -0.0118025 0.0334189
v 0.0142744 -0.0231949 0.0374693
v 0.0166515 -0.0214116 0.0368747
v 0.0172463 -0.0226005 0.0392529
v 0.0160567 -0.0231949 0.0392529
v 0.0178412 -0.0231949 0.0446059
v 0.019971 -0.0118025 0.0369861
f 1 2 5
f 1 5 11
f 1 11 19
f 1 19 28
f 1 28 20
f 1 20 12
f 1 12 7
f 1 7 3
f 1 3 8
f 1 8 15
f 1 15 23
f 1 23 33
f 1 33 42
f 1 42 49
f 1 49 43
f 1 43 34
f 1 34 24
f 1 24 16
f 1 16 9
f 1 9 4
f 1 4 6
f 1 6 2
f 2 6 10
f 2 10 5
f 3 7 8
f 4 9 10
f 4 10 6
f 5 10 11
f 7 12 13
f 7 13 14
f 7 14 8
f 8 14 13
f 8 13 21
f 8 21 29
f 8 29 38
f 8 38 39
f 8 39 30
f 8 30 22
f 8 22 15
f 9 16 18
f 9 18 10
f 10 17 11
f 10 18 25
f 10 25 17
f 11 17 19
f 12 20 13
f 13 20 21
f 15 22 32
f 15 32 23
f 16 24 18
f 17 25 35
f 17 35 44
f 17 44 47
f 17 47 48
f 17 48 38
f 17 38 29
f 17 29 28
f 17 28 19
f 18 24 26
f 18 26 27
f 18 27 25
f 20 28 29
f 20 29 21
f 22 30 31
f 22 31 32
f 23 32 31
f 23 31 41
f 23 41 33
f 24 34 26
f 25 27 35
f 26 34 36
f 26 36 27
f 27 36 37
f 27 37 35
f 30 39 40
f 30 40 31
f 31 40 46
f 31 46 41
f 33 41 42
f 34 43 36
f 35 37 44
f 36 43 45
f 36 45 37
f 37 45 41
f 37 41 46
f 37 46 47
f 37 47 44
f 38 48 39
f 39 48 40
f 40 48 47
f 40 47 46
f 41 45 43
f 41 43 49
f 41 49 42
