o piece_002
v 0.0285467 0.0499591 -0.0267636
v 0.0282514 0.049662 -0.0252773
v 0.0297376 0.0493649 -0.027358
v 0.0298477 0.0494749 -0.0279103
v 0.0285467 0.0499591 -0.0279103
v 0.0178379 0.0499591 -0.0124956
v 0.0178554 0.0499543 -0.0124956
v 0.0291421 0.0487707 -0.0243841
v 0.0190314 0.0493649 -0.0124956
v 0.0308385 0.0488147 -0.0279103
v 0.0214108 0.0499591 -0.0279103
v 0.00534776 0.0499591 -0.0124956
v 0.0291421 0.0362817 -0.0243841
v 0.0303331 0.0481749 -0.0267636
v 0.0309061 0.0487487 -0.0279103
v 0.0196219 0.0481859 -0.0124956
v 0.0196269 0.0481702 -0.0124956
v 0.0189864 0.0494498 -0.0279103
v 0.0187337 0.0495142 -0.0276553
v 0.00802994 0.0495142 -0.0223033
v 0.00534525 0.0499575 -0.0196326
v 0.00535526 0.0499591 -0.0196281
v 0.00534525 0.0499591 -0.0124987
v 0.00534525 0.0499402 -0.0124956
v 0.0297376 0.0350918 -0.0255746
v 0.0303331 0.0356876 -0.0267636
v 0.0196269 0.0374654 -0.0124956
v 0.0196244 0.0356828 -0.0124956
v 0.0309061 0.0362597 -0.0279103
v 0.018481 0.0488807 -0.0279103
v 0.0148705 0.0487707 -0.0261691
v 0.0077322 0.0487707 -0.0226006
v 0.00534525 0.0493649 -0.0208156
v 0.00534525 0.0499591 -0.0178521
v 0.00534525 0.0339019 -0.0124987
v 0.00534776 0.0339019 -0.0124956
v 0.0294399 0.0343483 -0.0258718
v 0.0301179 0.0345448 -0.0279103
v 0.0303331 0.0349708 -0.0279103
v 0.0190314 0.0344976 -0.0124956
v 0.0184159 0.0487895 -0.0279103
v 0.0183483 0.0486827 -0.0279103
v 0.00534525 0.0481686 -0.0214116
v 0.00534525 0.0339019 -0.0178521
v 0.0178379 0.0339019 -0.0124956
v 0.0285467 0.0339019 -0.0267636
v 0.0285467 0.0339019 -0.0279103
v 0.0183483 0.0361937 -0.0279103
v 0.00534525 0.0374638 -0.0214116
v 0.00534525 0.0339066 -0.0196356
v 0.00535526 0.0339019 -0.0196281
v 0.0214108 0.0339019 -0.0279103
v 0.01725 0.0350918 -0.027358
v 0.013682 0.0350918 -0.0255746
v 0.00654373 0.0350918 -0.0220061
v 0.0187837 0.034845 -0.0279103
v 0.00534525 0.0356797 -0.0214071
v 0.00534525 0.0344976 -0.0208156
v 0.0198546 0.0341314 -0.0279103
f 1 2 3
f 1 3 4
f 1 4 5
f 1 5 11
f 1 11 22
f 1 22 34
f 1 34 23
f 1 23 12
f 1 12 6
f 1 6 7
f 1 7 2
f 2 8 3
f 2 7 9
f 2 9 8
f 3 10 4
f 3 8 10
f 4 10 15
f 4 15 29
f 4 29 39
f 4 39 38
f 4 38 47
f 4 47 52
f 4 52 59
f 4 59 56
f 4 56 48
f 4 48 42
f 4 42 41
f 4 41 30
f 4 30 18
f 4 18 11
f 4 11 5
f 6 12 24
f 6 24 36
f 6 36 45
f 6 45 40
f 6 40 28
f 6 28 27
f 6 27 17
f 6 17 16
f 6 16 9
f 6 9 7
f 8 13 26
f 8 26 14
f 8 14 15
f 8 15 10
f 8 9 16
f 8 16 17
f 8 17 27
f 8 27 13
f 11 18 19
f 11 19 20
f 11 20 21
f 11 21 22
f 12 23 24
f 13 25 26
f 13 27 28
f 13 28 25
f 14 26 29
f 14 29 15
f 18 30 31
f 18 31 32
f 18 32 20
f 18 20 19
f 20 32 33
f 20 33 21
f 21 33 43
f 21 43 49
f 21 49 57
f 21 57 58
f 21 58 50
f 21 50 44
f 21 44 35
f 21 35 24
f 21 24 23
f 21 23 34
f 21 34 22
f 24 35 36
f 25 37 38
f 25 38 39
f 25 39 26
f 25 28 40
f 25 40 37
f 26 39 29
f 30 41 31
f 31 41 42
f 31 42 32
f 32 43 33
f 32 42 43
f 35 44 51
f 35 51 52
f 35 52 47
f 35 47 46
f 35 46 45
f 35 45 36
f 37 46 38
f 37 40 45
f 37 45 46
f 38 46 47
f 42 48 49
f 42 49 43
f 44 50 51
f 48 53 54
f 48 54 55
f 48 55 49
f 48 56 53
f 49 55 57
f 50 58 59
f 50 59 51
f 51 59 52
f 53 56 59
f 53 59 54
f 54 59 55
f 55 58 57
f 55 59 58
