o piece_008
v 0.0196262 -0.0249532 -0.00356936
v 0.0196262 -0.0249532 -0.00713726
v 0.0190295 -0.0249532 -0.00237933
v 0.0249748 -0.0249812 -0.0107052
v 0.0190295 -0.0249532 -0.00832619
v 0.0178652 -0.0249532 -0.00179869
v 0.0355629 -0.0368719 -0.00904065
v 0.0353883 -0.0359829 -0.00921872
v 0.0362761 -0.0350904 -0.0101101
v 0.0309275 -0.0297389 -0.0101101
v 0.0273544 -0.02617 -0.0101101
v 0.0178361 -0.0249532 -0.00892121
v 0.0178579 -0.0249532 -0.00891236
v 0.0261683 -0.0255762 -0.0113002
v 0.0258699 -0.0258725 -0.0120434
v 0.0249748 -0.0255762 -0.0118952
v 0.024087 -0.0254269 -0.0115977
v -0.0249748 -0.0249812 -0.0107052
v 0.0178361 -0.0249532 -0.00178541
v 0.0362834 -0.0368719 -0.00951954
v 0.0178361 -0.0249812 -0.00178541
v 0.0178361 -0.0321165 -0.00356936
v 0.0178361 -0.0368719 -0.00535331
v 0.0365745 -0.0365779 -0.00981263
v 0.0368655 -0.0368719 -0.0101068
v 0.0371712 -0.0368719 -0.0110049
v 0.0368728 -0.0362804 -0.0113002
v 0.0333071 -0.0327115 -0.0113002
v -0.0179598 -0.0249532 -0.00892121
v 0.0369456 -0.0368719 -0.0120014
v 0.0249748 -0.026765 -0.0124891
v -0.024087 -0.0258725 -0.0120434
v 0.03672 -0.0368719 -0.0122635
v 0.0356939 -0.0368719 -0.0130708
v 0.0356794 -0.0368719 -0.0130808
v -0.0249748 -0.0255762 -0.0118952
v -0.0258699 -0.0254269 -0.0115977
v -0.0261683 -0.0255762 -0.0107052
v -0.0255716 -0.0255762 -0.00951622
v -0.0190295 -0.0249532 -0.00237933
v -0.0196262 -0.0249532 -0.00356936
v -0.0196262 -0.0249532 -0.00725449
v -0.0191678 -0.0249532 -0.00846444
v -0.0178361 -0.0249532 -0.00178541
v 0.0366327 -0.0368719 -0.00975401
v -0.0178361 -0.0249812 -0.00178541
v -0.0178361 -0.0321165 -0.00356936
v -0.0178361 -0.0368719 -0.00535331
v 0.0338965 -0.0368719 -0.013083
v -0.0249748 -0.026765 -0.0124891
v -0.0267577 -0.0265422 -0.0120434
v -0.0273544 -0.02617 -0.0107052
v -0.0263138 -0.0258725 -0.00981263
v -0.0269833 -0.026765 -0.00936692
v -0.0323392 -0.0321165 -0.00936692
v -0.035905 -0.0356854 -0.00936692
v -0.0365453 -0.0368719 -0.00946535
v -0.0357594 -0.0368719 -0.00907051
v -0.0187311 -0.033009 -0.00401507
v -0.0350827 -0.0368719 -0.00892121
v -0.0338965 -0.0368719 -0.013083
v -0.0356794 -0.0368719 -0.0130819
v -0.0367418 -0.0368719 -0.0123962
v -0.0285479 -0.028326 -0.0120434
v -0.0309275 -0.0297389 -0.0107052
v -0.0362761 -0.0350904 -0.0107052
v -0.0370184 -0.0365779 -0.00981263
v -0.0369747 -0.0368719 -0.0097153
v -0.0368728 -0.0368719 -0.0121894
v -0.0356794 -0.0354625 -0.0120434
v -0.0321136 -0.0318937 -0.0120434
v -0.0369601 -0.0368719 -0.0117968
v -0.0371712 -0.0368719 -0.0107052
v -0.0371712 -0.0368719 -0.0101068
f 1 2 5
f 1 5 13
f 1 13 12
f 1 12 29
f 1 29 43
f 1 43 42
f 1 42 41
f 1 41 40
f 1 40 44
f 1 44 19
f 1 19 6
f 1 6 3
f 1 3 4
f 1 4 2
f 2 4 5
f 3 6 7
f 3 7 8
f 3 8 9
f 3 9 10
f 3 10 11
f 3 11 4
f 4 12 13
f 4 13 5
f 4 11 14
f 4 14 15
f 4 15 16
f 4 16 17
f 4 17 37
f 4 37 18
f 4 18 29
f 4 29 12
f 6 19 7
f 7 20 8
f 7 19 21
f 7 21 22
f 7 22 23
f 7 23 48
f 7 48 60
f 7 60 58
f 7 58 57
f 7 57 68
f 7 68 74
f 7 74 73
f 7 73 72
f 7 72 69
f 7 69 63
f 7 63 62
f 7 62 61
f 7 61 49
f 7 49 35
f 7 35 34
f 7 34 33
f 7 33 30
f 7 30 26
f 7 26 25
f 7 25 45
f 7 45 20
f 8 20 9
f 9 20 24
f 9 24 25
f 9 25 26
f 9 26 27
f 9 27 28
f 9 28 10
f 10 28 14
f 10 14 11
f 14 28 30
f 14 30 15
f 15 31 50
f 15 50 32
f 15 32 36
f 15 36 16
f 15 30 33
f 15 33 34
f 15 34 35
f 15 35 31
f 16 36 37
f 16 37 17
f 18 37 38
f 18 38 39
f 18 39 40
f 18 40 41
f 18 41 42
f 18 42 43
f 18 43 29
f 19 44 46
f 19 46 21
f 20 45 24
f 21 46 47
f 21 47 22
f 22 47 48
f 22 48 23
f 24 45 25
f 26 30 27
f 27 30 28
f 31 35 49
f 31 49 61
f 31 61 50
f 32 50 36
f 36 50 51
f 36 51 37
f 37 51 52
f 37 52 38
f 38 53 39
f 38 52 53
f 39 53 40
f 40 53 54
f 40 54 55
f 40 55 56
f 40 56 57
f 40 57 58
f 40 58 44
f 44 58 46
f 46 58 47
f 47 58 59
f 47 59 48
f 48 59 60
f 50 61 62
f 50 62 51
f 51 62 63
f 51 63 64
f 51 64 52
f 52 54 53
f 52 64 65
f 52 65 54
f 54 65 55
f 55 65 66
f 55 66 56
f 56 66 67
f 56 67 68
f 56 68 57
f 58 60 59
f 63 69 66
f 63 66 70
f 63 70 71
f 63 71 64
f 64 71 66
f 64 66 65
f 66 69 72
f 66 72 73
f 66 73 74
f 66 74 67
f 66 71 70
f 67 74 68
