o piece_007
v 0.0181851 -0.0118025 0.033421
v 0.021002 -0.0118025 0.0392598
v 0.0172681 -0.0118025 0.0636598
v 0.0226231 -0.0118025 0.052959
v 0.0208406 -0.0118025 0.0583094
v 0.0356806 -0.0107055 0.0535226
v 0.0227845 -0.0118025 0.0517416
v 0.0227845 -0.0118025 0.0446027
v 0.0356806 -0.0107055 0.0356904
v 0.0365755 -0.0102596 0.0544168
v 0.0160577 -0.0107055 0.0731508
v 0.0154855 -0.0118025 0.0654483
v 0.00834796 -0.0118025 0.0690178
v 0.0107027 -0.0107055 0.0749393
v 0.0169453 -0.0102596 0.074045
v 0.0249779 -0.0095899 0.0678004
v 0.0214054 -0.0095899 0.0713698
v 0.0187352 -0.00936694 0.074045
v 0.0160577 -0.00951612 0.0755329
v 0.0205178 -0.0066914 0.075826
v 0.0240829 -0.00758406 0.0722641
v 0.0258655 -0.00758406 0.0704756
v 0.0312205 -0.0066914 0.0651252
v 0.0315213 -0.00594792 0.0654182
v 0.0368689 -0.00951612 0.0547174
v 0.0374705 -0.00892102 0.0535226
v 0.0368689 -0.0101104 0.0535226
v 0.037023 -0.00981368 0.0347961
v 0.0374705 -0.00892102 0.0356904
v 0.0309271 -0.00892102 0.0226074
v 0.031668 -0.00981368 0.0240953
v 0.030553 -0.0102596 0.0232011
v 0.035908 -0.0102596 0.0339019
v 0.0303329 -0.0107055 0.024982
v 0.0368689 -0.0101104 0.0356904
v 0.0146126 -0.0118025 0.0298515
v 0.0196228 -0.0107055 0.0142812
v 0.0216328 -0.0102596 0.0142812
v 0.020217 -0.0101104 0.0130864
v 0.0209653 -0.00981368 0.013387
v 0.00708565 -0.0067601 0.000598671
v 0.00535149 -0.00772784 0.000598671
v 0 -0.00951459 0.000598671
v 0.0124853 -0.0107055 0.0107118
v 0.00575848 -0.0118025 0.0253954
v 0.00534768 -0.0107055 0.00892329
v -0.00534768 -0.0107055 0.00892329
v -0.00493689 -0.0118025 0.0253954
v -0.0124853 -0.0107055 0.0107118
v -0.0076144 -0.0118025 0.0262821
v -0.0165419 -0.0118025 0.0645766
v -0.0227845 -0.0118025 0.045016
v -0.0183244 -0.0118025 0.033421
v -0.014752 -0.0118025 0.0298515
v -0.0196228 -0.0107055 0.0142812
v -0.0303329 -0.0107055 0.024982
v -0.020107 -0.0118025 0.0369904
v -0.0356806 -0.0107055 0.0356904
v -0.0356806 -0.0107055 0.0535226
v -0.0368689 -0.0101104 0.036284
v -0.0362748 -0.00951612 0.0333083
v -0.0309271 -0.00951612 0.0226074
v -0.0300321 -0.010408 0.0234942
v -0.021112 -0.010408 0.0145743
v -0.0219996 -0.00951612 0.01368
v -0.00951459 -0.00178288 0.000598671
v -0.00911039 -0.00375706 0.000598671
v -0.00732594 -0.00732445 0.000598671
v -0.00197258 -0.00910916 0.000598671
v 0.00892039 -0.00316623 0.000598671
v 0.0219996 -0.00892102 0.01368
v 0.00951459 -0.00119001 0.000598671
v 0.00832247 0.00832234 0.000598671
v 0.00951459 0.00594476 0.000598671
v 0.0309271 0.0124891 0.0226074
v 0.0219996 0.0124891 0.01368
v 0.0205178 0.0133809 0.0129436
v 0.0214054 0.0138268 0.0140558
v 0.0303329 0.0138268 0.0229756
v 0.0303329 0.0142745 0.024982
v 0.0196228 0.0142745 0.0142812
v 0.0124853 0.0142745 0.0107118
v 0.0142678 0.0138268 0.0104863
v 0.00416124 0.0112989 0.000598671
v 0.00653802 0.0101071 0.000598671
v -0.00297471 0.0112989 0.000598671
v -0.00534768 0.0142745 0.00892329
v 0.00534768 0.0142745 0.00892329
v -0.0356806 0.0142745 0.0356904
v -0.0303329 0.0142745 0.024982
v -0.0365755 0.0138268 0.0347961
v -0.0356806 0.0142745 0.0535226
v -0.0368689 0.0136788 0.0535226
v -0.0368689 0.0136788 0.0356904
v -0.0374705 0.0124891 0.0356904
v -0.0368689 0.0130848 0.0345031
v -0.0315213 0.0130848 0.0237947
v -0.0312205 0.0138268 0.0240953
v -0.0205178 0.0138268 0.013387
v -0.0208112 0.0130848 0.0130864
v -0.0219996 0.0118952 0.01368
v -0.00951459 0.0053519 0.000598671
v -0.00858697 0.00720384 0.000598671
v -0.00535708 0.0104004 0.000598671
v -0.00680252 0.00898855 0.000598671
v -0.00508699 0.0106368 0.000598671
v -0.00495101 0.010704 0.000598671
v -0.0133802 0.0138268 0.00981753
v -0.0309271 0.0118952 0.0226074
v -0.0374705 -0.00892102 0.0356904
v -0.0374705 0.0124891 0.0535226
v -0.037023 0.0133809 0.0544168
v -0.0362748 0.0136788 0.0547174
v -0.0196228 0.0142745 0.0678004
v -0.020217 0.0136788 0.0689877
v -0.0236354 0.0115973 0.0704756
v -0.0234154 0.0102596 0.0731508
v -0.0287704 0.0102596 0.0678004
v -0.0298854 0.009812 0.0669061
v -0.0310004 0.0089202 0.0660119
v -0.031668 0.00802841 0.0651252
v -0.0309271 0.00713661 0.0666131
v -0.0338833 -0.00351966 0.0606991
v -0.0309271 -0.00535363 0.0666131
v -0.0219996 -0.00535363 0.0755329
v -0.0258655 -0.00802917 0.0700322
v -0.0303329 -0.0066914 0.0662373
v -0.0312205 -0.00624547 0.0655685
v -0.0365755 -0.00981368 0.0548602
v -0.0368689 -0.00892102 0.0547174
v -0.0374705 -0.00892102 0.0535226
v -0.0368689 -0.0101104 0.0541238
v -0.0258655 -0.00981368 0.0664628
v -0.0187352 -0.00981368 0.0736017
v -0.0240829 -0.00802917 0.0718132
v -0.0205178 -0.00624547 0.0762769
v -0.0160577 -0.00951612 0.0755329
v -0.0178403 -0.0102596 0.0733762
v -0.0249779 -0.0102596 0.0662373
v -0.0160577 -0.0107055 0.0731508
v -0.0107027 -0.0107055 0.0749393
v -0.0107027 -0.00951612 0.0773139
v -0.00356512 -0.00951612 0.0791024
v -0.00356512 -0.0107055 0.0767202
v 0 -0.0118025 0.0709565
v -0.00713025 -0.0118025 0.0691756
v -0.00843599 -0.0118025 0.068627
v -0.020107 -0.0118025 0.0592187
v -0.0208846 -0.0118025 0.0578059
v -0.0227845 -0.0118025 0.0521474
v 0.00121038 -0.0118025 0.0707987
v 0.00356512 -0.0107055 0.0767202
v 0.00446007 -0.0102596 0.0776145
v 0.0115977 -0.0102596 0.075826
v 0.0107027 -0.00951612 0.0773139
v 0.0133802 -0.0066914 0.0793955
v 0.0160577 -0.00773162 0.0773139
v 0.0136736 -0.00594792 0.079696
v 0.0208112 -0.00594792 0.0761266
v 0.0219996 -0.00475852 0.0755329
v 0.0309271 -0.00475852 0.0666131
v 0.0309271 0.00773056 0.0666131
v 0.0374705 0.0124891 0.0535226
v 0.0312205 0.009812 0.0651252
v 0.0291372 0.0095159 0.068394
v 0.0365755 0.0133809 0.0544168
v 0.0368689 0.0136788 0.0529289
v 0.0356806 0.0142745 0.0535226
v 0.0356806 0.0142745 0.0356904
v 0.0368689 0.0136788 0.0350967
v 0.0374705 0.0124891 0.0356904
v 0.0315213 0.0136788 0.0243884
v 0.0312205 0.0133809 0.0236444
v -0.00356512 0.0142745 0.0749393
v 0.0142678 0.0142745 0.0713698
v 0.0196228 0.0142745 0.0678004
v 0.0217062 0.012787 0.0698819
v 0.0240829 0.0115973 0.0704756
v 0.0169453 0.0133809 0.0722641
v 0.0107027 0.0142745 0.0731508
v 0.0133802 0.0133809 0.074045
v 0.0112969 0.0130848 0.0755329
v 0.00356512 0.0142745 0.0749393
v -0.00297094 0.0130848 0.0773139
v 0.00415931 0.0130848 0.0773139
v 0.00773177 0.0112995 0.0791024
v 0.0133802 0.009812 0.0793955
v 0.0184345 0.0095159 0.0773139
v 0.0205178 0.009812 0.075826
v 0.0237895 0.0095159 0.0737445
v 0.0219996 0.00773056 0.0755329
v 0.0160577 0.0089202 0.0785087
v 0.0124853 0.00713661 0.0802897
v 0.0124853 -0.00535363 0.0802897
v 0.00534768 -0.00535363 0.0820782
v 0.00534768 -0.00351966 0.0820782
v -0.00534768 -0.00535363 0.0820782
v 0.00534768 -0.00773162 0.0808833
v 0.00356512 -0.00951612 0.0791024
v -0.00534768 -0.00773162 0.0808833
v -0.0133802 -0.00624547 0.0798463
v -0.00624263 -0.00624547 0.0816273
v -0.0124853 -0.00535363 0.0802897
v -0.0124853 0.00713661 0.0802897
v -0.0160577 0.0089202 0.0785087
v -0.0219996 0.00713661 0.0755329
v -0.0184345 0.0089202 0.0773139
v -0.0173928 0.009812 0.0776145
v -0.0166519 0.0101098 0.0779076
v -0.0127127 0.0089202 0.0798463
v -0.00534768 0.00713661 0.0820782
v -0.00557509 0.0089202 0.0816273
v -0.00415931 0.0101098 0.081477
v -0.00356512 0.0089202 0.0820782
v 0.00356512 0.0089202 0.0820782
v 0.00534768 0.00713661 0.0820782
v 0.00624263 0.009812 0.0811839
v 0.00297094 0.0101098 0.081477
v -0.0112969 0.0101098 0.079696
v -0.0129327 0.009812 0.0793955
v -0.0112969 0.0136788 0.0743456
v -0.0164979 0.0133809 0.0722641
v -0.0180604 0.0102596 0.0767202
v -0.0219996 0.0101098 0.0743456
v -0.0227478 0.009812 0.074045
v -0.0237895 0.0089202 0.0737445
v -0.0291372 0.0089202 0.068394
v -0.0162778 0.0138268 0.0713698
v -0.0142678 0.0142745 0.0713698
v -0.014862 0.0136788 0.0725571
v -0.0107027 0.0142745 0.0731508
v -0.00415931 0.0136788 0.0761266
v -0.0160577 -0.00773162 0.0773139
v -0.0124853 0.0142745 0.0107118
v -0.0196228 0.0142745 0.0142812
f 2 3 1
f 4 3 2
f 5 3 4
f 5 6 3
f 5 4 6
f 7 6 4
f 7 8 6
f 7 4 8
f 8 4 2
f 8 2 9
f 8 9 6
f 6 9 10
f 11 6 10
f 12 6 11
f 12 3 6
f 12 13 3
f 12 11 13
f 11 14 13
f 11 15 14
f 11 10 15
f 15 10 16
f 17 15 16
f 18 15 17
f 18 19 15
f 18 20 19
f 18 21 20
f 18 17 21
f 17 16 21
f 16 22 21
f 16 10 22
f 23 22 10
f 23 24 22
f 23 10 24
f 25 24 10
f 25 26 24
f 25 10 26
f 27 26 10
f 28 26 27
f 28 29 26
f 28 30 29
f 31 30 28
f 31 32 30
f 33 32 31
f 33 34 32
f 33 9 34
f 33 35 9
f 33 28 35
f 33 31 28
f 35 28 27
f 35 27 10
f 35 10 9
f 9 1 34
f 9 2 1
f 36 34 1
f 37 34 36
f 37 38 34
f 39 38 37
f 39 40 38
f 39 41 40
f 39 42 41
f 39 43 42
f 39 37 43
f 37 44 43
f 45 44 37
f 45 46 44
f 45 47 46
f 48 47 45
f 48 49 47
f 48 50 49
f 48 45 50
f 45 36 50
f 45 37 36
f 36 1 50
f 50 1 3
f 51 50 3
f 52 50 51
f 53 50 52
f 54 50 53
f 54 55 50
f 54 56 55
f 54 53 56
f 57 56 53
f 57 58 56
f 57 52 58
f 57 53 52
f 58 52 59
f 58 59 60
f 58 60 61
f 58 61 56
f 56 61 62
f 63 56 62
f 63 64 56
f 63 65 64
f 63 62 65
f 65 62 66
f 67 65 66
f 67 68 65
f 67 66 68
f 68 66 69
f 64 68 69
f 64 65 68
f 55 64 69
f 55 56 64
f 55 69 43
f 55 43 49
f 55 49 50
f 49 43 47
f 46 47 43
f 46 43 44
f 43 69 42
f 42 69 70
f 41 42 70
f 71 41 70
f 71 40 41
f 71 38 40
f 71 32 38
f 71 30 32
f 71 72 30
f 71 70 72
f 72 70 73
f 74 72 73
f 74 75 72
f 74 76 75
f 74 73 76
f 77 76 73
f 78 76 77
f 78 79 76
f 78 80 79
f 78 81 80
f 78 82 81
f 83 82 78
f 83 84 82
f 83 78 84
f 78 77 84
f 85 84 77
f 85 73 84
f 85 77 73
f 84 73 86
f 84 86 87
f 88 84 87
f 88 82 84
f 88 87 82
f 82 87 80
f 81 82 80
f 87 89 80
f 90 89 87
f 91 89 90
f 91 92 89
f 91 93 92
f 91 94 93
f 91 95 94
f 96 95 91
f 96 97 95
f 96 91 97
f 91 98 97
f 91 90 98
f 98 90 99
f 98 99 97
f 100 97 99
f 100 101 97
f 100 102 101
f 103 102 100
f 103 104 102
f 105 104 103
f 105 99 104
f 105 103 99
f 103 100 99
f 106 104 99
f 106 107 104
f 106 99 107
f 107 99 108
f 107 108 86
f 107 86 104
f 104 86 102
f 102 86 66
f 102 66 62
f 109 102 62
f 109 101 102
f 109 97 101
f 109 62 97
f 110 97 62
f 95 97 110
f 95 110 111
f 112 95 111
f 112 94 95
f 112 93 94
f 112 92 93
f 113 92 112
f 113 114 92
f 113 115 114
f 113 116 115
f 113 117 116
f 113 118 117
f 113 112 118
f 112 119 118
f 112 120 119
f 121 120 112
f 121 122 120
f 121 112 122
f 112 111 122
f 122 111 123
f 124 122 123
f 124 125 122
f 124 126 125
f 124 127 126
f 128 127 124
f 128 129 127
f 128 124 129
f 124 130 129
f 124 131 130
f 124 123 131
f 131 123 111
f 131 111 110
f 132 131 110
f 129 131 132
f 129 130 131
f 126 129 132
f 126 127 129
f 133 126 132
f 134 126 133
f 134 135 126
f 134 136 135
f 134 137 136
f 134 138 137
f 134 139 138
f 134 133 139
f 133 132 139
f 139 132 59
f 139 59 140
f 138 139 140
f 137 138 140
f 141 137 140
f 141 142 137
f 141 143 142
f 141 144 143
f 141 145 144
f 141 146 145
f 141 140 146
f 147 146 140
f 147 51 146
f 147 140 51
f 51 140 59
f 148 51 59
f 148 149 51
f 148 59 149
f 149 59 150
f 149 150 51
f 150 52 51
f 150 59 52
f 146 51 145
f 145 51 3
f 13 145 3
f 151 145 13
f 151 152 145
f 151 13 152
f 13 14 152
f 14 153 152
f 14 154 153
f 15 154 14
f 15 19 154
f 19 155 154
f 19 156 155
f 157 156 19
f 157 20 156
f 157 19 20
f 20 158 156
f 159 158 20
f 159 160 158
f 159 21 160
f 159 20 21
f 161 160 21
f 161 162 160
f 161 26 162
f 161 24 26
f 161 22 24
f 161 21 22
f 162 26 163
f 164 162 163
f 164 165 162
f 164 166 165
f 164 163 166
f 167 166 163
f 167 168 166
f 167 169 168
f 167 170 169
f 167 163 170
f 171 170 163
f 171 172 170
f 171 75 172
f 171 29 75
f 171 163 29
f 163 26 29
f 75 29 30
f 72 75 30
f 173 172 75
f 173 79 172
f 173 75 79
f 79 75 76
f 172 79 80
f 172 80 169
f 172 169 170
f 169 80 89
f 174 169 89
f 168 169 174
f 175 168 174
f 176 168 175
f 177 168 176
f 177 178 168
f 177 179 178
f 177 176 179
f 179 176 175
f 180 179 175
f 180 181 179
f 180 182 181
f 180 183 182
f 180 175 183
f 183 175 174
f 183 174 184
f 183 184 185
f 182 183 185
f 182 185 186
f 182 186 187
f 188 182 187
f 179 182 188
f 181 182 179
f 179 188 189
f 179 189 178
f 190 178 189
f 190 165 178
f 190 162 165
f 190 191 162
f 190 188 191
f 190 189 188
f 188 192 191
f 188 187 192
f 192 187 193
f 194 192 193
f 194 158 192
f 194 195 158
f 194 193 195
f 195 193 196
f 195 196 197
f 195 197 198
f 195 198 158
f 158 198 156
f 198 155 156
f 199 155 198
f 199 153 155
f 199 143 153
f 199 198 143
f 200 143 198
f 200 142 143
f 200 201 142
f 202 201 200
f 202 197 201
f 202 200 197
f 200 198 197
f 203 201 197
f 204 201 203
f 205 201 204
f 205 136 201
f 205 206 136
f 205 207 206
f 205 208 207
f 205 209 208
f 205 210 209
f 205 204 210
f 210 204 211
f 212 210 211
f 212 213 210
f 214 213 212
f 214 215 213
f 214 211 215
f 214 212 211
f 215 211 216
f 215 216 187
f 217 215 187
f 217 218 215
f 217 186 218
f 217 187 186
f 218 186 185
f 218 185 213
f 215 218 213
f 184 213 185
f 219 213 184
f 219 210 213
f 220 210 219
f 220 209 210
f 220 219 209
f 209 219 221
f 209 221 222
f 209 222 223
f 224 209 223
f 224 208 209
f 224 225 208
f 117 225 224
f 117 226 225
f 117 118 226
f 118 227 226
f 118 119 227
f 227 119 120
f 227 120 122
f 227 122 226
f 226 122 206
f 207 226 206
f 225 226 207
f 208 225 207
f 122 125 206
f 136 206 125
f 135 136 125
f 135 125 126
f 117 224 223
f 117 223 222
f 117 222 116
f 115 116 222
f 228 115 222
f 228 114 115
f 228 229 114
f 228 230 229
f 228 222 230
f 230 222 221
f 230 221 229
f 229 221 231
f 229 231 114
f 231 174 114
f 231 221 174
f 232 174 221
f 232 184 174
f 232 221 184
f 219 184 221
f 114 174 89
f 92 114 89
f 193 187 216
f 193 216 196
f 216 211 196
f 196 211 197
f 203 197 211
f 204 203 211
f 233 201 136
f 233 137 201
f 233 136 137
f 137 142 201
f 144 153 143
f 144 152 153
f 144 145 152
f 153 154 155
f 158 160 192
f 191 192 160
f 191 160 162
f 178 165 166
f 178 166 168
f 60 59 132
f 60 132 110
f 60 110 61
f 61 110 62
f 86 70 66
f 73 70 86
f 69 66 70
f 234 86 108
f 234 87 86
f 234 235 87
f 234 108 235
f 235 108 99
f 235 99 90
f 235 90 87
f 38 32 34
