o piece_013
v -0.00494609 -0.0118025 0.0253915
v -0.00535476 -0.0214116 0.028549
v -0.00762145 -0.0118025 0.0262833
v 2.72155e-05 -0.0118025 0.0253915
v -0.0047585 -0.0226005 0.0291457
v -0.0062458 -0.0223038 0.0294429
v -0.00773311 -0.022006 0.0297402
v 2.72155e-05 -0.0214116 0.028549
v -0.0111901 -0.0118025 0.0280667
v 2.72155e-05 -0.0118025 0.0406437
v -0.00535476 -0.0231949 0.0303346
v 2.72155e-05 -0.0226005 0.0291457
v 2.72155e-05 -0.0231681 0.0302796
v -0.00684206 -0.0228982 0.0306319
v -0.00981444 -0.0223038 0.0312264
v -0.0113017 -0.022006 0.0315236
v -0.0147565 -0.0118025 0.0298502
v -0.00590189 -0.0118025 0.0478833
v 2.72155e-05 -0.0130694 0.0398708
v -0.00892339 -0.0231949 0.0321181
v 2.72155e-05 -0.0231949 0.0303346
v -0.0104107 -0.0228982 0.0324154
v -0.0166525 -0.022006 0.0368741
v -0.0183251 -0.0118025 0.0334194
v -0.00594879 -0.0118962 0.0478833
v -0.022787 -0.0118025 0.0478833
v 2.72155e-05 -0.0184372 0.0362818
v -0.0142741 -0.0231949 0.0374686
v 2.72155e-05 -0.0231949 0.0321181
v -0.0157592 -0.0228982 0.0377659
v -0.0160584 -0.0231949 0.0392543
v -0.0169495 -0.0223038 0.0383626
v -0.0184368 -0.022006 0.0422268
v -0.0178427 -0.0214116 0.0392543
v -0.0201094 -0.0118025 0.0369864
v -0.0148681 -0.0226005 0.0478833
v 2.72155e-05 -0.0226005 0.0333071
v -0.022787 -0.0118025 0.0450165
v -0.0196271 -0.0214116 0.0478833
v -0.0160584 -0.0231949 0.0478833
v -0.0178427 -0.0231949 0.044607
v -0.0172465 -0.0226005 0.0398488
v -0.0187338 -0.0223038 0.0437153
v -0.0196271 -0.0214116 0.044607
v -0.0210027 -0.0118025 0.0396617
v -0.0150624 -0.0226986 0.0478833
v -0.0190308 -0.0226005 0.0478833
v -0.0178427 -0.0231949 0.0478833
v -0.0181353 -0.0230488 0.0478833
v -0.0190308 -0.0226005 0.0452015
f 1 2 3
f 1 3 9
f 1 9 17
f 1 17 24
f 1 24 35
f 1 35 45
f 1 45 38
f 1 38 26
f 1 26 18
f 1 18 10
f 1 10 4
f 1 4 8
f 1 8 2
f 2 5 6
f 2 6 7
f 2 7 3
f 2 8 12
f 2 12 5
f 3 7 16
f 3 16 9
f 4 10 19
f 4 19 27
f 4 27 37
f 4 37 29
f 4 29 21
f 4 21 13
f 4 13 12
f 4 12 8
f 5 11 14
f 5 14 6
f 5 12 13
f 5 13 11
f 6 14 22
f 6 22 15
f 6 15 16
f 6 16 7
f 9 16 17
f 10 18 19
f 11 20 22
f 11 22 14
f 11 13 21
f 11 21 29
f 11 29 40
f 11 40 48
f 11 48 41
f 11 41 31
f 11 31 28
f 11 28 20
f 15 22 16
f 16 22 23
f 16 23 17
f 17 23 24
f 18 25 19
f 18 26 39
f 18 39 47
f 18 47 49
f 18 49 48
f 18 48 40
f 18 40 46
f 18 46 36
f 18 36 25
f 19 25 27
f 20 28 22
f 22 28 30
f 22 30 23
f 23 31 32
f 23 32 43
f 23 43 33
f 23 33 44
f 23 44 34
f 23 34 35
f 23 35 24
f 23 30 31
f 25 36 37
f 25 37 27
f 26 38 44
f 26 44 39
f 28 31 30
f 29 37 40
f 31 41 50
f 31 50 42
f 31 42 32
f 32 42 50
f 32 50 43
f 33 43 44
f 34 44 45
f 34 45 35
f 36 46 37
f 37 46 40
f 38 45 44
f 39 44 50
f 39 50 47
f 41 48 49
f 41 49 50
f 43 50 44
f 47 50 49
