o piece_004
v 0.0315222 0.0499591 -0.0666152
v 0.0321166 0.049827 -0.0666152
v 0.0303293 0.0499591 -0.0695882
v 0.0243853 0.0499591 -0.0666152
v 0.0333055 0.0493649 -0.0666152
v 0.0315222 0.0493649 -0.0701831
v 0.0303293 0.0495142 -0.0715954
v 0.0267629 0.0499591 -0.0731576
v 0.0223776 0.0495142 -0.0666152
v -0.0088555 0.0499591 -0.0785087
v -0.0088555 0.0495912 -0.0770934
v -0.0088555 0.0493036 -0.076662
v -0.0088555 0.0488776 -0.0760232
v 0.0336047 0.0481749 -0.0666152
v 0.0309278 0.0481749 -0.0719678
v 0.031223 0.0490678 -0.0709263
v 0.0285461 0.0495142 -0.0733801
v 0.0249797 0.0495142 -0.0769481
v 0.0249797 0.0499591 -0.0749408
v 0.022228 0.0492171 -0.0666152
v -0.0088555 0.0482378 -0.0758627
v -0.0088555 0.0499591 -0.0802935
v 0.0336047 0.0350934 -0.0666152
v 0.0309278 0.0356876 -0.0719678
v 0.0220035 0.0481749 -0.0808884
v 0.0214091 0.0495142 -0.080516
v 0.0196259 0.0499591 -0.0802935
v 0.0220035 0.0481749 -0.0666152
v -0.0088555 0.0357489 -0.0758627
v -0.0088555 0.0493649 -0.0814833
v 0.0334052 0.0346957 -0.0666152
v 0.0334551 0.0347947 -0.0669119
v 0.0316677 0.0347947 -0.0704813
v 0.0305537 0.0343483 -0.0713729
v 0.0287705 0.0343483 -0.0731576
v 0.0269873 0.0343483 -0.0749408
v 0.0216336 0.0343483 -0.0802935
v 0.0220035 0.0356876 -0.0808884
v 0.0196259 0.0481749 -0.0820782
v 0.0205154 0.0490678 -0.0816316
v 0.0196259 0.0493649 -0.0814833
v 0.0220035 0.0356876 -0.0666152
v -0.0088555 0.0345699 -0.0767452
v 0.0223776 0.0343483 -0.0666152
v 0.0221822 0.034735 -0.0666152
v -0.0088555 0.0482174 -0.082057
v 0.0329812 0.0344473 -0.0666152
v 0.032337 0.0343483 -0.067805
v 0.0321915 0.0340512 -0.0666152
v 0.0303293 0.0339019 -0.0695882
v 0.0267629 0.0339019 -0.0731576
v 0.0249797 0.0339019 -0.0749408
v 0.0196259 0.0339019 -0.0802935
v 0.0202203 0.0344976 -0.0814833
v 0.0209643 0.0347947 -0.0811851
v 0.0196259 0.0356876 -0.0820782
v -0.0088555 0.0481749 -0.0820782
v -0.0088555 0.0339019 -0.0785087
v 0.0243853 0.0339019 -0.0666152
v 0.0315222 0.0339019 -0.0666152
v -0.0088555 0.0339019 -0.0802935
v -0.0088555 0.0344976 -0.0814833
v -0.0088555 0.0355634 -0.0820161
v -0.0088555 0.0356876 -0.0820782
f 1 2 3
f 1 3 8
f 1 8 19
f 1 19 27
f 1 27 22
f 1 22 10
f 1 10 4
f 1 4 9
f 1 9 20
f 1 20 28
f 1 28 42
f 1 42 45
f 1 45 44
f 1 44 59
f 1 59 60
f 1 60 49
f 1 49 47
f 1 47 31
f 1 31 23
f 1 23 14
f 1 14 5
f 1 5 2
f 2 5 3
f 3 5 6
f 3 6 7
f 3 7 17
f 3 17 8
f 4 10 11
f 4 11 12
f 4 12 13
f 4 13 9
f 5 14 6
f 6 15 16
f 6 16 7
f 6 14 15
f 7 16 15
f 7 15 17
f 8 17 18
f 8 18 19
f 9 13 21
f 9 21 20
f 10 22 30
f 10 30 46
f 10 46 57
f 10 57 64
f 10 64 63
f 10 63 62
f 10 62 61
f 10 61 58
f 10 58 43
f 10 43 29
f 10 29 21
f 10 21 13
f 10 13 12
f 10 12 11
f 14 23 24
f 14 24 15
f 15 18 17
f 15 24 38
f 15 38 25
f 15 25 18
f 18 25 26
f 18 26 27
f 18 27 19
f 20 21 28
f 21 29 42
f 21 42 28
f 22 27 41
f 22 41 30
f 23 31 32
f 23 32 24
f 24 32 33
f 24 33 34
f 24 34 35
f 24 35 36
f 24 36 37
f 24 37 38
f 25 38 56
f 25 56 39
f 25 39 40
f 25 40 26
f 26 40 41
f 26 41 27
f 29 43 44
f 29 44 45
f 29 45 42
f 30 41 46
f 31 47 48
f 31 48 32
f 32 48 34
f 32 34 33
f 34 48 49
f 34 49 50
f 34 50 51
f 34 51 35
f 35 51 52
f 35 52 36
f 36 52 53
f 36 53 37
f 37 53 54
f 37 54 55
f 37 55 38
f 38 55 54
f 38 54 56
f 39 41 40
f 39 56 64
f 39 64 57
f 39 57 46
f 39 46 41
f 43 58 59
f 43 59 44
f 47 49 48
f 49 60 50
f 50 60 59
f 50 59 58
f 50 58 61
f 50 61 53
f 50 53 52
f 50 52 51
f 53 61 62
f 53 62 54
f 54 62 63
f 54 63 56
f 56 63 64
