o piece_005
v -0.018352 0.0481749 -0.0279103
v -0.0185822 0.0491448 -0.0279103
v -0.018352 0.0356876 -0.0279103
v -0.0285485 0.0481749 -0.0499317
v -0.0187675 0.0495142 -0.0279103
v -0.0285616 0.0482048 -0.0499317
v -0.0186065 0.0346674 -0.0279103
v -0.0285485 0.0356876 -0.0499317
v -0.0196284 0.049706 -0.0279103
v -0.0291437 0.0493649 -0.0499317
v -0.0303322 0.0499591 -0.0499317
v -0.0187675 0.0343483 -0.0279103
v -0.0291325 0.0345165 -0.0499317
v -0.0207739 0.0499591 -0.0279103
v -0.035685 0.0499591 -0.0499317
v -0.0207739 0.0339019 -0.0279103
v -0.0303322 0.0339019 -0.0499317
v -0.0291437 0.0344976 -0.0499317
v -0.0285485 0.0499591 -0.0279103
v -0.0368753 0.0493649 -0.0499317
v -0.035685 0.0499591 -0.0410378
v -0.0285485 0.0339019 -0.0279103
v -0.035685 0.0339019 -0.0499317
v -0.0298362 0.049673 -0.0279103
v -0.0321158 0.0499591 -0.032118
v -0.0374705 0.0481749 -0.0499317
v -0.0368753 0.0493649 -0.0410378
v -0.0339013 0.0499591 -0.0356876
v -0.0298568 0.0342304 -0.0279103
v -0.0321158 0.0339019 -0.032118
v -0.0368753 0.0344976 -0.0499317
v -0.035685 0.0339019 -0.0410378
v -0.0302629 0.0494608 -0.0279103
v -0.0323404 0.0495142 -0.0303353
v -0.0374705 0.0481749 -0.0410378
v -0.0374705 0.0356876 -0.0499317
v -0.0370232 0.0490678 -0.0401454
v -0.0352395 0.0490678 -0.0347952
v -0.0350898 0.0493649 -0.0356876
v -0.034124 0.0495142 -0.0339028
v -0.030218 0.0343781 -0.0279103
v -0.0321158 0.0343483 -0.0301111
v -0.0333061 0.0344976 -0.031523
v -0.0339013 0.0339019 -0.0356876
v -0.0368753 0.0344976 -0.0404428
v -0.0309049 0.0481749 -0.0279103
v -0.033454 0.0490678 -0.0312256
v -0.032711 0.0481749 -0.0297404
v -0.035685 0.0481749 -0.0356876
v -0.0374705 0.0356876 -0.0410378
v -0.0344965 0.0481749 -0.0333079
v -0.035685 0.0356876 -0.0356876
v -0.0344965 0.0356876 -0.0333079
v -0.0309049 0.0356876 -0.0279103
v -0.032711 0.0356876 -0.0297404
v -0.0330086 0.0347947 -0.0307794
v -0.0350898 0.0344976 -0.0350927
v -0.0333061 0.0481749 -0.0309281
v -0.0333061 0.0356876 -0.0309281
f 1 2 5
f 1 5 9
f 1 9 14
f 1 14 19
f 1 19 24
f 1 24 33
f 1 33 46
f 1 46 54
f 1 54 41
f 1 41 29
f 1 29 22
f 1 22 16
f 1 16 12
f 1 12 7
f 1 7 3
f 1 3 8
f 1 8 4
f 1 4 2
f 2 4 6
f 2 6 5
f 3 7 8
f 4 8 13
f 4 13 18
f 4 18 17
f 4 17 23
f 4 23 31
f 4 31 36
f 4 36 26
f 4 26 20
f 4 20 15
f 4 15 11
f 4 11 10
f 4 10 6
f 5 6 10
f 5 10 11
f 5 11 9
f 7 12 13
f 7 13 8
f 9 11 14
f 11 15 21
f 11 21 28
f 11 28 25
f 11 25 19
f 11 19 14
f 12 16 17
f 12 17 18
f 12 18 13
f 15 20 27
f 15 27 21
f 16 22 30
f 16 30 44
f 16 44 32
f 16 32 23
f 16 23 17
f 19 25 24
f 20 26 35
f 20 35 27
f 21 27 28
f 22 29 30
f 23 32 45
f 23 45 31
f 24 25 34
f 24 34 33
f 25 28 34
f 26 36 50
f 26 50 35
f 27 35 37
f 27 37 38
f 27 38 39
f 27 39 28
f 28 39 40
f 28 40 34
f 29 41 42
f 29 42 30
f 30 43 44
f 30 42 43
f 31 45 50
f 31 50 36
f 32 44 45
f 33 34 47
f 33 47 48
f 33 48 46
f 34 40 38
f 34 38 47
f 35 49 38
f 35 38 37
f 35 50 52
f 35 52 49
f 38 51 58
f 38 58 47
f 38 40 39
f 38 49 52
f 38 52 53
f 38 53 51
f 41 54 55
f 41 55 56
f 41 56 42
f 42 56 43
f 43 56 53
f 43 53 57
f 43 57 44
f 44 57 45
f 45 57 52
f 45 52 50
f 46 48 55
f 46 55 54
f 47 58 48
f 48 58 59
f 48 59 55
f 51 53 59
f 51 59 58
f 52 57 53
f 53 56 59
f 55 59 56
