o piece_001
v 2.72155e-05 -0.0118025 0.0709543
v -1.81624e-06 -0.0118025 0.0709633
v -1.81624e-06 -0.0214116 0.0678027
v 2.72155e-05 -0.021425 0.0677892
v 2.72155e-05 -0.0118025 0.0539403
v -0.00713908 -0.0118025 0.0691786
v -0.00803012 -0.0223038 0.0655729
v -0.000892857 -0.0223038 0.0673554
v -1.81624e-06 -0.0226005 0.0672085
v 2.72155e-05 -0.0225871 0.0672085
v 2.72155e-05 -0.0130851 0.0547197
v -0.00594879 -0.0118962 0.0478833
v -0.00590189 -0.0118025 0.0478833
v -0.00843879 -0.0118025 0.0686296
v -0.00892339 -0.0227499 0.0644568
v -0.00713908 -0.0226005 0.0654238
v -0.00892339 -0.0118025 0.0683878
v -0.0165408 -0.0118025 0.0645788
v -0.0133808 -0.0223038 0.0620033
v -1.81624e-06 -0.0231949 0.0660179
v 2.72155e-05 -0.0231815 0.0660451
v 2.72155e-05 -0.0226049 0.0671995
v 2.72155e-05 -0.0190316 0.0594753
v -0.0148681 -0.0226005 0.0478833
v -0.022787 -0.0118025 0.0478833
v -0.0142741 -0.0227499 0.0608873
v -0.0124898 -0.0231949 0.0606659
v -0.00713908 -0.0231949 0.0642332
v -0.0201094 -0.0118025 0.0592268
v -0.0148681 -0.0214116 0.0612601
v 2.72155e-05 -0.0231849 0.0660179
v 2.72155e-05 -0.0231949 0.0642332
v 2.72155e-05 -0.0226005 0.0630448
v -0.0150624 -0.0226986 0.0478833
v 2.72155e-05 -0.0231681 0.064179
v -0.022787 -0.0118025 0.0521555
v -0.0196271 -0.0214116 0.0478833
v -0.0151651 -0.0223038 0.0602186
v -0.0154622 -0.0226005 0.0594753
v -0.0142741 -0.0231949 0.0588834
v -0.020891 -0.0118025 0.0578148
v -0.0160584 -0.0231949 0.0478833
v -0.0210027 -0.0118025 0.0575075
v -0.0196271 -0.0214116 0.0499618
v -0.0190308 -0.0226005 0.050556
v -0.0172465 -0.0226005 0.0559103
v -0.0190308 -0.0226005 0.0478833
v -0.0160584 -0.0231949 0.0553139
v -0.0178427 -0.0231949 0.0478833
v -0.0181353 -0.0230488 0.0478833
v -0.0178427 -0.0231949 0.0499618
f 1 2 3
f 1 3 4
f 1 4 10
f 1 10 22
f 1 22 21
f 1 21 31
f 1 31 32
f 1 32 35
f 1 35 33
f 1 33 23
f 1 23 11
f 1 11 5
f 1 5 13
f 1 13 25
f 1 25 36
f 1 36 43
f 1 43 41
f 1 41 29
f 1 29 18
f 1 18 17
f 1 17 14
f 1 14 6
f 1 6 2
f 2 6 7
f 2 7 8
f 2 8 3
f 3 8 9
f 3 9 10
f 3 10 4
f 5 11 12
f 5 12 13
f 6 14 7
f 7 15 16
f 7 16 9
f 7 9 8
f 7 14 17
f 7 17 18
f 7 18 19
f 7 19 26
f 7 26 15
f 9 16 28
f 9 28 20
f 9 20 21
f 9 21 22
f 9 22 10
f 11 23 12
f 12 24 34
f 12 34 42
f 12 42 49
f 12 49 50
f 12 50 47
f 12 47 37
f 12 37 25
f 12 25 13
f 12 23 24
f 15 26 27
f 15 27 28
f 15 28 16
f 18 29 30
f 18 30 19
f 19 30 26
f 20 31 21
f 20 28 27
f 20 27 40
f 20 40 48
f 20 48 51
f 20 51 49
f 20 49 42
f 20 42 32
f 20 32 31
f 23 33 24
f 24 33 35
f 24 35 34
f 25 37 44
f 25 44 36
f 26 30 38
f 26 38 39
f 26 39 40
f 26 40 27
f 29 39 38
f 29 38 30
f 29 41 39
f 32 42 34
f 32 34 35
f 36 44 45
f 36 45 46
f 36 46 43
f 37 47 45
f 37 45 44
f 39 41 46
f 39 46 40
f 40 46 48
f 41 43 46
f 45 47 50
f 45 50 51
f 45 51 46
f 46 51 48
f 49 51 50
