o piece_014
v 0.022787 -0.0118025 0.0517471
v 0.0196257 -0.0214116 0.0499624
v 0.022787 -0.0118025 0.0481375
v 0.0226244 -0.0118025 0.05296
v 0.0190308 -0.022006 0.0511507
v 0.0187345 -0.0227499 0.0508536
v 0.0190308 -0.0226005 0.0499624
v 0.0196257 -0.0214116 0.0481375
v 0.00590208 -0.0118025 0.0481375
v 0.0208399 -0.0118025 0.058314
v 0.0172463 -0.022006 0.0565048
v 0.0178412 -0.0231949 0.0499624
v 0.0178412 -0.0231949 0.0481375
v 0.0190063 -0.0226138 0.0481375
v 0.01695 -0.0227499 0.0562077
v 0.0190308 -0.0226005 0.0481375
v 2.72155e-05 -0.0118025 0.0539383
v 0.00591767 -0.0118348 0.0481375
v 0.0172708 -0.0118025 0.0636636
v 0.0154618 -0.022006 0.0600697
v 0.0160567 -0.0231949 0.0553142
v 0.0160567 -0.0231949 0.0481375
v 0.0151655 -0.0227499 0.0597726
v 0.0142744 -0.0231949 0.0588836
v 2.72155e-05 -0.0118025 0.0709565
v 0.00594886 -0.0118962 0.0481375
v 2.72155e-05 -0.0130851 0.0547201
v 0.0154886 -0.0118025 0.0654483
v 0.0136795 -0.022006 0.0618544
v 0.0148692 -0.0226005 0.0481375
v 2.72155e-05 -0.0231949 0.0642332
v 0.013381 -0.0227499 0.0615573
v 0.0124899 -0.0231949 0.0606661
v 2.72155e-05 -0.021425 0.0677892
v 0.00121466 -0.0118025 0.0708002
v 2.72155e-05 -0.0190316 0.0594778
v 0.00835272 -0.0118025 0.0690177
v 0.00832822 -0.022006 0.0654238
v 2.72155e-05 -0.0231681 0.0641796
v 2.72155e-05 -0.0226005 0.0630449
v 0.00713854 -0.0231949 0.0642332
v 2.72155e-05 -0.0231849 0.0660179
v 0.00802968 -0.0227499 0.0651267
v 2.72155e-05 -0.0225871 0.0672085
v 0.000893853 -0.0227499 0.0669114
v 0.00713854 -0.0214116 0.0660179
v 2.72155e-05 -0.0231815 0.0660447
v 2.72155e-05 -0.0226049 0.0671995
f 1 2 8
f 1 8 3
f 1 3 9
f 1 9 17
f 1 17 25
f 1 25 35
f 1 35 37
f 1 37 28
f 1 28 19
f 1 19 10
f 1 10 4
f 1 4 2
f 2 5 6
f 2 6 7
f 2 7 16
f 2 16 8
f 2 4 5
f 3 8 16
f 3 16 14
f 3 14 13
f 3 13 22
f 3 22 30
f 3 30 26
f 3 26 18
f 3 18 9
f 4 10 11
f 4 11 5
f 5 11 15
f 5 15 6
f 6 12 13
f 6 13 14
f 6 14 7
f 6 15 12
f 7 14 16
f 9 18 17
f 10 19 20
f 10 20 11
f 11 20 23
f 11 23 15
f 12 15 21
f 12 21 24
f 12 24 33
f 12 33 41
f 12 41 31
f 12 31 22
f 12 22 13
f 15 23 24
f 15 24 21
f 17 18 26
f 17 26 27
f 17 27 36
f 17 36 40
f 17 40 39
f 17 39 31
f 17 31 42
f 17 42 47
f 17 47 48
f 17 48 44
f 17 44 34
f 17 34 25
f 19 28 29
f 19 29 20
f 20 29 23
f 22 31 30
f 23 29 32
f 23 32 24
f 24 32 33
f 25 34 35
f 26 30 27
f 27 30 36
f 28 37 38
f 28 38 29
f 29 38 43
f 29 43 32
f 30 31 39
f 30 39 40
f 30 40 36
f 31 41 42
f 32 43 33
f 33 43 41
f 34 37 35
f 34 44 45
f 34 45 46
f 34 46 37
f 37 46 38
f 38 46 45
f 38 45 43
f 41 43 45
f 41 45 47
f 41 47 42
f 44 48 45
f 45 48 47
