o piece_009
v -0.033898 -0.0392549 -0.0249803
v -0.0321155 -0.0410396 -0.0249803
v -0.0353872 -0.0389577 -0.0246825
v -0.0356806 -0.038066 -0.0243847
v 0.033898 -0.0392549 -0.0249803
v -0.0315213 -0.0422299 -0.0243847
v -0.0344922 -0.0416341 -0.0237891
v -0.0335973 -0.0407424 -0.0246825
v -0.0249779 -0.0446065 -0.0249803
v -0.026467 -0.0443092 -0.0246825
v -0.0362748 -0.0398507 -0.0237891
v -0.0365755 -0.0383632 -0.0240869
v -0.0365755 -0.0379173 -0.0240869
v -0.0356806 -0.0374715 -0.0231955
v 0.0356806 -0.038066 -0.0243847
v 0.0365755 -0.0383632 -0.0245327
v 0.035908 -0.0392549 -0.0245327
v 0.0321155 -0.0410396 -0.0249803
v -0.0309271 -0.0434175 -0.0237891
v -0.0243837 -0.0457967 -0.0243847
v -0.0333038 -0.0422299 -0.0225999
v -0.0344922 -0.0416341 -0.0113011
v -0.0321155 -0.0428243 -0.0231955
v -0.0142678 -0.0481759 -0.0249803
v -0.0362748 -0.0398507 -0.0113011
v -0.0374705 -0.0374715 -0.0107074
v -0.0368689 -0.0386604 -0.0225999
v -0.0368689 -0.038066 -0.0231955
v -0.0371697 -0.0368732 -0.0107074
v -0.0369643 -0.0368732 -0.0117987
v -0.0368689 -0.0368732 -0.0121906
v -0.0367369 -0.0368732 -0.0123981
v -0.0356806 -0.0368732 -0.013084
v 0.0356806 -0.0374715 -0.0231955
v 0.0368689 -0.038066 -0.0237891
v 0.037023 -0.0383632 -0.0240869
v 0.0362748 -0.0398507 -0.0231955
v 0.0344922 -0.0416341 -0.0231955
v 0.0341181 -0.0410396 -0.0245327
v 0.0327096 -0.0422299 -0.0243847
v 0.0249779 -0.0446065 -0.0249803
v -0.0273546 -0.0452022 -0.0237891
v -0.0249779 -0.0463912 -0.0231955
v -0.0190287 -0.0475814 -0.0243847
v -0.0333038 -0.0422299 -0.0101118
v -0.0321155 -0.0428243 -0.0107074
v -0.0136736 -0.0493649 -0.0243847
v 0.0142678 -0.0481759 -0.0249803
v -0.0368689 -0.0386604 -0.0101118
v -0.0369716 -0.0368732 -0.00971606
v -0.0371697 -0.0368732 -0.010108
v -0.0365755 -0.0383632 -0.00936832
v -0.0368689 -0.0374715 -0.00951817
v 0.033898 -0.0368732 -0.013084
v 0.0356806 -0.0368732 -0.0130821
v 0.0356952 -0.0368732 -0.0130725
v 0.0367222 -0.0368732 -0.0122655
v 0.0369423 -0.0368732 -0.0120043
v 0.0371697 -0.0368732 -0.0110052
v 0.0374705 -0.0374715 -0.0107074
v 0.0362748 -0.0398507 -0.0107074
v 0.0344922 -0.0416341 -0.0107074
v 0.0333038 -0.0422299 -0.0231955
v 0.0334505 -0.0419313 -0.0240869
v 0.0321155 -0.0428243 -0.0231955
v 0.0255721 -0.0457967 -0.0243847
v -0.0249779 -0.0463912 -0.0107074
v -0.0142678 -0.0499606 -0.0231955
v -0.0294379 -0.0437148 -0.00936832
v -0.0330031 -0.0419313 -0.00936832
v -0.034793 -0.0401479 -0.00936832
v -0.0261662 -0.0457967 -0.0101118
v 0.014862 -0.0493649 -0.0243847
v 0.020217 -0.0475814 -0.0243847
v -0.0365462 -0.0368732 -0.00946822
v -0.0356806 -0.0374715 -0.00892259
v 0.0368689 -0.0368732 -0.010108
v 0.0366342 -0.0368732 -0.00975641
v 0.0368689 -0.038066 -0.00951817
v 0.0365755 -0.0388091 -0.00981404
v 0.0356806 -0.0394778 -0.00936832
v 0.033898 -0.0412626 -0.00936832
v 0.0330031 -0.0423785 -0.00981404
v 0.0333038 -0.0422299 -0.0107074
v 0.0321155 -0.0428243 -0.0107074
v 0.0249779 -0.0463912 -0.0231955
v -0.0142678 -0.0499606 -0.0107074
v -0.0154635 -0.0493649 -0.0101118
v 0.0142678 -0.0499606 -0.0231955
v -0.0258655 -0.0454995 -0.00936832
v -0.0187352 -0.0454995 -0.00758348
v -0.0187352 -0.0401479 -0.00580057
v -0.0321155 -0.0410396 -0.00892259
v -0.0205178 -0.0472829 -0.00936832
v -0.0357539 -0.0368732 -0.00907244
v -0.0350864 -0.0368732 -0.00892259
v -0.0178403 -0.0392549 -0.00535485
v -0.0178403 -0.0368732 -0.00535485
v 0.0355632 -0.0368732 -0.0090417
v 0.0356806 -0.0374715 -0.00892259
v 0.0321155 -0.0410396 -0.00892259
v 0.0178403 -0.0446065 -0.00713776
v 0.0303329 -0.0430473 -0.00936832
v 0.0294379 -0.0441606 -0.00981404
v 0.0249779 -0.0463912 -0.0107074
v -0.0142678 -0.0493649 -0.00951817
v -0.0151628 -0.0490676 -0.00936832
v 0.0142678 -0.0499606 -0.0107074
v 0.0151628 -0.0495135 -0.00981404
v -0.0196228 -0.0463912 -0.008254
v -0.0178403 -0.0446065 -0.00713776
v -0.0178403 -0.0469857 -0.008327
v 0.0178403 -0.0469857 -0.008327
v 0.0178403 -0.0392549 -0.00535485
v 0.0178403 -0.0368732 -0.00535485
v 0.0267604 -0.0448307 -0.00936832
v 0.0258655 -0.0459453 -0.00981404
v 0.0205178 -0.0477301 -0.00981404
v 0.0142678 -0.0493649 -0.00951817
v 0.0142678 -0.0481759 -0.00892259
f 1 2 3
f 1 3 4
f 1 4 15
f 1 15 5
f 1 5 18
f 1 18 41
f 1 41 48
f 1 48 24
f 1 24 9
f 1 9 2
f 2 6 7
f 2 7 8
f 2 8 3
f 2 9 10
f 2 10 6
f 3 8 7
f 3 7 11
f 3 11 12
f 3 12 13
f 3 13 4
f 4 13 14
f 4 14 34
f 4 34 15
f 5 15 16
f 5 16 17
f 5 17 18
f 6 19 7
f 6 10 20
f 6 20 19
f 7 21 45
f 7 45 22
f 7 22 25
f 7 25 11
f 7 19 23
f 7 23 21
f 9 20 10
f 9 24 44
f 9 44 20
f 11 25 26
f 11 26 27
f 11 27 12
f 12 27 28
f 12 28 13
f 13 28 29
f 13 29 30
f 13 30 31
f 13 31 14
f 14 31 32
f 14 32 33
f 14 33 54
f 14 54 34
f 15 34 16
f 16 34 35
f 16 35 36
f 16 36 17
f 17 36 37
f 17 37 38
f 17 38 39
f 17 39 18
f 18 39 40
f 18 40 66
f 18 66 41
f 19 20 42
f 19 42 43
f 19 43 23
f 20 44 68
f 20 68 43
f 20 43 42
f 21 23 46
f 21 46 45
f 22 45 25
f 23 43 67
f 23 67 46
f 24 47 44
f 24 48 73
f 24 73 47
f 25 49 26
f 25 45 49
f 26 50 51
f 26 51 29
f 26 29 28
f 26 28 27
f 26 49 52
f 26 52 53
f 26 53 50
f 29 51 50
f 29 50 75
f 29 75 95
f 29 95 96
f 29 96 98
f 29 98 115
f 29 115 99
f 29 99 78
f 29 78 77
f 29 77 59
f 29 59 58
f 29 58 57
f 29 57 56
f 29 56 55
f 29 55 54
f 29 54 33
f 29 33 32
f 29 32 31
f 29 31 30
f 34 54 55
f 34 55 56
f 34 56 57
f 34 57 58
f 34 58 35
f 35 58 59
f 35 59 36
f 36 59 60
f 36 60 61
f 36 61 37
f 37 61 62
f 37 62 38
f 38 62 84
f 38 84 63
f 38 63 40
f 38 40 64
f 38 64 39
f 39 64 40
f 40 63 65
f 40 65 86
f 40 86 66
f 41 66 74
f 41 74 48
f 43 68 87
f 43 87 67
f 44 47 68
f 45 69 70
f 45 70 71
f 45 71 52
f 45 52 49
f 45 46 67
f 45 67 72
f 45 72 69
f 47 73 89
f 47 89 68
f 48 74 73
f 50 53 75
f 52 71 76
f 52 76 53
f 53 76 75
f 59 77 60
f 60 77 78
f 60 78 79
f 60 79 80
f 60 80 61
f 61 81 82
f 61 82 62
f 61 80 81
f 62 82 83
f 62 83 84
f 63 84 85
f 63 85 65
f 65 85 105
f 65 105 86
f 66 86 89
f 66 89 74
f 67 87 88
f 67 88 72
f 68 89 108
f 68 108 87
f 69 72 90
f 69 90 91
f 69 91 70
f 70 91 92
f 70 92 93
f 70 93 71
f 71 93 76
f 72 94 90
f 72 88 94
f 73 74 89
f 75 76 95
f 76 96 95
f 76 93 97
f 76 97 98
f 76 98 96
f 78 99 79
f 79 99 100
f 79 100 81
f 79 81 80
f 81 100 82
f 82 100 101
f 82 101 102
f 82 102 103
f 82 103 83
f 83 103 104
f 83 104 85
f 83 85 84
f 85 104 105
f 86 105 108
f 86 108 89
f 87 106 107
f 87 107 88
f 87 108 109
f 87 109 106
f 88 107 94
f 90 94 110
f 90 110 91
f 91 111 97
f 91 97 92
f 91 110 112
f 91 112 107
f 91 107 113
f 91 113 102
f 91 102 111
f 92 97 93
f 94 107 110
f 97 111 102
f 97 102 114
f 97 114 115
f 97 115 98
f 99 115 100
f 100 114 101
f 100 115 114
f 101 114 102
f 102 113 116
f 102 116 103
f 103 116 117
f 103 117 104
f 104 117 105
f 105 117 118
f 105 118 108
f 106 109 119
f 106 119 107
f 107 112 110
f 107 119 120
f 107 120 113
f 108 118 109
f 109 118 113
f 109 113 119
f 113 120 119
f 113 118 117
f 113 117 116
