o piece_011
v 0.0243862 0.0339019 -0.0666137
v 0.0223791 0.0343483 -0.0666137
v 0.0315232 0.0339019 -0.0666137
v 0.0249811 0.0339019 -0.0642338
v 0.0221853 0.034735 -0.0666137
v 0.0285504 0.0339019 -0.0535306
v 0.030332 0.0339019 -0.0486176
v 0.0273606 0.0344976 -0.0529352
v 0.0321908 0.0340512 -0.0666137
v 0.0321166 0.0339019 -0.0660182
v 0.0220067 0.0356876 -0.0666137
v 0.0285504 0.0356876 -0.0486176
v 0.0356858 0.0339019 -0.0486176
v 0.0291437 0.0344976 -0.0486176
v 0.0287698 0.0352459 -0.0486176
v 0.0329839 0.0344473 -0.0666137
v 0.0341237 0.0343483 -0.0642338
v 0.0339012 0.0339019 -0.0624493
v 0.0220067 0.0481749 -0.0666137
v 0.0285504 0.0481749 -0.0486176
v 0.0368756 0.0344976 -0.0486176
v 0.0356858 0.0339019 -0.0570995
v 0.0334047 0.0346957 -0.0666137
v 0.0352393 0.0347947 -0.0633424
v 0.035091 0.0344976 -0.0624493
v 0.0222308 0.0492171 -0.0666137
v 0.0272108 0.0490678 -0.0526375
v 0.0289969 0.0490709 -0.0486176
v 0.0374705 0.0356876 -0.0486176
v 0.0368756 0.0344976 -0.0570995
v 0.0336045 0.0350934 -0.0666137
v 0.035091 0.0356876 -0.0636401
v 0.0356858 0.0356876 -0.0624493
v 0.0374705 0.0356876 -0.0570995
v 0.0370239 0.0347947 -0.0579891
v 0.0223791 0.0495142 -0.0666137
v 0.0291437 0.0493649 -0.0486176
v 0.0374705 0.0481749 -0.0486176
v 0.0336045 0.0481749 -0.0666137
v 0.035091 0.0481749 -0.0636401
v 0.0356858 0.0481749 -0.0624493
v 0.0374705 0.0481749 -0.0570995
v 0.0249811 0.0499591 -0.0642338
v 0.0243862 0.0499591 -0.0666137
v 0.0300383 0.0498129 -0.0486176
v 0.030332 0.0499591 -0.0486176
v 0.0285504 0.0499591 -0.0535306
v 0.0368756 0.0493649 -0.0486176
v 0.0333063 0.0493633 -0.0666137
v 0.035091 0.0493649 -0.0630447
v 0.0368756 0.0493649 -0.0576914
v 0.0315232 0.0499591 -0.0666137
v 0.0356858 0.0499591 -0.0486176
v 0.0365683 0.0495189 -0.0486176
v 0.0321166 0.049827 -0.0666137
v 0.0321166 0.0499591 -0.0660182
v 0.0339012 0.0499591 -0.0624493
v 0.0356858 0.0499591 -0.0570995
f 1 2 5
f 1 5 11
f 1 11 19
f 1 19 26
f 1 26 36
f 1 36 44
f 1 44 52
f 1 52 55
f 1 55 49
f 1 49 39
f 1 39 31
f 1 31 23
f 1 23 16
f 1 16 9
f 1 9 3
f 1 3 10
f 1 10 18
f 1 18 22
f 1 22 13
f 1 13 7
f 1 7 6
f 1 6 4
f 1 4 2
f 2 4 6
f 2 6 7
f 2 7 8
f 2 8 5
f 3 9 10
f 5 8 12
f 5 12 11
f 7 13 21
f 7 21 29
f 7 29 38
f 7 38 48
f 7 48 54
f 7 54 53
f 7 53 46
f 7 46 45
f 7 45 37
f 7 37 28
f 7 28 20
f 7 20 12
f 7 12 15
f 7 15 14
f 7 14 8
f 8 14 15
f 8 15 12
f 9 16 17
f 9 17 10
f 10 17 18
f 11 12 20
f 11 20 19
f 13 22 30
f 13 30 21
f 16 23 17
f 17 23 24
f 17 24 25
f 17 25 18
f 18 25 30
f 18 30 22
f 19 20 27
f 19 27 26
f 20 28 27
f 21 30 34
f 21 34 29
f 23 31 24
f 24 31 32
f 24 32 33
f 24 33 34
f 24 34 35
f 24 35 30
f 24 30 25
f 26 27 36
f 27 28 37
f 27 37 36
f 29 34 42
f 29 42 38
f 30 35 34
f 31 39 40
f 31 40 32
f 32 40 41
f 32 41 33
f 33 41 42
f 33 42 34
f 36 43 44
f 36 37 45
f 36 45 46
f 36 46 47
f 36 47 43
f 38 42 51
f 38 51 48
f 39 49 50
f 39 50 40
f 40 50 41
f 41 50 42
f 42 50 51
f 43 47 46
f 43 46 53
f 43 53 58
f 43 58 57
f 43 57 56
f 43 56 52
f 43 52 44
f 48 51 54
f 49 55 56
f 49 56 50
f 50 56 57
f 50 57 58
f 50 58 51
f 51 58 54
f 52 56 55
f 53 54 58
