o piece_003
v 0.00534525 0.0499591 -0.0124987
v 0.00534525 0.0499402 -0.0124956
v 0.00534525 0.0499591 -0.0178521
v 0.00356037 0.0499591 -0.0124956
v 0.00534525 0.0339019 -0.0124987
v 0.00356037 0.0339019 -0.0124956
v 0.00534525 0.0499575 -0.0196326
v 0.00356746 0.0499591 -0.0196281
v -0.0160628 0.0499591 -0.0124956
v 0.00534525 0.0339019 -0.0178521
v -0.0160628 0.0339019 -0.0124956
v 0.00534525 0.0493649 -0.0208156
v -0.0207716 0.0499591 -0.0279103
v -0.0178406 0.0499591 -0.0142746
v -0.0178441 0.0499575 -0.0124956
v 0.00534525 0.0339066 -0.0196356
v 0.00356746 0.0339019 -0.0196281
v -0.0178476 0.033905 -0.0124956
v -0.0178406 0.0339019 -0.0142746
v 0.00534525 0.0481686 -0.0214116
v -0.0187632 0.0495142 -0.0279103
v -0.0196254 0.049706 -0.0279103
v -0.0285463 0.0499591 -0.0279103
v -0.0285463 0.0499591 -0.0267636
v -0.0190293 0.0493649 -0.0124956
v -0.0287699 0.0495142 -0.0249801
v 0.00534525 0.0344976 -0.0208156
v -0.0207716 0.0339019 -0.0279103
v -0.0190293 0.0344976 -0.0124956
v -0.0285463 0.0343483 -0.0247567
v -0.0285463 0.0339019 -0.0267636
v 0.00534525 0.0374638 -0.0214116
v -0.018348 0.0481749 -0.0279103
v -0.0185786 0.0491448 -0.0279103
v -0.0298344 0.049673 -0.0279103
v -0.0196254 0.0481702 -0.0124956
v -0.0298841 0.0490678 -0.0258718
v -0.0291425 0.0481749 -0.0243841
v -0.0302603 0.0494608 -0.0279103
v 0.00534525 0.0356797 -0.0214071
v -0.0187632 0.0343483 -0.0279103
v -0.0285463 0.0339019 -0.0279103
v -0.0196219 0.0356813 -0.0124956
v -0.0291425 0.0356876 -0.0243841
v -0.0294406 0.0347947 -0.0254252
v -0.0297351 0.0344976 -0.0261691
v -0.0302177 0.0343781 -0.0279103
v -0.0298557 0.0342304 -0.0279103
v -0.018348 0.0356876 -0.0279103
v -0.0196254 0.0374654 -0.0124956
v -0.0309061 0.0481749 -0.0279103
v -0.0186035 0.0346674 -0.0279103
v -0.0309061 0.0356876 -0.0279103
f 1 2 5
f 1 5 10
f 1 10 16
f 1 16 27
f 1 27 40
f 1 40 32
f 1 32 20
f 1 20 12
f 1 12 7
f 1 7 3
f 1 3 8
f 1 8 13
f 1 13 23
f 1 23 24
f 1 24 14
f 1 14 9
f 1 9 4
f 1 4 2
f 2 4 9
f 2 9 15
f 2 15 25
f 2 25 36
f 2 36 50
f 2 50 43
f 2 43 29
f 2 29 18
f 2 18 11
f 2 11 6
f 2 6 5
f 3 7 8
f 5 6 11
f 5 11 19
f 5 19 31
f 5 31 42
f 5 42 28
f 5 28 17
f 5 17 10
f 7 12 13
f 7 13 8
f 9 14 15
f 10 17 16
f 11 18 19
f 12 20 21
f 12 21 22
f 12 22 13
f 13 22 21
f 13 21 34
f 13 34 33
f 13 33 49
f 13 49 52
f 13 52 41
f 13 41 28
f 13 28 42
f 13 42 48
f 13 48 47
f 13 47 53
f 13 53 51
f 13 51 39
f 13 39 35
f 13 35 23
f 14 24 15
f 15 24 26
f 15 26 25
f 16 17 28
f 16 28 27
f 18 29 30
f 18 30 31
f 18 31 19
f 20 32 49
f 20 49 33
f 20 33 34
f 20 34 21
f 23 35 24
f 24 35 26
f 25 26 37
f 25 37 38
f 25 38 36
f 26 35 39
f 26 39 37
f 27 28 41
f 27 41 40
f 29 43 44
f 29 44 45
f 29 45 30
f 30 45 46
f 30 46 31
f 31 46 47
f 31 47 48
f 31 48 42
f 32 40 49
f 36 38 44
f 36 44 50
f 37 39 51
f 37 51 38
f 38 51 53
f 38 53 44
f 40 41 52
f 40 52 49
f 43 50 44
f 44 53 45
f 45 53 46
f 46 53 47
