o piece_006
v -0.00885966 0.0482378 -0.0758635
v -0.00885966 0.0357489 -0.0758635
v -0.00885966 0.0488776 -0.0760208
v -0.0285478 0.0481749 -0.0499317
v -0.00885966 0.0345699 -0.0767446
v -0.0285478 0.0356876 -0.0499317
v -0.0291415 0.0344976 -0.0499317
v -0.00885966 0.0495912 -0.0770938
v -0.0291415 0.0493649 -0.0499317
v -0.0285618 0.0482048 -0.0499317
v -0.00981466 0.0343483 -0.075832
v -0.00885966 0.0339019 -0.0785067
v -0.0303318 0.0339019 -0.0499317
v -0.00885966 0.0499591 -0.0785067
v -0.0303318 0.0499591 -0.0499317
v -0.00885966 0.0339019 -0.0802909
v -0.0356837 0.0339019 -0.0499317
v -0.00885966 0.0499591 -0.0802909
v -0.0356837 0.0499591 -0.0499317
v -0.0196279 0.0339019 -0.0802909
v -0.00885966 0.0339647 -0.0804167
v -0.0368739 0.0344976 -0.0499317
v -0.0356837 0.0339019 -0.0570998
v -0.00885966 0.0493649 -0.0814803
v -0.0205213 0.0495142 -0.0811845
v -0.0196279 0.0499591 -0.0802909
v -0.0368739 0.0493649 -0.0499317
v -0.0356837 0.0499591 -0.0570998
v -0.0365771 0.0495142 -0.0579903
v -0.021115 0.0342005 -0.0799951
v -0.0205213 0.0347947 -0.0811845
v -0.0190342 0.0344976 -0.0814803
v -0.0303318 0.0339019 -0.0695859
v -0.00885966 0.0344976 -0.0814803
v -0.0374705 0.0356876 -0.0499317
v -0.0368739 0.0344976 -0.0565051
v -0.0338997 0.0339019 -0.0624523
v -0.00885966 0.0482174 -0.0820562
v -0.0196279 0.0493649 -0.0814803
v -0.0196279 0.0481749 -0.082075
v -0.0208182 0.0487707 -0.0814803
v -0.0312252 0.0495142 -0.0704795
v -0.0303318 0.0499591 -0.0695859
v -0.0374705 0.0481749 -0.0499317
v -0.0368739 0.0493649 -0.0570998
v -0.0338997 0.0499591 -0.0624523
v -0.0347931 0.0495142 -0.063346
v -0.0368739 0.0487707 -0.0582893
v -0.0374705 0.0481749 -0.0570998
v -0.0220084 0.0350918 -0.0808856
v -0.0300349 0.0342005 -0.0710742
v -0.0196279 0.0356876 -0.082075
v -0.00885966 0.0355634 -0.0820152
v -0.0312252 0.0347947 -0.0704795
v -0.0374705 0.0356876 -0.0570998
v -0.0362802 0.0350918 -0.0594787
v -0.0347931 0.0347947 -0.063346
v -0.03509 0.0344976 -0.0618576
v -0.00885966 0.0481749 -0.082075
v -0.0220084 0.0475807 -0.0808856
v -0.031522 0.0487707 -0.0707753
v -0.03509 0.0487707 -0.0636418
v -0.0356837 0.0481749 -0.0624523
v -0.0309255 0.0350918 -0.0719647
v -0.00885966 0.0356876 -0.082075
v -0.0344962 0.0350918 -0.0648312
v -0.0327123 0.0350918 -0.0683964
v -0.0356837 0.0356876 -0.0624523
v -0.0309255 0.0475807 -0.0719647
v -0.0344962 0.0475807 -0.0648312
v -0.031522 0.0362817 -0.0707753
f 1 2 5
f 1 5 12
f 1 12 16
f 1 16 21
f 1 21 34
f 1 34 53
f 1 53 65
f 1 65 59
f 1 59 38
f 1 38 24
f 1 24 18
f 1 18 14
f 1 14 8
f 1 8 3
f 1 3 4
f 1 4 6
f 1 6 2
f 2 6 7
f 2 7 5
f 3 8 9
f 3 9 10
f 3 10 4
f 4 10 9
f 4 9 15
f 4 15 19
f 4 19 27
f 4 27 44
f 4 44 35
f 4 35 22
f 4 22 17
f 4 17 13
f 4 13 7
f 4 7 6
f 5 11 12
f 5 7 11
f 7 13 11
f 8 14 15
f 8 15 9
f 11 13 12
f 12 13 17
f 12 17 23
f 12 23 37
f 12 37 33
f 12 33 20
f 12 20 16
f 14 18 26
f 14 26 43
f 14 43 46
f 14 46 28
f 14 28 19
f 14 19 15
f 16 20 21
f 17 22 36
f 17 36 23
f 18 24 25
f 18 25 26
f 19 28 29
f 19 29 27
f 20 30 31
f 20 31 32
f 20 32 21
f 20 33 51
f 20 51 30
f 21 32 34
f 22 35 55
f 22 55 36
f 23 36 58
f 23 58 37
f 24 38 39
f 24 39 25
f 25 39 40
f 25 40 41
f 25 41 61
f 25 61 42
f 25 42 43
f 25 43 26
f 27 29 45
f 27 45 49
f 27 49 44
f 28 46 47
f 28 47 29
f 29 48 49
f 29 49 45
f 29 47 48
f 30 50 31
f 30 51 50
f 31 50 52
f 31 52 32
f 32 53 34
f 32 52 53
f 33 54 51
f 33 37 57
f 33 57 54
f 35 44 49
f 35 49 55
f 36 55 56
f 36 56 57
f 36 57 58
f 37 58 57
f 38 59 40
f 38 40 39
f 40 59 65
f 40 65 52
f 40 52 50
f 40 50 60
f 40 60 41
f 41 60 61
f 42 61 62
f 42 62 47
f 42 47 46
f 42 46 43
f 47 62 48
f 48 62 49
f 49 62 63
f 49 63 68
f 49 68 55
f 50 51 64
f 50 64 69
f 50 69 60
f 51 54 64
f 52 65 53
f 54 57 66
f 54 66 67
f 54 67 64
f 55 68 66
f 55 66 57
f 55 57 56
f 60 69 61
f 61 70 62
f 61 69 64
f 61 64 71
f 61 71 66
f 61 66 70
f 62 70 66
f 62 66 68
f 62 68 63
f 64 67 71
f 66 71 67
