o piece_000
v 0.0178406 0.0285498 -0.00178457
v 0.0178406 0.0428214 -0.0053537
v -0.0178406 0.0428214 -0.0053537
v 0.0178406 0.0481758 -0.00713705
v -0.0178406 0.0481758 -0.00713705
v -0.0184362 0.0440124 -0.00594815
v -0.0178406 0.0285498 -0.00178457
v -0.0190318 0.0285498 -0.00238024
v -0.0191778 0.0437155 -0.00624537
v -0.0184362 0.0493634 -0.0077315
v 0.0172451 0.0493634 -0.0077315
v -0.0178406 0.0499606 -0.00892039
v -0.0191778 0.0490665 -0.00802872
v -0.0196274 0.0481758 -0.00892039
v -0.0190318 0.0493634 -0.00892039
v -0.0190318 0.0493634 -0.0124956
v -0.0196274 0.0481688 -0.0124956
v -0.0196274 0.0356856 -0.0124895
v -0.0196235 0.0356786 -0.0124956
v -0.0191701 -0.0249532 -0.008464
v -0.0179598 -0.0249532 -0.00892154
v -0.0190318 0.0344946 -0.0124956
v -0.0178483 0.0339043 -0.0124956
v 0.0178368 0.0339008 -0.0124956
v 0.0196274 0.0481688 -0.0124956
v 0.0190318 0.0344946 -0.0124956
v 0.0178406 -0.0249532 -0.00892154
v 0.0196235 0.0356821 -0.0124956
v 0.0190318 -0.0249532 -0.00832609
v 0.0196274 0.0356856 -0.0124895
v 0.0196274 0.0481758 -0.00892039
v 0.0190318 0.0493634 -0.0124956
v -0.0178445 0.0499571 -0.0124956
v -0.0178406 0.0499606 -0.0124895
v 0.0178406 0.0499606 -0.00892039
v 0.0187321 0.0490665 -0.00802872
v 0.0190318 0.0493634 -0.00951606
v 0.0190318 0.0475785 -0.0077315
v 0.0190318 0.0422276 -0.00594815
v 0.0190318 0.0279561 -0.00238024
v 0.0196274 0.0285498 -0.00356913
v 0.0196274 0.0428214 -0.00713705
v 0.0196274 0.0178444 -0.00178457
v 0.0190318 0.0172507 -0.000595671
v 0.0178406 0.0178444 0
v 0.0190318 -0.0148688 -0.000595486
v 0.0196274 0.0142783 -0.00178452
v 0.0196274 -0.0142736 -0.00178452
v 0.0196274 -0.0249532 -0.00356901
v 0.0190318 -0.0249532 -0.00237997
v 0.0178406 -0.0249532 -0.00178452
v 0.0178406 -0.0142736 -3.60803e-08
v 0.00951398 -0.00119388 0.00059821
v 0.0089184 -0.00317158 0.00059821
v 0.00708553 -0.00675833 0.00059821
v 0 -0.00951176 0.00059821
v 0.00535258 -0.00772606 0.00059821
v -0.0178406 -0.0142736 -3.60803e-08
v -0.00197119 -0.00910854 0.00059821
v -0.00732377 -0.00732284 0.00059821
v -0.00951398 0.00534982 0.00059821
v -0.00951398 -0.00178527 0.00059821
v -0.00911052 -0.00375913 0.00059821
v -0.0178406 0.0178444 0
v -0.00858794 0.00720464 0.00059821
v -0.00494911 0.0107031 0.00059821
v 0.00416141 0.0112983 0.00059821
v -0.00297408 0.0112983 0.00059821
v 0.00653606 0.010104 0.00059821
v 0.00832281 0.00832214 0.00059821
v 0.00951398 0.00594505 0.00059821
v -0.0190318 0.0178444 -0.000595671
v -0.0190318 0.0142783 -0.000595486
v -0.0196274 0.0178444 -0.00178457
v -0.0191778 0.0187386 -0.000892896
v -0.0196274 0.0285498 -0.00356913
v -0.0191778 0.029444 -0.00267746
v -0.0196274 0.0428214 -0.00713705
v -0.0196274 -0.0249532 -0.00725353
v -0.0196274 -0.0142736 -0.00178452
v -0.0190318 -0.0142736 -0.000595486
v -0.0187321 -0.0151645 -0.000446391
v -0.0178406 -0.0249532 -0.00178452
v -0.0190318 -0.0249532 -0.00237997
v -0.0196274 -0.0249532 -0.00356901
v 0.0196274 -0.0249532 -0.00713705
v 0.0178368 0.0499606 -0.0124956
f 2 3 1
f 4 3 2
f 5 3 4
f 6 3 5
f 6 7 3
f 6 8 7
f 6 9 8
f 6 10 9
f 6 5 10
f 10 5 11
f 10 11 12
f 10 12 13
f 10 13 9
f 13 14 9
f 13 15 14
f 13 12 15
f 15 12 16
f 15 16 14
f 17 14 16
f 17 18 14
f 19 18 17
f 19 20 18
f 19 21 20
f 19 22 21
f 19 17 22
f 22 17 23
f 22 23 21
f 23 24 21
f 23 16 24
f 17 16 23
f 24 16 25
f 26 24 25
f 26 27 24
f 28 27 26
f 28 29 27
f 28 30 29
f 28 25 30
f 28 26 25
f 25 31 30
f 25 32 31
f 25 16 32
f 16 33 32
f 16 34 33
f 16 12 34
f 12 35 34
f 12 11 35
f 36 35 11
f 36 37 35
f 36 31 37
f 36 38 31
f 4 38 36
f 4 39 38
f 4 2 39
f 39 2 1
f 39 1 40
f 41 39 40
f 42 39 41
f 42 31 39
f 42 41 31
f 41 43 31
f 41 40 43
f 40 44 43
f 40 1 44
f 44 1 45
f 46 44 45
f 46 47 44
f 48 47 46
f 48 49 47
f 48 46 49
f 46 50 49
f 46 51 50
f 46 52 51
f 46 45 52
f 53 52 45
f 54 52 53
f 54 55 52
f 54 53 55
f 55 53 56
f 57 55 56
f 57 52 55
f 57 56 52
f 56 58 52
f 59 58 56
f 59 60 58
f 59 56 60
f 56 53 60
f 60 53 61
f 62 60 61
f 63 60 62
f 63 58 60
f 63 62 58
f 62 64 58
f 62 61 64
f 65 64 61
f 65 66 64
f 65 61 66
f 66 61 67
f 68 66 67
f 68 64 66
f 68 67 64
f 67 45 64
f 69 45 67
f 69 70 45
f 69 67 70
f 70 67 71
f 70 71 45
f 71 53 45
f 71 67 53
f 67 61 53
f 1 64 45
f 7 64 1
f 7 8 64
f 72 64 8
f 72 73 64
f 72 74 73
f 75 74 72
f 75 76 74
f 75 77 76
f 75 72 77
f 72 8 77
f 9 77 8
f 76 77 9
f 78 76 9
f 78 14 76
f 78 9 14
f 76 14 74
f 74 14 79
f 80 74 79
f 73 74 80
f 81 73 80
f 81 64 73
f 81 58 64
f 82 58 81
f 82 83 58
f 84 83 82
f 84 85 83
f 84 81 85
f 84 82 81
f 81 80 85
f 85 80 79
f 85 79 83
f 83 79 49
f 51 83 49
f 51 52 83
f 52 58 83
f 50 51 49
f 27 49 79
f 86 49 27
f 86 30 49
f 29 30 86
f 29 86 27
f 30 31 49
f 43 49 31
f 47 49 43
f 47 43 44
f 21 27 79
f 24 27 21
f 20 21 79
f 20 79 18
f 18 79 14
f 7 1 3
f 39 31 38
f 4 36 11
f 5 4 11
f 37 31 32
f 37 32 35
f 87 35 32
f 87 34 35
f 87 33 34
f 87 32 33
