o centered_combined
v 0.04564 2.85758e-06 -0.0779693
v 0.0456447 -1.6113e-06 -0.0773702
v 0.04564 2.85758e-06 -0.0855866
v 0.0438351 2.85758e-06 -0.0773702
v 0.0456447 -1.6113e-06 -0.0855836
v 0.0437414 -0.0114146 -0.0773702
v 0.0450071 2.85758e-06 -0.0868481
v 0.0393439 2.85758e-06 -0.0773702
v 0.0451665 -0.000953441 -0.0865342
v 0.0450071 -1.6113e-06 -0.086851
v 0.0437414 -0.0114146 -0.0855836
v 0.041838 -0.0171211 -0.0773702
v 0.0437414 2.85758e-06 -0.0874828
v 0.0392455 -1.6113e-06 -0.0773702
v 0.0152189 2.85758e-06 -0.0779772
v 0.0432632 -0.0123665 -0.0865342
v 0.0431085 -0.0114146 -0.086851
v 0.0437414 -1.6113e-06 -0.0874847
v 0.041838 -0.0171211 -0.0855836
v 0.0413645 -0.0180685 -0.0865342
v 0.0407738 -0.0192527 -0.0773702
v 0.041838 2.85758e-06 -0.0874847
v -0.00224894 -0.0152175 -0.0779772
v -0.00224894 -0.0392456 -0.0773702
v -0.00189733 2.85758e-06 -0.0855836
v -0.00224894 -1.6113e-06 -0.0855836
v -0.00224894 -0.0136266 -0.0782881
v 0.0412051 -0.0171211 -0.086851
v 0.041838 -0.0114146 -0.0874847
v 0.0405722 -0.0196549 -0.0855836
v 0.0394611 -0.0218758 -0.0865342
v 0.0401737 -0.0190203 -0.0870095
v 0.0401409 -0.0205173 -0.0773702
v -0.00189733 2.85758e-06 -0.0874847
v -0.00224894 -0.0445186 -0.0773702
v -0.00224894 2.85758e-06 -0.0859302
v 0.0399346 -0.0171211 -0.0874847
v 0.0386688 -0.0234533 -0.0773702
v 0.0386688 -0.0234533 -0.0855836
v 0.0348668 -0.0291598 -0.0855836
v 0.0356591 -0.0275734 -0.0865342
v 0.0344683 -0.0285252 -0.0870095
v 0.0382703 -0.0228187 -0.0870095
v 0.0380359 -0.020924 -0.0874847
v -0.00224894 -1.6113e-06 -0.0874847
v -0.00224894 -0.0445186 -0.0859302
v 1.34666e-06 -0.0456447 -0.0773702
v 0.0348668 -0.0291598 -0.0773702
v 0.0306662 -0.0323281 -0.0870095
v 0.0291614 -0.0348663 -0.0855836
v 0.0323305 -0.0285252 -0.0874847
v 0.0342292 -0.026626 -0.0874847
v -0.00224894 -0.0418374 -0.0874847
v -0.00224894 -0.0444337 -0.0862748
v 1.34666e-06 -0.0456447 -0.0855836
v 0.0114122 -0.0437411 -0.0773702
v 0.0291614 -0.0348663 -0.0773702
v 0.0287629 -0.0342317 -0.0870095
v 0.0266251 -0.0342317 -0.0874847
v 0.0234559 -0.0386691 -0.0855836
v 0.0280503 -0.0351835 -0.0865342
v -0.00224894 -0.0432897 -0.0870352
v 1.34666e-06 -0.0437411 -0.0874847
v -0.00224894 -0.0440896 -0.0865045
v 0.000634241 -0.0450102 -0.086851
v 0.0120498 -0.0431065 -0.086851
v 0.0114122 -0.0437411 -0.0855836
v 0.0171176 -0.0418374 -0.0773702
v 0.0234559 -0.0386691 -0.0773702
v 0.027258 -0.0355008 -0.086851
v 0.0215572 -0.0393037 -0.086851
v 0.0230574 -0.0380346 -0.0870095
v 0.0209244 -0.0380346 -0.0874847
v 0.0209244 -0.0399382 -0.0855836
v 0.0223449 -0.0389864 -0.0865342
v -0.00158323 -0.0434238 -0.0871679
v 0.0114122 -0.0418374 -0.0874847
v 0.0171176 -0.0399382 -0.0874847
v 0.0177552 -0.0412029 -0.086851
v 0.0171176 -0.0418374 -0.0855836
v 0.0175255 -0.0416363 -0.0773702
v 0.0209244 -0.0399382 -0.0773702
v 0.0185475 -0.04089 -0.0865342
v 0.0196539 -0.0405728 -0.0855836
v -0.0456447 -1.39229e-06 -0.0855836
v -0.0456447 -1.39229e-06 -0.0772809
v -0.0456405 2.96708e-06 -0.0855836
v -0.0456362 2.96708e-06 -0.0855976
v -0.0431088 -0.0107802 -0.0868514
v -0.0437417 -0.0114122 -0.0855836
v -0.0435718 2.96708e-06 -0.0772809
v -0.0456405 2.96708e-06 -0.0779662
v -0.0437417 -0.0114122 -0.0772809
v -0.0448844 2.96708e-06 -0.0867255
v -0.0418387 -0.0114122 -0.0874857
v -0.0412058 -0.0164857 -0.0868514
v -0.0405728 -0.0196544 -0.086217
v -0.0437544 2.96708e-06 -0.0874777
v -0.0437417 -1.39229e-06 -0.0874857
v -0.0418387 -0.0171177 -0.0855836
v -0.0393325 2.96708e-06 -0.0772809
v -0.0418387 -0.0171177 -0.0772809
v -0.0399357 -0.0171177 -0.0874857
v -0.0380369 -0.0209227 -0.0874857
v -0.0386698 -0.0234551 -0.086217
v -0.0393027 -0.0221911 -0.0849493
v -0.0405728 -0.0196544 -0.0772809
v -0.0437417 2.96708e-06 -0.0874837
v -0.0418387 2.96708e-06 -0.0874857
v -0.0152176 2.96708e-06 -0.0779772
v -0.00224894 -0.0393335 -0.0772809
v -0.0342308 -0.0266238 -0.0874857
v -0.0339165 -0.0282103 -0.087168
v -0.0377183 -0.0225049 -0.087168
v -0.0386698 -0.0234551 -0.0772809
v -0.0348637 -0.0291605 -0.086217
v -0.0393027 -0.0221911 -0.0772809
v -0.0038079 2.96708e-06 -0.0874857
v -0.0137733 2.96708e-06 -0.0785666
v -0.0038079 -0.013317 -0.0779772
v -0.00224894 -0.0136264 -0.0782879
v -0.00224894 -0.0445203 -0.0772809
v -0.00224894 -0.0152173 -0.0779772
v -0.030429 -0.0304289 -0.0874857
v -0.0282074 -0.0339158 -0.087168
v -0.0310619 -0.0329656 -0.086217
v -0.0348637 -0.0291605 -0.0772809
v -0.00224894 2.96708e-06 -0.0859303
v -0.00224894 -1.39229e-06 -0.0874857
v -0.00224894 -1.39229e-06 -0.0855836
v -0.0114115 -0.0437401 -0.0772809
v -0.00224894 -0.0445203 -0.0859303
v -0.026623 -0.0342296 -0.0874857
v -0.0209224 -0.0380346 -0.0874857
v -0.0225068 -0.0377165 -0.087168
v -0.0234583 -0.038671 -0.086217
v -0.0291589 -0.0348659 -0.086217
v -0.0310619 -0.0329656 -0.0772809
v -0.00224894 -0.0418397 -0.0874857
v -0.0114115 -0.0437401 -0.0855836
v -0.0171206 -0.0418397 -0.0772809
v -0.00224894 -0.0444331 -0.0862749
v -0.0171206 -0.039935 -0.0874857
v -0.018705 -0.0396212 -0.087168
v -0.0234583 -0.038671 -0.0772809
v -0.0180678 -0.0408895 -0.0865347
v -0.0196565 -0.0405714 -0.086217
v -0.0171206 -0.0418397 -0.0855836
v -0.0291589 -0.0348659 -0.0772809
v -0.00224894 -0.0432911 -0.0870352
v -0.0114115 -0.0418397 -0.0874857
v -0.0107786 -0.0431081 -0.0868514
v -0.0164834 -0.0412034 -0.0868514
v 0.0399391 1.09219e-05 -0.0623307
v 0.0253444 0.031068 -0.0623307
v 0.0456411 1.09219e-05 -0.0623307
v 0.0399391 1.09219e-05 0.0855791
v 0.0253444 0.0367763 -0.0623307
v 0.0253444 0.031068 0.0861951
v 0.0437417 0.011413 -0.0623307
v 0.0456411 1.09219e-05 0.0836725
v 0.0405729 1.09219e-05 0.0868404
v 0.0253444 0.0317087 0.0869137
v 0.0253444 0.0310896 0.0862244
v 0.027043 0.0359269 -0.0623307
v 0.0253444 0.0367763 0.0861951
v 0.0418404 0.0171177 -0.0623307
v 0.0437417 0.011413 0.0855791
v 0.0456371 1.09219e-05 0.0836872
v 0.0418404 1.09219e-05 0.0874711
v 0.0256762 0.0313775 0.0870017
v 0.0253444 0.0341093 0.0873537
v 0.0291629 0.0348651 -0.0623307
v 0.0291629 0.0348651 0.0843031
v 0.0253444 0.0367691 0.0862098
v 0.0253583 0.0367691 0.0862098
v 0.0412066 0.0183882 -0.0623307
v 0.0418404 0.0171177 0.0836725
v 0.0399391 0.0209184 0.0855791
v 0.0408887 0.0180679 0.0865324
v 0.0427901 0.0123632 0.0865324
v 0.043108 0.0107796 0.0868404
v 0.0443755 0.000637174 0.0862098
v 0.0446894 1.09219e-05 0.0855791
v 0.0418404 0.011413 0.0874711
v 0.0266278 0.0323313 0.0874711
v 0.043108 1.09219e-05 0.0868404
v 0.0253444 0.0367547 0.0862244
v 0.0285291 0.0323313 0.0874711
v 0.0275775 0.0351818 0.0865324
v 0.0310642 0.0329648 -0.0623307
v 0.0310642 0.0329648 0.0862098
v 0.0386695 0.0234558 -0.0623307
v 0.0412066 0.0183882 0.0830418
v 0.0386695 0.0234558 0.0862098
v 0.0389874 0.0218686 0.0865324
v 0.0377199 0.022502 0.0871631
v 0.0380358 0.0209184 0.0874711
v 0.0437497 1.09219e-05 0.0865178
v 0.0443318 1.09219e-05 0.0860338
v 0.0323318 0.028527 0.0874711
v 0.0301146 0.0320146 0.0871631
v 0.0348689 0.0291605 -0.0623307
v 0.0329675 0.0310608 0.0862098
v 0.0348689 0.0291605 0.0843031
v 0.0351848 0.0275768 0.0865324
v 0.0320159 0.0301106 0.0871631
v 0.0253417 0.0341107 0.0873537
v 0.0244071 0.0358198 0.0871631
v 0.0225029 0.0377214 0.0871631
v 0.0209202 0.0380381 0.0874711
v 0.0247231 0.0342349 0.0874711
v 0.0253417 0.0317126 0.0869137
v 0.0253417 0.0367556 0.0862244
v 0.0234537 0.0386701 0.0862098
v 0.0218709 0.0389868 0.0865324
v 0.0180652 0.0408899 0.0865324
v 0.0114128 0.04184 0.0874711
v -0.00224606 0.04184 0.0874711
v -0.00224606 0.0416089 0.0873684
v -0.00224606 0.0405718 0.0868404
v 0.0253417 0.0310921 0.0862244
v 0.0253417 0.0367728 0.0862098
v 0.0221869 0.039305 0.0849485
v 0.0209202 0.0399384 0.0855791
v 0.0253417 0.036777 0.0861951
v 0.0234537 0.0386701 -0.0623307
v 0.0232376 0.03878 -0.0623307
v 0.0114128 0.0437417 0.0855791
v 0.0123608 0.0427915 0.0865324
v 0.010778 0.0431082 0.0868404
v -0.00224606 0.0425348 0.0871337
v -0.00224606 0.0404562 0.0866204
v 0.0253417 0.0310721 0.0861951
v 0.018384 0.0412066 0.0830418
v 0.0194346 0.0406816 -0.0623307
v 0.0171145 0.04184 0.0836725
v 0.0253417 0.036777 -0.0623307
v 1.1446e-06 0.0456447 0.0836725
v 0.000635873 0.0443765 0.0862098
v 0.0114128 0.0437417 -0.0623307
v -0.00224606 0.0431082 0.0868404
v -0.00224606 0.0399384 0.0855791
v 0.0253417 0.0310721 -0.0623307
v 0.018384 0.0412066 -0.0623307
v 0.0171145 0.04184 -0.0623307
v -0.00224606 0.0445191 0.0836725
v -0.00224606 0.0440883 0.0855791
v -0.000633584 0.0450099 0.0849485
v 1.1446e-06 0.0456447 -0.0623307
v -0.000990112 0.0451483 -0.0623307
v -0.00224606 0.0434735 0.0864298
v -0.00224606 0.0399384 -0.0623307
v -0.00224606 0.0445191 -0.0623307
v -0.00224876 0.0418404 0.0874711
v -0.00224876 0.0416097 0.0873684
v -0.00224876 0.0425343 0.0871337
v -0.0114124 0.0418404 0.0874711
v -0.0335951 0.0253629 0.0874711
v -0.0314563 0.0253629 0.0870017
v -0.00224876 0.0405726 0.0868404
v -0.00224876 0.0431081 0.0868404
v -0.0120477 0.0431081 0.0868404
v -0.0209174 0.038037 0.0874711
v -0.0323314 0.0285286 0.0874711
v -0.0343115 0.0253629 0.0873244
v -0.0312501 0.0253629 0.0865911
v -0.00224876 0.0399387 0.0855791
v -0.00224876 0.0404563 0.0866204
v -0.00224876 0.0434739 0.0864298
v -0.0215526 0.0393048 0.0868404
v -0.00224876 0.0440871 0.0855791
v -0.0114124 0.043742 0.0855791
v -0.017356 0.041364 0.0855791
v -0.0230596 0.038037 0.0870017
v -0.0285267 0.032332 0.0874711
v -0.0325679 0.0304303 0.0870017
v -0.035734 0.0253629 0.0870017
v -0.0310575 0.0253629 0.0855791
v -0.0297938 0.025993 0.0855791
v -0.00224876 0.0399387 -0.0623307
v -0.0209174 0.0399387 0.0855791
v -0.0223467 0.0389878 0.0865324
v -0.00224876 0.0445203 0.0836725
v -0.0171194 0.0418404 0.0836725
v -0.0114124 0.043742 -0.0623307
v -0.0306656 0.032332 0.0870017
v -0.0329633 0.0310642 0.0855791
v -0.0337573 0.0294795 0.0865324
v -0.0367646 0.0253629 0.0855791
v -0.0310575 0.0253629 -0.0623307
v -0.0307839 0.0254979 -0.0623307
v -0.0297938 0.025993 -0.0623307
v -0.00224876 0.0445203 -0.0623307
v -0.0221878 0.0393048 0.0855791
v -0.0234549 0.0386709 0.0855791
v -0.0299526 0.0332828 0.0865324
v -0.0171194 0.0418404 -0.0623307
v -0.0181095 0.0413453 -0.0623307
v -0.0310609 0.0329659 0.0855791
v -0.0349467 0.0285286 0.0855791
v -0.0348656 0.0291625 0.0836725
v -0.0356597 0.0275778 0.0846258
v -0.0367679 0.0253629 0.0836725
v -0.0367679 0.0253629 -0.0623307
v -0.0291586 0.0348675 0.0836725
v -0.0231779 0.0388097 -0.0623307
v -0.0234549 0.0386709 -0.0623307
v -0.0348656 0.0291625 -0.0623307
v -0.0353623 0.0281723 -0.0623307
v -0.0291586 0.0348675 -0.0623307
v -0.0456411 9.80597e-06 -0.0623307
v -0.0437425 0.0114135 -0.0623307
v -0.0399383 9.80597e-06 -0.0623307
v -0.0456411 9.80597e-06 0.0836725
v -0.0418397 0.0171166 -0.0623307
v -0.0437425 0.0114135 0.0855791
v -0.0310581 0.0253585 -0.0623307
v -0.0399383 9.80597e-06 0.0855791
v -0.0443763 9.80597e-06 0.0862098
v -0.0451686 0.000952875 0.0846258
v -0.0391661 0.0224648 -0.0623307
v -0.0418397 0.0171166 0.0836725
v -0.0432672 0.012364 0.0865324
v -0.0367679 0.0253585 -0.0623307
v -0.0310581 0.0253585 0.0855791
v -0.0312522 0.0253585 0.0865911
v -0.0314578 0.0253585 0.0870017
v -0.0405721 9.80597e-06 0.0868404
v -0.0431087 9.80597e-06 0.0868404
v -0.0431087 0.0114135 0.0868404
v -0.0386708 0.023455 -0.0623307
v -0.0386708 0.023455 0.0855791
v -0.0413644 0.0180671 0.0846258
v -0.039463 0.0218692 0.0865324
v -0.0420781 0.0133121 0.0870017
v -0.0382753 0.0228222 0.0870017
v -0.0367679 0.0253585 0.0836725
v -0.0335975 0.0253585 0.0874711
v -0.0418397 9.80597e-06 0.0874711
v -0.0418397 0.0114135 0.0874711
v -0.0367694 0.0253561 0.0855791
v -0.0380384 0.0209187 0.0874711
v -0.0343141 0.0253585 0.0873244
v -0.036374 0.0247232 0.0870017
v -0.0367665 0.0253585 0.0855791
v -0.0342342 0.0247232 0.0874711
v -0.0357373 0.0253585 0.0870017
v -0.0361356 0.0228222 0.0874711
v 7.32645e-06 0.0456411 -0.0779691
v 7.32645e-06 0.0456411 -0.0855869
v 7.32645e-06 0.0456009 -0.0779672
v 1.17927e-05 0.0456366 -0.0779672
v 0.0114113 0.0437426 -0.0779672
v 7.32645e-06 0.0450068 -0.0868522
v 0.0114113 0.0437426 -0.0855831
v 0.0114113 0.0431083 -0.0868512
v 7.32645e-06 0.0380518 -0.0779672
v 0.01712 0.0418397 -0.0779672
v 0.000954307 0.0446896 -0.0870096
v 7.32645e-06 0.0437426 -0.0874829
v 0.0123627 0.0427912 -0.0870096
v 0.01712 0.0418397 -0.0855831
v 0.0126799 0.0431083 -0.0862177
v 7.32645e-06 0.0152171 -0.0779766
v 0.0380518 7.32645e-06 -0.0779672
v 0.0190318 0.0408838 -0.0779672
v 0.0114113 0.0418397 -0.0874857
v 7.32645e-06 0.0418397 -0.0874857
v 0.0180714 0.0408883 -0.0870096
v 0.0183886 0.0412054 -0.0862177
v 7.32645e-06 0.013953 -0.0786083
v 0.0152171 7.32645e-06 -0.0779766
v 0.0456411 7.32645e-06 -0.0779672
v 0.0221899 0.0393026 -0.0779672
v 0.0221899 0.0393026 -0.0862177
v 0.01712 0.0399368 -0.0874857
v 7.32645e-06 7.32645e-06 -0.0874857
v 0.0218727 0.0389854 -0.0870096
v 7.32645e-06 1.6259e-05 -0.0855831
v 0.0139485 7.32645e-06 -0.0786111
v 0.0456411 7.32645e-06 -0.0855869
v 0.0437426 0.0114113 -0.0779672
v 0.023454 0.0386683 -0.0779672
v 0.023454 0.0386683 -0.0849496
v 0.0291582 0.0348669 -0.0849496
v 0.0278897 0.0355012 -0.0862177
v 0.027577 0.0351841 -0.0870096
v 0.0209213 0.038034 -0.0874857
v 0.00190575 7.32645e-06 -0.0855831
v 0.0418397 7.32645e-06 -0.0874857
v 0.0450068 7.32645e-06 -0.0868475
v 0.0431083 0.0114113 -0.0868512
v 0.0437426 0.0114113 -0.0855831
v 0.0418397 0.01712 -0.0779672
v 0.0291582 0.0348669 -0.0779672
v 0.0348669 0.0291582 -0.0849496
v 0.0355012 0.0278897 -0.0862177
v 0.0266255 0.0342326 -0.0874857
v 0.0351841 0.027577 -0.0870096
v 0.0418397 0.0114113 -0.0874857
v 0.0437426 7.32645e-06 -0.0874829
v 0.0446896 0.000954307 -0.0870096
v 0.0427912 0.0123627 -0.0870096
v 0.0431083 0.0126799 -0.0862177
v 0.0418397 0.01712 -0.0855831
v 0.0408838 0.0190318 -0.0779672
v 0.0348669 0.0291582 -0.0779672
v 0.0386683 0.023454 -0.0849496
v 0.0393026 0.0221899 -0.0862177
v 0.0342326 0.0266255 -0.0874857
v 0.0389854 0.0218727 -0.0870096
v 0.0399368 0.01712 -0.0874857
v 0.0408883 0.0180714 -0.0870096
v 0.0412054 0.0183886 -0.0862177
v 0.0393026 0.0221899 -0.0779672
v 0.0386683 0.023454 -0.0779672
v 0.038034 0.0209213 -0.0874857
v -1.60869e-06 0.0456447 -0.0775074
v 2.85758e-06 0.044251 -0.0775074
v 2.85758e-06 0.0456403 -0.0779694
v -1.60869e-06 0.0456447 -0.0855831
v -0.0114137 0.0437417 -0.0775074
v 2.85758e-06 0.039538 -0.0775074
v 2.85758e-06 0.0456403 -0.085587
v -1.60869e-06 0.0450104 -0.0868509
v -0.000953363 0.0451667 -0.0865344
v -0.0114137 0.0437417 -0.0855831
v -0.0171198 0.0418386 -0.0775074
v -1.60869e-06 0.0389751 -0.0775074
v 2.85758e-06 0.0152183 -0.0779772
v 2.85758e-06 0.0450059 -0.0868528
v -1.60869e-06 0.0437417 -0.0874848
v -0.0114137 0.0431073 -0.0868509
v -0.0123655 0.0432637 -0.0865344
v -0.0180715 0.0413651 -0.0865344
v -0.0171198 0.0418386 -0.0855831
v -0.0183888 0.0412043 -0.0775074
v -0.0389743 7.32645e-06 -0.0775074
v 2.85758e-06 0.0139541 -0.0786082
v -0.0152163 7.32645e-06 -0.0779772
v -0.013773 7.32645e-06 -0.0785662
v 2.85758e-06 0.0437417 -0.0874828
v 2.85758e-06 0.0418386 -0.0874848
v -0.0114137 0.0418386 -0.0874848
v -0.0171198 0.0412043 -0.0868509
v -0.0190188 0.0401768 -0.0870101
v -0.0218741 0.0394621 -0.0865344
v -0.0221913 0.0393012 -0.0775074
v -0.0456411 7.32645e-06 -0.0775074
v -1.60869e-06 7.32645e-06 -0.0855831
v 2.85758e-06 1.62616e-05 -0.0855831
v 2.85758e-06 7.32645e-06 -0.0874848
v -0.0171198 0.0399356 -0.0874848
v -0.0209223 0.038037 -0.0874848
v -0.0228213 0.0382738 -0.0870101
v -0.0285274 0.0344677 -0.0870101
v -0.0275756 0.035656 -0.0865344
v -0.0291619 0.0348653 -0.0855831
v -0.0234558 0.0386669 -0.0855831
v -0.0234558 0.0386669 -0.0775074
v -0.043742 0.0114122 -0.0775074
v -0.0456411 7.32645e-06 -0.0855831
v -0.0418385 7.32645e-06 -0.0874848
v -0.0266239 0.0342309 -0.0874848
v -0.0342334 0.028763 -0.0870101
v -0.0291619 0.0348653 -0.0775074
v -0.0329644 0.0310636 -0.0855831
v -0.043742 0.0114122 -0.0855831
v -0.0418385 0.0171169 -0.0775074
v -0.0456366 7.32645e-06 -0.0855977
v -0.043742 7.32645e-06 -0.0874838
v -0.0418385 0.0114122 -0.0874848
v -0.0342334 0.0266232 -0.0874848
v -0.038036 0.020923 -0.0874848
v -0.038036 0.0230583 -0.0870101
v -0.039305 0.0215573 -0.0868509
v -0.035498 0.0272575 -0.0868509
v -0.0351807 0.0280482 -0.0865344
v -0.0348635 0.0291606 -0.0855831
v -0.0329644 0.0310636 -0.0775074
v -0.0431075 0.0120466 -0.0868509
v -0.0418385 0.0171169 -0.0855831
v -0.039305 0.0221917 -0.0775074
v -0.0450066 0.000637208 -0.0868509
v -0.0448815 7.32645e-06 -0.0867258
v -0.0437554 7.32645e-06 -0.0874779
v -0.039935 0.0171169 -0.0874848
v -0.041204 0.0177512 -0.0868509
v -0.0408868 0.0185464 -0.0865344
v -0.039305 0.0221917 -0.0855831
v -0.0389877 0.022348 -0.0865344
v -0.0348635 0.0291606 -0.0775074
v -0.0386705 0.0234559 -0.0855831
v -0.0391486 0.0225044 -0.0775074
v -0.0386705 0.0234559 -0.0775074
v 0.0273546 -0.0357712 -0.0773702
v 0.0273546 -0.0281013 -0.0773702
v 0.0282999 -0.0352984 -0.0773702
v 0.0273546 -0.0357712 0.0844036
v 0.0392496 -3.18218e-06 -0.0773702
v 0.0273546 -0.0289699 0.0855816
v 0.0291628 -0.0348641 -0.0773702
v 0.0291628 -0.0348641 0.0836774
v 0.0275784 -0.0356591 0.0846295
v 0.0273546 -0.035603 0.0848393
v 0.0393051 7.32384e-06 -0.0773379
v 0.0393445 7.32384e-06 -0.0773702
v 0.0399389 7.32384e-06 0.0855816
v 0.0273546 -0.0292746 0.0866305
v 0.0329673 -0.0310607 -0.0773702
v 0.0329673 -0.0310607 0.0855816
v 0.0310642 -0.0329624 0.0855816
v 0.0285291 -0.0349446 0.0855816
v 0.0275784 -0.0347065 0.0865336
v 0.0273546 -0.0352388 0.0855816
v 0.0438383 7.32384e-06 -0.0773702
v 0.0273546 -0.0294602 0.0870016
v 0.0405727 7.32384e-06 0.0868403
v 0.0348687 -0.029159 -0.0773702
v 0.0348687 -0.029159 0.0836774
v 0.0386696 -0.0234539 0.0855816
v 0.0332842 -0.029954 0.0865336
v 0.0323318 -0.0306649 0.0870016
v 0.0304304 -0.0325666 0.0870016
v 0.0294797 -0.0337574 0.0865336
v 0.0273546 -0.0348746 0.0863077
v 0.0273546 -0.0346505 0.0866305
v 0.0456447 -3.18218e-06 -0.0773702
v 0.0456394 7.32384e-06 -0.0760631
v 0.0273546 -0.0316 0.0874857
v 0.0418403 7.32384e-06 0.0874857
v 0.0386696 -0.0234539 -0.0773702
v 0.0393051 -0.0221861 0.0855816
v 0.0389864 -0.0223437 0.0865336
v 0.0388719 -0.0230512 -0.0773702
v 0.0380358 -0.0230582 0.0870016
v 0.0323318 -0.0285251 0.0874857
v 0.0285291 -0.0323285 0.0874857
v 0.0273546 -0.0336488 0.0871791
v 0.0273546 -0.0341356 0.0869371
v 0.0437416 -0.0114134 -0.0773702
v 0.0456447 -3.18218e-06 0.0836774
v 0.0456394 7.32384e-06 0.0836774
v 0.0273546 -0.0323285 0.0874857
v 0.0418403 -0.0114134 0.0874857
v 0.0437488 7.32384e-06 0.0865175
v 0.0418403 -0.0171184 0.0836774
v 0.0399389 -0.0209183 0.0855816
v 0.0393051 -0.0215522 0.0868403
v 0.0393051 -0.0221861 -0.0773702
v 0.0380358 -0.0209183 0.0874857
v 0.0418403 -0.0171184 -0.0773702
v 0.0437416 -0.0114134 0.0855816
v 0.0446887 7.32384e-06 0.0855816
v 0.0450092 -0.000637081 0.0849361
v 0.0431078 -0.0120472 0.0868403
v 0.0443324 7.32384e-06 0.0860334
v 0.041364 -0.0173566 0.0855816
v 0.0273546 -0.0316038 0.0874857
v 0.0273546 -0.0323318 0.0874857
v 0.0273546 -0.0294642 0.0870016
v -0.00224894 -0.0418396 0.0874857
v 0.0209187 -0.0380361 0.0874857
v 0.0273546 -0.0336523 0.0871791
v 0.0273546 -0.0292771 0.0866305
v -0.00224894 -0.0402856 0.0862755
v -0.00224894 -0.0405723 0.0868403
v 0.011414 -0.0418396 0.0874857
v -0.00224894 -0.0431085 0.0868403
v 2.61771e-06 -0.0443758 0.0862109
v 0.0228196 -0.0382748 0.0870016
v 0.0273546 -0.0341383 0.0869371
v 0.0273546 -0.0289731 0.0855816
v -0.00224894 -0.0399387 0.0855816
v 0.011414 -0.0431085 0.0868403
v 0.013312 -0.0420783 0.0870016
v -0.00224894 -0.0441302 0.0853879
v 0.000953084 -0.0451691 0.0846295
v 0.0123645 -0.0432665 0.0865336
v -0.000950747 -0.0446934 0.0850975
v 2.61771e-06 -0.045643 0.0836774
v 0.0218691 -0.0394631 0.0865336
v 0.0273546 -0.0346551 0.0866305
v 0.0273546 -0.0281025 -0.0773702
v -0.00224894 -0.0392484 -0.0773702
v -0.0012666 -0.0450094 0.0843067
v -0.00224894 -0.04452 0.0833224
v 0.011414 -0.0437422 0.0855816
v 0.0180673 -0.0413639 0.0846295
v -0.00129558 -0.0449957 -0.0773702
v 2.61771e-06 -0.045643 -0.0773702
v 0.0221879 -0.0393051 0.0855816
v 0.0234542 -0.0386698 0.0855816
v 0.0273546 -0.0348766 0.0863077
v 0.0273546 -0.0357712 -0.0773702
v -0.00224894 -0.04452 -0.0773702
v 0.0171139 -0.0418396 0.0836774
v 0.011414 -0.0437422 -0.0773702
v 0.0196523 -0.0405723 0.0836774
v 0.0175196 -0.0416387 -0.0773702
v 0.0221879 -0.0393051 -0.0773702
v 0.0273546 -0.0357712 0.0844036
v 0.0273546 -0.0356047 0.0848393
v 0.0273546 -0.0352406 0.0855816
v 0.0234542 -0.0386698 -0.0773702
v 0.0171139 -0.0418396 -0.0773702
v -0.0370536 -0.024791 -0.0772799
v -0.0386698 -0.023456 -0.0772799
v -0.0304838 -0.024791 -0.0772799
v -0.0370536 -0.024791 0.085502
v -0.0392426 -0.0223127 -0.0772799
v -0.0386698 -0.023456 0.0849375
v -0.0393361 7.32384e-06 -0.0772799
v -0.0399386 7.32384e-06 0.0855826
v -0.0313475 -0.024791 0.085502
v -0.0361202 -0.024791 0.0867277
v -0.0374039 -0.0240895 0.0862116
v -0.0393361 -0.0221258 -0.0772799
v -0.0393049 -0.0221864 0.0862116
v -0.043573 7.32384e-06 -0.0772799
v -0.0405723 7.32384e-06 0.0868406
v -0.0316978 -0.0240895 0.0862116
v -0.0315583 -0.024791 0.0863568
v -0.0360697 -0.024791 0.0867761
v -0.0370878 -0.0237715 0.0870019
v -0.0389873 -0.0218709 0.0870019
v -0.0402874 -0.0202227 -0.0772799
v -0.0399386 -0.0209193 0.0855826
v -0.0405723 -0.0196522 0.0830343
v -0.0431085 -0.0126783 0.0862116
v -0.0456447 -2.38566e-06 -0.0772799
v -0.0456403 7.32384e-06 -0.0760703
v -0.0418397 7.32384e-06 0.0874857
v -0.0323997 -0.024791 0.0869051
v -0.0343008 -0.024791 0.0874373
v -0.034234 -0.0247231 0.0874857
v -0.0380376 -0.0209193 0.0874857
v -0.0427909 -0.0123627 0.0870019
v -0.0412371 -0.018322 -0.0772799
v -0.0437422 -0.0114112 0.0855826
v -0.0418397 -0.0171156 0.0836795
v -0.0437422 -0.0114112 -0.0772799
v -0.0456447 -2.38566e-06 0.0836795
v -0.0456403 7.32384e-06 0.0836795
v -0.0443759 7.32384e-06 0.0862116
v -0.0418397 -0.0114112 0.0874857
v -0.0339001 -0.024791 0.0874051
v -0.0327752 -0.024791 0.0870341
v -0.034234 -0.024791 0.0874535
v -0.0443759 -2.38566e-06 0.0862116
v -0.0431085 -0.0114112 0.0868406
v -0.0418397 -0.0171156 -0.0772799
v -0.00224894 -0.0418397 0.0874857
v -0.0338982 -0.024793 0.0874051
v -0.0342321 -0.024793 0.0874535
v -0.0323311 -0.0266276 0.0874857
v -0.0114133 -0.0418397 0.0874857
v -0.0123638 -0.0427918 0.0870019
v -0.00224894 -0.0431085 0.0868406
v -0.00224894 -0.0405729 0.0868406
v -0.0326479 -0.0250421 0.0871632
v -0.0327706 -0.024793 0.0870341
v -0.0343002 -0.024793 0.0874373
v -0.0323311 -0.0285299 0.0874857
v -0.0209183 -0.0380372 0.0874857
v -0.0218688 -0.0389873 0.0870019
v -0.0126806 -0.0431085 0.0862116
v -0.0114133 -0.043742 0.0855826
v -0.0114133 -0.0431085 0.0868406
v -0.00224894 -0.0441302 0.0853891
v -0.0323958 -0.024793 0.0869051
v -0.00224894 -0.0402851 0.0862761
v -0.0315543 -0.024793 0.0863568
v -0.0360684 -0.024793 0.0867761
v -0.0351826 -0.0256755 0.0870019
v -0.0285257 -0.0323324 0.0874857
v -0.0332816 -0.02948 0.0870019
v -0.0313806 -0.0313823 0.0870019
v -0.0294762 -0.0332845 0.0870019
v -0.0221856 -0.0393041 0.0862116
v -0.018387 -0.0412063 0.0843085
v -0.00224894 -0.0445203 0.0833247
v -0.0171197 -0.0418397 0.0836795
v -0.0114133 -0.043742 -0.0772799
v -0.00224894 -0.0399375 0.0855826
v -0.0313465 -0.024793 0.085502
v -0.0361161 -0.024793 0.0867277
v -0.0351826 -0.0275778 0.0860503
v -0.0335984 -0.0297967 0.0862116
v -0.0316974 -0.031699 0.0862116
v -0.029793 -0.0336012 0.0862116
v -0.0310638 -0.0329658 0.0849375
v -0.027892 -0.0354996 0.0843085
v -0.0234529 -0.0386706 0.0849375
v -0.0223117 -0.0392423 -0.0772799
v -0.018387 -0.0412063 -0.0772799
v -0.00224894 -0.0445203 -0.0772799
v -0.0171197 -0.0418397 -0.0772799
v -0.00224894 -0.039335 -0.0772799
v -0.0292241 -0.0254226 -0.0772799
v -0.0297317 -0.0251676 -0.0772799
v -0.0304812 -0.024793 -0.0772799
v -0.0370529 -0.024793 0.085502
v -0.0354994 -0.0278945 0.0843085
v -0.0329648 -0.0310655 0.0849375
v -0.0291593 -0.0348662 0.0830343
v -0.0310638 -0.0329658 -0.0772799
v -0.0234529 -0.0386706 -0.0772799
v -0.0370529 -0.024793 -0.0772799
v -0.0348658 -0.0291633 0.0830343
v -0.0354381 -0.02802 -0.0772799
v -0.0329648 -0.0310655 -0.0772799
v -0.0291593 -0.0348662 -0.0772799
v -0.0348658 -0.0291633 -0.0772799
v 0.0255344 0.0266483 -0.0779657
v 0.0255344 0.0307122 -0.0623453
v 0.0255344 0.0366822 -0.0779657
v 0.0380551 1.09141e-05 -0.0779657
v 0.0399388 1.09141e-05 -0.0623453
v 0.0255344 0.0366822 -0.0623453
v 0.0278945 0.0355011 -0.0779657
v 0.0456411 1.09141e-05 -0.0779657
v 0.0456411 1.09141e-05 -0.0623453
v 0.0278945 0.0355011 -0.0623453
v 0.0291621 0.0348657 -0.0779657
v 0.0437416 0.0114126 -0.0779657
v 0.0437416 0.0114126 -0.0623453
v 0.0291621 0.0348657 -0.0623453
v 0.0310655 0.032963 -0.0779657
v 0.0418402 0.017117 -0.0779657
v 0.0418402 0.017117 -0.0623453
v 0.0310655 0.032963 -0.0623453
v 0.0348683 0.0291613 -0.0779657
v 0.0418363 0.0171278 -0.0779657
v 0.0387794 0.0232379 -0.0623453
v 0.0348683 0.0291613 -0.0623453
v 0.0386712 0.0234533 -0.0779657
v 0.0386712 0.0234533 -0.0623453
v 7.32384e-06 0.0456411 -0.0623453
v 7.32384e-06 0.0456411 -0.0760772
v 7.32384e-06 0.039938 -0.0623453
v 0.0114132 0.0437413 -0.0623453
v 9.82292e-06 0.0456392 -0.0779657
v 7.32384e-06 0.045602 -0.0779657
v 0.0114132 0.0437413 -0.0779657
v 7.32384e-06 0.0380549 -0.0779657
v 0.0247479 0.0266524 -0.0779657
v 0.0255324 0.030716 -0.0623453
v 0.0171148 0.0418396 -0.0623453
v 0.0171148 0.0418396 -0.0779657
v 0.0255324 0.0266524 -0.0779657
v 0.0255324 0.0366812 -0.0623453
v 0.0175321 0.0416314 -0.0623453
v 0.0171248 0.0418359 -0.0779657
v 0.0255324 0.0366812 -0.0779657
v 0.0234561 0.0386702 -0.0623453
v 0.0194335 0.0406815 -0.0623453
v 0.0200881 0.0403544 -0.0623453
v 0.0234561 0.0386702 -0.0779657
v -6.85714e-07 0.0456447 -0.0623468
v 7.32384e-06 0.0456396 -0.0623468
v -6.85714e-07 0.0456447 -0.0775059
v -0.0114112 0.0437414 -0.0623468
v 7.32384e-06 0.0456396 -0.0760782
v 7.32384e-06 0.0399382 -0.0623468
v 7.32384e-06 0.0442516 -0.0775059
v -0.0114112 0.0437414 -0.0775059
v -0.0171165 0.0418398 -0.0623468
v -6.85714e-07 0.0389745 -0.0775059
v 7.32384e-06 0.0393043 -0.0773412
v -0.0272589 0.0291624 -0.0623468
v -0.027267 0.0291487 -0.0623513
v -0.027267 0.0280957 -0.0775059
v 7.32384e-06 0.0395397 -0.0775059
v -0.0171165 0.0418398 -0.0775059
v -0.018107 0.0413451 -0.0623468
v -0.027267 0.0291659 -0.0623468
v -0.027267 0.0358155 -0.0775059
v -0.0183847 0.0412059 -0.0775059
v -0.0231422 0.0388268 -0.0775059
v -0.0231769 0.0388096 -0.0623468
v -0.027267 0.0358155 -0.0623468
v -0.0234545 0.0386705 -0.0775059
v -0.0234545 0.0386705 -0.0623468
v -0.0456393 1.0828e-05 -0.0775059
v -0.0389738 1.0828e-05 -0.0775059
v -0.0456393 1.0828e-05 -0.0623468
v -0.0437418 0.0114128 -0.0775059
v -0.0399378 1.0828e-05 -0.0623468
v -0.027267 0.0280933 -0.0775059
v -0.027267 0.0291449 -0.0623513
v -0.0437418 0.0114128 -0.0623468
v -0.0418407 0.017119 -0.0775059
v -0.027267 0.0291624 -0.0623468
v -0.027267 0.035815 -0.0775059
v -0.0418407 0.017119 -0.0623468
v -0.0417022 0.0173959 -0.0623468
v -0.0393047 0.0221873 -0.0775059
v -0.027267 0.035815 -0.0623468
v -0.0288497 0.0350228 -0.0775059
v -0.0288857 0.0350053 -0.0623468
v -0.0276177 0.0356397 -0.0623468
v -0.0391662 0.0224642 -0.0623468
v -0.0386698 0.0234562 -0.0775059
v -0.0291626 0.0348651 -0.0775059
v -0.0291626 0.0348651 -0.0623468
v -0.0386698 0.0234562 -0.0623468
v -0.0348677 0.0291589 -0.0775059
v -0.0310655 0.0329654 -0.0775059
v -0.0310655 0.0329654 -0.0623468
v -0.0348677 0.0291589 -0.0623468
f 1 2 5
f 1 5 3
f 1 3 7
f 1 7 13
f 1 13 22
f 1 22 34
f 1 34 36
f 1 36 25
f 1 25 15
f 1 15 8
f 1 8 4
f 1 4 2
f 2 4 8
f 2 8 14
f 2 14 24
f 2 24 35
f 2 35 47
f 2 47 56
f 2 56 68
f 2 68 81
f 2 81 82
f 2 82 69
f 2 69 57
f 2 57 48
f 2 48 38
f 2 38 33
f 2 33 21
f 2 21 12
f 2 12 6
f 2 6 11
f 2 11 5
f 3 5 7
f 5 9 10
f 5 10 7
f 5 11 16
f 5 16 9
f 6 12 19
f 6 19 11
f 7 10 13
f 8 15 14
f 9 16 17
f 9 17 10
f 10 18 13
f 10 17 18
f 11 19 20
f 11 20 16
f 12 21 19
f 13 18 22
f 14 15 23
f 14 23 24
f 15 25 26
f 15 26 27
f 15 27 23
f 16 20 17
f 17 20 28
f 17 28 37
f 17 37 29
f 17 29 18
f 18 29 37
f 18 37 44
f 18 44 52
f 18 52 51
f 18 51 59
f 18 59 73
f 18 73 78
f 18 78 77
f 18 77 63
f 18 63 53
f 18 53 45
f 18 45 34
f 18 34 22
f 19 21 30
f 19 30 20
f 20 30 31
f 20 31 32
f 20 32 28
f 21 33 31
f 21 31 30
f 23 27 26
f 23 26 36
f 23 36 45
f 23 45 53
f 23 53 62
f 23 62 64
f 23 64 54
f 23 54 46
f 23 46 35
f 23 35 24
f 25 36 26
f 28 32 37
f 31 33 38
f 31 38 39
f 31 39 40
f 31 40 41
f 31 41 42
f 31 42 43
f 31 43 32
f 32 43 44
f 32 44 37
f 34 45 36
f 35 46 55
f 35 55 47
f 38 48 40
f 38 40 39
f 40 49 42
f 40 42 41
f 40 48 57
f 40 57 50
f 40 50 49
f 42 44 43
f 42 49 51
f 42 51 52
f 42 52 44
f 46 54 55
f 47 55 67
f 47 67 56
f 49 50 58
f 49 58 59
f 49 59 51
f 50 57 69
f 50 69 60
f 50 60 75
f 50 75 61
f 50 61 58
f 53 63 62
f 54 64 65
f 54 65 55
f 55 65 66
f 55 66 67
f 56 67 80
f 56 80 68
f 58 61 70
f 58 70 71
f 58 71 72
f 58 72 73
f 58 73 59
f 60 74 71
f 60 71 75
f 60 69 82
f 60 82 74
f 61 75 71
f 61 71 70
f 62 63 76
f 62 76 64
f 63 65 64
f 63 64 76
f 63 77 66
f 63 66 65
f 66 77 78
f 66 78 79
f 66 79 80
f 66 80 67
f 68 80 81
f 71 74 83
f 71 83 79
f 71 79 78
f 71 78 73
f 71 73 72
f 74 82 81
f 74 81 84
f 74 84 83
f 79 83 80
f 80 83 84
f 80 84 81
f 85 86 92
f 85 92 87
f 85 87 88
f 85 88 89
f 85 89 90
f 85 90 93
f 85 93 86
f 86 91 92
f 86 93 102
f 86 102 107
f 86 107 117
f 86 117 115
f 86 115 127
f 86 127 138
f 86 138 149
f 86 149 145
f 86 145 141
f 86 141 131
f 86 131 122
f 86 122 111
f 86 111 101
f 86 101 91
f 87 92 91
f 87 91 101
f 87 101 110
f 87 110 119
f 87 119 128
f 87 128 118
f 87 118 109
f 87 109 108
f 87 108 98
f 87 98 94
f 87 94 88
f 88 94 89
f 89 95 103
f 89 103 96
f 89 96 97
f 89 97 90
f 89 94 98
f 89 98 99
f 89 99 95
f 90 97 100
f 90 100 102
f 90 102 93
f 95 99 109
f 95 109 118
f 95 118 129
f 95 129 139
f 95 139 151
f 95 151 143
f 95 143 134
f 95 134 133
f 95 133 124
f 95 124 112
f 95 112 104
f 95 104 103
f 96 103 104
f 96 104 97
f 97 104 105
f 97 105 106
f 97 106 117
f 97 117 107
f 97 107 102
f 97 102 100
f 98 108 99
f 99 108 109
f 101 111 110
f 104 112 113
f 104 113 114
f 104 114 105
f 105 115 117
f 105 117 106
f 105 114 113
f 105 113 116
f 105 116 127
f 105 127 115
f 110 111 120
f 110 120 121
f 110 121 119
f 111 122 132
f 111 132 142
f 111 142 150
f 111 150 139
f 111 139 129
f 111 129 128
f 111 128 130
f 111 130 121
f 111 121 123
f 111 123 120
f 112 124 113
f 113 124 125
f 113 125 126
f 113 126 116
f 116 126 138
f 116 138 127
f 118 128 129
f 119 130 128
f 119 121 130
f 120 123 121
f 122 131 140
f 122 140 132
f 124 133 125
f 125 133 134
f 125 134 135
f 125 135 136
f 125 136 137
f 125 137 126
f 126 137 149
f 126 149 138
f 131 141 148
f 131 148 140
f 132 140 142
f 134 143 144
f 134 144 136
f 134 136 135
f 136 145 149
f 136 149 137
f 136 144 146
f 136 146 147
f 136 147 148
f 136 148 141
f 136 141 145
f 139 150 151
f 140 148 152
f 140 152 142
f 142 152 150
f 143 151 152
f 143 152 153
f 143 153 146
f 143 146 144
f 146 153 152
f 146 152 148
f 146 148 147
f 150 152 151
f 154 155 158
f 154 158 165
f 154 165 173
f 154 173 191
f 154 191 203
f 154 203 193
f 154 193 177
f 154 177 167
f 154 167 160
f 154 160 156
f 154 156 161
f 154 161 169
f 154 169 184
f 154 184 200
f 154 200 199
f 154 199 187
f 154 187 170
f 154 170 162
f 154 162 157
f 154 157 159
f 154 159 155
f 155 159 164
f 155 164 163
f 155 163 172
f 155 172 188
f 155 188 175
f 155 175 166
f 155 166 158
f 156 160 168
f 156 168 161
f 157 162 163
f 157 163 164
f 157 164 159
f 158 166 165
f 160 167 178
f 160 178 168
f 161 168 169
f 162 170 171
f 162 171 163
f 163 171 172
f 165 166 174
f 165 174 173
f 166 175 176
f 166 176 174
f 167 177 194
f 167 194 178
f 168 178 179
f 168 179 180
f 168 180 181
f 168 181 182
f 168 182 183
f 168 183 169
f 169 183 184
f 170 185 198
f 170 198 201
f 170 201 189
f 170 189 186
f 170 186 172
f 170 172 171
f 170 187 183
f 170 183 182
f 170 182 185
f 172 186 189
f 172 189 190
f 172 190 188
f 173 174 192
f 173 192 191
f 174 176 192
f 175 188 176
f 176 188 190
f 176 190 192
f 177 193 195
f 177 195 194
f 178 194 179
f 179 195 180
f 179 194 195
f 180 195 196
f 180 196 197
f 180 197 198
f 180 198 185
f 180 185 182
f 180 182 181
f 183 199 200
f 183 200 184
f 183 187 199
f 189 201 202
f 189 202 190
f 190 202 192
f 191 192 205
f 191 205 203
f 192 202 204
f 192 204 205
f 193 203 205
f 193 205 195
f 195 205 204
f 195 204 206
f 195 206 197
f 195 197 196
f 197 207 201
f 197 201 198
f 197 206 207
f 201 207 202
f 202 207 204
f 204 207 206
f 208 209 210
f 208 210 211
f 208 211 212
f 208 212 213
f 208 213 222
f 208 222 234
f 208 234 244
f 208 244 238
f 208 238 226
f 208 226 223
f 208 223 214
f 208 214 209
f 209 214 210
f 210 214 215
f 210 215 216
f 210 216 217
f 210 217 211
f 211 218 219
f 211 219 212
f 211 217 218
f 212 219 213
f 213 219 220
f 213 220 221
f 213 221 222
f 214 223 215
f 215 224 225
f 215 225 217
f 215 217 216
f 215 223 226
f 215 226 238
f 215 238 227
f 215 227 228
f 215 228 224
f 217 225 229
f 217 229 230
f 217 230 231
f 217 231 218
f 218 232 219
f 218 231 232
f 219 232 242
f 219 242 252
f 219 252 248
f 219 248 247
f 219 247 254
f 219 254 253
f 219 253 243
f 219 243 233
f 219 233 221
f 219 221 220
f 221 233 234
f 221 234 222
f 224 235 225
f 224 228 236
f 224 236 235
f 225 235 237
f 225 237 229
f 227 238 244
f 227 244 253
f 227 253 254
f 227 254 251
f 227 251 250
f 227 250 241
f 227 241 246
f 227 246 245
f 227 245 236
f 227 236 228
f 229 239 240
f 229 240 231
f 229 231 230
f 229 237 246
f 229 246 241
f 229 241 250
f 229 250 239
f 231 240 232
f 232 240 242
f 233 243 234
f 234 243 253
f 234 253 244
f 235 236 245
f 235 245 246
f 235 246 237
f 239 247 248
f 239 248 249
f 239 249 240
f 239 250 251
f 239 251 247
f 240 249 252
f 240 252 242
f 247 251 254
f 248 252 249
f 255 256 261
f 255 261 269
f 255 269 268
f 255 268 281
f 255 281 294
f 255 294 284
f 255 284 272
f 255 272 270
f 255 270 262
f 255 262 257
f 255 257 258
f 255 258 264
f 255 264 276
f 255 276 265
f 255 265 259
f 255 259 260
f 255 260 256
f 256 260 261
f 257 262 263
f 257 263 258
f 258 263 271
f 258 271 264
f 259 265 266
f 259 266 278
f 259 278 290
f 259 290 304
f 259 304 305
f 259 305 291
f 259 291 279
f 259 279 267
f 259 267 260
f 260 267 268
f 260 268 269
f 260 269 261
f 262 270 263
f 263 270 272
f 263 272 273
f 263 273 274
f 263 274 271
f 264 271 275
f 264 275 276
f 265 276 287
f 265 287 277
f 265 277 278
f 265 278 266
f 267 279 280
f 267 280 268
f 268 280 293
f 268 293 281
f 271 274 282
f 271 282 283
f 271 283 275
f 272 284 273
f 273 285 274
f 273 284 294
f 273 294 286
f 273 286 298
f 273 298 285
f 274 285 282
f 275 283 297
f 275 297 287
f 275 287 276
f 277 287 300
f 277 300 288
f 277 288 289
f 277 289 278
f 278 289 290
f 279 291 292
f 279 292 280
f 280 292 293
f 281 293 292
f 281 292 291
f 281 291 305
f 281 305 310
f 281 310 309
f 281 309 311
f 281 311 308
f 281 308 307
f 281 307 299
f 281 299 298
f 281 298 286
f 281 286 294
f 282 295 283
f 282 285 295
f 283 295 296
f 283 296 300
f 283 300 297
f 285 298 299
f 285 299 295
f 287 297 300
f 288 301 289
f 288 300 306
f 288 306 311
f 288 311 309
f 288 309 302
f 288 302 301
f 289 301 290
f 290 301 303
f 290 303 304
f 295 299 307
f 295 307 296
f 296 306 300
f 296 307 308
f 296 308 311
f 296 311 306
f 301 302 303
f 302 309 310
f 302 310 303
f 303 310 304
f 304 310 305
f 312 313 316
f 312 316 322
f 312 322 332
f 312 332 325
f 312 325 318
f 312 318 314
f 312 314 319
f 312 319 329
f 312 329 340
f 312 340 330
f 312 330 320
f 312 320 315
f 312 315 317
f 312 317 313
f 313 317 323
f 313 323 316
f 314 318 326
f 314 326 319
f 315 320 321
f 315 321 317
f 316 323 322
f 317 321 324
f 317 324 334
f 317 334 323
f 318 325 338
f 318 338 346
f 318 346 348
f 318 348 344
f 318 344 339
f 318 339 328
f 318 328 327
f 318 327 326
f 319 326 327
f 319 327 328
f 319 328 329
f 320 330 331
f 320 331 324
f 320 324 321
f 322 323 333
f 322 333 332
f 323 334 333
f 324 335 334
f 324 331 336
f 324 336 337
f 324 337 335
f 325 332 333
f 325 333 338
f 328 339 340
f 328 340 329
f 330 340 341
f 330 341 331
f 331 341 336
f 333 334 335
f 333 335 337
f 333 337 345
f 333 345 342
f 333 342 338
f 336 341 337
f 337 341 343
f 337 343 344
f 337 344 345
f 338 342 346
f 339 344 347
f 339 347 349
f 339 349 343
f 339 343 341
f 339 341 340
f 342 345 348
f 342 348 346
f 343 349 344
f 344 348 345
f 344 349 347
f 350 351 355
f 350 355 361
f 350 361 369
f 350 369 378
f 350 378 380
f 350 380 372
f 350 372 365
f 350 365 358
f 350 358 352
f 350 352 353
f 350 353 354
f 350 354 356
f 350 356 351
f 351 356 357
f 351 357 355
f 352 358 366
f 352 366 374
f 352 374 383
f 352 383 395
f 352 395 407
f 352 407 416
f 352 416 417
f 352 417 408
f 352 408 396
f 352 396 384
f 352 384 375
f 352 375 367
f 352 367 359
f 352 359 354
f 352 354 353
f 354 359 363
f 354 363 356
f 355 360 361
f 355 357 362
f 355 362 360
f 356 363 371
f 356 371 364
f 356 364 357
f 357 364 362
f 358 365 373
f 358 373 366
f 359 367 371
f 359 371 363
f 360 362 368
f 360 368 361
f 361 368 369
f 362 364 371
f 362 371 370
f 362 370 377
f 362 377 368
f 365 372 373
f 366 373 381
f 366 381 390
f 366 390 378
f 366 378 391
f 366 391 402
f 366 402 392
f 366 392 382
f 366 382 374
f 367 375 376
f 367 376 371
f 368 377 389
f 368 389 399
f 368 399 411
f 368 411 418
f 368 418 413
f 368 413 401
f 368 401 391
f 368 391 378
f 368 378 369
f 370 371 376
f 370 376 379
f 370 379 389
f 370 389 377
f 372 380 381
f 372 381 373
f 374 382 394
f 374 394 383
f 375 384 385
f 375 385 376
f 376 385 386
f 376 386 387
f 376 387 388
f 376 388 379
f 378 390 380
f 379 388 399
f 379 399 389
f 380 390 381
f 382 392 393
f 382 393 394
f 383 394 406
f 383 406 395
f 384 396 386
f 384 386 385
f 386 396 408
f 386 408 397
f 386 397 398
f 386 398 387
f 387 398 400
f 387 400 388
f 388 400 411
f 388 411 399
f 391 401 402
f 392 403 393
f 392 402 403
f 393 404 405
f 393 405 394
f 393 403 404
f 394 405 415
f 394 415 406
f 395 406 415
f 395 415 407
f 397 408 417
f 397 417 409
f 397 409 410
f 397 410 398
f 398 410 400
f 400 410 412
f 400 412 418
f 400 418 411
f 401 413 414
f 401 414 404
f 401 404 403
f 401 403 402
f 404 414 415
f 404 415 405
f 407 415 410
f 407 410 416
f 409 417 416
f 409 416 410
f 410 415 414
f 410 414 412
f 412 414 413
f 412 413 418
f 419 420 421
f 419 421 425
f 419 425 422
f 419 422 428
f 419 428 423
f 419 423 429
f 419 429 438
f 419 438 449
f 419 449 461
f 419 461 467
f 419 467 481
f 419 481 493
f 419 493 496
f 419 496 495
f 419 495 484
f 419 484 470
f 419 470 462
f 419 462 450
f 419 450 439
f 419 439 430
f 419 430 424
f 419 424 420
f 420 424 431
f 420 431 440
f 420 440 452
f 420 452 453
f 420 453 444
f 420 444 443
f 420 443 432
f 420 432 425
f 420 425 421
f 422 425 426
f 422 426 427
f 422 427 435
f 422 435 428
f 423 428 437
f 423 437 429
f 424 430 431
f 425 432 426
f 426 432 433
f 426 433 445
f 426 445 434
f 426 434 435
f 426 435 427
f 428 435 436
f 428 436 437
f 429 437 436
f 429 436 438
f 430 439 431
f 431 439 441
f 431 441 442
f 431 442 440
f 432 443 433
f 433 443 444
f 433 444 453
f 433 453 464
f 433 464 473
f 433 473 488
f 433 488 475
f 433 475 474
f 433 474 465
f 433 465 455
f 433 455 454
f 433 454 445
f 434 445 454
f 434 454 446
f 434 446 436
f 434 436 435
f 436 446 447
f 436 447 456
f 436 456 448
f 436 448 449
f 436 449 438
f 439 450 463
f 439 463 471
f 439 471 486
f 439 486 487
f 439 487 472
f 439 472 464
f 439 464 453
f 439 453 451
f 439 451 442
f 439 442 441
f 440 451 452
f 440 442 451
f 446 454 447
f 447 454 455
f 447 455 456
f 448 456 457
f 448 457 458
f 448 458 459
f 448 459 460
f 448 460 461
f 448 461 449
f 450 462 469
f 450 469 463
f 451 453 452
f 455 465 457
f 455 457 456
f 457 459 458
f 457 465 474
f 457 474 466
f 457 466 468
f 457 468 459
f 459 467 461
f 459 461 460
f 459 468 481
f 459 481 467
f 462 470 483
f 462 483 469
f 463 469 471
f 464 472 473
f 466 474 475
f 466 475 476
f 466 476 477
f 466 477 478
f 466 478 479
f 466 479 480
f 466 480 468
f 468 480 493
f 468 493 481
f 469 482 471
f 469 483 489
f 469 489 482
f 470 484 491
f 470 491 483
f 471 485 486
f 471 482 485
f 472 487 473
f 473 487 482
f 473 482 489
f 473 489 488
f 475 488 489
f 475 489 477
f 475 477 476
f 477 489 490
f 477 490 483
f 477 483 491
f 477 491 492
f 477 492 479
f 477 479 478
f 479 492 480
f 480 492 494
f 480 494 496
f 480 496 493
f 482 487 485
f 483 490 489
f 484 495 491
f 485 487 486
f 491 495 494
f 491 494 492
f 494 495 496
f 497 498 501
f 497 501 508
f 497 508 517
f 497 517 529
f 497 529 542
f 497 542 553
f 497 553 551
f 497 551 536
f 497 536 533
f 497 533 520
f 497 520 511
f 497 511 503
f 497 503 499
f 497 499 500
f 497 500 506
f 497 506 516
f 497 516 527
f 497 527 528
f 497 528 541
f 497 541 540
f 497 540 545
f 497 545 531
f 497 531 518
f 497 518 510
f 497 510 502
f 497 502 498
f 498 502 501
f 499 503 504
f 499 504 505
f 499 505 500
f 500 505 506
f 501 507 508
f 501 502 509
f 501 509 507
f 502 510 509
f 503 511 512
f 503 512 504
f 504 512 513
f 504 513 514
f 504 514 505
f 505 514 515
f 505 515 516
f 505 516 506
f 507 509 519
f 507 519 532
f 507 532 547
f 507 547 558
f 507 558 555
f 507 555 544
f 507 544 530
f 507 530 517
f 507 517 508
f 509 510 518
f 509 518 519
f 511 520 521
f 511 521 512
f 512 521 522
f 512 522 523
f 512 523 524
f 512 524 525
f 512 525 513
f 513 525 526
f 513 526 514
f 514 526 515
f 515 527 516
f 515 526 525
f 515 525 528
f 515 528 527
f 517 530 529
f 518 531 532
f 518 532 519
f 520 533 522
f 520 522 521
f 522 534 535
f 522 535 523
f 522 533 536
f 522 536 534
f 523 535 537
f 523 537 524
f 524 537 552
f 524 552 538
f 524 538 539
f 524 539 525
f 525 539 540
f 525 540 541
f 525 541 528
f 529 530 544
f 529 544 543
f 529 543 554
f 529 554 542
f 531 545 539
f 531 539 538
f 531 538 552
f 531 552 546
f 531 546 532
f 532 546 547
f 534 548 549
f 534 549 550
f 534 550 535
f 534 536 551
f 534 551 553
f 534 553 548
f 535 550 537
f 537 550 552
f 539 545 540
f 542 554 548
f 542 548 553
f 543 544 555
f 543 555 556
f 543 556 557
f 543 557 554
f 546 552 550
f 546 550 557
f 546 557 547
f 547 557 558
f 548 554 559
f 548 559 549
f 549 559 550
f 550 559 557
f 554 557 559
f 555 558 557
f 555 557 556
f 560 561 565
f 560 565 573
f 560 573 584
f 560 584 595
f 560 595 605
f 560 605 604
f 560 604 603
f 560 603 596
f 560 596 585
f 560 585 574
f 560 574 566
f 560 566 562
f 560 562 563
f 560 563 569
f 560 569 564
f 560 564 561
f 561 564 565
f 562 566 567
f 562 567 568
f 562 568 563
f 563 568 567
f 563 567 575
f 563 575 586
f 563 586 597
f 563 597 588
f 563 588 578
f 563 578 570
f 563 570 571
f 563 571 569
f 564 569 572
f 564 572 565
f 565 572 573
f 566 574 575
f 566 575 567
f 569 571 576
f 569 576 577
f 569 577 572
f 570 578 571
f 571 579 580
f 571 580 576
f 571 578 581
f 571 581 582
f 571 582 579
f 572 577 580
f 572 580 583
f 572 583 584
f 572 584 573
f 574 585 575
f 575 585 586
f 576 580 577
f 578 587 581
f 578 588 587
f 579 589 580
f 579 582 589
f 580 589 590
f 580 590 583
f 581 587 582
f 582 587 588
f 582 588 591
f 582 591 592
f 582 592 599
f 582 599 589
f 583 590 593
f 583 593 594
f 583 594 595
f 583 595 584
f 585 596 606
f 585 606 602
f 585 602 601
f 585 601 607
f 585 607 599
f 585 599 592
f 585 592 591
f 585 591 597
f 585 597 586
f 588 597 591
f 589 598 590
f 589 599 607
f 589 607 598
f 590 600 593
f 590 598 601
f 590 601 600
f 593 600 601
f 593 601 602
f 593 602 606
f 593 606 594
f 594 603 604
f 594 604 605
f 594 605 595
f 594 606 596
f 594 596 603
f 598 607 601
f 608 609 612
f 608 612 619
f 608 619 628
f 608 628 640
f 608 640 653
f 608 653 643
f 608 643 632
f 608 632 621
f 608 621 614
f 608 614 610
f 608 610 616
f 608 616 624
f 608 624 635
f 608 635 649
f 608 649 648
f 608 648 650
f 608 650 636
f 608 636 625
f 608 625 617
f 608 617 611
f 608 611 613
f 608 613 609
f 609 613 612
f 610 614 615
f 610 615 616
f 611 617 618
f 611 618 613
f 612 613 620
f 612 620 619
f 613 618 620
f 614 621 633
f 614 633 645
f 614 645 646
f 614 646 634
f 614 634 622
f 614 622 615
f 615 622 623
f 615 623 616
f 616 623 624
f 617 625 626
f 617 626 618
f 618 626 627
f 618 627 620
f 619 620 629
f 619 629 630
f 619 630 628
f 620 627 639
f 620 639 631
f 620 631 641
f 620 641 629
f 621 632 633
f 622 634 635
f 622 635 624
f 622 624 623
f 625 636 626
f 626 636 637
f 626 637 638
f 626 638 627
f 627 638 639
f 628 630 640
f 629 641 642
f 629 642 630
f 630 642 640
f 631 639 641
f 632 643 641
f 632 641 644
f 632 644 645
f 632 645 633
f 634 646 651
f 634 651 647
f 634 647 638
f 634 638 637
f 634 637 648
f 634 648 649
f 634 649 635
f 636 650 637
f 637 650 648
f 638 647 639
f 639 647 651
f 639 651 652
f 639 652 641
f 640 642 653
f 641 652 651
f 641 651 644
f 641 643 653
f 641 653 642
f 644 651 646
f 644 646 645
f 654 655 656
f 654 656 657
f 654 657 665
f 654 665 677
f 654 677 666
f 654 666 658
f 654 658 659
f 654 659 660
f 654 660 671
f 654 671 683
f 654 683 698
f 654 698 700
f 654 700 686
f 654 686 673
f 654 673 661
f 654 661 655
f 655 662 663
f 655 663 672
f 655 672 674
f 655 674 687
f 655 687 703
f 655 703 710
f 655 710 704
f 655 704 688
f 655 688 675
f 655 675 664
f 655 664 656
f 655 661 662
f 656 664 665
f 656 665 657
f 658 666 659
f 659 666 667
f 659 667 681
f 659 681 668
f 659 668 669
f 659 669 670
f 659 670 660
f 660 670 671
f 661 672 662
f 661 673 674
f 661 674 672
f 662 672 663
f 664 675 676
f 664 676 665
f 665 676 678
f 665 678 679
f 665 679 677
f 666 677 680
f 666 680 667
f 667 680 692
f 667 692 681
f 668 681 682
f 668 682 684
f 668 684 669
f 669 683 671
f 669 671 670
f 669 684 699
f 669 699 685
f 669 685 698
f 669 698 683
f 673 686 674
f 674 686 687
f 675 688 678
f 675 678 676
f 677 679 680
f 678 688 689
f 678 689 690
f 678 690 691
f 678 691 679
f 679 691 692
f 679 692 680
f 681 692 693
f 681 693 694
f 681 694 707
f 681 707 695
f 681 695 682
f 682 695 696
f 682 696 697
f 682 697 699
f 682 699 684
f 685 699 697
f 685 697 696
f 685 696 709
f 685 709 714
f 685 714 708
f 685 708 713
f 685 713 715
f 685 715 712
f 685 712 710
f 685 710 703
f 685 703 702
f 685 702 701
f 685 701 700
f 685 700 698
f 686 700 687
f 687 700 701
f 687 701 702
f 687 702 703
f 688 704 689
f 689 704 705
f 689 705 690
f 690 706 691
f 690 705 711
f 690 711 706
f 691 706 693
f 691 693 692
f 693 707 694
f 693 706 713
f 693 713 708
f 693 708 714
f 693 714 707
f 695 707 714
f 695 714 709
f 695 709 696
f 704 711 705
f 704 710 712
f 704 712 711
f 706 711 715
f 706 715 713
f 711 712 715
f 716 717 721
f 716 721 718
f 716 718 722
f 716 722 726
f 716 726 730
f 716 730 734
f 716 734 738
f 716 738 735
f 716 735 731
f 716 731 727
f 716 727 723
f 716 723 719
f 716 719 720
f 716 720 717
f 717 720 724
f 717 724 728
f 717 728 732
f 717 732 736
f 717 736 739
f 717 739 737
f 717 737 733
f 717 733 729
f 717 729 725
f 717 725 721
f 718 721 725
f 718 725 722
f 719 723 724
f 719 724 720
f 722 725 729
f 722 729 726
f 723 727 728
f 723 728 724
f 726 729 733
f 726 733 730
f 727 731 732
f 727 732 728
f 730 733 737
f 730 737 734
f 731 735 732
f 732 735 736
f 734 737 739
f 734 739 738
f 735 738 736
f 736 738 739
f 740 741 745
f 740 745 747
f 740 747 742
f 740 742 749
f 740 749 753
f 740 753 757
f 740 757 759
f 740 759 758
f 740 758 754
f 740 754 750
f 740 750 743
f 740 743 746
f 740 746 741
f 741 744 745
f 741 746 744
f 742 747 748
f 742 748 749
f 743 750 751
f 743 751 746
f 744 746 751
f 744 751 755
f 744 755 760
f 744 760 756
f 744 756 752
f 744 752 748
f 744 748 747
f 744 747 745
f 748 752 749
f 749 752 756
f 749 756 753
f 750 754 755
f 750 755 751
f 753 756 760
f 753 760 757
f 754 758 755
f 755 758 759
f 755 759 760
f 757 760 759
f 761 762 765
f 761 765 763
f 761 763 768
f 761 768 764
f 761 764 769
f 761 769 777
f 761 777 782
f 761 782 785
f 761 785 783
f 761 783 778
f 761 778 772
f 761 772 766
f 761 766 762
f 762 766 771
f 762 771 775
f 762 775 767
f 762 767 765
f 763 765 767
f 763 767 775
f 763 775 770
f 763 770 774
f 763 774 779
f 763 779 784
f 763 784 781
f 763 781 780
f 763 780 776
f 763 776 768
f 764 768 776
f 764 776 769
f 766 770 771
f 766 772 773
f 766 773 774
f 766 774 770
f 769 776 777
f 770 775 771
f 772 778 773
f 773 778 783
f 773 783 779
f 773 779 774
f 776 780 777
f 777 780 781
f 777 781 782
f 779 783 785
f 779 785 784
f 781 784 782
f 782 784 785
f 786 787 790
f 786 790 788
f 786 788 793
f 786 793 789
f 786 789 794
f 786 794 799
f 786 799 805
f 786 805 809
f 786 809 810
f 786 810 806
f 786 806 801
f 786 801 796
f 786 796 791
f 786 791 787
f 787 791 792
f 787 792 790
f 788 790 795
f 788 795 800
f 788 800 803
f 788 803 802
f 788 802 807
f 788 807 811
f 788 811 812
f 788 812 808
f 788 808 804
f 788 804 798
f 788 798 797
f 788 797 793
f 789 793 797
f 789 797 794
f 790 792 795
f 791 796 800
f 791 800 795
f 791 795 792
f 794 797 798
f 794 798 804
f 794 804 799
f 796 801 802
f 796 802 803
f 796 803 800
f 799 804 805
f 801 806 802
f 802 806 807
f 804 808 805
f 805 808 812
f 805 812 809
f 806 810 811
f 806 811 807
f 809 812 811
f 809 811 810
